<svg xmlns="http://www.w3.org/2000/svg" viewBox="0 0 653.49 636.07"><defs><style>.cls-1{fill:#ea7624;}.cls-2{fill:#febe2a;}.cls-3{fill:#8d183b;}.cls-4{fill:#c4bdb8;opacity:0.23;}.cls-5{fill:#bdb8b1;}.cls-6{fill:#f58e24;}.cls-7{fill:#f39021;}.cls-8{fill:#fbaf40;}.cls-9{fill:#fffefe;}.cls-10{fill:#02534e;}.cls-11{fill:none;}</style></defs><g id="Layer_2" data-name="Layer 2"><g id="Layer_1-2" data-name="Layer 1"><path class="cls-1" d="M560.19,404.68c-9.87,2.19-15.81,8.55-19.19,17.83-1.6,4.41-4,8.39-7.84,11.26-5,3.68-9.84,2.26-12.29-3.59a16.36,16.36,0,0,1,.69-13.94c11.26-23.06,38.17-13.53,38.62-11.52Z"/><path class="cls-2" d="M428.36,448.66l.91-.25c4.7-1.14,7.24.78,10.17,4.9,13,18.2,40.57,19.57,55.47,3.38a56.47,56.47,0,0,0,9.59-14.58c2.32-4.95,5.36-9.37,10.18-12.58.81,2.1,1.44,4.1,2.35,6,.61,1.24,0,1.95-.66,2.64-3.28,3.39-5.2,7.59-7.25,11.78-8.06,16.47-20.62,26.47-39.68,26.58-17.72.1-35-11.33-40.75-26.7C428.57,449.5,428.51,449.18,428.36,448.66Z"/><path class="cls-3" d="M570.41,404.66a15.43,15.43,0,0,0-6.29-6.8c-4.75-2.87-10-3.93-15.33-4.26-16.7-1-33.57,8.26-36.51,26.66a5.2,5.2,0,0,1-2.64,3.58,32.64,32.64,0,0,0-11.16,12.85c-1.2,2.49-2.47,5-3.89,7.32-6,10-14.42,16.22-26.62,16.34-6.7.07-14.86-3.42-20.13-8.57a12.26,12.26,0,0,1-1.35-.1,14.15,14.15,0,0,1-2.3-.52l-.87-.2a40.26,40.26,0,0,1-4.22-1.21,132.77,132.77,0,0,0-9.8,13.93c2,2.64,4,5.34,6.11,7.89,9.49,8.34,20.71,12.54,33.27,13.29,2.76-.22,5.54-.27,8.27-.68,18.76-2.84,31.27-13.76,39.21-30.51a51.07,51.07,0,0,1,5.14-9.23c.77-1,1.49-1.78,3-1.3,6.8,2.11,12.09-.77,16.91-5.06,3.83-3.4,5.83-7.95,7.64-12.61,2.91-7.48,8-12.21,16.16-13.47C569,411.37,570.49,409.2,570.41,404.66Zm-101.08,72a45.72,45.72,0,0,1-31.45-12.83c1.71-2.59,3.26-4.79,4.58-6.59,13.87,14.52,38.55,14.6,52.35-.39a56.64,56.64,0,0,0,9.58-14.57c2.33-5,5.36-9.38,10.18-12.59.81,2.1,1.44,4.1,2.36,6a2.06,2.06,0,0,1-.67,2.64c-3.28,3.39-5.2,7.6-7.25,11.78C501,466.55,488.4,476.55,469.33,476.66Zm71.57-54A23.39,23.39,0,0,1,533.06,434c-5,3.68-9.84,2.26-12.29-3.59-2-4.8-1.32-9.49.69-13.94,6.93-15.33,20.68-15.18,21.13-15.21a42.15,42.15,0,0,1,6.64.11,4,4,0,0,1,1.8,7.37C546.34,411.91,543.08,416.69,540.9,422.69Z"/><ellipse class="cls-4" cx="321.65" cy="588.67" rx="226.73" ry="42.45"/><path class="cls-3" d="M501.72,559.85c-3,3-5.39,6.53-8.51,9.45a60.08,60.08,0,0,1-40,16.72c-4.82.17-9.66,0-14.49,0a4.84,4.84,0,0,0-3.44.91C419.24,600,400.58,605.75,380.05,606c-20.12.24-38.53-5.14-54.75-17.29-1.39-1-2.28-1.08-3.65,0-21.21,16.33-45.24,20.11-71,15.66a79.64,79.64,0,0,1-38.33-17.4,5,5,0,0,0-3.7-.94c-8.8,0-17.63.58-26.36-1.11-16-3.1-28.67-11.39-38.39-24.37-.39-.53-.1-1.39-.9-1.65-2.28-4.55-5.44-8.67-7-13.59a81.92,81.92,0,0,1-3-13c-.46-3.24-1.67-6.42-1.77-9.65A72.47,72.47,0,0,1,145,477.58c3.26-4.63,6.67-9.05,11.1-12.48,3.42-2.64,6.71-5.65,10.91-7.11,3.5-1.23,6.5-3.54,10.2-4.41,2.71-.64,5.22-2.15,8.08-2.26,3-.12,3.76-2.43,4.44-4.6,2.13-6.74,5-13.2,7.56-19.76.36-.91-.1-2.2,1.25-2.95.58-.32-.07-1.36-1.13-1.95-7.37-4.05-14.67-8.21-21.7-12.84a135.22,135.22,0,0,1-23.35-19.32c-1.38-1.44-2.42-1.33-3.9-.5a28.78,28.78,0,0,1-33.5-3.54c-7.95-7.2-11.82-16.32-14.27-26.49-1.21-5-1.78-10.11-2.84-15.13-.4-1.91-2.4-2.87-3.83-3.93A57.17,57.17,0,0,1,77.33,321.7a39.06,39.06,0,0,1-4.11-12.51,24.29,24.29,0,0,1,1.44-11.47c1.07-3.08,3.11-5.52,5-8.08,2.35-3.21,6-4.85,9-7.3A65,65,0,0,0,96,275.71a7.94,7.94,0,0,0,1.88-5.37c0-.85,0-1.7,0-2.55-.58-9.43.23-18.86.95-28.19.65-8.43,1.37-16.93,3.23-25.3,1.41-6.36,3.09-12.67,4.69-19a157.51,157.51,0,0,1,7.39-22.64c2.71-6.38,5-13,8.34-19,1.93-3.46.62-6.86-.2-9.93-1.72-6.46-3.36-13-4.63-19.48-.64-3.28-.45-7-1-10.29-1-6.14-.39-12.22-.57-18.32a76.5,76.5,0,0,1,2.76-22.12c.93-3.47,1.57-7.18,3.34-10.14s3.47-6.19,6.49-8.62a44.82,44.82,0,0,1,9-6,6.71,6.71,0,0,1,2.92-.7c4.74,0,9.5.33,14.21-.06,6-.51,10.74,2.71,15.78,5a74.64,74.64,0,0,1,9.1,5.2c4.67,3,9.14,6.25,13.79,9.22s8.69,7,13.52,9.86c2.91,1.73,5.24,4.41,7.91,6.58,5.35,4.35,10.84,8.5,15.84,13.27,1.48,1.41,3.54,2.15,4.86,3.81a1.74,1.74,0,0,0,1.86.4c5.13-1.18,10.42-1.51,15.51-2.62s9.87-1.29,14.82-1.91c7.62-1,15.29-1,22.9-1.66,20.09-1.81,40.2-.74,60.28-.52,5.62.07,11.59-.33,17.2,1.45a4.8,4.8,0,0,0,1.42,0c5.32,0,10.51,1,15.75,1.78A93.67,93.67,0,0,0,395,99a66.28,66.28,0,0,1,13.69,2.09,4.72,4.72,0,0,0,4.66-1c4.93-4.28,9.73-8.71,15.14-12.43,2.8-1.93,5-4.74,7.85-6.59,3.3-2.14,5.79-5.27,9.45-7,1.79-.86,3.25-2.61,5-3.85,4.4-3.09,8.84-6.16,13.11-9.38,6-4.52,13-6.57,19.41-10.07,5.46-3,11.16-2.28,16.89-2.72,9.1-.69,15.15,3.89,20.3,10.6C524.68,64,527,70,528.32,76.7a60.82,60.82,0,0,1,1.33,14.94c-.07,1.77,1,3.28.78,4.94-.82,6.92-.4,13.89-1.11,20.81-.91,8.88-3,17.55-5.08,26.2-.44,1.77-.8,3.57-1.12,5.37-.64,3.62,1.81,6.36,3,9.39,1.36,3.49,2.69,7,4.27,10.44a125.23,125.23,0,0,1,6.27,17.41c1.45,4.92,2.39,10.1,4,15a150.78,150.78,0,0,1,4,16.29c.71,3.39,1,7,1.54,10.45,1.78,11.58,1.27,23.23,1.62,34.86a40.85,40.85,0,0,0,.87,8.82c1,3.85,3.82,6.63,7,8.68a48.57,48.57,0,0,1,13.13,11.9A25.91,25.91,0,0,1,573,302.6c.85,4.45-.2,8.47-1,12.51a21.4,21.4,0,0,1-2.88,7,51.79,51.79,0,0,1-9.74,12.21c-3.21,2.82-6.24,5.85-9.66,8.45a5.5,5.5,0,0,0-1.93,4.15,98.21,98.21,0,0,1-3.06,16.27,50.78,50.78,0,0,1-7.32,15.67A37,37,0,0,1,522.89,391a23.2,23.2,0,0,1-13,2,33.46,33.46,0,0,1-12.49-3.74c-1.89-1.06-3.3-1.64-4.52,1.13a7.94,7.94,0,0,1-4.08,3.67c-2.8,1.28-4.28,4.45-7,5.91-5.08,2.67-9,7-13.68,10.17-5.38,3.66-11.4,6.17-16.54,10.12-.46.35-1.28.18-1.87.41-.94.36-1.53,1-1,2.1,3.62,7.19,5.32,15.12,8.68,22.41a9.68,9.68,0,0,1,.46,2.7c.43,3,2.64,3.47,4.85,4a59.62,59.62,0,0,1,23.35,10.82c3.86,3,7.78,5.86,10.63,9.82,2.62,3.63,5.27,7.24,7.6,11.12,2.86,4.76,4.59,9.95,6.74,15a23.14,23.14,0,0,1,1.52,6.76c.25,2.74.9,5.54,1.25,8.25.53,4,1.57,8.33-.65,12.32a2.09,2.09,0,0,0-.23,1.07c.41,5.81-1.45,11.3-3,16.66-1.55,5.2-4.56,9.94-7.56,14.55-.28,0-.39.2-.27.48Zm14.47-456.08c.7-4.25.08-9.27-.31-14.25-.6-7.47-1.66-14.9-5.75-21.47-3.42-5.49-8.48-7.74-14.78-6.51a49.53,49.53,0,0,0-15,6C457.75,80.42,438,97,419.29,115a7,7,0,0,1-6.84,2.13,454,454,0,0,0-61.74-6.92c-14-.69-28-.73-42-.38-24.65.62-49.17,2.37-73.43,7a7.17,7.17,0,0,1-7-2A336.44,336.44,0,0,0,180,75.23c-7.63-5.14-15.56-9.81-24.31-12.84-9.73-3.36-16.56-.59-21.15,8.67-3.31,6.67-4.24,13.92-4.62,21.23-1,19,2.49,37.34,8,55.38a9.41,9.41,0,0,1-.45,7.61c-9.65,18.54-15.68,38.34-20.07,58.69a228.27,228.27,0,0,0-4.77,54.2c.23,8.58-3.12,15.61-9.46,21.34-3.18,2.88-6.9,5-10.25,7.63-5.12,4-6.52,9.24-3.92,15.16,3.4,7.71,9.38,13.27,16,18.13,8.7,6.42,6.46,3.45,7.81,14.29,1.07,8.58,2.33,17.12,6.84,24.72,5,8.43,14.32,12.63,23.88,5.81,1.31-.94,2.63-1.86,3.95-2.78,4.25-2.93,7.28-2.57,10.7,1.29a144.54,144.54,0,0,0,18.66,17.86C189,401.25,202.27,409,217.1,414a13.73,13.73,0,0,0,9.68-.26,45.8,45.8,0,0,0,9.33-5.38c4.92-3.39,7.83-3.22,12.11.88,12.3,11.78,27,19.12,43.36,23.18a129.21,129.21,0,0,0,57.73,1.07c18.74-3.85,35.56-11.7,49.34-25.34,2.66-2.64,5.21-3,8.82-1.06a69.47,69.47,0,0,1,6,3.8c6,4,12.08,4.87,19.07,2a148.66,148.66,0,0,0,55-38.86c3.67-4.06,6.6-4.56,11.18-1.55a66.26,66.26,0,0,0,7,4.35c6.35,3.08,12.41,2.11,17.39-2.93a31,31,0,0,0,7.17-12.44c2.38-7.26,3.3-14.77,3.92-22.33.2-2.45,1-4.32,3.22-5.6a43,43,0,0,0,5.11-3.58c6.09-4.9,11.93-10,14.87-17.57,2.44-6.26,1-11.52-4.3-15.63-1.49-1.16-3.07-2.22-4.66-3.25-10.22-6.58-15.46-15.62-14.91-28.08a181.83,181.83,0,0,0-2.09-36.24c-4.1-26-11.33-51-23-74.62a6.46,6.46,0,0,1-.37-5.18C512.62,134.78,515.8,119.92,516.19,103.77ZM379.13,591.18c3.58-.07,7.17-.12,10.76-.46,29.34-2.71,52.42-24.42,59-54.52,4.47-20.36,4.05-40.8,1-61.28-2.25-15.08-6.32-29.61-13.46-43.18-1.14-2.16-2.15-3.88-5.15-2.46-1.36.65-3.17.42-4.77.41-7-.05-13.38-2.47-19.52-5.51a3.29,3.29,0,0,0-4.24.48,112.28,112.28,0,0,1-38.13,20.9,138.15,138.15,0,0,1-66,4.37c-20.63-3.56-39.42-11.43-55.69-24.8-2-1.67-3.38-2-5.82-.7-6.63,3.66-13.69,6.35-21.45,4.94-2.67-.49-3.66.32-4.72,2.49a147.93,147.93,0,0,0-12.63,39.37c-3.76,21.55-4.31,43.15.35,64.63,3.94,18.19,12.84,33.36,28.67,43.78,18.72,12.32,39.28,13.93,60.61,9.44,12.06-2.54,22.26-8.85,31.35-17.06,3.1-2.8,5.11-2.85,7.95-.26C342,585.18,359.18,591.84,379.13,591.18Zm-233.37-72A49,49,0,0,0,147,530.68c4.86,22.89,20.29,40.21,47.51,40.57.87,0,2.07.56,2.58-.41.41-.79-.52-1.55-.94-2.25a95.54,95.54,0,0,1-9.82-22.29c-7.36-25.16-7.17-50.61-2.74-76.2.14-.82.77-1.83.11-2.43-.81-.71-1.77.15-2.6.46C159.64,475.87,145.8,495.77,145.76,519.21Zm353.63,4.18c0-15.81-3.48-27-10.83-37.06a52.76,52.76,0,0,0-21.74-17.76c-.84-.37-1.82-1.21-2.63-.69-1,.64-.05,1.72.07,2.59.42,3.28,1,6.54,1.43,9.82a177.85,177.85,0,0,1-.08,45.87,114.83,114.83,0,0,1-15.09,43.43c-.61,1-1.55,2.18.74,2,7.42-.45,14.73-1.6,21.32-5.28C490.67,556.28,498.64,540.26,499.39,523.39Z"/><path class="cls-5" d="M502.05,558.72c-.12-.28,0-.43.27-.48Z"/><path class="cls-2" d="M516.19,103.77c-.39,16.15-3.57,31-8.2,45.6a6.46,6.46,0,0,0,.37,5.18c11.69,23.63,18.92,48.64,23,74.62a181.83,181.83,0,0,1,2.09,36.24c-.55,12.46,4.69,21.5,14.91,28.08,1.59,1,3.17,2.09,4.66,3.25,5.29,4.11,6.74,9.37,4.3,15.63-2.94,7.55-8.78,12.67-14.87,17.57a43,43,0,0,1-5.11,3.58c-2.22,1.28-3,3.15-3.22,5.6-.62,7.56-1.54,15.07-3.92,22.33a31,31,0,0,1-7.17,12.44c-5,5-11,6-17.39,2.93a66.26,66.26,0,0,1-7-4.35c-4.58-3-7.51-2.51-11.18,1.55a148.66,148.66,0,0,1-55,38.86c-7,2.84-13.06,2-19.07-2a69.47,69.47,0,0,0-6-3.8c-3.61-1.9-6.16-1.58-8.82,1.06-13.78,13.64-30.6,21.49-49.34,25.34a129.21,129.21,0,0,1-57.73-1.07c-16.38-4.06-31.06-11.4-43.36-23.18-4.28-4.1-7.19-4.27-12.11-.88a45.8,45.8,0,0,1-9.33,5.38,13.73,13.73,0,0,1-9.68.26C202.27,409,189,401.25,176.8,391.62a144.54,144.54,0,0,1-18.66-17.86c-3.42-3.86-6.45-4.22-10.7-1.29-1.32.92-2.64,1.84-3.95,2.78-9.56,6.82-18.87,2.62-23.88-5.81-4.51-7.6-5.77-16.14-6.84-24.72-1.35-10.84.89-7.87-7.81-14.29C98.37,325.57,92.39,320,89,312.3c-2.6-5.92-1.2-11.15,3.92-15.16,3.35-2.62,7.07-4.75,10.25-7.63,6.34-5.73,9.69-12.76,9.46-21.34a228.27,228.27,0,0,1,4.77-54.2c4.39-20.35,10.42-40.15,20.07-58.69a9.41,9.41,0,0,0,.45-7.61c-5.54-18-9-36.4-8-55.38.38-7.31,1.31-14.56,4.62-21.23,4.59-9.26,11.42-12,21.15-8.67,8.75,3,16.68,7.7,24.31,12.84a336.44,336.44,0,0,1,48.33,39.5,7.17,7.17,0,0,0,7,2c24.26-4.58,48.78-6.33,73.43-7,14-.35,28-.31,42,.38a454,454,0,0,1,61.74,6.92,7,7,0,0,0,6.84-2.13C438,97,457.75,80.42,480.38,67.54a49.53,49.53,0,0,1,15-6c6.3-1.23,11.36,1,14.78,6.51,4.09,6.57,5.15,14,5.75,21.47C516.27,94.5,516.89,99.52,516.19,103.77ZM337.41,318.24a25.58,25.58,0,0,0,2.55-1.17c6.65-4,12.12-9.36,17.24-15.08,3.3-3.68,6-7.9,6.33-13,.44-7.69-4.1-12.85-9.82-16.87A47.49,47.49,0,0,0,296,274.27c-7.83,6.51-9.93,15.08-3.37,24a73.34,73.34,0,0,0,18.21,17.29c2.35,1.6,3.88,3.14,3.43,6.07a11.55,11.55,0,0,1-2.72,5.84c-5.16,6-11.82,7.09-19.13,5.77s-12.76-5.59-17.19-11.58c-3.74-5-9.68-5.73-14-2.36-4.53,3.51-5.29,10.07-1.74,15a48.07,48.07,0,0,0,7.29,7.93c16.55,14.67,40.55,16.77,57.67,1.52,1.31-1.17,2.07-1,3.29.05a38.12,38.12,0,0,0,14.69,8.39c16.54,4.94,31,.7,43.78-10.32,3.08-2.65,6-5.56,7.78-9.32a10.8,10.8,0,0,0-4.23-14.33c-4.48-2.66-10.07-1.28-13.56,3.34-.4.53-.76,1.09-1.15,1.62-5.65,7.65-13.27,11.13-22.67,10.36C344.59,332.94,336.82,326.23,337.41,318.24Zm-117-33.06a6.91,6.91,0,0,0,2.77-.47,51.27,51.27,0,0,1,25.28,0c3.76,1,7.25,2.72,10.9,4,2.82,2.48,5.9,4.69,8.16,7.67.89-.31,1-1,1.32-1.58a72.37,72.37,0,0,0,10.27-34.2c.75-15.75-1.65-30.91-11.12-44-11.9-16.46-28-24.25-48.31-20.54-16.31,3-27.85,13.23-34.89,27.85-10,20.85-9.93,42.43-2.22,64,2.4,6.73,6.69,12.33,11.47,17.79a61.48,61.48,0,0,1,5.8-7.24A57.51,57.51,0,0,1,220.44,285.18ZM436,286.31a5.61,5.61,0,0,0,1.09.88,48.58,48.58,0,0,1,19.82,17c.82,1.24,1.3.82,2.09,0a46.51,46.51,0,0,0,8.61-14.26c5.21-12.86,6.11-26.3,5.09-39.92-.86-11.38-3.9-22.13-10.12-31.87-13.55-21.18-39.55-29-61.3-17.89-19.88,10.16-28.51,27.63-30.15,49.11a72.76,72.76,0,0,0,10.42,43.75c2.17,3.65,2.14,3.81,5.23.95s7-4.43,10.23-7.05c1.57.16,2.95-.54,4.37-1A50.13,50.13,0,0,1,427,284C430,284.58,432.83,286.08,436,286.31ZM238.68,155.49a96.14,96.14,0,0,0-24.55,3c-13.11,3.35-25.17,8.87-35.19,18.19-4.39,4.08-4.63,10-.92,14.24,3.57,4.06,9,4.45,13.77.76,15.79-12.3,33.57-15.84,53-12.18a15.72,15.72,0,0,0,5.92.12,11,11,0,0,0,9.2-8.22c1.32-4.58-.19-8.42-3.55-11.55a15.25,15.25,0,0,0-8.17-3.7A56.44,56.44,0,0,0,238.68,155.49Zm169.84,1.36c-3.66.27-8.07,0-12.23,1.56-4.38,1.64-7.3,4.57-7.9,9.47a10.84,10.84,0,0,0,4.47,10.68c3.29,2.46,7.1,2.94,11.08,2.26,12.24-2.07,24.29-1.66,36.09,2.55a62.72,62.72,0,0,1,17.38,10c4.54,3.54,10,2.94,13.54-1a10.24,10.24,0,0,0-.55-13.72,26.78,26.78,0,0,0-3.57-3.24C449.8,162.42,430.23,157.38,408.52,156.85Z"/><path class="cls-2" d="M379.13,591.18c-19.95.66-37.16-6-51.83-19.42-2.84-2.59-4.85-2.54-7.95.26-9.09,8.21-19.29,14.52-31.35,17.06-21.33,4.49-41.89,2.88-60.61-9.44-15.83-10.42-24.73-25.59-28.67-43.78-4.66-21.48-4.11-43.08-.35-64.63A147.93,147.93,0,0,1,211,431.86c1.06-2.17,2.05-3,4.72-2.49,7.76,1.41,14.82-1.28,21.45-4.94,2.44-1.34,3.79-1,5.82.7,16.27,13.37,35.06,21.24,55.69,24.8a138.15,138.15,0,0,0,66-4.37,112.28,112.28,0,0,0,38.13-20.9,3.29,3.29,0,0,1,4.24-.48c6.14,3,12.52,5.46,19.52,5.51,1.6,0,3.41.24,4.77-.41,3-1.42,4,.3,5.15,2.46,7.14,13.57,11.21,28.1,13.46,43.18,3.06,20.48,3.48,40.92-1,61.28-6.62,30.1-29.7,51.81-59,54.52C386.3,591.06,382.71,591.11,379.13,591.18Zm-55.6-36.79.57,0a12.24,12.24,0,0,0,.23-1.3,100.44,100.44,0,0,1,4.28-23c1.75-5.9,4.6-11.35,6.55-17.15,1.1-3.31,0-4.82-3.56-4.84q-8,0-16,0c-3.17,0-4,1-3.75,4.16a7.43,7.43,0,0,0,1,2.91A102.49,102.49,0,0,1,321,540.07C321.93,544.82,322.68,549.61,323.53,554.39Z"/><path class="cls-2" d="M145.76,519.21c0-23.44,13.88-43.34,35.29-51.08.83-.31,1.79-1.17,2.6-.46.66.6,0,1.61-.11,2.43-4.43,25.59-4.62,51,2.74,76.2a95.54,95.54,0,0,0,9.82,22.29c.42.7,1.35,1.46.94,2.25-.51,1-1.71.42-2.58.41-27.22-.36-42.65-17.68-47.51-40.57A49,49,0,0,1,145.76,519.21Z"/><path class="cls-2" d="M499.39,523.39c-.75,16.87-8.72,32.89-26.81,43-6.59,3.68-13.9,4.83-21.32,5.28-2.29.13-1.35-1-.74-2a114.83,114.83,0,0,0,15.09-43.43,177.85,177.85,0,0,0,.08-45.87c-.4-3.28-1-6.54-1.43-9.82-.12-.87-1.08-2-.07-2.59.81-.52,1.79.32,2.63.69a52.76,52.76,0,0,1,21.74,17.76C495.91,496.42,499.38,507.58,499.39,523.39Z"/><path class="cls-6" d="M323.53,554.39c-.85-4.78-1.6-9.57-2.58-14.32a102.49,102.49,0,0,0-8.13-24.89,7.43,7.43,0,0,1-1-2.91c-.21-3.2.58-4.14,3.75-4.16q8,0,16,0c3.53,0,4.66,1.53,3.56,4.84-2,5.8-4.8,11.25-6.55,17.15a100.44,100.44,0,0,0-4.28,23,12.24,12.24,0,0,1-.23,1.3Z"/><path class="cls-7" d="M466.14,550.56c8.64-1.56,13.08-5.1,16.29-10.35a7.66,7.66,0,0,0,.83-4.26,2.76,2.76,0,0,0-2-2.54,3.24,3.24,0,0,0-3.76,1.12,11.8,11.8,0,0,1-7.42,3.9,11.54,11.54,0,0,1-6.69-.77,112.54,112.54,0,0,1-3.6,12A9.9,9.9,0,0,0,466.14,550.56Z"/><path class="cls-7" d="M477.79,494.16c-2.77.42-4.44,1.47-5.4,3-2.35,3.87-3.63,8-1.83,12.53a5.57,5.57,0,0,0,9.51,1.39c3.46-4.06,3.73-8.72,2.27-13.57C481.65,495.29,479.14,493.93,477.79,494.16Z"/><path class="cls-7" d="M484.37,520a4.75,4.75,0,0,0,3.64,4.19c2.33.71,4.47-.21,6.07-2.4a9.45,9.45,0,0,0,.57-10,5,5,0,0,0-7.9-.65A10.12,10.12,0,0,0,484.37,520Z"/><path class="cls-7" d="M183.94,536.75a12.88,12.88,0,0,1-13.2-3.83,3.23,3.23,0,0,0-3.73-1.23,2.75,2.75,0,0,0-2,2.48,7.6,7.6,0,0,0,.71,4.28c3,5.34,7.38,9,16,10.83a9.73,9.73,0,0,0,5.54-.41c-.31-.94-.61-1.9-.89-2.86Q185,541.39,183.94,536.75Z"/><path class="cls-7" d="M171.65,492.56c2.76.5,4.4,1.6,5.31,3.21,2.23,3.93,3.39,8.13,1.46,12.57a5.56,5.56,0,0,1-9.54,1.11c-3.34-4.16-3.48-8.82-1.87-13.63C167.76,493.58,170.31,492.29,171.65,492.56Z"/><path class="cls-7" d="M164.33,518.16a4.75,4.75,0,0,1-3.76,4.08c-2.36.65-4.47-.33-6-2.57a9.46,9.46,0,0,1-.28-10,5,5,0,0,1,7.92-.42A10.14,10.14,0,0,1,164.33,518.16Z"/><path class="cls-8" d="M432.08,140.61c-15.6,11.79-36.74-1.75-52.36,3.74a22.88,22.88,0,0,1-15.21-.14,118.72,118.72,0,0,0-83.09.9,20.12,20.12,0,0,1-14.05.37c-15.78-5.77-37,8.61-53-3.07-59-43.07-73.07,24.2-72.67,72.94.3,35.84,23.87,83.29,56.05,101.72a43.18,43.18,0,0,1,20.86,27.37c13.28,55.84,47.67,81.89,107,81.52,59.29-.61,93.25-27.23,105.61-83.28A43.14,43.14,0,0,1,451.59,315c31.87-19,54.65-66.79,54.36-102.63C505.54,163.6,490.33,96.56,432.08,140.61Z"/><path class="cls-9" d="M397,287c-3.22,2.62-7.15,4.19-10.23,7.05s-3.06,2.7-5.23-.95A72.76,72.76,0,0,1,371.1,249.3c1.64-21.48,10.27-39,30.15-49.11,21.75-11.12,47.75-3.29,61.3,17.89,6.22,9.74,9.26,20.49,10.12,31.87,1,13.62.12,27.06-5.09,39.92A46.51,46.51,0,0,1,459,304.13c-.79.85-1.27,1.27-2.09,0a48.58,48.58,0,0,0-19.82-17,5.61,5.61,0,0,1-1.09-.88,46.06,46.06,0,0,0,11-22.69c2.4-14,.73-27.23-8.14-38.81-8.2-10.72-23.14-13.52-33.82-6.72-1.47.94-1.92,1.52-.37,2.8a14.94,14.94,0,0,1,3.4,4.5,17.27,17.27,0,0,1-2.42,20c-4.73,5-10.47,5.7-17.91,2-2.22-1.09-1.89.4-2,1.55C384.8,263.06,387.81,275.92,397,287Z"/><path class="cls-9" d="M220.44,285.18a57.51,57.51,0,0,0-20.57,13.33,61.48,61.48,0,0,0-5.8,7.24c-4.78-5.46-9.07-11.06-11.47-17.79-7.71-21.61-7.81-43.19,2.22-64,7-14.62,18.58-24.86,34.89-27.85,20.31-3.71,36.41,4.08,48.31,20.54,9.47,13.12,11.87,28.28,11.12,44a72.37,72.37,0,0,1-10.27,34.2c-.32.55-.43,1.27-1.32,1.58-2.26-3-5.34-5.19-8.16-7.67,11.94-12.72,15.42-27.93,12.55-44.7-1.83-10.72-6.64-20-16.3-25.83-8.52-5.14-17.33-5.34-26.11-.31-1.69,1-1.71,1.63-.32,3a17.41,17.41,0,0,1,5.11,15.3c-1.49,10.58-11.6,16.4-20.74,12-3.09-1.5-3.11-1.5-3.33,2A51.11,51.11,0,0,0,220.44,285.18Z"/><path class="cls-3" d="M337.41,318.24c-.59,8,7.18,14.7,14.93,15.33,9.4.77,17-2.71,22.67-10.36.39-.53.75-1.09,1.15-1.62,3.49-4.62,9.08-6,13.56-3.34A10.8,10.8,0,0,1,394,332.58c-1.81,3.76-4.7,6.67-7.78,9.32-12.78,11-27.24,15.26-43.78,10.32a38.12,38.12,0,0,1-14.69-8.39c-1.22-1.1-2-1.22-3.29-.05-17.12,15.25-41.12,13.15-57.67-1.52a48.07,48.07,0,0,1-7.29-7.93c-3.55-5-2.79-11.53,1.74-15,4.35-3.37,10.29-2.69,14,2.36,4.43,6,9.8,10.25,17.19,11.58s14,.18,19.13-5.77a11.55,11.55,0,0,0,2.72-5.84c.13-.35.42-.71.38-1-.32-2.63,1-3.09,3.33-3,4.43.18,8.87,0,13.3.09C333.32,317.71,335.44,317.27,337.41,318.24Z"/><path class="cls-10" d="M220.44,285.18a51.11,51.11,0,0,1-10.19-34.91c.22-3.54.24-3.54,3.33-2,9.14,4.42,19.25-1.4,20.74-12a17.41,17.41,0,0,0-5.11-15.3c-1.39-1.41-1.37-2.08.32-3,8.78-5,17.59-4.83,26.11.31,9.66,5.82,14.47,15.11,16.3,25.83,2.87,16.77-.61,32-12.55,44.7-3.65-1.31-7.14-3-10.9-4a51.27,51.27,0,0,0-25.28,0A6.91,6.91,0,0,1,220.44,285.18Z"/><path class="cls-10" d="M397,287c-9.17-11-12.18-23.89-11.21-37.92.08-1.15-.25-2.64,2-1.55,7.44,3.65,13.18,2.92,17.91-2a17.27,17.27,0,0,0,2.42-20,14.94,14.94,0,0,0-3.4-4.5c-1.55-1.28-1.1-1.86.37-2.8,10.68-6.8,25.62-4,33.82,6.72,8.87,11.58,10.54,24.84,8.14,38.81a46.06,46.06,0,0,1-11,22.69c-3.14-.23-5.94-1.73-9-2.27a50.13,50.13,0,0,0-25.62,1.89C399.93,286.41,398.55,287.11,397,287Z"/><path class="cls-3" d="M337.41,318.24c-2-1-4.09-.53-6.14-.56-4.43-.08-8.87.09-13.3-.09-2.32-.09-3.65.37-3.33,3,0,.32-.25.68-.38,1,.45-2.93-1.08-4.47-3.43-6.07a73.34,73.34,0,0,1-18.21-17.29c-6.56-8.91-4.46-17.48,3.37-24a47.49,47.49,0,0,1,57.72-2.19c5.72,4,10.26,9.18,9.82,16.87-.3,5.14-3,9.36-6.33,13-5.12,5.72-10.59,11.09-17.24,15.08A25.58,25.58,0,0,1,337.41,318.24Z"/><path class="cls-3" d="M238.68,155.49a56.44,56.44,0,0,1,9.52.63,15.25,15.25,0,0,1,8.17,3.7c3.36,3.13,4.87,7,3.55,11.55a11,11,0,0,1-9.2,8.22,15.72,15.72,0,0,1-5.92-.12c-19.44-3.66-37.22-.12-53,12.18-4.75,3.69-10.2,3.3-13.77-.76-3.71-4.22-3.47-10.16.92-14.24,10-9.32,22.08-14.84,35.19-18.19A96.14,96.14,0,0,1,238.68,155.49Z"/><path class="cls-3" d="M364.47,573.34a17.31,17.31,0,0,1,1.86-3.49,5.75,5.75,0,0,1,3.24-2.29,7.51,7.51,0,0,1,6.56,1.19c2.18,1.52,3.07,3.31,2.78,5.31a4.91,4.91,0,0,1-1,2.22c-5,6.59-6.07,14.13-2.24,22.85,1.15,2.61.07,4.6-2.61,5.07a7.07,7.07,0,0,1-7.24-3.48,30.93,30.93,0,0,1-3.75-17.39A29.88,29.88,0,0,1,364.47,573.34Z"/><path class="cls-3" d="M385.51,572.16a17.07,17.07,0,0,1,1.86-3.49,5.76,5.76,0,0,1,3.24-2.29,7.53,7.53,0,0,1,6.55,1.19c2.18,1.53,3.08,3.32,2.78,5.31a4.74,4.74,0,0,1-1,2.23c-5,6.59-6.06,14.13-2.23,22.84,1.15,2.62.06,4.61-2.62,5.07a7,7,0,0,1-7.23-3.48,31,31,0,0,1-3.76-17.39A30,30,0,0,1,385.51,572.16Z"/><path class="cls-3" d="M281.24,573.63a17.17,17.17,0,0,0-1.72-3.56,5.73,5.73,0,0,0-3.15-2.41,7.54,7.54,0,0,0-6.6.93c-2.23,1.44-3.19,3.2-3,5.2a4.84,4.84,0,0,0,.93,2.26c4.78,6.78,5.52,14.36,1.36,22.92-1.25,2.57-.24,4.6,2.41,5.17a7.06,7.06,0,0,0,7.37-3.2,30.88,30.88,0,0,0,4.42-17.23A29.75,29.75,0,0,0,281.24,573.63Z"/><path class="cls-3" d="M260.27,571.64a17.63,17.63,0,0,0-1.72-3.55,5.74,5.74,0,0,0-3.15-2.42,7.54,7.54,0,0,0-6.6.94c-2.24,1.44-3.2,3.19-3,5.2a4.84,4.84,0,0,0,.93,2.26c4.77,6.78,5.52,14.35,1.35,22.91-1.25,2.57-.24,4.6,2.42,5.17a7.06,7.06,0,0,0,7.37-3.2,31,31,0,0,0,4.42-17.23A30,30,0,0,0,260.27,571.64Z"/><path class="cls-3" d="M408.52,156.85c21.71.53,41.28,5.57,58.31,18.52a26.78,26.78,0,0,1,3.57,3.24,10.24,10.24,0,0,1,.55,13.72c-3.49,4-9,4.57-13.54,1a62.72,62.72,0,0,0-17.38-10c-11.8-4.21-23.85-4.62-36.09-2.55-4,.68-7.79.2-11.08-2.26a10.84,10.84,0,0,1-4.47-10.68c.6-4.9,3.52-7.83,7.9-9.47C400.45,156.86,404.86,157.12,408.52,156.85Z"/><rect class="cls-11" width="653.49" height="636.07"/></g></g></svg>