<svg xmlns="http://www.w3.org/2000/svg" viewBox="0 0 725.84 737.48"><defs><style>.cls-1{fill:#8d183b;}.cls-2{fill:#c7c4c2;opacity:0.23;}.cls-3{fill:#febe2a;}.cls-4{fill:#ea7624;}.cls-5{fill:#f8ca25;}.cls-6{fill:#fab425;}.cls-7{fill:#fff;}.cls-8{fill:#fbaf40;}.cls-9{fill:#02534e;}</style></defs><g id="Layer_2" data-name="Layer 2"><g id="Layer_1-2" data-name="Layer 1"><path class="cls-1" d="M392.85,668.72c-.58-2.92-3-4.62-4.56-6.92-7.85-11.75-13.18-24.67-17.79-37.92-2.8-8.07-6.08-16.06-6.56-24.72a21.63,21.63,0,0,1,13.8-21.51c.69-.27,2.14.3,1.52-1.33-.44-1.18-1.25-.6-2.18-.5-10.72,1.11-21.31,3-32.21,2.82a207.61,207.61,0,0,1-40.62-5,146.69,146.69,0,0,1-62.1-29.53c-11.94,18-23.67,36-35.74,53.7-6,8.89-12.91,17.05-22.88,22.06-10.76,5.41-21.89,6.62-33.61,4.3-28.47-5.64-52.45-19.56-72.47-40.19a98.33,98.33,0,0,1-26.8-53.09A55,55,0,0,1,52.88,505a56.81,56.81,0,0,1,9.48-18.65c7.5-9.44,17.63-14.44,29.06-16.89a47.66,47.66,0,0,1,26.16,1.34c1.91.66,2.89,0,3.73-1.49,8.71-15.39,21.72-25.49,38.33-31.15,7-2.38,14.15-3.79,21.53-2.4,2.53.48,2.06-.9,2.11-2.31a136.56,136.56,0,0,1,3.9-27.73c.4-1.64.4-2-1.35-2.5a192.6,192.6,0,0,1-38.65-15.78c-20.82-11.07-40.86-23.34-58.52-39.21C76,336.84,64.45,324.64,55.63,310a4.12,4.12,0,0,0-2.69-1.89c-21.49-6.36-38.06-19.08-48.57-39C-1.31,258.38-2.14,247,6,237.18c3.45-4.19,3.57-6.69,1.85-11.62-5-14.29-1.21-30.28,12-39.86,5.71-4.16,12.5-5.93,19.62-5.95,1.75,0,2.61,0,3.25-2.37C45.77,165.79,51,155.53,63,150.61c19.48-8,35.72-1.44,47.14,16.13a51.74,51.74,0,0,1,4.88,10.8c.56,1.56,1.31,2.21,3.12,1.44a32.93,32.93,0,0,1,20-1.62c5.12,1.07,9,4.16,12.87,8.44.6-7.32,2.11-13.74,3.34-20.21,2-10.65,4.78-21.1,7.53-31.56,2.25-8.49,5.15-16.82,7.83-25.2.71-2.24-.13-4.38-.52-6.39-2.81-14.64-5-29.34-4.38-44.3C165.28,47,167,36,171,25.54c4.88-12.75,17.15-21.15,29.19-19.36A66.5,66.5,0,0,1,227,16.8c16.09,10.6,31.16,22.55,46.28,34.42a16.32,16.32,0,0,0,15.4,3c13.92-3.78,28.1-6.06,42.41-7.88,15.33-1.95,30.7-2,46-1.47a251.23,251.23,0,0,1,56,7.87c8.3,2.19,14.68.16,21-5.47a437.08,437.08,0,0,1,46.57-36.76A61.15,61.15,0,0,1,527.23.19C538.71-1.29,549.66,6,553.85,17.11c3.55,9.38,4.45,19.09,5.08,29C560,63.74,557.75,81,553.42,98c-2.53,9.94.94,18.74,3.16,27.86A282.74,282.74,0,0,1,562,156.27c2.28,17.59,3.68,35.27,4.73,53,.22,3.77,1.47,7.49,2.34,11.21.5,2.12,1.54,2.41,3.45,1.1,7.9-5.41,12.09-12.92,13.33-22.31,1.45-11.07,4.13-21.73,12.32-30,9.44-9.51,19.77-11.41,30.39-6.7,6.91,3.07,11.44,8.71,14,15.58,1.12,2.94,2,2.14,3.7,1.09a48.35,48.35,0,0,1,27.48-7.32c15.35.52,32.1,13.93,30.85,31-.24,3.31.53,6.75-1.4,9.84-.63,1-.32,1.65.9,1.93,15.26,3.49,23,19.28,21.47,34.52-1.08,10.66-6.64,19-15,25.43-2.26,1.75-3.79,3-3.24,6.62,2,13.41-4.39,23.25-14.5,31.27-13.72,10.9-29.19,17.41-46.72,18.8a4.25,4.25,0,0,0-2.61,1.45c-20.54,19.24-43.8,34.52-68.7,47.49a497,497,0,0,1-51,22.48,192.06,192.06,0,0,1-22.93,7.41c-2.38.59-3.16,1.72-3.27,3.93-.49,9.3,1.08,18.45,2.22,27.62a118.5,118.5,0,0,1,.77,22.92c-.86,12.58-4,24.6-7.28,36.62a3.55,3.55,0,0,0,.91,3.68A39,39,0,0,1,501.16,515c1.87,4.18,5.86,5,9.31,6.78,11.95,6.15,24.68,9.69,38.07,9.39,16.57-.36,30.21-7.24,40.71-20.34C598,500,603,487.52,606.4,474.21c1.1-4.31,3.44-8.68,3.12-12.87s-3.49-8-5-12.13c-5.39-14.42-4.36-28.7.76-43a80.88,80.88,0,0,1,24.17-34.9c12.8-10.89,27-19.26,44.59-19.51,8-.11,14,5.47,11.73,15.31-1.32,5.62-5.24,9.92-6.62,15.45-2.15,8.61-2.56,17,.33,25.64,3.67,11,7.15,22.18,4.76,34.06-2.63,13.07-7.91,24.39-20.75,30.52-2.07,1-2.21,2.86-2.59,4.77-5,25.16-14.21,48.45-30.74,68.41a105.17,105.17,0,0,1-58.64,36.28c-16.37,3.78-32.87,2.86-49.22-.83-1-.22-2-.31-3-.58-2.19-.59-4.93-2.26-6.48-1.09s-1.28,4.19-2,6.33c-3.95,11.24-10,21.21-18.91,29.19-1.7,1.51-1.42,2.46-.45,4.11,5.33,9,9,18.6,9.49,29.11.41,9.27-1.47,18.11-7,25.89a7.48,7.48,0,0,0-.71,2.17h.16c-.59,0-.77.38-1,.82-7,8.3-14.69,15.28-25.66,18.58-19.27,5.8-36.73,1.3-53.27-8.2C405.35,683,398.69,676.17,392.85,668.72Zm-170.44-194,.08.07-.85-.86.09.07a12,12,0,0,0-4.75-4.76l.08.08-.88-.83.07.07-.86-.83.06,0a9.63,9.63,0,0,0-4-3.16l.07.05a10.52,10.52,0,0,0-4.71-3.22l.07.06a8.33,8.33,0,0,0-4-2.38l.06.06a5,5,0,0,0-3.17-1.63l0,.06a29.5,29.5,0,0,0-9.86-4.18c-12.76-3.4-25-2.49-36.32,4.95l.06-.06a3.45,3.45,0,0,0-2.41,1.61l.08-.05a1.87,1.87,0,0,0-1.58.92l-.76.56a13.51,13.51,0,0,0-4,3.32l-1.45,1.47a19.63,19.63,0,0,0-4.11,4.74l-.56.7a8.12,8.12,0,0,0-2.38,3.15c-.48,1.52-4.2,2.41-.74,4.7,8.07,5.34,14.79,12.19,20.81,19.69,6.25,7.78,12,16,15.87,25.22,2.28,5.41-.19,10.4-5.35,10.92-4,.41-6.27-2.06-8.05-5.44-6.24-11.87-13.64-22.9-24-31.64a7.41,7.41,0,0,0-3.07-2.44l0,.06c-4.25-4.09-9.42-6.68-14.81-8.81-9.81-3.89-19.71-4.89-29.66-.38-13,5.21-19.41,15.43-21.66,28.76a51.36,51.36,0,0,0,0,12.39A44.33,44.33,0,0,0,68,538.43c10,30.66,31.34,50.48,60.15,63.22,1.49.72,2.9,1.65,4.61,1.82l-.05-.06c.6.82,1.52.76,2.39.87l-.06-.06a68.15,68.15,0,0,0,21.55,5.53c8.35.88,16.15-.42,23.06-5.53l-.07.07a3.55,3.55,0,0,0,2.38-1.65l0,.06a11.56,11.56,0,0,0,4.77-4.68l-.11,0,.84-.87-.08.07,1-.85.58-.7a6.76,6.76,0,0,0,2.45-3.2l-.06.08a6.82,6.82,0,0,0,2.39-3.19l-.05.07a3.81,3.81,0,0,0,1.64-2.39l-.05.07a1.47,1.47,0,0,0,.9-1.55l-.09,0c2.16-1.67,3.4-4,4.63-6.37l0,.06a30.36,30.36,0,0,0,4.16-6.25q14-21,27.91-42.08c4.42-6.7,7.77-7.4,13.74-2.21,20,17.44,43.6,27,69.42,31.63,4.45.71,8.87,1.68,13.35,2.11,14.37,1.35,28.69,1.65,43.05-.84,5.52-.95,10.84-3.8,16.71-2.46,9.62,7.69,8.26,23.18-2.55,29.17-6.69,3.7-8.11,6.81-6.48,14.24.75,2.93,1.21,6,2.79,8.62l-.07,0a62.29,62.29,0,0,0,4.74,13.29l-.06-.05a64.32,64.32,0,0,0,4.92,12.4c5.75,13.49,13.61,25.4,25.59,34.24l1.47,1,0-.06a3.55,3.55,0,0,0,2.4,1.61l-.06-.05a3.56,3.56,0,0,0,2.41,1.59l-.07,0c12.12,7.85,25.06,10.27,39,6a29.13,29.13,0,0,0,15.67-11.19l.81-1.1,0,.07a3.65,3.65,0,0,0,1.64-2.37l-.05.06c.77-.32.61-1.06.75-1.66l0,.05c.84-.25.71-1,.82-1.61l0,.06c.8-.27.71-1,.82-1.62l0,.07c1.06-.52.73-1.54.87-2.39l-.06.08c1.28-.83.54-2.14.76-3.22l0,.05c3.25-8.16.31-15.47-3.08-22.73l.06.06c-.1-.63-.14-1.29-.82-1.63l.08,0a1.11,1.11,0,0,0-.25-.7c-1.58-4.62-4.92-7-9.64-7.79-2.62-.45-5.12-1.41-5.78-4.41s1.45-4.69,3.68-6.19,4.72-3.19,7-4.91c18.09-13.77,25.45-32.32,22.68-54.5a68.8,68.8,0,0,0-19.59-40.49c-3.41-3.47-4.58-6.94-2.6-11.51a84.45,84.45,0,0,0,2.66-8.06c.45-1.52,1.35-3,.83-4.66a4,4,0,0,0,.09-.67c1.41-.79.62-2.13.83-3.22l0,0a40.83,40.83,0,0,0,2.38-14.85l0,.06c.71-.33.7-1,.76-1.62,1-9.85,1.33-19.7-.17-29.55-.73-6.67-1.79-13.33-1.37-20.07.34-5.54.91-11.07,1.38-16.6l1.2-3,.55-.66.86-.92-.08.11c.63-.13,1.3-.15,1.64-.84l-.07.07c2.75-.61,5.56-1,8.24-1.87,6.67-2.06,13.65-3.25,19.79-6.83l0,0c.84-.12,1.88.34,2.37-.81l0,0a90.25,90.25,0,0,0,20.34-7.76l0,.08a14,14,0,0,0,5.49-2.41l-.05.06a194.07,194.07,0,0,0,28.88-14.07l0,.07a1.15,1.15,0,0,0,.69-.26c2-1.08,4.14-2.1,6.14-3.27,19.46-11.25,38.33-23.36,54.44-39.22a18,18,0,0,1,11.89-5.59,44.82,44.82,0,0,0,6.53-.92c13-3,25.4-7.54,34.77-17.69,7.52-8.14,7.18-12.57-1-19.83a12.66,12.66,0,0,1-1.37-1.37c-2-2.53-1.69-5.08.92-7a11.41,11.41,0,0,1,4.33-1.58c6.74-1.68,12.44-5,16.45-10.86,4.79-7.12,4.82-15.73.08-21.91l0,.06-.83-.87.08.07-.88-.84.08.05c-.94-1.55-2.56-2.14-4.1-2.71a29.42,29.42,0,0,0-14.81-1.06c-2.19.33-4.41.41-5.93-1.73s-.23-4.13.7-6.08l0,.08c.57-.33,1.12-.69,1-1.49l-.06,0c1.44-.21,1.83-1.37,2.28-2.49l-.05.07a3.4,3.4,0,0,0,1.56-2.44l-.05.06c3.11-5.8,4.59-11.75,1.59-18.09l.07,0c-.57-1.7-1.05-3.47-3.08-4.06l0,.05c.06-.61-.2-.89-.83-.81l.05,0c-1.39-2.54-3.78-3.37-6.43-3.78l.05,0c-8.1-3.16-15.14-.25-22,3.82l.06-.06a8.48,8.48,0,0,0-3.93,2.44l.06-.06c-.77.26-1.62.43-1.73,1.48l.06,0c-1.75.1-2.81,1.29-3.87,2.47l.06,0q-2.34,1.6-4.7,3.19l0-.05a1.28,1.28,0,0,0-.71.23c-5.11,1.21-6.89.17-8.1-4.87-1-4.15-1.42-8.45-3.48-12.27-2.32-4.31-5.06-8.44-10.52-8.76-5.66-.34-8.79,3.72-11.71,7.77a24.58,24.58,0,0,0-2,3.75A47,47,0,0,0,600.87,201c-2.17,15.32-9.51,27.21-23.19,34.81-1.8,1-1.57,1.61-.73,3.16,1.86,3.4,3.48,6.94,5,10.49,5.69,13,3.08,24.5-6.32,34.73A56.2,56.2,0,0,1,551,299.89c-3,1-4.2,2.61-4.7,5.61A88.41,88.41,0,0,1,537.83,332a69.59,69.59,0,0,1-26.37,28.39c-9.34,5.55-16.75,5.26-23.95-1.11-2.29-2-3-1.28-4.58.63-14.45,17.59-32.7,29.18-54.95,34.33a23.73,23.73,0,0,1-14-1.29l.07.05a4.24,4.24,0,0,0-2.4-1.61l.06.11-.87-.91-.7-.62c-1.92-2.86-2.87-.24-4.12.73l.07-.06a4.08,4.08,0,0,0-2.4,1.62l.07-.06a3.84,3.84,0,0,0-2.43,1.59l0-.07a1.08,1.08,0,0,0-.68.27c-14.25,8-29.06,14.66-44.88,18.92-5.65,1.52-11.26,2.8-17.2,1.52a132.1,132.1,0,0,1-50.91-22.87c-4.86-3.58-8.59-5.15-13.39-.92-3.29.57-6.58,1.15-9.93.46-23.39-5-40.6-19.1-54.75-37.62-3.26,2.71-6.34,5.35-10.44,6.16-7,1.36-13.06-1-18.61-4.85-11.51-7.95-18.21-19.2-21.58-32.59-1.21-6.47-2.42-13-1.88-19.55.38-4.61-1.34-6.6-5.59-7.05l.07.05c-.34-.68-1-.71-1.64-.8l.06.05a6.38,6.38,0,0,0-3.18-1.6l.07.05c-.34-.66-1-.76-1.62-.86l.08.06A3.9,3.9,0,0,0,143,291c-.7-.56-1.37-1.15-2.08-1.68-9.24-6.78-15.13-15.66-17-27.07-1.22-5.92.09-11.53,2-17.08l-.07.06a21.45,21.45,0,0,0,3.17-5.51l-.06.07A6.78,6.78,0,0,0,131.5,236l-.05,0c1.35-.29,1.85-1.36,2.29-2.48l-.05.06c.58-.35,1-.76.93-1.53l-.05.07c1.66-.5,2.32-1.92,3.06-3.29l0,.08a43.29,43.29,0,0,0,6.06-20.47c.18-3.88-.22-7.77-3-10.92l.05.06a11,11,0,0,0-7.9-6c-5.49-.81-10.5.09-14.81,3.88a59.82,59.82,0,0,0-12.39,14.66l-1.74,3,.05,0c-.67.33-.78,1-.87,1.61l.06-.07a2.2,2.2,0,0,0-1,2.32l.11,0c-.67-.06-.69.46-.78.9l.06-.06c-.72.33-.71,1-.82,1.64l.06-.07c-2.71,4.36-3.6,9.42-5.51,14.08l.06-.07c-2.55,2.07-5.12,2.62-7.75.12-1.18-2.49-.9-5-.18-7.54,3-10.49,8.33-19.72,14.76-28.4.74-1,2-1.82,1.66-3.33-2.07-9.57-4.77-18.83-12.74-25.45L90,167.9l.09.07-.88-.82.07,0a3.08,3.08,0,0,0-2.38-1.65l.06.06c-6.35-4.35-13.63-3.81-20.49,1.55l.06-.07a3.64,3.64,0,0,0-2.29,1.69C57,175.19,57.31,183.54,58.41,192c.71,5.4-.52,7.16-5.86,7.34-2.18-.74-4.32-1.61-6.55-2.18-6.49-1.64-12.9-2.36-18.41,2.75l.06,0-.94.82-.64.65a3.65,3.65,0,0,0-1.67,2.44l.05-.07a3.92,3.92,0,0,0-1.35,2.48,3.31,3.31,0,0,0-.76,2.34c-1.91,8.6.35,16.07,6.14,22.58,1.05,1.84,3.09,3.08,3.33,5.43a7.38,7.38,0,0,1-1.17,3.81l.05-.06c-2.94,1.73-6.63,1.73-9.34,4l.06-.05c-.8.24-1.66.39-1.74,1.47h.06c-.63-.07-.94.17-.82.83l0-.08c-1.11,0-1.29.87-1.5,1.7l.08,0c-3.08,7.21-.18,13.18,3.91,18.9l-.06,0,.93,1.5c4.86,7.17,11.34,12.57,18.67,17a1.08,1.08,0,0,0,.68.27l0-.07a8,8,0,0,0,4,2.36l-.07-.06a1.92,1.92,0,0,0,1.62.85l-.06-.06c1.45,1.32,3.32,1.77,5.07,2.49,4.22,1.75,9,1.85,12.89,4.58l-.11,0,3.21,4.66,0-.06a3.61,3.61,0,0,0,1.55,2.44l0-.08a1.79,1.79,0,0,0,.91,1.58l0-.05c.28.74.43,1.61,1.46,1.72l-.05,0a5.82,5.82,0,0,0,2.46,3.88l-.06,0,1,1.48a89.84,89.84,0,0,0,13.55,16c28.73,27.38,61.67,47.92,99.41,60.59,2.83,1,4.63,1.41,6.24-2.09a7,7,0,0,1,9.79-3.6c3.56,1.68,4.93,5.14,3.62,9.49-1,3.34-2.13,6.64-3.21,10a102.39,102.39,0,0,0-5.45,35.91c0,1.46.07,2.68,1.81,3.41,3.82,1.59,7.51,3.46,11.26,5.21l-.07-.06,7.06,4.74-.06-.05a6.64,6.64,0,0,0,3.19,2.38l-.07-.1.87.83-.07-.07.86.82-.05,0,9.34,9.42,0-.07c1.9,3.24,3.87,6.47,1.27,10.27-2.23,3.26-5.42,3.47-8.9,2.79l.07.06-2.41-1.6.08.08ZM534.7,17.59l.07.05a1.73,1.73,0,0,0-1.63-.86l0,.09c-3.43-2-6.82-1.05-10.19.18a31.47,31.47,0,0,0-7.69,3.57c-11.72,6.89-22.57,15-33.19,23.47-10.08,8-18.91,17.62-30.2,24.12-6.55,3-13.26,3-20.08,1.14-11.06-2.63-22.15-5.12-33.49-6.32-5.39-1.26-10.88-.78-16.33-1l.06,0c-.94-1.35-2.37-.74-3.56-.78-8.92-.33-17.82-.37-26.76-.11-18.81.54-37.14,3.86-55.39,8l-.8.11c-7.43,1.87-14.85,4-22.51,1.08-8.34-3.62-14.63-10.1-21.65-15.56C239,45.26,226.84,35.45,213,27.93a1,1,0,0,0-.67-.26l0,.07a29,29,0,0,0-11-5.08c-3.16-.75-6.59-1.23-9.49,1.2l.05-.06a7,7,0,0,0-3.94,4l0-.06c-3.65,4.59-5,10.16-6,15.69-3.13,16.67-1.3,33.26,1.56,49.78.17,1.87-.26,3.83.88,5.54.78,4.37,1.7,8.73.69,13.2-.75,2.46-1.49,4.92-2.25,7.38-5,16.08-10.16,32.11-13.34,48.68-1.7,7.28-2.87,14.65-4.07,22-1.85,11.37-1.32,23.2-6.34,34l.07-.06c-.67.34-.75,1-.84,1.63l.06-.07a18.6,18.6,0,0,0-3.16,5.52l.06-.07a4.48,4.48,0,0,0-1.6,2.42l0-.07a3.74,3.74,0,0,0-1.64,2.37l.09-.06-.81.89,0-.07a11.74,11.74,0,0,0-3.2,3.94l0-.08c-.5.54-1,1.09-1.51,1.63-8.16,7.81-10.22,16.18-6,24.74a28.86,28.86,0,0,0,15.77,14.23c3.87,1.55,8,2.21,12,3.1,2.72.6,4.31,2.08,4,5.12a27.34,27.34,0,0,0,.07,3.5c-.12,3.72-.39,7.44-.33,11.15.12,6.24.23,12.5,2.67,18.41,2.52,9,7.51,16.14,15.94,20.54,4.37,2.28,6.62,1.85,10-1.8,1.84-2,3.39-4.26,5.14-6.34,4.77-5.68,8.92-5.27,12.09,1.38,8.72,18.32,23.29,30.1,41.74,37.54,6.51,2.62,6.56,2.49,10.56-3.13,5.2-7.32,8.74-7.84,14.94-1.54,11.05,11.24,24.48,18.65,38.8,24.61,10.39,4.33,21,7.65,32.22,2.38.79-.35,1.85-.17,2.31-1.17l0,0a21.48,21.48,0,0,0,8.66-3.07l0,.08A43.61,43.61,0,0,0,378.23,387l-.05.07c.64-.09,1.29-.16,1.62-.84l-.07.06c.64-.09,1.29-.14,1.63-.83l0,.07a8.83,8.83,0,0,0,3.8-1.79,107.54,107.54,0,0,0,21.61-14.14c4.25-3.56,7.64-3.21,11,.86,1.31,1.58,2.57,3.2,3.86,4.8a4.37,4.37,0,0,0,1.63,2.39l0,0c.63,1.28,1.61,1.4,2.91,1.1,8.23-1.88,16-4.78,23-9.63l-.06.07a6.54,6.54,0,0,0,3-1.78c1.1-.67,2.23-1.28,3.28-2a68.62,68.62,0,0,0,21.85-24.81c3.2-6.19,7.63-6.5,12.23-1.31,1.64,1.84,3.3,3.66,5,5.44,4.44,4.67,6.1,4.89,11.68,1.3,11.16-7.19,18.1-17.55,22.21-30a102,102,0,0,0,4-19.72c.54-4.35,2.53-7,7-8a58.38,58.38,0,0,0,19.46-8.48c12-8.22,14-16.3,7.37-29.21a48.67,48.67,0,0,0-5-9.38l.06.06a1.88,1.88,0,0,0-.87-1.61l.06.06a5.92,5.92,0,0,0-1.59-3.18l.07.05c-6.45-13.55-8.22-28.06-8.89-42.8l-.75-9.35c0-1.42.08-2.85,0-4.27-1.86-21.17-4.86-42.17-10.91-62.6a38.36,38.36,0,0,1-.31-21.37c1.12-4.22,2.4-8.49,2.11-13l0,.05c2.5-5.66,2.48-11.79,2.92-17.74a187.44,187.44,0,0,0,.32-23.7c-.41-7.65-1.29-15.38-6.3-21.8l.07,0a2.24,2.24,0,0,0-1.55-1.65v.1ZM573,566.08l1.33-.23c9.31-2.33,17.6-6.79,25.32-12.33,25.54-18.32,38.47-44.42,45.44-74.14.41-1.73.13-2.51-2-2.58a44.59,44.59,0,0,1-20.39-5.4c-1.91,8.33-3.82,16.37-7.12,24-9.4,21.57-22.29,39.8-45.92,47.66l-9.38,2.11-.76.1-4.74.66H540.93c-8-.44-15.65-2.36-23.35-4.21l0,.07-5.9-2.38c1.1,5.78,2.78,11,2.76,16.41,0,8.82,0,9,8.79,10.67,16.23,3.15,32.5,4.22,48.76.11ZM669.6,367.85a43.94,43.94,0,0,0-4.8.75c-23.09,6.46-46.36,29.93-48.67,54.83-1.16,12.4,1.18,24,11.37,32.33,8.86,7.25,19.27,7.85,29.33,3.37,8.89-4,12-12.24,12.53-21.68a61.35,61.35,0,0,0-3.61-23.27C660.35,398.47,660.52,383.18,669.6,367.85Z"/><path class="cls-2" d="M392.85,668.72c5.84,7.45,12.5,14.29,20.63,19,16.54,9.5,34,14,53.27,8.2,11-3.3,18.64-10.28,25.66-18.58l1-.82h-.16c9.91,1.66,19.9,3.06,29.73,5,7.45,1.48,15,3,22.09,6.57,3.37,1.68,7,3.07,10.32,4.9,3.63,2,6.23,5,6.55,9.33.35,4.74-3.13,7.3-6.53,9.35-7.25,4.38-15.23,7.11-23.39,9.19-7.24,1.84-14.54,3.46-21.9,4.75-10.13,1.78-20.31,3.41-30.52,4.66-15.07,1.85-30.21,2.89-45.35,4-13.39,1-26.78,1.7-40.18,2.33-27.09,1.28-54.18.83-81.26.49-17.67-.22-35.34-1.17-53-2.64-10.91-.91-21.85-1.8-32.74-2.84a413.17,413.17,0,0,1-46.22-6.9c-10.09-2.14-20.18-4.28-29.92-7.75-6-2.14-11.77-4.82-15.74-10.08-3.35-4.44-2.47-9,2.1-12.31a63.52,63.52,0,0,1,20.79-9.33c18-4.83,36.31-7.62,54.8-9.61,13.45-1.46,26.84-3.34,40.39-3.84,9.08-.34,18.14-1.33,27.22-1.45,12.72-.17,25.38-1.3,38.07-1.87,18.54-.83,37.05-.35,55.57-.37,5.39,0,10.77,1,16.18,0C391.06,667.92,392,668.49,392.85,668.72Z"/><path class="cls-3" d="M135.16,498.21c10.37,8.74,17.77,19.77,24,31.64,1.78,3.38,4,5.85,8.05,5.44,5.16-.52,7.63-5.51,5.35-10.92-3.91-9.26-9.62-17.44-15.87-25.22-6-7.5-12.74-14.35-20.81-19.69-3.46-2.29.26-3.18.74-4.7,2.39.16,2-1.79,2.38-3.15l.56-.7c2-1,3.79-2.25,4.11-4.74l1.45-1.47c2.13-.14,3.23-1.53,4-3.32l.76-.56c.69,0,1.37-.08,1.58-.92l-.08.05a1.94,1.94,0,0,0,2.41-1.61l-.06.06a5.12,5.12,0,0,0,3.66-.92c9.14-5,18.92-5.19,28.9-3.84,4.75.64,8.85,3.44,13.62,4l0-.06c.47,1.68,1.74,1.8,3.17,1.63l-.06-.06c.71,1.81,2.23,2.28,4,2.38l-.07-.06c.85,2.13,2.57,3,4.71,3.22l-.07-.05c.89,1.6,1.85,3.1,4,3.16l-.06,0,.86.83-.07-.07.88.83-.08-.08a11.14,11.14,0,0,0,4.75,4.76l-.09-.07.85.86-.08-.07.85.86-.08-.08a2.06,2.06,0,0,0,2.41,1.6l-.07-.06c.78,2.19,2.69,1.92,4.23,1.57,3.19-.74,5.82-2.81,6.46-5.94s.82-6.82-3.06-8.69l0,.07a19.86,19.86,0,0,0-9.34-9.42l.05,0-.86-.82.07.07-.87-.83.07.1c-.56-1.47-1.44-2.51-3.19-2.38l.06.05c-1.44-2.93-4-4.19-7.06-4.74l.07.06c-1.68-3.23-5-3.86-8-5-2.61-1-3.7-2.4-3.74-5.41a106.84,106.84,0,0,1,3.66-29.08c.42-1.57,1.88-3.27.45-5.08,1.08-3.32,2.21-6.62,3.21-10,1.31-4.35-.06-7.81-3.62-9.49a7,7,0,0,0-9.79,3.6c-1.61,3.5-3.41,3-6.24,2.09-37.74-12.67-70.68-33.21-99.41-60.59a89.84,89.84,0,0,1-13.55-16c.77-1.2-.19-1.28-1-1.48l.07,0A4.47,4.47,0,0,0,71.82,306l.05,0a1.68,1.68,0,0,0-1.46-1.72l0,.05c0-.71-.06-1.36-.91-1.58l0,.08a2,2,0,0,0-1.55-2.44l0,.06c0-2.31-.67-4.12-3.21-4.66l.11,0a3.73,3.73,0,0,0-2.63-2.59c-5.09-1.55-10.22-3-15.33-4.47l.06.06c-.25-.84-.91-.89-1.62-.85l.07.06c-.74-1.79-2.24-2.29-4-2.36l0,.07c0-.54-.18-.86-.68-.27-7.33-4.47-13.81-9.87-18.67-17,.77-1.17-.21-1.25-.93-1.5l.06,0c-2.47-6.06-4.69-12.17-3.91-18.9l-.07,0a1.54,1.54,0,0,0,1.49-1.7l0,.08a.77.77,0,0,0,.81-.83h-.06a1.67,1.67,0,0,0,1.74-1.47l-.06.05c3.35-.77,7.18-.43,9.34-4l-.05.06c2.15-.08,2.33-1.71,2.45-3.26.07-1-.64-.85-1.28-.55-.24-2.35-2.28-3.59-3.33-5.43-1-4.41-4.46-7.73-5.2-12.39-.54-3.41.72-6.94-.94-10.19a3.31,3.31,0,0,1,.76-2.34c1.62-.19,1.49-1.33,1.35-2.48l-.05.07a2.07,2.07,0,0,0,1.67-2.44l.64-.65.94-.82-.06,0c7.47-3.44,15-3.82,22.47-.15a2.05,2.05,0,0,0,2.49-.42c5.34-.18,6.57-1.94,5.86-7.34-1.1-8.46-1.37-16.81,5.84-23.23,1.59.55,1.88-.64,2.29-1.69l-.06.07c4.32-.52,8-3.5,12.62-3.14,2.75.22,5.1,1.88,7.87,1.59l-.06-.06a2.05,2.05,0,0,0,2.38,1.65l-.07,0,.88.82L90,167.9l1.09.82c8,6.62,10.67,15.88,12.74,25.45.33,1.51-.92,2.33-1.66,3.33-6.43,8.68-11.79,17.91-14.76,28.4-.72,2.56-1,5,.18,7.54-.27,2.44,1.81,2.52,3.13,2.54,1.85,0,4.19.11,4.62-2.66l-.06.07c3.8-3.92,4.29-9.14,5.51-14.08l-.06.07c.84-.26.9-.92.82-1.64l-.06.06a.86.86,0,0,0,.78-.9l-.1.06c1.32-.37,1-1.41.94-2.33l-.06.07c.84-.24.91-.89.87-1.61l-.05,0c1.83-.3,2.76-1.11,1.74-3A59.82,59.82,0,0,1,118,195.43c4.31-3.79,9.32-4.69,14.81-3.88,2,2.8,5.54,3.65,7.9,6l-.05-.06c.45,4.27,2,8.3,1.7,12.79-.44,6.58-3.62,12.3-4.79,18.6l0-.08a4.58,4.58,0,0,0-3.05,3.29l0-.07c-.94.12-1,.78-.92,1.53l.05-.06a2.85,2.85,0,0,0-2.29,2.48l.05,0c-2,.49-2.34,2.11-2.49,3.83l.06-.07c-2,1.3-3.35,3-3.17,5.51l.07-.06c-3,2.8-4.76,13.87-2.73,17.27,0,.05.46-.12.7-.19,1.87,11.41,7.76,20.29,17,27.07.71.53,1.38,1.12,2.08,1.68,0,1.66,1.28,1.48,2.37,1.52l-.08,0c.25.83.91.9,1.62.85l-.07-.05c.5,1.65,1.77,1.76,3.18,1.6l-.06-.05c.27.84.92.88,1.64.8l-.07-.05c4.85,2,5.11,6,4.64,10.42a14.79,14.79,0,0,0,0,4.65c.83,3.87,0,8.14,2.8,11.53,3.37,13.39,10.07,24.64,21.58,32.59,5.55,3.84,11.65,6.21,18.61,4.85,4.1-.81,7.18-3.45,10.44-6.16C223.8,372,241,386.07,264.4,391.08c1.47,2.05,8,1.75,9.93-.46,4.8-4.23,8.53-2.66,13.39.92a132.1,132.1,0,0,0,50.91,22.87c5.94,1.28,11.55,0,17.2-1.52,15.82-4.26,30.63-10.92,44.88-18.92.49.57.63.25.68-.27l0,.07a2,2,0,0,0,2.42-1.59l-.07.06a2,2,0,0,0,2.4-1.62l-.07.06,4.12-.73.7.62.87.91-.06-.11a1.94,1.94,0,0,0,2.4,1.61l-.07-.05c2.43,3,5.91,2.85,9.2,2.81,1.6,0,3.19-1,4.78-1.52,22.25-5.15,40.5-16.74,54.95-34.33,1.57-1.91,2.29-2.64,4.58-.63,7.2,6.37,14.61,6.66,23.95,1.11A69.59,69.59,0,0,0,537.83,332a88.41,88.41,0,0,0,8.51-26.48c.5-3,1.7-4.64,4.7-5.61a56.2,56.2,0,0,0,24.63-15.69c9.4-10.23,12-21.75,6.32-34.73-1.56-3.55-3.18-7.09-5-10.49-.84-1.55-1.07-2.16.73-3.16,13.68-7.6,21-19.49,23.19-34.81a47,47,0,0,1,3.87-13.78,24.58,24.58,0,0,1,2-3.75c2.92-4,6-8.11,11.71-7.77,5.46.32,8.2,4.45,10.52,8.76,2.06,3.82,2.49,8.12,3.48,12.27,1.21,5,3,6.08,8.1,4.87.44.57.62.31.71-.23l0,.05c2.49.3,3.75-1.22,4.7-3.19l-.06,0a4.57,4.57,0,0,0,3.87-2.47l-.06,0a1.67,1.67,0,0,0,1.73-1.48l-.06.06c1.7-.18,3.27-.58,3.93-2.44l-.06.06c.64,0,1.4.18,1.89-.1,6.26-3.65,13.12-4,20.09-3.72l-.05,0A19.25,19.25,0,0,0,683.6,192l-.05,0a.76.76,0,0,0,.83.81l0-.05c.68,1.61,1.29,3.29,3.08,4.06l-.07,0c-.08,3.54.7,7,0,10.63-.45,2.52-1.9,4.81-1.64,7.46l.05-.06a2,2,0,0,0-1.56,2.44l.05-.07a2.89,2.89,0,0,0-2.28,2.49l.06,0c-1,.07-1,.76-1,1.49l0-.08c-2.64,1-3,3.3-2.23,5.42a6,6,0,0,0,6.51,3.86c1.78-.14,3.55-.46,5.32-.74,5.23-.8,9.77,1.64,14.54,3l-.08-.05.88.84-.08-.07.83.87,0-.06a20.59,20.59,0,0,0,.56,2.22c2.33,6.29,2.85,12.46-1.07,18.4-.32.47-.06,1,.43,1.29-4,5.85-9.71,9.18-16.45,10.86a11.41,11.41,0,0,0-4.33,1.58c-2.61,2-3,4.51-.92,7a12.66,12.66,0,0,0,1.37,1.37c8.13,7.26,8.47,11.69,1,19.83-9.37,10.15-21.73,14.66-34.77,17.69a44.82,44.82,0,0,1-6.53.92,18,18,0,0,0-11.89,5.59c-16.11,15.86-35,28-54.44,39.22-2,1.17-4.09,2.19-6.14,3.27-.48-.58-.62-.27-.69.26l0-.07c-1.37-.31-2.52.32-3.68.9-5.4,2.71-10.84,5.32-16.18,8.15-3,1.6-6.5,2.48-9,5l.05-.06c-2.1.18-4.34,0-5.49,2.41l0-.08a89.31,89.31,0,0,0-20.34,7.76l0,0c-.89,0-1.84-.21-2.37.81l0,0a5.45,5.45,0,0,0-1.52.08,165.47,165.47,0,0,1-25,7.05,1.92,1.92,0,0,0-1.51,1.57l.07-.07c-.73-.07-1.37,0-1.64.84l.08-.11c-.29.31-.57.62-.86.92l-.55.66c-1.57.54-2.42,1.37-1.2,3-.47,5.53-1,11.06-1.38,16.6-.42,6.74.64,13.4,1.37,20.07-1.07,1.24-.65,2.75-.59,4.12.15,3.73,1.08,7.54.58,11.17-.75,5.31-.44,10.59-.58,15.88l0-.06A46.54,46.54,0,0,0,480.94,485l0,0c-1.24.83-.73,2.1-.82,3.22a4,4,0,0,1-.09.67c-.76,1.47-2.1,2.83-.83,4.66a84.45,84.45,0,0,1-2.66,8.06c-2,4.57-.81,8,2.6,11.51a68.8,68.8,0,0,1,19.59,40.49c2.77,22.18-4.59,40.73-22.68,54.5-2.27,1.72-4.62,3.33-7,4.91s-4.36,3.08-3.68,6.19,3.16,4,5.78,4.41c4.72.8,8.06,3.17,9.64,7.79-.59.47-.31.63.25.7l-.08,0c-.05.71,0,1.37.82,1.63l-.06-.06c0,.78-.25,1.69.07,2.3,3.38,6.47,3.08,13.46,3,20.43l0-.05c-1.26.83-.76,2.09-.76,3.22l.06-.08c-1.13.49-.9,1.48-.87,2.39l0-.07c-.77.29-.85.93-.82,1.62l0-.06c-.76.29-.85.91-.82,1.61l0-.05c-.76.32-.84,1-.75,1.66l.05-.06a2,2,0,0,0-1.64,2.37l0-.07-.81,1.1A29.13,29.13,0,0,1,463,681.08c-.87-.9-1.86-.6-2.89-.34-10.32,2.65-20.16,1.24-29.74-3.29-2-1-3.86-2.71-6.4-2.35l.07,0a1.93,1.93,0,0,0-2.41-1.59l.06.05a1.91,1.91,0,0,0-2.4-1.61l.05.06c-.2-.78-.28-1.72-1.48-1-12-8.84-19.84-20.75-25.59-34.24-.08-4.76-2.39-8.62-4.92-12.4l.07.05a28.32,28.32,0,0,0-4.75-13.29l.07,0c-.23-3.1-.15-6.3-2.79-8.62-1.63-7.43-.21-10.54,6.48-14.24,10.81-6,12.17-21.48,2.56-29.17-1-1.8-2.45-1.73-4.3-1.29a144.48,144.48,0,0,1-35.94,4.19c-8.11-.16-16.2,0-24.29-1.35-2.69-.46-5.68-2.08-8.59-.36-25.82-4.66-49.41-14.19-69.42-31.63-6-5.19-9.32-4.49-13.74,2.21q-13.89,21.09-27.91,42.08a8.62,8.62,0,0,0-4.16,6.25l0-.06c-2.52,1.41-3.66,3.83-4.63,6.37l.09,0c-.93.15-1,.81-.9,1.55l.05-.07a2,2,0,0,0-1.64,2.39l.05-.07c-1.44.58-2.47,1.47-2.39,3.19l.06-.08a3.26,3.26,0,0,0-2.45,3.2l-.58.7-1,.85.08-.07-.84.87.11,0c-2.68.45-3.64,2.65-4.77,4.68l0-.06a2,2,0,0,0-2.38,1.65l.07-.07c-.39,0-.84-.08-1.15.09-10.91,6.06-22.23,5.21-33.78,2.24-3.21-.82-6.17-2.76-9.68-2.33l.06.06c-.48-1.18-1.49-.87-2.39-.87l.05.06c-1-2-2.65-2.29-4.61-1.82C99.35,588.91,78,569.09,68,538.43A44.33,44.33,0,0,1,66,527.79a25,25,0,0,0,0-12.39c2.25-13.33,8.63-23.55,21.66-28.76.49.6,1,.47,1.71.25,13.36-4.35,25.51-1.09,37.12,5.82,1.84,1.1,3.28,3,5.64,3.12l0-.06C132.23,497.69,133.06,498.75,135.16,498.21Z"/><path class="cls-3" d="M549.31,184.35l.75,9.35c-1-.42-1.47-.2-1.35.94,1.2,11.07,1.7,22.29,5.55,32.88,1.13,3.12,1.54,6.83,4.69,9l-.07-.05c-.18,1.41,0,2.67,1.59,3.18l-.06-.06c0,.71,0,1.37.87,1.61l-.06-.06c.18,3.91,2.09,6.9,5,9.38,6.63,12.91,4.62,21-7.37,29.21a58.38,58.38,0,0,1-19.46,8.48c-4.5,1.08-6.49,3.69-7,8a102,102,0,0,1-4,19.72c-4.11,12.41-11.05,22.77-22.21,30-5.58,3.59-7.24,3.37-11.68-1.3-1.7-1.78-3.36-3.6-5-5.44-4.6-5.19-9-4.88-12.23,1.31a68.62,68.62,0,0,1-21.85,24.81c-1.05.75-2.18,1.36-3.28,2-2.12-1.31-2.29.73-3,1.78l.06-.07c-2.33.06-4,1.67-6.05,2.47-6.46,2.56-12.6,6.13-19.86,6.06l0,0c.09-1.23.09-2.4-1.63-2.39-1.29-1.6-2.55-3.22-3.86-4.8-3.38-4.07-6.77-4.42-11-.86a107.54,107.54,0,0,1-21.61,14.14c-2-.92-3,.18-3.8,1.79l0-.07c-.73-.1-1.38,0-1.63.83l.07-.06c-.72-.08-1.38,0-1.62.84l.05-.07a18.71,18.71,0,0,0-10.94,4.75l0-.08c-3.3-.14-6.07,1.22-8.66,3.07l0,0c-.95,0-2.1-.34-2.31,1.17-11.18,5.27-21.83,2-32.22-2.38-14.32-6-27.75-13.37-38.8-24.61-6.2-6.3-9.74-5.78-14.94,1.54-4,5.62-4.05,5.75-10.56,3.13-18.45-7.44-33-19.22-41.74-37.54-3.17-6.65-7.32-7.06-12.09-1.38-1.75,2.08-3.3,4.34-5.14,6.34-3.36,3.65-5.61,4.08-10,1.8-8.43-4.4-13.42-11.53-15.94-20.54a1.61,1.61,0,0,0,.62-1.73c-2.59-8.41-2.35-17.06-2.27-25.7a2.53,2.53,0,0,0-.69-2.13,27.34,27.34,0,0,1-.07-3.5c.32-3-1.27-4.52-4-5.12-4-.89-8.12-1.55-12-3.1a28.86,28.86,0,0,1-15.77-14.23c-4.25-8.56-2.19-16.93,6-24.74,1.82.67,1.41-.72,1.51-1.63l0,.08c1.66-.83,3.1-1.84,3.2-3.94l0,.07.81-.89-.09.06a2,2,0,0,0,1.64-2.37l0,.07a2,2,0,0,0,1.6-2.42l-.06.07c2.21-1.18,2.77-3.3,3.16-5.52l-.06.07c.85-.25.91-.91.84-1.63l-.06.06c1.66-.43,1.88-2,2.44-3.22,2.08-4.65,2.57-9.66,3.15-14.61,1.16-9.92,2.21-19.85,4.2-29.66.55-2.73,2.27-5.56.61-8.52,3.18-16.57,8.33-32.6,13.34-48.68.76-2.46,1.5-4.92,2.25-7.39,2.42-2.6,2-10.21-.69-13.19-1.14-1.71-.71-3.67-.88-5.54,1-.94.79-2.19.59-3.28a170.25,170.25,0,0,1-2.25-35.36,69.52,69.52,0,0,1,2.66-16.68c1-3.48,3.32-6.44,3.49-10.15l0,.06a8.38,8.38,0,0,0,3.94-4l-.05.06c4.31-.53,8.57-1.12,12.75.9,2.48,1.2,4.77,3,7.74,3l0-.07c0,.53.18.85.67.26,13.83,7.52,26,17.33,38.39,26.94,7,5.46,13.31,11.94,21.65,15.56,2.38,2.81,5.68,2.86,8.85,2.53,4.71-.5,9.72-.12,13.66-3.61l.81-.11c1,1,2.08.51,3.23.26,21.92-4.82,44-8,66.56-7.41,5.3.15,10.61,0,15.91,0L382,62c5.41,1,10.79,2.21,16.33,1,11.34,1.2,22.43,3.69,33.49,6.32-.19.47-.46,1.12.21,1.26a41.32,41.32,0,0,0,13.84.66c3.95-.51,4.84-1.19,6-3.06,11.29-6.5,20.12-16.09,30.2-24.12,10.62-8.46,21.47-16.58,33.19-23.47A31.47,31.47,0,0,1,523,17.05l10.19-.18,0-.09c.24.85.9.92,1.63.86l-.07-.05.88.82v-.1c-.18,1.21.35,1.75,1.56,1.65l-.07,0c1.26,5,3.79,9.58,4.57,14.72,1.14,7.57.79,15.19.8,22.81,0,8.64-1.76,17.12-2.31,25.71l0,0c-2.13,3.38-1.67,7.42-2.79,11.09-2.47,8.06-2.79,16.18.09,24.31a86.39,86.39,0,0,1,3.34,11.92c3.4,17,6.51,34.12,7.1,51.55C547.93,183.07,547.89,184.14,549.31,184.35ZM389.84,277.16l.08-.07-.84.87.08-.08-.86.86.07-.09c-.28.32-.56.64-.85,1l-.68.6a2.11,2.11,0,0,0-2.44,1.67l.07-.06c-3.15.53-6.29,1.11-8.66,3.55l-1.59.12c-.88-1-2.05-.55-3.11-.64-3.25-.74-6-2.87-9.48-3l.06.06a2,2,0,0,0-2.33-1.69l.05,0-.86-.82.07.07-.83-.86,0,.06a2,2,0,0,0-1.69-2.34l.06.06c.19-1.52-.95-2.58-1.34-3.89-1.16-3.91-3.72-7.63-1.73-12l0,.08c6.38-.75,12-3.05,16.4-8,3.94-3.34,7.91-6.63,10.29-11.4,3.39-6.79,2.48-12.59-2.76-18-2.84-2.95-6.43-4.69-9.89-6.65-.22-1.46-1.43-1.6-2.52-2-9.05-3.5-18.51-3-27.92-2.93-1,0-1,.57-.64,1.26-8.53,1.51-16.65,3.94-23.09,10.17-5.9,5.71-6.93,11.81-3.11,19,4.28,8,11.14,13.18,19.1,17.08,7,3.4,7,3.36,5.49,11.05-2.2,11.4-14,18.41-24.88,14.52A20.63,20.63,0,0,1,296.24,271c-1.67-5.22-4.12-6.9-8.71-6.4-5.79.62-9.44,5.77-8.12,11.84a37.4,37.4,0,0,0,9.33,17.65c5.94,6.39,13.66,9.13,21.88,10.88-.31.26-2.14.67-.16.83,3.79.31,7.63.1,11.45.09.72,0,1.34-.11.61-1,7.56-1.75,14.42-4.89,20-10.43,1.63-1.62,2.73-.93,4.2.26,9.41,7.63,20.27,10.39,32.26,9.65,16.61-1,32.55-14.36,36.06-30.45,1.38-6.32-1-11.23-6.19-12.93-5.49-1.79-10.08.53-12.78,6.46-1.44,3.16-2.8,6.38-5.37,8.86ZM488.55,117.6a.76.76,0,0,0-.83-.81l0,.1c-.07-1-.75-1-1.48-1l.07,0-.88-.83.07.1c-.54-1.48-1.42-2.52-3.18-2.39l.07.06a1.92,1.92,0,0,0-2.41-1.6l.06,0c-.67-1.86-2.19-2.32-3.95-2.4l.08.06c-.24-.85-.89-.93-1.62-.84l.06.06c-.23-.88-.9-.92-1.63-.84l.06.07c-.25-1.39-1.44-1.76-2.5-2.19a74,74,0,0,0-33-5c-1,.06-1.52.22-1,1.31a61,61,0,0,0-12.45,3.3c-.46-.58-.63-.29-.7.25l0-.07c-.72-.06-1.37,0-1.61.86l.08,0a1.92,1.92,0,0,0-2.41,1.59l.07-.1-.88.84.08,0c-.73,0-1.42,0-1.47,1l.08-.08c-1,.06-1,.74-1,1.47l0,0c-1.77,0-1.74,1.14-1.56,2.4l.05-.07c-3.1,3.08-2.38,9.24,1.45,12.38l0,0c.65,1.36,1.5,2.44,3.23,2.29l0-.08c.05.54.19.85.67.26,3.76,1.46,7.35.45,10.92-.73,1.41,1.43,2.68,0,3.93-.28,5.61-1.35,11.14-2.5,17.06-1.61,2.2.33,4.63,2,7,.32,8.25,2.18,15.36,6.58,22.21,11.45,3.18,2.26,6.37,3.35,10.06,1.32s4-5.37,3.72-9c.7-.65.66-1.15-.3-1.47l.07,0c.3-2.13-.12-3.9-2.39-4.72l0,.07a2,2,0,0,0-1.65-2.38l.12.06-.94-.87-.59-.68c0-.73,0-1.42-1-1.52ZM286.16,105.1c-.45-1.71-1.74-1.79-3.16-1.63l.06.07a2.38,2.38,0,0,0-1.89-1.69c-11.11-3.57-22.21-2.41-33.33-.06-1,.2-.88.67-.57,1.33-11,3.16-21.1,7.83-28.62,16.82-2.93,3.5-5.4,7.28-5.7,12.05-.17,2.63.56,4.92,2.89,6.35a6.58,6.58,0,0,0,7.35-.14c2.71-1.75,5.23-3.79,7.8-5.76,5.16-4,10.58-7.39,17.09-8.69,2.39,1.85,4.76,0,7.06-.23,6.71-.53,13,1.73,19.49,2.38l0-.06c3.75,3.65,9.62,3.28,13.83-.86h-.08a2.46,2.46,0,0,0,2.34-2.36l0,.11c4.1-4.24,4.41-8.9.8-12.26l.06.06a6.85,6.85,0,0,0-5.47-5.48ZM465.29,237.31c4.31,1.23,8.89,1.94,12.26,5.22,2.19,2.13,3.09,1.27,4.45-.9,13.14-21,14.61-43.44,6.27-66.2-13.1-35.74-59.25-36.21-78-12.1-10.3,13.22-13.41,28.15-12.78,44.39.65,16.65,7.95,29.91,19.93,41,3,2.78,5.45,4.3,8.73.42,1.29-1.52,3.35-2.38,5.06-3.55C441.92,240.3,453.09,236.7,465.29,237.31Zm-188.91,10c1.89.54,2.56,4.47,5.54,2a56,56,0,0,0,15.15-19.44c6.06-13.07,6.64-26.71,4.3-40.62-1.58-9.37-4.33-18.36-10.25-26-16.48-21.31-59.56-25.69-78,10-6.44,12.51-7.29,26-6,39.72a62.94,62.94,0,0,0,7.74,25.37c.63,1.12,1,2.76,3.1,1.48,8.66-5.21,18.23-6.21,28.07-5.69A75.47,75.47,0,0,1,276.38,247.34Z"/><path class="cls-3" d="M569.74,543c23.63-7.86,36.52-26.09,45.92-47.66,3.3-7.59,5.21-15.63,7.12-24a44.59,44.59,0,0,0,20.39,5.4c2.08.07,2.36.85,2,2.58-7,29.72-19.9,55.82-45.44,74.14-7.72,5.54-16,10-25.32,12.33-.83-.89-1.6-.89-2.32.13-10.86,1.35-21.63,3.2-32.69,1.64-7-1-14-1.8-20.93-3.54-1.72-.44-2.63-1.29-2.48-3.26a46.11,46.11,0,0,0-1.66-14.94c-.91-3.53.13-4.43,3.33-4.13l0-.07c.35,1.4,1.5,1.46,2.65,1.8a95.84,95.84,0,0,0,20,3.61c6.68.48,13.57,1.15,20.13-1.37a16.22,16.22,0,0,0,4.57-.56C568.77,544.17,568.79,544.28,569.74,543Z"/><path class="cls-4" d="M669.6,367.85c-9.08,15.33-9.25,30.62-3.85,46.33a61.35,61.35,0,0,1,3.61,23.27c-.49,9.44-3.64,17.71-12.53,21.68-10.06,4.48-20.47,3.88-29.33-3.37-10.19-8.33-12.53-19.93-11.37-32.33,2.31-24.9,25.58-48.37,48.67-54.83A43.94,43.94,0,0,1,669.6,367.85Z"/><path class="cls-5" d="M549.31,184.35c-1.42-.21-1.38-1.28-1.41-2.34-.59-17.43-3.7-34.52-7.1-51.55a86.39,86.39,0,0,0-3.34-11.92c-2.88-8.13-2.56-16.25-.09-24.31,1.12-3.67.66-7.71,2.79-11.09.29,4.48-1,8.75-2.11,13a38.36,38.36,0,0,0,.31,21.37c6,20.43,9,41.43,10.91,62.6C549.39,181.5,549.3,182.93,549.31,184.35Z"/><path class="cls-5" d="M517.61,541.75c-3.2-.3-4.24.6-3.33,4.13a46.11,46.11,0,0,1,1.66,14.94c-.15,2,.76,2.82,2.48,3.26,6.89,1.74,13.91,2.55,20.93,3.54,11.06,1.56,21.83-.29,32.69-1.64h0c0,.2,0,.39,0,.59-16.26,4.11-32.53,3-48.76-.11-8.82-1.71-8.83-1.85-8.79-10.67,0-5.46-1.66-10.63-2.76-16.41Z"/><path class="cls-5" d="M382.07,62.08c-5.3,0-10.61.16-15.91,0-22.53-.6-44.64,2.59-66.56,7.41-1.15.25-2.23.77-3.23-.26,18.24-4.19,36.57-7.51,55.38-8,8.94-.26,17.84-.22,26.76.11C379.7,61.34,381.13,60.73,382.07,62.08Z"/><path class="cls-5" d="M315.84,560.39c2.91-1.72,5.9-.1,8.59.36,8.09,1.35,16.18,1.19,24.29,1.35a144.48,144.48,0,0,0,35.94-4.19c1.85-.44,3.27-.51,4.3,1.29-5.88-1.34-11.2,1.51-16.72,2.46-14.36,2.49-28.68,2.19-43.05.84C324.71,562.07,320.29,561.1,315.84,560.39Z"/><path class="cls-5" d="M188,27.75c-.17,3.71-2.53,6.67-3.49,10.15a69.52,69.52,0,0,0-2.66,16.68,170.25,170.25,0,0,0,2.25,35.36c.2,1.09.42,2.34-.59,3.28-2.86-16.52-4.69-33.11-1.56-49.78C183,37.91,184.39,32.34,188,27.75Z"/><path class="cls-5" d="M169.53,168c1.66,3-.06,5.79-.61,8.52-2,9.81-3,19.74-4.2,29.66-.58,5-1.07,10-3.15,14.61-.56,1.26-.78,2.79-2.44,3.22,5-10.79,4.48-22.62,6.33-34C166.66,182.67,167.83,175.3,169.53,168Z"/><path class="cls-5" d="M204.57,401.66c1.43,1.81,0,3.51-.45,5.08a106.84,106.84,0,0,0-3.66,29.08c0,3,1.13,4.44,3.74,5.41,3,1.1,6.31,1.73,8,5-3.75-1.75-7.44-3.62-11.26-5.21-1.74-.73-1.78-2-1.81-3.41A102.39,102.39,0,0,1,204.57,401.66Z"/><path class="cls-5" d="M540.13,83.18c.55-8.59,2.32-17.07,2.31-25.71,0-7.62.34-15.24-.8-22.81-.78-5.14-3.31-9.73-4.57-14.72,5,6.42,5.89,14.15,6.3,21.8a187.44,187.44,0,0,1-.32,23.7C542.61,71.39,542.63,77.52,540.13,83.18Z"/><path class="cls-5" d="M199.89,457.63c-4.77-.55-8.87-3.35-13.62-4-10-1.35-19.76-1.15-28.9,3.84a5.12,5.12,0,0,1-3.66.92C165,451,177.27,450.05,190,453.45A29.5,29.5,0,0,1,199.89,457.63Z"/><path class="cls-5" d="M132.13,495.83c-2.36-.17-3.8-2-5.64-3.12-11.61-6.91-23.76-10.17-37.12-5.82-.66.22-1.22.35-1.71-.25,10-4.51,19.85-3.51,29.66.38C122.71,489.15,127.88,491.74,132.13,495.83Z"/><path class="cls-5" d="M135.05,604.22c3.51-.43,6.47,1.51,9.68,2.33,11.55,3,22.87,3.82,33.78-2.24.31-.17.76-.06,1.15-.09-6.91,5.11-14.71,6.41-23.06,5.53A68.15,68.15,0,0,1,135.05,604.22Z"/><path class="cls-5" d="M559,236.5c-3.15-2.15-3.56-5.86-4.69-9-3.85-10.59-4.35-21.81-5.55-32.88-.12-1.14.39-1.36,1.35-.94C550.73,208.44,552.5,223,559,236.5Z"/><path class="cls-5" d="M423.94,675.1c2.54-.36,4.39,1.4,6.4,2.35,9.58,4.53,19.42,5.94,29.74,3.29,1-.26,2-.56,2.89.34C449,685.37,436.06,683,423.94,675.1Z"/><path class="cls-5" d="M560.35,545.72c-6.56,2.52-13.45,1.85-20.13,1.37a95.84,95.84,0,0,1-20-3.61c-1.15-.34-2.3-.4-2.65-1.8,7.7,1.85,15.39,3.77,23.35,4.21a32.88,32.88,0,0,0,13.93,0l4.74-.66.76.5Z"/><path class="cls-5" d="M137.58,228.9c1.17-6.3,4.35-12,4.79-18.6.31-4.49-1.25-8.52-1.7-12.79,2.75,3.15,3.15,7,3,10.92A43.29,43.29,0,0,1,137.58,228.9Z"/><path class="cls-5" d="M544.05,377.66c2.52-2.54,6-3.42,9-5,5.34-2.83,10.78-5.44,16.18-8.15,1.16-.58,2.31-1.21,3.68-.9A194.07,194.07,0,0,1,544.05,377.66Z"/><path class="cls-5" d="M483.28,470.24c.14-5.29-.17-10.57.58-15.88.5-3.63-.43-7.44-.58-11.17-.06-1.37-.48-2.88.59-4.12,1.5,9.85,1.15,19.7.17,29.55C484,469.26,484,469.91,483.28,470.24Z"/><path class="cls-5" d="M488,397.14a1.92,1.92,0,0,1,1.51-1.57,165.47,165.47,0,0,0,25-7.05,5.45,5.45,0,0,1,1.52-.08c-6.14,3.58-13.12,4.77-19.79,6.83C493.54,396.1,490.73,396.53,488,397.14Z"/><path class="cls-5" d="M423.2,377.56c7.26.07,13.4-3.5,19.86-6.06,2-.8,3.72-2.41,6.05-2.47-7,4.85-14.77,7.75-23,9.63C424.81,379,423.83,378.84,423.2,377.56Z"/><path class="cls-5" d="M159,322.18c-2.76-3.39-2-7.66-2.8-11.53a14.79,14.79,0,0,1,0-4.65c.47-4.41.21-8.42-4.64-10.42,4.25.45,6,2.44,5.59,7.05C156.6,309.18,157.81,315.71,159,322.18Z"/><path class="cls-5" d="M172.63,292.64a2.53,2.53,0,0,1,.69,2.13c-.08,8.64-.32,17.29,2.27,25.7a1.61,1.61,0,0,1-.62,1.73c-2.44-5.91-2.55-12.17-2.67-18.41C172.24,300.08,172.51,296.36,172.63,292.64Z"/><path class="cls-5" d="M484.84,656.36c.07-7,.37-14-3-20.43-.32-.61-.06-1.52-.07-2.3C485.15,640.89,488.09,648.2,484.84,656.36Z"/><path class="cls-5" d="M87,165.6c-2.77.29-5.12-1.37-7.87-1.59-4.67-.36-8.3,2.62-12.62,3.14C73.34,161.79,80.62,161.25,87,165.6Z"/><path class="cls-5" d="M295.56,69.35c-3.94,3.49-8.95,3.11-13.66,3.61-3.17.33-6.47.28-8.85-2.53C280.71,73.33,288.13,71.22,295.56,69.35Z"/><path class="cls-5" d="M233.15,464c3.88,1.87,3.72,5.51,3.06,8.69s-3.27,5.2-6.46,5.94c-1.54.35-3.45.62-4.23-1.57,3.48.68,6.67.47,8.9-2.79C237,470.47,235.05,467.24,233.15,464Z"/><path class="cls-5" d="M451.91,68.21c-1.19,1.87-2.08,2.55-6,3.06A41.32,41.32,0,0,1,432,70.61c-.67-.14-.4-.79-.21-1.26C438.65,71.22,445.36,71.17,451.91,68.21Z"/><path class="cls-5" d="M518.31,387.69a89.31,89.31,0,0,1,20.34-7.76A90.25,90.25,0,0,1,518.31,387.69Z"/><path class="cls-5" d="M212.37,27.74c-3,0-5.26-1.78-7.74-3-4.18-2-8.44-1.43-12.75-.9,2.9-2.43,6.33-1.95,9.49-1.2A29,29,0,0,1,212.37,27.74Z"/><path class="cls-5" d="M123.94,262.26c-.24.07-.66.24-.7.19-2-3.4-.26-14.47,2.73-17.27C124,250.73,122.72,256.34,123.94,262.26Z"/><path class="cls-5" d="M100.8,219.31c-1.22,4.94-1.71,10.16-5.51,14.08C97.2,228.73,98.09,223.67,100.8,219.31Z"/><path class="cls-5" d="M428,394.22c-1.59.54-3.18,1.5-4.78,1.52-3.29,0-6.77.19-9.2-2.81A23.73,23.73,0,0,0,428,394.22Z"/><path class="cls-5" d="M184.43,98.76c2.71,3,3.11,10.59.69,13.19C186.13,107.49,185.21,103.13,184.43,98.76Z"/><path class="cls-5" d="M398.34,63c-5.54,1.22-10.92,0-16.33-1C387.46,62.25,393,61.77,398.34,63Z"/><path class="cls-5" d="M387.32,624.43c2.53,3.78,4.84,7.64,4.92,12.4A64.32,64.32,0,0,1,387.32,624.43Z"/><path class="cls-5" d="M382.64,611.19a28.32,28.32,0,0,1,4.75,13.29A61.78,61.78,0,0,1,382.64,611.19Z"/><path class="cls-5" d="M480.94,485a46.54,46.54,0,0,1,2.38-14.85A40.83,40.83,0,0,1,480.94,485Z"/><path class="cls-5" d="M223.85,454.65a19.86,19.86,0,0,1,9.34,9.42Z"/><path class="cls-5" d="M566.19,250.5c-2.88-2.48-4.79-5.47-5-9.38A48.67,48.67,0,0,1,566.19,250.5Z"/><path class="cls-5" d="M367.29,391.7A18.71,18.71,0,0,1,378.23,387,43.61,43.61,0,0,1,367.29,391.7Z"/><path class="cls-5" d="M140.72,197.57c-2.36-2.37-5.87-3.22-7.9-6A11,11,0,0,1,140.72,197.57Z"/><path class="cls-5" d="M274.33,390.62c-2,2.21-8.46,2.51-9.93.46C267.75,391.77,271,391.19,274.33,390.62Z"/><path class="cls-5" d="M533.18,16.87,523,17.05C526.36,15.82,529.75,14.88,533.18,16.87Z"/><path class="cls-6" d="M554.86,545.89a32.88,32.88,0,0,1-13.93,0Z"/><path class="cls-5" d="M569.74,543c-1,1.26-1,1.15-4.82,2.14a16.22,16.22,0,0,1-4.57.56h0c0-.2,0-.4,0-.6Z"/><path class="cls-5" d="M358.66,394.69c2.59-1.85,5.36-3.21,8.66-3.07A21.48,21.48,0,0,1,358.66,394.69Z"/><path class="cls-5" d="M95.35,233.32c-.43,2.77-2.77,2.68-4.62,2.66-1.32,0-3.4-.1-3.13-2.54C90.23,235.94,92.8,235.39,95.35,233.32Z"/><path class="cls-5" d="M379.92,602.61c2.64,2.32,2.56,5.52,2.79,8.62C381.13,608.57,380.67,605.54,379.92,602.61Z"/><path class="cls-5" d="M212.12,446.13c3,.55,5.62,1.81,7.06,4.74Z"/><path class="cls-5" d="M181.94,602.7c1.13-2,2.09-4.23,4.77-4.68A11.56,11.56,0,0,1,181.94,602.7Z"/><path class="cls-5" d="M196,585.61c1-2.54,2.11-5,4.63-6.37C199.43,581.59,198.19,583.94,196,585.61Z"/><path class="cls-5" d="M200.61,579.3a8.62,8.62,0,0,1,4.16-6.25A30.36,30.36,0,0,1,200.61,579.3Z"/><path class="cls-5" d="M125.9,245.24c-.18-2.55,1.17-4.21,3.17-5.51A21.45,21.45,0,0,1,125.9,245.24Z"/><path class="cls-5" d="M221.73,474a11.14,11.14,0,0,1-4.75-4.76A12,12,0,0,1,221.73,474Z"/><path class="cls-5" d="M158.41,225.53c-.39,2.22-.95,4.34-3.16,5.52A18.6,18.6,0,0,1,158.41,225.53Z"/><path class="cls-5" d="M143.68,466.17c-.32,2.49-2.11,3.7-4.11,4.74A19.63,19.63,0,0,1,143.68,466.17Z"/><path class="cls-5" d="M538.61,380c1.15-2.36,3.39-2.23,5.49-2.41A14,14,0,0,1,538.61,380Z"/><path class="cls-5" d="M211.56,464.68c-2.14-.25-3.86-1.09-4.71-3.22A10.52,10.52,0,0,1,211.56,464.68Z"/><path class="cls-5" d="M135.16,498.21c-2.1.54-2.93-.52-3.07-2.44A7.41,7.41,0,0,1,135.16,498.21Z"/><path class="cls-5" d="M128.16,601.65c2-.47,3.62-.18,4.61,1.82C131.06,603.3,129.65,602.37,128.16,601.65Z"/><path class="cls-5" d="M191.93,23.8a8.38,8.38,0,0,1-3.94,4A7,7,0,0,1,191.93,23.8Z"/><path class="cls-5" d="M381.32,385.48c.79-1.61,1.83-2.71,3.8-1.79A8.83,8.83,0,0,1,381.32,385.48Z"/><path class="cls-5" d="M139,471.61c-.38,1.36,0,3.31-2.38,3.15A8.12,8.12,0,0,1,139,471.61Z"/><path class="cls-5" d="M215.45,467.79c-2.11-.06-3.07-1.56-4-3.16A9.63,9.63,0,0,1,215.45,467.79Z"/><path class="cls-5" d="M105.62,210.09c1,1.93.09,2.74-1.74,3Z"/><path class="cls-5" d="M149.1,461.38c-.74,1.79-1.84,3.18-4,3.32A13.51,13.51,0,0,1,149.1,461.38Z"/><path class="cls-5" d="M129,239.8c.15-1.72.45-3.34,2.49-3.83A6.78,6.78,0,0,1,129,239.8Z"/><path class="cls-5" d="M410.16,390l-4.12.73C407.29,389.71,408.24,387.09,410.16,390Z"/><path class="cls-5" d="M151.45,236.46c-.1,2.1-1.54,3.11-3.2,3.94A11.74,11.74,0,0,1,151.45,236.46Z"/><path class="cls-5" d="M134.57,232.11a4.58,4.58,0,0,1,3.05-3.29C136.89,230.19,136.23,231.61,134.57,232.11Z"/><path class="cls-5" d="M71.82,306a4.47,4.47,0,0,1,2.47,3.88A5.8,5.8,0,0,1,71.82,306Z"/><path class="cls-5" d="M449.05,369.1c.74-1.05.91-3.09,3-1.78A6.54,6.54,0,0,1,449.05,369.1Z"/><path class="cls-5" d="M206.92,461.52c-1.74-.1-3.26-.57-4-2.38A8.33,8.33,0,0,1,206.92,461.52Z"/><path class="cls-5" d="M479.23,493.53c-1.27-1.83.07-3.19.83-4.66C480.58,490.56,479.68,492,479.23,493.53Z"/><path class="cls-5" d="M219.12,450.82c1.75-.13,2.63.91,3.19,2.38A6.64,6.64,0,0,1,219.12,450.82Z"/><path class="cls-5" d="M188.9,595.69a3.26,3.26,0,0,1,2.45-3.2A6.76,6.76,0,0,1,188.9,595.69Z"/><path class="cls-5" d="M191.29,592.57c-.08-1.72,1-2.61,2.39-3.19A6.82,6.82,0,0,1,191.29,592.57Z"/><path class="cls-5" d="M203,459.2c-1.43.17-2.7.05-3.17-1.63A5,5,0,0,1,203,459.2Z"/><path class="cls-5" d="M150,294.88c-1.41.16-2.68.05-3.18-1.6A6.38,6.38,0,0,1,150,294.88Z"/><path class="cls-5" d="M131.45,236a2.85,2.85,0,0,1,2.29-2.48C133.3,234.63,132.8,235.7,131.45,236Z"/><path class="cls-5" d="M421.61,375.21c1.72,0,1.72,1.16,1.63,2.39A4.37,4.37,0,0,1,421.61,375.21Z"/><path class="cls-5" d="M560.47,239.63c-1.64-.51-1.77-1.77-1.59-3.18A5.92,5.92,0,0,1,560.47,239.63Z"/><path class="cls-5" d="M483.88,402.4c-1.22-1.65-.37-2.48,1.2-3Z"/><path class="cls-5" d="M145.39,292.53c-1.09,0-2.33.14-2.37-1.52A3.9,3.9,0,0,1,145.39,292.53Z"/><path class="cls-5" d="M356.38,395.84c.21-1.51,1.36-1.15,2.31-1.17C358.23,395.67,357.17,395.49,356.38,395.84Z"/><path class="cls-5" d="M414.07,393a1.94,1.94,0,0,1-2.4-1.61A4.24,4.24,0,0,1,414.07,393Z"/><path class="cls-5" d="M148.29,240.32c-.1.91.31,2.3-1.51,1.63C147.29,241.41,147.79,240.86,148.29,240.32Z"/><path class="cls-5" d="M193.63,589.45a2,2,0,0,1,1.64-2.39A3.81,3.81,0,0,1,193.63,589.45Z"/><path class="cls-5" d="M89.29,167.19a2.05,2.05,0,0,1-2.38-1.65A3.08,3.08,0,0,1,89.29,167.19Z"/><path class="cls-5" d="M155.31,231a2,2,0,0,1-1.6,2.42A4.48,4.48,0,0,1,155.31,231Z"/><path class="cls-5" d="M153.76,233.33a2,2,0,0,1-1.64,2.37A3.74,3.74,0,0,1,153.76,233.33Z"/><path class="cls-5" d="M421.6,673.56a1.93,1.93,0,0,1,2.41,1.59A3.56,3.56,0,0,1,421.6,673.56Z"/><path class="cls-5" d="M480.15,488.2c.09-1.12-.42-2.39.82-3.22C480.77,486.07,481.56,487.41,480.15,488.2Z"/><path class="cls-5" d="M153.77,458.34a1.94,1.94,0,0,1-2.41,1.61A3.45,3.45,0,0,1,153.77,458.34Z"/><path class="cls-5" d="M537.14,20c-1.21.1-1.74-.44-1.56-1.65A2.23,2.23,0,0,1,537.14,20Z"/><path class="cls-5" d="M406.11,390.62a2,2,0,0,1-2.4,1.62A4.08,4.08,0,0,1,406.11,390.62Z"/><path class="cls-5" d="M225.59,477.12a2.06,2.06,0,0,1-2.41-1.6Z"/><path class="cls-5" d="M179.59,604.29a2,2,0,0,1,2.38-1.65A3.55,3.55,0,0,1,179.59,604.29Z"/><path class="cls-5" d="M403.78,392.18a2,2,0,0,1-2.42,1.59A3.79,3.79,0,0,1,403.78,392.18Z"/><path class="cls-5" d="M484.11,659.53c0-1.13-.5-2.39.76-3.22C484.65,657.39,485.39,658.7,484.11,659.53Z"/><path class="cls-5" d="M479.42,668.86a2,2,0,0,1,1.64-2.37A3.65,3.65,0,0,1,479.42,668.86Z"/><path class="cls-5" d="M419.26,672a1.91,1.91,0,0,1,2.4,1.61A3.55,3.55,0,0,1,419.26,672Z"/><path class="cls-5" d="M132.72,603.41c.9,0,1.91-.31,2.39.87C134.24,604.17,133.32,604.23,132.72,603.41Z"/><path class="cls-5" d="M74.22,309.85c.76.2,1.72.28,1,1.48Z"/><path class="cls-5" d="M516,388.47c.53-1,1.48-.82,2.37-.81C517.85,388.81,516.81,388.35,516,388.47Z"/><path class="cls-5" d="M572,566c.72-1,1.49-1,2.32-.13l-1.33.23-1-.11Z"/><path class="cls-5" d="M483.3,661.84c0-.91-.26-1.9.87-2.39C484,660.3,484.36,661.32,483.3,661.84Z"/><path class="cls-5" d="M103.12,214.63c0,.92.38,2-.94,2.33A2.19,2.19,0,0,1,103.12,214.63Z"/><path class="cls-5" d="M417.83,671.07c1.2-.73,1.28.21,1.48,1Z"/><path class="cls-5" d="M103.93,213.09c0,.72,0,1.37-.87,1.61C103.15,214.05,103.26,213.42,103.93,213.09Z"/><path class="cls-5" d="M379.73,386.24c.25-.86.9-.93,1.63-.83C381,386.1,380.37,386.15,379.73,386.24Z"/><path class="cls-5" d="M378.18,387c.24-.86.9-.92,1.62-.84C379.47,386.86,378.82,386.93,378.18,387Z"/><path class="cls-5" d="M486.41,397.91c.27-.82.91-.91,1.64-.84C487.71,397.76,487,397.78,486.41,397.91Z"/><path class="cls-5" d="M561.28,241.18c-.84-.24-.9-.9-.87-1.61A1.88,1.88,0,0,1,561.28,241.18Z"/><path class="cls-5" d="M151.44,459.9c-.21.84-.89.9-1.58.92A1.87,1.87,0,0,1,151.44,459.9Z"/><path class="cls-5" d="M151.62,295.63c-.72.08-1.37,0-1.64-.8C150.61,294.92,151.28,295,151.62,295.63Z"/><path class="cls-5" d="M146.93,293.33c-.71.05-1.37,0-1.62-.85A1.85,1.85,0,0,1,146.93,293.33Z"/><path class="cls-5" d="M133.69,233.57c-.08-.75,0-1.41.92-1.53C134.73,232.81,134.27,233.22,133.69,233.57Z"/><path class="cls-5" d="M159.19,224c.07.72,0,1.38-.84,1.63C158.44,225,158.52,224.31,159.19,224Z"/><path class="cls-5" d="M195.22,587.13c-.08-.74,0-1.4.9-1.55A1.47,1.47,0,0,1,195.22,587.13Z"/><path class="cls-5" d="M101.56,217.74c.08.72,0,1.38-.82,1.64C100.85,218.75,100.84,218.07,101.56,217.74Z"/><path class="cls-5" d="M534.77,17.64c-.73.06-1.39,0-1.63-.86A1.73,1.73,0,0,1,534.77,17.64Z"/><path class="cls-5" d="M481.82,633.69c-.83-.26-.87-.92-.82-1.63C481.68,632.4,481.72,633.06,481.82,633.69Z"/><path class="cls-5" d="M482.52,663.39c0-.69.05-1.33.82-1.62C483.23,662.4,483.32,663.12,482.52,663.39Z"/><path class="cls-5" d="M481.73,664.94c0-.7.06-1.32.82-1.61C482.44,664,482.57,664.69,481.73,664.94Z"/><path class="cls-5" d="M481,666.55c-.09-.71,0-1.34.75-1.66C481.62,665.49,481.78,666.23,481,666.55Z"/><path class="cls-6" d="M560.36,545.13c0,.2,0,.4,0,.6l-.76-.5Z"/><path class="cls-5" d="M91.1,168.72,90,167.9Z"/><path class="cls-6" d="M572,566l1,.11-1,.48C572,566.36,572,566.17,572,566Z"/><path class="cls-5" d="M90.1,168l-.88-.82Z"/><path class="cls-5" d="M222.24,453.1l.87.83Z"/><path class="cls-5" d="M485.63,398.72c.29-.3.57-.61.86-.92C486.2,398.11,485.92,398.42,485.63,398.72Z"/><path class="cls-5" d="M401.39,393.7c-.05.52-.19.84-.68.27A1.08,1.08,0,0,1,401.39,393.7Z"/><path class="cls-5" d="M187.36,597.24l1-.85Z"/><path class="cls-5" d="M186.6,598l.84-.87Z"/><path class="cls-5" d="M216.25,468.58l-.86-.83Z"/><path class="cls-5" d="M213,27.93c-.49.59-.62.27-.67-.26A1,1,0,0,1,213,27.93Z"/><path class="cls-5" d="M535.58,18.41l-.88-.82Z"/><path class="cls-5" d="M217.06,469.34l-.88-.83Z"/><path class="cls-5" d="M102.28,216.9a.86.86,0,0,1-.78.9C101.59,217.36,101.61,216.84,102.28,216.9Z"/><path class="cls-5" d="M481.08,632.09c-.56-.07-.84-.23-.25-.7A1.11,1.11,0,0,1,481.08,632.09Z"/><path class="cls-5" d="M223,453.86l.86.82Z"/><path class="cls-5" d="M572.9,363.66c.07-.53.21-.84.69-.26A1.15,1.15,0,0,1,572.9,363.66Z"/><path class="cls-5" d="M222.49,474.81l-.85-.86Z"/><path class="cls-5" d="M223.26,475.6l-.85-.86Z"/><path class="cls-5" d="M411.73,391.48l-.87-.91Z"/><path class="cls-5" d="M478.64,669.89l.81-1.1Z"/><path class="cls-7" d="M493.37,676.49l-1,.82C492.6,676.87,492.78,676.45,493.37,676.49Z"/><path class="cls-5" d="M152.21,235.64l-.81.89Z"/><path class="cls-5" d="M283.06,103.54c-11.89-3.87-23.83-3.18-35.79-.42-.31-.66-.4-1.13.57-1.33,11.12-2.35,22.22-3.51,33.33.06A2.38,2.38,0,0,1,283.06,103.54Z"/><path class="cls-5" d="M473.06,107.45c-9.36-3.86-19-6.56-29.22-6.35-2.44.05-4.88.3-7.32.45-.51-1.09,0-1.25,1-1.31a74,74,0,0,1,33,5C471.62,105.69,472.81,106.06,473.06,107.45Z"/><path class="cls-5" d="M367.14,216.57c-10.08-3.64-20.4-5.18-31.08-3.69-.32-.69-.36-1.25.64-1.26,9.41,0,18.87-.57,27.92,2.93C365.71,215,366.92,215.11,367.14,216.57Z"/><path class="cls-5" d="M431.09,126.87c9.17-3.59,18.48-4.49,28-1.57-2.39,1.65-4.82,0-7-.32-5.92-.89-11.45.26-17.06,1.61C433.77,126.89,432.5,128.3,431.09,126.87Z"/><path class="cls-5" d="M356.2,276.41c-3.55-4-4.37-8.93-5.12-13.93-.25-1.7.72-2,2.05-2-2,4.37.57,8.09,1.73,12C355.25,273.83,356.39,274.89,356.2,276.41Z"/><path class="cls-5" d="M353.1,260.6c5.6-2.37,11.32-4.5,16.4-8C365.12,257.55,359.48,259.85,353.1,260.6Z"/><path class="cls-5" d="M274.59,125.84c4.72,1.44,9.36,1.61,13.83-.86C284.21,129.12,278.34,129.49,274.59,125.84Z"/><path class="cls-5" d="M290.7,122.73c1.89-4,2.58-8,.8-12.26C295.11,113.83,294.8,118.49,290.7,122.73Z"/><path class="cls-5" d="M414.89,112.79c-1.79,4.39-.75,8.45,1.45,12.38C412.51,122,411.79,115.87,414.89,112.79Z"/><path class="cls-5" d="M384.47,281.81c-2.42,2.31-5.56,2.89-8.66,3.55C378.18,282.92,381.32,282.34,384.47,281.81Z"/><path class="cls-5" d="M370.33,285.37c-3.11-.65-6.27-1.2-8.69-3.54,3.43.14,6.22,2.27,9.47,3h0Z"/><path class="cls-5" d="M310.62,305l11.9-.08c.73.89.11,1-.61,1-3.82,0-7.66.22-11.45-.09C308.48,305.62,310.31,305.21,310.62,305Z"/><path class="cls-5" d="M291.56,110.53l-5.47-5.48A6.85,6.85,0,0,1,291.56,110.53Z"/><path class="cls-5" d="M494.86,127.62l-2.39-4.72C494.74,123.72,495.16,125.49,494.86,127.62Z"/><path class="cls-5" d="M480.06,111.34a8.62,8.62,0,0,1-3.94-2.4C477.87,109,479.39,109.48,480.06,111.34Z"/><path class="cls-5" d="M485.52,115.22a6.51,6.51,0,0,1-3.18-2.39C484.1,112.7,485,113.74,485.52,115.22Z"/><path class="cls-5" d="M416.3,125.13a6.49,6.49,0,0,1,3.23,2.29C417.8,127.57,417,126.49,416.3,125.13Z"/><path class="cls-5" d="M286.16,105.1a6.62,6.62,0,0,1-3.16-1.63C284.42,103.31,285.71,103.39,286.16,105.1Z"/><path class="cls-5" d="M416.4,110.46a4.48,4.48,0,0,1-1.56,2.4C414.66,111.6,414.63,110.44,416.4,110.46Z"/><path class="cls-5" d="M288.34,125a3.12,3.12,0,0,1,2.34-2.36A2.46,2.46,0,0,1,288.34,125Z"/><path class="cls-5" d="M482.41,112.89a3.89,3.89,0,0,1-2.41-1.6A1.92,1.92,0,0,1,482.41,112.89Z"/><path class="cls-5" d="M492.52,123a3.63,3.63,0,0,1-1.65-2.38A2,2,0,0,1,492.52,123Z"/><path class="cls-5" d="M361.69,281.89a3.37,3.37,0,0,1-2.33-1.69A2,2,0,0,1,361.69,281.89Z"/><path class="cls-5" d="M386.84,280.2a3.92,3.92,0,0,1-2.44,1.67A2.11,2.11,0,0,1,386.84,280.2Z"/><path class="cls-5" d="M374.22,285.48l-3.1-.05c0-.2,0-.4,0-.6h0C372.17,284.93,373.34,284.49,374.22,285.48Z"/><path class="cls-5" d="M357.83,278.69a3.47,3.47,0,0,1-1.69-2.34A2,2,0,0,1,357.83,278.69Z"/><path class="cls-5" d="M421.87,105.84a3.62,3.62,0,0,1-2.41,1.59A1.92,1.92,0,0,1,421.87,105.84Z"/><path class="cls-5" d="M487.74,116.89c-.8.13-1.16-.39-1.48-1C487,115.88,487.67,115.92,487.74,116.89Z"/><path class="cls-5" d="M423.4,105c-.33.67-1,.76-1.61.86C422,105,422.68,105,423.4,105Z"/><path class="cls-5" d="M474.63,108.22c-.64-.08-1.29-.15-1.63-.84C473.73,107.3,474.4,107.34,474.63,108.22Z"/><path class="cls-5" d="M418.73,108.13c-.33.57-.68,1.1-1.47,1C417.31,108.13,418,108.1,418.73,108.13Z"/><path class="cls-5" d="M476.19,109c-.64-.08-1.29-.16-1.62-.84C475.3,108.07,476,108.15,476.19,109Z"/><path class="cls-5" d="M417.34,109c.13.8-.4,1.15-1,1.47C416.32,109.77,416.36,109.09,417.34,109Z"/><path class="cls-5" d="M489.46,119.1c-.56-.37-1.13-.71-1-1.52C489.41,117.68,489.46,118.37,489.46,119.1Z"/><path class="cls-5" d="M495.09,129.05l-.3-1.47C495.75,127.9,495.79,128.4,495.09,129.05Z"/><path class="cls-5" d="M486.33,116l-.88-.83Z"/><path class="cls-5" d="M359.41,280.24l-.86-.82Z"/><path class="cls-5" d="M388.37,278.65c-.28.32-.56.64-.85,1Z"/><path class="cls-5" d="M419.5,127.34a1,1,0,0,1,.67.26C419.69,128.19,419.55,127.88,419.5,127.34Z"/><path class="cls-5" d="M491,120.65l-.94-.87Z"/><path class="cls-5" d="M488.55,117.6c-.64.09-.9-.18-.82-.81A.75.75,0,0,1,488.55,117.6Z"/><path class="cls-5" d="M419.53,107.33l-.88.84Z"/><path class="cls-5" d="M389.92,277.09l-.84.87Z"/><path class="cls-5" d="M424.07,104.85a1.12,1.12,0,0,1-.7.24C423.44,104.56,423.61,104.27,424.07,104.85Z"/><path class="cls-5" d="M389.16,277.88l-.86.86Z"/><path class="cls-5" d="M390.69,276.29l-.85.87Z"/><path class="cls-5" d="M358.62,279.49l-.83-.86Z"/><path class="cls-6" d="M371.12,284.83c0,.2,0,.4,0,.6l-.79-.06Z"/><path class="cls-8" d="M463.61,96.48c-15.42,11.2-35.18-3.13-50.38,1.76a21,21,0,0,1-14.58-.7,109.72,109.72,0,0,0-79.74-2.23,18.63,18.63,0,0,1-13.49-.15c-14.91-6.37-35.83,7.2-50.72-5.06-54.91-45.26-71,21.43-72.51,70.14C181.1,196.06,201.88,244.36,232,264a43.07,43.07,0,0,1,19,28.13c10.59,56.29,42.58,83.61,99.47,85.47,56.9,1.62,90.5-23.7,104.51-79.23a43,43,0,0,1,20.63-26.93c31.3-17.74,55-64.68,56.09-100.5C533.19,122.21,521.18,54.66,463.61,96.48Z"/><path class="cls-1" d="M367.14,216.57c3.46,2,7.05,3.7,9.89,6.65,5.24,5.44,6.15,11.24,2.76,18-2.38,4.77-6.35,8.06-10.29,11.4-5.08,3.45-10.8,5.58-16.4,8l0-.08c-1.33,0-2.3.26-2.05,2,.75,5,1.57,10,5.12,13.93l-.06-.06a3.47,3.47,0,0,0,1.69,2.34l0-.06.83.86-.07-.07.86.82-.05,0a3.37,3.37,0,0,0,2.33,1.69l-.05-.06c2.42,2.34,5.58,2.89,8.69,3.54l.79.06,3.1.05,1.59-.12c3.1-.66,6.24-1.24,8.66-3.55l-.07.06a3.92,3.92,0,0,0,2.44-1.67l.68-.6c.29-.31.57-.63.85-1l-.07.09.86-.86-.08.08.84-.87-.08.07.85-.87c2.57-2.48,3.93-5.7,5.37-8.86,2.7-5.93,7.29-8.25,12.78-6.46,5.22,1.7,7.57,6.61,6.19,12.93C411.52,290,395.58,303.33,379,304.35c-12,.74-22.85-2-32.26-9.65-1.47-1.19-2.57-1.88-4.2-.26-5.57,5.54-12.43,8.68-20,10.43l-11.9.08c-8.22-1.75-15.94-4.49-21.88-10.88a37.4,37.4,0,0,1-9.33-17.65c-1.32-6.07,2.33-11.22,8.12-11.84,4.59-.5,7,1.18,8.71,6.4a20.63,20.63,0,0,0,13.33,13.68c10.9,3.89,22.68-3.12,24.88-14.52,1.49-7.69,1.47-7.65-5.49-11.05-8-3.9-14.82-9.07-19.1-17.08-3.82-7.15-2.79-13.25,3.11-19,6.44-6.23,14.56-8.66,23.09-10.17C346.74,211.39,357.06,212.93,367.14,216.57Z"/><path class="cls-7" d="M246,234.15c-9.84-.52-19.41.48-28.07,5.69-2.12,1.28-2.47-.36-3.1-1.48A62.94,62.94,0,0,1,207.11,213c-1.24-13.71-.39-27.21,6-39.72,18.4-35.73,61.48-31.35,78-10,5.92,7.65,8.67,16.64,10.25,26,2.34,13.91,1.76,27.55-4.3,40.62a56,56,0,0,1-15.15,19.44c-3,2.51-3.65-1.42-5.54-2,10-4.22,16.35-11.86,19.82-21.91a53.39,53.39,0,0,0,2.42-11.2c1.49-12.88.45-25.36-7.64-36.19-8.86-11.85-26.63-14.06-36.79-4.75,7.81,1.88,11.48,5.72,12,12.58.52,6.56-3.33,13.42-8.91,15.94a11.64,11.64,0,0,1-10.06-.32c-3.26-1.49-5.11-4.31-7.3-8C236.42,208.56,237.41,221.92,246,234.15Z"/><path class="cls-7" d="M431.17,245.63c-1.71,1.17-3.77,2-5.06,3.55-3.28,3.88-5.75,2.36-8.73-.42-12-11.13-19.28-24.39-19.93-41-.63-16.24,2.48-31.17,12.78-44.39,18.79-24.11,64.94-23.64,78,12.1,8.34,22.76,6.87,45.16-6.27,66.2-1.36,2.17-2.26,3-4.45.9-3.37-3.28-7.95-4-12.26-5.22a11.83,11.83,0,0,1,1.84-2.82c4.9-4.21,7-9.92,8.63-15.85,1.57-5.66,1.27-11.31.71-17.17-.9-9.26-3.66-17.67-9-25.11-9.72-13.51-27.35-15.15-39.39-3.94,12.89,3.66,13.83,17.12,8.42,25.22s-14,8.31-19.84.63c-.91-1.21-1.59-2.58-2.47-4a35.6,35.6,0,0,0-2.51,13C412,223.13,417.55,236.45,431.17,245.63Z"/><path class="cls-9" d="M431.17,245.63c-13.62-9.18-19.18-22.5-19.5-38.4a35.6,35.6,0,0,1,2.51-13c.88,1.44,1.56,2.81,2.47,4,5.8,7.68,14.49,7.39,19.84-.63s4.47-21.56-8.42-25.22c12-11.21,29.67-9.57,39.39,3.94,5.35,7.44,8.11,15.85,9,25.11.56,5.86.86,11.51-.71,17.17-1.65,5.93-3.73,11.64-8.63,15.85a11.83,11.83,0,0,0-1.84,2.82C453.09,236.7,441.92,240.3,431.17,245.63Z"/><path class="cls-9" d="M246,234.15c-8.61-12.23-9.6-25.59-6.08-40.68,2.19,3.71,4,6.53,7.3,8a11.64,11.64,0,0,0,10.06.32c5.58-2.52,9.43-9.38,8.91-15.94-.54-6.86-4.21-10.7-12-12.58,10.16-9.31,27.93-7.1,36.79,4.75,8.09,10.83,9.13,23.31,7.64,36.19a53.39,53.39,0,0,1-2.42,11.2c-3.47,10-9.8,17.69-19.82,21.91A75.47,75.47,0,0,0,246,234.15Z"/><path class="cls-1" d="M431.41,133.42c-3.58,1.18-7.17,2.18-10.92.73a1.06,1.06,0,0,0-.67-.26l0,.08a6.51,6.51,0,0,0-3.22-2.29l0,0c-2.2-3.93-3.24-8-1.45-12.38l-.06.07a4.47,4.47,0,0,0,1.57-2.4l-.05,0c.58-.32,1.11-.67,1-1.47l-.07.08c.78.12,1.14-.42,1.46-1l-.07,0,.87-.84-.07.1a3.64,3.64,0,0,0,2.42-1.59l-.08,0c.63-.1,1.28-.18,1.61-.85l0,.06a1.07,1.07,0,0,0,.69-.24,60.89,60.89,0,0,1,12.46-3.3c2.44-.15,4.88-.4,7.32-.45,10.24-.21,19.86,2.49,29.22,6.35l-.06-.07c.33.69,1,.75,1.63.84l-.06-.07c.33.69,1,.76,1.62.85l-.08-.06a8.6,8.6,0,0,0,3.95,2.4l-.06,0a3.87,3.87,0,0,0,2.41,1.6l-.07-.06a6.42,6.42,0,0,0,3.18,2.39l-.07-.1.88.83-.07,0c.32.59.68,1.11,1.47,1v-.1c-.08.63.19.9.82.81l-.09,0c-.12.81.45,1.15,1,1.52l.6.68.93.87-.11-.06a3.56,3.56,0,0,0,1.65,2.38l-.06-.07,2.4,4.72-.07,0c.1.49.19,1,.29,1.47.33,3.65,0,7-3.71,9s-6.88.94-10.06-1.32c-6.85-4.87-14-9.27-22.22-11.45C449.89,128.92,440.57,129.83,431.41,133.42Z"/><path class="cls-5" d="M248.08,123.75a38.72,38.72,0,0,1,26.55,2.15c-6.51-.65-12.78-2.91-19.49-2.38C252.84,123.7,250.47,125.6,248.08,123.75Z"/><path class="cls-1" d="M248.08,123.75c-6.51,1.3-11.93,4.73-17.09,8.69-2.57,2-5.09,4-7.8,5.76a6.58,6.58,0,0,1-7.35.14c-2.33-1.43-3.06-3.72-2.89-6.35.3-4.77,2.77-8.55,5.7-12.05,7.52-9,17.64-13.66,28.62-16.82,12-2.76,23.9-3.45,35.79.42l-.06-.07a6.62,6.62,0,0,0,3.16,1.63l-.07,0,5.47,5.48-.06-.06c1.78,4.22,1.09,8.28-.8,12.26l0-.11a3.12,3.12,0,0,0-2.34,2.36h.08c-4.47,2.47-9.11,2.3-13.83.86l0,.06A38.72,38.72,0,0,0,248.08,123.75Z"/></g></g></svg>