<svg xmlns="http://www.w3.org/2000/svg" viewBox="0 0 419.54 419.54"><defs><style>.cls-1{fill:#02534e;}.cls-2{fill:#8d183b;}.cls-3{fill:#febe2a;}.cls-4{fill:#fbaf40;}.cls-5{fill:#ea7624;}.cls-6{fill:#fcba19;}.cls-7{fill:#e25026;}.cls-8{fill:#fefdf3;}.cls-9{fill:#f68e46;}.cls-10{fill:#fff;}</style></defs><g id="Layer_2" data-name="Layer 2"><g id="Layer_1-2" data-name="Layer 1"><rect class="cls-1" width="419.54" height="419.54" rx="75"/><path class="cls-2" d="M398.4,318.79c-13.63,15.58-30.45,25.65-51,28.87-15.7,2.46-31,2.11-44.87-7.46-3.14-2.18-7.11-.27-10.69-.77-1-.14-.79,1.72-.73,2.71.19,2.79.58,5.57.68,8.36.07,2.27,1,3.38,3.24,4,14.18,4.08,19.51,14.94,21,28.35,1.1,9.71-2.84,14.14-12.61,14.36-14.88.34-29.77.34-44.66.62-6.81.13-13.58,1.09-20.42.15-6-.83-9.44-3.77-10.72-9.75C225.22,377,222.4,365.79,220,354.5c-.72-3.45-1.72-5-5.72-4.57a67.79,67.79,0,0,1-15.2-.24c-3.38-.43-4.21.73-4.82,3.61q-3.5,16.41-7.32,32.75c-1.75,7.57-6.21,11.48-14.07,11.52-21.55.09-43.1.11-64.64-.32C95.47,397,93.51,392,95.85,378.78c2.06-11.68,8.92-20.43,20.68-24.41,2.33-.79,3.38-1.94,3.2-4.52-.77-11.52-1.36-23.06-2.1-34.58-.27-4.08-4.4-5.73-6-9-1.84-3.83-4.88-3.75-8.65-3.53A73.92,73.92,0,0,1,64.9,295c-2.84-1.43-4.11-1.39-5.25,1.86a11.2,11.2,0,0,1-8.41,7.26c-7.1,1.65-14.25,1.82-21.16-.82-6.54-2.5-9.27-7.79-9.19-14.48.05-4.83-.4-9-4.18-12.81-3.26-3.31-3.52-8.2-2.5-12.9.73-3.38.9-6.44-1.12-9.86-2.86-4.87-2.74-10.47-.5-15.72,1.25-2.94,1-4.14-2.42-5.12-5.17-1.51-8-5.47-8.26-10.94-.19-5.07-.2-10.16,0-15.24.27-7.94,4.41-12.27,12.36-12.5,3.36-.1,3.66-1.55,3.48-4.2q-2-28.78-3.87-57.59c-1-15-1.83-30-2.77-45-.38-6.1,1.7-11.34,5.42-16,6.09-7.68,12.13-15.41,18.35-23,5.71-7,10.81-6.78,16.21.29S61.78,62.45,67.35,69.42c5.71,7.12,7.47,14.9,6.5,24-1.63,15.12-2.33,30.34-3.39,45.52-1.14,16.4-2.21,32.81-3.41,49.2-.23,3.21-.12,5.25,4,6,5.56,1,7.92,6,8.16,11,.37,7.92,2.06,16.19-3,23.48-1.3,1.89-.32,2.61,1.41,2.64,5.77.09,11.56.26,17.32,0,3.21-.15,5.08-4.83,3.31-8.88A70.22,70.22,0,0,1,92.66,204c-.31-2.21-1.57-2.71-3.38-3.3-4-1.28-1.75-3.89-5.18-6.42-5.37-4,3.4-15.19,6.93-20.79,6.51-10.33-8.11-14.42-7.32-26.18a160.26,160.26,0,0,1,7.21-37A18.67,18.67,0,0,0,91,98.58c-4.46-14.44-5.64-29.19-2-44C92.54,40.22,103.31,34.3,117.34,39a71.43,71.43,0,0,1,30.94,20.19c7.85,8.87,16.27,9.42,26.94,8,18.74-2.49,37.7-2.51,56.6-1.16,6.11.43,12.46.12,18.24,1.77,7.58,2.16,12.27-.69,17.34-5.68a110.41,110.41,0,0,1,28.79-20.88c18-8.81,33.17-.58,35.74,19.26A82.49,82.49,0,0,1,328,99.79c-.78,2.14-1.34,4.2-.51,6.6,5.31,15.16,6.17,31.15,8.57,46.85,1.44,9.41-11.06,16.18-6.5,24.62,4.07,7.54,1.34,9.09-6,13.71-.74.46,12.76,6.76,12,6.85-9.44,1.08-10.91,6.8-12.3,15.44-.59,3.69-4.68,7.61-3.86,10.49s5.9,4.3,9,6.54c28.29,20.49,28.58,58.08.62,78.93-.81.61-1.61,1.24-2.53,1.95,13.56,3.56,32.68-4.84,41.29-16.18,11.64-15.32,12.14-31.87,5.7-49.21-1.52-4.1-3.31-8.11-5.2-12a52.68,52.68,0,0,1-5-26.53c.15-2.46.08-4.68-1.83-6.79-19.68-21.75-14.74-51.89,2.62-71.69,5.58-6.37,11.92-11.82,20-14.92a23.62,23.62,0,0,1,14.4-1.14c5.63,4.35,6.89,8.29,3.77,13.91-6.3,11.37-5.46,22.41.88,33.37,4,6.84,7.6,13.81,8.07,21.92.59,10.21-1,19.64-10.14,26-2.05,1.43-1.81,3.07-1.31,5,1.38,5.46,3.89,10.44,6.34,15.47,12.84,26.35,14.12,52.68-.52,78.84C403.42,311.62,400.8,315.14,398.4,318.79Zm-9.62-192.43a4.12,4.12,0,0,0-3.48.7c-17.5,10.14-31.78,35-19.7,58.73,3.5,6.87,8.57,12.35,16.39,14.56,9.53,2.7,16-2,16.26-11.78.23-7.65-2.37-14.5-6.22-20.84-8.09-13.32-10.14-27-3.29-41.41a1.9,1.9,0,0,0,.34-.2c0-.05,0-.17,0-.26ZM319.54,71.84c0-2.1.09-4.2,0-6.3-.8-15.11-6.52-18.23-19.83-11C288,60.94,278.44,69.9,269.19,79.24c-2.86,2.89-5.84,4.55-10.2,3.91a339,339,0,0,0-94.21-.59c-8.12,1.08-13.12-1.25-18.25-6.73-9-9.64-19.27-17.86-31.26-23.59-8-3.82-13.43-.8-14.62,7.93-1.82,13.4-.73,26.52,4.33,39.18.92,2.29,1.75,4.44.78,7-5.41,14.52-8.13,29.59-9.58,45-.84,9-1.94,18.11-6.71,26.22-4.66,7.92-3.18,10.54,6.28,11.27a22.29,22.29,0,0,0,5.2-.39c2.47-.38,3.65.69,3.8,3.07.11,1.74.2,3.5.19,5.25,0,17.08,8.18,29.24,22.63,37.57,8.2,4.72,8.33,4.69,14.43-2.4,2.1-2.44,3.54-2.84,5.64,0,6.3,8.45,14.82,14.19,23.72,19.59,4.22,2.56,7.24,2.75,10-1.63,2-3.18,3.93-2.84,6.52-.15,5.25,5.45,11.71,9.39,18.17,13.28a4.58,4.58,0,0,0,5.33.06c5.85-3.56,11.82-7.11,16.21-12.38,3.13-3.77,4.88-2.95,7.59.13,1.48,1.68,2.59,4.76,6.26,2.78,9.61-5.19,18.72-11,25.86-19.42,4.6-5.42,4.48-5.42,9.24,0,1.61,1.82,2.7,4.68,6.28,3.17,14.44-6.05,25.43-15.45,29.69-31.05,1.18-4.33,1.27-9,1.48-13.53.15-3.34,1.21-4.87,4.75-4.27a20.49,20.49,0,0,0,9.37-.51c4.95-1.5,5.6-2.93,2.93-7.43a59.6,59.6,0,0,1-7.88-23.15c-2.28-17.49-3.55-35.18-9.94-51.9-.66-1.74.09-3.39.8-5A65.73,65.73,0,0,0,319.54,71.84ZM108.9,235.26c-4.32,17-2.35,37.11,5.18,52.31,12.39,25,33.79,38.48,59.78,45.72,14.8,4.13,30,4.75,45.29,4.77,8.41,0,9,.64,11,8.73,2.8,11.37,5.54,22.76,8.3,34.14.68,2.82,1.41,5.39,5.23,5.35,18.74-.17,37.49-.24,56.23-.34,3.17,0,4.25-1.51,4-4.66-.79-9.54-7.66-16.77-17.21-17.34-4.47-.27-6-2.24-6.17-6.57-.25-7-1.15-13.95-1.53-20.94a13.55,13.55,0,0,0-3.85-8.78c-10.61-11.87-10.81-24.41-1-37,2.38-3.06,4.85-6.09,8-8.26,4.25-2.9,6.36-5.83,2.24-10.46a3.23,3.23,0,0,1,.24-4.75c1.67-1.54,2.91.16,4.09,1a42.23,42.23,0,0,1,4.48,3.65c7,6.37,7,7.8-.51,13.53-5.17,4-10.06,8.22-12.62,14.47-3.38,8.3-1.85,15.93,3.91,22.5,5.17,5.9,12,7.76,19.55,5.62,3-.86,6.23-2.22,6.45-6s-3.11-4.2-5.65-5.17c-1.52-.58-3.21-1-3.3-2.88s1.22-3.24,2.88-4.05c1.25-.62,2.6-1,3.89-1.56A51.82,51.82,0,0,0,331.13,290c7.53-10.5,8.34-21.73,2.87-33.24-4.52-9.53-12.36-15.89-21.41-21-2.61-1.47-4.19-1.1-6.32.92a65.48,65.48,0,0,1-19.71,12.82c-4,1.67-8.24,3-11.85-.33-2.49-2.31-3.85-1.55-6,.28-7.77,6.57-16,12.47-25.33,16.73-2.35,1.08-5.32,3-7.38,1-5-4.84-8.14-1.3-11.74,1.63-1.76,1.42-3.73,2.61-5.63,3.86-6.33,4.19-12.74,4.51-19.15.23-4.07-2.73-8.08-5.55-12.05-8.41-1.48-1.08-2.72-2.28-4.37-.23-3.23,4-6.89,3-10.81,1a111.33,111.33,0,0,1-23.93-16c-1.12-1-2.17-3.46-4.21-1.41-5.52,5.57-11.17,3.29-16.85.47C120.62,245,114.81,240.56,108.9,235.26Zm-67-41.66a55.67,55.67,0,0,1,7.86.06c4.84.72,5.82-1.48,5.87-5.85.08-7.51.81-15,1.29-22.5l5.07-79c.16-2.49,0-4.88-1.64-7-5.22-6.79-10.5-13.54-15.58-20.44-1.89-2.56-3-2-4.6.21C35.34,65.57,30.45,72,25.4,78.22a12.56,12.56,0,0,0-2.81,9.19c.84,13.25,1.53,26.52,2.33,39.78C26,145.51,27,163.84,28.4,182.14,29.31,194.2,29.58,194.18,41.87,193.6Zm89.61,132.32c0,10.66-.18,21.14.08,31.61.11,4.16-1,5.8-5.42,6.17-9.63.82-17.73,9.05-18.91,18.35-.16,1.22-.52,2.79.76,3.33,3.32,1.42,6.88.51,10.33.53,2.79,0,2.25-2.7,2.88-4.33,1.14-2.93,2-6,4.14-8.41,1.37-1.54,3.11-2.49,5.14-1.78,2.46.87,1.87,3.11,1.59,4.95a26.63,26.63,0,0,1-1.42,5.57c-1.32,3.46,0,4.12,3.31,4.09q18.12-.18,36.23.09c3.21,0,4.71-1.1,5.4-4.24,1.82-8.18,3.91-16.3,5.86-24.45,2.2-9.22,2.19-9.23-7.29-11.55-.51-.13-1-.34-1.5-.47A115.57,115.57,0,0,1,131.48,325.92Zm183.8,7.83c.76.32,1.22.55,1.7.71,24.36,8,55-2.36,72-24.53,18.27-23.86,18.14-49.33,5.77-75.56-3.14-6.66-6.43-13.19-7.41-20.61-.2-1.49-.5-2.95-2.59-3.41-3.17-.71-6.24-1.88-9.59-2.94-.72,9.16,1.76,17.29,5.58,25.05a90.91,90.91,0,0,1,8.59,26.27c5.42,34.47-22.91,67.51-57.69,65.78-7.87-.39-12.68.87-15.81,7.86C315.71,332.67,315.59,333,315.28,333.75ZM101.46,290.31c.29-2.06-.85-3.51-1.44-5.11a91.36,91.36,0,0,1-5.45-32.9c.07-7.08.16-6.91-6.91-7.85-3-.4-4.14.22-3.84,3.37A20.7,20.7,0,0,1,81.91,258c-1.1,2.55-2.18,5.86-5.67,5-3.82-.9-1.63-4.31-1.72-6.66-.12-3,.22-5.95,0-8.89-.39-4.56-2.7-8.23-6-11.27-1.2-1.08-2.38-1.79-4.23-1.28-4.87,1.34-10.2,7-10.81,11.83-.34,2.7-.21,5.31,2.49,6.92s5.15,1,7.38-.59a71.11,71.11,0,0,0,5.87-5.31c1.5,5.71.76,11.12-3.14,13.92-6.64,4.78-3.28,11-4.13,16.63-.19,1.22.88,1.81,1.76,2.37C75.19,288.07,87.69,291.61,101.46,290.31Zm-60.3-68.25v0c5.59,0,11.18,0,16.77,0,12.17.09,11.05.6,11.31-11.47.11-5.2-2-6.63-6.86-6.54-12.4.23-24.81.09-37.22.09s-12.3,0-12.1,12.32c.07,4.42,1.93,5.78,6.08,5.67C26.48,221.91,33.82,222.06,41.16,222.06Zm-2.78,12.26v0c-2.79,0-5.59-.18-8.36,0-4.58.37-7.38,5-7.12,11,.21,4.95,2.86,6.67,7.53,6.28a48.21,48.21,0,0,1,7.31,0c3.73.25,6.91.23,6-5.1-.2-1.21.87-2.58,1.17-3.92.64-2.9,6.27-4.22,3.53-7.56-1.78-2.17-6-.52-9.07-.77C39.08,234.3,38.73,234.32,38.38,234.32Zm-.68,39.22c2.28,0,4.56,0,6.84,0,4.25,0,5.8-2.4,5.8-6.4s-1.78-6.24-6-6.24q-6.57,0-13.14,0c-4.06,0-6.24,1.88-6.17,6s1.89,6.64,6.33,6.62C33.5,273.53,35.6,273.54,37.7,273.54Zm4.49,11.37v0c-1.91,0-3.84-.14-5.74,0-1.73.16-4.16-1.1-4.9,1.55-.68,2.42.52,4.41,2.41,5.94,2.73,2.2,12,2.87,15.1,1.12,2.64-1.5,3.34-4,3-6.71-.4-2.95-2.92-1.72-4.62-1.88S43.93,284.91,42.19,284.91Z"/><path class="cls-3" d="M319.54,71.84a65.73,65.73,0,0,1-5.49,28.61c-.71,1.65-1.46,3.3-.8,5,6.39,16.72,7.66,34.41,9.94,51.9a59.6,59.6,0,0,0,7.88,23.15c2.67,4.5,2,5.93-2.93,7.43a20.49,20.49,0,0,1-9.37.51c-3.54-.6-4.6.93-4.75,4.27-.21,4.53-.3,9.2-1.48,13.53-4.26,15.6-15.25,25-29.69,31.05-3.58,1.51-4.67-1.35-6.28-3.17-4.76-5.39-4.64-5.39-9.24,0-7.14,8.43-16.25,14.23-25.86,19.42-3.67,2-4.78-1.1-6.26-2.78-2.71-3.08-4.46-3.9-7.59-.13-4.39,5.27-10.36,8.82-16.21,12.38a4.58,4.58,0,0,1-5.33-.06c-6.46-3.89-12.92-7.83-18.17-13.28-2.59-2.69-4.49-3-6.52.15-2.79,4.38-5.81,4.19-10,1.63-8.9-5.4-17.42-11.14-23.72-19.59-2.1-2.81-3.54-2.41-5.64,0-6.1,7.09-6.23,7.12-14.43,2.4-14.45-8.33-22.65-20.49-22.63-37.57,0-1.75-.08-3.51-.19-5.25-.15-2.38-1.33-3.45-3.8-3.07a22.29,22.29,0,0,1-5.2.39c-9.46-.73-10.94-3.35-6.28-11.27,4.77-8.11,5.87-17.19,6.71-26.22,1.45-15.4,4.17-30.47,9.58-45,1-2.59.14-4.74-.78-7-5.06-12.66-6.15-25.78-4.33-39.18,1.19-8.73,6.64-11.75,14.62-7.93,12,5.73,22.24,13.95,31.26,23.59,5.13,5.48,10.13,7.81,18.25,6.73a339,339,0,0,1,94.21.59c4.36.64,7.34-1,10.2-3.91,9.25-9.34,18.82-18.3,30.5-24.67,13.31-7.26,19-4.14,19.83,11C319.63,67.64,319.54,69.74,319.54,71.84Zm-90.31,88c-7.31-12.25-32.34-14.07-41.46.1-4.13,4.39-5.51,9.53-2.59,14.86a29,29,0,0,0,14.13,12.82c1.79.79,4.38.6,4.43,3.61s-1,5.55-3.73,7a18.07,18.07,0,0,1-11.13,2.19c-7.19-.88-11.92-5.32-16.06-10.8-1.83-2.43-4.15-4.87-7.45-2.43-3.05,2.25-2.73,5.3-.75,8.18,5.6,8.15,13.1,13.42,23,15.15,6.33,1.11,12.39.41,17.38-3.73,2.78-2.31,4.26-2.47,7.29-.16,12.05,9.21,36.07,1.91,41.22-12.27,1-2.78,1.32-5.65-1.74-7.4-2.81-1.61-5-.13-6.86,2a83.68,83.68,0,0,1-5.93,6.65c-5.73,5.29-14.19,6.5-20.49,3.22a7.83,7.83,0,0,1-4.58-7.09c-.16-3.5,2.58-3.6,4.77-4.5,4.69-1.91,8.12-5.49,11.35-9.15C235,172.45,234.64,165.77,229.23,159.88Zm-73.18,18c14.37-.06,25.28-11.78,25.36-27.26.09-15.74-11.65-28.09-26.6-28-14.59.1-26.13,12.18-26.12,27.33C128.7,165.68,140.67,177.9,156.05,177.83Zm106.28,0c15,0,27.09-12.55,27.14-28.2,0-14.82-11.43-26.92-25.7-27.07-15.3-.17-27.3,12.13-27.23,27.91C236.6,166.07,247.67,177.8,262.33,177.81ZM268.86,100a69.91,69.91,0,0,0-31.39,11.53c-1.63,1.09-3,2.44-3.28,4.52-.37,2.87-.33,5.7,2.42,7.52,3,2,6,1.47,8.86-.33a63.72,63.72,0,0,1,25.87-9.43c6.34-.87,8.64-2.9,8.41-7.7C279.53,101.59,277,99.87,268.86,100Zm-118.67,0c-8.55-.07-11.3,1.63-11.5,6s2.24,7.05,6.4,7.53a66.53,66.53,0,0,1,28.36,10c3.25,2.07,6.74,2,9.34-1.38A7.32,7.32,0,0,0,181,111.92,68.62,68.62,0,0,0,150.19,100Z"/><path class="cls-3" d="M108.9,235.26c5.91,5.3,11.72,9.78,18.34,13.07,5.68,2.82,11.33,5.1,16.85-.47,2-2.05,3.09.42,4.21,1.41a111.33,111.33,0,0,0,23.93,16c3.92,2,7.58,3,10.81-1,1.65-2.05,2.89-.85,4.37.23,4,2.86,8,5.68,12.05,8.41,6.41,4.28,12.82,4,19.15-.23,1.9-1.25,3.87-2.44,5.63-3.86,3.6-2.93,6.77-6.47,11.74-1.63,2.06,2,5,.1,7.38-1,9.31-4.26,17.56-10.16,25.33-16.73,2.17-1.83,3.53-2.59,6-.28,3.61,3.34,7.89,2,11.85.33a65.48,65.48,0,0,0,19.71-12.82c2.13-2,3.71-2.39,6.32-.92,9.05,5.1,16.89,11.46,21.41,21,5.47,11.51,4.66,22.74-2.87,33.24a51.82,51.82,0,0,1-23.3,18.14c-1.29.52-2.64.94-3.89,1.56-1.66.81-3,2.11-2.88,4.05s1.78,2.3,3.3,2.88c2.54,1,5.86,1.47,5.65,5.17s-3.43,5.18-6.45,6c-7.59,2.14-14.38.28-19.55-5.62-5.76-6.57-7.29-14.2-3.91-22.5,2.56-6.25,7.45-10.51,12.62-14.47,7.47-5.73,7.56-7.16.51-13.53a42.23,42.23,0,0,0-4.48-3.65c-1.18-.8-2.42-2.5-4.09-1a3.23,3.23,0,0,0-.24,4.75c4.12,4.63,2,7.56-2.24,10.46-3.18,2.17-5.65,5.2-8,8.26-9.83,12.62-9.63,25.16,1,37a13.55,13.55,0,0,1,3.85,8.78c.38,7,1.28,13.95,1.53,20.94.15,4.33,1.7,6.3,6.17,6.57,9.55.57,16.42,7.8,17.21,17.34.26,3.15-.82,4.64-4,4.66-18.74.1-37.49.17-56.23.34-3.82,0-4.55-2.53-5.23-5.35-2.76-11.38-5.5-22.77-8.3-34.14-2-8.09-2.58-8.73-11-8.73-15.28,0-30.49-.64-45.29-4.77-26-7.24-47.39-20.69-59.78-45.72C106.55,272.37,104.58,252.27,108.9,235.26Z"/><path class="cls-3" d="M41.87,193.6c-12.29.58-12.56.6-13.47-11.46C27,163.84,26,145.51,24.92,127.19c-.8-13.26-1.49-26.53-2.33-39.78a12.56,12.56,0,0,1,2.81-9.19c5.05-6.26,9.94-12.65,14.74-19.1,1.64-2.19,2.71-2.77,4.6-.21,5.08,6.9,10.36,13.65,15.58,20.44,1.6,2.09,1.8,4.48,1.64,7l-5.07,79c-.48,7.49-1.21,15-1.29,22.5-.05,4.37-1,6.57-5.87,5.85A55.67,55.67,0,0,0,41.87,193.6Z"/><path class="cls-4" d="M42.67,57.24c-.83-.1-1.58.62-2.53,1.89C35.34,65.57,30.45,72,25.4,78.22a12.47,12.47,0,0,0-2.8,9.19c.83,13.26,1.52,26.52,2.32,39.78C26,145.51,27,163.84,28.4,182.14c.91,12.06,1.18,12,13.47,11.46h.8Z"/><path class="cls-3" d="M131.48,325.92a115.57,115.57,0,0,0,41.18,19.46c.51.13,1,.34,1.5.47,9.48,2.32,9.49,2.33,7.29,11.55-1.95,8.15-4,16.27-5.86,24.45-.69,3.14-2.19,4.28-5.4,4.24q-18.12-.25-36.23-.09c-3.26,0-4.63-.63-3.31-4.09a26.63,26.63,0,0,0,1.42-5.57c.28-1.84.87-4.08-1.59-4.95-2-.71-3.77.24-5.14,1.78-2.14,2.42-3,5.48-4.14,8.41-.63,1.63-.09,4.34-2.88,4.33-3.45,0-7,.89-10.33-.53-1.28-.54-.92-2.11-.76-3.33,1.18-9.3,9.28-17.53,18.91-18.35,4.43-.37,5.53-2,5.42-6.17C131.3,347.06,131.48,336.58,131.48,325.92Z"/><path class="cls-3" d="M315.28,333.75c.31-.76.43-1.08.57-1.38,3.13-7,7.94-8.25,15.81-7.86,34.78,1.73,63.11-31.31,57.69-65.78a90.91,90.91,0,0,0-8.59-26.27c-3.82-7.76-6.3-15.89-5.58-25.05,3.35,1.06,6.42,2.23,9.59,2.94,2.09.46,2.39,1.92,2.59,3.41,1,7.42,4.27,14,7.41,20.61,12.37,26.23,12.5,51.7-5.77,75.56-17,22.17-47.66,32.49-72,24.53C316.5,334.3,316,334.07,315.28,333.75Z"/><path class="cls-5" d="M388.74,126.32c-6.85,14.44-4.8,28.09,3.29,41.41,3.85,6.34,6.45,13.19,6.22,20.84-.29,9.8-6.73,14.48-16.26,11.78-7.82-2.21-12.89-7.69-16.39-14.56-12.08-23.7,2.2-48.59,19.7-58.73a4.12,4.12,0,0,1,3.48-.7Z"/><path class="cls-3" d="M101.46,290.31c-13.77,1.3-26.27-2.24-37.83-9.58-.88-.56-2-1.15-1.76-2.37.85-5.61-2.51-11.85,4.13-16.63,3.9-2.8,4.64-8.21,3.14-13.92a71.11,71.11,0,0,1-5.87,5.31c-2.23,1.62-4.8,2.13-7.38.59s-2.83-4.22-2.49-6.92C54,241.93,59.34,236.3,64.21,235c1.85-.51,3,.2,4.23,1.28,3.35,3,5.66,6.71,6,11.27.25,2.94-.09,5.93,0,8.89.09,2.35-2.1,5.76,1.72,6.66,3.49.83,4.57-2.48,5.67-5a20.7,20.7,0,0,0,1.91-10.21c-.3-3.15.8-3.77,3.84-3.37,7.07.94,7,.77,6.91,7.85A91.36,91.36,0,0,0,100,285.2C100.61,286.8,101.75,288.25,101.46,290.31Z"/><path class="cls-6" d="M41.16,222.06c-7.34,0-14.68-.15-22,.06-4.15.11-6-1.25-6.08-5.67-.2-12.31-.34-12.31,12.1-12.32s24.82.14,37.22-.09c4.86-.09,7,1.34,6.86,6.54-.26,12.07.86,11.56-11.31,11.47-5.59-.05-11.18,0-16.77,0Z"/><path class="cls-3" d="M38.38,234.32c.35,0,.7,0,1,0,3.1.25,7.29-1.4,9.07.77,2.74,3.34-2.89,4.66-3.53,7.56-.3,1.34-1.37,2.71-1.17,3.92.86,5.33-2.32,5.35-6,5.1a48.21,48.21,0,0,0-7.31,0c-4.67.39-7.32-1.33-7.53-6.28-.26-6.06,2.54-10.64,7.12-11,2.77-.22,5.57,0,8.36,0Z"/><path class="cls-3" d="M37.7,273.54c-2.1,0-4.2,0-6.3,0-4.44,0-6.27-2.46-6.33-6.62s2.11-6.06,6.17-6q6.57,0,13.14,0c4.18,0,5.95,2.15,6,6.24s-1.55,6.38-5.8,6.4C42.26,273.55,40,273.54,37.7,273.54Z"/><path class="cls-3" d="M42.19,284.91c1.74,0,3.49-.13,5.22,0s4.22-1.07,4.62,1.88c.37,2.72-.33,5.21-3,6.71-3.09,1.75-12.37,1.08-15.1-1.12-1.89-1.53-3.09-3.52-2.41-5.94.74-2.65,3.17-1.39,4.9-1.55,1.9-.18,3.83,0,5.74,0Z"/><path class="cls-7" d="M388.78,126.36l.32-.5c0,.09,0,.21,0,.26a1.9,1.9,0,0,1-.34.2Z"/><path class="cls-2" d="M229.23,159.88c5.41,5.89,5.81,12.57.77,18.29-3.23,3.66-6.66,7.24-11.35,9.15-2.19.9-4.93,1-4.77,4.5a7.83,7.83,0,0,0,4.58,7.09c6.3,3.28,14.76,2.07,20.49-3.22a83.68,83.68,0,0,0,5.93-6.65c1.87-2.14,4.05-3.62,6.86-2,3.06,1.75,2.75,4.62,1.74,7.4-5.15,14.18-29.17,21.48-41.22,12.27-3-2.31-4.51-2.15-7.29.16-5,4.14-11.05,4.84-17.38,3.73-9.87-1.73-17.37-7-23-15.15-2-2.88-2.3-5.93.75-8.18,3.3-2.44,5.62,0,7.45,2.43,4.14,5.48,8.87,9.92,16.06,10.8A18.07,18.07,0,0,0,200,198.3c2.71-1.48,3.78-4,3.73-7s-2.64-2.82-4.43-3.61a29,29,0,0,1-14.13-12.82c-2.92-5.33-1.54-10.47,2.59-14.86,2.86,9.2,10.39,13.56,18.28,17.47a6.56,6.56,0,0,0,3.59.3C216.34,176.87,227.52,166.61,229.23,159.88Z"/><path class="cls-8" d="M156.05,177.83c-15.38.07-27.35-12.15-27.36-27.91,0-15.15,11.53-27.23,26.12-27.33,14.95-.11,26.69,12.24,26.6,28C181.33,166.05,170.42,177.77,156.05,177.83Zm-12.64-27a46.42,46.42,0,0,0,.55,5c1.58,7.56,7.85,13.48,14.47,13.79,6.94.32,13.31-4.6,15.68-12.25a22,22,0,0,0,.44-12.37c-2.2-8.39-8.31-13.79-15.66-13.53s-13.87,6.81-15.11,15C143.57,147.82,143.54,149.22,143.41,150.81Z"/><path class="cls-8" d="M262.33,177.81c-14.66,0-25.73-11.74-25.79-27.36-.07-15.78,11.93-28.08,27.23-27.91,14.27.15,25.75,12.25,25.7,27.07C289.42,165.26,277.33,177.83,262.33,177.81Zm-19.61-27.26a22.3,22.3,0,0,0,3.1,10.95c6.73,11.11,20.3,10.85,26.55-.53a21.3,21.3,0,0,0,1.51-17.73c-2.32-6.91-8.15-11.62-14.49-11.79-6.71-.18-12.7,4.23-15.27,11.41A20.32,20.32,0,0,0,242.72,150.55Z"/><path class="cls-5" d="M229.23,159.88c-1.71,6.73-12.89,17-19.59,17.87a6.56,6.56,0,0,1-3.59-.3c-7.89-3.91-15.42-8.27-18.28-17.47C196.89,145.81,221.92,147.63,229.23,159.88Z"/><path class="cls-2" d="M268.86,100c8.14-.13,10.67,1.59,10.89,6.11.23,4.8-2.07,6.83-8.41,7.7a63.72,63.72,0,0,0-25.87,9.43c-2.85,1.8-5.88,2.31-8.86.33-2.75-1.82-2.79-4.65-2.42-7.52.27-2.08,1.65-3.43,3.28-4.52A69.91,69.91,0,0,1,268.86,100Z"/><path class="cls-2" d="M150.19,100A68.62,68.62,0,0,1,181,111.92a7.32,7.32,0,0,1,1.82,10.21c-2.6,3.37-6.09,3.45-9.34,1.38a66.53,66.53,0,0,0-28.36-10c-4.16-.48-6.61-3.13-6.4-7.53S141.64,99.93,150.19,100Z"/><path class="cls-1" d="M143.41,150.81c.13-1.59.16-3,.37-4.37,1.24-8.17,7.87-14.72,15.11-15s13.46,5.14,15.66,13.53a22,22,0,0,1-.44,12.37c-2.37,7.65-8.74,12.57-15.68,12.25-6.62-.31-12.89-6.23-14.47-13.79A46.42,46.42,0,0,1,143.41,150.81Z"/><path class="cls-1" d="M242.72,150.55a20.32,20.32,0,0,1,1.4-7.69c2.57-7.18,8.56-11.59,15.27-11.41,6.34.17,12.17,4.88,14.49,11.79A21.3,21.3,0,0,1,272.37,161c-6.25,11.38-19.82,11.64-26.55.53A22.3,22.3,0,0,1,242.72,150.55Z"/><path class="cls-4" d="M247.71,300.83c6.53-11.3,7.07-24.77,2.7-37.91-2.25,1.28-4.55,2.48-6.91,3.56s-5.33,3-7.39,1c-5-4.84-8.13-1.3-11.74,1.63-1.76,1.42-3.72,2.6-5.62,3.86-6.33,4.19-12.75,4.51-19.15.22-4.07-2.72-8.08-5.54-12-8.41-1.49-1.07-2.72-2.27-4.37-.23-3.23,4-6.9,3-10.82,1a111.33,111.33,0,0,1-23.93-16c-1.12-1-2.16-3.46-4.2-1.41-5.52,5.57-11.17,3.29-16.85.47-1.57-.78-3.09-1.63-4.58-2.54-3.5,23.08,11.5,50,38.66,65.74C194.57,330.89,233.19,326,247.71,300.83Z"/><path class="cls-1" d="M333.3,132.56c0,14.9,6.71,40,1.09,52.91-3.84,8.81-17.43,20.81-23.36,28.29-21.8,27.48-65.2,35.74-101.35,35.74-27.13,0-68.91-9.68-86-17.59-12-5.57,1.62-20.26-5.16-31.57-9.56-16-53.8-3.48-41.13-43.08C83.77,137.3,81.54,54,92.19,37.42,102.29,21.69,138.27,55,155.05,46a115,115,0,0,1,54.63-13.65c19.29,0,33.37-3.19,49.24,5.08,20.21,10.53,66-17.16,76.37,2.66C343,54.79,333.3,115,333.3,132.56Z"/><path class="cls-3" d="M346.58,155.2l-17.44-29c0-.23-.07-.46-.1-.7-.07-.46-.14-.91-.2-1.37-.09-.63-.18-1.25-.26-1.88-.07-.44-.13-.87-.19-1.31l-.39-2.8-.21-1.58c-.08-.57-.17-1.15-.25-1.73s-.14-1-.22-1.54-.15-1.09-.23-1.63-.15-1-.23-1.53l-.24-1.6c-.08-.52-.17-1-.26-1.58s-.16-1-.25-1.54-.18-1.06-.27-1.59l-.27-1.52c-.1-.54-.21-1.08-.31-1.61s-.19-1-.29-1.5-.23-1.09-.35-1.64-.2-1-.31-1.45-.26-1.11-.39-1.66-.22-1-.34-1.42-.3-1.13-.45-1.69-.24-.92-.37-1.38-.33-1.13-.5-1.69-.26-.91-.4-1.36-.39-1.18-.59-1.77c-.14-.42-.27-.84-.42-1.27-.23-.66-.48-1.32-.73-2-.13-.34-.25-.69-.39-1-.39-1-.8-2-1.24-3a3.26,3.26,0,0,1-.27-1.16V76.6a5.38,5.38,0,0,1,.58-2.38c.08-.2.18-.39.27-.59s.19-.39.29-.58a60.38,60.38,0,0,0,4.71-13.26,52.76,52.76,0,0,0,1.08-6.85c.1-1.15.17-2.31.19-3.48s0-2.33,0-3.51c0-1,0-2,0-3s0-2,0-3-.13-1.74-.23-2.55a24.41,24.41,0,0,0-1.14-5.23,13.7,13.7,0,0,0-.7-1.64,9.38,9.38,0,0,0-.84-1.38,7.42,7.42,0,0,0-5.67-3.1,14.08,14.08,0,0,0-3.59.21l-1,.21c-.68.16-1.4.35-2.14.59a47.15,47.15,0,0,0-6.17,2.49c-2.38,1.13-4.67,2.35-6.9,3.64-3,1.72-5.81,3.57-8.57,5.52s-5.42,4-8,6.09c-3.26,2.63-6.43,5.36-9.56,8.13a16.54,16.54,0,0,1-4.05,2.72,11.71,11.71,0,0,1-3.44,1l-.35,0a14.61,14.61,0,0,1-3.22-.06c-1.28-.17-2.56-.31-3.84-.47a152.68,152.68,0,0,0-94.36-.51c-1.3.14-2.59.27-3.88.42a31.12,31.12,0,0,1-6,.16A19.77,19.77,0,0,1,142,53.05a30.3,30.3,0,0,1-4.2-3.33q-3.66-3.42-7.59-6.58a115.21,115.21,0,0,0-12.43-8.72q-4.38-2.64-9.07-4.9-2.35-1.12-4.79-2.15A20.82,20.82,0,0,0,99.37,26a13,13,0,0,0-2.67-.17h0a11.69,11.69,0,0,0-1.22.13,8.4,8.4,0,0,0-2.21.7c-2.72,1.29-4.52,4.07-5.16,8.21a74.41,74.41,0,0,0-.87,9.47c0,.78,0,1.56,0,2.35,0,1.56.08,3.12.21,4.67A60.68,60.68,0,0,0,92.79,72a9.84,9.84,0,0,1,1.29,4.89,5.77,5.77,0,0,1-.45,1.77c-5.87,13.75-8.82,28-10.38,42.62a102.69,102.69,0,0,1-1.67,11.17,42.62,42.62,0,0,1-3.34,9.73l-7.82,13a4.16,4.16,0,0,0-.59,2.38,3.72,3.72,0,0,0,0,.74c1.62,10.07,7.84,18.84,16.74,24.66a32.92,32.92,0,0,0,.53,26.58c1.2,2.59,4.74,3.65,7.51,2.26L108,205.11c-1.46,12.1,3.92,24.41,15,32.51a5.72,5.72,0,0,0,7.83-1.09l7-9.76c3.48,13,14.88,23.77,30.08,27.47,3.07.74,6.2-1.06,6.62-3.83l.6-4c6.72,9.76,18.37,16.59,31.86,17.9a21,21,0,0,1,3.17,0c13.49-1.31,25.15-8.14,31.86-17.9l.61,4c.42,2.77,3.54,4.57,6.62,3.83,15.2-3.7,26.59-14.42,30.08-27.47l7,9.76a5.73,5.73,0,0,0,7.84,1.09c11.07-8.1,16.45-20.41,15-32.51l13.31,6.71c2.77,1.39,6.31.33,7.5-2.26a32.88,32.88,0,0,0,.54-26.58c8.9-5.82,15.12-14.59,16.74-24.66a3.72,3.72,0,0,0,0-.74A4.16,4.16,0,0,0,346.58,155.2Z"/><path class="cls-2" d="M350.89,152.68,337.26,130l-3-5c-.23-.39-.45-.78-.7-1.16-.36-.57.28,1.22.35.53a18.35,18.35,0,0,0-.52-3.65c-1.47-10.46-2.82-20.93-5.54-31.16-.63-2.36-1.36-4.7-2.16-7-.38-1.1-.79-2.19-1.21-3.27-.31-.79-.64-1.57-1-2.35l-.25-.59c-.24-.55-.29-.67-.14-.35a3.43,3.43,0,0,0,.12.65c0,.16-.27,1,0-.11.06-.23.43-.95,0,0l.54-1.12c.76-1.58,1.46-3.2,2.13-4.82a60.78,60.78,0,0,0,2.62-7.89,68.44,68.44,0,0,0,1.76-17.17c0-5.68-.06-11.33-2.39-16.62a12.93,12.93,0,0,0-5.63-6.25,15.48,15.48,0,0,0-9.53-1.25c-5.44.76-10.64,3.37-15.44,5.94-10,5.37-19,12.48-27.55,19.91-1,.86-2,1.73-2.95,2.58-.77.66-.34.27-.17.14-.26.19-.53.37-.8.55s-.54.33-.82.48c0,0-1.24.58-.66.35s-.3.09-.44.13-.57.17-.86.24-.6.12-.91.17c-.65.1.26-.07.32-.06-1.39-.11-2.76-.11-4.16-.27l-1.1-.13c-.16,0-1.13-.31-.66-.12s-.4-.21-.52-.25l-.92-.29c-1.3-.42-2.61-.82-3.92-1.21q-3.76-1.08-7.58-2a159.19,159.19,0,0,0-66.8-1,146.17,146.17,0,0,0-15.28,3.9,6.51,6.51,0,0,0-.92.29l.38,0-.48.06c-.64.11-1.3.13-1.94.2-1.38.15-2.74.3-4.12.34a25.59,25.59,0,0,1-3.82-.16c1,.13-.68-.16-.91-.21-.58-.13-1.14-.29-1.7-.47-.26-.09-1.75-.74-.81-.28-.52-.26-1-.51-1.55-.79s-1-.61-1.51-.94l-.77-.54c-.24-.17-.54-.43-.14-.1C141,46,139,44,136.82,42.14a129.15,129.15,0,0,0-13.7-10.28A106.13,106.13,0,0,0,108.63,24c-5.31-2.37-11.18-4.48-16.89-2.08-5,2.13-7.77,6.93-8.55,12.17a75.27,75.27,0,0,0-.78,17.29A65.85,65.85,0,0,0,85.82,68c.47,1.35,1,2.68,1.55,4,.33.76.65,1.53,1,2.28.14.31.28.6.41.91.33.75-.28-1,.11.34l.24.88c-.05-.21,0-1,0,0,0,.45-.26.63,0,0,0,0-.19.74-.06.32.21-.74-.4,1-.54,1.3s-.27.64-.4,1c-.3.72-.58,1.45-.86,2.17a144,144,0,0,0-7.94,31.68q-.63,4.47-1.12,9L78,124c0,.35-.09.71-.13,1.07,0,.08-.13,1,0,.27-.2,1.42-.43,2.84-.7,4.24a48.77,48.77,0,0,1-2.21,8l-.38,1c.27-.63-.09.16-.12.24-.16.32-.29.66-.47,1s-.22.37-.33.55c-2.41,4-4.86,8-7.24,12.07s-1.41,8.29-.06,12.4A42.19,42.19,0,0,0,73.59,178a45.19,45.19,0,0,0,10.5,9.34l-2.3-5.65a37.16,37.16,0,0,0-2.64,16.45,38.52,38.52,0,0,0,1.7,9c.87,2.69,1.87,5.7,4.05,7.62,3.73,3.28,8.62,3.23,12.88,1.09l6.78-3.42,5.92-3L103,205.11c-1.27,11.09,2.87,22.14,10.22,30.39,4,4.46,9.37,9.52,15.83,7.86a10.9,10.9,0,0,0,6.21-4.47c.63-.87,1.25-1.76,1.88-2.64l5-6.95-9.14-1.2a41.69,41.69,0,0,0,14.15,21.35,51.24,51.24,0,0,0,12.6,7.38c4.71,1.94,10.39,4,15.13,1a9.49,9.49,0,0,0,4.5-6.39c.21-1.24.38-2.48.57-3.72l-9.14,1.19A48,48,0,0,0,198,267.79a43.12,43.12,0,0,0,9.15,1.54,39.31,39.31,0,0,0,9.89-1.08,49.82,49.82,0,0,0,15.6-6.34,46.68,46.68,0,0,0,13.59-13l-9.14-1.19c.49,3.18.71,6.25,3.2,8.67a10.59,10.59,0,0,0,8.05,2.95,28.44,28.44,0,0,0,7.4-1.93A47.88,47.88,0,0,0,277.9,241a39.45,39.45,0,0,0,6.17-12.89l-9.14,1.2,4.2,5.88c1.83,2.57,3.59,5.77,6.47,7.26a11.17,11.17,0,0,0,10,.07,19.48,19.48,0,0,0,3.78-2.74,41.69,41.69,0,0,0,3.11-2.84,42.81,42.81,0,0,0,9.22-14.24A36.75,36.75,0,0,0,314,205.11l-7.52,4.32,12.11,6.1a25.18,25.18,0,0,0,2.74,1.27,10.86,10.86,0,0,0,8.68-.63c3-1.54,4.26-4.18,5.42-7.16a35,35,0,0,0,2.08-8.32,37.52,37.52,0,0,0-2.34-19l-2.3,5.65a45.5,45.5,0,0,0,14-14.28,40,40,0,0,0,4-8.91c1.17-3.8,1.95-7.76,0-11.43a5,5,0,0,0-6.84-1.79,5.11,5.11,0,0,0-1.79,6.84c-.43-.8.05.33-.05-.29s0,.44,0,.5c0-.39.13-.75,0-.13-.07.34-.13.69-.21,1a32.42,32.42,0,0,1-1,3.59c-.11.33-.23.65-.35,1-.05.12-.47,1.19-.21.55s-.11.25-.16.35c-.14.32-.29.63-.44.94a35,35,0,0,1-1.93,3.43c-.33.53-.68,1-1.05,1.55l-.49.68c.58-.83,0,0-.12.14a37.82,37.82,0,0,1-2.67,3c-.91.91-1.86,1.77-2.84,2.59,0,0-1,.81-.5.42s-.55.4-.53.39c-.59.42-1.19.83-1.79,1.23-1.68,1.11-3.15,3.56-2.3,5.65a34.48,34.48,0,0,1,2,7l.12.71c.15.8-.05-.72,0,.1,0,.56.11,1.12.15,1.68a33.44,33.44,0,0,1,0,3.61c0,.57-.08,1.13-.13,1.69-.1,1,0,.34,0,.12,0,.32-.1.65-.16,1a32.46,32.46,0,0,1-.86,3.6c-.26.88-.85,2.52-1,2.95.18-.43-.38.93-.51,1s.93-.86.1-.22c.26-.2.63-.55.18-.14-.71.65.24,0,.23,0a2.33,2.33,0,0,1-.69.2c-.28.09-.55-.06-.05,0,.7.11-.06,0-.25-.06-.57-.07.38.09.41.07-.15.1-.61-.28-.73-.2,0,0,.61.34.43.18a8.49,8.49,0,0,0-1.62-.82l-6.69-3.36-4.94-2.5a5.16,5.16,0,0,0-5.05,0,4.91,4.91,0,0,0-2.48,4.32,33.59,33.59,0,0,1,.12,6.65c0,.26-.05.53-.08.8s-.15,1,0,.33,0,.16-.07.33-.09.53-.14.79a33.75,33.75,0,0,1-.83,3.33c-.32,1-.69,2.06-1.1,3.07.42-1-.2.4-.33.67-.27.56-.56,1.11-.86,1.65a31.89,31.89,0,0,1-1.74,2.85c-.28.41-.56.81-.85,1.21-.56.76-.12.15,0,0-.27.33-.53.67-.81,1a38.77,38.77,0,0,1-5.19,5.06c-.1.08-.84.66-.38.31s-.19.13-.22.16a4.85,4.85,0,0,0-.64.4c.53-.48.65-.18.17-.08a2.71,2.71,0,0,1-.72.16l.6-.1h-.73l.61.07a3.41,3.41,0,0,1-.53-.13q-.53-.17.36.18a3.8,3.8,0,0,1-.62-.35c0-.15.69,1.05.18.1s.47.71.28.4-.33-.46-.49-.69l-2.23-3.12-4.21-5.89a5.1,5.1,0,0,0-5-2.39,5,5,0,0,0-4.16,3.58c-.22.84-.47,1.67-.76,2.49l-.39,1c-.09.23-.18.46-.28.69.14-.33.32-.72.06-.17a39.94,39.94,0,0,1-2.5,4.59c-.48.74-1,1.44-1.51,2.16.49-.7.13-.17-.16.19s-.65.78-1,1.16a40.51,40.51,0,0,1-3.85,3.79q-.53.45-1.05.87l-.46.37c.13-.11.81-.6.07-.07s-1.51,1.08-2.3,1.58a44.23,44.23,0,0,1-5,2.73l-.75.34c-.07,0-.71.32-.16.08l-.16.07-.78.3c-.92.35-1.84.67-2.78,1s-1.91.55-2.88.79c-.2.05-.7,0-.14,0s-.06,0-.12,0c-1.08-.21.16.13.18,0s-.67-.2-.73-.22c.26.09.81.5.2,0l.43.36-.27-.24c-.1,0-.8-1.07.11.19-.47-.65,0,.22,0,.24-.15-.05-.25-1.22-.28-1.43l-.49-3.26c-.3-1.92-2.42-3.35-4.16-3.58a5.1,5.1,0,0,0-5,2.38l-.45.64s-.78,1.06-.31.44-.12.14-.22.27l-.5.6c-.81,1-1.67,1.88-2.56,2.75s-1.56,1.46-2.38,2.14c-.23.19-1.44,1.11-.57.47-.54.4-1.09.8-1.65,1.18a44.68,44.68,0,0,1-6.47,3.64l-.77.34c.17-.08.92-.37,0,0-.53.21-1.05.41-1.58.6-1.21.44-2.44.82-3.68,1.15s-2.39.59-3.6.82c-.65.12-1.3.22-2,.32.2,0,1-.11,0,0a11.33,11.33,0,0,1-1.43.12,34.8,34.8,0,0,1-3.95-.17c1,.11.21,0,0,0-.36-.07-.72-.12-1.09-.18-.64-.12-1.29-.24-1.93-.38a50.07,50.07,0,0,1-7.36-2.27c-.19-.07-.87-.39,0,0l-.77-.34q-.76-.34-1.5-.72c-1.11-.56-2.2-1.16-3.25-1.81s-2.26-1.5-3.37-2.29c.81.58.22.18,0,0l-.93-.77c-.51-.43-1-.87-1.49-1.33a35.21,35.21,0,0,1-2.75-2.85c-.39-.45-.76-.91-1.14-1.36-.5-.61.68,1,0-.08l-.68-1a5.06,5.06,0,0,0-5-2.38c-1.77.23-3.86,1.66-4.16,3.58l-.42,2.79c-.06.39-.11.79-.18,1.18,0,.09-.08.69-.17.72s.65-1.1,0-.24c.5-.7.15-.16.11-.19s-1.08.87.16-.12c-.07.06-.62.46-.06.08s-.13.06-.1,0l-.18,0c-.37.09-.24.09.38,0,0,.16-1.49-.11-.25.12-.56-.11-1.1-.26-1.65-.41a45.68,45.68,0,0,1-5.57-1.9c.92.38-.19-.1-.51-.24l-1.29-.63c-.84-.42-1.67-.88-2.49-1.36s-1.59-1-2.36-1.49c-.33-.23-.66-.45-1-.69l-.63-.46c.33.23.5.4.07.06a43.39,43.39,0,0,1-4-3.66c-.62-.65-1.21-1.31-1.78-2-.25-.29-.48-.59-.72-.89.76.95-.17-.25-.35-.5a35.57,35.57,0,0,1-3-5.16c-.14-.29-.73-1.69-.25-.51-.17-.4-.33-.8-.48-1.21-.36-1-.68-2-1-3a5,5,0,0,0-4.15-3.58,5.11,5.11,0,0,0-5,2.39l-3.57,5-2.4,3.37c-.25.34-.5.69-.74,1-.68,1,.81-.82.06-.1-.5.48.13.14.18-.1,0,.07-.64.35-.62.35s1.17-.09.18-.13c-.61,0-.17.48.26,0a6.11,6.11,0,0,1-.73,0c0-.06,1.27.35.24,0l-.71-.21c.6.2.55.24,0-.1-.13-.08-.82-.6-.38-.26s-.17-.14-.21-.17c-.46-.37-.92-.76-1.37-1.15a38.91,38.91,0,0,1-2.84-2.76c-.39-.42-.78-.85-1.15-1.29-.2-.23-1.16-1.46-.55-.65-.67-.9-1.32-1.82-1.91-2.78s-1.12-1.91-1.62-2.9c-.24-.49-.46-1-.69-1.48.43.91.11.27,0,.06-.14-.38-.29-.76-.43-1.15a32.53,32.53,0,0,1-1-3.49c-.14-.59-.27-1.18-.38-1.77,0-.27-.08-.53-.13-.8-.13-.62.09.92,0-.06a34.94,34.94,0,0,1,0-7.65,4.91,4.91,0,0,0-2.48-4.32,5.16,5.16,0,0,0-5,0l-10.9,5.49c-.7.36-1.43.7-2.13,1.08l-.28.14c1.33-.69-.8.11.06-.05s-.08.05-.26,0c-.63-.25,1.2.38.06,0a3.28,3.28,0,0,0-.51-.15c-.67,0,.84.28.21.07a1.27,1.27,0,0,1-.44-.28c.15.37.61.55.22.1.64.75.14.12-.1-.39s0-.08,0,0c-.17-.39-.32-.79-.46-1.18-.4-1.1-.74-2.21-1-3.34-.14-.56-.26-1.12-.37-1.68-.07-.32-.12-.64-.18-1-.17-.92,0,.19,0-.37-.1-1.29-.21-2.56-.2-3.86q0-1.08.09-2.16,0-.36.06-.72c0-.35.13-1.08,0-.34a34.4,34.4,0,0,1,2.19-7.91c.85-2.11-.59-4.52-2.3-5.65-.48-.32-1-.64-1.44-1l-.7-.51s-.62-.48-.18-.13-.23-.19-.33-.28l-.66-.55c-.49-.42-1-.85-1.43-1.29-.77-.72-1.52-1.48-2.23-2.27-.33-.36-.65-.73-1-1.11-.18-.21-.35-.43-.53-.65-.59-.73.22.33-.11-.15a47.27,47.27,0,0,1-3.34-5.49c-.25-.5-.48-1-.7-1.5.44,1-.15-.45-.25-.73a32.23,32.23,0,0,1-1-3.17c-.13-.54-.26-1.08-.36-1.63,0-.2-.07-.41-.12-.61-.17-.72,0,.82,0,.15,0-.18.08-1,0-.32s.1-.1.09-.13c.09.3-.24.56-.1.35.39-.56.71-1.17,1-1.75L80,149c.86-1.43,1.79-2.84,2.59-4.31,2.65-4.86,4-10.53,4.75-16,.45-3,.76-6,1.11-9,.07-.68.16-1.36.24-2,0-.34.08-.68.13-1,0-.12.13-1,0-.18.18-1.35.38-2.7.6-4A155.36,155.36,0,0,1,92.7,96.78a128.06,128.06,0,0,1,5.15-15.35l.15-.36c-.29.68.41-.95.54-1.31a11.1,11.1,0,0,0-.1-7.11c-.49-1.41-1.16-2.77-1.77-4.14,0-.07-.36-.88-.11-.25-.13-.32-.26-.65-.38-1-.25-.64-.49-1.29-.72-1.94a61.26,61.26,0,0,1-2.17-7.85c-.12-.57-.23-1.15-.33-1.73-.06-.33-.11-.66-.17-1,0-.12-.17-1.14-.09-.57s0-.31,0-.33c0-.34-.08-.67-.11-1-.08-.76-.15-1.51-.2-2.27a65.84,65.84,0,0,1-.07-7.82c.07-1.41.18-2.81.33-4.21q0-.53.12-1s.11-.86,0-.39.09-.56.1-.66c.06-.39.12-.78.2-1.16a16.24,16.24,0,0,1,.44-1.66c.06-.19.14-.38.2-.57.21-.69-.4.71,0,.12.22-.36.42-.75.64-1.12.51-.88-.15.18-.15.17s.61-.65.7-.74c.55-.59-.82.43.18-.13.32-.17,1.09-.45.38-.24l.9-.25c1-.28.2,0,0,0,.5,0,1-.05,1.5,0l.67,0c-.87,0-.19,0,0,0,.59.14,1.19.27,1.77.44s1.26.41,1.88.65l.37.15.85.37q3.81,1.69,7.47,3.67a111.42,111.42,0,0,1,13.3,8.5c.54.4,1.08.8,1.61,1.21-.6-.46.86.69,1,.78,1.1.88,2.19,1.78,3.26,2.7,2,1.75,4,3.66,6,5.37a27.42,27.42,0,0,0,15.12,6.47,38.43,38.43,0,0,0,8-.28,26,26,0,0,0,4.22-.58c1.32-.38,2.63-.83,3.95-1.21a146.47,146.47,0,0,1,15.21-3.54c1.25-.22,2.5-.42,3.75-.61l1.76-.26c-.79.11.06,0,.19,0l1.27-.16c2.64-.32,5.3-.57,8-.75a157.53,157.53,0,0,1,16.55-.24c2.75.11,5.51.29,8.26.54,1.27.12,2.55.25,3.82.4l1.76.22c.86.1-.67-.1.18,0l1.25.18A147.94,147.94,0,0,1,244.53,58q3.65.95,7.24,2.08a25,25,0,0,0,4.62,1.14c1.41.17,2.84.4,4.26.49A17.46,17.46,0,0,0,269,60.09a29.05,29.05,0,0,0,6.83-5c2.1-1.83,4.22-3.65,6.37-5.42,1-.84,2-1.67,3.07-2.48l.87-.69,1.91-1.44a114.72,114.72,0,0,1,13.62-8.81c1.14-.62,2.29-1.22,3.46-1.8l1.9-.91.7-.32c1.49-.68-.83.32.62-.27,1-.41,2.09-.8,3.16-1.13.5-.15,1-.3,1.51-.42.3-.08.61-.15.92-.21.12,0,1.41-.2.79-.14s.34,0,.48,0l.65,0c.28,0,.56,0,.84,0-.85,0-.14,0,.06,0s.57.15.86.26c-.22-.08-.8-.42,0,0,.06,0,.64.44.2.1s.37.42.46.49c-.48-.39-.15-.25,0,0s.29.45.42.69.26.5.39.75c-.1-.19-.31-.88,0,.06a23.5,23.5,0,0,1,.85,3.3c.06.32.11.63.16.94,0-.1-.07-.68,0-.1s.13,1.36.18,2c.08,1.33.08,2.67.06,4,0,2.58.09,5.16-.07,7.75,0,.67-.1,1.34-.16,2L320,54.53c0-.22.12-.78,0,.26-.22,1.4-.48,2.79-.8,4.17a58.92,58.92,0,0,1-2.47,7.91l-.3.73c-.32.81.24-.54-.11.27-.24.57-.5,1.13-.76,1.69a37.37,37.37,0,0,0-1.8,4,8.83,8.83,0,0,0-.26,4.78,16.67,16.67,0,0,0,.95,2.46c-.05-.11-.2-.47,0,.06s.34.83.5,1.25c3.62,9.43,5.63,19.31,7.13,29.28.76,5,1.41,10.1,2.14,15.14a10.26,10.26,0,0,0,1.73,3.94L341,155.6l1.28,2.13a5,5,0,1,0,8.63-5Z"/><path class="cls-5" d="M185.09,144.73c3,9.69,10.95,14.29,19.26,18.41a7,7,0,0,0,3.78.32c7.07-.93,18.84-11.74,20.64-18.84a20.62,20.62,0,0,0-10.14-8.14A31.86,31.86,0,0,0,206,134.24l-.32,0a31.82,31.82,0,0,0-3.77.35C195.16,135.65,188.85,138.9,185.09,144.73Z"/><path class="cls-9" d="M196.52,140.36c1.44,4.62,5.22,6.81,9.18,8.78a3.3,3.3,0,0,0,1.8.15c3.37-.44,9-5.6,9.85-9a9.84,9.84,0,0,0-4.84-3.89,15.31,15.31,0,0,0-6-1.06h-.16a15.26,15.26,0,0,0-1.79.16A11.36,11.36,0,0,0,196.52,140.36Z"/><path class="cls-4" d="M267.59,73.18c-9.06,6.73-21.19-1.19-30.23,1.9a13.1,13.1,0,0,1-8.78-.15,68.47,68.47,0,0,0-48,.13,11.61,11.61,0,0,1-8.11.14c-9.07-3.4-21.4,4.79-30.56-2C108.13,48,99.67,86.79,99.67,114.92c0,20.68,13.38,48.17,31.86,59a24.91,24.91,0,0,1,11.9,15.9c7.4,32.28,27.13,47.48,61.34,47.54s53.94-15.26,61.34-47.54a24.91,24.91,0,0,1,11.9-15.9c18.48-10.79,31.86-38.28,31.86-59C309.87,86.79,301.41,48,267.59,73.18Z"/><path class="cls-2" d="M137.81,104.2c5.81-6,14.43-7.92,22.53-6,6.07,1.4,11.16-.5,11.44-6.43A7.74,7.74,0,0,0,164,84a72.32,72.32,0,0,0-33.75,8.39c-7.41,5.11-8.75,8.24-6.3,12.11C127.25,109.69,132.7,109.42,137.81,104.2Z"/><path class="cls-2" d="M276.48,104.27c-5.63-6.12-14.18-8.35-22.34-6.72C248,98.77,243,96.71,242.9,90.78a7.73,7.73,0,0,1,8-7.46,72.16,72.16,0,0,1,33.48,9.4c7.25,5.33,8.5,8.5,5.93,12.29C286.86,110.08,281.43,109.65,276.48,104.27Z"/><path class="cls-2" d="M252.49,173.23c-3-1.7-5.27-.13-7.24,2.12a88.66,88.66,0,0,1-6.24,7c-6,5.56-14.94,6.84-21.59,3.38a8.25,8.25,0,0,1-4.82-7.46c-.17-3.69,2.72-3.8,5-4.74,4.93-2,8.55-5.79,12-9.65,5.31-6,4.89-13.06-.81-19.27-1.8,7.1-13.57,17.91-20.64,18.84a7,7,0,0,1-3.78-.32c-8.31-4.12-16.24-8.72-19.26-18.41-3.26,3.47-4.89,7.38-4.2,11.49a12.11,12.11,0,0,0,.53,2.07,14.26,14.26,0,0,0,1,2.09,30.59,30.59,0,0,0,14.88,13.52c1.89.82,4.61.62,4.67,3.8s-1.08,5.84-3.93,7.4a19,19,0,0,1-11.72,2.31c-7.58-.93-12.57-5.61-16.92-11.38-1.93-2.55-4.37-5.13-7.85-2.56-3.21,2.37-2.88,5.59-.79,8.62,5.89,8.59,13.8,14.13,24.19,16,6.67,1.17,13,.43,18.31-3.93,2.93-2.43,4.49-2.6,7.68-.16,12.7,9.7,38,2,43.43-12.93C255.39,178.09,255.71,175.07,252.49,173.23Z"/><path class="cls-8" d="M150.37,105.37c-15.37.1-27.53,12.83-27.52,28.8,0,16.59,12.63,29.47,28.83,29.4,15.14-.07,26.63-12.41,26.72-28.73C178.49,118.27,166.12,105.26,150.37,105.37Z"/><path class="cls-8" d="M265.16,105.31c-16.12-.17-28.76,12.79-28.69,29.41.07,16.45,11.72,28.81,27.18,28.83,15.79,0,28.53-13.22,28.58-29.71C292.28,118.22,280.19,105.48,265.16,105.31Z"/><path class="cls-1" d="M172.34,128.87c-2-8.84-7.5-14.53-14.13-14.25s-12.53,7.17-13.65,15.78c-.19,1.45-.22,2.93-.34,4.61.15,1.62.18,3.48.5,5.27,1.43,8,7.09,14.21,13.07,14.53,6.27.33,12-4.84,14.16-12.91A26.82,26.82,0,0,0,172.34,128.87Z"/><path class="cls-1" d="M258.88,113.85c-6-.19-11.34,4.45-13.64,12A25.23,25.23,0,0,0,244,134a26.34,26.34,0,0,0,3.29,12.49c5.77,10,18.61,8.78,23.38-2a26.1,26.1,0,0,0,1.15-18.23C269.73,119,264.54,114,258.88,113.85Z"/><circle class="cls-10" cx="150.21" cy="122.58" r="8.54"/><circle class="cls-10" cx="251.45" cy="121.6" r="8.54"/><path class="cls-4" d="M134.49,168.29h41.57a25.74,25.74,0,0,0-49.76-8.88C129.85,161.33,132.43,164.88,134.49,168.29Z"/><path class="cls-4" d="M276.28,164c1.87-2.1,4.77-3.61,7-5.45,1.93-1.62,4.7-3.22,5.55-5.72a4,4,0,0,1,.44-.91,25.74,25.74,0,0,0-47.47,13.42h33.75A4.1,4.1,0,0,1,276.28,164Z"/><circle class="cls-2" cx="137.05" cy="237.32" r="0.92"/><circle class="cls-2" cx="280.34" cy="237.96" r="1.81"/></g></g></svg>