<svg xmlns="http://www.w3.org/2000/svg" viewBox="0 0 414.35 378"><defs><style>.cls-1{fill:#febe2a;}.cls-2{fill:#fbaf40;}.cls-3{fill:#ea7624;}.cls-4{fill:#fcba19;}.cls-5{fill:#e25026;}.cls-6{fill:#8d183b;}.cls-7{fill:#f68e46;}.cls-8{fill:#fefdf3;}.cls-9{fill:#02534e;}.cls-10{fill:#fff;}</style></defs><g id="Layer_2" data-name="Layer 2"><g id="Layer_1-2" data-name="Layer 1"><path class="cls-1" d="M40.14,173.2c-12.29.58-12.56.6-13.47-11.45-1.38-18.3-2.37-36.63-3.47-54.95C22.39,93.54,21.7,80.27,20.87,67a12.47,12.47,0,0,1,2.8-9.18c5-6.26,9.94-12.65,14.75-19.1,1.63-2.2,2.7-2.77,4.59-.21C48.09,45.41,53.37,52.17,58.59,59c1.61,2.09,1.8,4.48,1.64,7l-5.07,79c-.48,7.5-1.21,15-1.29,22.5,0,4.37-1,6.57-5.87,5.86A54.21,54.21,0,0,0,40.14,173.2Z"/><path class="cls-2" d="M40.94,36.84c-.83-.1-1.58.63-2.52,1.89-4.81,6.45-9.7,12.84-14.75,19.1A12.47,12.47,0,0,0,20.87,67c.83,13.26,1.52,26.53,2.33,39.79,1.1,18.32,2.09,36.65,3.47,55,.91,12.05,1.18,12,13.47,11.45h.8Z"/><path class="cls-1" d="M129.75,305.52A115.59,115.59,0,0,0,170.93,325c.51.12,1,.34,1.5.46,9.48,2.33,9.49,2.33,7.29,11.55-1.95,8.16-4,16.27-5.85,24.46-.7,3.13-2.2,4.28-5.41,4.23q-18.12-.26-36.23-.09c-3.26,0-4.63-.62-3.31-4.08a26.11,26.11,0,0,0,1.42-5.58c.28-1.84.87-4.08-1.59-4.94-2-.72-3.77.24-5.14,1.78-2.14,2.42-3,5.47-4.14,8.41-.63,1.62-.08,4.33-2.88,4.32-3.45,0-7,.9-10.33-.52-1.28-.55-.91-2.12-.76-3.34,1.18-9.29,9.28-17.52,18.91-18.34,4.43-.38,5.53-2,5.42-6.17C129.57,326.67,129.75,316.18,129.75,305.52Z"/><path class="cls-1" d="M313.55,313.35c.31-.76.43-1.07.57-1.38,3.13-7,7.94-8.25,15.81-7.86,34.78,1.74,63.12-31.31,57.69-65.78A91,91,0,0,0,379,212.06c-3.82-7.76-6.3-15.89-5.58-25,3.35,1,6.42,2.23,9.59,2.93,2.09.47,2.39,1.92,2.59,3.42,1,7.42,4.27,13.95,7.41,20.6,12.37,26.23,12.5,51.71-5.77,75.56-17,22.18-47.66,32.49-72,24.54C314.77,313.91,314.32,313.68,313.55,313.35Z"/><path class="cls-3" d="M387,105.92c-6.85,14.44-4.8,28.1,3.3,41.42,3.84,6.33,6.44,13.19,6.21,20.83-.29,9.8-6.73,14.48-16.25,11.79-7.83-2.22-12.9-7.7-16.4-14.56-12.08-23.7,2.2-48.59,19.7-58.73a4.13,4.13,0,0,1,3.48-.71Z"/><path class="cls-1" d="M99.73,269.92c-13.77,1.29-26.27-2.24-37.83-9.58-.88-.56-1.95-1.16-1.76-2.37.85-5.62-2.51-11.85,4.13-16.63,3.9-2.81,4.64-8.21,3.14-13.93a69.63,69.63,0,0,1-5.87,5.32c-2.23,1.61-4.79,2.12-7.38.59s-2.83-4.23-2.49-6.93c.61-4.86,5.94-10.49,10.81-11.83,1.85-.5,3,.2,4.23,1.29,3.36,3,5.67,6.71,6.05,11.27.25,2.94-.09,5.93,0,8.89.09,2.35-2.1,5.76,1.72,6.66,3.5.82,4.57-2.49,5.68-5a20.81,20.81,0,0,0,1.9-10.21c-.29-3.15.8-3.76,3.84-3.36,7.07.94,7,.76,6.91,7.84a91.63,91.63,0,0,0,5.45,32.91C98.88,266.4,100,267.86,99.73,269.92Z"/><path class="cls-4" d="M39.43,201.66c-7.34,0-14.68-.14-22,.06-4.15.11-6-1.25-6.08-5.66-.2-12.32-.34-12.32,12.1-12.32s24.82.14,37.22-.1c4.86-.09,7,1.35,6.86,6.55-.26,12.06.86,11.55-11.31,11.46-5.59,0-11.18,0-16.77,0Z"/><path class="cls-1" d="M36.65,213.93c.35,0,.7,0,1,0,3.1.25,7.29-1.39,9.07.78,2.74,3.33-2.89,4.66-3.53,7.56-.3,1.34-1.36,2.71-1.17,3.92.86,5.32-2.32,5.35-6.05,5.09a49.55,49.55,0,0,0-7.31,0c-4.67.39-7.32-1.33-7.53-6.28-.26-6.06,2.54-10.64,7.12-11,2.77-.22,5.57,0,8.36,0Z"/><path class="cls-1" d="M36,253.14H29.67c-4.43,0-6.27-2.47-6.33-6.62s2.11-6.07,6.17-6.05q6.57,0,13.14,0c4.18,0,6,2.15,6,6.24s-1.55,6.37-5.8,6.4C40.53,253.15,38.25,253.14,36,253.14Z"/><path class="cls-1" d="M40.46,264.51c1.74,0,3.49-.12,5.22,0s4.22-1.07,4.62,1.88c.37,2.71-.32,5.2-3,6.7-3.09,1.76-12.37,1.09-15.1-1.12-1.89-1.52-3.09-3.51-2.41-5.93.74-2.65,3.18-1.4,4.9-1.56,1.9-.17,3.83,0,5.74,0Z"/><path class="cls-5" d="M387.05,106l.32-.5c0,.09,0,.22,0,.26a1.45,1.45,0,0,1-.34.2Z"/><path class="cls-1" d="M107.14,214.72c5.91,5.31,11.72,9.78,18.34,13.07,5.68,2.82,11.33,5.1,16.85-.47,2-2,3.09.42,4.21,1.41a111.33,111.33,0,0,0,23.93,16c3.92,2,7.58,3,10.81-1,1.65-2,2.89-.85,4.37.23,4,2.87,8,5.69,12,8.41,6.41,4.28,12.82,4,19.15-.23,1.9-1.25,3.87-2.43,5.63-3.86,3.6-2.93,6.77-6.47,11.74-1.63,2.06,2,5,.1,7.38-1,9.31-4.26,17.56-10.17,25.33-16.74,2.17-1.83,3.53-2.58,6-.28,3.61,3.34,7.89,2,11.85.34a65.7,65.7,0,0,0,19.71-12.83c2.13-2,3.71-2.39,6.32-.92,9.05,5.1,16.89,11.47,21.41,21,5.47,11.51,4.66,22.75-2.87,33.24a51.82,51.82,0,0,1-23.3,18.14c-1.29.52-2.64.94-3.89,1.56-1.66.81-3,2.12-2.88,4.05s1.78,2.3,3.3,2.88c2.54,1,5.86,1.47,5.65,5.18s-3.43,5.18-6.45,6c-7.59,2.14-14.38.28-19.55-5.62-5.76-6.57-7.29-14.2-3.91-22.5,2.56-6.25,7.45-10.51,12.61-14.47,7.48-5.73,7.57-7.16.52-13.53a42.14,42.14,0,0,0-4.48-3.64c-1.18-.81-2.42-2.51-4.09-1a3.23,3.23,0,0,0-.24,4.75c4.12,4.63,2,7.56-2.24,10.46-3.18,2.17-5.65,5.21-8,8.26-9.83,12.63-9.63,25.16,1,37a13.55,13.55,0,0,1,3.85,8.78c.38,7,1.28,13.95,1.53,20.94.15,4.33,1.7,6.31,6.17,6.57,9.55.57,16.42,7.8,17.21,17.34.26,3.15-.82,4.65-4,4.66-18.74.1-37.49.17-56.23.35-3.82,0-4.55-2.53-5.23-5.35-2.76-11.39-5.5-22.78-8.3-34.15-2-8.08-2.58-8.72-11-8.73-15.28,0-30.49-.64-45.29-4.76-26-7.24-47.39-20.7-59.78-45.73C104.79,251.83,102.82,231.73,107.14,214.72Z"/><path class="cls-6" d="M404.31,208.58c-2.45-5-5-10-6.34-15.47-.5-2-.74-3.6,1.31-5,9.15-6.39,10.73-15.82,10.14-26-.47-8.11-4.11-15.08-8.07-21.92-6.34-11-7.18-22-.88-33.37,3.12-5.62,1.86-9.56-3.77-13.91A23.55,23.55,0,0,0,382.3,94c-8.09,3.1-14.43,8.55-20,14.92-17.37,19.8-22.3,49.94-2.62,71.68,1.91,2.12,2,4.34,1.83,6.8a52.7,52.7,0,0,0,5,26.53c1.89,3.94,3.68,8,5.2,12.05,6.44,17.34,5.94,33.89-5.7,49.21-8.61,11.34-27.73,19.74-41.29,16.18.92-.71,1.72-1.34,2.53-1.95,28-20.85,27.67-58.44-.62-78.93-3.09-2.24-8.2-3.74-9-6.54s3.27-6.81,3.86-10.49c1.39-8.65,2.86-14.36,12.3-15.44.45-.06-3.61-2.06-7.13-3.9-5.65,6.88-13.29,14.12-17.35,19.24-1.09,1.38-2.25,2.69-3.45,4-5.59,9-14.25,15.2-24.73,19.6a3.43,3.43,0,0,1-3.77-.26,136,136,0,0,1-22.91,7.42,122.41,122.41,0,0,1-14.7,9.12c-3.67,2-4.78-1.1-6.26-2.79a8.57,8.57,0,0,0-2.91-2.43l-2.4.22a8.89,8.89,0,0,0-2.28,2.09c-4.39,5.27-10.36,8.81-16.21,12.38a4.58,4.58,0,0,1-5.33-.06c-6.46-3.89-12.92-7.83-18.17-13.29-2.59-2.69-4.5-3-6.52.16-2.79,4.38-5.81,4.18-10,1.63a125.77,125.77,0,0,1-13.12-8.89c-7.65-1.75-14.88-3.7-21.13-5.69-2.33,1.51-4.27.45-9.54-2.58-1.32-.77-2.58-1.57-3.8-2.4l-.1-.05a9.12,9.12,0,0,1-3.46-2.58c-9.84-8-15.28-18.62-15.27-32.55,0-1.6-.07-3.2-.16-4.8-4.35-1.29-9.07-2.32-13.45-3.74a9.74,9.74,0,0,1-2.28-.79,33.41,33.41,0,0,1-5.13-2.35c-1.73,3.76-2.36,7.26.18,9.13,3.43,2.53,1.19,5.13,5.18,6.42,1.81.59,3.07,1.08,3.38,3.29A70.18,70.18,0,0,0,96.57,202c1.77,4-.1,8.73-3.31,8.88-5.76.27-11.55.11-17.32,0-1.73,0-2.71-.75-1.41-2.64,5-7.29,3.34-15.57,3-23.48-.24-5-2.6-10-8.16-11-4.17-.78-4.28-2.82-4-6,1.2-16.4,2.27-32.8,3.41-49.2,1.06-15.18,1.76-30.4,3.39-45.52,1-9.12-.79-16.89-6.5-24C60,42,54.72,34.85,49.3,27.75s-10.5-7.23-16.21-.28c-6.22,7.57-12.26,15.3-18.35,23-3.72,4.69-5.8,9.93-5.42,16,.94,15,1.8,30,2.77,45.05Q14,140.33,16,169.12c.18,2.65-.12,4.1-3.48,4.19C4.53,173.54.39,177.87.12,185.82,0,190.9,0,196,.15,201.06c.21,5.47,3.09,9.43,8.26,10.94,3.38,1,3.67,2.18,2.42,5.12-2.24,5.25-2.36,10.85.5,15.72,2,3.41,1.85,6.48,1.12,9.86-1,4.69-.76,9.59,2.5,12.9,3.78,3.85,4.23,8,4.18,12.81-.08,6.69,2.65,12,9.19,14.48,6.91,2.64,14.06,2.47,21.16.82a11.2,11.2,0,0,0,8.41-7.26c1.14-3.25,2.41-3.29,5.25-1.86a74,74,0,0,0,38.12,7.73c3.77-.22,6.81-.3,8.65,3.53,1.56,3.28,5.69,4.93,6,9,.74,11.52,1.33,23.05,2.1,34.57.18,2.59-.87,3.74-3.2,4.53-11.76,4-18.62,12.73-20.68,24.41-2.34,13.22-.38,18.22,12.39,18.47,21.54.43,43.09.41,64.64.32,7.86,0,12.32-4,14.07-11.52q3.8-16.35,7.32-32.75c.61-2.88,1.43-4,4.82-3.61a67.79,67.79,0,0,0,15.2.24c4-.41,5,1.12,5.72,4.57,2.39,11.29,5.21,22.48,7.64,33.75,1.28,6,4.76,8.92,10.72,9.74,6.84.95,13.61,0,20.42-.14,14.88-.28,29.78-.28,44.66-.62,9.77-.22,13.71-4.65,12.61-14.36-1.53-13.41-6.86-24.27-21-28.35-2.24-.64-3.17-1.75-3.24-4-.1-2.79-.49-5.57-.68-8.36-.06-1-.23-2.85.73-2.71,3.58.5,7.55-1.41,10.69.77,13.84,9.57,29.17,9.92,44.87,7.46,20.56-3.22,37.38-13.29,51-28.87,2.4-3.65,5-7.17,7.15-11C418.43,261.26,417.15,234.93,404.31,208.58ZM23.64,57.81c5.05-6.26,9.94-12.65,14.74-19.1,1.64-2.19,2.71-2.77,4.6-.21,5.08,6.9,10.36,13.65,15.58,20.44,1.6,2.09,1.8,4.48,1.64,7l-5.07,79c-.48,7.5-1.21,15-1.29,22.5-.05,4.37-1,6.57-5.87,5.86a54.21,54.21,0,0,0-7.86-.07c-12.29.58-12.56.61-13.47-11.45-1.39-18.3-2.37-36.63-3.48-54.95-.8-13.26-1.49-26.53-2.33-39.79A12.49,12.49,0,0,1,23.64,57.81ZM17.38,201.7c-4.15.12-6-1.24-6.08-5.66-.2-12.32-.34-12.31,12.1-12.32s24.82.14,37.22-.09c4.86-.09,7,1.34,6.86,6.54-.26,12.07.86,11.56-11.31,11.46-5.59,0-11.18,0-16.77,0v0C32.06,201.65,24.72,201.5,17.38,201.7ZM21.14,225c-.26-6.06,2.54-10.64,7.12-11,2.77-.22,5.57,0,8.36,0v0c.35,0,.7,0,1,0,3.1.25,7.29-1.39,9.07.78,2.74,3.34-2.89,4.66-3.53,7.56-.3,1.34-1.37,2.71-1.17,3.92.86,5.32-2.32,5.35-6.05,5.09a48.21,48.21,0,0,0-7.31,0C24,231.66,21.35,229.94,21.14,225Zm2.17,21.53c-.07-4.16,2.11-6.06,6.17-6q6.57,0,13.14,0c4.18,0,6,2.15,6,6.24s-1.55,6.38-5.8,6.4H29.64C25.2,253.14,23.37,250.67,23.31,246.51Zm24,26.61c-3.09,1.75-12.37,1.08-15.1-1.12-1.89-1.53-3.09-3.52-2.41-5.94.74-2.65,3.17-1.39,4.9-1.55,1.9-.18,3.83,0,5.74,0v0c1.74,0,3.49-.13,5.22,0s4.22-1.07,4.62,1.88C50.64,269.13,49.94,271.62,47.3,273.12Zm52.4-3.22c-13.77,1.3-26.27-2.24-37.83-9.58-.88-.56-1.95-1.15-1.76-2.37.85-5.61-2.51-11.85,4.13-16.63,3.9-2.8,4.64-8.21,3.14-13.92a71.11,71.11,0,0,1-5.87,5.31c-2.23,1.61-4.8,2.13-7.38.59s-2.83-4.22-2.49-6.92c.61-4.86,5.94-10.5,10.81-11.83,1.85-.51,3,.2,4.23,1.28,3.35,3,5.66,6.71,6,11.27.25,2.94-.09,5.93,0,8.89.09,2.35-2.1,5.76,1.72,6.66,3.49.83,4.57-2.49,5.67-5a20.76,20.76,0,0,0,1.91-10.22c-.3-3.15.8-3.76,3.84-3.36,7.07.94,7,.76,6.91,7.85a91.36,91.36,0,0,0,5.45,32.9C98.84,266.39,100,267.84,99.7,269.9ZM387.32,105.71a1.2,1.2,0,0,1-.24.15c.08-.14.17-.28.26-.41C387.33,105.54,387.36,105.66,387.32,105.71Zm-23.48,59.67c-12.08-23.7,2.2-48.59,19.7-58.73a4.16,4.16,0,0,1,3.43-.72c-6.84,14.43-4.79,28.08,3.3,41.39,3.85,6.33,6.45,13.19,6.22,20.84-.29,9.8-6.73,14.47-16.26,11.78C372.41,177.72,367.34,172.25,363.84,165.38ZM179.69,337c-1.95,8.15-4,16.27-5.86,24.45-.69,3.14-2.19,4.28-5.41,4.24q-18.1-.27-36.22-.09c-3.26,0-4.63-.63-3.31-4.09a26.72,26.72,0,0,0,1.42-5.58c.28-1.83.87-4.08-1.59-4.94-2-.71-3.77.24-5.14,1.78-2.14,2.42-3,5.48-4.14,8.41-.63,1.63-.09,4.34-2.88,4.32-3.45,0-7,.9-10.33-.52-1.28-.55-.92-2.12-.76-3.33,1.18-9.3,9.28-17.53,18.91-18.35,4.43-.37,5.53-2,5.42-6.17-.26-10.47-.08-20.95-.08-31.61A115.74,115.74,0,0,0,170.9,325c.51.13,1,.34,1.5.47C181.88,327.76,181.89,327.76,179.69,337ZM301.8,307.46c-7.59,2.14-14.38.29-19.55-5.62-5.76-6.56-7.29-14.19-3.91-22.49,2.56-6.25,7.45-10.51,12.61-14.48,7.48-5.72,7.57-7.16.52-13.53A43.41,43.41,0,0,0,287,247.7c-1.19-.81-2.42-2.5-4.09-1a3.23,3.23,0,0,0-.24,4.75c4.12,4.63,2,7.55-2.24,10.46-3.18,2.17-5.65,5.2-8,8.26-9.83,12.62-9.63,25.15,1,37a13.55,13.55,0,0,1,3.85,8.78c.38,7,1.28,14,1.53,20.94.15,4.33,1.7,6.3,6.17,6.57,9.55.57,16.42,7.8,17.21,17.33.26,3.16-.82,4.65-4,4.67-18.74.1-37.49.16-56.23.34-3.82,0-4.55-2.53-5.23-5.35-2.76-11.38-5.5-22.77-8.3-34.15-2-8.08-2.58-8.72-11-8.72-15.28,0-30.49-.65-45.29-4.77-26-7.24-47.39-20.69-59.78-45.72-7.53-15.21-9.5-35.3-5.18-52.31,5.91,5.3,11.72,9.78,18.34,13.07,5.68,2.82,11.33,5.1,16.85-.47,2-2.06,3.09.42,4.21,1.41a111.33,111.33,0,0,0,23.93,16c3.92,2,7.58,3,10.81-1,1.65-2,2.89-.84,4.37.23,4,2.87,8,5.69,12,8.41,6.41,4.29,12.82,4,19.15-.22,1.9-1.26,3.87-2.44,5.63-3.87,3.6-2.92,6.77-6.46,11.74-1.62,2.06,2,5,.1,7.38-1,9.31-4.26,17.56-10.16,25.33-16.73,2.17-1.83,3.53-2.59,6-.28,3.61,3.33,7.89,2,11.85.33a65.67,65.67,0,0,0,19.71-12.82c2.13-2,3.71-2.39,6.32-.92,9.05,5.1,16.89,11.46,21.41,21,5.47,11.52,4.66,22.75-2.87,33.24a51.78,51.78,0,0,1-23.3,18.15c-1.29.52-2.64.94-3.89,1.55-1.66.82-3,2.12-2.88,4.05s1.78,2.3,3.3,2.88c2.54,1,5.86,1.48,5.65,5.18S304.82,306.61,301.8,307.46Zm85.44-17.94c-17,22.17-47.66,32.49-72,24.53-.48-.16-.94-.39-1.7-.71.31-.76.43-1.08.57-1.38,3.13-7,7.94-8.26,15.81-7.86,34.78,1.73,63.11-31.31,57.69-65.79A91,91,0,0,0,379,212.05c-3.82-7.76-6.3-15.89-5.58-25.05,3.35,1.05,6.42,2.23,9.59,2.93,2.09.47,2.39,1.92,2.59,3.42,1,7.42,4.27,14,7.41,20.61C405.38,240.19,405.51,265.66,387.24,289.52Z"/><path class="cls-1" d="M345.25,134.34l-17.43-29c0-.23-.07-.47-.1-.7-.07-.46-.14-.92-.2-1.37l-.27-1.88-.18-1.31-.39-2.8c-.07-.53-.14-1-.22-1.58l-.24-1.73c-.07-.52-.15-1-.22-1.54s-.15-1.09-.23-1.63-.16-1-.23-1.53l-.24-1.6c-.09-.53-.17-1-.26-1.58s-.16-1-.25-1.54-.18-1.06-.28-1.59-.17-1-.26-1.52-.21-1.08-.31-1.61-.19-1-.29-1.5-.23-1.09-.35-1.64-.2-1-.31-1.45-.26-1.11-.4-1.66l-.33-1.42-.45-1.69c-.12-.46-.24-.92-.37-1.38s-.33-1.13-.5-1.69-.26-.91-.4-1.36-.39-1.18-.59-1.77c-.14-.42-.27-.84-.42-1.27-.23-.66-.49-1.32-.74-2-.13-.34-.25-.69-.38-1-.39-1-.8-2-1.24-3a3.26,3.26,0,0,1-.27-1.16s0,0,0-.06a5.67,5.67,0,0,1,.58-2.38c.09-.2.18-.39.28-.59s.19-.39.28-.59a59.65,59.65,0,0,0,4.72-13.25,51.09,51.09,0,0,0,1.07-6.85c.11-1.15.17-2.31.2-3.48s0-2.34,0-3.51c0-1,0-2,0-3s0-2-.06-3-.13-1.75-.22-2.55a24.41,24.41,0,0,0-1.14-5.23,13.7,13.7,0,0,0-.7-1.64,9.38,9.38,0,0,0-.84-1.38,7.41,7.41,0,0,0-5.68-3.1,14,14,0,0,0-3.58.21l-1,.21c-.69.15-1.4.35-2.15.59a47.63,47.63,0,0,0-6.16,2.49c-2.38,1.13-4.67,2.35-6.9,3.64-3,1.72-5.81,3.57-8.57,5.52s-5.43,4-8,6.09c-3.26,2.63-6.43,5.36-9.57,8.13a16.68,16.68,0,0,1-4,2.72,11.8,11.8,0,0,1-3.44,1l-.35,0a14.61,14.61,0,0,1-3.22-.06c-1.28-.17-2.56-.32-3.85-.47a152.64,152.64,0,0,0-94.35-.51l-3.89.42a31,31,0,0,1-6,.16,19.8,19.8,0,0,1-9.56-3.21,29.72,29.72,0,0,1-4.2-3.33q-3.66-3.42-7.59-6.58a115.34,115.34,0,0,0-12.44-8.72q-4.36-2.64-9.07-4.9c-1.56-.75-3.16-1.47-4.78-2.15a20.82,20.82,0,0,0-4.56-1.35A12.46,12.46,0,0,0,95.37,5h0a11.69,11.69,0,0,0-1.22.13,8.28,8.28,0,0,0-2.21.7C89.21,7.11,87.41,9.89,86.77,14a72.63,72.63,0,0,0-.87,9.47c0,.78,0,1.56,0,2.35,0,1.56.08,3.12.21,4.67a60.74,60.74,0,0,0,5.38,20.62A9.94,9.94,0,0,1,92.76,56a5.77,5.77,0,0,1-.45,1.77c-5.87,13.75-8.82,28-10.38,42.62a105.2,105.2,0,0,1-1.67,11.17,42.62,42.62,0,0,1-3.34,9.73l-7.82,13a4.08,4.08,0,0,0-.59,2.38,3.72,3.72,0,0,0,0,.74c1.62,10.07,7.84,18.84,16.74,24.66a32.88,32.88,0,0,0,.53,26.58c1.2,2.59,4.74,3.65,7.5,2.26l13.31-6.71c-1.46,12.1,3.93,24.41,15,32.51a5.72,5.72,0,0,0,7.83-1.09l7-9.76c3.48,13.05,14.87,23.77,30.08,27.46,3.07.75,6.19-1.05,6.62-3.82l.6-4c6.71,9.76,18.37,16.59,31.86,17.9a21,21,0,0,1,3.17,0c13.49-1.31,25.15-8.14,31.86-17.9l.61,4c.42,2.77,3.54,4.57,6.62,3.82,15.2-3.69,26.59-14.41,30.07-27.46l7,9.76a5.73,5.73,0,0,0,7.84,1.09c11.06-8.1,16.45-20.41,15-32.51L321,191c2.77,1.39,6.31.33,7.5-2.26a32.88,32.88,0,0,0,.54-26.58c8.9-5.82,15.12-14.59,16.74-24.66a4.65,4.65,0,0,0,0-.74A4.09,4.09,0,0,0,345.25,134.34Z"/><path class="cls-6" d="M349.57,131.82l-13.63-22.7-3-5c-.24-.39-.46-.78-.7-1.16-.36-.57.28,1.22.34.53a17,17,0,0,0-.52-3.65c-1.46-10.46-2.81-20.93-5.53-31.16-.63-2.36-1.36-4.7-2.16-7-.38-1.09-.79-2.18-1.22-3.26-.31-.79-.63-1.57-1-2.35l-.25-.6c-.25-.54-.29-.66-.14-.34a5.07,5.07,0,0,0,.11.65c0,.16-.27,1,0-.11.07-.23.43-1,0,0l.54-1.12c.76-1.58,1.46-3.2,2.12-4.82a59.3,59.3,0,0,0,2.62-7.89A68.92,68.92,0,0,0,329,24.59c0-5.68-.07-11.34-2.39-16.63A13,13,0,0,0,321,1.72,15.48,15.48,0,0,0,311.43.47C306,1.23,300.79,3.84,296,6.41c-10,5.36-19,12.48-27.56,19.91-1,.86-1.95,1.73-2.94,2.58-.77.66-.35.27-.17.14-.26.19-.53.37-.8.54s-.55.34-.83.49c0,0-1.23.58-.65.35s-.31.09-.44.13l-.87.24c-.3.06-.6.12-.9.16-.65.11.26-.06.31-.06-1.39-.1-2.76-.1-4.15-.26l-1.1-.14c-.17,0-1.14-.3-.67-.11s-.39-.21-.52-.25l-.91-.3q-1.95-.63-3.93-1.2c-2.5-.72-5-1.38-7.57-2a159.19,159.19,0,0,0-66.8-1,146.17,146.17,0,0,0-15.28,3.9,6.51,6.51,0,0,0-.92.29l.38,0-.48.05c-.64.12-1.3.14-1.95.21-1.37.15-2.74.3-4.12.34a25.51,25.51,0,0,1-3.81-.16c1,.13-.68-.16-.92-.21-.57-.13-1.13-.29-1.69-.47-.26-.09-1.75-.74-.82-.29-.52-.25-1-.5-1.54-.78s-1-.61-1.51-.94l-.78-.54c-.23-.17-.53-.43-.13-.1-2.21-1.81-4.25-3.85-6.42-5.71A130.44,130.44,0,0,0,121.8,11a106.79,106.79,0,0,0-14.49-7.87C102,.77,96.12-1.35,90.42,1.06c-5,2.12-7.77,6.93-8.55,12.17a75.27,75.27,0,0,0-.78,17.29,66.28,66.28,0,0,0,3.4,16.62c.48,1.35,1,2.68,1.56,4,.32.76.65,1.53,1,2.28.14.3.28.6.41.91.33.75-.28-1,.1.34.09.29.17.58.25.88-.06-.21,0-1,0,0,0,.45-.26.63,0,0,0,0-.19.74-.07.32.22-.74-.39,1-.54,1.3l-.39,1c-.3.72-.59,1.45-.87,2.17A144.59,144.59,0,0,0,78,92c-.43,3-.79,6-1.12,9l-.24,2.14c0,.35-.09.71-.13,1.06,0,.09-.13,1,0,.28-.19,1.42-.42,2.83-.7,4.24a47.79,47.79,0,0,1-2.21,8c-.12.32-.24.64-.38,1,.27-.63-.08.16-.11.24-.16.32-.3.66-.47,1s-.22.37-.33.55c-2.42,4-4.86,8-7.25,12.07s-1.4,8.29-.06,12.4a42.22,42.22,0,0,0,7.32,13.26,45.34,45.34,0,0,0,10.49,9.34l-2.29-5.65a37,37,0,0,0-2.64,16.45,39,39,0,0,0,1.69,9c.87,2.69,1.87,5.7,4,7.61,3.74,3.29,8.63,3.24,12.89,1.09l6.78-3.41,5.92-3-7.53-4.32c-1.27,11.09,2.88,22.14,10.22,30.39,4,4.46,9.37,9.52,15.84,7.85A10.84,10.84,0,0,0,133.9,218c.63-.87,1.25-1.76,1.88-2.64l5-6.95-9.14-1.2a41.57,41.57,0,0,0,14.15,21.35,51.24,51.24,0,0,0,12.6,7.38c4.71,1.94,10.38,4,15.13,1a9.52,9.52,0,0,0,4.5-6.4c.2-1.23.38-2.47.56-3.71l-9.14,1.19a48,48,0,0,0,27.3,18.85,43.77,43.77,0,0,0,9.15,1.54,39.31,39.31,0,0,0,9.89-1.08,49.82,49.82,0,0,0,15.6-6.34,46.68,46.68,0,0,0,13.59-13l-9.14-1.19c.48,3.18.71,6.25,3.2,8.67a10.59,10.59,0,0,0,8.05,2.95,28.94,28.94,0,0,0,7.4-1.93,47.88,47.88,0,0,0,22.13-16.45,39.43,39.43,0,0,0,6.16-12.89l-9.13,1.2,4.2,5.88c1.83,2.57,3.59,5.77,6.47,7.26a11.14,11.14,0,0,0,10,.06,18.68,18.68,0,0,0,3.77-2.73,38.08,38.08,0,0,0,3.11-2.84,42.5,42.5,0,0,0,9.22-14.24,36.76,36.76,0,0,0,2.34-17.58l-7.52,4.32,12.11,6.1a27.22,27.22,0,0,0,2.74,1.27,10.9,10.9,0,0,0,8.68-.63c3-1.54,4.26-4.19,5.42-7.16a35,35,0,0,0,2.08-8.32,37.63,37.63,0,0,0-2.34-19l-2.3,5.65a45.61,45.61,0,0,0,14-14.28,40.3,40.3,0,0,0,4-8.92c1.17-3.8,2-7.75,0-11.42a5,5,0,0,0-6.84-1.79,5.09,5.09,0,0,0-1.79,6.84c-.43-.8.05.33-.05-.29s-.05.44-.05.5c0-.39.14-.75,0-.13-.07.34-.13.68-.21,1a34.25,34.25,0,0,1-1,3.6l-.35,1c0,.12-.47,1.19-.21.55s-.12.25-.16.35c-.14.32-.29.63-.44.94a37.2,37.2,0,0,1-1.93,3.43c-.34.53-.69,1-1.05,1.55l-.49.68c.58-.83,0,0-.12.14a36,36,0,0,1-2.68,3c-.9.91-1.85,1.77-2.83,2.59,0,0-1,.8-.51.42s-.54.4-.53.39c-.58.42-1.18.83-1.79,1.23-1.67,1.11-3.14,3.56-2.29,5.65a35.93,35.93,0,0,1,2,7c0,.24.07.48.12.72.15.8,0-.72,0,.1,0,.56.11,1.11.14,1.68a33.44,33.44,0,0,1,0,3.61c0,.57-.08,1.13-.13,1.69-.1,1,0,.34,0,.12-.05.32-.1.65-.16,1a34.07,34.07,0,0,1-.86,3.59c-.27.89-.85,2.53-1,3a4.48,4.48,0,0,1-.5.95c-.09,0,.93-.86.1-.22.26-.2.62-.56.18-.14-.72.65.23-.05.23-.05a2.37,2.37,0,0,1-.69.21c-.29.09-.55-.06-.05,0,.7.12-.06,0-.25-.05-.57-.08.38.09.4.07-.14.09-.6-.28-.72-.2,0,0,.61.34.43.18a8.58,8.58,0,0,0-1.63-.82l-6.68-3.37-4.95-2.49a5.12,5.12,0,0,0-5,0,4.9,4.9,0,0,0-2.48,4.32,33.59,33.59,0,0,1,.12,6.65c0,.26,0,.53-.08.8s-.15,1,0,.33,0,.16-.07.33-.09.53-.14.79a31.19,31.19,0,0,1-.84,3.33c-.31,1-.68,2.06-1.09,3.07.41-1-.2.4-.34.67-.26.56-.55,1.11-.85,1.65-.53,1-1.12,1.93-1.74,2.85-.28.41-.57.81-.86,1.21-.55.76-.11.15,0,0l-.81,1a38.77,38.77,0,0,1-5.19,5.06c-.1.08-.85.65-.39.31s-.18.13-.22.15a6.73,6.73,0,0,0-.63.4c.52-.47.65-.17.16-.08a2.31,2.31,0,0,1-.71.17l.6-.1h-.73l.61.07a4.56,4.56,0,0,1-.53-.13c-.35-.12-.24,0,.36.18a3.94,3.94,0,0,1-.63-.35c0-.15.7,1,.19.1s.47.71.28.4-.33-.46-.49-.69l-2.24-3.13-4.2-5.88a5.09,5.09,0,0,0-5-2.39,5,5,0,0,0-4.16,3.58c-.23.84-.48,1.67-.77,2.49-.12.35-.25.69-.38,1l-.28.69c.13-.33.32-.72.06-.17a40,40,0,0,1-2.51,4.59c-.47.74-1,1.44-1.5,2.16.49-.7.13-.17-.16.19s-.65.78-1,1.16a40.41,40.41,0,0,1-3.84,3.79l-1.05.87-.47.37c.14-.11.82-.6.07-.07s-1.51,1.07-2.29,1.57a44.3,44.3,0,0,1-5,2.74l-.75.34c-.08,0-.71.32-.16.08s-.09,0-.17.07l-.77.3c-.92.35-1.85.67-2.78,1s-1.92.56-2.88.8c-.2,0-.7,0-.14,0s-.06,0-.13-.05c-1.08-.21.17.13.18,0s-.67-.2-.72-.22c.26.09.81.5.2,0l.42.36-.26-.24c-.1,0-.81-1.07.1.19-.46-.65,0,.22.05.24-.16-.06-.25-1.22-.28-1.43l-.5-3.26c-.29-1.92-2.41-3.35-4.15-3.58a5.13,5.13,0,0,0-5,2.38c-.14.22-.29.43-.45.64,0,0-.77,1.06-.31.44s-.11.14-.21.26l-.5.61a37.15,37.15,0,0,1-2.57,2.75c-.76.74-1.55,1.46-2.37,2.14-.24.19-1.44,1.11-.57.47-.55.4-1.09.8-1.65,1.18a44.68,44.68,0,0,1-6.47,3.64l-.77.34c.17-.08.91-.37,0,0-.53.21-1.05.41-1.59.6-1.2.44-2.43.82-3.67,1.15s-2.39.59-3.61.82c-.65.12-1.3.22-2,.32.2,0,1-.11,0,0a13.79,13.79,0,0,1-1.43.12,35.07,35.07,0,0,1-4-.17c1,.11.22,0,0,0l-1.09-.17c-.64-.12-1.29-.24-1.93-.39a48.5,48.5,0,0,1-7.36-2.26c-.2-.08-.88-.39,0,0l-.76-.34c-.51-.23-1-.47-1.51-.72-1.1-.56-2.19-1.16-3.25-1.81s-2.26-1.5-3.36-2.29c.81.58.22.18.05,0l-.93-.77c-.51-.43-1-.87-1.49-1.33a37.13,37.13,0,0,1-2.76-2.85c-.39-.45-.75-.91-1.13-1.36-.5-.61.68,1-.05-.08l-.68-1a5.07,5.07,0,0,0-5-2.38c-1.77.23-3.87,1.65-4.16,3.58l-.42,2.79c-.06.39-.11.79-.18,1.18,0,.09-.08.69-.18.72s.66-1.1.05-.24c.5-.7.15-.16.11-.19s-1.08.87.15-.12c-.07.06-.61.46-.05.08s-.13.06-.1,0l-.19.05q-.56.14.39,0c0,.16-1.49-.11-.25.12-.56-.11-1.11-.26-1.65-.41a45.11,45.11,0,0,1-5.57-1.9c.92.38-.19-.1-.51-.25s-.86-.4-1.29-.62c-.84-.42-1.67-.88-2.49-1.36s-1.59-1-2.37-1.49c-.32-.23-.65-.45-1-.69l-.64-.46c.33.23.51.4.08.06a43.51,43.51,0,0,1-4-3.66c-.62-.65-1.21-1.31-1.79-2-.24-.29-.48-.59-.71-.89.75.95-.17-.25-.35-.5a35.67,35.67,0,0,1-3-5.17c-.14-.28-.74-1.68-.26-.5-.16-.4-.32-.8-.47-1.21-.37-1-.68-2-1-3a5,5,0,0,0-4.16-3.58,5.13,5.13,0,0,0-5,2.39l-3.56,5-2.4,3.37-.75,1c-.67,1,.82-.82.06-.1-.49.47.14.14.19-.1a4.08,4.08,0,0,1-.62.35s1.17-.09.18-.13c-.61,0-.17.48.26,0-.06.06-.75,0-.73,0s1.27.34.24,0l-.71-.21c.59.2.55.24,0-.1-.13-.08-.83-.6-.38-.26s-.17-.14-.21-.17c-.46-.38-.92-.76-1.37-1.15a38.91,38.91,0,0,1-2.84-2.76c-.4-.42-.78-.85-1.15-1.29-.2-.23-1.16-1.46-.56-.65-.67-.91-1.31-1.82-1.9-2.78a33,33,0,0,1-1.62-2.9c-.24-.49-.46-1-.7-1.49.44.92.11.28,0,.07-.15-.38-.29-.76-.43-1.15a32.53,32.53,0,0,1-1-3.49c-.14-.59-.27-1.18-.38-1.77-.05-.27-.08-.53-.13-.8-.13-.62.09.92,0-.06a35.57,35.57,0,0,1,0-7.65,4.87,4.87,0,0,0-2.47-4.32,5.13,5.13,0,0,0-5,0l-10.9,5.49c-.71.36-1.43.7-2.13,1.08l-.28.14c1.33-.69-.8.11.06,0s-.08,0-.26,0c-.63-.26,1.19.37.06,0a3.1,3.1,0,0,0-.52-.15c-.66,0,.85.28.22.07a1.22,1.22,0,0,1-.45-.28c.16.37.61.55.23.1.64.75.14.12-.11-.39s0-.08,0,0c-.16-.38-.31-.78-.45-1.17a33,33,0,0,1-1-3.34c-.14-.56-.27-1.12-.38-1.68-.06-.32-.11-.64-.17-1-.17-.91,0,.2,0-.36-.11-1.29-.21-2.56-.2-3.86,0-.72,0-1.44.08-2.16,0-.24,0-.48.07-.72s.13-1.08,0-.35a34.45,34.45,0,0,1,2.19-7.9c.85-2.11-.6-4.52-2.3-5.65-.48-.32-1-.64-1.44-1l-.7-.51s-.62-.48-.18-.13-.23-.2-.34-.28l-.65-.56c-.49-.41-1-.84-1.44-1.28-.77-.73-1.51-1.48-2.22-2.27-.33-.36-.65-.73-1-1.11l-.53-.65c-.6-.73.22.33-.11-.15a45.93,45.93,0,0,1-3.34-5.49c-.25-.5-.48-1-.7-1.51.43,1-.16-.44-.26-.72-.37-1-.7-2.1-1-3.17-.14-.54-.26-1.08-.37-1.63,0-.2-.07-.41-.11-.61-.18-.72,0,.82,0,.15,0-.18.07-1,0-.32s.09-.1.08-.13c.1.3-.24.56-.09.35.39-.56.7-1.17,1.05-1.75l4.14-6.89c.86-1.43,1.79-2.84,2.59-4.31,2.65-4.86,4-10.53,4.75-16,.44-3,.76-6,1.1-9,.08-.68.16-1.36.25-2l.12-1c0-.12.14-1,0-.19.18-1.34.38-2.69.59-4a155.4,155.4,0,0,1,3.3-15.71,127.47,127.47,0,0,1,5.15-15.35s.31-.77.15-.36c-.29.68.41-1,.54-1.31a10.72,10.72,0,0,0,.51-2.65,10.92,10.92,0,0,0-.61-4.46c-.5-1.41-1.16-2.77-1.77-4.14,0-.07-.36-.88-.11-.25-.13-.32-.26-.65-.38-1-.25-.65-.49-1.29-.72-1.94A59.67,59.67,0,0,1,92,36.64c-.12-.57-.23-1.15-.33-1.73-.06-.33-.12-.66-.17-1,0-.12-.17-1.14-.09-.58s0-.3,0-.32l-.12-1c-.07-.76-.14-1.52-.19-2.27A66,66,0,0,1,91,21.92c.06-1.4.17-2.8.32-4.2l.12-1,0-.39c-.07.52.08-.56.1-.66.06-.39.12-.78.2-1.16a15.59,15.59,0,0,1,.44-1.66c.06-.19.14-.38.2-.57.21-.69-.41.71,0,.12.22-.36.42-.75.63-1.12.52-.88-.15.18-.15.17s.62-.65.71-.74c.55-.59-.82.43.18-.13.32-.17,1.09-.45.38-.24L95,10c1-.28.2,0-.06,0,.51,0,1,0,1.51,0l.67,0c-.87,0-.19,0,0,0,.6.13,1.19.26,1.78.44s1.26.41,1.87.65l.38.15.85.37c2.54,1.12,5,2.35,7.47,3.67a110.18,110.18,0,0,1,13.3,8.5L124.4,25c-.6-.46.86.69,1,.77,1.1.89,2.18,1.79,3.26,2.71,2,1.75,4,3.66,6,5.37a27.39,27.39,0,0,0,15.11,6.47,38.53,38.53,0,0,0,8-.28,24.93,24.93,0,0,0,4.22-.59c1.32-.37,2.63-.82,4-1.2a146.47,146.47,0,0,1,15.21-3.54c1.25-.22,2.49-.43,3.74-.61l1.77-.26c-.8.11.06,0,.18,0l1.27-.15q4-.48,8-.75a157.38,157.38,0,0,1,16.54-.24q4.14.16,8.27.54c1.27.12,2.54.25,3.81.4l1.77.22c.85.1-.67-.1.18,0l1.25.18a148.47,148.47,0,0,1,15.35,3.11q3.64.95,7.23,2.08a25.36,25.36,0,0,0,4.62,1.14c1.42.17,2.84.39,4.27.49a17.35,17.35,0,0,0,8.36-1.67,28.94,28.94,0,0,0,6.83-5c2.1-1.83,4.22-3.65,6.37-5.42,1-.84,2-1.67,3.07-2.48l.87-.69,1.9-1.44a116.37,116.37,0,0,1,13.62-8.81c1.15-.62,2.3-1.22,3.47-1.8l1.9-.91.7-.32c1.49-.68-.84.32.62-.27,1-.41,2.08-.8,3.16-1.13.49-.16,1-.3,1.5-.42l.93-.21c.12,0,1.41-.2.79-.14s.34,0,.48,0h.65c.28,0,.55,0,.83,0-.84-.05-.14,0,.07,0s.57.15.85.25c-.21-.07-.79-.41,0,.05.06,0,.64.44.2.1s.37.42.46.49c-.48-.39-.15-.25,0,0s.29.45.42.69.26.5.38.75c-.09-.19-.31-.88,0,.06a25,25,0,0,1,.85,3.3c.06.31.11.63.15.94,0-.1-.06-.69,0-.1s.13,1.36.18,2c.08,1.33.08,2.66.06,4,0,2.58.08,5.16-.07,7.74-.05.68-.1,1.35-.17,2,0,.36-.07.71-.11,1.06,0-.23.12-.78,0,.26-.22,1.4-.48,2.79-.81,4.17A56.17,56.17,0,0,1,315.34,46c-.09.25-.19.49-.29.73-.33.81.24-.54-.11.27-.25.56-.5,1.13-.76,1.69a39.5,39.5,0,0,0-1.81,4,8.82,8.82,0,0,0-.25,4.78,15.63,15.63,0,0,0,.95,2.46c-.05-.11-.2-.47,0,.06s.34.83.5,1.25c3.62,9.43,5.63,19.31,7.13,29.28.75,5,1.41,10.1,2.14,15.14a10.22,10.22,0,0,0,1.73,3.93l15.07,25.1,1.28,2.13a5,5,0,1,0,8.63-5.05Z"/><path class="cls-3" d="M183.77,123.87c3,9.69,10.95,14.29,19.26,18.41a7,7,0,0,0,3.78.32c7.06-.93,18.84-11.75,20.64-18.84a20.62,20.62,0,0,0-10.14-8.14,31.72,31.72,0,0,0-12.63-2.24l-.32,0a31.63,31.63,0,0,0-3.77.35C193.84,114.79,187.52,118,183.77,123.87Z"/><path class="cls-7" d="M195.2,119.5c1.43,4.62,5.22,6.81,9.18,8.78a3.29,3.29,0,0,0,1.8.15c3.37-.45,9-5.6,9.84-9a9.82,9.82,0,0,0-4.83-3.89,15.31,15.31,0,0,0-6-1.06H205a17.77,17.77,0,0,0-1.79.17A11.36,11.36,0,0,0,195.2,119.5Z"/><path class="cls-2" d="M266.27,52.32c-9.06,6.73-21.19-1.19-30.24,1.9a13.07,13.07,0,0,1-8.77-.15,68.54,68.54,0,0,0-47.95.12,11.61,11.61,0,0,1-8.11.15c-9.08-3.41-21.4,4.79-30.57-2C106.81,27.18,98.35,65.93,98.35,94.06c0,20.68,13.38,48.17,31.86,59a24.91,24.91,0,0,1,11.9,15.89c7.4,32.29,27.12,47.48,61.34,47.55s53.94-15.26,61.34-47.55A24.91,24.91,0,0,1,276.69,153c18.48-10.79,31.86-38.28,31.86-59C308.55,65.93,300.09,27.18,266.27,52.32Z"/><path class="cls-6" d="M136.48,83.34c5.82-6,14.44-7.92,22.54-6,6.07,1.4,11.16-.5,11.43-6.43a7.72,7.72,0,0,0-7.75-7.7,72.36,72.36,0,0,0-33.76,8.39c-7.4,5.11-8.74,8.24-6.29,12.11C125.93,88.83,131.38,88.56,136.48,83.34Z"/><path class="cls-6" d="M275.16,83.41c-5.63-6.12-14.19-8.35-22.35-6.72-6.1,1.21-11.13-.84-11.23-6.77a7.73,7.73,0,0,1,8-7.46,72.19,72.19,0,0,1,33.48,9.39c7.25,5.34,8.49,8.51,5.93,12.3C285.54,89.22,280.11,88.79,275.16,83.41Z"/><path class="cls-6" d="M251.17,152.36c-3-1.69-5.27-.13-7.24,2.13a88.66,88.66,0,0,1-6.24,7c-6,5.56-14.95,6.84-21.59,3.38a8.25,8.25,0,0,1-4.82-7.46c-.17-3.69,2.71-3.8,5-4.74,4.93-2,8.54-5.79,11.95-9.65,5.31-6,4.89-13.06-.81-19.27-1.8,7.09-13.58,17.91-20.64,18.84a7,7,0,0,1-3.78-.32c-8.31-4.12-16.24-8.72-19.26-18.41-3.26,3.47-4.89,7.38-4.21,11.49a13.75,13.75,0,0,0,.54,2.07,14.26,14.26,0,0,0,1,2.09A30.52,30.52,0,0,0,195.93,153c1.88.83,4.61.63,4.66,3.81s-1.07,5.84-3.92,7.4a19,19,0,0,1-11.73,2.31c-7.57-.93-12.56-5.61-16.91-11.38-1.93-2.56-4.37-5.13-7.86-2.56-3.2,2.37-2.87,5.59-.79,8.62,5.9,8.59,13.8,14.13,24.2,16,6.67,1.17,13,.43,18.31-3.93,2.92-2.43,4.49-2.6,7.68-.17,12.7,9.71,38,2,43.43-12.92C254.06,157.23,254.39,154.21,251.17,152.36Z"/><path class="cls-8" d="M149.05,84.51c-15.37.1-27.53,12.83-27.52,28.8,0,16.59,12.63,29.46,28.82,29.4C165.5,142.64,177,130.3,177.07,114,177.17,97.41,164.8,84.4,149.05,84.51Z"/><path class="cls-8" d="M263.84,84.45c-16.12-.17-28.76,12.79-28.69,29.41.07,16.45,11.72,28.81,27.17,28.82,15.8,0,28.54-13.22,28.59-29.7C291,97.36,278.87,84.62,263.84,84.45Z"/><path class="cls-9" d="M171,108c-2-8.84-7.5-14.53-14.14-14.25s-12.53,7.17-13.64,15.78c-.19,1.45-.22,2.93-.34,4.61.15,1.62.18,3.48.5,5.27,1.42,8,7.09,14.21,13.07,14.53,6.27.33,12-4.84,14.16-12.91A26.82,26.82,0,0,0,171,108Z"/><path class="cls-9" d="M257.55,93c-6-.19-11.33,4.45-13.63,12a25.23,25.23,0,0,0-1.25,8.1A26.28,26.28,0,0,0,246,125.6c5.77,10,18.61,8.78,23.38-2a26.1,26.1,0,0,0,1.15-18.23C268.41,98.12,263.22,93.17,257.55,93Z"/><circle class="cls-10" cx="148.89" cy="101.72" r="8.54"/><circle class="cls-10" cx="250.13" cy="100.74" r="8.54"/><path class="cls-2" d="M133.16,147.43h41.58A25.74,25.74,0,0,0,125,138.55C128.53,140.47,131.11,144,133.16,147.43Z"/><path class="cls-2" d="M275,143.09c1.87-2.1,4.77-3.61,7-5.45,1.93-1.62,4.69-3.22,5.54-5.72a4.06,4.06,0,0,1,.45-.91,25.74,25.74,0,0,0-47.47,13.42h33.75A4.1,4.1,0,0,1,275,143.09Z"/><circle class="cls-6" cx="135.32" cy="216.93" r="0.92"/><circle class="cls-6" cx="278.62" cy="217.57" r="1.81"/><path class="cls-2" d="M246,280.44c6.53-11.31,7.07-24.77,2.7-37.91q-3.36,1.92-6.91,3.56c-2.36,1.08-5.32,3-7.38,1-5-4.84-8.14-1.3-11.75,1.63-1.76,1.43-3.72,2.61-5.62,3.87-6.33,4.18-12.75,4.51-19.15.22-4.07-2.72-8.08-5.54-12.05-8.41-1.49-1.07-2.72-2.27-4.37-.23-3.23,4-6.9,3-10.82,1a111.33,111.33,0,0,1-23.93-16c-1.12-1-2.16-3.46-4.2-1.41-5.52,5.57-11.17,3.29-16.85.47-1.57-.78-3.09-1.62-4.58-2.53-3.5,23.08,11.5,50,38.67,65.73C192.84,310.5,231.46,305.6,246,280.44Z"/></g></g></svg>