<svg xmlns="http://www.w3.org/2000/svg" viewBox="0 0 469.6 467.5"><defs><style>.cls-1{fill:#fcb625;}.cls-2{fill:#febe2a;}.cls-3{fill:#fbaf40;}.cls-4{fill:#fcba19;}.cls-5{fill:#8d183b;}.cls-6{fill:#ee9a2c;}.cls-7{fill:#ea7624;}.cls-8{fill:#f68e46;}.cls-9{fill:#fefdf3;}.cls-10{fill:#02534e;}.cls-11{fill:#fff;}</style></defs><g id="Layer_2" data-name="Layer 2"><g id="Layer_1-2" data-name="Layer 1"><path class="cls-1" d="M175.18,416.42c.07-.79.11-1.59.11-2.4A27.69,27.69,0,0,0,160,389.29,14.42,14.42,0,0,0,145.66,375H127a27.69,27.69,0,0,0-53.65,13.37H64a14.42,14.42,0,0,0-14.38,14.38v3.37a27.68,27.68,0,0,0,10.41,53.33v0H162.42a14.42,14.42,0,0,0,14.38-14.38V423A14.24,14.24,0,0,0,175.18,416.42Z"/><path class="cls-2" d="M41.64,357.59c3.9-4.29,4-4.38,8.31-.67,6.55,5.63,13,11.41,19.45,17.14,4.69,4.15,9.34,8.34,14,12.48a5.91,5.91,0,0,1,2.13,4c.4,3.77.9,7.53,1.45,11.27.18,1.28,0,1.83-1.46,1.6-4-.6-8-1.09-12-1.61A4.59,4.59,0,0,1,70.68,400L46.06,372c-2.33-2.66-4.59-5.4-7.06-7.93-1.44-1.47-1.85-2.53,0-3.9A24.91,24.91,0,0,0,41.64,357.59Z"/><path class="cls-3" d="M86.79,403.27c.31-.24.32-.73.21-1.47-.54-3.74-1-7.5-1.44-11.27a5.91,5.91,0,0,0-2.13-4c-4.69-4.14-9.34-8.33-14-12.48-6.47-5.73-12.9-11.51-19.45-17.14-4.32-3.71-4.41-3.62-8.31.67l-.26.27Z"/><path class="cls-4" d="M32.4,347.87c2.44-2.44,4.94-4.84,7.31-7.35,1.35-1.42,2.42-1.58,3.92-.14,4.17,4,4.21,4,.07,8.14S35.39,356.74,31.33,361c-1.58,1.64-2.76,1.87-4.46.1-3.93-4.11-4.14-3.56-.05-7.58,1.87-1.85,3.73-3.73,5.59-5.59Z"/><path class="cls-5" d="M25.32,366.17c1.75,1.6,4.19,2.46,6.39,1,1.65-1.13,2.37-.49,3.36.66,5.06,5.86,10.17,11.68,15.25,17.53,4.7,5.4,9.54,10.71,14,16.28a14.63,14.63,0,0,0,11.93,5.95A39.18,39.18,0,0,1,85,408.7c5.58,1.37,8-.08,7.48-4.91-.45-4.6-1-9.18-1.54-13.77a10.71,10.71,0,0,0-3.53-7.14c-5.31-4.69-10.61-9.41-15.93-14.08q-10.22-9-20.47-17.9c-.93-.81-1.31-1.39-.28-2.51a6.22,6.22,0,0,0-.1-8.43c-1.61-1.71-3.27-3.37-5-5a5.22,5.22,0,0,0-6.4-.89l-.38.19-6.28,6.28a1.1,1.1,0,0,0-.31-.74l-1.67-1.67a1.09,1.09,0,0,0-1.55,0,1.11,1.11,0,0,0,0-1.55L27.41,335a1.1,1.1,0,0,0-1.55,0,1.09,1.09,0,0,0,0-1.55l-1.67-1.67a1.11,1.11,0,0,0-1.55,0,1.09,1.09,0,0,0,0-1.55L21,328.51a1.11,1.11,0,0,0-1.55,0,1.08,1.08,0,0,0,0-1.54l-1.67-1.68a1.11,1.11,0,0,0-1.55,0,1.08,1.08,0,0,0,0-1.54l-1.67-1.67a1.08,1.08,0,0,0-1.54,0l-.21.2-1.93-1.94a5.51,5.51,0,1,0-9.23,5.3,5.4,5.4,0,0,0,2.5,1.43L6.05,329l-.2.2a1.11,1.11,0,0,0,0,1.55l1.67,1.67a1.11,1.11,0,0,0,1.55,0,1.11,1.11,0,0,0,0,1.55l1.67,1.67a1.11,1.11,0,0,0,1.55,0,1.08,1.08,0,0,0,0,1.54L14,338.87a1.11,1.11,0,0,0,1.55,0,1.08,1.08,0,0,0,0,1.54l1.67,1.67a1.09,1.09,0,0,0,1.55,0,1.09,1.09,0,0,0,0,1.55l1.67,1.67a1.08,1.08,0,0,0,1.54,0,1.11,1.11,0,0,0,0,1.55l1.68,1.67a1.11,1.11,0,0,0,.73.32l-4.72,4.72a4.22,4.22,0,0,0-1.14,3.79v0C19.24,361.47,22.56,363.66,25.32,366.17Zm60.24,24.36c.4,3.77.9,7.53,1.45,11.27.18,1.28,0,1.83-1.46,1.6-4-.6-8-1.09-12-1.61A4.59,4.59,0,0,1,70.68,400L46.06,372c-2.33-2.66-4.59-5.4-7.06-7.93-1.44-1.47-1.85-2.53,0-3.9a24.91,24.91,0,0,0,2.64-2.6c3.9-4.29,4-4.38,8.31-.67,6.55,5.63,13,11.41,19.45,17.14,4.69,4.15,9.34,8.34,14,12.48A5.91,5.91,0,0,1,85.56,390.53ZM26.82,353.47c1.87-1.85,3.73-3.73,5.59-5.59h0c2.44-2.44,4.94-4.84,7.31-7.35,1.35-1.42,2.42-1.58,3.92-.14,4.17,4,4.21,4,.07,8.14S35.39,356.74,31.33,361c-1.58,1.64-2.76,1.87-4.46.1C22.94,356.94,22.73,357.49,26.82,353.47Z"/><path class="cls-6" d="M166.19,424.87c.06-.65.09-1.3.09-2a22.6,22.6,0,0,0-12.47-20.22A11.79,11.79,0,0,0,142.06,391H126.79a22.64,22.64,0,0,0-44.28,6.63,23.39,23.39,0,0,0,.41,4.3h-7.6A11.79,11.79,0,0,0,63.56,413.7v2.75a22.64,22.64,0,0,0,8.51,43.61v0h83.69a11.79,11.79,0,0,0,11.75-11.76V430.26A11.64,11.64,0,0,0,166.19,424.87Z"/><ellipse class="cls-1" cx="163.01" cy="247.4" rx="5.99" ry="12.2" transform="translate(-101.86 114.65) rotate(-30)"/><ellipse class="cls-1" cx="208.88" cy="266.76" rx="5.99" ry="12.2" transform="translate(-129.61 281.45) rotate(-54.42)"/><ellipse class="cls-1" cx="316.03" cy="249.25" rx="13.68" ry="7.2" transform="translate(-85.99 229.7) rotate(-35.48)"/><path class="cls-7" d="M451.57,167.15c-11.39,13.58-12.86,28.78-7.64,45.29,2.47,7.84,3.44,15.91,1.12,24-3,10.42-11.27,13.65-20.93,8.13-7.93-4.54-12-11.8-13.93-20.13-6.74-28.73,15.6-51.45,37.44-57.48a4.67,4.67,0,0,1,4,.21Z"/><path class="cls-2" d="M315.18,369.12c.55-.72.77-1,1-1.32,5.32-6.61,10.9-6.64,19.38-4.05,37.46,11.47,77.33-16.11,80.77-54.54a99.07,99.07,0,0,0-2.24-30.52c-2.06-9.37-2.55-18.76.72-28.37,3.36,2.05,6.39,4.16,9.65,5.79,2.16,1.08,2.09,2.72,1.9,4.38-.94,8.22.87,16.12,2.49,24.12,6.38,31.52-.4,58.85-26.8,79.36-24.54,19.07-60.8,21.64-85.2,6.39C316.37,370.06,315.93,369.68,315.18,369.12Z"/><path class="cls-5" d="M414.59,168.44a1.25,1.25,0,0,1-.24.16c.08-.14.17-.28.26-.42C414.6,168.27,414.63,168.4,414.59,168.44Z"/><path class="cls-5" d="M465.72,155.84a27,27,0,0,0-16-2.75c-9.67,1.09-18.06,5.18-25.88,10.46C399.52,180,386,210.89,401.52,239.63c1.51,2.79,1,5.19.15,7.79a57.3,57.3,0,0,0-1.8,29.79c1,4.75,1.86,9.53,2.41,14.34,2.32,20.36-2.73,38-19.57,51.16-9.63,7.55-25.62,11.46-38.77,9.36a6.32,6.32,0,0,1,3.47-5.65,67.74,67.74,0,0,0,14.53-12.06c15.12-16.17,21.47-34.84,15.39-56.65-3.27-11.72-10.2-21.26-18.88-29.66-1.4-.26-12.07-9.85-13.44-10.35-4.49-1.65,1.28,3.93-3.12,2.39-6.42-2.25-12.44,2.77-17.78,6.68-6.85,5-13.67,10.12-22.35,11.2-4.89.6-9.75-.48-14.61.08-3.71.44-7.09,2.42-10.31,4.19-8.16,4.5-16.18,9.56-25.5,11.27-9.88,1.81-19.73.64-29.31-2.2-9.09-2.69-17.81-6.46-27-8.73-9.69-2.38-19.48-4.42-28.19-9.52-7.36-4.31-14.2-10.53-22.33-13.34a20.61,20.61,0,0,0-11.85-.33c-3.65,1-6.62,3.62-9.86,5.45,0,0-.05,0-.07,0l.06,0c-10.39,9.65-20,19.55-26.35,32-9.36,18.34-11.58,37-.85,55.51,9.58,16.53,25.13,25,43,29.63,3.4.88,4.07,1.19,2.52,8.38a126.53,126.53,0,0,0-2.64,35.68c.45,6.36.24,8.48-4.2,9.49-17.69,4-27.66,15.5-30.29,33.23-1.52,10.22.89,18.91,15.66,18.63,26.45-.51,52.92-.13,79.38-.14,11,0,15.11-2.9,17.59-13.52,3.61-15.46,6.8-31,10.09-46.55.65-3.07,1-5.14,5.45-4.25a58,58,0,0,0,21.34.6c2.27-.4,2.71.49,3.12,2.54q4.8,24,9.91,48c2.09,9.87,7.83,13.81,18.7,13,25.69-1.91,51.5-2.54,77.12.13,8.43.88,13.76-3.61,14.12-11.52a40.72,40.72,0,0,0-9.35-28.28,10.1,10.1,0,0,1-1.19-1.26,9.54,9.54,0,0,0-1.06-1.14,8.78,8.78,0,0,1-1.07-1.13,14.66,14.66,0,0,0-2-2.12c-.17-.14-.34-.29-.5-.45l-.4-.26a8.09,8.09,0,0,1-1-.54,6,6,0,0,0-1.08-.52,8.73,8.73,0,0,1-1.08-.45,9.65,9.65,0,0,1-1.92-.78,7.56,7.56,0,0,0-1.21-.51c-4.51-1.44-6.75-5.72-6.74-10q-1.26-8.33-2-15.54l.65.07c23.3,2.23,44.37-3.92,63.47-16.84,3.6-3.25,7.42-6.29,10.77-9.77,23.07-24,28.82-52.54,22-84.33-1.3-6.06-2.68-12.09-2.71-18.32,0-2.24.18-4.06,2.8-5,11.71-4.32,16-14,18.12-25.09,1.69-8.82-.39-17.29-2.85-25.71-3.94-13.5-1.85-25.56,8.1-36C471,166.63,470.69,162.07,465.72,155.84ZM272.49,298.3c-12,7.05-21-.19-30.74-4.63C247.93,291.09,262.24,293.25,272.49,298.3Zm-26.4,10.5c10.93,5.89,21.41,5.79,32.19-.4,13-7.5,24.42-17.26,36.6-25.93,2-1.42,4-3.65,1.92-6.32s-5.25-2.92-8.14-1.32c-8.57,4.75-17,9.79-24.87,16.32-3.89-6.14-11-7-18.68-9.84a108.72,108.72,0,0,0,19.79-13.94,1.53,1.53,0,0,1,2.17-.08c8.08,5.5,16.25,3,24.23-.14,9.11-3.62,16.61-9.68,23.4-16.67,1.56-1.61,2.94-3.16,5.43-1.24,15.67,12,27.66,26.17,26.34,47.51-.82,13.24-7.81,23.48-17.32,32.09a97.23,97.23,0,0,1-24.38,16.32c-17.17,7.95-35.28,9.63-53.9,7.68-33.5-3.49-61.07-19.25-85.57-41.34-5.8-5.21-11.47-10.56-17.54-16.15,17.14-8.53,33.51-7.38,50.05-.14C227.41,299.42,236.89,303.84,246.09,308.8ZM141.23,350.07c-14.87-3.91-28.35-11.49-35.75-26.19-6.73-13.39-5.22-26.94,1.5-39.73a86.61,86.61,0,0,1,33.45-35.39c3.69-2.15,5.59-1.84,8.47,1.57,10,11.88,22.64,19.32,38.58,20.09,1.16.06,2.69.36,3.42-.23,4.53-3.65,7.74-.36,10.79,2.1,3.38,2.72,7.46,4,11.41,6.58-2.64,1.84-4.67.22-7-.27-12.46-2.62-24.76-2-36.7,2.82-1.22.5-2.48.94-3.66,1.55-2,1-2.81.59-3.43-1.66-.81-2.93-1.13-7.34-4.53-7.55-3-.19-3.69,4.18-5,6.7-2.62,4.92-5.31,9.25-11.52,10.51-3.89.79-4.69,4.72-4,8.07.71,3.66,4,3.54,6.88,2.88,7.62-1.74,13.48,1.13,18.94,6.24,13.58,12.69,27,25.64,44.09,35.41-7.64,3.59-15.12,5.08-22.57,6.7C170.08,353.4,155.31,353.78,141.23,350.07ZM363.35,450.55c.28,2.45-.15,3.74-3,3.57a104.68,104.68,0,0,0-11.48,0c-2.73.13-3.37-1-3.38-3.5a22.19,22.19,0,0,0-3.56-11.77c-.76-1.22-1.73-2.18-3.21-1.86-1.79.39-2.26,1.88-2.13,3.48.29,3.48.63,6.95,1.08,10.41.32,2.41-.6,3.24-3,3.23-17.15-.07-34.29-.12-51.43,0-3,0-3.52-1.49-4-3.81-3.82-18.7-7.81-37.36-11.48-56.09-.67-3.4-2-4.37-5.29-4.18-17.68,1.06-35.21.26-52.4-4.62-2.19-.63-5.61-1.9-6.88.72s1.91,4.5,3.58,6.43a4.19,4.19,0,0,0,2,1.47c6.69,1.38,5.93,5.74,4.83,10.8-3.09,14.23-6.06,28.51-8.66,42.84-.94,5.15-3.22,6.61-8.34,6.51-17.3-.32-34.61-.22-51.92,0-3.78,0-4.63-1.28-3.86-4.62.71-3.07,1.33-6.17,1.83-9.28.18-1.11.13-2.44-1.18-3s-2.23.1-3.17.87a15.47,15.47,0,0,0-5.51,11.34c-.29,4-2,5.17-5.67,4.67a27,27,0,0,0-3.49,0c-7.62-.05-7.66-.06-5.86-7.35,2.41-9.82,8.86-15.68,18.38-18.43,2.23-.65,4.48-1.24,6.75-1.74,7.51-1.67,7.3-1.67,7.84-9.43,1.12-16.41,2.5-32.8,3.72-49.21.18-2.42.9-3.4,3.64-3.24A116.32,116.32,0,0,0,215,353.35c3.6-1.68,6.49-1.53,10.18.09,34.55,15.21,69.53,18.54,105,3,.12-.05.31.06,1.12.23-1.08,22.25,3.11,44.08,4.25,66.13.11,2.15.92,3.39,3,3.87,1.78.39,3.51,1,5.28,1.44C355.57,431.11,362,438.54,363.35,450.55ZM402,364c-16.29,12.65-37.74,18-57.46,15.74-.38-5.44-.57-10.14-.66-14.06,34.81,5.39,69.22-20.87,72.4-56.45a99.31,99.31,0,0,0-2.23-30.51c-2.07-9.37-2.56-18.77.71-28.38,3.36,2.06,6.39,4.16,9.65,5.79,2.16,1.08,2.09,2.72,1.9,4.38-.94,8.22.87,16.12,2.49,24.12C435.2,316.11,428.42,343.43,402,364Zm41.91-151.51c2.47,7.84,3.45,15.91,1.12,24-3,10.41-11.27,13.65-20.93,8.13-7.93-4.54-12-11.81-13.93-20.13-6.74-28.73,15.6-51.45,37.44-57.48a4.74,4.74,0,0,1,3.93.18C440.18,180.75,438.72,195.94,443.93,212.44Z"/><path class="cls-1" d="M331.29,356.68c-1.08,22.25,3.11,44.08,4.25,66.13.11,2.15.92,3.39,3,3.87,1.78.39,3.51,1,5.28,1.44,11.71,3,18.14,10.42,19.49,22.43.28,2.45-.15,3.74-3,3.57a104.68,104.68,0,0,0-11.48,0c-2.73.13-3.37-1-3.38-3.5a22.19,22.19,0,0,0-3.56-11.77c-.76-1.22-1.73-2.18-3.21-1.86-1.79.39-2.26,1.88-2.13,3.48.29,3.48.63,6.95,1.08,10.41.32,2.41-.6,3.24-3,3.23-17.15-.07-34.29-.12-51.43,0-3,0-3.52-1.49-4-3.81-3.82-18.7-7.81-37.36-11.48-56.09-.67-3.4-2-4.37-5.29-4.18-17.68,1.06-35.21.26-52.4-4.62-2.19-.63-5.61-1.9-6.88.72s1.91,4.5,3.58,6.43a4.19,4.19,0,0,0,2,1.47c6.69,1.38,5.93,5.74,4.83,10.8-3.09,14.23-6.06,28.51-8.66,42.84-.94,5.15-3.22,6.61-8.34,6.51-17.3-.32-34.61-.22-51.92,0-3.78,0-4.63-1.28-3.86-4.62.71-3.07,1.33-6.17,1.83-9.28.18-1.11.13-2.44-1.18-3s-2.23.1-3.17.87a15.47,15.47,0,0,0-5.51,11.34c-.29,4-2,5.17-5.67,4.67a27,27,0,0,0-3.49,0c-7.62-.05-7.66-.06-5.86-7.35,2.41-9.82,8.86-15.68,18.38-18.43,2.23-.65,4.48-1.24,6.75-1.74,7.51-1.67,7.3-1.67,7.84-9.43,1.12-16.41,2.5-32.8,3.72-49.21.18-2.42.9-3.4,3.64-3.24A116.32,116.32,0,0,0,215,353.35c3.6-1.68,6.49-1.53,10.18.09,34.55,15.21,69.53,18.54,105,3C330.29,356.4,330.48,356.51,331.29,356.68Z"/><path class="cls-1" d="M167.76,295.35c17.14-8.53,33.51-7.38,50.05-.14,9.6,4.21,19.08,8.63,28.28,13.59,10.94,5.89,21.41,5.79,32.19-.4,13-7.5,24.42-17.26,36.6-25.93,2-1.42,4-3.65,1.92-6.32s-5.25-2.92-8.14-1.32c-8.57,4.75-17,9.79-24.87,16.32-3.89-6.14-11-7-18.68-9.84a108.72,108.72,0,0,0,19.79-13.94,1.53,1.53,0,0,1,2.17-.08c8.08,5.5,16.25,3,24.22-.14,9.12-3.62,16.62-9.68,23.41-16.67,1.56-1.61,2.94-3.16,5.43-1.24,15.67,12,27.66,26.17,26.34,47.51-.82,13.24-7.81,23.48-17.32,32.09a97.23,97.23,0,0,1-24.38,16.32c-17.17,7.95-35.28,9.63-53.9,7.68-33.5-3.49-61.07-19.25-85.57-41.34C179.51,306.28,173.83,300.94,167.76,295.35Z"/><path class="cls-1" d="M213.1,278.87c-2.64,1.84-4.67.22-7-.27-12.46-2.62-24.76-2-36.7,2.82-1.22.5-2.48.94-3.66,1.55-2,1-2.81.59-3.43-1.66-.81-2.93-1.13-7.34-4.53-7.55-3-.19-3.69,4.18-5,6.7-2.62,4.92-5.31,9.25-11.52,10.51-3.89.79-4.69,4.72-4,8.07.71,3.66,4,3.54,6.88,2.88,7.62-1.74,13.48,1.13,18.94,6.24,13.58,12.69,27,25.64,44.09,35.41-7.64,3.59-15.12,5.08-22.57,6.7-14.46,3.13-29.23,3.51-43.31-.2-14.87-3.91-28.35-11.49-35.75-26.19-6.73-13.39-5.22-26.94,1.5-39.73a86.61,86.61,0,0,1,33.45-35.39c3.69-2.15,5.59-1.84,8.47,1.57,10,11.88,22.64,19.32,38.58,20.09,1.16.06,2.69.36,3.42-.23,4.53-3.65,7.74-.36,10.79,2.1C205.07,275,209.15,276.33,213.1,278.87Z"/><path class="cls-1" d="M272.49,298.3c-12,7.05-21-.19-30.74-4.63C247.93,291.09,262.24,293.25,272.49,298.3Z"/><path class="cls-2" d="M395.3,150.41l-19.6-32.64c0-.26-.07-.52-.11-.78-.07-.52-.15-1-.22-1.55l-.3-2.11-.21-1.47c-.14-1-.29-2.1-.43-3.15-.08-.59-.17-1.18-.25-1.77l-.27-2c-.08-.58-.17-1.16-.25-1.73s-.17-1.22-.26-1.83-.17-1.15-.26-1.72l-.27-1.8c-.09-.59-.19-1.19-.29-1.78s-.18-1.15-.28-1.73-.2-1.19-.31-1.79l-.3-1.71c-.11-.6-.23-1.21-.35-1.81s-.21-1.12-.32-1.68-.26-1.23-.4-1.84-.22-1.09-.35-1.64-.29-1.24-.44-1.86-.24-1.07-.38-1.6-.33-1.27-.5-1.9L368.54,77c-.18-.63-.38-1.27-.57-1.9s-.29-1-.45-1.53c-.21-.66-.44-1.32-.66-2-.16-.48-.31-1-.47-1.43-.27-.75-.55-1.49-.83-2.23-.15-.39-.28-.78-.43-1.16-.44-1.13-.91-2.25-1.39-3.37a3.48,3.48,0,0,1-.31-1.3s0,0,0-.08a6.19,6.19,0,0,1,.66-2.67c.09-.22.2-.44.3-.66s.22-.44.32-.66A67.56,67.56,0,0,0,370,43.15a59,59,0,0,0,1.2-7.7c.12-1.3.19-2.6.22-3.91s0-2.63,0-3.95c0-1.12,0-2.24,0-3.36s0-2.24-.06-3.35-.14-2-.25-2.87a27.86,27.86,0,0,0-1.28-5.88,16.42,16.42,0,0,0-.79-1.84,11.19,11.19,0,0,0-.94-1.55A8.67,8.67,0,0,0,366.38,7a8.56,8.56,0,0,0-4.65-1.7,15.9,15.9,0,0,0-4,.24l-1.13.23c-.77.18-1.57.4-2.41.66a54,54,0,0,0-6.93,2.81c-2.67,1.27-5.25,2.64-7.76,4.09-3.33,1.93-6.53,4-9.63,6.2s-6.1,4.48-9,6.85c-3.67,3-7.23,6-10.75,9.14a19,19,0,0,1-4.55,3.06,13.25,13.25,0,0,1-3.86,1.11l-.4.06a16.42,16.42,0,0,1-3.62-.07c-1.44-.19-2.88-.35-4.32-.52a171.51,171.51,0,0,0-106.08-.58c-1.45.16-2.91.3-4.36.47a34.91,34.91,0,0,1-6.77.19,22.36,22.36,0,0,1-10.75-3.62,33.45,33.45,0,0,1-4.72-3.74q-4.12-3.85-8.53-7.4a131.47,131.47,0,0,0-14-9.8q-4.92-3-10.2-5.51-2.64-1.27-5.38-2.41a23.12,23.12,0,0,0-5.13-1.53,14.2,14.2,0,0,0-3-.18h0a10.4,10.4,0,0,0-1.38.15,9.68,9.68,0,0,0-2.48.77c-3,1.46-5.08,4.59-5.8,9.23a84,84,0,0,0-1,10.65c0,.88,0,1.76,0,2.64,0,1.76.09,3.51.24,5.26a68.37,68.37,0,0,0,6,23.18c.84,1.83,1.62,3.57,1.46,5.49a6.72,6.72,0,0,1-.51,2c-6.59,15.46-9.91,31.52-11.67,47.92a113.05,113.05,0,0,1-1.88,12.55,47.37,47.37,0,0,1-3.75,10.94l-8.79,14.64a4.69,4.69,0,0,0-.67,2.67,5.87,5.87,0,0,0,0,.83c1.82,11.32,8.81,21.19,18.82,27.73a36.94,36.94,0,0,0,.6,29.87c1.34,2.91,5.32,4.11,8.43,2.54l15-7.54c-1.65,13.6,4.41,27.44,16.85,36.55a6.44,6.44,0,0,0,8.81-1.22l7.83-11c3.92,14.66,16.72,26.71,33.81,30.87,3.46.84,7-1.19,7.44-4.3l.69-4.49c7.54,11,20.65,18.66,35.81,20.12a22.67,22.67,0,0,1,3.56,0c15.17-1.46,28.28-9.14,35.82-20.12l.68,4.49c.48,3.11,4,5.14,7.44,4.3,17.09-4.16,29.9-16.21,33.81-30.87l7.84,11a6.44,6.44,0,0,0,8.81,1.22c12.44-9.11,18.49-22.95,16.85-36.55l15,7.54c3.11,1.57,7.09.37,8.44-2.54a37,37,0,0,0,.6-29.87c10-6.54,17-16.41,18.82-27.73a4.66,4.66,0,0,0,0-.83A4.54,4.54,0,0,0,395.3,150.41Z"/><path class="cls-5" d="M399.62,147.89,384.3,122.36l-3.4-5.65c-.26-.43-.51-.88-.78-1.3-.37-.59.22,1.14.32.44a7,7,0,0,0-.25-1.74c-.12-.78-.22-1.57-.33-2.35-1.65-11.76-3.17-23.54-6.23-35-.7-2.66-1.52-5.29-2.42-7.88-.43-1.23-.89-2.46-1.37-3.67-.34-.86-.7-1.71-1.06-2.57a7.26,7.26,0,0,0-.43-1s.15.72.07.48c0,.05-.34,1.21.07-.28,0-.16.42-1,.05-.2l.61-1.26c.84-1.73,1.61-3.49,2.33-5.27a67.31,67.31,0,0,0,2.95-8.87,77,77,0,0,0,2-19.13c0-6.27,0-12.53-2.61-18.38a14,14,0,0,0-6.1-6.79A16.64,16.64,0,0,0,357.44.51c-6.07.84-11.86,3.75-17.2,6.61-11.22,6-21.27,14-30.85,22.3-1.11,1-2.19,1.94-3.31,2.89a20.33,20.33,0,0,1-3,1.84c.5-.21-.46.15-.57.18-.32.1-.64.19-1,.26s-.67.14-1,.19c-.68.1.1-.05.18,0-1.58-.06-3.09-.12-4.67-.31a14.57,14.57,0,0,1-3.76-.91c-1.47-.47-2.94-.92-4.42-1.35Q283.68,31,279.39,30a178.23,178.23,0,0,0-74.76-1.12,163.76,163.76,0,0,0-17.18,4.38l-1,.33c.59-.18-.12.08-.28.11-.71.13-1.46.15-2.18.23-1.54.16-3.08.34-4.63.38a26.69,26.69,0,0,1-4.29-.18c.82.11-1-.22-1.2-.26-.64-.15-1.27-.32-1.9-.53-.17,0-1.86-.75-1.06-.38-.59-.28-1.17-.57-1.74-.89s-1.15-.68-1.7-1.05c-.3-.2-.58-.4-.87-.61l-.27-.21c-2.51-2-4.78-4.32-7.23-6.41a145.4,145.4,0,0,0-15.27-11.45A120.4,120.4,0,0,0,127.5,3.44c-5.78-2.57-12.22-4.92-18.44-2.29-5.48,2.31-8.39,7.57-9.25,13.27A83.53,83.53,0,0,0,99,33.7a73.69,73.69,0,0,0,3.81,18.52c.52,1.49,1.1,3,1.71,4.41.36.84.71,1.67,1.08,2.5.16.34.32.67.46,1,.36.86-.27-1,.19.54.09.33.2.65.27,1,0-.22,0-.87,0,.18,0,.18-.13,1,0,.17,0,0-.26.72-.11.43a51.56,51.56,0,0,0-2,4.91A162.42,162.42,0,0,0,95.45,103c-.91,6.41-1.32,12.69-2.5,18.76-.83,4.25-1.92,8.7-4,12.16-2.72,4.52-5.47,9-8.15,13.57-2.51,4.26-1.46,9,0,13.46a46.5,46.5,0,0,0,8.06,14.64A50.28,50.28,0,0,0,100.53,186l-2.29-5.64a41.28,41.28,0,0,0-2.94,18.32,42.9,42.9,0,0,0,1.88,10c.94,2.91,2,6.21,4.39,8.28,4,3.5,9.2,3.42,13.74,1.13l7.62-3.84,6.65-3.35-7.52-4.32c-1.41,12.31,3.15,24.57,11.3,33.73,4.3,4.84,10.17,10.47,17.2,8.67,4.26-1.09,6.36-4.39,8.72-7.7l5.59-7.82-9.14-1.19a46.23,46.23,0,0,0,15.75,23.72,56.64,56.64,0,0,0,13.89,8.14c5.12,2.11,11.37,4.42,16.53,1.22a10.12,10.12,0,0,0,4.77-6.82c.23-1.39.43-2.79.64-4.18l-9.14,1.19a53.35,53.35,0,0,0,30.31,20.91,47.59,47.59,0,0,0,10.13,1.71,43.57,43.57,0,0,0,10.95-1.2,55.57,55.57,0,0,0,17.38-7.06A51.68,51.68,0,0,0,282,255.47l-9.14-1.19c.53,3.46.74,6.85,3.43,9.47a11.29,11.29,0,0,0,8.61,3.14,31.82,31.82,0,0,0,8.16-2.15,53,53,0,0,0,24.5-18.21,43.75,43.75,0,0,0,6.88-14.33l-9.14,1.19L320,240c2,2.79,3.92,6.32,7.05,7.93a12,12,0,0,0,10.62.08,21.82,21.82,0,0,0,4.12-3,45.81,45.81,0,0,0,3.49-3.19,47.21,47.21,0,0,0,10.21-15.74,41,41,0,0,0,2.6-19.6l-7.52,4.32,13.61,6.86a29,29,0,0,0,2.94,1.37,11.58,11.58,0,0,0,9.27-.65c3.18-1.64,4.57-4.49,5.82-7.67a39.61,39.61,0,0,0,2.32-9.27,41.77,41.77,0,0,0-2.62-21.16l-2.3,5.64a50.36,50.36,0,0,0,15.54-15.82,44.64,44.64,0,0,0,4.41-9.88c1.26-4.1,2.17-8.39,0-12.36a5,5,0,0,0-6.84-1.8,5.1,5.1,0,0,0-1.79,6.84c-.38-.7.11.52,0-.09s0,.62,0,.65c0-.49.08-.49,0,0s-.15.77-.23,1.15a37.18,37.18,0,0,1-1.13,4l-.39,1.1c0,.1-.49,1.24-.27.69s-.17.39-.21.47c-.16.36-.33.71-.5,1a37.41,37.41,0,0,1-2.17,3.86c-.37.59-.77,1.18-1.17,1.75l-.56.76c.5-.68-.13.16-.23.29-.94,1.16-1.95,2.28-3,3.35s-2.08,2-3.19,2.91c0,0-1,.8-.62.51s-.69.51-.66.49c-.66.48-1.33.94-2,1.39-1.68,1.11-3.15,3.55-2.3,5.65a32.24,32.24,0,0,1,2.63,14.84c0,.64-.09,1.27-.15,1.91-.1,1-.06.53,0,.3q-.08.54-.18,1.08a34.92,34.92,0,0,1-1,4c-.32,1.09-.84,2.58-1.19,3.4,0,.09-.41.83-.6,1.14.11-.18.66-.7,0-.12.29-.26.53-.4.07-.06-.65.48-.14.1.12,0-.26.1-.52.16-.78.24s-.72,0-.14,0c.75,0-.3,0-.37,0-.3-.22.08,0,.29,0-.25-.08-.56-.16-.81-.22,0,0,.58.25.34.14-.62-.29-1.22-.62-1.83-.93L361.2,205l-5.57-2.81a5.17,5.17,0,0,0-5,0,4.92,4.92,0,0,0-2.48,4.32,38.16,38.16,0,0,1,.13,7.48c0,.3-.05.6-.08.9,0,.14-.15,1.08-.05.45s-.06.31-.09.46-.1.59-.16.89c-.25,1.26-.56,2.51-.93,3.74s-.77,2.32-1.24,3.44c.38-.9-.35.73-.43.91q-.47.94-1,1.86c-.61,1.1-1.26,2.16-2,3.2l-1,1.36c-.58.79-.23.29-.09.12-.3.38-.61.75-.92,1.12a44.79,44.79,0,0,1-5.83,5.69c-.08.06-.9.69-.5.39l-.31.23a7.68,7.68,0,0,0-.71.45c.54-.44.45-.12,0,0s-.53.14-.81.19c1.1-.19.33-.06.1-.09-1-.16,0,0,.11,0-.31-.08-1.26-.52-.34,0-.24-.13-.47-.25-.7-.39.19.11.67.66.08,0s.39.63.22.32-.37-.51-.55-.76L328.66,235l-4.73-6.62a5.08,5.08,0,0,0-5-2.38,5,5,0,0,0-4.16,3.58c-.25.94-.54,1.87-.86,2.79-.14.39-.28.78-.44,1.17s-.2.52-.31.78c.18-.42.23-.51,0-.05a43.68,43.68,0,0,1-2.82,5.16c-.54.84-1.12,1.63-1.7,2.44.5-.7-.05.07-.27.33-.36.44-.73.88-1.11,1.3a43.44,43.44,0,0,1-4.32,4.26c-.39.34-.78.67-1.18,1l-.52.41c.16-.12.73-.54,0,0s-1.7,1.21-2.58,1.77a48.59,48.59,0,0,1-5.57,3.07l-.84.39s-.74.33-.26.12-.22.09-.26.1l-.87.35c-1,.39-2.08.75-3.13,1.08s-2.15.63-3.24.9c-.87.21.41.11-.46,0-1.05-.13-.09,0,0,0-.27-.09-.55-.15-.82-.25.24.09.79.43.08,0,.35.23.48.35.05,0s-.26-.61,0,.09c-.23-.55-.09-.23,0,.13-.11-.54-.23-1.06-.31-1.61l-.56-3.67c-.29-1.91-2.42-3.35-4.15-3.58a5.12,5.12,0,0,0-5,2.39l-.5.72s-.83,1.12-.4.55-.21.26-.29.36l-.57.68a42.11,42.11,0,0,1-2.88,3.09c-.85.84-1.75,1.64-2.67,2.41-.15.12-1.53,1.2-.76.62-.61.46-1.23.9-1.86,1.33a49.43,49.43,0,0,1-7.27,4.09l-.87.38c.2-.08.81-.32-.11,0-.59.24-1.18.47-1.78.68-1.36.49-2.74.92-4.13,1.29s-2.69.67-4.06.92q-1.1.21-2.19.36l-.16,0c-.53,0-1.07.13-1.6.13a36.72,36.72,0,0,1-4.45-.19c.83.1,0,0-.15,0l-1.22-.2c-.73-.13-1.45-.27-2.17-.43A54.28,54.28,0,0,1,225,264.7c-.14-.05-.88-.37-.12,0l-.86-.38c-.57-.26-1.13-.53-1.69-.81-1.25-.63-2.47-1.3-3.65-2s-2.57-1.66-3.79-2.58c.69.52.06.05-.06-.05-.36-.28-.71-.57-1-.86q-.86-.74-1.68-1.5c-1.08-1-2.12-2.08-3.1-3.2-.43-.5-.85-1-1.27-1.53-.53-.67.66.93-.15-.22-.26-.36-.52-.71-.77-1.07a5.07,5.07,0,0,0-5-2.39c-1.77.24-3.86,1.66-4.16,3.58l-.47,3.14c-.07.44-.12.89-.2,1.32s-.12.55-.2.82c0-.14.36-1,0-.13.16-.38.47-.44,0-.09-.2.16-.73.47.06,0-.07,0-.67.42-.15.12s-1.38.26-.12.13c-.33,0-1.32,0-.45.11a14.67,14.67,0,0,1-1.85-.45,50.74,50.74,0,0,1-6.26-2.14c.83.35-.49-.23-.72-.34l-1.45-.7c-1-.48-1.88-1-2.8-1.53s-1.79-1.09-2.66-1.68l-1.1-.77-.71-.52c.39.29.29.23,0,0a47.58,47.58,0,0,1-4.51-4.12c-.7-.72-1.36-1.47-2-2.24-.27-.33-.54-.66-.8-1,.63.8-.33-.46-.49-.69a40.72,40.72,0,0,1-3.41-5.81c-.12-.26-.77-1.72-.35-.71-.18-.45-.36-.91-.53-1.36-.41-1.11-.77-2.24-1.08-3.38a5,5,0,0,0-4.15-3.58,5.13,5.13,0,0,0-5,2.38l-4,5.61-2.7,3.79c-.28.39-.57.77-.84,1.17-.7,1,.78-.66,0,0-.27.23-.62.34.09,0-.24.12-.46.27-.7.39.2-.1.91-.28,0-.08-.34.08-.79,0,.13,0-.27,0-.56,0-.82,0,.2,0,1,.27.1,0a7.15,7.15,0,0,1-.79-.23c.66.25.28.09-.11-.17-.1-.07-.87-.64-.49-.35l-.29-.23c-.53-.43-1-.86-1.55-1.3a44.42,44.42,0,0,1-3.19-3.1c-.44-.47-.87-1-1.29-1.45-.21-.24-.41-.49-.62-.74-.08-.1-.58-.75-.1-.12-.77-1-1.48-2.05-2.15-3.12s-1.26-2.15-1.81-3.26c-.28-.55-.54-1.11-.79-1.67.36.79,0,.07,0-.08-.16-.43-.33-.85-.48-1.29a35.38,35.38,0,0,1-1.18-3.92c-.16-.66-.3-1.33-.42-2-.05-.29-.09-.59-.15-.89-.12-.59.07.73,0-.24a39.25,39.25,0,0,1,0-8.6,4.92,4.92,0,0,0-2.48-4.32,5.19,5.19,0,0,0-5.05,0l-12.25,6.18c-.8.4-1.61.78-2.4,1.21l-.31.16c1.14-.56-.92.14-.17,0s-.33.07-.37,0c-.29,0-.28,0,0,0l-.15,0a3,3,0,0,0-.58-.17c-.7-.06.77,0,.1,0-.13,0-.4-.24-.51-.31.82.55.33.16.13,0,.16.12.29.66.19.22a4.43,4.43,0,0,0-.4-.78c-.12-.26-.35-.84-.58-1.45a37.73,37.73,0,0,1-1.15-3.75c-.16-.63-.3-1.26-.43-1.89-.07-.36-.13-.72-.19-1.08l-.09-.54c0,.33,0,.32,0,0a32.46,32.46,0,0,1,2.45-17c.85-2.11-.6-4.53-2.3-5.65-.81-.54-2.32-1.6-2.67-1.88.42.33-.36-.29-.44-.36l-.74-.62c-.55-.47-1.08-1-1.61-1.44-.87-.82-1.7-1.67-2.5-2.56-.37-.41-.73-.82-1.09-1.25l-.6-.73c-.55-.68.09.14-.22-.29A43.17,43.17,0,0,1,92,162q-.4-.82-.78-1.68c.38.88-.29-.79-.35-1-.42-1.17-.79-2.36-1.09-3.56q-.24-.92-.42-1.83c0-.23-.07-.47-.13-.69-.18-.75-.06.7,0,0,0-.15.06-1.05,0-.44s.06-.18.11-.23c-.1.11-.17.44,0,.25.42-.64.79-1.32,1.18-2l4.65-7.75c1-1.61,2-3.19,2.91-4.84,3-5.42,4.38-11.74,5.28-17.79.49-3.31.84-6.63,1.22-10,.36-3.14.63-5.14,1.13-8.33a176.34,176.34,0,0,1,3.71-17.66,141.54,141.54,0,0,1,5.78-17.26l.2-.48c-.24.59.47-1.08.58-1.39a11.29,11.29,0,0,0,.56-2.82,11.78,11.78,0,0,0-.67-4.85c-1.07-3.05-2.33-5.29-3.35-8.21A67.37,67.37,0,0,1,110,40.74a50.49,50.49,0,0,1-1.08-7.92,67.2,67.2,0,0,1,.84-17.35,17.57,17.57,0,0,1,.49-1.86l.22-.64c.23-.72-.37.6,0,0,.25-.41.47-.85.71-1.26.47-.78.07-.09-.07.06.26-.29.53-.55.79-.83.08-.08.58-.49.08-.09s.11-.07.26-.15,1.16-.54.57-.33c.33-.12.67-.2,1-.29,1-.28.38-.06.1,0a13.78,13.78,0,0,1,1.7,0c.25,0,.5,0,.75.05-.73-.07.07,0,.19,0,.67.14,1.34.29,2,.49A27.9,27.9,0,0,1,122.18,12q4.27,1.89,8.4,4.12a127,127,0,0,1,14.95,9.55c2.22,1.65,4.35,3.37,6.69,5.38s4.45,4.12,6.78,6a30.13,30.13,0,0,0,16.55,7.09,43.94,43.94,0,0,0,8.95-.32,29.05,29.05,0,0,0,4.57-.63c1.49-.43,3-.93,4.44-1.36a158.09,158.09,0,0,1,34.05-6,174.87,174.87,0,0,1,18.6-.27q4.65.18,9.29.6c2.87.27,5.71.6,8.05,1a165.67,165.67,0,0,1,17.25,3.49q4.11,1.06,8.14,2.34a28,28,0,0,0,5,1.26c1.6.19,3.2.44,4.8.55a18.87,18.87,0,0,0,9.09-1.79c2.87-1.3,5.2-3.43,7.55-5.49,4.51-4,9.25-7.94,13.86-11.37a130.37,130.37,0,0,1,15.31-9.91c1.28-.7,2.58-1.37,3.89-2,.71-.35,1.42-.69,2.14-1s1.15-.53,1.63-.73c1.16-.47,2.35-.9,3.55-1.27a26.63,26.63,0,0,1,3.7-.88c-.51.05.52,0,.62,0h.74c.31,0,.63,0,.94,0-.7-.08.13,0,.23.07a8.3,8.3,0,0,1,1,.29c-.24-.1-.66-.36.12.11,0,0,.67.45.29.16s.5.51.59.6c-.42-.44,0,0,.11.14q.25.39.48.78c.15.28.29.56.43.85-.1-.21-.27-.76.07.21a26.34,26.34,0,0,1,1,3.72,25.71,25.71,0,0,1,.38,3.4c.1,1.5.09,3,.07,4.49,0,2.9.1,5.81-.08,8.71a48.06,48.06,0,0,1-1.28,8.6,66,66,0,0,1-2.78,8.9c-.9,2.28-2.44,4.93-3.34,7.55a9.43,9.43,0,0,0-.28,5.05,30.05,30.05,0,0,0,1.65,4.24c4.07,10.61,6.32,21.71,8,32.92.85,5.66,1.58,11.35,2.41,17a11.09,11.09,0,0,0,1.88,4.27l16.94,28.21,1.44,2.39a5,5,0,1,0,8.63-5Z"/><path class="cls-7" d="M213.77,138.64c3.39,10.89,12.3,16.06,21.65,20.69a7.88,7.88,0,0,0,4.25.36c7.94-1.05,21.18-13.2,23.2-21.17a23.1,23.1,0,0,0-11.4-9.16,36,36,0,0,0-14.19-2.52l-.37,0a35.2,35.2,0,0,0-4.23.4C225.08,128.43,218,132.08,213.77,138.64Z"/><path class="cls-8" d="M226.61,133.72c1.62,5.2,5.87,7.66,10.33,9.87a3.71,3.71,0,0,0,2,.17c3.79-.5,10.1-6.29,11.07-10.09a11,11,0,0,0-5.44-4.37,17,17,0,0,0-6.77-1.2h-.17a17,17,0,0,0-2,.19A12.79,12.79,0,0,0,226.61,133.72Z"/><path class="cls-3" d="M306.51,58.2c-10.18,7.57-23.82-1.33-34,2.14a14.7,14.7,0,0,1-9.86-.17,77,77,0,0,0-53.91.14,13.11,13.11,0,0,1-9.11.17c-10.2-3.84-24.06,5.38-34.36-2.28-38-28.26-47.53,15.3-47.53,46.92,0,23.25,15,54.16,35.81,66.29a28,28,0,0,1,13.38,17.86c8.31,36.3,30.49,53.38,68.95,53.46,38.47-.08,60.64-17.16,69-53.46a28,28,0,0,1,13.38-17.86C339,159.28,354,128.37,354,105.12,354,73.5,344.53,29.94,306.51,58.2Z"/><path class="cls-9" d="M174.74,94.39c-17.28.12-31,14.42-30.94,32.37,0,18.66,14.2,33.13,32.4,33.05,17-.07,29.94-13.95,30-32.29C206.35,108.89,192.44,94.26,174.74,94.39Z"/><path class="cls-9" d="M303.78,94.33c-18.12-.2-32.33,14.37-32.25,33.06.07,18.49,13.18,32.38,30.55,32.4,17.76,0,32.07-14.86,32.13-33.4C334.27,108.83,320.67,94.51,303.78,94.33Z"/><path class="cls-10" d="M195.9,118.82c-2.23-9.94-8.43-16.34-15.9-16s-14.08,8.07-15.34,17.75c-.21,1.63-.24,3.29-.37,5.17.16,1.83.19,3.92.55,5.93,1.61,9,8,16,14.7,16.33,7,.38,13.51-5.44,15.92-14.5A30.23,30.23,0,0,0,195.9,118.82Z"/><path class="cls-10" d="M310.39,100.94c-6.74-.21-12.75,5-15.33,13.52a28.26,28.26,0,0,0-1.41,9.1,29.69,29.69,0,0,0,3.7,14.05c6.49,11.28,20.92,9.86,26.29-2.21a29.35,29.35,0,0,0,1.29-20.49C322.59,106.72,316.75,101.15,310.39,100.94Z"/><circle class="cls-11" cx="171.02" cy="111.74" r="9.61"/><circle class="cls-11" cx="302.03" cy="109.66" r="9.61"/><path class="cls-5" d="M156.49,81.26c7.53-5.55,17.45-6.18,26.1-2.63,6.48,2.65,12.47,1.46,13.85-5.06.92-4.37-2.35-9.16-7.21-9.95a81.3,81.3,0,0,0-39,3.19c-9.14,4.34-11.19,7.57-9.18,12.3C143.79,85.44,149.88,86.13,156.49,81.26Z"/><path class="cls-5" d="M315.71,93.79c-8-4.88-17.91-4.65-26.23-.38-6.22,3.2-12.29,2.53-14.23-3.85C274,85.29,276.8,80.24,281.58,79a81.26,81.26,0,0,1,39.1-.17c9.48,3.53,11.8,6.57,10.2,11.46C328.73,96.86,322.72,98.07,315.71,93.79Z"/><path class="cls-5" d="M202.07,110.28a31.36,31.36,0,0,0-55,0l8.21-.86a184.53,184.53,0,0,1,38.75,0Z"/><path class="cls-5" d="M330.24,110.29A30.39,30.39,0,0,0,303.91,94a31.11,31.11,0,0,0-27.86,16.32l8-.86a178.5,178.5,0,0,1,38.11,0l8.08.86Z"/><path class="cls-5" d="M264.41,207.21c-9.71-.67-18.63-2.78-25.78-9.08-2.81-2.49-4.26-2.19-6.87,0-10.89,8.94-23,11.88-36.64,6.92-9.05-3.31-14.33-9.58-14.29-16.74,0-2.55.25-5.08,2.74-6.3,2.81-1.38,4.48,1,6.19,2.64C200.43,194.53,211,195.38,222,187c2.55-1.94,4.67-4.12,5-7.71.41-4.1-.19-6.91-4.6-8.77a42,42,0,0,1-10.66-7.14c-5.41-4.68-9.61-10.29-7.91-18,1.78-8.13,8.12-12.13,15.4-13.91A57.63,57.63,0,0,1,253,133.3c12.41,4.5,15.37,17.17,6.63,27-3.39,3.83-7.67,6.49-12.14,8.91-5.82,3.14-7,9.71-2.8,14.93,8.78,11,29.38,11.44,38.54.83,1.22-1.42,2.46-2.82,3.75-4.17,2.77-2.91,6.22-3.88,9.63-1.8,3.82,2.34,3,6.21,1.49,9.52-5.07,10.86-14.95,15-25.68,17.74A56,56,0,0,1,264.41,207.21Zm-29.58-63.44c-4.28-.42-8.31.47-12.36,1.07-1.37.21-3.18.46-2.57,2.68,1.45,5.27,13.47,10.56,18.21,7.8a89.35,89.35,0,0,0,9.1-6.46c2.36-1.8,2.28-3.35-.88-4C242.49,144.14,238.64,143.4,234.83,143.77Z"/><path class="cls-7" d="M207.08,138.43c3.7,12.17,13.41,17.94,23.59,23.12a8.34,8.34,0,0,0,4.62.39c8.65-1.17,23.07-14.74,25.27-23.64-2.65-4.56-7.11-8-12.42-10.24a38.25,38.25,0,0,0-15.46-2.8l-.39,0a37.27,37.27,0,0,0-4.61.44C219.41,127,211.68,131.11,207.08,138.43Z"/><path class="cls-8" d="M221.07,132.94c1.76,5.8,6.39,8.56,11.25,11a3.88,3.88,0,0,0,2.2.19c4.13-.55,11-7,12-11.27a12,12,0,0,0-5.92-4.88,18.19,18.19,0,0,0-7.37-1.34h-.19a20.22,20.22,0,0,0-2.2.21A13.83,13.83,0,0,0,221.07,132.94Z"/></g></g></svg>