<svg xmlns="http://www.w3.org/2000/svg" viewBox="0 0 490.05 460.29"><defs><style>.cls-1{fill:#8d183b;}.cls-2{fill:#fcb625;}.cls-3{fill:#ea7624;}.cls-4{fill:#fbaf40;}.cls-5{fill:#fcf5ee;}.cls-6{fill:#02534e;}.cls-7{fill:#f68e46;}</style></defs><g id="Layer_2" data-name="Layer 2"><g id="Layer_1-2" data-name="Layer 1"><path class="cls-1" d="M360.15,224.23c9.41,1.21,17.34-1.12,25.28-3.3.62-.17,1.67-.4,1.72-.72.46-3.09.41-6.33,1.86-9.16,1.6-3.14,1-5.49-.72-8.6a27.57,27.57,0,0,1-2-24c3.05-8.11,9.25-11.73,18-12.06-3.9-21.56-7.64-43-12.24-64.23-3.64-16.82-6.93-33.71-10.38-50.57-.92-4.46.26-8.6,2.26-12.47,5.41-10.43,10.74-20.91,16.57-31.11,5.23-9.16,13.77-10.65,21.62-3.72,9.35,8.26,18.26,17,27.35,25.56a10.34,10.34,0,0,1,3.36,7C454,51,455.36,65,456.46,79.09c1.64,21.21,3.12,42.43,4.65,63.65.34,4.64.56,9.29.91,13.93.11,1.37-.1,2.52,2.46,2.18,17.87-2.4,23.83,2,25.47,21.74.66,8-1.91,14.78-9.19,19-2.05,1.19-2.68,2-1.6,4.61,2.13,5.08,3.09,10.46,1.4,16-.85,2.8-.43,5.23,1.27,8.1,4.78,8.05,4.46,16.61-.66,24.43a8.52,8.52,0,0,0-1.36,7.33,21.65,21.65,0,0,1-3.6,18.82,8.63,8.63,0,0,0-1.65,5.88c.33,9.39-3.09,14.58-12,17.72-7.74,2.72-15.71,3.95-23.94,2.19-5.57-1.2-8.88-4.81-11.06-9.79-.67-1.56-.16-4.26-2.4-4.38-4.13-.22-7.69-3.89-12.27-1.48a162,162,0,0,1-46.29,15.8c-7.19,1.33-14.37,2.66-21.71,2.57-2.21,0-3.24.41-3.3,3-.17,7.53-2.22,14.72-5,21.64-.89,2.21-.7,3.08,1.49,3.95a63.74,63.74,0,0,1,30.06,23.65c1.57,2.3,2.39,1,3.81.15,9.41-5.79,19.48-8,30.43-5.53,16.4,3.66,24.34,18.22,18.59,34.21-3.27,9.11-9.05,16.62-15.65,23.43-12,12.43-24.35,24.61-36.63,36.8a44.93,44.93,0,0,1-13,9.11c-11.09,5.07-21,2.19-27.5-8.14-1.94-3.06-3.34-6.45-5.08-9.64-10.17-18.61-26.34-30.85-44-41.46-2-1.22-4.15-.7-6.26-.23a216.16,216.16,0,0,1-52.95,4.92,14.19,14.19,0,0,0-9.48,3.21A195.1,195.1,0,0,1,179.18,426c-22.3,11.08-44.82,12.14-67.54,1.52-3.32-1.55-4.66-.75-6.52,2.2-9.55,15.2-22.66,24.23-41.42,21.55A40.1,40.1,0,0,1,36.76,435c-4.18-5.54-4.24-12.33-2.32-18.17,7.84-23.8,18.33-46.22,37.73-63.17,2.16-1.89,2.13-2.78,0-4.4-2.39-1.78-5.15-3.48-6.69-5.9-7.44-11.68-19.29-18.2-29.74-26.44C15.21,300.75,3.63,279.53.76,253.41c-3.08-28.09,3.16-53.63,19.7-76.57,1.51-2.09,2.21-3.65.51-6.14-10.4-15.24-8.29-30.26,1.22-45,.54-.83,1.13-1.64,1.74-2.43,7.8-10.19,9.65-21.2,4.55-33.15a17.86,17.86,0,0,1-1.63-10.16,12.15,12.15,0,0,1,5.73-8.64c10.46-7,21-5,31.56-1C82,77.1,93.07,90.19,98.81,108.1c.4,1.26.47,2.6,1.74,3.82,2.12-4.76,4.24-9.4,6.25-14.08.72-1.67-.21-3.15-.75-4.73-4-11.64-7.29-23.41-7.21-35.87A60.28,60.28,0,0,1,100.71,43c3.55-14.19,14-20.33,28.2-16.65,12.38,3.21,22.87,10.23,33.65,16.66,5.12,3.05,10.24,6.1,15.31,9.24a9.87,9.87,0,0,0,8.51,1c30.44-8.71,61.06-10.09,91.81-1.71,3.94,1.07,6.69-.59,9.6-2.61,11.42-8,23.06-15.51,35.65-21.58,4.88-2.35,10.06-3,15.14-3.87,6.49-1.13,13.16,4.08,16.08,11.69,3,7.94,3.23,16.24,2.6,24.56-.73,9.7-1.53,19.4-4.44,28.76-.51,1.63.2,2.85.81,4.22,8.71,19.47,13.47,39.8,13,61.22a9.55,9.55,0,0,0,2.44,7.05c12.9,15.56,14.05,36.66,3.64,52.33C369.66,217.8,365.42,220.86,360.15,224.23ZM390.49,366.6c4.84,5,6.66,8.08,7.69,13.08.57,2.78.87,5.63-.73,8.25-.6,1-1.32,2.2-2.56,2.13-1.6-.08-1.26-1.68-1.52-2.74-.8-3.21-1.18-6.54-2.66-9.57-3.38-6.94-8-8.4-14.4-4.21-6.88,4.51-12.28,10.67-17.73,16.73a21.58,21.58,0,0,1-3.17,3.1c-1.19.88-2.65,1.65-4.11.51s-1.41-2.5-.94-4.07c1.41-4.66,3.34-9.18,6.49-12.81s2.29-6.34,0-9.57c-8.35-11.72-19.66-19.13-33.33-23.19-5.8-1.72-5.7-1.72-3.21-7.43a121.66,121.66,0,0,0,9.39-34c.72-5.77,1.27-11.56,1.86-17.35.31-3.08,1.5-5.76,4.79-6.1s3.8,2.69,4.37,5.07a25.33,25.33,0,0,1,.85,6.39c-.11,3.63,1.17,5.31,4.95,4.71,1.47-.23,3,0,4.48-.27,18.7-3.48,36.91-8.74,53.71-17.74,6-3.2,11.09-5.17,17.34-1.74,3,1.67,4,0,3.42-2.76-.9-4.67-1.18-9.65.64-13.74,1.64-3.7,0-4-2.29-5.25-7.72-4-11-10.71-11.32-19.12-.07-2.07.49-4.19,2.92-4.6s3.34,1.68,4,3.6a53.58,53.58,0,0,0,1.79,5.68c2.35,5,8,5.37,11.2.89a15.94,15.94,0,0,0,2.74-8.89,66.66,66.66,0,0,0-1.65-16.83c-1.17-5.49-3-6.95-8.67-6.59-4.8.31-9.59.87-14.39,1.36-7.71.79-10,2.62-10.82,10.36-.69,6.28-4,9.94-9.54,12.12-9.17,3.61-18.58,6.41-28.53,6.32-3.58,0-5.2,1.27-6.62,4.41-4.95,10.94-13,18.42-25.13,20.62-2.37.43-3.31,1.77-4.34,3.53a48.15,48.15,0,0,1-17.39,17.5c-4.4,2.6-9,4.58-14.12,1.95-2-1-3-.1-4.21,1.2a73.57,73.57,0,0,1-12.51,10.65c-7.31,5-14.63,6-22.11.32-2.11-1.61-4.5-2.86-6.6-4.47-1.65-1.27-2.87-1.42-4.83-.27a18.66,18.66,0,0,1-14.4,2A52.11,52.11,0,0,1,208,285.27c-2.7-2.26-4.87-3.45-8.13-1-1.54,1.15-3.78,1-5.82.85-14.33-.83-26.8-6.35-37.55-15.55-5.6-4.79-10.45-8.84-19-7.91-10,1.08-17.85-5.29-24.77-12.08-1.41-1.38-2.33-2.27-4.58-1.16-13.85,6.87-26.52,15.35-36.58,27.21-12.6,14.85-13.47,38-2,52.69,6.65,8.52,15.27,14.76,25,19.4a14.21,14.21,0,0,1,6.52,5.77c6.38,10.69,16.36,16.41,28.26,18.63,16.18,3,27.79-5.92,29.24-22.1a5.37,5.37,0,0,1,2.72-4.38c6.48-4.35,7.56-10.21,3.12-16.57a19.64,19.64,0,0,0-6.22-5.68c-2.08-1.23-2.39-2.39-1.29-4.82,3.23-7.13.51-12.7-7-15.16-5.09-1.67-10.47-2-15,.7-5.42,3.25-10.55,3.47-15.81.65-2.84-1.52-8.92.58-8.09-5,.85-5.72,6.43-2.9,10-3.42,2.86-.41,5.89,1.15,8.64-1.05,5.61-4.47,12-5,18.91-4,13.25,1.93,21.22,10.84,21.19,24.27a4.14,4.14,0,0,0,1.73,3.35c10.66,9.51,8.66,25.54,1.66,34-1.55,1.89-3,3.79-3.47,6.48-2.24,13.11-15.8,25-29.21,26.5-14.79,1.71-27.6-2.71-38.94-11.8-4.39-3.52-8.23-7.75-12.14-11.83-2.28-2.37-4.24-2.57-6.78-.44-3.7,3.12-7.47,6.19-10.41,10a175.5,175.5,0,0,0-24.44,43.83c-2.66,6.93-2.1,11.89,1.45,14.26,5.29,3.54,9.45.2,13.57-2.63,2.47-1.69,4.76-3.63,7.22-5.35.87-.61,2-1.65,3.09-.62s.36,2.19-.11,3.24c-1.37,3.11-3.92,5.32-6,7.89-1.3,1.6-4.78,2.38-3.84,4.53s4.27,2.09,6.74,2.18a15.76,15.76,0,0,0,4.41-.57c13.76-3.6,20.78-13.35,24.28-26.45,1.55-5.81,1.86-5.7,6.77-2.7,22.78,13.89,46.19,17.26,70.27,3.46,11.25-6.45,22.4-13.1,32-22a5.16,5.16,0,0,1,4-1.56c23,1.14,45.82-1.32,68.52-5a4.77,4.77,0,0,1,3.78.67c6.81,4.75,13.94,9.09,20.5,14.16,13.1,10.14,25.15,21.36,32.22,36.8,5.43,11.85,9.8,13,19.8,4.73.39-.32.77-.65,1.12-1,13.53-13.54,27.16-27,40.52-40.67,4.52-4.63,8.48-9.87,10.67-16.12,2.79-8-.84-14.86-8.81-16.29C397.2,366.17,394.2,366.6,390.49,366.6ZM113.73,214.51c0,16.85,7.52,29.29,20.74,34.33,2.89,1.1,5.75,2.44,6.41-2.64a6.5,6.5,0,0,1,5.42-5.8c3.41-.68,4.13,2.15,5.42,4.13a61.28,61.28,0,0,0,37.19,26.62c2.82.72,5.16,1,5.75-3,.43-2.88.61-6.73,3.89-7.47,3-.67,4.54,2.86,6.52,4.76,6.63,6.33,13.28,12.69,22,16,8.34,3.17,9.17,2.69,13.21-5a13.92,13.92,0,0,1,2-3.43c1.76-1.76,3.76-2.18,5.47.21.67.94,1.18,2,1.83,3C259.78,291.35,268,292,280,278.5c.77-.87,1.49-1.79,2.22-2.69,2-2.45,4-4.87,5.95-7.38,2.64-3.46,5.13-3,7.62.11a29.52,29.52,0,0,1,2.41,3.18c1.25,2.1,2.83,2.13,4.54.79,8.73-6.86,15.31-15.13,17-26.5.22-1.42-.44-3.21,1.27-4s3.31.08,4.61,1.08a11.47,11.47,0,0,1,3.47,3.54c1.68,3.4,3.62,2.57,5.72.71a23.76,23.76,0,0,0,3.39-3.63,46.36,46.36,0,0,0,9.18-25.92c.14-3.73,1.54-5.28,4.82-6.3,5.77-1.78,9.48-5.88,11.8-11.36,3.33-7.85,3.95-16.5-1-22.94-7.61-9.86-8.86-20.19-9.14-32.09-.42-17.81-6.13-34.83-12.93-51.3a13.32,13.32,0,0,1-.7-9.1c3.48-13.1,5.21-26.43,3.47-40-1.1-8.51-3.32-9.55-11.22-6.41C318.12,44,305.57,52.81,293,61.42A19.07,19.07,0,0,1,276,64.31a155.84,155.84,0,0,0-26-4.63c-21.37-2-42.07,1.39-62.44,7.5-4.55,1.37-8.68,1.25-12.85-1.34-6.78-4.2-13.7-8.18-20.61-12.16-9.19-5.31-18.08-11.24-28.43-14.24-6.63-1.92-10-.06-12,6.59a38.31,38.31,0,0,0-1.59,15.27,100.38,100.38,0,0,0,8.63,31.57c1.25,2.71,1,4.78-.23,7.45-7,15.08-13.82,30.47-14.94,47.21-.61,9.1-3.58,16.62-8.13,24a38.34,38.34,0,0,0-5.29,12.83c-2.3,12,5,22.49,15.87,22.11,5-.18,6.62,1.32,5.72,6A10.16,10.16,0,0,0,113.73,214.51Zm332.56-103c-2.35-29-4.08-49.82-5.7-70.7-.16-2.14-1.51-3.24-2.83-4.45-7.47-6.86-15.09-13.57-22.41-20.58-2.67-2.56-3.57-1.51-4.92,1.06C405.64,26,400.72,35,395.79,44.08a8,8,0,0,0-1,5.73c.81,3.9,1.51,7.82,2.23,11.74,6.14,33.46,14.44,66.51,19.36,100.2.36,2.43,1.19,3.13,3.49,2.78,8.19-1.25,16.37-2.95,24.62-3.42,5.3-.31,5.26-2.76,4.82-6.56C447.36,137.57,447.51,120.44,446.29,111.55Zm-358.4,14c-.15-13.88-5.23-25.63-15.55-34.87C65,84.12,56.19,80.2,46.14,80.16c-5.47,0-6.69,2.19-4.72,7,5.47,13.4,4.3,26.27-3.2,38.58-2.33,3.83-5.1,7.4-7.2,11.34-6.22,11.64-3.5,23.49,6.84,30.88,8.78,6.26,19.67,6.19,28.78-.57C80.63,157,87.17,142.76,87.89,125.6ZM56.62,274.8c3.15-4.3,5.92-8.4,9.38-12a123.91,123.91,0,0,1,34.49-25c1.2-.59,3.18-.44,2.82-2.69-.72-4.58-1.46-9.15-2.13-13.74-.26-1.76-1.23-2.36-2.9-2.82-11.78-3.24-20.31-16.31-19.71-29,.24-5,1.43-9.77,2.46-15.32-6.54,4.68-12.59,8.55-16.64,15.28-10.66,17.68-19.57,35.8-18.41,57.2A47.12,47.12,0,0,0,56.62,274.8Zm-3.17-89.11c-4.92-.1-9.39.64-13-1.42-5.4-3.06-8.06-.31-10.93,3.63-9.56,13.11-14.43,27.86-16,43.88-2.35,24.1,3.36,45.84,19,64.57a61.25,61.25,0,0,0,16.32,14.2c0-7.5-.53-14.21,1.39-20.63.8-2.69.12-4.16-1.67-6.06-11.87-12.61-16.33-28-15.19-44.87C34.66,219.55,40.82,201.73,53.45,185.69ZM397,187c.27,3.5.73,6.92,2.78,9.94a4.81,4.81,0,0,0,5.05,2.38q30.8-4.38,61.77-7.23c11-1,13.42-5.73,10.11-16.4-1-3.2-2.77-4.38-5.93-4.94-4.68-.83-8.77,1.48-13.19,1.72-17.91,1-35.54,4.36-53.36,6.2C399,179.22,397.08,181.71,397,187Zm75.48,53.25c-.07-6.58-3-9.59-9-9.63q-7.49-.06-15,.61c-3.2.3-4.5,1.17-4,4.49a13.88,13.88,0,0,1-2,10.05c-1.68,2.6-.8,3.74,2,3.48,7.92-.72,15.89-.92,23.62-3.32C471.56,244.89,472.89,243.17,472.47,240.26Zm-16.62,17.13v-.14a91.53,91.53,0,0,0-10.37.77c-5.12,1-8.33,4.94-8,9.22.27,3.77,4.88,7.91,9.34,8.22A40.84,40.84,0,0,0,461,273.89c6.87-2,7.49-3.75,6.56-12.45-.67-6.29-5.26-3.3-8.28-4A15.44,15.44,0,0,0,455.85,257.39Zm1.28-51.82c-4.43-.45-9.3,1-14.27,1.3-1.34.07-3.3.14-2.78,2.48.79,3.56,1.62,7.11,2.56,10.62a2.83,2.83,0,0,0,3.43,2.17c6.07-.85,12.17-1.57,18.22-2.6,4.31-.74,5.6-3.71,4.71-7.77C467.73,205.92,467,205.55,457.13,205.57ZM448,293.29c3.76-.74,8.46-.83,12.54-3.35a3.28,3.28,0,0,0,1.74-3.75c-.53-2.18-2.08-.88-3.2-.78-6.38.56-12.74,2.09-19.16.24-1.69-.49-1.82.43-1.65,1.89C438.68,291.39,441.46,293.24,448,293.29Z"/><path class="cls-2" d="M390.49,366.6c3.71,0,6.71-.43,9.53.08,8,1.43,11.6,8.29,8.81,16.29-2.19,6.25-6.15,11.49-10.67,16.12-13.36,13.7-27,27.13-40.52,40.67-.35.35-.73.68-1.12,1-10,8.24-14.37,7.12-19.8-4.73-7.07-15.44-19.12-26.66-32.22-36.8-6.56-5.07-13.69-9.41-20.5-14.16a4.77,4.77,0,0,0-3.78-.67c-22.7,3.64-45.48,6.1-68.52,5a5.16,5.16,0,0,0-4,1.56c-9.59,8.88-20.74,15.53-32,22-24.08,13.8-47.49,10.43-70.27-3.46-4.91-3-5.22-3.11-6.77,2.7-3.5,13.1-10.52,22.85-24.28,26.45a15.76,15.76,0,0,1-4.41.57c-2.47-.09-5.77.06-6.74-2.18s2.54-2.93,3.84-4.53c2.1-2.57,4.65-4.78,6-7.89.47-1.05,1.15-2.28.11-3.24s-2.22,0-3.09.62c-2.46,1.72-4.75,3.66-7.22,5.35-4.12,2.83-8.28,6.17-13.57,2.63-3.55-2.37-4.11-7.33-1.45-14.26a175.5,175.5,0,0,1,24.44-43.83c2.94-3.84,6.71-6.91,10.41-10,2.54-2.13,4.5-1.93,6.78.44,3.91,4.08,7.75,8.31,12.14,11.83,11.34,9.09,24.15,13.51,38.94,11.8,13.41-1.54,27-13.39,29.21-26.5.46-2.69,1.92-4.59,3.47-6.48,7-8.45,9-24.48-1.66-34a4.14,4.14,0,0,1-1.73-3.35c0-13.43-7.94-22.34-21.19-24.27-6.88-1-13.3-.48-18.91,4-2.75,2.2-5.78.64-8.64,1.05-3.58.52-9.16-2.3-10,3.42-.83,5.57,5.25,3.47,8.09,5,5.26,2.82,10.39,2.6,15.81-.65,4.56-2.73,9.94-2.37,15-.7,7.47,2.46,10.19,8,7,15.16-1.1,2.43-.79,3.59,1.29,4.82a19.64,19.64,0,0,1,6.22,5.68c4.44,6.36,3.36,12.22-3.12,16.57a5.37,5.37,0,0,0-2.72,4.38c-1.45,16.18-13.06,25.12-29.24,22.1-11.9-2.22-21.88-7.94-28.26-18.63a14.21,14.21,0,0,0-6.52-5.77c-9.75-4.64-18.37-10.88-25-19.4-11.49-14.71-10.62-37.84,2-52.69,10.06-11.86,22.73-20.34,36.58-27.21,2.25-1.11,3.17-.22,4.58,1.16,6.92,6.79,14.75,13.16,24.77,12.08,8.52-.93,13.37,3.12,19,7.91,10.75,9.2,23.22,14.72,37.55,15.55,2,.12,4.28.3,5.82-.85,3.26-2.42,5.43-1.23,8.13,1a52.11,52.11,0,0,0,21.26,10.5,18.66,18.66,0,0,0,14.4-2c2-1.15,3.18-1,4.83.27,2.1,1.61,4.49,2.86,6.6,4.47,7.48,5.72,14.8,4.63,22.11-.32a73.57,73.57,0,0,0,12.51-10.65c1.22-1.3,2.21-2.24,4.21-1.2,5.09,2.63,9.72.65,14.12-1.95a48.15,48.15,0,0,0,17.39-17.5c1-1.76,2-3.1,4.34-3.53,12.13-2.2,20.18-9.68,25.13-20.62,1.42-3.14,3-4.44,6.62-4.41,9.95.09,19.36-2.71,28.53-6.32,5.53-2.18,8.85-5.84,9.54-12.12.84-7.74,3.11-9.57,10.82-10.36,4.8-.49,9.59-1.05,14.39-1.36,5.68-.36,7.5,1.1,8.67,6.59a66.66,66.66,0,0,1,1.65,16.83,15.94,15.94,0,0,1-2.74,8.89c-3.22,4.48-8.85,4.08-11.2-.89a53.58,53.58,0,0,1-1.79-5.68c-.66-1.92-1.42-4-4-3.6s-3,2.53-2.92,4.6c.28,8.41,3.6,15.13,11.32,19.12,2.33,1.21,3.93,1.55,2.29,5.25-1.82,4.09-1.54,9.07-.64,13.74.55,2.79-.38,4.43-3.42,2.76-6.25-3.43-11.37-1.46-17.34,1.74-16.8,9-35,14.26-53.71,17.74-1.46.27-3,0-4.48.27-3.78.6-5.06-1.08-4.95-4.71a25.33,25.33,0,0,0-.85-6.39c-.57-2.38-1-5.42-4.37-5.07s-4.48,3-4.79,6.1c-.59,5.79-1.14,11.58-1.86,17.35a121.66,121.66,0,0,1-9.39,34c-2.49,5.71-2.59,5.71,3.21,7.43,13.67,4.06,25,11.47,33.33,23.19,2.3,3.23,3.07,6,0,9.57s-5.08,8.15-6.49,12.81c-.47,1.57-.42,3,.94,4.07s2.92.37,4.11-.51a21.58,21.58,0,0,0,3.17-3.1c5.45-6.06,10.85-12.22,17.73-16.73,6.4-4.19,11-2.73,14.4,4.21,1.48,3,1.86,6.36,2.66,9.57.26,1.06-.08,2.66,1.52,2.74,1.24.07,2-1.15,2.56-2.13,1.6-2.62,1.3-5.47.73-8.25C397.15,374.68,395.33,371.63,390.49,366.6Z"/><path class="cls-2" d="M113.73,214.51a10.16,10.16,0,0,1,0-2c.9-4.71-.72-6.21-5.72-6-10.87.38-18.17-10.15-15.87-22.11a38.34,38.34,0,0,1,5.29-12.83c4.55-7.4,7.52-14.92,8.13-24,1.12-16.74,7.9-32.13,14.94-47.21,1.25-2.67,1.48-4.74.23-7.45a100.38,100.38,0,0,1-8.63-31.57A38.31,38.31,0,0,1,113.71,46c2-6.65,5.4-8.51,12-6.59,10.35,3,19.24,8.93,28.43,14.24,6.91,4,13.83,8,20.61,12.16,4.17,2.59,8.3,2.71,12.85,1.34,20.37-6.11,41.07-9.51,62.44-7.5a155.84,155.84,0,0,1,26,4.63A19.07,19.07,0,0,0,293,61.42c12.61-8.61,25.16-17.38,39.5-23.1,7.9-3.14,10.12-2.1,11.22,6.41,1.74,13.54,0,26.87-3.47,40a13.32,13.32,0,0,0,.7,9.1c6.8,16.47,12.51,33.49,12.93,51.3.28,11.9,1.53,22.23,9.14,32.09,5,6.44,4.35,15.09,1,22.94-2.32,5.48-6,9.58-11.8,11.36-3.28,1-4.68,2.57-4.82,6.3a46.36,46.36,0,0,1-9.18,25.92,23.76,23.76,0,0,1-3.39,3.63c-2.1,1.86-4,2.69-5.72-.71a11.47,11.47,0,0,0-3.47-3.54c-1.3-1-2.91-1.87-4.61-1.08s-1.05,2.58-1.27,4c-1.73,11.37-8.31,19.64-17,26.5-1.71,1.34-3.29,1.31-4.54-.79a29.52,29.52,0,0,0-2.41-3.18c-2.49-3.15-5-3.57-7.62-.11-1.91,2.51-4,4.93-5.95,7.38-.73.9-1.45,1.82-2.22,2.69C268,292,259.78,291.35,249.58,276.22c-.65-1-1.16-2-1.83-3-1.71-2.39-3.71-2-5.47-.21a13.92,13.92,0,0,0-2,3.43c-4,7.69-4.87,8.17-13.21,5-8.74-3.31-15.39-9.67-22-16-2-1.9-3.55-5.43-6.52-4.76-3.28.74-3.46,4.59-3.89,7.47-.59,4-2.93,3.69-5.75,3a61.28,61.28,0,0,1-37.19-26.62c-1.29-2-2-4.81-5.42-4.13a6.5,6.5,0,0,0-5.42,5.8c-.66,5.08-3.52,3.74-6.41,2.64C121.25,243.8,113.74,231.36,113.73,214.51Zm198.4-45.1c14.55,3.87,24.43-5,26.93-15.16,2.76-11.22-1.93-25.51-11.44-31.94-7.44-5-15.66-6.85-24.51-3.52-12.36,4.65-14.28,24.09-8.15,34.94C298,161.87,302.84,168.08,312.13,169.41ZM202.16,180c10.75,2.34,18.71-1.72,24.52-10.71,4.71-3.82,6.13-9.16,7-14.82,1.92-11.81-3.92-20.17-12.27-27.15-13.35-11.17-31.63-10.39-42.69,3.41-7.88,9.82-9.62,21.14-6.62,32.94C175.71,177.71,189.79,185,202.16,180Zm57,71.92c3.37-.28,6.34-.21,9.27-1.13,14.27-4.52,21.92-15,25.58-28.77.84-3.19,2.2-4.61,5.34-5.39,8.32-2.05,14.51-7.2,18.84-14.47,2.68-4.48,1.69-10.29-2-12-4.65-2.1-7,1.09-9.1,4.54C304,200,299.89,204.2,293.76,206c-5.18,1.52-12.91-2.44-13.92-7.57-.66-3.34-.9-6.71,3.37-8.79a26.48,26.48,0,0,0,11-9.88c4.88-7.89,2.05-18.57-6.58-21.78a42.24,42.24,0,0,0-33,1c-8.84,4-10.49,12.14-5,20.32,3.86,5.73,9.5,9.26,15.57,12.06,2.87,1.32,3.52,3,2.9,5.88-1.05,4.93-5.87,8.76-12.6,9.48-11.87,1.25-21.3-3.5-29.32-11.91-4-4.19-8.57-5.21-12-2.76-4.17,3-2.71,7.15-1.5,10.9,3.52,10.94,8,21.51,14.64,31C235.13,245,245.79,251.35,259.21,251.88ZM195.6,88.44A26.6,26.6,0,0,0,185.37,90c-8.07,2.7-15.14,6.86-18.83,15.11-1.21,2.7-1,5.17,1.27,7.28s4.84,1.86,7.31.37c2.7-1.63,5.28-3.44,8-5.1,5.93-3.67,12-5.23,18.9-2.33,5,2.13,10.31,3.66,15.46,5.49,2.65.94,5.3,1.34,7.38-1s1.28-5.07.63-7.6a9.8,9.8,0,0,0-4.22-5.4C213.83,91.73,205.84,88.33,195.6,88.44Zm120-2.06c-9.84.31-18,4-23.77,12.22-1.71,2.42-1.91,4.89,0,7.34s4.35,1.8,6.71.74c2-.88,3.94-1.77,5.81-2.82,6.88-3.88,13.66-5.68,20.9-.55,1.93,1.37,4.79,1.94,6.83-.44s2-5.17.37-7.85C328.67,88.7,322.85,86.24,315.65,86.38ZM254.6,111c0,13.62-25.54,24.65-57,24.65s-57-11-57-24.65,25.54-24.65,57-24.65S254.6,97.41,254.6,111Zm85.61-14c0,13.61-25.53,24.65-57,24.65s-57-11-57-24.65,25.53-24.65,57-24.65S340.21,83.41,340.21,97Zm-55.47,46.69c0,35.58-32.81,64.42-73.29,64.42s-73.28-28.84-73.28-64.42S171,79.29,211.45,79.29,284.74,108.14,284.74,143.72Zm62.15,10.94c0,35.58-32.81,64.43-73.29,64.43s-73.28-28.85-73.28-64.43,32.81-64.42,73.28-64.42S346.89,119.08,346.89,154.66Zm-19,36.13c0,35.58-32.81,64.42-73.28,64.42s-73.29-28.84-73.29-64.42,32.81-64.43,73.29-64.43S327.88,155.21,327.88,190.79Z"/><path class="cls-2" d="M446.29,111.55c1.22,8.89,1.07,26,3,43,.44,3.8.48,6.25-4.82,6.56-8.25.47-16.43,2.17-24.62,3.42-2.3.35-3.13-.35-3.49-2.78C411.47,128.06,403.17,95,397,61.55c-.72-3.92-1.42-7.84-2.23-11.74a8,8,0,0,1,1-5.73c4.93-9,9.85-18.09,14.64-27.2,1.35-2.57,2.25-3.62,4.92-1.06,7.32,7,14.94,13.72,22.41,20.58,1.32,1.21,2.67,2.31,2.83,4.45C442.21,61.73,443.94,82.59,446.29,111.55Z"/><path class="cls-3" d="M87.89,125.6c-.72,17.16-7.26,31.43-21.25,41.8-9.11,6.76-20,6.83-28.78.57C27.52,160.58,24.8,148.73,31,137.09c2.1-3.94,4.87-7.51,7.2-11.34,7.5-12.31,8.67-25.18,3.2-38.58-2-4.82-.75-7,4.72-7,10,0,18.82,4,26.2,10.57C82.66,100,87.74,111.72,87.89,125.6Z"/><path class="cls-2" d="M53.45,185.69c-12.63,16-18.79,33.86-20.09,53.3-1.14,16.92,3.32,32.26,15.19,44.87,1.79,1.9,2.47,3.37,1.67,6.06-1.92,6.42-1.39,13.13-1.39,20.63a61.25,61.25,0,0,1-16.32-14.2c-15.64-18.73-21.35-40.47-19-64.57,1.55-16,6.42-30.77,16-43.88,2.87-3.94,5.53-6.69,10.93-3.63C44.06,186.33,48.53,185.59,53.45,185.69Z"/><path class="cls-2" d="M397,187c.09-5.3,2-7.79,7.23-8.33,17.82-1.84,35.45-5.23,53.36-6.2,4.42-.24,8.51-2.55,13.19-1.72,3.16.56,4.94,1.74,5.93,4.94,3.31,10.67.89,15.39-10.11,16.4q-31,2.84-61.77,7.23a4.81,4.81,0,0,1-5.05-2.38C397.72,193.93,397.26,190.51,397,187Z"/><path class="cls-2" d="M472.47,240.26c.42,2.91-.91,4.63-4.29,5.68-7.73,2.4-15.7,2.6-23.62,3.32-2.81.26-3.69-.88-2-3.48a13.88,13.88,0,0,0,2-10.05c-.54-3.32.76-4.19,4-4.49q7.47-.68,15-.61C469.49,230.67,472.4,233.68,472.47,240.26Z"/><path class="cls-2" d="M455.85,257.39a15.44,15.44,0,0,1,3.47.05c3,.7,7.61-2.29,8.28,4,.93,8.7.31,10.44-6.56,12.45a40.84,40.84,0,0,1-14.25,1.57c-4.46-.31-9.07-4.45-9.34-8.22-.31-4.28,2.9-8.27,8-9.22a91.53,91.53,0,0,1,10.37-.77Z"/><path class="cls-2" d="M457.13,205.57c9.91,0,10.6.35,11.87,6.2.89,4.06-.4,7-4.71,7.77-6.05,1-12.15,1.75-18.22,2.6a2.83,2.83,0,0,1-3.43-2.17c-.94-3.51-1.77-7.06-2.56-10.62-.52-2.34,1.44-2.41,2.78-2.48C447.83,206.59,452.7,205.12,457.13,205.57Z"/><path class="cls-2" d="M448,293.29c-6.52-.05-9.3-1.9-9.73-5.75-.17-1.46,0-2.38,1.65-1.89,6.42,1.85,12.78.32,19.16-.24,1.12-.1,2.67-1.4,3.2.78a3.28,3.28,0,0,1-1.74,3.75C456.44,292.46,451.74,292.55,448,293.29Z"/><path class="cls-2" d="M273.08,167.54A36.61,36.61,0,0,1,284.39,169c2.25.7,2.5,1.76.83,3.46a58.57,58.57,0,0,1-9.51,8,3.56,3.56,0,0,1-3.68.36,36.16,36.16,0,0,1-11.37-7c-2.55-2.37-2.55-4,1.11-5.14S269.3,167.73,273.08,167.54Z"/><path class="cls-4" d="M412.53,14.4c1-.26,2.08.38,3.46,1.58,7,6.11,14.19,12.13,21.5,18a12.63,12.63,0,0,1,5,9.46c1.13,14.57,2.45,29.13,3.62,43.7,1.63,20.13,3.41,40.24,4.69,60.4.33,5.06.61,10.69-2.35,12.39-3.14,1.8-13.58,2.21-13.78,2.23Z"/><path class="cls-4" d="M297.69,75.53c-8.1,8.6-20.83.63-29.32,5a11.06,11.06,0,0,1-8.59.65A57.69,57.69,0,0,0,213,85.87a9.8,9.8,0,0,1-7.9.93c-9.25-3.07-20.37,7.52-30.08.54-35.82-25.75-39.79,19.65-36.67,52,2.29,23.8,18.39,54.19,37.64,64.87a28.85,28.85,0,0,1,13.39,17.17c10.79,36.47,31.74,52.11,65.17,49,33.41-3.3,51-22.64,54.64-60.49A28.81,28.81,0,0,1,319,190.46c16.86-14.15,26.88-47.05,24.59-70.86C340.49,87.23,327.94,43.42,297.69,75.53Z"/><path class="cls-1" d="M250,250.29c-13.42-.53-24.08-6.92-31.85-18-6.61-9.44-11.11-20-14.64-31-1.21-3.75-2.67-7.9,1.5-10.9,3.4-2.44,8-1.43,12,2.76,8,8.41,17.45,13.17,29.32,11.91,6.73-.72,11.55-4.54,12.6-9.47.62-2.89,0-4.56-2.9-5.89-6.07-2.8-11.71-6.33-15.57-12.06-5.52-8.18-3.86-16.29,5-20.32a42.32,42.32,0,0,1,33-1c8.63,3.21,11.47,13.89,6.58,21.78a26.51,26.51,0,0,1-11,9.89c-4.27,2.08-4,5.45-3.37,8.78,1,5.13,8.74,9.09,13.92,7.57,6.13-1.79,10.2-6,13.39-11.29,2.1-3.45,4.45-6.64,9.1-4.53,3.68,1.66,4.67,7.47,2,11.95-4.33,7.28-10.52,12.42-18.84,14.47-3.14.78-4.5,2.21-5.34,5.39-3.66,13.81-11.31,24.26-25.58,28.77C256.38,250.08,253.4,250,250,250.29ZM233.2,221.08a23.79,23.79,0,0,0-3.51.6c-2.4.7-2.92,2.19-1,3.94,6.36,5.79,13.6,9.95,22.23,11.19,2,.28,4.42.21,5.38-1.67,1-2-.37-3.94-1.77-5.78C249.3,222.5,241.69,221.88,233.2,221.08ZM263.9,166c-3.78.19-7.58,0-11.31,1.14s-3.66,2.76-1.11,5.13a36.19,36.19,0,0,0,11.37,7,3.56,3.56,0,0,0,3.68-.37,58.56,58.56,0,0,0,9.52-8c1.66-1.7,1.41-2.76-.84-3.46A36.57,36.57,0,0,0,263.9,166Z"/><path class="cls-5" d="M193,178.38c-12.37,5.06-26.44-2.26-30-16.34-3-11.8-1.26-23.11,6.62-32.94,11.06-13.79,29.34-14.58,42.69-3.41,8.35,7,14.19,15.35,12.27,27.15-.92,5.66-2.34,11-7.05,14.82,6-10,3.44-25.09-5.54-32.62-6.51-5.46-16.21-5.68-22.45-.37,5.35,2.3,6.82,6.67,5.9,11.87-.74,4.16-3.18,7.4-7.57,8.2-5.27,1-7.41-3.26-9.88-6.89C175,162,180.1,172.2,193,178.38Z"/><path class="cls-6" d="M193,178.38c-12.88-6.18-18-16.43-15-30.53,2.47,3.63,4.61,7.85,9.88,6.89,4.39-.8,6.83-4,7.57-8.2.92-5.2-.55-9.57-5.9-11.87,6.24-5.31,15.94-5.09,22.45.37,9,7.53,11.55,22.65,5.54,32.62C211.7,176.66,203.73,180.71,193,178.38Z"/><path class="cls-5" d="M285.78,152.14c-6.13-10.85-4.21-30.29,8.15-34.94,8.85-3.33,17.07-1.52,24.52,3.52,9.5,6.43,14.19,20.72,11.43,31.94-2.5,10.19-12.38,19-26.93,15.17a6.42,6.42,0,0,1,1.32-.64c9.05-2.16,14.84-8.93,15.51-18.18.69-9.46-4.71-19.61-12.26-22.6-2.62-1-5.53-2.43-8.19.27,6.45,6.09,5,13.43.79,16.81-2.55,2-5.32,3-8.75,2s-4.63-4-6.79-6.69C284.06,143.69,285.23,147.89,285.78,152.14Z"/><path class="cls-1" d="M174.51,94.75c9.72-3.23,18.36-2.43,27,.14a9.83,9.83,0,0,1,5.68,3.85c1.39,2.21,3,4.65,1.72,7.43s-3.92,3.28-6.73,3.19c-5.47-.17-11,0-16.4-.51-7.42-.66-12.76,2.69-17.28,8-2,2.4-4,4.91-6,7.28-1.9,2.18-4.19,3.26-7.07,1.88s-3.76-3.6-3.43-6.54c1-9,6.45-15.1,13.31-20.14A26.7,26.7,0,0,1,174.51,94.75Z"/><path class="cls-6" d="M285.78,152.14c-.55-4.25-1.72-8.45-1.2-13.36,2.16,2.66,3.45,5.66,6.79,6.69s6.2.05,8.75-2c4.24-3.38,5.66-10.72-.79-16.81,2.66-2.7,5.57-1.31,8.19-.27,7.55,3,13,13.14,12.26,22.6-.67,9.25-6.46,16-15.51,18.18a6.42,6.42,0,0,0-1.32.64C293.66,166.5,288.85,160.28,285.78,152.14Z"/><path class="cls-1" d="M306.47,84.79c7.2-.14,13,2.32,16.83,8.65,1.61,2.67,1.73,5.4-.37,7.84s-4.9,1.81-6.83.44c-7.24-5.13-14-3.33-20.9.55-1.87,1.06-3.84,1.94-5.81,2.82-2.36,1.07-4.73,1.85-6.71-.74s-1.69-4.92,0-7.34C288.5,88.8,296.63,85.1,306.47,84.79Z"/><path class="cls-2" d="M233.2,221.08c8.49.8,16.1,1.42,21.33,8.28,1.4,1.84,2.81,3.73,1.77,5.78-1,1.88-3.42,2-5.38,1.67-8.63-1.24-15.87-5.4-22.23-11.19-1.92-1.75-1.4-3.24,1-3.94A23.79,23.79,0,0,1,233.2,221.08Z"/><path class="cls-3" d="M242,159.38c1.7,10.22,9.17,16,17.11,21.39a7.38,7.38,0,0,0,3.82.87c7.38.09,21-9.1,23.88-16-2.06-6.47-7.67-12.57-23.73-13.44C254.34,151.74,248.71,154.92,242,159.38Z"/><path class="cls-7" d="M254.63,156.7c.79,4.77,4.28,7.48,8,10a3.33,3.33,0,0,0,1.79.4c3.44,0,9.81-4.24,11.15-7.46-1-3-2.34-3.66-4.31-4.53a20.73,20.73,0,0,0-5.9-1.92h-.16a14,14,0,0,0-1.83-.09A11.54,11.54,0,0,0,254.63,156.7Z"/><path class="cls-4" d="M319.93,274.8a48.67,48.67,0,0,1-11.87,9.81c-4.4,2.6-9,4.57-14.12,1.94-2-1-3-.1-4.21,1.2a73.63,73.63,0,0,1-12.51,10.66c-7.31,4.95-14.63,6-22.11.32-2.11-1.61-4.5-2.86-6.6-4.47-1.65-1.27-2.87-1.42-4.83-.28a18.66,18.66,0,0,1-14.4,2A52.19,52.19,0,0,1,208,285.46c-2.7-2.25-4.87-3.44-8.13-1-1.54,1.15-3.78,1-5.82.85a60.64,60.64,0,0,1-24.44-6.66q-.37,3.76-.38,7.64A75.78,75.78,0,1,0,319.93,274.8Z"/></g></g></svg>