<svg xmlns="http://www.w3.org/2000/svg" viewBox="0 0 380.79 374.14"><defs><style>.cls-1{fill:#02534e;}.cls-2{fill:#febe2a;}.cls-3{fill:#8d183b;}.cls-4{fill:#ea7624;}.cls-5{fill:#f68e46;}.cls-6{fill:#fbaf40;}.cls-7{fill:#fefdf3;}.cls-8{fill:#fff;}</style></defs><g id="Layer_2" data-name="Layer 2"><g id="Layer_1-2" data-name="Layer 1"><rect class="cls-1" width="380.79" height="374.14" rx="75"/><path class="cls-2" d="M372.53,206.26l-23-38.3c0-.31-.09-.61-.13-.92l-.27-1.82c-.12-.82-.23-1.65-.35-2.47l-.24-1.73-.51-3.69c-.1-.69-.19-1.39-.29-2.08s-.21-1.53-.32-2.29-.19-1.35-.29-2-.2-1.43-.31-2.15l-.3-2c-.11-.7-.21-1.4-.32-2.1l-.33-2.1-.33-2c-.12-.7-.25-1.4-.37-2.1s-.23-1.34-.35-2-.27-1.42-.41-2.12-.25-1.32-.38-2-.31-1.45-.46-2.17-.27-1.28-.41-1.91-.35-1.46-.52-2.2-.29-1.25-.45-1.87-.39-1.48-.59-2.23c-.16-.6-.31-1.21-.48-1.81-.21-.75-.44-1.49-.66-2.24-.18-.6-.35-1.2-.54-1.79-.24-.78-.51-1.55-.77-2.33-.18-.56-.36-1.12-.55-1.67-.31-.88-.65-1.75-1-2.62-.17-.46-.32-.91-.5-1.36-.52-1.32-1.06-2.64-1.64-4a4.34,4.34,0,0,1-.35-1.53s0-.06,0-.09a7.29,7.29,0,0,1,.76-3.14l.36-.77c.13-.26.26-.52.38-.78a78.9,78.9,0,0,0,6.22-17.48,68.94,68.94,0,0,0,1.42-9c.14-1.53.22-3.06.26-4.59s0-3.09,0-4.64c0-1.31,0-2.63,0-3.94s0-2.62-.07-3.93-.17-2.3-.29-3.37A32.12,32.12,0,0,0,342.64,44a18,18,0,0,0-.91-2.16A14.11,14.11,0,0,0,340.62,40a10.68,10.68,0,0,0-2-2.1,10.11,10.11,0,0,0-5.46-2,18.32,18.32,0,0,0-4.74.29q-.64.11-1.32.27c-.91.2-1.85.46-2.83.77a65.22,65.22,0,0,0-8.14,3.29c-3.13,1.49-6.16,3.1-9.09,4.8-3.92,2.27-7.67,4.71-11.31,7.28s-7.16,5.26-10.6,8c-4.3,3.48-8.47,7.08-12.61,10.73A22.15,22.15,0,0,1,267.15,75a15.31,15.31,0,0,1-4.53,1.3,3.81,3.81,0,0,1-.47.07,19,19,0,0,1-4.24-.08c-1.69-.22-3.38-.41-5.08-.62A201.27,201.27,0,0,0,128.37,75c-1.71.18-3.42.35-5.12.55a40.85,40.85,0,0,1-8,.22,26.28,26.28,0,0,1-12.61-4.24,40,40,0,0,1-5.54-4.39q-4.83-4.53-10-8.68a151.87,151.87,0,0,0-16.4-11.5q-5.77-3.49-12-6.47c-2.06-1-4.17-1.94-6.31-2.83a26.93,26.93,0,0,0-6-1.79,17.25,17.25,0,0,0-3.52-.22h0a13.84,13.84,0,0,0-1.62.18,11.1,11.1,0,0,0-2.91.91c-3.59,1.71-6,5.38-6.81,10.83A96.63,96.63,0,0,0,30.42,60c0,1,0,2.07,0,3.1q0,3.09.27,6.17a80.59,80.59,0,0,0,7.1,27.2c1,2.15,1.89,4.19,1.71,6.45a7.57,7.57,0,0,1-.6,2.33c-7.74,18.14-11.63,37-13.69,56.22A135.36,135.36,0,0,1,23,176.25a56.63,56.63,0,0,1-4.4,12.83L8.26,206.26a5.36,5.36,0,0,0-.78,3.13,5.3,5.3,0,0,0,0,1c2.13,13.29,10.34,24.87,22.08,32.54A43.37,43.37,0,0,0,30.32,278c1.57,3.41,6.24,4.81,9.89,3l17.56-8.85C55.84,288,63,304.28,77.55,315a7.54,7.54,0,0,0,10.33-1.44l9.19-12.87c4.6,17.21,19.62,31.35,39.68,36.23,4.05,1,8.17-1.4,8.73-5.05l.8-5.26c8.85,12.88,24.23,21.88,42,23.61a8.05,8.05,0,0,0,2.09-.08,8.05,8.05,0,0,0,2.09.08c17.8-1.73,33.18-10.73,42-23.61l.8,5.26c.55,3.65,4.67,6,8.73,5.05,20-4.88,35.08-19,39.67-36.23l9.2,12.87A7.54,7.54,0,0,0,303.24,315c14.6-10.69,21.7-26.93,19.78-42.88l17.56,8.85c3.64,1.83,8.31.43,9.89-3a43.41,43.41,0,0,0,.71-35.06c11.74-7.67,19.94-19.25,22.08-32.54a5.3,5.3,0,0,0,.05-1A5.43,5.43,0,0,0,372.53,206.26Z"/><path class="cls-3" d="M376.84,203.73l-18-29.94-4-6.64-.92-1.53c-.37-.61.13,1,.29.32a6.7,6.7,0,0,0-.3-2.05l-.39-2.76c-1.93-13.79-3.71-27.61-7.3-41.1-.82-3.12-1.79-6.2-2.84-9.24-.51-1.45-1.05-2.89-1.61-4.31-.38-1-.79-1.94-1.19-2.91,0,.11-.59-1.47-.52-1.24,0,0,0,.5,0,.24,0-.91.44-1.38,1-2.48,1-2,1.82-4,2.65-6a79.69,79.69,0,0,0,3.45-10.4c1.87-7.36,2.28-14.68,2.28-22.23,0-7.17,0-14.44-2.94-21.12-7.22-16.29-26.9-7.52-38.18-1.48-13.1,7-24.84,16.3-36,26-2.36,2-4.9,4.62-7.64,5.73a18.17,18.17,0,0,1-1.91.57,11.87,11.87,0,0,1-1.19.22c-.69.09-.13,0,0,0A33.49,33.49,0,0,1,256.1,71c-3.33-.4-6.51-1.72-9.82-2.68s-6.64-1.83-10-2.61A208.35,208.35,0,0,0,149,64.44a191.24,191.24,0,0,0-20.15,5.14,38.46,38.46,0,0,1-9.78,1.26,24.36,24.36,0,0,1-8.89-1.17,23.76,23.76,0,0,1-7-3.91c-3-2.34-5.61-5.07-8.48-7.52A168.77,168.77,0,0,0,77,44.94,140.71,140.71,0,0,0,57.85,34.56C51.31,31.65,44,29,37,31.91c-6.2,2.59-9.39,8.61-10.35,15a97.56,97.56,0,0,0-1,22.39,86.66,86.66,0,0,0,4.44,21.5c1.17,3.34,3,6.73,4,9.92a3.4,3.4,0,0,1,.14,2.65c-.8,1.86-1.56,3.76-2.29,5.66a190.32,190.32,0,0,0-10.47,41.78c-1,7.33-1.52,14.75-2.93,22-1,4.9-2.19,10.16-4.79,14.48-3.18,5.31-6.41,10.59-9.55,15.92-2.83,4.78-1.56,10.14.08,15.13a53.35,53.35,0,0,0,9.24,16.79,58.51,58.51,0,0,0,13.52,12.07l-2.3-5.65a47.9,47.9,0,0,0-3.42,21.27,49.26,49.26,0,0,0,2.18,11.47c1.06,3.27,2.25,7,4.93,9.35,4.39,3.81,10.1,3.69,15.06,1.18l9-4.5,7.8-3.94-7.52-4.31c-1.63,14.22,3.58,28.37,13,39C70.6,316.47,77.22,323,85.12,321c4.76-1.2,7.08-4.94,9.72-8.64l6.55-9.17L92.25,302a53.45,53.45,0,0,0,18.26,27.45,64.71,64.71,0,0,0,15.91,9.33c5.76,2.38,12.91,5.14,18.74,1.53a11.05,11.05,0,0,0,5.19-7.49c.27-1.63.5-3.27.75-4.91L142,329.1a61.65,61.65,0,0,0,35,24.13,54.8,54.8,0,0,0,11.65,2,49.83,49.83,0,0,0,12.62-1.37,64,64,0,0,0,20.19-8.2,59.61,59.61,0,0,0,17.36-16.53l-9.14-1.2c.59,3.89.78,7.8,3.8,10.74,5.4,5.24,12.61,3.26,18.83.94a61.18,61.18,0,0,0,28.24-21,50.89,50.89,0,0,0,8-16.62l-9.14,1.2,5.54,7.76c2.24,3.14,4.43,7.19,8,9a13,13,0,0,0,11.58.09c3.25-1.58,6.24-4.55,8.76-7.11A54.11,54.11,0,0,0,325,294.85a47.42,47.42,0,0,0,3-22.76l-7.53,4.31,16,8.05a31.86,31.86,0,0,0,3.24,1.52,12.76,12.76,0,0,0,10.21-.67c3.52-1.81,5-5,6.43-8.49a46.4,46.4,0,0,0,2.71-10.76A48.29,48.29,0,0,0,356,241.57l-2.3,5.65A58.2,58.2,0,0,0,371.62,229a50.88,50.88,0,0,0,5.09-11.37c1.4-4.57,2.51-9.42.13-13.85a5,5,0,0,0-8.63,5.05c-.26-.48.21.73.12.22s0,.85,0,.87c0-.56,0,0-.07.25-.09.45-.17.9-.27,1.35a43.45,43.45,0,0,1-1.33,4.75,27.65,27.65,0,0,1-1.68,4.09,45.35,45.35,0,0,1-16.31,18.27c-1.68,1.11-3.14,3.55-2.29,5.65a40.49,40.49,0,0,1,3.11,17.65,36.69,36.69,0,0,1-1.58,8.83,34.85,34.85,0,0,1-1.45,4.09,8.17,8.17,0,0,1-.74,1.44c.28-.39.36-.17-.12,0,.47-.21.18-.21-.09.06-.42.41-.47.27-.07.1-.29.12-.61.19-.91.28-.07,0-.8.09-.28.06s-.42,0-.55,0c-.59-.06,0,0,.12,0a9.65,9.65,0,0,1-1-.26s.4.17.19.07c-.73-.32-1.43-.72-2.15-1.08l-8.81-4.44-6.53-3.29c-3-1.52-8,.26-7.52,4.32a44.3,44.3,0,0,1,.15,8.77c0,.42-.18,1.72-.17,1.7s-.23,1.28-.31,1.7a44.66,44.66,0,0,1-1.09,4.39,42.62,42.62,0,0,1-7.92,14.47,52,52,0,0,1-6.84,6.67c-.49.4-.66.55-1.12.87-.28.19-.55.36-.84.53.62-.35,0,0-.16.05a7.7,7.7,0,0,1-1,.22c.92-.11,0,0-.11-.07-1-.23-.33,0-.1,0-.11,0-1.45-.48-.61-.1a5.07,5.07,0,0,1-.82-.46c.23.16.47.54-.08-.12-.73-.87.24.48.12.2a7.08,7.08,0,0,0-.65-.9l-2.94-4.13L288,298.14a5,5,0,0,0-9.14,1.19,37.43,37.43,0,0,1-5.27,11.78,32.84,32.84,0,0,1-3.75,4.95,52,52,0,0,1-5.07,5l-1.39,1.15c-.2.16-.4.33-.61.48.18-.14.58-.42-.23.16-1,.72-2,1.42-3,2.08a59.5,59.5,0,0,1-6.55,3.61,52.51,52.51,0,0,1-6.49,2.47c-1.25.39-2.52.76-3.8,1.06,0,0-.85.1-.39.07s-.39,0-.38,0c-1.09-.23-.37-.07-.19,0a6.14,6.14,0,0,1-.95-.29c.42.18.24.23-.12-.14.36.38.14.09-.11-.09s-.74-.47-.11-.07c-.24-.15-.31-.65-.11-.06a10,10,0,0,1-.36-1.89l-.66-4.3c-.29-1.9-2.42-3.38-4.16-3.58a5.11,5.11,0,0,0-5,2.38l-.59.85c.1-.14-.91,1.22-.54.73,0,0-.79,1-1.07,1.31a46.39,46.39,0,0,1-3.38,3.63,43.84,43.84,0,0,1-6.38,5.25,52.65,52.65,0,0,1-16.83,7.69,38.31,38.31,0,0,1-19.23.68,63.46,63.46,0,0,1-9.72-3s-.87-.36-.34-.13l-1-.45-2-.95c-1.46-.74-2.89-1.53-4.29-2.39a43.8,43.8,0,0,1-7.89-6c-1.27-1.19-2.48-2.45-3.63-3.76a31.71,31.71,0,0,1-2.71-3.49,5,5,0,0,0-5-2.38c-1.77.26-3.86,1.63-4.15,3.58l-.56,3.68c-.08.52-.14,1-.24,1.55a6.38,6.38,0,0,1-.23,1c.18-.51.28-.18-.1.06.4-.26.19-.15-.11.07-.11.08-.66.65-.11.09-.06.06-.7.3-.27.19s-1.5.37-.48.23c-.18,0-1.45,0-.76.1a15,15,0,0,1-2.17-.54,57.87,57.87,0,0,1-7.35-2.51c.52.22-.88-.4-1.05-.48l-1.7-.82c-1.11-.56-2.21-1.16-3.28-1.79s-2.11-1.29-3.13-2c-.43-.29-.86-.59-1.28-.9l-.84-.62-.22-.17a53.71,53.71,0,0,1-5.29-4.82,42.16,42.16,0,0,1-4-4.8,46.9,46.9,0,0,1-4-6.81c-.11-.22-.21-.44-.31-.66s-.5-1.13-.19-.38c-.22-.53-.42-1.06-.62-1.6-.49-1.3-.9-2.63-1.27-4a5,5,0,0,0-4.15-3.58,5.14,5.14,0,0,0-5,2.39l-4.71,6.58-3.17,4.44c-.32.46-.65.91-1,1.37-.77,1.12.64-.67-.16.2-.13.13-.72.55-.08.12a6.08,6.08,0,0,1-.82.46c1-.43-1.37.16-.23.05-.32,0-.64,0-1,0,.22,0,.88.26-.11,0a6.2,6.2,0,0,1-.93-.28c.64.28-.1-.13-.33-.28a41.49,41.49,0,0,1-6.66-6,41.08,41.08,0,0,1-10.13-18.75c-.19-.78-.35-1.56-.49-2.35-.07-.34-.13-.69-.18-1s0,.32-.08-.51a45.39,45.39,0,0,1,0-10.09c.46-4.06-4.51-5.84-7.52-4.32L40.87,275c-.94.48-1.87,1-2.81,1.42l-.37.19c.81-.35-1.08.21-.52.13s-.42,0-.55,0c-.75,0,1,.36-.34,0l-.69-.2c-.74-.24.56.34-.09-.07a5.87,5.87,0,0,1-.59-.37c.72.57,0,0,0-.13s.4.63.09.1c-.17-.31-.33-.61-.48-.93-.28-.62-.52-1.26-.76-1.9a41.94,41.94,0,0,1-2.21-8.79,40.07,40.07,0,0,1,2.91-20.2c.85-2.11-.59-4.52-2.3-5.65-9.19-6.08-16.3-15.13-19-25.77-.18-.71-.34-1.43-.48-2.15-.06-.27-.11-.54-.16-.81-.14-.88,0,.6,0-.22,0-.12,0-1.14,0-.63s.14-.37.15-.39c-.14.2,0,.18,0,.08.43-.79.93-1.54,1.39-2.31l5.46-9.09c1.13-1.89,2.35-3.75,3.41-5.68C26.32,185.32,28,178,29,170.94s1.63-14.33,2.76-21.45a206,206,0,0,1,4.35-20.72,164.28,164.28,0,0,1,6.79-20.25c1.47-3.6,2.11-7,.78-10.73-1.15-3.28-2.78-6.36-3.93-9.64a75.84,75.84,0,0,1-4.16-19.87,76.73,76.73,0,0,1,1-20.58,20.72,20.72,0,0,1,.57-2.19c.09-.25.17-.51.27-.76.31-.8-.27.52.11-.22.26-.5.55-1,.84-1.47.47-.81.2-.29,0-.11.29-.35.62-.64.93-1,0,0,.6-.51.17-.18s.27-.17.39-.24,1-.5.88-.47a6.4,6.4,0,0,1,3.53-.46c2.5.11,5.56,1.28,8.15,2.42q5,2.22,9.85,4.84A146.85,146.85,0,0,1,79.88,59.1c5.64,4.18,10.58,9.08,16,13.53a34.25,34.25,0,0,0,18.8,8.06,51.22,51.22,0,0,0,10.5-.37,31.63,31.63,0,0,0,5.14-.71c1.74-.5,3.46-1.09,5.21-1.6a190.38,190.38,0,0,1,40.18-7.09,197.78,197.78,0,0,1,42.4,1.54,193.58,193.58,0,0,1,20.25,4.09q4.8,1.24,9.54,2.74a30.06,30.06,0,0,0,5.67,1.45c1.87.23,3.75.52,5.63.65a21.3,21.3,0,0,0,10.22-2c3.31-1.5,6-3.94,8.69-6.31,5.33-4.66,10.74-9.25,16.43-13.48A153.05,153.05,0,0,1,312.5,48c5.4-3,11.73-6.4,17.82-7a11.46,11.46,0,0,1,3.32.09,4.2,4.2,0,0,1,2.68,1.59c1.5,1.74,2.15,4.44,2.63,7.06a49.83,49.83,0,0,1,.55,9.5c-.05,3.4.12,6.81-.09,10.21a68.81,68.81,0,0,1-4.8,20.77c-1.17,3-2.87,5.81-3.91,8.86a10.15,10.15,0,0,0-.34,5.46,36.9,36.9,0,0,0,1.94,5c4.77,12.44,7.42,25.47,9.4,38.62,1,6.65,1.86,13.32,2.83,20a12.28,12.28,0,0,0,2.12,4.8L366.52,206l1.69,2.81a5,5,0,1,0,8.63-5.05Z"/><path class="cls-4" d="M158.26,192.42c4.14,13.31,15,19.62,26.44,25.28a9.49,9.49,0,0,0,5.18.43c9.71-1.27,25.88-16.12,28.35-25.85-3-5-8-8.77-13.93-11.19A43.78,43.78,0,0,0,187,178l-.45,0a44.76,44.76,0,0,0-5.17.49C172.08,180,163.41,184.42,158.26,192.42Z"/><path class="cls-5" d="M173.94,186.42c2,6.35,7.17,9.36,12.61,12.06a4.6,4.6,0,0,0,2.48.2c4.62-.61,12.33-7.69,13.51-12.33A13.47,13.47,0,0,0,195.9,181a20.76,20.76,0,0,0-8.27-1.46h-.21a18.44,18.44,0,0,0-2.46.23A15.59,15.59,0,0,0,173.94,186.42Z"/><path class="cls-6" d="M267.08,91.31c-11.8,9.06-27.6-1.59-39.37,2.56a16.64,16.64,0,0,1-11.43-.2,86.44,86.44,0,0,0-62.44.17,14.74,14.74,0,0,1-10.56.2c-11.82-4.59-27.87,6.44-39.81-2.73-44-33.82-55.06,18.32-55.06,56.16,0,27.83,17.42,64.82,41.49,79.34a33.42,33.42,0,0,1,15.5,21.38c9.63,43.44,35.32,63.89,79.88,64,44.55-.09,70.24-20.54,79.87-64a33.42,33.42,0,0,1,15.5-21.38c24.07-14.52,41.49-51.51,41.49-79.34C322.14,109.63,311.13,57.49,267.08,91.31Z"/><path class="cls-3" d="M93.34,136.78c8-8.17,19.81-10.88,30.94-8.31,8.33,1.93,15.32-.69,15.7-8.82.25-5.45-4.64-10.58-10.66-10.57A99.18,99.18,0,0,0,83,120.59c-10.17,7-12,11.32-8.65,16.62C78.85,144.32,86.33,144,93.34,136.78Z"/><path class="cls-3" d="M283.73,136.88c-7.74-8.41-19.48-11.47-30.68-9.24-8.39,1.68-15.29-1.15-15.42-9.29-.09-5.45,5-10.43,11-10.24a99.14,99.14,0,0,1,46,12.9c9.95,7.33,11.66,11.68,8.14,16.88C298,144.86,290.52,144.26,283.73,136.88Z"/><path class="cls-3" d="M250.79,231.54c-4.07-2.32-7.23-.17-9.94,2.92s-5.43,6.72-8.57,9.62c-8.29,7.64-20.51,9.4-29.64,4.65A11.34,11.34,0,0,1,196,238.48c-.23-5.07,3.73-5.21,6.91-6.51,6.77-2.76,11.73-7.94,16.41-13.24,7.29-8.26,6.71-17.93-1.11-26.45-2.47,9.73-18.64,24.58-28.35,25.85a9.49,9.49,0,0,1-5.18-.43c-11.41-5.66-22.3-12-26.44-25.28-4.48,4.77-6.72,10.14-5.78,15.78a16.75,16.75,0,0,0,.74,2.84,19.61,19.61,0,0,0,1.3,2.87A41.93,41.93,0,0,0,175,232.46c2.59,1.14,6.33.87,6.4,5.22s-1.47,8-5.38,10.17a26.18,26.18,0,0,1-16.1,3.17c-10.4-1.28-17.25-7.7-23.23-15.62-2.65-3.51-6-7.05-10.78-3.52-4.4,3.25-3.94,7.67-1.08,11.84,8.09,11.79,18.94,19.4,33.22,21.9,9.15,1.61,17.91.6,25.14-5.39,4-3.33,6.16-3.57,10.54-.23,17.43,13.33,52.17,2.75,59.62-17.74C254.77,238.23,255.21,234.08,250.79,231.54Z"/><path class="cls-7" d="M110.59,138.38c-21.1.15-37.8,17.62-37.79,39.54,0,22.78,17.35,40.46,39.58,40.36,20.79-.08,36.56-17,36.68-39.43C149.19,156.09,132.21,138.23,110.59,138.38Z"/><path class="cls-7" d="M268.18,138.31c-22.13-.24-39.48,17.55-39.38,40.37.09,22.59,16.09,39.55,37.3,39.57,21.69,0,39.18-18.15,39.25-40.78C305.42,156,288.82,138.53,268.18,138.31Z"/><path class="cls-1" d="M140.76,170.65c-2.73-12.14-10.3-20-19.42-19.57s-17.2,9.85-18.73,21.67c-.26,2-.3,4-.46,6.32.2,2.24.24,4.79.68,7.24,2,10.93,9.74,19.51,17.94,19.95,8.61.46,16.5-6.65,19.45-17.72A37,37,0,0,0,140.76,170.65Z"/><path class="cls-1" d="M259.56,150c-8.23-.27-15.56,6.11-18.72,16.5a34.49,34.49,0,0,0-1.72,11.12,36.07,36.07,0,0,0,4.52,17.15c7.92,13.78,25.55,12,32.1-2.69a35.85,35.85,0,0,0,1.57-25C274.46,157.08,267.33,150.27,259.56,150Z"/><circle class="cls-8" cx="110.37" cy="162.01" r="11.73"/><circle class="cls-8" cx="249.36" cy="160.66" r="11.73"/><path class="cls-6" d="M88.78,224.77h57.08a35.34,35.34,0,0,0-68.32-12.2C82.42,215.21,86,220.08,88.78,224.77Z"/><path class="cls-6" d="M283.46,218.81c2.56-2.88,6.55-4.95,9.54-7.48,2.66-2.23,6.45-4.43,7.62-7.86a5.59,5.59,0,0,1,.61-1.25,35.33,35.33,0,0,0-65.17,18.43H282.4A5.42,5.42,0,0,1,283.46,218.81Z"/><path class="cls-4" d="M157.24,193.58c4.28,13.75,15.54,20.28,27.34,26.13a10,10,0,0,0,5.36.45c10-1.32,26.75-16.67,29.3-26.73-3.07-5.15-8.25-9.07-14.39-11.57a45.27,45.27,0,0,0-17.93-3.17l-.46,0a45.29,45.29,0,0,0-5.34.5C171.53,180.69,162.57,185.3,157.24,193.58Z"/><path class="cls-5" d="M173.46,187.37c2,6.56,7.41,9.67,13,12.46a4.65,4.65,0,0,0,2.55.22c4.78-.63,12.76-8,14-12.75a13.91,13.91,0,0,0-6.86-5.51,21.6,21.6,0,0,0-8.55-1.52h-.22a22,22,0,0,0-2.55.24C180.27,181.23,176,183.43,173.46,187.37Z"/></g></g></svg>