<svg xmlns="http://www.w3.org/2000/svg" viewBox="0 0 441.16 401.36"><defs><style>.cls-1{fill:#febe2a;}.cls-2{fill:#ea7624;}.cls-3{fill:#8d183b;}.cls-4{fill:#fcf5ee;}.cls-5{fill:#02534e;}.cls-6{fill:#fcb625;}.cls-7{fill:#f68e46;}.cls-8{fill:#fbaf40;}.cls-9{fill:#fefdf3;}.cls-10{fill:#fff;}</style></defs><g id="Layer_2" data-name="Layer 2"><g id="Layer_1-2" data-name="Layer 1"><path class="cls-1" d="M351.16,315.25l.51-1.23c2.8-6.23,7.09-7.36,14.11-7,31,1.55,56.33-27.95,51.49-58.72a81.62,81.62,0,0,0-7.66-23.44c-3.42-6.93-5.63-14.18-5-22.35,3,.94,5.72,2,8.55,2.61,1.87.42,2.13,1.72,2.31,3.06.88,6.62,3.81,12.44,6.62,18.38C433.15,250,433.26,272.7,417,294c-15.16,19.8-42.54,29-64.28,21.9C352.25,315.75,351.84,315.54,351.16,315.25Z"/><path class="cls-2" d="M416.73,130.07c-6.12,12.88-4.29,25.07,2.94,37,3.43,5.65,5.75,11.77,5.54,18.6-.26,8.74-6,12.92-14.5,10.51-7-2-11.51-6.86-14.64-13-10.78-21.15,2-43.37,17.59-52.42a3.69,3.69,0,0,1,3.1-.63Z"/><path class="cls-3" d="M417,130.19a.83.83,0,0,1-.22.14l.24-.37C417,130,417.07,130.15,417,130.19Z"/><path class="cls-3" d="M432.19,222c-2.19-4.49-4.42-8.94-5.66-13.81-.44-1.75-.65-3.21,1.18-4.49,8.16-5.7,9.57-14.11,9-23.23-.42-7.24-3.67-13.46-7.19-19.56-5.66-9.79-6.41-19.64-.79-29.79,2.78-5,1.66-8.53-3.37-12.42a21.05,21.05,0,0,0-12.85,1c-7.22,2.77-12.88,7.64-17.86,13.32-15.5,17.67-19.9,44.58-2.34,64,1.7,1.89,1.77,3.87,1.64,6.07a46.87,46.87,0,0,0,4.42,23.68c1.69,3.52,3.28,7.09,4.64,10.75,5.75,15.48,5.3,30.25-5.08,43.92-5.39,7.1-15.39,12.9-25.05,14.64a28.76,28.76,0,0,0,2.94-2.7c19.59-18.83,22.72-45.51,7.89-68.28-7.35-11.27-17.38-19.79-28.63-26.91-2.3-1.46-3.42-2.46-2-5.44,2.65-5.46,1.69-12.56,4.65-17.2,3.11-4.89,9.48-7.81,13.51-12.63.38-.46.79-.9,1.12-1.39,6.92-10.29,7.13-16.14-.08-24.81A54.27,54.27,0,0,1,360.7,113.6c-3.25-14.82-7.22-29.42-13-43.45A4.71,4.71,0,0,1,348,66c6.25-14.51,8.2-29.7,7.05-45.35A29.77,29.77,0,0,0,351.6,8.82C348,1.93,342.5-.86,334.77.23c-6.92,1-12.83,4.34-18.49,8.09-9.13,6-18.1,12.34-27.09,18.59-3,2.11-6,2.27-9.58,1.14-28.74-9-58-11.47-86.91-2.29-11.8,3.75-20.15,2.08-29.48-5.16-10.58-8.21-21.86-15.74-35.09-19.43-9.27-2.58-16.48.9-20,9.8a41.4,41.4,0,0,0-2.72,14.31,100,100,0,0,0,7,38.6c.38,1,1.25,1.88.69,3.3-2.11,5.33-4,10.74-6.13,16.46-6-4.65-12.27-5.12-19-1.9-.45-1.63-.83-3-1.23-4.45C84,67.55,79.61,58.81,71.42,52.42,62,45.1,49.64,47.16,44,57.29c-1.34,2.39-2.13,2.9-4.83,2.05-9.92-3.1-19.23,1.49-21.86,11.53C15.91,76.06,14,79,9,81.41c-7.28,3.5-10.36,14-8.34,23.53C4.42,123,12.37,139,25.39,152.2a17.15,17.15,0,0,1,4.3,8c7.39,26.75,21.2,49.32,43.59,66.22,15.77,11.91,33.83,18.5,52.89,22.72,2,.45,3.07.78,2.9,3.28-1.18,16.84,2,33,8.3,48.55a13.76,13.76,0,0,1,.95,7.35c-2.08,13.91-4.17,27.81-6.17,41.72-.26,1.85-.81,3-2.78,3.41-16.82,3.19-26.64,16.71-28.12,34.27-.75,8.9,3.82,13.9,12.74,13.68,23.91-.61,47.82-.63,71.74-.56,10.15,0,14.15-3.76,16.09-13.78,2.75-14.19,6-28.28,9.05-42.41.45-2.07,1-3.34,4.06-3a102.49,102.49,0,0,0,25.78-.09c3.89-.53,4.72.81,5.47,3.8q5.22,20.58,10.59,41.12c3.18,12.08,6.69,15,19,14.73,22.58-.57,45.15-.37,67.72,0,8.51.14,13.26-5.05,12.38-13.59-1.74-16.68-9.16-29.17-26.2-34.17-1.56-.46-2.66-1.17-3-2.87-1.35-7-2.74-14.05-4.17-21.37,1.58.63,2.91,1.22,4.27,1.71,8.16,3,18.05,1.16,25-3.88,9,2.71,18.42,2.4,28,.9,18.35-2.87,33.36-11.86,45.53-25.77,2.14-3.25,4.48-6.4,6.38-9.79C444.79,269,443.65,245.53,432.19,222Zm-36.12-38.56c-10.78-21.15,2-43.36,17.59-52.41a3.71,3.71,0,0,1,3.06-.65c-6.11,12.88-4.27,25.06,2.95,37,3.43,5.65,5.75,11.77,5.54,18.59-.26,8.75-6,12.92-14.5,10.52C403.72,194.47,399.2,189.58,396.07,183.45ZM114.22,109.9C116,95.82,120.16,82.41,125,69.19a8.75,8.75,0,0,0-.24-7.14,87.85,87.85,0,0,1-7.6-34.5,36.12,36.12,0,0,1,2-11.34c1.1-3.4,3.16-4.31,6.49-3.14a85.81,85.81,0,0,1,18.51,9.6c8.19,5.35,16.31,10.84,24.38,16.38,4.43,3,9,4,14.29,2.5C191.81,39,200.71,36,210,34.81a161.87,161.87,0,0,1,39.41-.07,187.34,187.34,0,0,1,29.84,6.41,17.26,17.26,0,0,0,15.24-2.7q14.19-10,28.53-19.75a57.87,57.87,0,0,1,11.87-6c4.11-1.57,6.17,0,7.35,3.77,1.31,4.17,1.43,8.47,1.4,12.79-.3,12.61-2.69,24.73-8.67,36-1.06,2-1.41,3.78-.38,5.87,7,14.34,11.32,29.59,14.46,45.17,2.08,10.33,7.21,19,13.39,27.28,3.8,5.08,3.68,6.35-.27,11.25a44.31,44.31,0,0,1-14.3,11.84c-2.4,1.22-3.24,2.55-3.13,5.46.43,10.51-2.54,19.92-10.57,27.25-3.62,3.3-4.24,3.13-6.15-1.19a32.46,32.46,0,0,0-2.38-4.27,5.42,5.42,0,0,0-5.29-2.61c-2.57.14-2.94,2.14-3.52,4-4.32,13.64-14,21.91-26.87,27.1-2.33.95-4.06,1.14-3.58-2.29a6.61,6.61,0,0,0-.08-2.22c-.6-2.76-1-5.78-4.21-6.79s-4.85,1.37-6.61,3.43c-10.29,12-23.29,19.95-38,25.48-5.39,2-10.17.7-15.07-1.15-14.28-5.38-25.72-14.57-35.21-26.35-3.13-3.88-6-3.79-8.54.6a27.34,27.34,0,0,0-1.92,4.48c-1.89,5.32-1.87,5.34-6.81,2.8a46.8,46.8,0,0,1-22.6-24.19c-2-4.75-5.91-5.37-9.26-1.32a11.83,11.83,0,0,0-2,3.9c-1.39,4.34-1.76,4.54-5.55,1.88-9.78-6.87-12.93-16.92-11.94-28.07.55-6.18,0-10.29-6.44-12.56a15.48,15.48,0,0,1-8.71-7.9c-1.82-3.6-2.33-7.32.17-10.52C110.86,132.18,112.79,121.1,114.22,109.9ZM351.56,295a43.1,43.1,0,0,0-6.6-1.15,9.27,9.27,0,0,1-.31,1.72,38.31,38.31,0,0,1-2,5.17c2,.68,4,1.46,3.81,4.19-.2,3.4-3.07,4.62-5.76,5.38l-.67.17a43.57,43.57,0,0,0,.21,9.06,12.63,12.63,0,0,1-11.23-.68c-8.6-5.14-9.71-9.68-8.21-16.73,1.88-8.81,2.75-17.83,3.9-26.78a7.41,7.41,0,0,1,3.31-5.48,27.32,27.32,0,0,0,9.11-10.77,9.92,9.92,0,0,0-7.21-14.29,3.18,3.18,0,0,1-3.1-3c-.49-2.62-.79-5.28-1.32-7.9a4.7,4.7,0,0,0-4.27-4c-2.29-.28-3.43,1.35-4.43,3.1a9.31,9.31,0,0,0-1,4.28,532,532,0,0,1-8,67.53c-.69,3.79-.16,7.3.48,11,2.59,14.59,5.93,29,7.44,43.82.22,2.16,1.34,2.58,3,3.08,4.11,1.22,8.33,2.06,12.26,3.92a19.8,19.8,0,0,1,5.89,4.38l1.68,2a22.64,22.64,0,0,1,4.88,13.73c0,1.73-.56,2.48-2.29,2.36-1-.07-2.08,0-3.12,0-2.56-.07-7.78-.19-7.82-.22-2-1.6-11.81-.47-12.16-.48-13.81-.34-27.63-.26-41.42.69-4.81.33-7.42-1.53-8.56-6.31-3.87-16.27-8.16-32.45-11.89-48.75-1-4.54-2.89-6-7.49-5.69-10.94.8-21.9,1.62-32.9.31a167.25,167.25,0,0,0-17.54-1.48c-3.38-.05-2.76,1.52-3.16,3a2.2,2.2,0,0,0,.82,1.89c6.4,3.84,3.17,9.19,2.21,14.1-2.39,12.37-4.94,24.7-7.34,37.06-.77,4-2.72,5.76-7,5.59-7.56-.3-15.15-.08-22.72-.08v-.05c-7.87,0-15.75-.16-23.62.09-2.64.08-3.06-.59-2.51-2.92a83.5,83.5,0,0,0,1.52-8.3c.19-1.48-.06-3.17-1.72-3.74s-2.7.79-3.52,2.06a20.93,20.93,0,0,0-3.5,9.51c-.24,2.72-1.19,4.05-4.16,3.72a30.36,30.36,0,0,0-6.67,0c-3.59.4-3.83-1.39-3.35-4.22,2.08-12.54,9.15-19.06,24.31-21.29,3.94-.58,4.78-1.84,5.27-5.62,2.15-16.9,4.82-33.75,7.32-50.61.21-1.46.8-2.92.13-4.37-10-21.48-12-43.94-8.24-67.11a8.41,8.41,0,0,0-.79-5.18,4.89,4.89,0,0,0-5.06-2.94c-2.24.19-4,1.15-4.49,3.58-.28,1.3-.66,2.58-1,3.89-.39,1.78-1.27,2.35-3.18,1.93C96.12,230.23,70.13,214.94,54,185.75c-4.28-7.74-9-15.36-10.49-24.4-.37-2.34-.77-4.33,1.12-6.13,1.28-1.22,1.06-2.17-.44-3.15-14.16-9.28-22.38-22.93-28.35-38.3-2.07-5.31-3.69-10.62-3.29-16.39.43-6.16,3.62-7.72,8.87-4.31,4.83,3.13,8.05,7.78,11.49,12.21,1.09,1.4,2,3,4,3.18,2.72.21,4.19-2.32,2.67-5.32-2.94-5.82-6.13-11.52-9.33-17.2-1.81-3.2-3.09-6.4-1.9-10.14,1.73-5.49,5.3-6.92,10.14-3.87C44.64,75.79,48.66,81.29,51.34,88c1.11,2.78,1.88,7.55,6.26,5.73,3.44-1.43.55-5,0-7.49C56.72,82.05,55.14,78,54,73.86c-1.71-6.39-.4-11.84,3-13.28,3.21-1.35,7.16,1,11.26,6.24,5.62,7.17,6.92,15.92,9.28,24.31.54,1.92-1,3-1.91,4.27-3.6,4.91-7.22,9.77-8.74,15.87a27.36,27.36,0,0,0-.77,6.6c0,2.44.57,4.47,3.46,4.81s4.81-1.24,5-3.87c.66-8.14,5.61-13.86,10.54-19.62a23.82,23.82,0,0,1,7.25-5.83c4.81-2.43,8.35-.84,10,4.26,1.62,4.94.87,9.75-1,14.34-3.91,9.63-6.88,19.56-9.95,29.46-3.4,10.92,1.06,22,11.47,27.58,2.78,1.51,3.57,3.09,3.59,6.17.1,15.1,4.83,28.08,18.48,36.23,4.82,2.87,10,5.4,16,3.1,1.92-.74,2.59,1,3.52,2,8.38,9.23,18.18,16.2,30.58,18.77,4,.82,8.22,1.66,11-3.1,1.23-2.11,2.31.32,3,1,9.33,8.87,20.56,14.43,32.4,19,6.21,2.42,12.2,2.91,18.58.53a118.34,118.34,0,0,0,32-17.29c1.63-1.27,3.15-3.44,5,.12,1,1.86,3.46,1.41,5.37,1.21,14.64-1.53,26.31-8.65,35.82-19.52,1.75-2,3.34-3,6-2.77,7.14.73,13.1-2.08,18.18-6.78,1.66-1.54,2.84-1.54,4.62-.5,11.06,6.47,20.68,14.63,27.52,25.5,12.46,19.82,6.72,43.42-13.56,57.75a69.77,69.77,0,0,1-7.79,4.81C352.63,295.17,352.1,295.07,351.56,295Zm65.4-.71c-13.65,17.83-37.23,27.06-57.66,23.53a18.37,18.37,0,0,0,1-3.31,28.76,28.76,0,0,1,2.44-7.24c.95,0,2,0,3,0,31,1.55,56.33-27.94,51.49-58.71a81.52,81.52,0,0,0-7.66-23.44c-3.42-6.93-5.63-14.19-5-22.36,3,.94,5.72,2,8.55,2.62,1.87.41,2.13,1.71,2.31,3,.88,6.62,3.81,12.45,6.62,18.39C433.15,250.22,433.26,273,417,294.25Z"/><path class="cls-1" d="M161.07,388.65c-7.87,0-15.75-.16-23.61.09-2.66.08-3.07-.59-2.52-2.92a83,83,0,0,0,1.52-8.3c.19-1.48-.06-3.16-1.72-3.74s-2.7.8-3.52,2.06a20.93,20.93,0,0,0-3.5,9.51c-.24,2.72-1.19,4.06-4.16,3.73a29.75,29.75,0,0,0-6.67,0c-3.59.41-3.83-1.39-3.35-4.22,2.08-12.53,9.15-19.05,24.31-21.28,3.94-.58,4.79-1.85,5.27-5.62,2.15-16.91,4.82-33.75,7.32-50.61.21-1.46.8-2.93.13-4.37-10-21.49-12-43.94-8.24-67.12a8.44,8.44,0,0,0-.79-5.18,4.88,4.88,0,0,0-5.06-2.93c-2.24.19-4,1.14-4.49,3.58-.28,1.3-.66,2.58-1,3.88-.39,1.78-1.27,2.35-3.18,1.93C96.12,230.21,70.13,214.93,54,185.73c-4.28-7.73-9-15.35-10.49-24.39-.37-2.35-.77-4.34,1.12-6.14,1.28-1.21,1.06-2.16-.44-3.15-14.16-9.27-22.38-22.92-28.35-38.3-2.07-5.31-3.69-10.61-3.29-16.38.43-6.17,3.62-7.73,8.87-4.32,4.83,3.14,8.05,7.78,11.49,12.21,1.09,1.4,2,3,4,3.19,2.72.21,4.19-2.33,2.67-5.33-2.94-5.81-6.13-11.51-9.33-17.2-1.81-3.2-3.09-6.39-1.9-10.14,1.73-5.49,5.3-6.92,10.14-3.87C44.64,75.77,48.66,81.28,51.34,88c1.11,2.77,1.88,7.55,6.26,5.72,3.44-1.43.55-5,0-7.48C56.72,82,55.14,78,54,73.85c-1.71-6.4-.4-11.85,3-13.29,3.21-1.35,7.16,1,11.26,6.24,5.62,7.18,6.92,15.93,9.28,24.31.54,1.92-1,3-1.91,4.27-3.6,4.92-7.22,9.78-8.74,15.87a27.36,27.36,0,0,0-.77,6.6c0,2.45.57,4.47,3.46,4.81s4.81-1.23,5-3.86c.67-8.14,5.61-13.86,10.54-19.62a23.67,23.67,0,0,1,7.25-5.83c4.81-2.44,8.35-.85,10,4.25,1.62,4.94.87,9.75-1,14.35-3.91,9.62-6.88,19.55-9.95,29.45C88.11,152.32,92.57,163.35,103,169c2.78,1.5,3.57,3.09,3.59,6.16.1,15.1,4.83,28.08,18.48,36.23,4.82,2.87,10,5.4,16,3.1,1.92-.74,2.59,1,3.52,2,8.38,9.23,18.18,16.2,30.58,18.76,4,.83,8.22,1.66,11-3.09,1.23-2.12,2.31.32,3,1,9.33,8.88,20.56,14.43,32.4,19,6.21,2.41,12.2,2.91,18.58.53a118.62,118.62,0,0,0,32-17.29c1.63-1.27,3.15-3.44,5,.11,1,1.87,3.46,1.41,5.37,1.21,14.64-1.53,26.31-8.64,35.82-19.52,1.75-2,3.34-3,6-2.77,7.14.73,13.1-2.08,18.18-6.78,1.66-1.53,2.84-1.54,4.62-.5,11.06,6.48,20.68,14.64,27.52,25.5C387,252.5,381.24,276.11,361,290.43a62.93,62.93,0,0,1-11.56,6.62c-3.2,1.37-3.26,3.21-2,5.95,3.06,6.62,2.66,8.93-2,13.22s-11.31,5.62-16.41,2.58c-8.6-5.14-9.71-9.67-8.21-16.73,1.88-8.81,2.75-17.83,3.9-26.78a7.41,7.41,0,0,1,3.31-5.48,27.36,27.36,0,0,0,9.11-10.76,9.91,9.91,0,0,0-7.21-14.29,3.19,3.19,0,0,1-3.1-3c-.49-2.63-.79-5.29-1.32-7.91a4.71,4.71,0,0,0-4.27-4c-2.29-.28-3.43,1.36-4.43,3.11a9.27,9.27,0,0,0-1,4.27,531.82,531.82,0,0,1-8,67.53c-.69,3.79-.16,7.3.48,10.95,2.59,14.59,5.93,29.05,7.44,43.82.22,2.16,1.34,2.58,3,3.08,4.11,1.22,8.33,2.07,12.26,3.92,7.08,3.33,12.64,12.3,12.45,20.12,0,1.72-.56,2.47-2.29,2.35-1-.07-2.08,0-3.12,0-2.82-.07-6,.62-8.36-.47s-8.41-.15-11.62-.23c-13.81-.33-27.63-.26-41.42.69-4.81.33-7.42-1.53-8.55-6.31-3.88-16.27-8.17-32.44-11.9-48.75-1-4.54-2.89-6-7.49-5.68-10.94.79-21.9,1.61-32.9.31a164.61,164.61,0,0,0-17.54-1.49c-3.38,0-2.76,1.52-3.16,3a2.18,2.18,0,0,0,.82,1.88c6.4,3.85,3.17,9.19,2.21,14.11-2.39,12.36-4.94,24.69-7.34,37.05-.77,4-2.72,5.76-7,5.59-7.56-.3-15.15-.08-22.72-.08Z"/><path class="cls-1" d="M343.65,29.28c-.3,12.61-2.69,24.73-8.67,36-1.06,2-1.41,3.78-.38,5.87,7,14.34,11.32,29.59,14.46,45.17,2.08,10.33,7.21,19,13.39,27.28,3.8,5.08,3.68,6.35-.27,11.24a44.21,44.21,0,0,1-14.3,11.85c-2.4,1.22-3.24,2.55-3.13,5.46.43,10.51-2.54,19.92-10.57,27.25-3.62,3.3-4.24,3.13-6.15-1.19a32.46,32.46,0,0,0-2.38-4.27,5.41,5.41,0,0,0-5.29-2.61c-2.57.14-2.94,2.14-3.51,4-4.33,13.64-14,21.91-26.88,27.1-2.33,1-4.06,1.14-3.58-2.29a6.61,6.61,0,0,0-.08-2.22c-.6-2.76-1-5.78-4.21-6.79s-4.85,1.37-6.61,3.43c-10.29,12-23.29,20-38,25.48-5.39,2-10.17.7-15.07-1.15-14.28-5.38-25.72-14.58-35.21-26.35-3.13-3.88-6-3.79-8.54.6a27.34,27.34,0,0,0-1.92,4.48c-1.89,5.32-1.87,5.34-6.81,2.8a46.8,46.8,0,0,1-22.6-24.19c-2-4.75-5.91-5.37-9.26-1.32a11.83,11.83,0,0,0-2,3.9c-1.39,4.34-1.76,4.54-5.55,1.88-9.78-6.87-12.93-16.92-11.94-28.07.55-6.18,0-10.29-6.44-12.56a15.51,15.51,0,0,1-8.71-7.9c-1.82-3.61-2.33-7.32.17-10.52,7.29-9.33,9.22-20.41,10.65-31.61C116,95.87,120.16,82.46,125,69.24a8.75,8.75,0,0,0-.24-7.14,87.89,87.89,0,0,1-7.6-34.5,36.12,36.12,0,0,1,2-11.34c1.1-3.4,3.16-4.31,6.49-3.14a86.22,86.22,0,0,1,18.51,9.59c8.19,5.36,16.31,10.85,24.38,16.38,4.43,3,9,4,14.29,2.51C191.81,39,200.71,36,210,34.86a161.87,161.87,0,0,1,39.41-.07,187.34,187.34,0,0,1,29.84,6.41,17.26,17.26,0,0,0,15.24-2.7q14.19-10,28.53-19.75a57.87,57.87,0,0,1,11.87-6c4.11-1.57,6.17,0,7.35,3.77C343.56,20.66,343.68,25,343.65,29.28Zm-43.18,102.1c2.63,1.3,5.57,2.17,7.47,4.54,1.75,2.19,2.9,1.55,4.45-.25,4.08-4.73,5.48-10.35,5.73-16.36.61-14.3-5.53-25.81-17.43-31.28-10.6-4.88-24.3-1.42-31.66,7-8.67,9.92-10.68,24.4-4.58,34.72,1.58,2.67,3.45,5.42,6.9,6.18C280.81,132.8,290.39,130.51,300.47,131.38ZM191,136.53c1.16.63,2-.17,2.83-.72a19.19,19.19,0,0,0,8.77-13.73c2-12.35-1.2-23.06-10.54-31.3-9-8-19.27-7.9-29.81-2.72a31.62,31.62,0,0,0-11.83,46.86c1.69,2.32,3,4,5.38.44,2-3,5.33-4.54,8.84-5.45C174.39,128.35,182.89,131.71,191,136.53Zm39.82-16.78a35.26,35.26,0,0,0-15.6,3,15.63,15.63,0,0,0-6,24,32.17,32.17,0,0,0,11.67,9.41c5.62,2.85,6,8.92.83,12.52-9.94,6.91-26.67,2.72-32.11-8.09-1-2-1.55-4.21-2.74-6-2.78-4.28-7.44-3.93-9.92.53-1.71,3.06-1,6,.21,9,8,19.11,35.79,26.85,52.55,14.59,1.24-.9,1.83-1.65,3.62-.44a36.33,36.33,0,0,0,42.44-1.14c5.36-4,9.47-9,11.2-15.62.81-3.12.79-6.45-2.89-8-3.53-1.45-6.43-.18-8.43,2.94a55.24,55.24,0,0,0-2.59,5.16c-5.88,11.71-25.47,14.47-34.21,4.82-3.36-3.71-2.4-8,2.18-10a26.92,26.92,0,0,0,13.27-12c4.54-8.45,1.68-18-6.45-22.11C243.16,119.93,238.15,119.76,230.84,119.75ZM177.78,58c-11.2.52-21.27,4.83-29.11,13.79C145.6,75.25,145,80,147.15,81.8c3.5,2.89,6.61,1,9.62-1.19a23.3,23.3,0,0,1,3.37-2.13c7.51-3.64,15-7,23.73-3.89,5.08,1.83,8.64.48,10.23-3.18,1.69-3.89-.51-8.89-5-11C185.75,58.74,182.07,58.25,177.78,58Zm89.86,12.22c-.47,4,1.74,4.64,5.19,3.94,2.75-.56,5.53-1.06,8.32-1.35,10.94-1.11,19.76,4,28.35,9.8,2.59,1.74,5.43,3.17,8,.48s2.1-6,.05-9C309.3,62,286.62,55.43,273.43,61.45,269.85,63.09,267.22,65.55,267.64,70.17Z"/><path class="cls-3" d="M230.84,119.7c7.31,0,12.32.18,17,2.55,8.13,4.12,11,13.66,6.45,22.11a26.88,26.88,0,0,1-13.27,12c-4.58,2-5.54,6.28-2.18,10,8.74,9.65,28.33,6.89,34.21-4.82a56.5,56.5,0,0,1,2.59-5.16c2-3.12,4.9-4.39,8.43-2.94,3.68,1.51,3.7,4.84,2.89,8-1.73,6.59-5.84,11.62-11.21,15.62a36.32,36.32,0,0,1-42.43,1.14c-1.79-1.2-2.38-.46-3.62.45-16.76,12.25-44.56,4.51-52.55-14.6-1.24-2.95-1.92-5.92-.21-9,2.48-4.46,7.14-4.8,9.92-.53,1.19,1.84,1.75,4.08,2.74,6.05,5.44,10.81,22.17,15,32.11,8.09,5.18-3.6,4.79-9.67-.83-12.51a32.3,32.3,0,0,1-11.67-9.42,15.63,15.63,0,0,1,6-24A35.26,35.26,0,0,1,230.84,119.7Zm15.74,15.66c0-.71-1-1.89-2.51-2.5-8.54-3.46-17.11-2.73-25.5.45-3.46,1.32-1.85,3.58,0,5.05,13.55,10.94,12.11,11.22,24,.82,1-.87,2-1.73,3-2.63A11.28,11.28,0,0,0,246.58,135.36Z"/><path class="cls-4" d="M164.66,129.86c-3.51.91-6.83,2.42-8.84,5.45-2.37,3.56-3.69,1.88-5.38-.44A31.62,31.62,0,0,1,162.27,88c10.54-5.18,20.78-5.24,29.81,2.72,9.34,8.24,12.57,19,10.54,31.31a19.19,19.19,0,0,1-8.77,13.72c-.85.55-1.67,1.35-2.83.72,5.85-7.45,8.52-15.63,6.3-25.18-2.49-10.73-11.61-17.5-21.12-15.61-3.27.65-4,1.71-1.5,4.16,2.84,2.84,2.77,6,1.08,9.37a11.62,11.62,0,0,1-6.85,6c-3.63,1.22-5.45-1.92-8-3.73C159.58,118.35,160.76,124.38,164.66,129.86Z"/><path class="cls-4" d="M271.35,135.89c-3.45-.76-5.32-3.5-6.9-6.18-6.1-10.32-4.09-24.79,4.58-34.72,7.36-8.43,21.06-11.89,31.66-7,11.9,5.47,18,17,17.43,31.28-.25,6-1.65,11.63-5.73,16.36-1.55,1.8-2.7,2.44-4.45.25-1.9-2.37-4.84-3.24-7.47-4.54,3.48-5.78,5.95-11.86,5.55-18.79-.76-13.37-12.1-21.05-23.27-15.63,3.77,4.43,3.61,9.18.87,13.94-1.72,3-4.29,5-8,4.57s-5-3.15-5.75-6.37c-.15-.7-.38-1.38-.62-2.21C263.62,117,264.31,126.23,271.35,135.89Z"/><path class="cls-5" d="M271.35,135.89c-7-9.66-7.73-18.88-2.08-29,.24.83.47,1.51.62,2.21.71,3.22,2.06,6,5.75,6.37s6.26-1.58,8-4.57c2.74-4.76,2.9-9.51-.87-13.94,11.17-5.42,22.51,2.26,23.27,15.63.4,6.93-2.07,13-5.55,18.79C290.39,130.46,280.81,132.75,271.35,135.89Z"/><path class="cls-5" d="M164.66,129.86c-3.9-5.48-5.08-11.51-3.7-18.42,2.52,1.81,4.34,5,8,3.73a11.62,11.62,0,0,0,6.85-6c1.69-3.33,1.76-6.53-1.08-9.37-2.46-2.45-1.77-3.51,1.5-4.16,9.51-1.89,18.63,4.88,21.12,15.61,2.22,9.55-.45,17.73-6.3,25.18C182.89,131.66,174.39,128.3,164.66,129.86Z"/><path class="cls-3" d="M177.78,57.9c4.29.3,8,.79,11.35,2.42,4.46,2.16,6.66,7.15,5,11-1.59,3.66-5.15,5-10.23,3.18-8.72-3.15-16.22.25-23.73,3.89a24.19,24.19,0,0,0-3.37,2.13c-3,2.16-6.12,4.08-9.62,1.19-2.2-1.83-1.55-6.55,1.52-10.06C156.51,62.73,166.58,58.42,177.78,57.9Z"/><path class="cls-3" d="M267.64,70.12c-.43-4.62,2.21-7.08,5.79-8.72,13.19-6,35.87.51,44.12,12.62,2.05,3,2.55,6.23-.05,9s-5.41,1.26-8-.48c-8.59-5.76-17.41-10.91-28.35-9.8-2.79.29-5.57.79-8.32,1.35C269.38,74.76,267.17,74.08,267.64,70.12Z"/><path class="cls-6" d="M246.58,135.36a11.28,11.28,0,0,1-1,1.19c-1,.9-2,1.76-3,2.63-11.92,10.4-10.48,10.12-24-.82-1.82-1.47-3.43-3.73,0-5.05,8.39-3.18,17-3.91,25.5-.45C245.57,133.47,246.59,134.65,246.58,135.36Z"/><path class="cls-2" d="M210.55,124.19c2.88,9.58,10.45,14.12,18.38,18.2a6.45,6.45,0,0,0,3.61.31c6.74-.92,18-11.61,19.7-18.62a19.81,19.81,0,0,0-9.68-8.06,29.52,29.52,0,0,0-12.05-2.21l-.31,0a28.52,28.52,0,0,0-3.59.35C220.16,115.21,214.14,118.42,210.55,124.19Z"/><path class="cls-7" d="M221.46,119.86c1.37,4.57,5,6.74,8.76,8.68a3,3,0,0,0,1.72.15c3.21-.44,8.57-5.53,9.39-8.88a9.4,9.4,0,0,0-4.61-3.84,14,14,0,0,0-5.75-1h-.15a14.14,14.14,0,0,0-1.71.17A10.77,10.77,0,0,0,221.46,119.86Z"/><path class="cls-8" d="M158.41,153.34a24.94,24.94,0,0,1,11.53,15.95c4.74,21.44,14.71,35.36,30.52,42.35q2.41,1,4.85,1.86a76.65,76.65,0,0,0,24,3.5c33.14-.07,52.24-15.32,59.4-47.71a24.94,24.94,0,0,1,11.53-15.95c17.89-10.82,30.84-38.41,30.84-59.16,0-28.23-8.18-67.11-40.94-41.89-8.77,6.76-20.52-1.19-29.27,1.91a12.3,12.3,0,0,1-8.5-.15,64.19,64.19,0,0,0-46.43.13,11,11,0,0,1-7.86.15c-8.78-3.43-20.72,4.8-29.6-2C135.75,27.07,127.56,66,127.56,94.18,127.56,114.93,140.51,142.52,158.41,153.34Z"/><path class="cls-3" d="M165.43,84.11a22.16,22.16,0,0,1,21.51-6c5.79,1.38,10.64-.5,10.91-6.36a7.51,7.51,0,0,0-7.41-7.61,67,67,0,0,0-32.2,8.29c-7.07,5.06-8.35,8.15-6,12C155.36,89.54,160.56,89.27,165.43,84.11Z"/><path class="cls-3" d="M297.76,84.18a22.21,22.21,0,0,0-21.32-6.65c-5.83,1.2-10.63-.83-10.72-6.69a7.49,7.49,0,0,1,7.62-7.38,67.16,67.16,0,0,1,32,9.29c6.92,5.28,8.11,8.41,5.66,12.16C307.67,89.93,302.48,89.5,297.76,84.18Z"/><path class="cls-3" d="M274.87,152.36c-2.83-1.68-5-.13-6.91,2.1a86.2,86.2,0,0,1-6,6.93c-5.76,5.5-14.25,6.77-20.6,3.35a8.21,8.21,0,0,1-4.6-7.39c-.16-3.64,2.59-3.75,4.8-4.68,4.71-2,8.16-5.72,11.41-9.54,5.07-5.95,4.66-12.91-.77-19-1.72,7-13,17.7-19.7,18.62a6.45,6.45,0,0,1-3.61-.31c-7.93-4.08-15.5-8.62-18.38-18.2-3.11,3.42-4.66,7.29-4,11.36a13,13,0,0,0,.51,2,14.34,14.34,0,0,0,.91,2.07A29.55,29.55,0,0,0,222.15,153c1.81.82,4.41.62,4.46,3.76s-1,5.78-3.75,7.32a17.64,17.64,0,0,1-11.19,2.29c-7.22-.92-12-5.55-16.14-11.25-1.84-2.53-4.17-5.08-7.49-2.54-3.06,2.35-2.74,5.53-.75,8.53,5.62,8.49,13.16,14,23.08,15.77,6.37,1.16,12.46.43,17.48-3.88,2.79-2.4,4.28-2.57,7.32-.16,12.12,9.59,36.26,2,41.44-12.78C277.63,157.17,277.94,154.18,274.87,152.36Z"/><path class="cls-9" d="M177.42,85.26c-14.66.11-26.27,12.69-26.26,28.48,0,16.41,12.05,29.14,27.51,29.07,14.45-.06,25.41-12.27,25.5-28.4C204.25,98,192.45,85.16,177.42,85.26Z"/><path class="cls-9" d="M287,85.21c-15.39-.17-27.45,12.64-27.38,29.08.07,16.26,11.19,28.48,25.93,28.5,15.08,0,27.23-13.07,27.28-29.38C312.84,98,301.3,85.37,287,85.21Z"/><path class="cls-5" d="M198.39,108.5c-1.89-8.74-7.16-14.36-13.49-14.09s-12,7.09-13,15.61c-.18,1.43-.21,2.89-.32,4.55.14,1.61.17,3.45.47,5.21,1.36,7.88,6.77,14.05,12.47,14.37,6,.33,11.47-4.79,13.52-12.76A27.63,27.63,0,0,0,198.39,108.5Z"/><path class="cls-5" d="M281,93.65c-5.72-.19-10.81,4.4-13,11.88a25.88,25.88,0,0,0-1.19,8,26.69,26.69,0,0,0,3.14,12.35c5.5,9.92,17.75,8.68,22.31-1.94a26.68,26.68,0,0,0,1.09-18C291.32,98.73,286.36,93.83,281,93.65Z"/><ellipse class="cls-10" cx="177.27" cy="102.28" rx="8.15" ry="8.45"/><ellipse class="cls-10" cx="273.87" cy="101.31" rx="8.15" ry="8.45"/><path class="cls-8" d="M162.26,147.48h39.68c-.19-13.89-11.11-25.09-24.56-25.09a24.62,24.62,0,0,0-22.93,16.31C157.84,140.6,160.31,144.1,162.26,147.48Z"/><path class="cls-8" d="M297.57,143.19c1.79-2.08,4.55-3.57,6.64-5.39,1.84-1.61,4.48-3.19,5.29-5.66a4,4,0,0,1,.43-.9,24.36,24.36,0,0,0-20.74-11.82c-13.45,0-24.37,11.21-24.56,25.1h32.21A4,4,0,0,1,297.57,143.19Z"/><path class="cls-8" d="M277.05,235.52c-1.87-3.55-3.38-1.38-5-.11-9.69,7.55-20.48,13-32,17.29-6.38,2.38-12.37,1.89-18.58-.53-11.85-4.61-23.07-10.16-32.41-19-.68-.65-1.75-3.09-3-1-2.77,4.76-7,3.92-11,3.1a49.27,49.27,0,0,1-11.75-4.05A58.26,58.26,0,0,0,157,257.59c0,36,33.31,65.21,74.39,65.21s74.39-29.2,74.39-65.21a58.24,58.24,0,0,0-6.06-25.8,51,51,0,0,1-17.33,5C280.51,236.93,278,237.39,277.05,235.52Z"/><path class="cls-2" d="M209.55,125.32c3,9.88,10.95,14.56,19.27,18.76a6.73,6.73,0,0,0,3.77.32c7.07-1,18.85-12,20.65-19.19a20.71,20.71,0,0,0-10.15-8.3,31.18,31.18,0,0,0-12.62-2.28l-.33,0a29.54,29.54,0,0,0-3.76.36C219.62,116.07,213.31,119.38,209.55,125.32Z"/><path class="cls-7" d="M220.58,121.42c1.44,4.71,5.22,7,9.18,9a3.3,3.3,0,0,0,1.8.15c3.37-.45,9-5.7,9.85-9.15a9.91,9.91,0,0,0-4.84-4,14.77,14.77,0,0,0-6-1.08h-.15a13.38,13.38,0,0,0-1.8.18A11.29,11.29,0,0,0,220.58,121.42Z"/></g></g></svg>