<svg xmlns="http://www.w3.org/2000/svg" viewBox="0 0 94.01 94.01"><defs><style>.cls-1{fill:#d5ae29;}.cls-2{fill:#e6d16c;}.cls-3{fill:#be7329;}</style></defs><g id="Layer_2" data-name="Layer 2"><g id="Layer_1-2" data-name="Layer 1"><circle class="cls-1" cx="47.01" cy="47.01" r="47.01"/><path class="cls-2" d="M33.46,84.82,84.82,33.46A1.33,1.33,0,0,0,85.11,32a41.08,41.08,0,0,0-4.35-8.18A1.14,1.14,0,0,0,79,23.71L23.85,78.87a1.3,1.3,0,0,0,.19,2,41.31,41.31,0,0,0,8,4.23A1.33,1.33,0,0,0,33.46,84.82Z"/><path class="cls-2" d="M48.28,6.1H48A41.05,41.05,0,0,0,6.09,47.92c0,.11,0,.22,0,.33a1.3,1.3,0,0,0,2.22.88L49.15,8.31A1.29,1.29,0,0,0,48.28,6.1Z"/><path class="cls-2" d="M42.31,85.51a1.32,1.32,0,0,0,.8,2.24q1.92.18,3.9.18A40.92,40.92,0,0,0,87.93,47q0-2-.18-3.9a1.32,1.32,0,0,0-2.24-.8Z"/><path class="cls-3" d="M49.75,24.09,54.61,34a3.06,3.06,0,0,0,2.31,1.67L67.79,37.2a3.06,3.06,0,0,1,1.7,5.22l-7.87,7.67a3.08,3.08,0,0,0-.88,2.71L62.6,63.63a3.06,3.06,0,0,1-4.44,3.23l-9.73-5.11a3.06,3.06,0,0,0-2.85,0l-9.73,5.11a3.06,3.06,0,0,1-4.44-3.23L33.27,52.8a3.08,3.08,0,0,0-.88-2.71l-7.87-7.67a3.06,3.06,0,0,1,1.7-5.22l10.87-1.58A3.06,3.06,0,0,0,39.4,34l4.86-9.86A3.06,3.06,0,0,1,49.75,24.09Z"/></g></g></svg>