<svg xmlns="http://www.w3.org/2000/svg" viewBox="0 0 94.01 94.01"><defs><style>.cls-1{fill:#c2c8ce;}.cls-2{opacity:0.31;}.cls-3{fill:#4e585e;}</style></defs><g id="Layer_2" data-name="Layer 2"><g id="Layer_1-2" data-name="Layer 1"><circle class="cls-1" cx="47.01" cy="47.01" r="47.01"/><g class="cls-2"><path class="cls-3" d="M33.46,83.92,84.82,32.56a1.33,1.33,0,0,0,.29-1.42A40.72,40.72,0,0,0,80.76,23,1.15,1.15,0,0,0,79,22.81L23.85,78A1.32,1.32,0,0,0,24,80a41.27,41.27,0,0,0,8,4.22A1.33,1.33,0,0,0,33.46,83.92Z"/><path class="cls-3" d="M48.28,5.2H48A41.06,41.06,0,0,0,6.09,47c0,.1,0,.21,0,.32a1.3,1.3,0,0,0,2.22.88L49.15,7.41A1.3,1.3,0,0,0,48.28,5.2Z"/><path class="cls-3" d="M42.31,84.61a1.32,1.32,0,0,0,.8,2.24Q45,87,47,87A40.92,40.92,0,0,0,87.93,46.11q0-2-.18-3.9a1.32,1.32,0,0,0-2.24-.8Z"/></g><path class="cls-3" d="M39.19,62.53H54.85a1.53,1.53,0,0,0,1.48-1.9L53.18,48.11a1.51,1.51,0,0,1,.44-1.49,9.78,9.78,0,1,0-16.41-7.19,9.39,9.39,0,0,0,3.12,7.21,1.55,1.55,0,0,1,.48,1.53l-3.1,12.46A1.53,1.53,0,0,0,39.19,62.53Z"/></g></g></svg>