<svg xmlns="http://www.w3.org/2000/svg" viewBox="0 0 456.6 444.42"><defs><style>.cls-1{fill:none;}.cls-2{fill:#801e34;}.cls-3{fill:#c4bdb8;opacity:0.23;}.cls-4{fill:#fbaf40;}.cls-5{fill:#fcb223;}.cls-6{fill:#e6302a;}.cls-7{fill:#f06f22;}.cls-8{fill:#fffdf9;}.cls-9{fill:#07605b;}</style></defs><g id="Layer_2" data-name="Layer 2"><g id="Layer_1-2" data-name="Layer 1"><rect class="cls-1" width="456.6" height="444.42"/><path class="cls-2" d="M440.67,210.73a38.08,38.08,0,0,1-3.56,1.52c-6.44,2.39-13.26,2.67-19.84,4.44l-.48.12-.17.07a37.56,37.56,0,0,1-4.38,1.85l-1,.21a1,1,0,0,1,0,.38c-1.05,7.66-2.64,15.24-4,22.79l-26.61-18.35c8.9-11.36,5.36-22.28-3-32.79A27.6,27.6,0,0,1,371.47,175c-.84-13.41-1.4-26.87-3-40.21-1.5-12.46-4.59-24.72-11-35.68a11.77,11.77,0,0,1-1.44-9.5c3.81-17.06,4.33-34.32.44-51.35-4.46-19.52-17-28.6-37.09-20.4-16,6.5-29.74,16.39-42.63,27.67-1.24,1.09-3.29,2.16-4.76,1.93-12.73-2-25.33-4.91-38.11-6.34A176.46,176.46,0,0,0,173,44.6c-3.06.73-4.4-.1-6.36-1.81-15.16-13.2-31.57-24.58-50.6-31.37-16.18-5.78-28.45,1-33.26,17.49-5.39,18.49-2.55,36.72,2.09,54.88.43,1.71.58,4.06-.25,5.44C73.76,107.34,69.54,127.46,66.93,148c-1.53,12-4.15,22.95-14.23,31-5.64,4.52-7.13,11.29-5.61,18.09a30.87,30.87,0,0,0,14.25,20.14c2.71,1.67,4,3.6,4.63,6.93,4.18,20.4,15.89,34.46,36,41.05,1.85.61,4,1.07,5.38,2.26,9,7.49,17.86,15.16,26.69,22.71-4.75,4.1-4.75,4.09-9.61-.45-1.83-1.7-3.6-3.47-5.54-5-13.84-11.16-29.32-16.95-47.37-14.8C58.63,271.4,47.65,277,37.71,285c-15.64,12.57-24.42,28.92-24.56,48.93C13,350.73,19,365.92,29.93,379c9.14,9.52,19.76,16.46,32.84,19.43,15.34,3.48,29.82,1.22,43.82-5.64a14.89,14.89,0,0,1,6.41-1c6.47,0,12.94.25,19.4.48,5.47.19,10.94.41,16.4.8.95.06,1.83,1,2.75,1.55-.85.82-1.57,2.1-2.57,2.38-3.15.86-6.43,1.24-9.61,2-5.23,1.26-9.81,3.45-10.63,9.57-.79,5.82,1.5,9.33,8,12.84.71.38,1.38.85,2.07,1.28l8.88,1.53q21.74-2.3,43.48-4.59c1.81-.2,3.86.09,5.38-.67,1.94-1,4.34-2.5,4.93-4.32,1-3.11-1.5-5.17-4.38-5.32a90.69,90.69,0,0,0-13.38.45c-10.55,1-21.06,2.48-31.63,3.17-3.94.26-8-1.13-11.9-2.55,7.38-1.81,14.82-3.41,22.12-5.5,4.83-1.39,8-4.94,8.12-10.1.1-4.93-2.65-8.47-7.34-10.19a21,21,0,0,0-6.59-1.69c-11-.17-22.06-.07-33.74-.07l12-17.78c.66-3.63,1.84-5.78,6.48-6.19,15.67-1.39,31-4.73,44.82-12.67,4-2.29,7.78-4.95,12.11-7.73l6.86,3.36c-7.63,4.87-13.67,11-17.33,19.19-.16,5.1-1.27,10.38-.3,15.26C189.6,387.14,197.27,394,207.5,397c26.72,7.94,52.54,6.41,75.64-10.64,7.91-5.84,14.42-13.58,22.09-21l8,3c1.61,12.85,8.4,19.52,21.74,21.53,15.85,2.38,31.25-.1,46.44-4.3,8.36-2.31,15-7.6,21.06-13.63,4.7-8.45,10.24-16.55,13.92-25.43,7.73-18.66,9.82-38.35,8.2-58.47a12.15,12.15,0,0,1,.9-6.12c4-8,9.13-15.6,12.36-23.91,4.57-11.77,6.84-24.17,4.83-37C442.18,217.7,441,214.11,440.67,210.73ZM65.49,281.31c6.94-.18,13.9-.75,20.8-.33,2.36.14,5.37,2.23,6.72,4.31,6.19,9.49,10.49,19.78,11,32.46-9.64-16.41-22.77-27.15-38.85-34.61C65.27,282.53,65.38,281.92,65.49,281.31ZM41.62,296.16c10-8.5,10.37-8.51,22.25-2.49,16.15,8.18,27.84,20.49,35.48,37,3.43,7.4,2.68,14-.94,20.87C77.06,319.23,63.75,306.64,41,297.34,41.32,296.7,41.4,296.35,41.62,296.16Zm48.31,61.07-12.57-.64,6.18-12.45Zm-41.2-12c-11.53-7.62-9.55-5.75-4.67-16.43a40.64,40.64,0,0,1,5.39-8.29c4.2-5.27,6.62-5.28,10.87-.06a4.55,4.55,0,0,1,.32,4.11C56.88,331.39,52.86,338.11,48.73,345.2Zm.4.25ZM69.56,330c1.54,1,2,1.25,2.36,1.54,6.24,4.48,6.24,4.48,2.88,11.31-.43.9-.82,1.82-1.26,2.71-4.65,9.41-4.66,9.41-16.22,5C61.41,343.7,65.39,337,69.56,330ZM33.78,306.17l12,4.1-12.6,18.07C26.38,319.42,26.38,317.63,33.78,306.17ZM53.71,384c-7-3.67-13.87-7.5-17.75-14.87l30.09,13.3C62.25,386.16,59.23,386.87,53.71,384ZM33.35,355.85c-7.42-5.51-8.76-13.45-9-22.15,14.1,24.4,38,29.68,63.07,32.86-3.81,6.84-7.09,8.54-14.17,7.42C58.25,371.61,45.34,364.77,33.35,355.85Zm67.4,24.43c-6.58,7.6-15.4,9.09-26.28,8.48,19.42-9.52,30.33-24.8,36.4-43.71,6.16-19.17,4-37.84-4.09-56.28,3.26,3.06,6.61,6,9.76,9.2a24.85,24.85,0,0,1,7.36,17.39C124.82,340.15,116.85,361.66,100.75,380.28ZM121.33,368l10-29.32C131.81,344.1,126.93,359.14,121.33,368Zm11.29-95.45A116.43,116.43,0,0,1,118,259.81a22.11,22.11,0,0,0-10.83-6.33c-15.67-3.71-27.66-18.17-29.24-34.69-.48-5.07-2.29-8.61-7.26-10.75a22.65,22.65,0,0,1-7.85-5.93c-5.36-6.21-5.65-11.1.34-16.61,12.75-11.74,14.93-27.07,16.72-43,2-17.86,7.58-34.66,17.62-49.75a8.93,8.93,0,0,0,1.18-8.73c-5.33-15.79-7.7-32-4.79-48.58C96,23,103,19.37,114.77,24.29c15.4,6.42,28.19,16.81,40.83,27.4,2.42,2,4.54,4.48,7.17,6.18a8.37,8.37,0,0,0,5.84,1.33c34.28-8.77,68.3-7.38,102.09,2.47,3.82,1.12,6.45.64,9.42-2.05C292.74,48.23,306,37.75,321.57,30.46c.6-.27,1.12-.73,1.72-1,11.62-4.65,18.52-1.29,21.17,11.19,1.33,6.25,1.13,12.82,1.63,19.24l.92.27c-1.72,11.17-3.54,22.32-5,33.51a10.85,10.85,0,0,0,1.42,6,114.47,114.47,0,0,1,13.25,43.74c.8,9.22,1.5,18.45,2,27.69a51.1,51.1,0,0,0,12.24,30.94c3.52,4.16,3.52,8.27.77,12.79-3.53,5.8-7.42,10.85-14.58,12.66-4.64,1.17-7.7,4.33-9.68,9.12-5.29,12.74-13.72,23.06-27.16,27.54-5.83,1.94-12.45,1.45-18.7,2.18-2.3.27-5.31.13-6.73,1.49a105.1,105.1,0,0,1-62,28.92C196.71,300.89,162.83,293.54,132.62,272.54Zm58.55,45.72c-1.28-.76-2.47-2.21-3.76-2.28-1.74-.09-4.33.3-5.12,1.47a6.64,6.64,0,0,0-.41,5.79c1.28,2.39,3.69,4.17,5.87,6.48-10.79,8.81-29.63,15.51-47,16.68,2.58-14.1,1.46-27.75-5.12-41.06,3.21-2.56,6.29-5.33,9.71-7.56a6.21,6.21,0,0,1,4.89-.24,185.2,185.2,0,0,0,82,12.26c5.35-.41,10.63-2,16.58-3.12-7.34,11.29-16.18,20.16-27.72,26.07a6.76,6.76,0,0,1-5.48-.21C207.35,328,199.28,323.07,191.17,318.26Zm213.29,26.25c-7.52,20.22-21.29,32-44.08,33,.7-3,1.86-5.9,1.95-8.88.07-2.31-1.19-4.65-1.86-7-2.23,1.28-5.58,2.05-6.46,4-1.79,3.89-2.25,8.4-3.37,13.13h-9.27c.59-4.62,1.43-8.82,1.54-13,0-1.9-1.37-3.84-2.12-5.76-1.83,1.1-4.69,1.81-5.3,3.39-1.6,4.09-2.2,8.57-3.2,12.89-7.6-2.06-9.58-6.73-5.59-13.86,5.65-10.1,13.59-13.13,26.09-10.94,4.36.76,8.45,3,12.79,4,2.06.44,4.45-.69,6.69-1.1-.56-2.24-.39-5.57-1.81-6.53-4.47-3-9.62-5-14.35-7.6-2.11-1.18-4.47-2.67-5.63-4.66-10-17-3.11-36,10.85-46.2,1.75-1.27,4.05-2.14,5.16-3.81,1.22-1.83,2.41-4.86,1.66-6.47s-3.84-2.3-6-2.83c-1.07-.27-2.52.63-3.69,1.21-16.91,8.44-27.63,27.17-25.52,46,.61,5.42,3.43,10.6,5.37,16.28-8.52,2.29-15.86,6.92-20.51,15.48l-5.23-2.62c2.13-4.32,4.58-8.43,6.2-12.84a42.13,42.13,0,0,0,2.7-12.48c.08-1.64-2.57-3.61-4.36-4.91-.32-.23-3.12,1.86-3.74,3.31-8,18.84-18.52,35.85-34.54,49a62.18,62.18,0,0,1-27.55,13.24c-6.73,1.34-13.69,1.5-20.55,2.19l-1.05-1.74c1.24-3.56,2.88-7,3.57-10.7.42-2.21.17-5.78-1.22-6.85-2.84-2.17-5.33.23-6.68,2.93a59.32,59.32,0,0,0-4.52,10.75c-1.12,4.17-4,2.69-6.27,2.41-2.7-.33-3.42-2.3-2.51-4.77,1.48-4,3.3-8,4.43-12.1.47-1.73-.48-3.84-.78-5.77-2,.5-5.13.34-5.89,1.6-2.77,4.58-4.76,9.62-7,14.33C195.89,374.06,198.34,362,206,356a91.35,91.35,0,0,1,15.64-9.67c19.16-9.5,33.3-23.79,43.12-42.77,1.5-2.91,5.65-4.71,8.89-6.39,9.29-4.82,18.42-9.76,25.39-17.87.78-.91,2.66-1.88,3.55-1.55,8.16,3.09,15.78.75,23.15-2.34,14.54-6.08,25.31-16.26,31.85-30.74,3.56-7.89,11.07-10.78,18.71-7.46,23.91,10.36,34.45,29.58,36,54.58A127.31,127.31,0,0,1,404.46,344.51Zm16.18-76.63c-2.21-4.61-4.4-8.56-5.94-12.76-.51-1.39.59-3.42,1.07-5.12,2.33-8.24,5-16.4,6.93-24.73,1.33-5.84.84-6,7.47-8C433.35,235.28,429.19,251.58,420.64,267.88Z"/><path class="cls-3" d="M187.72,361c-.16,5.1-1.27,10.38-.3,15.26C189.6,387.14,197.27,394,207.5,397c26.72,7.94,52.54,6.41,75.64-10.64,7.91-5.84,14.42-13.58,22.09-21l8,3c1.61,12.85,8.4,19.52,21.74,21.53,15.85,2.38,31.25-.09,46.44-4.3,8.36-2.31,15-7.6,21.06-13.63,7.11,2,14.4,3.53,21.28,6.15A47.26,47.26,0,0,1,436.85,386c3.88,3.22,3.87,7.18-.21,10.19-4.86,3.58-10.26,7.15-16,8.72-17.84,4.89-35.76,9.92-54,12.85-22,3.55-44.33,5.24-66.56,7.26-12.86,1.17-25.8,1.61-38.72,2-16.43.52-32.88,1.18-49.3.84-17.71-.37-35.4-1.81-53.1-2.81-3.76-.22-7.51-.58-11.27-.87q21.74-2.3,43.48-4.59c1.81-.2,3.86.09,5.38-.67,1.93-1,4.34-2.5,4.93-4.32,1-3.11-1.5-5.17-4.38-5.32a90.69,90.69,0,0,0-13.38.45c-10.55,1-21.06,2.48-31.63,3.17-3.94.26-8-1.13-11.9-2.55,7.38-1.81,14.82-3.41,22.12-5.5,4.83-1.39,8-4.94,8.12-10.1.1-4.93-2.65-8.47-7.34-10.19a21,21,0,0,0-6.59-1.69c-11-.17-22.06-.07-33.74-.07l12-17.78a51.1,51.1,0,0,1,7.47-2c9.13-1.07,18.27-2.2,27.44-2.7C175.67,360,181.71,360.72,187.72,361Z"/><path class="cls-3" d="M29.93,379c9.14,9.52,19.76,16.46,32.84,19.43,15.34,3.48,29.82,1.22,43.82-5.64a14.89,14.89,0,0,1,6.41-1c6.47,0,12.94.25,19.4.48,5.47.19,10.94.41,16.4.8.95.06,1.83,1,2.75,1.55-.85.82-1.57,2.1-2.57,2.38-3.15.86-6.43,1.24-9.61,2-5.23,1.26-9.81,3.45-10.63,9.57-.79,5.82,1.5,9.33,8,12.84.71.38,1.38.85,2.07,1.28-2,.44-4,1.45-5.9,1.25-31.77-3.36-63.71-5.95-94.29-16.06A86.26,86.26,0,0,1,18,397.38c-4.92-3.3-4.33-8.93.63-12.42C22.1,382.53,26.14,380.92,29.93,379Z"/><path class="cls-4" d="M347,60.19c-1.72,11.17-3.54,22.32-5,33.51a10.85,10.85,0,0,0,1.42,6,114.47,114.47,0,0,1,13.25,43.74c.8,9.22,1.5,18.45,2,27.69a51.1,51.1,0,0,0,12.24,30.94c3.52,4.16,3.52,8.27.77,12.79-3.53,5.8-7.42,10.85-14.58,12.66-4.64,1.17-7.7,4.33-9.68,9.12-5.29,12.74-13.72,23.06-27.16,27.54-5.83,1.94-12.45,1.45-18.7,2.18-2.3.27-5.31.13-6.73,1.49a105.1,105.1,0,0,1-62,28.92c-36.08,4.13-70-3.22-100.17-24.22A116.43,116.43,0,0,1,118,259.81a22.11,22.11,0,0,0-10.83-6.33c-15.67-3.71-27.66-18.17-29.24-34.69-.48-5.07-2.29-8.61-7.26-10.75a22.65,22.65,0,0,1-7.85-5.93c-5.36-6.21-5.65-11.1.34-16.61,12.75-11.74,14.93-27.07,16.72-43,2-17.86,7.58-34.66,17.62-49.75a8.93,8.93,0,0,0,1.18-8.73c-5.33-15.79-7.7-32-4.79-48.58C96,23,103,19.37,114.77,24.29c15.4,6.42,28.19,16.81,40.83,27.4,2.42,2,4.54,4.48,7.17,6.18a8.37,8.37,0,0,0,5.84,1.33c34.28-8.77,68.3-7.38,102.09,2.47,3.82,1.12,6.45.64,9.42-2.05C292.74,48.23,306,37.75,321.57,30.46c.6-.27,1.12-.73,1.72-1,11.62-4.65,18.52-1.29,21.17,11.19,1.33,6.25,1.13,12.82,1.63,19.24Zm-184,131c9.45-17.86,1.67-45.71-15.92-57-11.53-7.41-23.65-6.29-33.68,3.08-13.51,12.64-17.35,34.64-9.15,52.38,6.25,13.51,15.74,22.48,31.6,22.47C148.26,214.08,160.9,201.09,163,191.17Zm95.07,28c16.3,5.1,32.61-.71,42.7-15.19,11.37-16.32,9.72-39.2-4-55.2-9.24-10.77-20.82-16.22-34.89-12.66-22.24,5.62-34.17,31.12-30.34,51.55C232.65,203.86,243.25,216.44,258.05,219.2Zm-67.89,33.88c4.77,5.67,11.64,7,18.44,8.39,12,2.46,22.75-.41,30.64-9.82,3.29-3.93,4.76-9.61,6.17-14.73.38-1.41-2.15-4.7-3.95-5.3s-4.79.6-6.45,2-2.25,4-3.41,6A20,20,0,0,1,203,245.8c-5.62-4-5.35-10.64,0-14.69,4.59-3.47,9.22-7.23,12.7-11.74,5.83-7.56,3.66-15.79-5-19.77A55.36,55.36,0,0,0,196,195.52c-9.09-1.35-17.93-.24-25.79,5.09-7.16,4.85-9.16,12.59-3.94,19.4,3.43,4.47,8.37,7.85,12.95,11.31a8.27,8.27,0,0,1,2.3,10.37c-1.53,2.91-7.95,4.88-10.5,2.83-4.47-3.57-8.49-7.69-13-11.21-2-1.54-4.67-2.16-7-3.2-.86,2.62-2.66,5.33-2.42,7.85.8,8.32,6.69,12.74,13.71,16.09C171.7,258.55,180.93,259.25,190.16,253.08ZM264.82,99c-2.44.84-7.13,1.93-11.31,4-3.78,1.89-6.13,5.5-4.27,10,2,4.85,5.87,2.91,9.34,1.78,11.88-3.87,22.18-1.38,30.84,7.7,1,1.08,1.95,2.63,3.22,3,1.86.58,4.27.95,5.89.2,1-.46,1.67-3.42,1.2-4.82-1.12-3.33-2.42-6.93-4.7-9.46C287.67,103.27,277.94,99.94,264.82,99Zm-104.75,2.41c-1.2-1.38-3-4.55-5.78-6.44-11.51-8-31.64-4-40.33,7.71-1.64,2.22-3.46,4.55-1,7.55,2.65,3.19,5.2,2.26,8.24.63a69.19,69.19,0,0,1,12.1-5.49c6.56-2,12.6.56,18.62,3.08C157.05,110.6,159.94,108.65,160.07,101.43Z"/><path class="cls-5" d="M187.75,329.72c-10.79,8.81-29.63,15.51-47,16.68,2.58-14.1,1.46-27.75-5.12-41.06,3.21-2.56,6.29-5.33,9.71-7.56a6.21,6.21,0,0,1,4.89-.24,185.2,185.2,0,0,0,82,12.26c5.35-.41,10.63-2,16.58-3.12-7.34,11.29-16.18,20.16-27.72,26.07a6.76,6.76,0,0,1-5.48-.21c-8.23-4.58-16.3-9.47-24.41-14.28-1.28-.76-2.47-2.21-3.76-2.28-1.74-.1-4.33.3-5.12,1.47a6.64,6.64,0,0,0-.41,5.79C183.16,325.63,185.57,327.41,187.75,329.72Z"/><path class="cls-6" d="M41,297.34c.34-.64.42-1,.64-1.18,10-8.5,10.37-8.51,22.25-2.49,16.15,8.18,27.84,20.49,35.48,37,3.43,7.4,2.68,14-.94,20.87C77.06,319.23,63.75,306.64,41,297.34Z"/><path class="cls-6" d="M106.78,288.77c3.26,3.06,6.61,6,9.76,9.2a24.85,24.85,0,0,1,7.36,17.39c.92,24.79-7.05,46.3-23.15,64.92-6.58,7.6-15.4,9.09-26.28,8.48,19.42-9.52,30.33-24.8,36.4-43.71C117,325.88,114.89,307.21,106.78,288.77Z"/><path class="cls-6" d="M24.3,333.7c14.1,24.4,38,29.68,63.07,32.86-3.81,6.84-7.09,8.54-14.17,7.42-15-2.37-27.86-9.21-39.85-18.13C25.93,350.34,24.59,342.4,24.3,333.7Z"/><path class="cls-5" d="M430.17,217.23c3.18,18.05-1,34.35-9.53,50.65-2.21-4.61-4.4-8.56-5.94-12.76-.51-1.39.59-3.42,1.07-5.12,2.33-8.24,5-16.4,6.93-24.73C424,219.43,423.54,219.32,430.17,217.23Z"/><path class="cls-6" d="M104,317.75c-9.64-16.41-22.77-27.15-38.85-34.61l.34-1.83c6.94-.18,13.9-.75,20.8-.33,2.36.14,5.37,2.23,6.72,4.31C99.2,294.78,103.5,305.07,104,317.75Z"/><path class="cls-6" d="M48.62,345.38c.74.07.56.11.45,0-11.92-7.88-9.93-5.86-5-16.65a40.64,40.64,0,0,1,5.39-8.29c4.2-5.27,6.62-5.28,10.87-.06a4.55,4.55,0,0,1,.32,4.11C56.85,331.46,52.79,338.23,48.62,345.38Z"/><path class="cls-6" d="M69.56,330c1.54,1,2,1.25,2.36,1.54,6.24,4.48,6.24,4.48,2.88,11.31-.43.9-.82,1.82-1.26,2.71-4.65,9.41-4.66,9.41-16.22,5C61.41,343.7,65.39,337,69.56,330Z"/><path class="cls-6" d="M45.76,310.27l-12.6,18.07c-6.78-8.92-6.78-10.71.62-22.17Z"/><path class="cls-6" d="M35.87,369.05l30.18,13.34c-3.8,3.77-6.82,4.48-12.34,1.57-7-3.68-13.92-7.53-17.8-14.95Z"/><path class="cls-6" d="M89.93,357.23l-12.57-.64,6.18-12.45Z"/><path class="cls-6" d="M121.33,368l10-29.32C131.81,344.1,126.93,359.14,121.33,368Z"/><path class="cls-6" d="M35.91,369l-.73-.24.69.28Z"/><path class="cls-2" d="M403.54,138.77C393.47,148.22,389,160,388.66,173.39c-.29,12.32.93,24.84,11.75,32.73,5.61,4.09,6.71,9,7,14.6a59.24,59.24,0,0,1-1.3,16.77c-3,12.34-8.62,23.23-19.89,30.09,1.15.82,2.39,1.68,2.86,2-.07-.06,1.7.9,1.94,1,.95.47,1.91.92,2.87,1.36,1.59.73,3.2,1.41,4.82,2.07,7.67-7.51,14.05-15.77,17.54-25.94a65.84,65.84,0,0,0,2.36-35.37l8.4-1.83c10,16.15.93,50.82-16.05,68,3.89,1.56,7.73,3.21,11.47,5.07,11.1-12.73,18.65-27.33,20.08-45.18.93-11.65.89-23.16-4.13-34.12a5,5,0,0,1,.37-3.88c5.68-10.49,5.12-20.5-1.66-30.33-4.61-6.69-9.18-13.32-7.2-22.42.59-2.68-.79-6.33-2.37-8.84C422.72,131.58,411,131.8,403.54,138.77Zm13.74,14.62c-.56,9.15,4.65,16,9.16,23.15.71,1.12,1.54,2.18,2.14,3.36,3.44,6.79,1.88,15.35-3.31,18.4-7,4.1-16.88,1.72-21.16-5.08-7.15-11.34-3.26-35.89,7.11-44.33a67.92,67.92,0,0,1,6.49-4C417.51,148.82,417.42,151.1,417.28,153.39Z"/><path class="cls-7" d="M417.71,144.86c-.2,4-.29,6.24-.43,8.53-.56,9.15,4.65,16,9.16,23.15.71,1.12,1.54,2.18,2.14,3.36,3.44,6.79,1.88,15.35-3.31,18.4-7,4.1-16.88,1.72-21.16-5.08-7.15-11.34-3.26-35.89,7.11-44.33A67.92,67.92,0,0,1,417.71,144.86Z"/><path class="cls-5" d="M418.58,212.71a65.84,65.84,0,0,1-2.36,35.37c-3.49,10.17-9.87,18.43-17.54,25.94,2.4,1,4.82,1.92,7.24,2.85q2.52,1,5,2c17-17.14,26.1-51.81,16.05-68Z"/><path class="cls-2" d="M190.16,253.08c-9.23,6.17-18.46,5.47-27.88,1-7-3.35-12.91-7.77-13.71-16.09-.24-2.52,1.56-5.23,2.42-7.85,2.37,1,5.07,1.66,7,3.2,4.51,3.52,8.53,7.64,13,11.21,2.55,2,9,.08,10.5-2.83a8.27,8.27,0,0,0-2.3-10.37c-4.58-3.46-9.52-6.84-12.95-11.31-5.22-6.81-3.22-14.55,3.94-19.4,7.86-5.33,16.7-6.44,25.79-5.09a55.36,55.36,0,0,1,14.69,4.08c8.66,4,10.83,12.21,5,19.77-3.48,4.51-8.11,8.27-12.7,11.74-5.37,4-5.64,10.69,0,14.69a20,20,0,0,0,28.62-6.22c1.16-2,1.76-4.61,3.41-6s4.65-2.57,6.45-2,4.33,3.89,3.95,5.3c-1.41,5.12-2.88,10.8-6.17,14.73-7.89,9.41-18.61,12.28-30.64,9.82C201.8,260.08,194.93,258.75,190.16,253.08Z"/><path class="cls-8" d="M231.5,187.7c-3.83-20.43,8.1-45.93,30.34-51.55,14.07-3.56,25.65,1.89,34.89,12.66,13.74,16,15.39,38.88,4,55.2-10.09,14.48-26.4,20.29-42.7,15.19a21.28,21.28,0,0,1,4.09-2c6-1.43,11.18-4.05,13.71-10,6.65-15.54,4.67-29.8-6.83-42.45-9.42-10.36-21.31-10-30.18.91C233.66,172.11,232,179.73,231.5,187.7Z"/><path class="cls-8" d="M135.83,212.09c-15.86,0-25.35-9-31.6-22.47-8.2-17.74-4.36-39.74,9.15-52.38,10-9.37,22.15-10.49,33.68-3.08,17.59,11.3,25.37,39.15,15.92,57,.12-1.63.14-3.27.36-4.88,1.6-11.88-2-22-10.88-29.91a16.16,16.16,0,0,0-21-.91C111.47,170.51,116.18,204.55,135.83,212.09Z"/><path class="cls-9" d="M231.5,187.7c.53-8,2.16-15.59,7.34-22,8.87-10.93,20.76-11.27,30.18-.91,11.5,12.65,13.48,26.91,6.83,42.45-2.53,5.92-7.72,8.54-13.71,10a21.28,21.28,0,0,0-4.09,2C243.25,216.44,232.65,203.86,231.5,187.7Zm34.08-14.92c-4.55,0-5.72,2.85-5.86,6.74-.14,4.08,1.72,7.19,5.59,7.3,3.34.1,6.05-2.38,6.25-6.29C271.79,175.94,269.27,172.78,265.58,172.78Z"/><path class="cls-9" d="M135.83,212.09c-19.65-7.54-24.36-41.58-4.39-56.62a16.16,16.16,0,0,1,21,.91c8.91,7.94,12.48,18,10.88,29.91-.22,1.61-.24,3.25-.36,4.88C160.9,201.09,148.26,214.08,135.83,212.09Zm15-30.77c4.42.26,7.68-2.39,7.82-6.35.14-3.62-3.4-8.41-6.23-7.45a14.27,14.27,0,0,0-7.38,5.95C143.58,176.09,147.88,181.14,150.82,181.32Z"/><path class="cls-2" d="M264.82,99c13.12.92,22.85,4.25,30.21,12.41,2.28,2.53,3.58,6.13,4.7,9.46.47,1.4-.21,4.36-1.2,4.82-1.62.75-4,.38-5.89-.2-1.27-.4-2.19-2-3.22-3-8.66-9.08-19-11.57-30.84-7.7-3.47,1.13-7.32,3.07-9.34-1.78-1.86-4.45.49-8.06,4.27-10C257.69,101,262.38,99.86,264.82,99Z"/><path class="cls-2" d="M160.07,101.43c-.13,7.22-3,9.17-8.11,7-6-2.52-12.06-5.09-18.62-3.08a69.19,69.19,0,0,0-12.1,5.49c-3,1.63-5.59,2.56-8.24-.63-2.5-3-.68-5.33,1-7.55C122.65,91,142.78,87,154.29,95,157,96.88,158.87,100.05,160.07,101.43Z"/><path class="cls-4" d="M412.3,291.77c-1.53-25-12.07-44.22-36-54.58-7.64-3.32-15.15-.43-18.71,7.46-6.54,14.48-17.31,24.66-31.85,30.74-7.37,3.09-15,5.43-23.15,2.34-.89-.33-2.77.64-3.55,1.55-7,8.11-16.1,13.05-25.39,17.87-3.24,1.68-7.39,3.48-8.89,6.39-9.82,19-24,33.27-43.12,42.77A91.35,91.35,0,0,0,206,356c-7.68,6-10.13,18.08-3.21,24.16,2.2-4.71,4.19-9.75,7-14.33.76-1.26,3.86-1.1,5.89-1.6.3,1.93,1.25,4,.78,5.77-1.13,4.13-2.95,8.06-4.43,12.1-.91,2.47-.19,4.44,2.51,4.77,2.31.28,5.15,1.76,6.27-2.41a59.32,59.32,0,0,1,4.52-10.75c1.35-2.7,3.84-5.1,6.68-2.93,1.39,1.07,1.64,4.64,1.22,6.85-.69,3.66-2.33,7.14-3.57,10.7l1.05,1.74c6.86-.69,13.82-.85,20.55-2.19a62.18,62.18,0,0,0,27.55-13.24c16-13.15,26.55-30.16,34.54-49,.62-1.45,3.42-3.54,3.74-3.31,1.79,1.3,4.44,3.27,4.36,4.91a42.13,42.13,0,0,1-2.7,12.48c-1.62,4.41-4.07,8.52-6.2,12.84l5.23,2.62c4.65-8.56,12-13.19,20.51-15.48-1.94-5.68-4.76-10.86-5.37-16.28-2.11-18.8,8.61-37.53,25.52-46,1.17-.58,2.62-1.48,3.69-1.21,2.2.53,5.31,1.26,6,2.83s-.44,4.64-1.66,6.47c-1.11,1.67-3.41,2.54-5.16,3.81-14,10.15-20.83,29.16-10.85,46.2,1.16,2,3.52,3.48,5.63,4.66,4.73,2.65,9.88,4.61,14.35,7.6,1.42,1,1.25,4.29,1.81,6.53-2.24.41-4.63,1.54-6.69,1.1-4.34-.92-8.43-3.2-12.79-4-12.5-2.19-20.44.84-26.09,10.94-4,7.13-2,11.8,5.59,13.86,1-4.32,1.6-8.8,3.2-12.89.61-1.58,3.47-2.29,5.3-3.39.75,1.92,2.17,3.86,2.12,5.76-.11,4.21-1,8.41-1.54,13h9.27c1.12-4.73,1.58-9.24,3.37-13.13.88-1.91,4.23-2.68,6.46-4,.67,2.33,1.93,4.67,1.86,7-.09,3-1.25,5.93-1.95,8.88,22.79-1.06,36.56-12.81,44.08-33A127.31,127.31,0,0,0,412.3,291.77Z"/><path class="cls-8" d="M265.58,172.78c3.69,0,6.21,3.16,6,7.75-.2,3.91-2.91,6.39-6.25,6.29-3.87-.11-5.73-3.22-5.59-7.3C259.86,175.63,261,172.81,265.58,172.78Z"/><path class="cls-8" d="M150.82,181.32c-2.94-.18-7.24-5.23-5.79-7.85a14.27,14.27,0,0,1,7.38-5.95c2.83-1,6.37,3.83,6.23,7.45C158.5,178.93,155.24,181.58,150.82,181.32Z"/><path class="cls-4" d="M107.58,224.93h57.08c-.27-12.72-16-23-35.34-23-15,0-27.87,6.19-33,14.92A27.9,27.9,0,0,1,107.58,224.93Z"/><path class="cls-4" d="M302.26,221c2.56-1.9,6.55-3.27,9.55-4.93,2.65-1.47,6.44-2.92,7.61-5.18a3.33,3.33,0,0,1,.62-.83c-6.27-6.49-17.29-10.81-29.84-10.81-19.35,0-35.06,10.25-35.34,23H301.2A3.62,3.62,0,0,1,302.26,221Z"/></g></g></svg>