<svg xmlns="http://www.w3.org/2000/svg" viewBox="0 0 428.21 506.85"><defs><style>.cls-1{fill:none;}.cls-2{fill:#801e34;}.cls-3{fill:#c4bdb8;opacity:0.23;}.cls-4{fill:#fbaf40;}.cls-5{fill:#ec5831;}.cls-6{fill:#d6cabf;}.cls-7{fill:#fffcf8;}.cls-8{fill:#07605b;}.cls-9{fill:#fff;}</style></defs><g id="Layer_2" data-name="Layer 2"><g id="Layer_1-2" data-name="Layer 1"><rect class="cls-1" width="428.21" height="506.85"/><path class="cls-2" d="M75.71,437.46c-6.55-15.2-6.36-30.79-2.93-46.63a6.31,6.31,0,0,0-1.32-4.91C58.54,372.43,55.1,349.2,63.61,332.8c3.89-7.47,9.93-12.24,18.09-15.23,0-5.92,0-11.86,0-17.79,0-7.2,2.29-9.72,9.43-10.43.75-2.31,1.5-4.59,2.32-7.08-1.67-2.62-3.51-3.58-7.5-2.9C75,281.21,65.79,277,60,267.69a72.41,72.41,0,0,1-8-19.42c-1.33-5-3-8.3-7.94-10.63-11.44-5.36-17.86-19.93-14.2-31.75,1-3.17,3.55-6,5.87-8.58,5.26-5.83,9.65-11.72,10.15-20.18,1.6-27.37,5.78-54.23,18-79.22a6.39,6.39,0,0,0,.43-4.23,119.82,119.82,0,0,1-5-36.72,96.32,96.32,0,0,1,2.79-22.6c4.11-15.52,16.8-21.78,33-16.88,14.64,4.42,27,13,38.94,22.25,4.73,3.65,9.16,7.71,14,11.23a8.18,8.18,0,0,0,5.74,1.26c26-5.16,52.22-8.09,78.71-5.46,14.12,1.4,28.15,3.76,42.13,6.24,3.14.55,4.59-.7,6.37-2.26C293.26,40,305.92,29.87,320.5,22.41c3.65-1.86,7.58-3.16,11.39-4.71,14.73-6,30.41,2.45,33.84,21.48s.63,37.17-3.54,55.48a5.38,5.38,0,0,0,.41,3.43c8.63,16.13,12.35,33.7,14.82,51.56,1.38,10,1.6,20.2,3.25,30.15.66,3.93,2.88,8.75,6,10.92,20.07,14.14,12,38.88-7,48.93-2.78,1.48-4.14,3-4.61,6.09-1.51,10.21-5.22,19.42-12.88,26.75a25.12,25.12,0,0,1-21.36,7.13c-5.73-.69-7.07.88-5.2,6.23.38,1.07.77,2.14,1.19,3.31,8.15,1.28,9.78,3.18,9.75,11.61q0,8,0,16a4.66,4.66,0,0,0,.19,1c14.4,5,24.54,18.48,22.13,40.83-1.15,10.67-4.72,20.15-12.48,27.86a5,5,0,0,0-.73,4,70.92,70.92,0,0,1-4.19,46.1c-9.65,15.3-23.29,23.68-41.58,24a4.53,4.53,0,0,0-2.7.79c-12.54,11.06-27.46,13-43.4,11.88-14.47-1.06-26.67-5.74-34.39-19-.63-1.08-2.76-1.76-4.21-1.79-7.66-.18-15.33-.09-23.64-.09-5,10-14.14,16.37-25.69,18.65-7.26,1.44-14.87,1.24-22.33,1.44-10.26.26-19.57-2.86-28.11-8.54a12.93,12.93,0,0,0-5.92-2.08C101.11,460.45,85.76,453.75,75.71,437.46Zm139.41-129.3c4-3.62,7.21-7,10.88-9.81,16.3-12.47,35.1-19.35,54.91-23.56,10-2.13,20.29-3.68,30.55-1.11,7.82,2,14.49,1.61,19.54-6.09,1.05-1.61,5.48-1.91,8.09-1.42,8.66,1.65,13.13.8,17.26-6.95,3.35-6.29,4.58-13.69,7.14-20.44a16.87,16.87,0,0,1,4.67-6.88c2.91-2.4,6.64-3.77,9.75-6,7.28-5.12,12.13-16.09,2.22-24.39a31.77,31.77,0,0,1-11.9-26.35c.16-4.78-.58-9.61-1.08-14.4A191.42,191.42,0,0,0,351,100.48a13.83,13.83,0,0,1-1.12-7.18c.75-5.91,2.7-11.72,3-17.63.62-11.39,1.41-22.93.34-34.23-1.13-11.83-8.43-15.48-19.59-11a77.47,77.47,0,0,0-16.46,8.74c-10.61,7.7-20.86,15.93-31,24.24-3.69,3-7.2,4.32-11.86,2.85C257,60.83,239,60,221.11,59a212.47,212.47,0,0,0-67.38,7.28c-5.5,1.47-8-.36-11.31-3.17C126.83,49.9,111.07,37,91.61,29.61c-9.31-3.55-15.77-.62-17.93,9.1-3.41,15.39-2.13,30.78,1.43,45.87,1.7,7.19,2.56,13-1,20.43C64.67,124.78,60,146.19,59,168.05c-.65,14.2-3.29,26.72-14.42,36.74-5,4.52-4.42,11.65.45,16.49A69.85,69.85,0,0,0,57.41,231c3.46,2.15,5,4.69,5.7,8.64,1.06,5.74,2.37,11.63,4.81,16.88,4.59,9.91,10.22,12.09,20.63,8.95,3.45-1,6.17-.5,8.6,2,1.73,1.81,3.27,3.91,5.31,5.25,1.7,1.11,4.25,2.24,6,1.77,17.52-4.77,35-2,51.56,2.74C180.41,283,200,291.67,215.12,308.16ZM189.24,431.53a18,18,0,0,0,.38-2.32c0-32.8,0-65.59.06-98.38,0-3.12-1.45-3.79-4-4.46-22.14-5.81-44.23-11.77-66.35-17.65-8.27-2.2-16.57-4.31-25.47-6.61,0,3.43.22,6.08,0,8.69-.44,4.2.49,6.2,5.33,7.35,12.78,3.05,19.4,11.72,20.81,25.13a7.91,7.91,0,0,0,1.45,3.54c6.18,8.69,6.11,17.8.07,26.78-2,2.94-3,6.51-4.81,9.56-2,3.31-3.79,7.41-6.83,9.26-5.3,3.22-2.89,7.68-2.91,11.53,0,1.36,3,3.39,5,4,15.22,4.69,30.55,9,45.8,13.64C168.2,424.76,178.58,428.16,189.24,431.53ZM238.67,327.8V431.28c27.4-8.25,54.22-16.29,81-24.49,1.18-.36,2.72-2.16,2.71-3.28,0-2.75,0-7.24-1.51-7.95-7-3.35-9.58-9.21-11.25-16.07a10.93,10.93,0,0,0-2.61-4,21.76,21.76,0,0,1-1.12-27.13,10.17,10.17,0,0,0,1.72-4.91c1.1-10.86,6.56-18.67,16.35-23.29,3.22-1.53,6.82-2.26,10.16-3.33V301.87Zm-37.41,8.35a6,6,0,0,0-.36,1.56c-.06,31.25-.19,62.49,0,93.73,0,2.51,2,6.39,4,7.21a29.39,29.39,0,0,0,13.43,2.14c8.48-.87,9.09-2.05,9.09-10.43q0-45.37-.06-90.74c0-1.57-.18-3.14-.2-3.47Zm123.48-44.3c-3-5.88-7.72-7.08-12.69-7.18-17.06-.35-33.48,3.23-49.5,8.83-15.24,5.32-29.94,11.51-41.3,23.73-4.13,4.45-9.67,4.07-14.44-1-8.91-9.42-20-15.32-31.89-19.54A274,274,0,0,0,140.77,287c-8.21-1.76-16.8-2-25.24-2.29-6.45-.22-9.8,2.34-10.86,7a17.44,17.44,0,0,0,2.17.92c20.9,5.66,41.81,11.26,62.7,17,11,3,22,5.19,32,11.62,8.79,5.68,18.43,4.07,27.31-1.36a26.87,26.87,0,0,1,6-3.22c11.83-3.44,23.71-6.72,35.59-10C288.21,301.78,306,297,324.74,291.85ZM106.8,376.52c-2.81,0-5.16.32-7.37-.1-1.87-.36-3.59-1.57-5.38-2.4,1.19-1.83,2-4.65,3.63-5.26a27.16,27.16,0,0,1,10.16-1.38c3.52.13,5.24-1.27,6.16-4.39,1.29-4.44-.67-8.35-5.42-9.53-4-1-8.28-.94-12.22-2.08-1.8-.52-3.09-2.8-4.62-4.29,1.54-1.18,3-3.16,4.65-3.37,4-.5,8.13-.16,12.92-.16-.7-2.43-.9-4.26-1.7-5.77-3.22-6.08-8.4-10-15.24-9.16-7.36.91-15.29,2.16-18.6,10.58-4.91,12.49-3.54,24.5,4,35.52,5,7.4,12.27,11,21.44,9.74C103.22,383.9,106.4,382.21,106.8,376.52ZM319.24,343c4.13-.21,7.89-.62,11.64-.54,3.07.07,6.09,1.58,5.42,5-.39,2-3.08,3.63-5,5-.94.66-2.59.23-3.91.42a59.58,59.58,0,0,0-8.78,1.46c-4.11,1.24-5.6,4.44-5,8.58s3.33,5,7.22,4.85a20.29,20.29,0,0,1,9.07,1.8c1.63.79,2.33,3.5,3.46,5.34-1.76.91-3.44,2.19-5.31,2.62-2.26.52-4.69.31-7,.42-.25.63-.5,1.26-.74,1.89,2.06,1.51,4.06,4.18,6.19,4.29,4.65.23,9.86.27,14-1.55,15.67-6.94,22-32.56,12-46.63-4.16-5.85-12.59-8.73-20-6.84S320,336.2,319.24,343ZM238,443.65c1.85,8.7,7.92,13.93,17.09,15.42.35-3.93.19-8,1.25-11.74.54-1.9,3.29-3.16,5-4.72,1.12,2,2.82,3.92,3.23,6.06.58,3.06,0,6.31.31,9.43.28,2.64,5.63,4.43,7,2.31,1.08-1.65,1.08-4.06,1.4-6.16.53-3.4.54-7,1.6-10.18.41-1.26,3.06-2.43,4.67-2.41,1,0,2.54,2.31,2.73,3.73a37.36,37.36,0,0,1,0,9.45c-.51,4.2.86,5,4.72,3.79C302.31,454,312,438.12,309,421.76ZM118.73,421.71c.39,4.56.54,8,1,11.43C121.57,446.3,130.08,454,141.26,458c4.48,1.6,5.74.39,5.66-4.29,0-2.66-.57-5.4-.07-8,.31-1.6,2.16-4.12,3.24-4.08a6.38,6.38,0,0,1,4.73,3.17c1.12,2.67,1.32,5.8,1.58,8.76.7,7.89.64,7.89,8.21,5.07,0-3.39-.42-6.94.15-10.33.35-2,2.25-3.8,3.45-5.68,1.6,1.62,4.06,3,4.63,4.92,1,3.4.83,7.13,1.16,10.73,6.75-.82,13.65-4.59,16.34-9.29,1.12-2,3.25-4.35-1.13-5.68C166.1,436.35,143,429.19,118.73,421.71Zm-34.2-26.8c-9.38,26.29,6.32,53.81,26.25,53.17-.73-8-1.86-16-2-24.08-.09-4.14-1-6.39-5.15-7.31-5.36-1.18-8.21-4.47-8.16-10.24a84.82,84.82,0,0,0-.9-9.46Zm249.9,2a11.83,11.83,0,0,0-.17,1.37c.27,9-.16,17.58-11.81,19.54-.86.14-1.76,2.47-1.92,3.86-.95,8.59-1.68,17.21-2.5,26,5.44-.33,10.35-3.15,14.81-7,14.49-12.53,13.14-29.18,12.3-46.14Z"/><path class="cls-3" d="M75.71,437.46c10.05,16.29,25.4,23,43.79,24.35a12.93,12.93,0,0,1,5.92,2.08c8.54,5.68,17.85,8.8,28.11,8.54,7.46-.2,15.07,0,22.33-1.44,11.55-2.28,20.69-8.69,25.69-18.65,8.31,0,16-.09,23.64.09,1.45,0,3.58.71,4.21,1.79,7.72,13.23,19.92,17.91,34.39,19,15.94,1.16,30.86-.82,43.4-11.88a4.53,4.53,0,0,1,2.7-.79c18.29-.37,31.93-8.75,41.58-24q13,4.2,25.94,8.45a14.85,14.85,0,0,1,3.1,1.58c9.35,5.8,9.45,12.48.06,18.19-12,7.3-25.55,10.14-39.05,12.65-14.94,2.77-30,4.77-45.1,6.84-7.53,1-15.14,1.71-22.73,2.16-9.77.58-19.56.83-29.35,1.12-12.11.36-24.26,1.32-36.33.78-25.14-1.14-50.34-2.21-75.33-5-21.14-2.36-42.12-6.64-63-11-7.6-1.6-14.94-5.39-21.82-9.22-7.14-4-7.27-10.88-.45-15.5A58.46,58.46,0,0,1,75.71,437.46Z"/><path class="cls-4" d="M215.12,308.16C200,291.67,180.41,283,160,277.25c-16.57-4.7-34-7.51-51.56-2.74-1.74.47-4.29-.66-6-1.77-2-1.34-3.58-3.44-5.31-5.25-2.43-2.54-5.15-3.08-8.6-2-10.41,3.14-16,1-20.63-8.95-2.44-5.25-3.75-11.14-4.81-16.88-.73-4-2.24-6.49-5.7-8.64a69.85,69.85,0,0,1-12.35-9.7c-4.87-4.84-5.46-12-.45-16.49,11.13-10,13.77-22.54,14.42-36.74,1-21.86,5.64-43.27,15.09-63,3.55-7.42,2.69-13.24,1-20.43-3.56-15.09-4.84-30.48-1.43-45.87,2.16-9.72,8.62-12.65,17.93-9.1C111.07,37,126.83,49.9,142.42,63.1c3.32,2.81,5.81,4.64,11.31,3.17A212.47,212.47,0,0,1,221.11,59C239,60,257,60.83,274.3,66.3c4.66,1.47,8.17.18,11.86-2.85,10.14-8.31,20.39-16.54,31-24.24a77.47,77.47,0,0,1,16.46-8.74c11.16-4.51,18.46-.86,19.59,11,1.07,11.3.28,22.84-.34,34.23-.32,5.91-2.27,11.72-3,17.63a13.83,13.83,0,0,0,1.12,7.18,191.42,191.42,0,0,1,16.18,60.32c.5,4.79,1.24,9.62,1.08,14.4a31.77,31.77,0,0,0,11.9,26.35c9.91,8.3,5.06,19.27-2.22,24.39-3.11,2.19-6.84,3.56-9.75,6a16.87,16.87,0,0,0-4.67,6.88c-2.56,6.75-3.79,14.15-7.14,20.44-4.13,7.75-8.6,8.6-17.26,6.95-2.61-.49-7-.19-8.09,1.42-5.05,7.7-11.72,8.06-19.54,6.09-10.26-2.57-20.51-1-30.55,1.11C261.1,279,242.3,285.88,226,298.35,222.33,301.15,219.1,304.54,215.12,308.16Zm47.4-96.51,4.16,4.08c5.28,3.31,11,3.51,16.84,2.16,6.13.91,12.25,1.87,18.38,2.68.68.09,1.51-.54,2.19-.95,23.33-14.06,29.39-48.17,12.32-69.31-13.12-16.24-33.14-19.79-49.09-8.23-22,15.95-22.53,49.91-8.73,67,1,1.19,2.63,1.78,4,2.65Zm-49.06,41.62c15.08,11.3,33.55,9.74,43.61-3.42,4-5.2,4.6-8.59,1.46-11-4.67-3.57-7.3.25-10.39,3.16-8.15,7.68-19.95,8-24.61-3.06-1.45-3.45-.7-5.47,2.55-7.31,3.72-2.11,7.59-4.31,10.59-7.28,6.93-6.86,6.58-15.62-.32-22.46-9.76-9.67-32.81-10.23-43.56-1-8,6.8-8.62,16.11-1,23.37,3.53,3.35,8.3,5.36,12.29,8.28,1.48,1.08,3.24,3,3.28,4.59.1,3.81-5.86,9-9.52,9.79-7.4,1.66-13.51,0-19.17-5.16-1.44-1.29-5.55-1.59-6.93-.48-1.78,1.43-2.64,4.72-2.76,7.26-.08,1.61,1.73,3.46,3,4.95C179.81,262.83,200.39,266.41,213.46,253.27Zm-73.47-36c-2.93-3.09-6.66-6-9.11-9.77-8-12.24-7.13-28.15,1.44-40.25,5.39-7.61,12.93-10.2,21.74-9.31,8.52.86,14.29,5.86,17.62,13.61,3.59,8.37,4.54,17.06,1.24,25.68-3.22,8.41-7.61,16.14-16.23,20.6,2.45-.42,5-.95,6.55-2.49a53,53,0,0,0,8.5-10.31c12.64-21.46,9.2-45.76-8.34-61.07-13.44-11.72-31.6-11.42-44.82.44-20.43,18.34-22.83,51.53,2,72.65,2.93,2.5,5.29,4.3,9.55,2.2C133.2,217.68,137.12,217.77,140,217.25ZM284.34,93.38c-5.86,1.45-11.86,2.51-17.48,4.62-1.63.61-3.36,4.6-2.84,6.4a8.65,8.65,0,0,0,5.63,5.1,34,34,0,0,0,12.14-.18c10.4-1.84,19.22.84,26.84,8,1.81,1.7,3.49,3.85,5.67,4.74s5.62,1.49,7.23.38,2.44-4.62,2.16-6.89c-.81-6.65-5.64-10.73-11-14C304.15,96.3,294.58,94.51,284.34,93.38ZM158.11,110.31c1.22-.92,4-2,5.17-4.12,1.57-2.92.65-6.19-2.36-8.31-4.45-3.15-9.42-4.15-14.84-4-14.4.48-27.6,3.71-37.33,15.39-3.87,4.64-4.7,9.79-2.06,12.07,2.79,2.41,6.61,1.4,11.18-3.29,7.72-7.9,17.15-11.08,28-10.17C149.44,108.23,153,109.28,158.11,110.31Z"/><path class="cls-5" d="M189.24,431.53c-10.66-3.37-21-6.77-31.49-9.93-15.25-4.6-30.58-9-45.8-13.64-2-.62-5.06-2.65-5-4,0-3.85-2.39-8.31,2.91-11.53,3-1.85,4.84-5.95,6.83-9.26,1.84-3.05,2.84-6.62,4.81-9.56,6-9,6.11-18.09-.07-26.78a7.91,7.91,0,0,1-1.45-3.54c-1.41-13.41-8-22.08-20.81-25.13-4.84-1.15-5.77-3.15-5.33-7.35.27-2.61,0-5.26,0-8.69,8.9,2.3,17.2,4.41,25.47,6.61,22.12,5.88,44.21,11.84,66.35,17.65,2.57.67,4,1.34,4,4.46-.1,32.79-.05,65.58-.06,98.38A18,18,0,0,1,189.24,431.53Z"/><path class="cls-5" d="M238.67,327.8l95.43-25.93v14.95c-3.34,1.07-6.94,1.8-10.16,3.33-9.79,4.62-15.25,12.43-16.35,23.29a10.17,10.17,0,0,1-1.72,4.91A21.76,21.76,0,0,0,307,375.48a10.93,10.93,0,0,1,2.61,4c1.67,6.86,4.21,12.72,11.25,16.07,1.48.71,1.48,5.2,1.51,7.95,0,1.12-1.53,2.92-2.71,3.28-26.76,8.2-53.58,16.24-81,24.49Z"/><path class="cls-5" d="M201.26,336.15h26c0,.33.2,1.9.2,3.47q.06,45.36.06,90.74c0,8.38-.61,9.56-9.09,10.43A29.39,29.39,0,0,1,205,438.65c-2-.82-4-4.7-4-7.21-.24-31.24-.11-62.48,0-93.73A6,6,0,0,1,201.26,336.15Z"/><path class="cls-6" d="M324.74,291.85c-18.73,5.11-36.53,9.93-54.31,14.81-11.88,3.26-23.76,6.54-35.59,10a26.87,26.87,0,0,0-6,3.22c-8.88,5.43-18.52,7-27.31,1.36-9.94-6.43-21-8.63-32-11.62-20.89-5.7-41.8-11.3-62.7-17a17.44,17.44,0,0,1-2.17-.92c1.06-4.68,4.41-7.24,10.86-7,8.44.29,17,.53,25.24,2.29a274,274,0,0,1,34.15,9.73c11.89,4.22,23,10.12,31.89,19.54,4.77,5,10.31,5.42,14.44,1,11.36-12.22,26.06-18.41,41.3-23.73,16-5.6,32.44-9.18,49.5-8.83C317,284.77,321.77,286,324.74,291.85Z"/><path class="cls-4" d="M106.8,376.52c-.4,5.69-3.58,7.38-7.62,8-9.17,1.29-16.41-2.34-21.44-9.74-7.51-11-8.88-23-4-35.52,3.31-8.42,11.24-9.67,18.6-10.58,6.84-.86,12,3.08,15.24,9.16.8,1.51,1,3.34,1.7,5.77-4.79,0-8.91-.34-12.92.16-1.66.21-3.11,2.19-4.65,3.37,1.53,1.49,2.82,3.77,4.62,4.29,3.94,1.14,8.22,1.09,12.22,2.08,4.75,1.18,6.71,5.09,5.42,9.53-.92,3.12-2.64,4.52-6.16,4.39a27.16,27.16,0,0,0-10.16,1.38c-1.63.61-2.44,3.43-3.63,5.26,1.79.83,3.51,2,5.38,2.4C101.64,376.84,104,376.52,106.8,376.52Z"/><path class="cls-4" d="M319.24,343c.79-6.77,5.87-12.06,13.15-13.93s15.84,1,20,6.84c10,14.07,3.69,39.69-12,46.63-4.11,1.82-9.32,1.78-14,1.55-2.13-.11-4.13-2.78-6.19-4.29.24-.63.49-1.26.74-1.89,2.35-.11,4.78.1,7-.42,1.87-.43,3.55-1.71,5.31-2.62-1.13-1.84-1.83-4.55-3.46-5.34a20.29,20.29,0,0,0-9.07-1.8c-3.89.12-6.58-.65-7.22-4.85s.87-7.34,5-8.58a59.58,59.58,0,0,1,8.78-1.46c1.32-.19,3,.24,3.91-.42,2-1.36,4.65-3,5-5,.67-3.39-2.35-4.9-5.42-5C327.13,342.35,323.37,342.76,319.24,343Z"/><path class="cls-4" d="M238,443.65l71-21.89c3,16.36-6.64,32.27-21.9,36.87-3.86,1.16-5.23.41-4.72-3.79a37.36,37.36,0,0,0,0-9.45c-.19-1.42-1.76-3.72-2.73-3.73-1.61,0-4.26,1.15-4.67,2.41-1.06,3.22-1.07,6.78-1.6,10.18-.32,2.1-.32,4.51-1.4,6.16-1.39,2.12-6.74.33-7-2.31-.33-3.12.27-6.37-.31-9.43-.41-2.14-2.11-4.05-3.23-6.06-1.74,1.56-4.49,2.82-5,4.72-1.06,3.73-.9,7.81-1.25,11.74C245.91,457.58,239.84,452.35,238,443.65Z"/><path class="cls-4" d="M118.73,421.71c24.3,7.48,47.37,14.64,70.48,21.65,4.38,1.33,2.25,3.73,1.13,5.68-2.69,4.7-9.59,8.47-16.34,9.29-.33-3.6-.17-7.33-1.16-10.73-.57-1.93-3-3.3-4.63-4.92-1.2,1.88-3.1,3.65-3.45,5.68-.57,3.39-.15,6.94-.15,10.33-7.57,2.82-7.51,2.82-8.21-5.07-.26-3-.46-6.09-1.58-8.76a6.38,6.38,0,0,0-4.73-3.17c-1.08,0-2.93,2.48-3.24,4.08-.5,2.55,0,5.29.07,8,.08,4.68-1.18,5.89-5.66,4.29-11.18-4-19.69-11.71-21.52-24.87C119.27,429.73,119.12,426.27,118.73,421.71Z"/><path class="cls-4" d="M84.53,394.91l10,2.08a84.82,84.82,0,0,1,.9,9.46c0,5.77,2.8,9.06,8.16,10.24,4.13.92,5.06,3.17,5.15,7.31.16,8.05,1.29,16.08,2,24.08C90.85,448.72,75.15,421.2,84.53,394.91Z"/><path class="cls-4" d="M334.43,396.88l10.71-2.42c.84,17,2.19,33.61-12.3,46.14-4.46,3.85-9.37,6.67-14.81,7,.82-8.74,1.55-17.36,2.5-26,.16-1.39,1.06-3.72,1.92-3.86,11.65-2,12.08-10.5,11.81-19.54A11.83,11.83,0,0,1,334.43,396.88Z"/><path class="cls-2" d="M213.46,253.27c-13.07,13.14-33.65,9.56-41.48.21-1.25-1.49-3.06-3.34-3-4.95.12-2.54,1-5.83,2.76-7.26,1.38-1.11,5.49-.81,6.93.48,5.66,5.11,11.77,6.82,19.17,5.16,3.66-.82,9.62-6,9.52-9.79,0-1.58-1.8-3.51-3.28-4.59-4-2.92-8.76-4.93-12.29-8.28-7.64-7.26-7-16.57,1-23.37,10.75-9.19,33.8-8.63,43.56,1,6.9,6.84,7.25,15.6.32,22.46-3,3-6.87,5.17-10.59,7.28-3.25,1.84-4,3.86-2.55,7.31,4.66,11.09,16.46,10.74,24.61,3.06,3.09-2.91,5.72-6.73,10.39-3.16,3.14,2.39,2.51,5.78-1.46,11C247,263,228.54,264.57,213.46,253.27Z"/><path class="cls-7" d="M262.56,211.75c-1.34-.87-3-1.46-4-2.65-13.8-17.11-13.27-51.07,8.73-67,15.95-11.56,36-8,49.09,8.23,17.07,21.14,11,55.25-12.32,69.31-.68.41-1.51,1-2.19.95-6.13-.81-12.25-1.77-18.38-2.68,3.16-1.35,6.69-2.18,9.42-4.14,11.81-8.49,15.3-24.72,8.9-39.79-4.74-11.17-14.43-17.3-25.32-16-11.84,1.41-20,9.18-22.2,21.32A38.8,38.8,0,0,0,262.56,211.75Z"/><path class="cls-8" d="M262.56,211.75a38.8,38.8,0,0,1-8.24-32.48c2.18-12.14,10.36-19.91,22.2-21.32,10.89-1.29,20.58,4.84,25.32,16,6.4,15.07,2.91,31.3-8.9,39.79-2.73,2-6.26,2.79-9.42,4.14-5.88,1.35-11.56,1.15-16.84-2.16l-4.16-4.08Z"/><path class="cls-7" d="M166.21,211.76c1.34-.87,3-1.46,4-2.65,13.8-17.11,13.28-51.07-8.73-67-15.95-11.56-36-8-49.08,8.23-17.08,21.14-11,55.25,12.31,69.31.69.41,1.51,1,2.19,1,6.14-.81,12.26-1.76,18.38-2.68-3.16-1.35-6.69-2.18-9.41-4.14C124,205.27,120.54,189,126.93,174c4.74-11.17,14.44-17.3,25.32-16,11.84,1.41,20,9.18,22.21,21.32A38.84,38.84,0,0,1,166.21,211.76Z"/><path class="cls-8" d="M166.21,211.76a38.84,38.84,0,0,0,8.25-32.48c-2.18-12.14-10.37-19.91-22.21-21.32-10.88-1.29-20.58,4.84-25.32,16-6.39,15.07-2.91,31.3,8.91,39.79,2.72,2,6.25,2.79,9.41,4.14,5.88,1.35,11.56,1.15,16.84-2.16l4.16-4.08Z"/><path class="cls-2" d="M284.34,93.38c10.24,1.13,19.81,2.92,28.39,8.19,5.32,3.26,10.15,7.34,11,14,.28,2.27-.56,5.78-2.16,6.89s-5,.52-7.23-.38-3.86-3-5.67-4.74c-7.62-7.17-16.44-9.85-26.84-8a34,34,0,0,1-12.14.18,8.65,8.65,0,0,1-5.63-5.1c-.52-1.8,1.21-5.79,2.84-6.4C272.48,95.89,278.48,94.83,284.34,93.38Z"/><path class="cls-2" d="M158.11,110.31c-5.13-1-8.67-2.08-12.27-2.39-10.82-.91-20.25,2.27-28,10.17-4.57,4.69-8.39,5.7-11.18,3.29-2.64-2.28-1.81-7.43,2.06-12.07,9.73-11.68,22.93-14.91,37.33-15.39,5.42-.19,10.39.81,14.84,4,3,2.12,3.93,5.39,2.36,8.31C162.16,108.26,159.33,109.39,158.11,110.31Z"/><path class="cls-7" d="M262.52,211.65l4.16,4.08Z"/><path class="cls-4" d="M114.39,234.43h57.08c-.27-18.51-16-33.44-35.33-33.44a35.33,35.33,0,0,0-33,21.73C108,225.25,111.57,229.92,114.39,234.43Z"/><path class="cls-4" d="M309.07,228.71c2.57-2.77,6.55-4.76,9.55-7.18,2.65-2.15,6.44-4.25,7.61-7.55a5.89,5.89,0,0,1,.62-1.2A35.69,35.69,0,0,0,297,197C277.66,197,262,212,261.68,230.47H308A5.15,5.15,0,0,1,309.07,228.71Z"/><circle class="cls-9" cx="130.98" cy="164.57" r="13.16"/><circle class="cls-9" cx="266.68" cy="164.79" r="13.16"/><path class="cls-2" d="M213.13,387.79a5.65,5.65,0,0,1-1.46-.21,5.76,5.76,0,0,1-1.57-.67,7.29,7.29,0,0,1-1.51-1.22,7.67,7.67,0,0,1-1.28-1.84,11.12,11.12,0,0,1-.88-2.56,15.45,15.45,0,0,1-.33-3.37,15.15,15.15,0,0,1,.3-3.14,12.22,12.22,0,0,1,.81-2.54,8.62,8.62,0,0,1,1.2-1.94,7.2,7.2,0,0,1,1.46-1.37,6.36,6.36,0,0,1,1.63-.81,5.3,5.3,0,0,1,1.63-.27,5.05,5.05,0,0,1,2,.34,4.11,4.11,0,0,1,1.37.89,4.46,4.46,0,0,1,.88,1.26,7.82,7.82,0,0,1,.5,1.48,10,10,0,0,1,.23,1.52q.06.75.06,1.38v.81h.45a8.77,8.77,0,0,0,1.38-.11,4.09,4.09,0,0,0,1.15-.35,2.09,2.09,0,0,0,.77-.63,1.49,1.49,0,0,0,.29-.93,1.91,1.91,0,0,0-.17-.8,2.11,2.11,0,0,0-.49-.66,2.66,2.66,0,0,0-.72-.48,3.19,3.19,0,0,0-.89-.28l.47-2.37a4,4,0,0,1,1.48.53,4.14,4.14,0,0,1,1.11,1,4.45,4.45,0,0,1,.7,1.33,5,5,0,0,1,.24,1.54,3.63,3.63,0,0,1-.46,1.91,3.51,3.51,0,0,1-1.26,1.22,5.48,5.48,0,0,1-1.81.66,11.43,11.43,0,0,1-2.14.2l-1,0-.88-.07V375c0-.6,0-1.22-.07-1.84a5.64,5.64,0,0,0-.36-1.71,2.9,2.9,0,0,0-.95-1.26,3,3,0,0,0-1.83-.49,3.71,3.71,0,0,0-1.67.45,5.07,5.07,0,0,0-1.66,1.43,8.43,8.43,0,0,0-1.27,2.55,12.28,12.28,0,0,0-.5,3.78,13.11,13.11,0,0,0,.31,3.08,8.64,8.64,0,0,0,.81,2.17,5.19,5.19,0,0,0,1.08,1.41,5.89,5.89,0,0,0,1.15.82,4.2,4.2,0,0,0,1,.38,4.07,4.07,0,0,0,.68.09,2.87,2.87,0,0,0,1.33-.29,2.71,2.71,0,0,0,.92-.75,3.55,3.55,0,0,0,.56-1,7.29,7.29,0,0,0,.31-1.15,8.94,8.94,0,0,0,.13-1.09c0-.35,0-.63,0-.85v-1.92a12.42,12.42,0,0,1,1.45-.08A9.63,9.63,0,0,1,220,379a6.59,6.59,0,0,1,1.61.59,4.52,4.52,0,0,1,1.12.85,4.47,4.47,0,0,1,.72,1,4.32,4.32,0,0,1,.37,1.06,4.67,4.67,0,0,1,.11,1,3.46,3.46,0,0,1-.3,1.48,3.11,3.11,0,0,1-.8,1.08,3.41,3.41,0,0,1-1.15.67,4.18,4.18,0,0,1-1.37.22,4.76,4.76,0,0,1-1.69-.31,4.53,4.53,0,0,1-1.51-.95,5.4,5.4,0,0,1-.64.85,3.66,3.66,0,0,1-.85.66,4.08,4.08,0,0,1-1.09.44A5.24,5.24,0,0,1,213.13,387.79Zm7.11-2.75a2.55,2.55,0,0,0,.74-.1,1.76,1.76,0,0,0,.62-.33,1.83,1.83,0,0,0,.42-.56,1.94,1.94,0,0,0,.15-.8,2,2,0,0,0-.29-1,2.93,2.93,0,0,0-.83-.86,4.33,4.33,0,0,0-1.28-.59,5.7,5.7,0,0,0-1.64-.23v.35a14.42,14.42,0,0,1-.09,1.56,8.94,8.94,0,0,1-.32,1.67,4.35,4.35,0,0,0,1.18.66A3.7,3.7,0,0,0,220.24,385Z"/><path class="cls-2" d="M213.13,387.16c-6.77-.2-7.49-9.92-5.38-14.6,1.21-2.67,4.29-5.16,7.34-3.69,2.42,1.17,2.41,4.35,2.41,6.66a.64.64,0,0,0,.63.63c1.56,0,3.89-.1,4.53-1.85s-1-3.25-2.59-3.61l.44.77.46-2.36-.77.44c2.29.43,4,3.21,2.7,5.39s-4.49,1.86-6.53,1.69l.62.62c0-2.18.44-5.1-1-6.9a3.64,3.64,0,0,0-3.8-1.1,5.83,5.83,0,0,0-3.53,3.05,13.07,13.07,0,0,0-.59,9.92c.88,2.52,3.8,5.45,6.69,3.93,2.56-1.35,2.24-4.87,2.24-7.33l-.62.62c2.52-.24,5.9,0,6.74,2.92a3,3,0,0,1-1.18,3.53,3.92,3.92,0,0,1-4.42-.66.64.64,0,0,0-1,.13,3.89,3.89,0,0,1-3.41,1.8.63.63,0,0,0,0,1.25,5.19,5.19,0,0,0,4.49-2.42l-1,.13a5.33,5.33,0,0,0,5.17,1.19,4,4,0,0,0,2.72-3.83c0-4.42-4.54-5.64-8.15-5.29a.65.65,0,0,0-.63.63c0,2,.46,5.68-1.95,6.37-1.67.48-3.34-1-4.08-2.31a12.21,12.21,0,0,1,.1-10.09c.83-1.51,2.66-3.06,4.5-2.22,1.59.73,1.42,3.08,1.42,4.53v2.15a.65.65,0,0,0,.63.63c2.71.23,6.77.17,7.9-2.92a5.08,5.08,0,0,0-3.74-6.62.63.63,0,0,0-.77.44l-.46,2.36a.64.64,0,0,0,.44.77c1,.22,2.61,1.34,1.41,2.4-.76.68-2.07.63-3,.6l.62.62c0-2.23-.05-4.73-1.54-6.55-1.72-2.09-4.88-2.18-7.12-.92-5,2.8-5.62,10.58-3.64,15.38a7.62,7.62,0,0,0,6.68,5A.63.63,0,0,0,213.13,387.16Z"/><path class="cls-2" d="M220.24,385.67a2.52,2.52,0,0,0,2.21-1.11,2.59,2.59,0,0,0,0-2.57c-.83-1.5-2.73-2.05-4.33-2.06a.64.64,0,0,0-.63.62,12.69,12.69,0,0,1-.38,3.42.63.63,0,0,0,.16.61,4.85,4.85,0,0,0,3,1.09.64.64,0,0,0,.63-.63.63.63,0,0,0-.63-.62,3.59,3.59,0,0,1-2.08-.73l.16.61a13.5,13.5,0,0,0,.43-3.75l-.62.63a4.88,4.88,0,0,1,1.85.33,3.64,3.64,0,0,1,.73.38,3,3,0,0,1,.3.25l.14.15s.12.15.08.09a1.44,1.44,0,0,1,.21,1.42,1.22,1.22,0,0,1-1.2.62.62.62,0,0,0-.62.62A.63.63,0,0,0,220.24,385.67Z"/><path class="cls-2" d="M217.31,363.46a4.41,4.41,0,0,0,1-1.24,6.05,6.05,0,0,0,.59-1.4,7,7,0,0,0,.27-1.35q.06-.66.06-1.11a8.76,8.76,0,0,0-.2-1.86,5.13,5.13,0,0,0-.65-1.61,3.39,3.39,0,0,0-1.15-1.14,3.27,3.27,0,0,0-1.73-.43,3.8,3.8,0,0,0-1.41.25,3.41,3.41,0,0,0-1.13.72,3.23,3.23,0,0,0-.76,1.11,3.92,3.92,0,0,0-.27,1.49,3.67,3.67,0,0,0,.29,1.51,3.63,3.63,0,0,0,.75,1.16,3.38,3.38,0,0,0,2.37,1,3.5,3.5,0,0,0,1-.15,3.31,3.31,0,0,0,1-.52,4.44,4.44,0,0,1-.41,1.08,3.31,3.31,0,0,1-.73.94,3.55,3.55,0,0,1-1.12.67,4.62,4.62,0,0,1-1.57.25,4.79,4.79,0,0,1-2.3-.53,5.15,5.15,0,0,1-1.63-1.41,6.15,6.15,0,0,1-1-2,8.42,8.42,0,0,1-.32-2.28,7.58,7.58,0,0,1,.41-2.5,5.84,5.84,0,0,1,1.22-2,5.7,5.7,0,0,1,2-1.39,6.72,6.72,0,0,1,2.71-.51,6.83,6.83,0,0,1,3,.65,6.3,6.3,0,0,1,2.23,1.76,7.59,7.59,0,0,1,1.38,2.63,11,11,0,0,1,.47,3.26,9.87,9.87,0,0,1-.13,1.7,8,8,0,0,1-.38,1.41,6.79,6.79,0,0,1-.59,1.21,8,8,0,0,1-.77,1.06l1.39,1.23a12.83,12.83,0,0,0,.89-1.29,8.79,8.79,0,0,0,.7-1.48,10.65,10.65,0,0,0,.46-1.73,11.87,11.87,0,0,0,.17-2.07,13.33,13.33,0,0,0-.58-3.92,9.72,9.72,0,0,0-1.69-3.26,8.25,8.25,0,0,0-2.77-2.22,8.41,8.41,0,0,0-3.81-.83,9,9,0,0,0-3.42.64,7.57,7.57,0,0,0-2.61,1.76,7.91,7.91,0,0,0-1.67,2.65,9,9,0,0,0-.59,3.28,10.3,10.3,0,0,0,.44,3,7.74,7.74,0,0,0,1.34,2.58,6.56,6.56,0,0,0,2.25,1.84,6.82,6.82,0,0,0,3.19.7,6.34,6.34,0,0,0,2.21-.34A5,5,0,0,0,217.31,363.46Zm-2.6-4.85a1.59,1.59,0,0,1-.58-.4,1.71,1.71,0,0,1-.38-.6,2,2,0,0,1-.13-.74,2,2,0,0,1,.11-.68,1.7,1.7,0,0,1,.34-.58,1.63,1.63,0,0,1,.58-.42,1.77,1.77,0,0,1,.79-.16h.05a2,2,0,0,1,.62.1,1.63,1.63,0,0,1,.62.38,2.23,2.23,0,0,1,.5.76,3.78,3.78,0,0,1,.25,1.25,2.08,2.08,0,0,1-.85.91,2.31,2.31,0,0,1-1.17.33A1.79,1.79,0,0,1,214.71,358.61Z"/><path class="cls-2" d="M217.75,363.9c2-1.84,2.49-5,1.89-7.56s-2.82-4.26-5.44-3.46a4.25,4.25,0,0,0-2.58,5.69,4,4,0,0,0,6,1.85l-.91-.71a3,3,0,0,1-2.48,2.42,4.28,4.28,0,0,1-3.5-.9c-1.91-1.62-2.26-4.7-1.46-7a5.59,5.59,0,0,1,6.07-3.45,6.22,6.22,0,0,1,5.25,4.41,8.62,8.62,0,0,1-1.21,8.17.65.65,0,0,0,0,.89l1.4,1.23a.64.64,0,0,0,1-.13,12.09,12.09,0,0,0,1.7-11,9.22,9.22,0,0,0-7.39-6.67,9,9,0,0,0-9.09,3.95,9.93,9.93,0,0,0,.56,10.76c2.32,3,7.14,3.91,10.18,1.43.63-.51-.26-1.39-.88-.88-2.39,2-6.27,1.12-8.16-1.1a8.64,8.64,0,0,1-.83-9.2,7.66,7.66,0,0,1,7.79-3.76,7.9,7.9,0,0,1,6.53,5.52,11,11,0,0,1-1.48,10.29l1-.13-1.4-1.23v.89c3.92-4.71,2.13-13.86-4.64-14.69a6.87,6.87,0,0,0-7.47,4.08c-1.1,2.8-.56,6.64,1.89,8.59a5.6,5.6,0,0,0,4.7,1,4.31,4.31,0,0,0,3.16-3.26c.13-.5-.45-1-.92-.71a2.77,2.77,0,0,1-4.35-1.57,2.94,2.94,0,0,1,2.84-3.82c2.15,0,3,2.08,3.09,3.93a6.36,6.36,0,0,1-1.73,5.14C216.27,363.56,217.16,364.45,217.75,363.9Z"/><path class="cls-2" d="M215,358.07a1.27,1.27,0,0,1-.23-.12l-.11-.07s0,0,0,0a1,1,0,0,1-.26-.33,1.46,1.46,0,0,1-.15-.8c0-.07,0-.09,0,0s0-.09,0-.13,0-.18.08-.26c0,.1,0-.07.05-.07s.13-.21.07-.13a.91.91,0,0,1,.17-.17c.05-.05.06-.06,0,0l.09-.06a1.19,1.19,0,0,1,.22-.12c-.11,0,.08,0,.1,0l.21-.05c-.1,0,.14,0,.17,0a1,1,0,0,1,.29,0l.27.07c-.1,0,0,0,.07,0s.19.13.12.07l.17.17.08.08c0-.05,0,0,0,0l.13.21.09.18c0-.1,0,.09,0,.11a3.69,3.69,0,0,1,.11.45c0,.05,0,.09,0,.13s0,0,0,0a2.46,2.46,0,0,1,0,.28l.09-.32a1.49,1.49,0,0,1-.18.3c-.09.15.08-.07,0,.06l-.11.12-.13.11c.07-.05,0,0,0,0a2,2,0,0,1-.35.2s0,0,0,0l-.06,0-.19,0a.79.79,0,0,1-.2,0h-.3c-.13,0,0,0-.1,0a2.47,2.47,0,0,1-.36-.11.62.62,0,0,0-.76.44.64.64,0,0,0,.43.77,2.87,2.87,0,0,0,2.91-.62,3.52,3.52,0,0,0,.43-.51c.05-.09.1-.17.14-.26a1.08,1.08,0,0,0,.06-.59,4,4,0,0,0-.37-1.41,2.46,2.46,0,0,0-2.27-1.43,2.41,2.41,0,0,0-2.33,1.69,2.56,2.56,0,0,0,1.28,3.06.63.63,0,1,0,.63-1.08Z"/><path class="cls-2" d="M213.57,397.06a14,14,0,0,1-3-.3,6.76,6.76,0,0,1-2.3-.93,4.39,4.39,0,0,1-1.49-1.6,4.86,4.86,0,0,1-.52-2.33,4.93,4.93,0,0,1,.52-2.32,5,5,0,0,1,1.69-1.79l1.19,1.41a3.91,3.91,0,0,0-1.21,1.25,2.86,2.86,0,0,0-.34,1.39,2.72,2.72,0,0,0,.39,1.48,3.19,3.19,0,0,0,1.13,1.05,6.09,6.09,0,0,0,1.75.61,12.07,12.07,0,0,0,2.26.19,11.74,11.74,0,0,0,2.23-.19,5.7,5.7,0,0,0,1.72-.58,3.06,3.06,0,0,0,1.11-1,2.51,2.51,0,0,0,.4-1.44,3.61,3.61,0,0,0-.29-1.35,3.85,3.85,0,0,0-1.11-1.37l1.15-1.3a5.43,5.43,0,0,1,.75.65,4.82,4.82,0,0,1,.67.89,5.54,5.54,0,0,1,.49,1.16,5.34,5.34,0,0,1,.19,1.44,4.4,4.4,0,0,1-.54,2.24,4.47,4.47,0,0,1-1.51,1.55,7.34,7.34,0,0,1-2.32.89A14.58,14.58,0,0,1,213.57,397.06Z"/><path class="cls-2" d="M213.57,396.43c-2.07,0-4.75-.27-6-2.14a4.51,4.51,0,0,1-.61-3.23,4.12,4.12,0,0,1,1.84-2.73l-.75-.1,1.19,1.41.12-1a4.12,4.12,0,0,0-1.75,2.29,3.56,3.56,0,0,0,.37,2.69c1.13,1.81,3.6,2.14,5.55,2.15s4.31-.21,5.56-1.84.53-3.88-.93-5.14v.89l1.15-1.3-.76.09a4.35,4.35,0,0,1,1,6c-1.37,1.71-3.93,1.94-6,1.95a.63.63,0,0,0,0,1.25c2.63,0,5.81-.48,7.3-2.94a5.69,5.69,0,0,0-1.73-7.33.62.62,0,0,0-.75.1l-1.15,1.3a.64.64,0,0,0,0,.89c1,.89,1.78,2.5.67,3.67s-2.79,1.16-4.15,1.17-3.15-.06-4.27-1c-1.34-1.13-.77-2.88.46-3.79a.63.63,0,0,0,.13-1l-1.19-1.42a.63.63,0,0,0-.76-.09,5.45,5.45,0,0,0-2.34,3.13,6,6,0,0,0,.43,4.16c1.4,2.6,4.68,3.12,7.35,3.14A.63.63,0,0,0,213.57,396.43Z"/><path class="cls-2" d="M208.45,400a50.85,50.85,0,0,1,5.31,2.84,36.14,36.14,0,0,1,3.91,2.77,7.8,7.8,0,0,0,1,.28,6.23,6.23,0,0,0,1.18.11,3.49,3.49,0,0,0,.65-.06,1.78,1.78,0,0,0,.55-.19.93.93,0,0,0,.39-.37,1.33,1.33,0,0,0,.14-.63,2.27,2.27,0,0,0-.12-.68,2.07,2.07,0,0,0-.47-.75,3.64,3.64,0,0,0-1-.69,6,6,0,0,0-1.7-.51l.46-2.36a6.41,6.41,0,0,1,2.33.85,4.83,4.83,0,0,1,1.39,1.29,4.38,4.38,0,0,1,.68,1.46,5.84,5.84,0,0,1,.18,1.35,3.3,3.3,0,0,1-.22,1.28,2.26,2.26,0,0,1-.6.89,2.64,2.64,0,0,1-.91.52,3.79,3.79,0,0,1-1.14.16,3,3,0,0,1-.71-.08l0,.1a14.88,14.88,0,0,1,2,2.48,12.17,12.17,0,0,1,1.18,2.33,10.44,10.44,0,0,1,.56,2.12,14.11,14.11,0,0,1,.14,1.87,10,10,0,0,1-.4,2.87,8.78,8.78,0,0,1-1.11,2.35,8.52,8.52,0,0,1-1.66,1.83,9.94,9.94,0,0,1-2.08,1.3,11.05,11.05,0,0,1-2.36.77,11.57,11.57,0,0,1-2.49.26,11.74,11.74,0,0,1-3-.36,7.42,7.42,0,0,1-2.31-1,4.66,4.66,0,0,1-1.49-1.58,4,4,0,0,1-.53-2,6.44,6.44,0,0,1,.12-1.21,4.86,4.86,0,0,1,.44-1.26h1.85a6,6,0,0,0-.41,1.17,4.66,4.66,0,0,0-.15,1.15,2.46,2.46,0,0,0,.26,1.14,2.9,2.9,0,0,0,.7.85,4,4,0,0,0,1,.6,5.77,5.77,0,0,0,1.15.39,10,10,0,0,0,1.18.2,10.24,10.24,0,0,0,1.05.06,8.87,8.87,0,0,0,1.49-.14,10.66,10.66,0,0,0,1.83-.46,10.33,10.33,0,0,0,1.88-.89,6.77,6.77,0,0,0,1.67-1.41,6.67,6.67,0,0,0,1.2-2,7.34,7.34,0,0,0,.45-2.68,8.36,8.36,0,0,0-.8-3.6,14.62,14.62,0,0,0-2.14-3.3l0,0a2.21,2.21,0,0,1,0,.39c0,.15,0,.25,0,.3a8.51,8.51,0,0,1-.43,2.79,6.23,6.23,0,0,1-1.26,2.17,5.55,5.55,0,0,1-2,1.39,6.89,6.89,0,0,1-2.63.49,6.65,6.65,0,0,1-2.75-.54,5.7,5.7,0,0,1-2-1.5,6.69,6.69,0,0,1-1.26-2.25,8.76,8.76,0,0,1-.43-2.81,11.21,11.21,0,0,1,.24-2.32,14.49,14.49,0,0,1,.63-2.14,12.29,12.29,0,0,1,.83-1.82,11.17,11.17,0,0,1,.87-1.38l-.51-.25-.55-.25Zm1.93,3a10.48,10.48,0,0,0-.84,1.35,12.88,12.88,0,0,0-.72,1.64,12.27,12.27,0,0,0-.5,1.85,9.89,9.89,0,0,0-.19,2,7.31,7.31,0,0,0,.31,2.24,4.55,4.55,0,0,0,.9,1.64,3.88,3.88,0,0,0,1.42,1,5.15,5.15,0,0,0,3.88-.06,4.07,4.07,0,0,0,1.45-1.13,5,5,0,0,0,.88-1.65,6.84,6.84,0,0,0,.29-2,8.22,8.22,0,0,0-.1-1.27,6.11,6.11,0,0,0-.3-1.26A28,28,0,0,0,213.8,405C212.72,404.31,211.58,403.63,210.38,403Z"/><path class="cls-2" d="M208.13,400.54a50.94,50.94,0,0,1,6.11,3.34c1,.67,1.95,1.54,3,2.17a5,5,0,0,0,2.4.57c1.45,0,2.77-.63,2.52-2.28s-2.14-2.52-3.7-2.82l.44.77.46-2.36-.77.43c1.72.36,3.33,1.19,3.9,3,.61,1.94-.25,3.94-2.58,3.54a.63.63,0,0,0-.77.43c-.11.82.82,1.39,1.29,2a11.78,11.78,0,0,1,2.2,4.15,9.27,9.27,0,0,1-1.85,8.86,10.32,10.32,0,0,1-8.39,2.8c-3.41-.32-6.85-2.63-5.1-6.47l-.54.31h1.85l-.6-.79a4.78,4.78,0,0,0-.31,3.77,4.42,4.42,0,0,0,2.9,2.2,10.48,10.48,0,0,0,7.74-.88,7.6,7.6,0,0,0,4.16-6.11c.28-3.11-1.15-5.84-3.08-8.18a.65.65,0,0,0-.76-.1l-.06,0a.61.61,0,0,0-.31.54c.21,2.31-.49,4.86-2.57,6.13a6.21,6.21,0,0,1-6.45-.22c-4.14-2.91-2.41-9.42,0-12.83a.62.62,0,0,0-.22-.85c-.35-.18-.71-.34-1.07-.5l.23.85.77-1.68c.33-.72-.75-1.36-1.08-.63l-.77,1.68a.64.64,0,0,0,.22.86c.36.16.72.32,1.07.5l-.23-.86c-3,4.14-4.45,12.05,1,14.92a7,7,0,0,0,10.28-7.37l-.31.54.06,0-.76-.1a10.35,10.35,0,0,1,2.76,6.46,6.36,6.36,0,0,1-2.86,5.46,9.46,9.46,0,0,1-5.72,1.48,6.28,6.28,0,0,1-3.08-.91c-1.36-1-1-2.52-.42-3.84.16-.38-.24-.79-.6-.79h-1.85a.63.63,0,0,0-.54.31,5.41,5.41,0,0,0,2.91,7.58,12.1,12.1,0,0,0,10.13-.58,9.6,9.6,0,0,0,5-8.39,13.16,13.16,0,0,0-4.08-9.46l.16.6v-.09l-.77.43c2.59.45,4.59-1.16,4.34-3.84s-2.36-4.54-5-5.08a.63.63,0,0,0-.77.43l-.46,2.37a.63.63,0,0,0,.44.77,5.38,5.38,0,0,1,1.94.66c.75.48,1.4,1.8.11,2-1.56.2-2.49-.58-3.65-1.42a47.84,47.84,0,0,0-7.76-4.48C208,399.11,207.41,400.19,208.13,400.54Z"/><path class="cls-2" d="M209.84,402.68a12.39,12.39,0,0,0-2.33,6.79c-.07,2.24.64,4.72,2.84,5.73a5.36,5.36,0,0,0,6.07-1.11,7.06,7.06,0,0,0,1.17-6.51,3.09,3.09,0,0,0-1.33-1.55c-.57-.45-1.16-.89-1.77-1.3a41.52,41.52,0,0,0-3.8-2.28c-.7-.38-1.34.7-.63,1.08a35.89,35.89,0,0,1,5.4,3.46c.38.3.82.54.95,1a7.43,7.43,0,0,1,.22,1.56,5.62,5.62,0,0,1-.57,2.85,3.94,3.94,0,0,1-4.62,1.85c-2.05-.56-2.71-2.66-2.69-4.58a11.29,11.29,0,0,1,2.17-6.38C211.39,402.65,210.31,402,209.84,402.68Z"/></g></g></svg>