<svg xmlns="http://www.w3.org/2000/svg" viewBox="0 0 456.6 477.08"><defs><style>.cls-1{fill:#801e34;}.cls-2{fill:#c4bdb8;opacity:0.23;}.cls-3{fill:#fcb223;}.cls-4{fill:#f06f22;}.cls-5{fill:#fffdf9;}.cls-6{fill:#07605b;}.cls-7{fill:none;}</style></defs><g id="Layer_2" data-name="Layer 2"><g id="Layer_1-2" data-name="Layer 1"><path class="cls-1" d="M112.12,420.11C104,414.53,96,408.74,91,399.93c-4-7-6.26-14.39-4.13-22.51,2.47-9.38,10.88-14.77,20.36-12.67,5,1.1,9.76,3,15.08,4.7,3.83-11.28,7.81-22.93,11.72-34.62a3.63,3.63,0,0,0-.32-2.33c-7.32-16.39-10.1-33.67-9.88-51.48,0-2.87-1-4.43-3.17-6.17q-21.24-16.64-42.19-33.66c-14.31-11.64-28.62-23.3-42.63-35.3-8.83-7.56-16.7-16.13-21.77-26.81-4.57-9.62-3.34-20.32,3.44-26.27,3-2.6,7-4,11.36-6.46,2.58-9.16,11.69-14.06,22.61-9.29,7.55,3.29,14.06,9,21,13.67,2,1.37,3.89,3,6.51,5,.33-7,.57-13.21.91-19.38a200.83,200.83,0,0,1,9.42-50c2-6.11-1-11.14-1.86-16.6C85.74,58.13,84,46.53,87,34.86c4.28-16.75,17.85-23.77,33.75-17,16.26,6.9,30.18,17.53,43.56,28.85,2.08,1.76,3.56,2,6.22,1.24a198.71,198.71,0,0,1,63-7.23c17.07.8,34.09,2.55,50.61,7.58,1.42.43,3.85-.94,5.23-2.14,12-10.45,24.75-19.92,39.05-27.07,7.12-3.56,14.48-6.15,22.5-2.34,9.49,4.51,12.88,12.92,14.53,22.44,2.59,14.88-.87,29.23-3.89,43.62-.27,1.26-.66,2.73-.27,3.86,7.45,21.7,10.21,44.11,10.38,66.93,0,.11.12.23.51.89,4.24-3.47,8.37-6.94,12.6-10.29,5.29-4.18,11.05-7.31,17.85-8.44,8.12-1.34,15,2.34,18.33,10a3.86,3.86,0,0,0,2.17,2.09c12.49,3,19.27,17.29,14,29a68.59,68.59,0,0,1-18.34,24.34c-21.46,18.14-43.32,35.81-65.19,53.45-8.67,7-17.84,13.38-26.63,20.22a7,7,0,0,0-2.52,4.57c-.51,10.7-.62,21.42-1.06,32.12-.15,3.79,1.31,5.8,5,6.38,12.34,1.92,22.71-2.78,32-10.09a53.47,53.47,0,0,0,10.15-11.12c2.89-4.07,4.84-8.17,3.14-14.14-3.29-11.53,2.75-21,9.75-29.58,7.62-9.29,17.28-15.11,29.59-16.22,9.08-.82,17.5,5.5,16.69,13.47-.26,2.64-1.3,6-3.19,7.54-6.42,5.33-6.85,12.53-7.29,19.79-.64,10.67-5.76,18.05-15.55,22.31a4.52,4.52,0,0,0-2.4,2.54c-2.5,10.5-8.81,18.65-15.9,26.35C372,343.4,354.7,349.34,335.56,351.14a6.31,6.31,0,0,0-3.28,1.42c8.06,2.05,15.17,5.37,20.84,11.29,9.17,9.58,14.7,20.52,11.57,34.16-3.4,14.79-19.34,23.52-33.81,18.83a37.1,37.1,0,0,1-16.71-11.37c-1-1.1-2.44-2.34-3.76-2.44-18.3-1.34-32.52-10.06-43.86-24-3.27-4-6.12-8.34-9.27-12.67-13.65,4.38-27.78,6.27-42.29,4.37-.15,0-.32,0-.44,0-6.83-3-10.05.86-13.46,6.15-8.94,13.91-18.41,27.5-27.66,41.22a98.69,98.69,0,0,0-6.16,8.32c-3.73,6.24-9.47,8.57-16.2,8.1a49.85,49.85,0,0,1-15-3C127.88,428.23,120.08,424,112.12,420.11ZM360.18,142.55c-.38-18-4.32-35.41-9.29-52.7a21.14,21.14,0,0,1-.45-8.57c.65-4.69,2.17-9.25,2.9-13.94,1.7-10.91,2.64-21.87-.54-32.69-2.16-7.36-7.12-10-14.39-7.75a28,28,0,0,0-8.13,3.54C318,39.3,305.76,48.25,293.8,57.53c-3.21,2.48-5.94,3.19-9.77,2.14a161,161,0,0,0-17.76-3.86c-6.28-1-12.66-1.32-19-1.84-6.91-.57-13.82-1.4-20.73-1.38a172.16,172.16,0,0,0-21.64,1.5C195,55.35,185,56.42,175.35,59,167.68,61,162,60.7,156,54.72c-10.92-10.85-23.83-19.22-37.63-26.11-5.34-2.67-10.76-3.59-15.94.48-4.41,3.48-5,8.66-5.31,13.59a103.38,103.38,0,0,0,4.53,37.9,8.62,8.62,0,0,1-.09,5.08c-6.92,19.51-11,39.59-10.62,60.28a36.79,36.79,0,0,1-9,25.67c-3.84,4.58-5.42,9.74-2.42,15.86a19.46,19.46,0,0,0,10.79,10,14.75,14.75,0,0,1,9.45,10.37,39.49,39.49,0,0,0,11.82,19.11c2.41,2.08,6.67,4.4,9.11,3.61,7.23-2.36,7-2.9,10.59,3.7,5.39,9.82,12.67,17.66,23.57,21.35,4.9,1.67,9.84,2.16,14.49-1.17,4.85-3.48,6.11-3.08,11,.5a100.59,100.59,0,0,0,15,9.39,65.83,65.83,0,0,0,42.21,5.16c11.75-2.29,23-5.75,32.37-13.7,5.91-5,7.45-4.78,13.8-.38a8.19,8.19,0,0,0,2,.82c4.7,1.61,9.07.42,13.35-1.59,10.1-4.74,16.4-13,21.3-22.64,2.25-4.42,4.14-4.45,8-1.57,1.37,1,4.49,1.5,5.66.65,4.12-3,8.42-6.2,11.37-10.26s4.8-9.19,6.43-14.07a12.28,12.28,0,0,1,6.69-7.82,68.2,68.2,0,0,0,8.73-4.45c8-5.35,10-16.54,3.44-22.83C362.27,163.54,358.94,154,360.18,142.55Zm18.67,20.67c2.24,5,5.22,9.12,5.84,13.54,1.9,13.61-5.24,25.37-17.94,30.63-3.05,1.27-4.33,3.32-5.83,6-4.06,7.34-8.12,14.84-13.33,21.36-4.58,5.73-10.92,9.65-19.07,9-1-.09-2.56,1.22-3.23,2.27a49.88,49.88,0,0,1-18.76,17.47c-8.28,4.42-16.81,6.48-26,2.33-1.28-.57-3.64.24-5,1.13-29.6,18.92-70.85,21-99.22-.31-1.09-.82-3.08-.7-4.63-.6-5.54.34-11.28,2-16.57,1.09-13-2.29-22-11.2-30.15-20.93a7.39,7.39,0,0,0-4.59-2.39c-8.16-.69-15-4.08-19.62-10.63a127.74,127.74,0,0,1-10.6-19c-1.73-3.66-3.6-6.34-7.49-8.07-12.33-5.48-21.47-22.89-12.68-36.49A24,24,0,0,0,71.52,166c-3.42-3.49-6.28-7.24-9.92-9.92A101.23,101.23,0,0,0,46,146.93c-1.47-.73-4.8,0-5.8,1.28s-.53,4.15.2,6c.86,2.13,2.7,3.86,4.13,5.76,1.67,2.24,2.73,5.08,0,6.57-1.87,1-4.95.51-7.22-.17-1.47-.44-2.31-2.65-3.71-3.68s-3.14-2.21-4.74-2.21c-5,0-7.78,4.57-5.63,10.31,1.75,4.65,4,9.56,7.36,13.06a334.81,334.81,0,0,0,28.1,26.76c24.1,19.88,48.73,39.1,73,58.8,1.89,1.53,3.12,4.62,3.45,7.14.57,4.54,0,9.22.33,13.81,1.16,14,3.37,27.83,10.36,40.43a6.72,6.72,0,0,1,.09,4.88c-4.46,12.6-9.14,25.12-13.64,37.7-.76,2.12-1.68,4.3.7,6.49s5.18,4.68,2.42,8.32c-2,2.71-5.11,2.12-9.42-1.5-.45-.38-.86-.82-1.33-1.19-5.78-4.47-11.55-8.94-19.15-9.93-5.44-.7-9.3,2-8.6,7.35.67,5.09,3,10,4.55,14.75,3.83-2.72,6.46-5.24,9.59-6.55,1.59-.66,4.87.22,6,1.57,1.81,2.14.2,4.28-2,5.84s-4.22,3.45-6.5,5.34c2.51,1.95,4.33,3.85,6.54,5,9.48,4.86,18.88,10,28.7,14,6.79,2.82,11.72.62,16-5.27s8.46-11.51,12.47-17.41c7.72-11.36,15.29-22.81,22.75-34-2.7-2-5.57-3.66-7.86-5.92-2.72-2.68-1.94-6.55,1.48-7.48a9.8,9.8,0,0,1,5.87.84q31.65,13.5,63.22,0c3.9-1.67,5.63-.53,7.74,3,4.12,6.84,8.38,13.78,13.68,19.69,8.74,9.75,19.67,15.58,33.4,15.11,2.19-.08,4.78,1.76,6.62,3.36,2.56,2.22,4.32,5.36,6.91,7.54,4.77,4,10.25,6.21,17.4,4.44-2.66-4.54-5.33-8.46-7.27-12.71-.81-1.76-.06-4.24,0-6.4,2,.39,4.67.11,5.74,1.3,3.52,3.89,6.43,8.32,9.52,12.46,3.58-4.4,3.89-6.23,2.5-15.81s-12.6-20.27-22.24-21.11c-2.64-.23-4.67-.18-5.89,3-1.15,3-3.6,5.51-7.35,3.39-3.59-2-2.61-5.05-1.3-8.12a56,56,0,0,0,3.5-9.59c2.65-11.78-.06-22.72-6.26-32.8A19,19,0,0,1,311.69,309c.45-10.68.78-21.38.68-32.07,0-3.7,1-6,3.94-8.21,30.72-23.06,61.8-45.67,90.34-71.5,7.74-7,14.67-14.52,19.15-24.06,1.74-3.7,2.17-7.46-.11-11.07-2.38-3.77-6.29-4-9.26-.61a56.79,56.79,0,0,1-3.93,4.27c-2,1.86-4.29,3-6.72.83s-1.7-4.59,0-7.09a35.81,35.81,0,0,0,4.15-7.73c1-2.76-1.16-4.57-3.46-4.43-3.35.2-7.18.6-9.85,2.35C390.31,153.78,384.56,158.78,378.85,163.22Zm40.81,85.7a60.37,60.37,0,0,0-6.8-.73c-12,.24-28.25,15.41-29.46,27.36-.73,7.16,5,14.3,12.13,15.24,5.34.71,11.16-4.47,12.48-11.15.23-1.16.23-2.37.35-3.55.75-7.53.86-15.24,6.29-21.39C416,253.16,417.34,251.6,419.66,248.92Zm-87,91c22.48,2.39,55.06-20.05,57.13-39.26l-6.94-3.34a58.93,58.93,0,0,1-21.17,23.66c-9.14,5.95-19.54,8.12-30.5,9C331.73,333.55,332.21,336.73,332.68,339.87Z"/><path class="cls-2" d="M112.12,420.11c8,3.85,15.76,8.12,23.94,11.4a49.85,49.85,0,0,0,15,3c6.73.47,12.47-1.86,16.2-8.1a98.69,98.69,0,0,1,6.16-8.32c31.13-3.54,62.39-3.29,93.61-2.52,18.95.47,37.93,2.13,56.76,4.38,13.91,1.66,27.63,5,41.39,7.89,2.7.56,5.26,2.07,7.72,3.43,5.55,3.07,5.88,7.26.37,10.41a46.27,46.27,0,0,1-14,5.62c-15.12,2.87-30.3,5.77-45.59,7.35-18.87,2-37.87,2.94-56.84,3.71-17.69.71-35.42,1-53.12.7-16.32-.28-32.67-1.15-48.93-2.6-22-2-44.05-3.82-65.26-10.62a48.21,48.21,0,0,1-10.09-4.63c-5.41-3.3-5.47-7.54.37-10.33,7.05-3.37,14.61-5.73,22-8.28C105.17,421.48,108.69,420.92,112.12,420.11Z"/><path class="cls-3" d="M360.18,142.55c-1.24,11.49,2.09,21,10.5,29.09,6.53,6.29,4.55,17.48-3.44,22.83a68.2,68.2,0,0,1-8.73,4.45,12.28,12.28,0,0,0-6.69,7.82c-1.63,4.88-3.45,10-6.43,14.07s-7.25,7.26-11.37,10.26c-1.17.85-4.29.37-5.66-.65-3.9-2.88-5.79-2.85-8,1.57-4.9,9.66-11.2,17.9-21.3,22.64-4.28,2-8.65,3.2-13.35,1.59a8.19,8.19,0,0,1-2-.82c-6.35-4.4-7.89-4.6-13.8.38-9.42,8-20.62,11.41-32.37,13.7a65.83,65.83,0,0,1-42.21-5.16,100.59,100.59,0,0,1-15-9.39c-4.92-3.58-6.18-4-11-.5-4.65,3.33-9.59,2.84-14.49,1.17-10.9-3.69-18.18-11.53-23.57-21.35-3.62-6.6-3.36-6.06-10.59-3.7-2.44.79-6.7-1.53-9.11-3.61a39.49,39.49,0,0,1-11.82-19.11,14.75,14.75,0,0,0-9.45-10.37,19.46,19.46,0,0,1-10.79-10c-3-6.12-1.42-11.28,2.42-15.86a36.79,36.79,0,0,0,9-25.67c-.39-20.69,3.7-40.77,10.62-60.28a8.62,8.62,0,0,0,.09-5.08,103.38,103.38,0,0,1-4.53-37.9c.36-4.93.9-10.11,5.31-13.59,5.18-4.07,10.6-3.15,15.94-.48,13.8,6.89,26.71,15.26,37.63,26.11,6,6,11.69,6.26,19.36,4.23,9.61-2.53,19.64-3.6,29.55-4.86a172.16,172.16,0,0,1,21.64-1.5c6.91,0,13.82.81,20.73,1.38,6.34.52,12.72.89,19,1.84A161,161,0,0,1,284,59.67c3.83,1,6.56.34,9.77-2.14,12-9.28,24.19-18.23,36.48-27.09a28,28,0,0,1,8.13-3.54c7.27-2.28,12.23.39,14.39,7.75,3.18,10.82,2.24,21.78.54,32.69-.73,4.69-2.25,9.25-2.9,13.94a21.14,21.14,0,0,0,.45,8.57C355.86,107.14,359.8,124.58,360.18,142.55Zm-180.86,25,0,.09c1.51-1.25,3.4-2.23,4.45-3.78,6.63-9.8,7.77-20.65,5.28-32-4.67-21.16-27.53-32.83-45.71-23.2a38.34,38.34,0,0,0-19.9,26.1c-3.46,14.82-1,28.3,10.82,39a4.78,4.78,0,0,0,3.68,1.15c5.1-1.31,10.11-3,15.16-4.49l17.18-.1,6.32,0ZM294.06,170c5.66,1.62,11.42,3,16.93,5,2.51.92,3.89.68,5.73-1.13A41,41,0,0,0,321,119.54c-14.14-18.94-34.89-16.37-46.65-6.86-15.24,12.33-17.5,38.38-5.18,53.61,1.42,1.75,4,2.58,6,3.83Zm-65.65,67.74c11.36.87,27.7-9.56,30.83-20.39,1.56-5.36,4.59-9,9.08-12.06,4.93-3.38,8-8.38,6.62-14.51-.54-2.35-3.18-4.88-5.5-6-2.84-1.37-5.62.48-6.91,3.34-4.69,10.42-17.06,13.51-28,3.92-3.58-3.14-3.11-6.34,1-8.71,4.47-2.58,9.23-5,13-8.43,6.61-6,5.65-14-2.11-18.54a41.86,41.86,0,0,0-13.19-5.09c-9.92-1.87-19.57-.52-28,5.48-6.92,4.91-8.12,11.68-2.45,17.93,3.48,3.82,8.32,6.48,12.78,9.29,2.81,1.76,4.18,4.63,2.6,7.23-4.46,7.33-18,8.94-23.9,2.72-1.83-1.92-3.17-4.29-4.81-6.4C186,183.17,181,183.4,178,188c-2.85,4.43-1.86,10.63,3.72,15,6.33,5,10.35,10.75,13.71,18.25C200.88,233.36,212.53,237.3,228.41,237.74ZM293.52,73.35c-3.11,1-8.21,2.06-12.81,4.21-4.33,2-5.68,6.43-3.74,9.64,2.31,3.81,5.63,2.9,9,1.69,10-3.55,19.27-2.33,27.76,4.17,2,1.53,3.81,3.58,6.07,4.44,1.79.69,4.79.68,6-.41s1.3-3.93,1.12-5.94c-.13-1.46-1.32-3-2.33-4.2C317.18,77.74,306.88,74.63,293.52,73.35Zm-136.73.05c-12.48.78-21.48,4.16-28.89,11.19-1.41,1.34-2,3.47-3.15,5.16-2.08,3.14-1.27,5.69,1.72,7.49s5.61.8,7.91-1.57c8.49-8.72,18.43-10.78,29.76-6.45,3.44,1.31,6.54.94,8.49-2.52,1.76-3.11.57-7.17-3.34-9C164.67,75.59,159.63,74.36,156.79,73.4Z"/><path class="cls-3" d="M378.85,163.22c5.71-4.44,11.46-9.44,17.78-13.59,2.67-1.75,6.5-2.15,9.85-2.35,2.3-.14,4.46,1.67,3.46,4.43a35.81,35.81,0,0,1-4.15,7.73c-1.71,2.5-2.57,4.82,0,7.09s4.73,1,6.72-.83a56.79,56.79,0,0,0,3.93-4.27c3-3.35,6.88-3.16,9.26.61,2.28,3.61,1.85,7.37.11,11.07-4.48,9.54-11.41,17-19.15,24.06C378.11,223,347,245.61,316.31,268.67c-3,2.22-4,4.51-3.94,8.21.1,10.69-.23,21.39-.68,32.07a19,19,0,0,0,2.72,11.39c6.2,10.08,8.91,21,6.26,32.8a56,56,0,0,1-3.5,9.59c-1.31,3.07-2.29,6.09,1.3,8.12,3.75,2.12,6.2-.38,7.35-3.39,1.22-3.2,3.25-3.25,5.89-3,9.64.84,20.83,11.42,22.24,21.11s1.08,11.41-2.5,15.81c-3.09-4.14-6-8.57-9.52-12.46-1.07-1.19-3.78-.91-5.74-1.3,0,2.16-.79,4.64,0,6.4,1.94,4.25,4.61,8.17,7.27,12.71-7.15,1.77-12.63-.4-17.4-4.44-2.59-2.18-4.35-5.32-6.91-7.54-1.84-1.6-4.43-3.44-6.62-3.36-13.73.47-24.66-5.36-33.4-15.11-5.3-5.91-9.56-12.85-13.68-19.69-2.11-3.5-3.84-4.64-7.74-3q-31.56,13.51-63.22,0a9.8,9.8,0,0,0-5.87-.84c-3.42.93-4.2,4.8-1.48,7.48,2.29,2.26,5.16,3.93,7.86,5.92-7.46,11.15-15,22.6-22.75,34-4,5.9-8.24,11.66-12.47,17.41s-9.25,8.09-16,5.27c-9.82-4.06-19.22-9.17-28.7-14-2.21-1.13-4-3-6.54-5,2.28-1.89,4.26-3.79,6.5-5.34s3.86-3.7,2-5.84c-1.14-1.35-4.42-2.23-6-1.57-3.13,1.31-5.76,3.83-9.59,6.55-1.55-4.79-3.88-9.66-4.55-14.75-.7-5.36,3.16-8.05,8.6-7.35,7.6,1,13.37,5.46,19.15,9.93.47.37.88.81,1.33,1.19,4.31,3.62,7.37,4.21,9.42,1.5,2.76-3.64-.13-6.21-2.42-8.32s-1.46-4.37-.7-6.49c4.5-12.58,9.18-25.1,13.64-37.7a6.72,6.72,0,0,0-.09-4.88c-7-12.6-9.2-26.39-10.36-40.43-.38-4.59.24-9.27-.33-13.81-.33-2.52-1.56-5.61-3.45-7.14-24.24-19.7-48.87-38.92-73-58.8a334.81,334.81,0,0,1-28.1-26.76c-3.36-3.5-5.61-8.41-7.36-13.06-2.15-5.74.62-10.31,5.63-10.31,1.6,0,3.34,1.18,4.74,2.21s2.24,3.24,3.71,3.68c2.27.68,5.35,1.19,7.22.17,2.72-1.49,1.66-4.33,0-6.57-1.43-1.9-3.27-3.63-4.13-5.76-.73-1.81-1.16-4.74-.2-6s4.33-2,5.8-1.28a101.23,101.23,0,0,1,15.56,9.18c3.64,2.68,6.5,6.43,9.92,9.92a24,24,0,0,1-1.58,3.59c-8.79,13.6.35,31,12.68,36.49,3.89,1.73,5.76,4.41,7.49,8.07a127.74,127.74,0,0,0,10.6,19c4.6,6.55,11.46,9.94,19.62,10.63a7.39,7.39,0,0,1,4.59,2.39c8.19,9.73,17.13,18.64,30.15,20.93,5.29.93,11-.75,16.57-1.09,1.55-.1,3.54-.22,4.63.6,28.37,21.34,69.62,19.23,99.22.31,1.4-.89,3.76-1.7,5-1.13,9.19,4.15,17.72,2.09,26-2.33A49.88,49.88,0,0,0,325.29,246c.67-1.05,2.2-2.36,3.23-2.27,8.15.69,14.49-3.23,19.07-9,5.21-6.52,9.27-14,13.33-21.36,1.5-2.72,2.78-4.77,5.83-6,12.7-5.26,19.84-17,17.94-30.63C384.07,172.34,381.09,168.24,378.85,163.22Z"/><path class="cls-4" d="M419.66,248.92c-2.32,2.68-3.65,4.24-5,5.78-5.43,6.15-5.54,13.86-6.29,21.39-.12,1.18-.12,2.39-.35,3.55-1.32,6.68-7.14,11.86-12.48,11.15-7.18-.94-12.86-8.08-12.13-15.24,1.21-11.95,17.49-27.12,29.46-27.36A60.37,60.37,0,0,1,419.66,248.92Z"/><path class="cls-3" d="M332.68,339.87c-.47-3.14-.95-6.32-1.48-9.94,11-.88,21.36-3.05,30.5-9a58.93,58.93,0,0,0,21.17-23.66l6.94,3.34C387.74,319.82,355.16,342.26,332.68,339.87Z"/><path class="cls-1" d="M228.41,237.74c-15.88-.44-27.53-4.38-33-16.5-3.36-7.5-7.38-13.28-13.71-18.25-5.58-4.37-6.57-10.57-3.72-15,2.95-4.59,8-4.82,11.38-.48,1.64,2.11,3,4.48,4.81,6.4,5.9,6.22,19.44,4.61,23.9-2.72,1.58-2.6.21-5.47-2.6-7.23-4.46-2.81-9.3-5.47-12.78-9.29-5.67-6.25-4.47-13,2.45-17.93,8.45-6,18.1-7.35,28-5.48a41.86,41.86,0,0,1,13.19,5.09c7.76,4.56,8.72,12.5,2.11,18.54-3.76,3.43-8.52,5.85-13,8.43-4.09,2.37-4.56,5.57-1,8.71,11,9.59,23.33,6.5,28-3.92,1.29-2.86,4.07-4.71,6.91-3.34,2.32,1.13,5,3.66,5.5,6,1.41,6.13-1.69,11.13-6.62,14.51-4.49,3.09-7.52,6.7-9.08,12.06C256.11,228.18,239.77,238.61,228.41,237.74Zm-5-27.28a27.76,27.76,0,0,0-14.69,7.47c-.93.89-.85,4.77-.1,5.18,5.47,3,11.11,7.06,16.92,7.46,5.22.37,11-3.07,16.05-5.66,4.11-2.09,4.18-4.73.12-6.87C235.88,215,229.53,212.94,223.4,210.46Z"/><path class="cls-5" d="M275.13,170.12c-2-1.25-4.57-2.08-6-3.83-12.32-15.23-10.06-41.28,5.18-53.61,11.76-9.51,32.51-12.08,46.65,6.86a41,41,0,0,1-4.25,54.32c-1.84,1.81-3.22,2-5.73,1.13-5.51-2-11.27-3.37-16.93-5,1.76-1.29,4.11-2.21,5.19-3.93,5.59-9,9.56-18.51,7.05-29.4-1.88-8.18-6-14.84-14.35-17.91-7.58-2.81-13.55-.76-17,5.6,4.79,4.23,6.13,10.43,2.86,14.23-.88,1-2.5,2.11-3.7,2-2.23-.17-4.41-1.18-6.86-1.91a13.6,13.6,0,0,0-.37,1.61C265.34,151.43,267.57,161.51,275.13,170.12Z"/><path class="cls-5" d="M153.07,170.49C148,172,143,173.67,137.91,175a4.78,4.78,0,0,1-3.68-1.15c-11.83-10.68-14.28-24.16-10.82-39a38.34,38.34,0,0,1,19.9-26.1c18.18-9.63,41,2,45.71,23.2,2.49,11.3,1.35,22.15-5.28,32-1.05,1.55-2.94,2.53-4.45,3.78a9.21,9.21,0,0,1,.71-2.91c6-9.45,7.08-19.77,4.6-30.33-1.81-7.76-6.64-13.8-14.67-15.76-7.12-1.74-13.45.53-18.21,6.45,4.3,2.83,5.6,6.78,3.47,11-.63,1.26-1.75,3.07-2.8,3.17-2.87.28-5.81-.21-8.87-.41C142.59,150.44,143.67,161.69,153.07,170.49Z"/><path class="cls-6" d="M153.07,170.49c-9.4-8.8-10.48-20.05-9.55-31.58,3.06.2,6,.69,8.87.41,1.05-.1,2.17-1.91,2.8-3.17,2.13-4.24.83-8.19-3.47-11,4.76-5.92,11.09-8.19,18.21-6.45,8,2,12.86,8,14.67,15.76,2.48,10.56,1.41,20.88-4.6,30.33a9.21,9.21,0,0,0-.71,2.91l0-.09-2.75,2.77-6.32,0Z"/><path class="cls-6" d="M275.13,170.12c-7.56-8.61-9.79-18.69-8.21-29.81a13.6,13.6,0,0,1,.37-1.61c2.45.73,4.63,1.74,6.86,1.91,1.2.09,2.82-1,3.7-2,3.27-3.8,1.93-10-2.86-14.23,3.41-6.36,9.38-8.41,17-5.6,8.32,3.07,12.47,9.73,14.35,17.91,2.51,10.89-1.46,20.43-7.05,29.4-1.08,1.72-3.43,2.64-5.19,3.93Z"/><path class="cls-1" d="M293.52,73.35c13.36,1.28,23.66,4.39,31.15,13.6,1,1.25,2.2,2.74,2.33,4.2.18,2,.1,4.87-1.12,5.94s-4.25,1.1-6,.41c-2.26-.86-4.07-2.91-6.07-4.44-8.49-6.5-17.79-7.72-27.76-4.17-3.41,1.21-6.73,2.12-9-1.69-1.94-3.21-.59-7.62,3.74-9.64C285.31,75.41,290.41,74.33,293.52,73.35Z"/><path class="cls-1" d="M156.79,73.4c2.84,1,7.88,2.19,12.5,4.33,3.91,1.8,5.1,5.86,3.34,9-1.95,3.46-5,3.83-8.49,2.52-11.33-4.33-21.27-2.27-29.76,6.45-2.3,2.37-4.95,3.34-7.91,1.57s-3.8-4.35-1.72-7.49c1.11-1.69,1.74-3.82,3.15-5.16C135.31,77.56,144.31,74.18,156.79,73.4Z"/><path class="cls-5" d="M176.57,170.36l2.75-2.77Z"/><path class="cls-4" d="M215.08,212.28a18.46,18.46,0,0,1,16.45-1.19,121.83,121.83,0,0,1,14,6.35c4.52,2.54,4.44,5.67-.13,8.15-5.67,3.07-12.07,7.15-17.88,6.71-4.79-.36-13.46-4.88-17.66-7.21a4.24,4.24,0,0,1-2.12-4.29c.2-1.44.53-3,1-3.49A32.62,32.62,0,0,1,215.08,212.28Z"/><path class="cls-3" d="M136.28,184.11h51.11c-.25-10.18-14.31-18.39-31.64-18.39-13.47,0-25,5-29.53,11.95A25.24,25.24,0,0,1,136.28,184.11Z"/><path class="cls-3" d="M310.6,181c2.3-1.52,5.87-2.61,8.55-4,2.37-1.17,5.77-2.33,6.82-4.14a2.69,2.69,0,0,1,.55-.66c-5.61-5.21-15.48-8.66-26.72-8.66-17.32,0-31.39,8.2-31.64,18.38h41.49A3.11,3.11,0,0,1,310.6,181Z"/><rect class="cls-7" width="456.6" height="477.08"/></g></g></svg>