<svg xmlns="http://www.w3.org/2000/svg" viewBox="0 0 333.68 276.16"><defs><style>.cls-1{fill:#a9bfbc;}</style></defs><g id="Layer_2" data-name="Layer 2"><g id="Layer_1-2" data-name="Layer 1"><path class="cls-1" d="M143.53,2.11,44,65.11a13.28,13.28,0,0,1-7.09,2.08H14.18C6.35,67.19,0,74.15,0,82.74V193.42C0,202,6.35,209,14.18,209H36.91A13.28,13.28,0,0,1,44,211.05l99.53,63c9.45,6,21.27-1.49,21.27-13.46v-245C164.8,3.6,153-3.88,143.53,2.11Z"/><path class="cls-1" d="M226,17.75h0a17.65,17.65,0,0,0,9.31,15.6,118.59,118.59,0,0,1,0,209.47A17.64,17.64,0,0,0,226,258.41h0A17.73,17.73,0,0,0,252,274.05,154,154,0,0,0,252,2.11,17.73,17.73,0,0,0,226,17.75Z"/><path class="cls-1" d="M183.74,61.36h0a11.25,11.25,0,0,0,5.94,9.94,75.62,75.62,0,0,1,0,133.56,11.25,11.25,0,0,0-5.94,9.94h0a11.31,11.31,0,0,0,16.63,10,98.22,98.22,0,0,0,0-173.38A11.31,11.31,0,0,0,183.74,61.36Z"/></g></g></svg>