<svg xmlns="http://www.w3.org/2000/svg" viewBox="0 0 72.94 31.31"><defs><style>.cls-1{fill:#ea7624;}</style></defs><g id="Layer_2" data-name="Layer 2"><g id="Layer_1-2" data-name="Layer 1"><path class="cls-1" d="M20,5.34a6.15,6.15,0,0,0,2.17,5,2.13,2.13,0,0,0,1.16.42.78.78,0,0,0,.8-.43A.9.9,0,0,0,24,9.26,3.4,3.4,0,0,1,23.26,7a3.2,3.2,0,0,1,2.18-3.12l.38-.12a.9.9,0,0,0,.74-.82,1,1,0,0,0-.6-1,3.11,3.11,0,0,0-2.09-.3C21.8,2,20,3.57,20,5.34Z"/><path class="cls-1" d="M35.32,11.14a2,2,0,0,0-.61-1.65,3.82,3.82,0,0,0-3.43-1.07,1.57,1.57,0,0,0-.81,2.6,3.85,3.85,0,0,0,3.69,1.24A1.38,1.38,0,0,0,35.32,11.14Z"/><path class="cls-1" d="M31.2,3.08a1.66,1.66,0,0,0-1.58,1A1.85,1.85,0,0,0,30.4,6a2.63,2.63,0,0,0,2.42.37A1.42,1.42,0,0,0,33.33,4,3.09,3.09,0,0,0,31.2,3.08Z"/><path class="cls-1" d="M27.8,11.82a1.37,1.37,0,0,0-1.34.83,1.51,1.51,0,0,0,.4,1.81,2.66,2.66,0,0,0,2.77.61,1.41,1.41,0,0,0,.54-2.18A2.88,2.88,0,0,0,27.8,11.82Z"/><path class="cls-1" d="M41.75,25.43a6,6,0,0,0,4,3.78,2.31,2.31,0,0,0,1.3-.07.83.83,0,0,0,.62-.72.86.86,0,0,0-.55-1,3.35,3.35,0,0,1-.64-5.54l.33-.27a.93.93,0,0,0,.42-1.06,1,1,0,0,0-1-.7,3.48,3.48,0,0,0-2.18.57C42.22,21.63,41,23.82,41.75,25.43Z"/><path class="cls-1" d="M59,24.65a1.94,1.94,0,0,0-1.23-1.28,4.32,4.32,0,0,0-3.79.38,1.56,1.56,0,0,0,.18,2.74,4.25,4.25,0,0,0,4.12-.34A1.43,1.43,0,0,0,59,24.65Z"/><path class="cls-1" d="M51.9,18.84a1.79,1.79,0,0,0-1.16,1.61c0,.61.73,1.32,1.49,1.46a3,3,0,0,0,2.53-.63,1.39,1.39,0,0,0-.42-2.45A3.47,3.47,0,0,0,51.9,18.84Z"/><path class="cls-1" d="M51.85,28.31a1.47,1.47,0,0,0,.07,2.82,3,3,0,0,0,3-.55,1.37,1.37,0,0,0-.29-2.24A3.16,3.16,0,0,0,51.85,28.31Z"/><path class="cls-1" d="M57.49,3.93a6.1,6.1,0,0,0,2.33,5A2.13,2.13,0,0,0,61,9.27a.77.77,0,0,0,.78-.46.91.91,0,0,0-.18-1.1,3.4,3.4,0,0,1-.83-2.23,3.19,3.19,0,0,1,2.07-3.19l.38-.13a.9.9,0,0,0,.71-.85,1,1,0,0,0-.63-1,3,3,0,0,0-2.1-.23C59.13.53,57.35,2.15,57.49,3.93Z"/><path class="cls-1" d="M72.94,9.23a2,2,0,0,0-.66-1.63,3.86,3.86,0,0,0-3.46-1,1.58,1.58,0,0,0-.73,2.63,3.85,3.85,0,0,0,3.74,1.12A1.37,1.37,0,0,0,72.94,9.23Z"/><path class="cls-1" d="M68.57,1.3A1.64,1.64,0,0,0,67,2.41a1.85,1.85,0,0,0,.84,1.88,2.66,2.66,0,0,0,2.43.29,1.42,1.42,0,0,0,.43-2.44A3.11,3.11,0,0,0,68.57,1.3Z"/><path class="cls-1" d="M65.45,10.15a1.35,1.35,0,0,0-1.31.88,1.51,1.51,0,0,0,.45,1.79,2.69,2.69,0,0,0,2.8.52,1.41,1.41,0,0,0,.46-2.2A2.88,2.88,0,0,0,65.45,10.15Z"/><path class="cls-1" d="M.19,22.44a6.13,6.13,0,0,0,3.76,4,2.24,2.24,0,0,0,1.23,0,.79.79,0,0,0,.6-.69.92.92,0,0,0-.51-1A3.35,3.35,0,0,1,3.79,22.9a3.18,3.18,0,0,1,1-3.68A3.65,3.65,0,0,1,5.08,19a.93.93,0,0,0,.42-1,1,1,0,0,0-.91-.75,3,3,0,0,0-2.07.44C.7,18.7-.49,20.79.19,22.44Z"/><path class="cls-1" d="M16.53,22.67a2,2,0,0,0-1.14-1.34,3.84,3.84,0,0,0-3.59.16,1.58,1.58,0,0,0,.13,2.72,3.84,3.84,0,0,0,3.9-.09A1.38,1.38,0,0,0,16.53,22.67Z"/><path class="cls-1" d="M9.91,16.5A1.65,1.65,0,0,0,8.78,18c0,.6.67,1.34,1.39,1.53a2.66,2.66,0,0,0,2.4-.48,1.42,1.42,0,0,0-.35-2.45A3.11,3.11,0,0,0,9.91,16.5Z"/><path class="cls-1" d="M9.69,25.88a1.35,1.35,0,0,0-1,1.24,1.5,1.5,0,0,0,1,1.56,2.68,2.68,0,0,0,2.82-.37,1.42,1.42,0,0,0-.25-2.24A2.91,2.91,0,0,0,9.69,25.88Z"/></g></g></svg>