<svg xmlns="http://www.w3.org/2000/svg" viewBox="0 0 428.21 506.85"><defs><style>.cls-1{fill:none;}.cls-2{fill:#801e34;}.cls-3{fill:#c4bdb8;opacity:0.23;}.cls-4{fill:#fbaf40;}.cls-5{fill:#f06f22;}</style></defs><g id="Layer_2" data-name="Layer 2"><g id="Layer_1-2" data-name="Layer 1"><rect class="cls-1" width="428.21" height="506.85"/><path class="cls-2" d="M346.3,428.85l7.81-1.88c-11.63-8.08-19.58-17.88-23.28-30.91-6.28-22.18,6.13-44.2,28.66-50.56,21.33-6,43.45,6.1,49.3,27,5.23,18.72-5,41.54-23.5,52.49-1,.57-2,1.08-3.58,2,9.62,2.9,18.73,3.95,28.07,2.44,3.51-.57,7.4-1.69,8.36,3.24.88,4.51-2.24,6.54-6.17,7.34-12.16,2.47-24,.77-35.76-2.66-3.27-.95-6.63-1.57-9.95-2.34-9.42,2.64-18.7,6.34-28.31,7.69a122.29,122.29,0,0,1-52.23-4.25,4.52,4.52,0,0,0-3.21.15c-10.54,6-22,6.5-33.69,5.95-2.4,8.68-9.22,12.71-16.94,15.2-10.73,3.46-21.91,4-33,2.91-12.25-1.19-22.65-6.13-29.74-16.75a9.24,9.24,0,0,0-2.07-1.73c-4.06,7.47-10.54,10.87-18.29,11.77-16.66,1.92-33.35,2-49.89-1.25-12-2.33-23.58-5.92-32.19-15.37-3.89-4.28-7.41-8.9-11.1-13.36-10.61-17.55-13.8-36.78-11.92-56.84s10-37.92,22.88-53.44c5-6,10.76-11.46,16.48-17.49-2.53-1.79-5.06-3.51-7.53-5.33A51.92,51.92,0,0,1,57.6,269.46,8,8,0,0,0,52.07,264c-13.7-4.66-21.6-15.77-20.3-29.89a28.64,28.64,0,0,1,6.1-14.46c6.06-7.52,9.61-15.1,9.89-25.16.66-24.33,6.35-47.65,16.14-70.1,2.08-4.76.65-11.28.07-16.92C62.5,93.22,61.85,79,65.51,65,69.58,49.33,81.1,42.4,96.78,46.27c17.25,4.26,31.44,14.26,45.05,25.06,3.92,3.11,7.23,4.27,12.36,3.1A252.66,252.66,0,0,1,249.66,71c1.45.23,3.34-.93,4.69-1.91,11.14-8.06,21.81-16.85,33.44-24.11A54,54,0,0,1,309,37.62c10.94-1.38,19.33,5.87,23.34,17.54,3.24,9.45,3.55,19.22,3.15,29-.32,7.93-1.49,15.82-2.13,23.74a7.24,7.24,0,0,0,.79,4.43c11.21,15.88,16.69,33.93,20.12,52.74,1,5.69,1.52,11.49,2.22,17.25a26.12,26.12,0,0,0,9,17.24c17.06,14.39,9.39,36.38-7.44,45.76a9,9,0,0,0-4.17,4.83c-6,23.88-20.59,40.69-41.36,51.35,3.65,6.22,8.11,12,10.66,18.59,4.11,10.56,1.18,21.35-1.92,31.66-5.35,17.81-14.2,33.21-32,41.52-3.39,1.59-7.05,2.58-11,4A40.62,40.62,0,0,1,290.43,419v8.14c4.35.88,8.56,1.68,12.74,2.6C317.62,432.9,332,432.93,346.3,428.85Zm-95.51-116.2,1.43,1.37c2.5-2.3,5.42-4.29,7.42-7,8-10.73,18.72-15.72,31.69-13.42,6,1.06,10.57.35,15.29-2.81,2.49-1.67,5.18-3,7.63-4.72,11.84-8.26,22.13-18.05,25.83-32.49,2.33-9.11,6.25-15.86,14.48-21.2,10.35-6.72,10.79-15.75,2.46-24.78-7-7.58-11.8-15.93-12.48-26.41a101,101,0,0,0-1.3-11.39c-3.31-18.27-8.43-36-19.47-51.2a17.71,17.71,0,0,1-3.11-14.84c2.79-13.86,3.31-27.66.65-41.52-2.29-11.94-8.12-15.13-19.23-10.35-15.63,6.72-28.78,17.2-41.18,28.58-3.27,3-6.5,4.63-10.7,3.72-15.93-3.47-32.08-2.72-48.2-3a152.64,152.64,0,0,0-46.66,6.48c-8.32,2.52-14,1.4-19.49-4.56a9.64,9.64,0,0,0-1.11-1C123,72.88,111.06,63.8,96.41,59.41c-12-3.59-17.61-.07-19.88,12.14-2.45,13.14-3,26.32-.28,39.46A34.91,34.91,0,0,1,73.64,134a151.64,151.64,0,0,0-14.09,63.2c-.1,10.36-2.46,19.74-10.07,27.27a30.81,30.81,0,0,0-2.92,3.42C41.13,235.06,42,243,49.23,248.35c3.41,2.51,7.71,3.77,11.35,6,2.24,1.37,5.16,3.15,5.8,5.33,3.67,12.45,12,20.79,22.53,27.49,4.45,2.83,9,3.43,14.2,2.57,2.77-.46,6.77,0,8.63,1.7,14.6,13.6,33,19.27,51.39,24.45,9.79,2.76,20.53,2.33,30.86,3a124.8,124.8,0,0,0,15.47-.13c5.13-.29,10.24-1,15.36-1.57-13.21-6-19-17.17-20-29.95-.71-8.68-3.66-12.2-11.69-14.26-7.25-1.86-12.33-7.51-15.72-14.3-1.58-3.17-1.47-6.34,1.74-8.37,3-1.9,5.69-.67,8,1.81a70.05,70.05,0,0,0,5.64,5.66c9.8,8.51,21.24,6.6,27.73-4.58,2.56-4.41,1.91-6.8-2.45-9.43-4.11-2.47-8.6-4.55-12.19-7.64-8.44-7.26-7.49-15.75,2.25-20.85,11.81-6.18,24.23-7,36.58-1.93,9.47,3.9,11.14,12.53,4.17,20a115.73,115.73,0,0,1-10.05,8.94c-3,2.51-3.51,5.28-1.82,8.83,2.27,4.8,6.19,6.8,11.15,7a11.88,11.88,0,0,0,11.52-6.47c1.38-2.43,1.88-5.51,3.65-7.54,1.38-1.57,4.35-3,6.15-2.57s3.84,3.28,3.92,5.15a15.62,15.62,0,0,1-2.18,9c-3.84,5.62-8.46,10.7-13.45,16.84C261.56,285.78,262.28,300.15,250.79,312.65ZM135.1,404.16c.33-2.34.74-4.79,1-7.25,1.36-12.6-6.6-27.41-17.73-33.39-7.34-3.94-14.86-2.55-22.38-1-3.9.81-6.83-.34-7.83-4.11-1.08-4.07,1.8-6,5.23-7.1,18.4-5.75,36.6,1.57,45.94,18.49,5.62,10.17,8.19,21,6.31,32.6-.52,3.25-.24,5.63,3.52,6.91,2.67.92,5,2.84,7.86,4.53-.41-2.36-.7-4.31-1.1-6.23-1.45-7.15-3.07-14.27-4.34-21.45-.55-3.11.14-6.24,3.84-7.07,3.91-.88,5.84,1.62,6.81,5,.83,2.86,1.51,5.77,2.18,8.68,2.66,11.46,4.79,23.08,8.06,34.36,3.61,12.43,11.84,20.58,25.13,22.69,5,.8,6.13,0,5.75-5.07-.21-2.76-1.21-5.45-1.84-8.18-.76-3.29.37-6.14,3.72-6.14,1.76,0,4.48,2.4,5.1,4.27,1.71,5.08,2.54,10.46,3.78,16l7.49-1.09c-.87-4.69-1.89-9-2.36-13.38-.21-1.87.74-3.88,1.16-5.82,1.8.45,3.92.46,5.32,1.46a9.44,9.44,0,0,1,3.41,4.74A92.38,92.38,0,0,1,231,447.15c5.11-1.62,7.22-7.16,4.89-12.63a31.21,31.21,0,0,0-11.21-14,15.63,15.63,0,0,1-5.17-6.45c-3.44-8.06-6.68-16.24-9.48-24.54a117.94,117.94,0,0,1-3.66-15.85c-.63-3.4.28-6.52,4.12-7.41s5.33,1.93,6.42,4.87c.69,1.86,1.08,3.83,1.65,5.73,2.41,8,4.84,16,7.59,25.11,4.19-4,7.71-6.84,10.6-10.2,10.67-12.45,16.5-27.54,22.46-42.51a3.58,3.58,0,0,0-.26-3.08c-5.46-5.53-7.22-12.49-7.81-20a19.68,19.68,0,0,0-3.71,0c-6,1.25-11.94,3.31-18,3.77-11.48.87-23,1-34.57,1.13-12.39.1-24.7-.75-36.79-4-17.59-4.71-34.6-10.58-49.18-21.95-5.36-4.19-8.9-4.58-14.37-.31a108.43,108.43,0,0,0-14,12.78C61.76,338.51,51.33,362.93,55.73,391c6.86,43.82,33.13,54.88,72,53.43-.29-2.77-.46-5.54-.88-8.27-.46-2.91-1-6,2.57-7.11,3.81-1.24,5.1,2,5.83,4.59a100.75,100.75,0,0,1,1.86,11c7.74.45,8.46-.4,6.67-7.68a11.27,11.27,0,0,1-.78-3.37,41.79,41.79,0,0,1,1.12-5.47c1.86.71,4.15,1,5.45,2.26s2,3.72,2.91,5.67c.73,1.58,1.39,3.2,2.08,4.8l1.88-.12c.22-2.88,1.21-6,.51-8.59-2.42-9.12-12-16.22-22-16-3.88.06-7.78,1.36-11.61,2.32s-8,2.55-10.51-2.17c-1.71-3.23.88-6.75,6.79-8.63C124.48,406.14,129.57,405.39,135.1,404.16ZM270.37,311.1c6.69-.37,12.13,1.48,16.49,5.71,1.19,1.15,2.29,4.3,1.69,5a7.41,7.41,0,0,1-5.47,2.08c-2.75-.23-5.37-1.67-8.1-2.33-5.54-1.34-11.16,3.54-10.89,9.17.25,5.46,4,8,8.12,10.44,4.66,2.78,5,5.81,1.83,9.13a30.69,30.69,0,0,0-5.4,7.76c-2.69,5.51-4.77,11.31-7.41,16.85-3.17,6.66-.81,10.62,6.84,11.18s14.73-1.19,20.59-5.91c15.42-12.4,22.41-29.16,23.84-48.53.69-9.43-3.45-16.71-10.59-22.48C292,301.13,277.6,301.79,270.37,311.1ZM369.8,356c-1.55.25-4.19.54-6.76,1.15-13,3.1-23,16.14-21.56,28.54,1.79,15.77,10.56,26.8,24.31,34.09a5.84,5.84,0,0,0,4.48.05c9.94-4.43,18.07-11.06,23.27-20.79C406,375.73,390.16,357.07,369.8,356ZM263.42,432c-1.35-4.13-2.65-7.27-3.35-10.54-.43-2,0-4.16.11-6.26,2.22.47,5.52.2,6.46,1.56,2.7,3.89,4.45,8.45,6.62,12.83,4.55-1.79,6.58-5.88,4.74-11.92-4-13.17-13.29-20.78-25.25-24.36l-19.48,18.84c3.49,4,8.47,7.8,10.67,12.8,2.83,6.42,7.12,7.36,12.87,7.06C258.44,431.94,260.08,432,263.42,432Zm-24-160.3c0,3.2-.14,6.49,0,9.76.19,3.71-1.57,5.82-5.08,6-3.76.17-3.73-2.95-4-5.6s-.28-5.67-1.1-8.3c-.43-1.36-2.93-3.45-3.54-3.17a42.6,42.6,0,0,0-10.56,6.38c-1.25,1.13-1.3,4.54-.71,6.58,1.52,5.34,2.81,11.09,5.79,15.62,6.35,9.63,21.83,9.72,26.4.55,4-8,3.67-16.32.06-24.47C245.45,272.2,243.35,270.63,239.44,271.71Z"/><path class="cls-3" d="M55.55,426c3.69,4.46,7.21,9.08,11.1,13.36,8.61,9.45,20.18,13,32.19,15.37,16.54,3.2,33.23,3.17,49.89,1.25,7.75-.9,14.23-4.3,18.29-11.77a9.24,9.24,0,0,1,2.07,1.73c7.09,10.62,17.49,15.56,29.74,16.75,11.14,1.07,22.32.55,33-2.91,7.72-2.49,14.54-6.52,16.94-15.2,11.67.55,23.15.09,33.69-5.95a4.52,4.52,0,0,1,3.21-.15A122.29,122.29,0,0,0,338,442.71c9.61-1.35,18.89-5,28.31-7.69l4.4,2.12c8.12,3.95,9.11,11.24,1.42,16.06a89.93,89.93,0,0,1-20.74,9.44c-20.94,6.52-42.58,9.27-64.38,11.51-39.26,4-78.6,4.43-118,3.61-17.36-.36-34.76-1.79-52-3.88-22.14-2.69-44.25-6-66.17-10.13-9.63-1.82-19-5.81-28-9.83-9.73-4.33-10-12.49-.63-17.85C32.42,430.18,43.84,427.46,55.55,426Z"/><path class="cls-3" d="M346.3,428.85c-14.3,4.08-28.68,4-43.13.87-4.18-.92-8.39-1.72-12.74-2.6V419c17.08,2.46,34.16,4.87,51.21,7.45C343.28,426.68,344.75,428,346.3,428.85Z"/><path class="cls-4" d="M250.79,312.65c11.49-12.5,10.77-26.87,6.91-40.12,5-6.14,9.61-11.22,13.45-16.84a15.62,15.62,0,0,0,2.18-9c-.08-1.87-2.22-4.75-3.92-5.15s-4.77,1-6.15,2.57c-1.77,2-2.27,5.11-3.65,7.54a11.88,11.88,0,0,1-11.52,6.47c-5-.24-8.88-2.24-11.15-7-1.69-3.55-1.15-6.32,1.82-8.83a115.73,115.73,0,0,0,10.05-8.94c7-7.43,5.3-16.06-4.17-20-12.35-5.08-24.77-4.25-36.58,1.93-9.74,5.1-10.69,13.59-2.25,20.85,3.59,3.09,8.08,5.17,12.19,7.64,4.36,2.63,5,5,2.45,9.43-6.49,11.18-17.93,13.09-27.73,4.58a70.05,70.05,0,0,1-5.64-5.66c-2.27-2.48-5-3.71-8-1.81-3.21,2-3.32,5.2-1.74,8.37,3.39,6.79,8.47,12.44,15.72,14.3,8,2.06,11,5.58,11.69,14.26,1.06,12.78,6.82,23.95,20,29.95-5.12.54-10.23,1.28-15.36,1.57a124.8,124.8,0,0,1-15.47.13c-10.33-.69-21.07-.26-30.86-3-18.35-5.18-36.79-10.85-51.39-24.45-1.86-1.73-5.86-2.16-8.63-1.7-5.21.86-9.75.26-14.2-2.57-10.53-6.7-18.86-15-22.53-27.49-.64-2.18-3.56-4-5.8-5.33-3.64-2.23-7.94-3.49-11.35-6-7.28-5.35-8.1-13.29-2.67-20.51a30.81,30.81,0,0,1,2.92-3.42c7.61-7.53,10-16.91,10.07-27.27A151.64,151.64,0,0,1,73.64,134,34.91,34.91,0,0,0,76.25,111c-2.68-13.14-2.17-26.32.28-39.46,2.27-12.21,7.9-15.73,19.88-12.14C111.06,63.8,123,72.88,134.74,82.17a9.64,9.64,0,0,1,1.11,1c5.47,6,11.17,7.08,19.49,4.56A152.64,152.64,0,0,1,202,81.25c16.12.25,32.27-.5,48.2,3,4.2.91,7.43-.72,10.7-3.72,12.4-11.38,25.55-21.86,41.18-28.58,11.11-4.78,16.94-1.59,19.23,10.35,2.66,13.86,2.14,27.66-.65,41.52a17.71,17.71,0,0,0,3.11,14.84c11,15.19,16.16,32.93,19.47,51.2a101,101,0,0,1,1.3,11.39c.68,10.48,5.5,18.83,12.48,26.41,8.33,9,7.89,18.06-2.46,24.78-8.23,5.34-12.15,12.09-14.48,21.2-3.7,14.44-14,24.23-25.83,32.49-2.45,1.71-5.14,3-7.63,4.72-4.72,3.16-9.31,3.87-15.29,2.81-13-2.3-23.68,2.69-31.69,13.42-2,2.68-4.92,4.67-7.42,7ZM154.51,186.11c-3.89.73-7.92,1-11.65,2.27-14.31,4.74-24.22,20.2-21.51,33.1,1,4.71,5.13,6.48,8.82,3.4a18.66,18.66,0,0,0,4.19-6c1.34-2.64,2-5.61,3.39-8.25,4.43-8.78,13.16-12.33,22.6-9.63,7.66,2.18,11.57,7.78,14.38,14.67,1.49,3.66,3.79,6.46,8.37,4.74,3.69-1.38,5-5,3.69-9.55C182.24,195,170.88,186.41,154.51,186.11Zm126.33-7a27.59,27.59,0,0,0-27.47,25.58c-.29,3.41.34,6.37,4,7.55,4,1.26,6.31-.87,7.9-4.19.79-1.63,1.38-3.37,2.19-5,2.65-5.3,6.51-9.37,12.72-9.72a15,15,0,0,1,14.53,7.8c1.6,2.7,2.85,5.75,5,8,1.41,1.47,4.76,2.94,6,2.24,1.78-1,3.64-4.2,3.36-6.14C307.4,193.68,298.66,178.43,280.84,179.07Zm-130-52.5-.25.65c-3.13.37-6.31.53-9.39,1.15-10.4,2.11-19,7-24.05,16.76-2.54,4.86-2.26,9.64.79,11.33,4.27,2.37,7.18-.42,10-3.17.36-.35.72-.69,1.06-1.06,8.26-9.15,18.53-11.69,30.34-9.3,3.54.72,7.35,1.15,9-3,1.73-4.32-.71-7.78-4.34-9.45C159.83,128.59,155.19,127.83,150.79,126.57Zm122.69-8.42c-8.19-.13-14.77.31-20,5.47-3.52,3.47-4.54,7.83-2.31,11,3,4.31,6.54,2.47,10.14.85,6-2.71,12.22-4.42,18.68-1.33,5,2.38,9.91,4.83,14.85,7.28,2.77,1.38,6.12,2.88,8-.24,1.13-1.88.63-5.35-.28-7.66s-3.08-4.31-5-6.1A33.44,33.44,0,0,0,273.48,118.15Z"/><path class="cls-4" d="M135.1,404.16c-5.53,1.23-10.62,2-15.47,3.52-5.91,1.88-8.5,5.4-6.79,8.63,2.5,4.72,6.59,3.14,10.51,2.17s7.73-2.26,11.61-2.32c9.94-.17,19.54,6.93,22,16,.7,2.63-.29,5.71-.51,8.59l-1.88.12c-.69-1.6-1.35-3.22-2.08-4.8-.9-1.95-1.47-4.27-2.91-5.67s-3.59-1.55-5.45-2.26a41.79,41.79,0,0,0-1.12,5.47,11.27,11.27,0,0,0,.78,3.37c1.79,7.28,1.07,8.13-6.67,7.68a100.75,100.75,0,0,0-1.86-11c-.73-2.64-2-5.83-5.83-4.59-3.53,1.15-3,4.2-2.57,7.11.42,2.73.59,5.5.88,8.27-38.84,1.45-65.11-9.61-72-53.43-4.4-28.11,6-52.53,24.83-73.39a108.43,108.43,0,0,1,14-12.78c5.47-4.27,9-3.88,14.37.31,14.58,11.37,31.59,17.24,49.18,21.95,12.09,3.23,24.4,4.08,36.79,4,11.53-.09,23.09-.26,34.57-1.13,6.06-.46,12-2.52,18-3.77a19.68,19.68,0,0,1,3.71,0c.59,7.5,2.35,14.46,7.81,20a3.58,3.58,0,0,1,.26,3.08c-6,15-11.79,30.06-22.46,42.51-2.89,3.36-6.41,6.2-10.6,10.2-2.75-9.09-5.18-17.1-7.59-25.11-.57-1.9-1-3.87-1.65-5.73-1.09-2.94-2.63-5.74-6.42-4.87s-4.75,4-4.12,7.41A117.94,117.94,0,0,0,210,389.51c2.8,8.3,6,16.48,9.48,24.54a15.63,15.63,0,0,0,5.17,6.45,31.21,31.21,0,0,1,11.21,14c2.33,5.47.22,11-4.89,12.63a92.38,92.38,0,0,0-1.87-10.53,9.44,9.44,0,0,0-3.41-4.74c-1.4-1-3.52-1-5.32-1.46-.42,1.94-1.37,3.95-1.16,5.82.47,4.38,1.49,8.69,2.36,13.38l-7.49,1.09c-1.24-5.55-2.07-10.93-3.78-16-.62-1.87-3.34-4.27-5.1-4.27-3.35,0-4.48,2.85-3.72,6.14.63,2.73,1.63,5.42,1.84,8.18.38,5.05-.71,5.87-5.75,5.07-13.29-2.11-21.52-10.26-25.13-22.69-3.27-11.28-5.4-22.9-8.06-34.36-.67-2.91-1.35-5.82-2.18-8.68-1-3.36-2.9-5.86-6.81-5-3.7.83-4.39,4-3.84,7.07,1.27,7.18,2.89,14.3,4.34,21.45.4,1.92.69,3.87,1.1,6.23-2.85-1.69-5.19-3.61-7.86-4.53-3.76-1.28-4-3.66-3.52-6.91,1.88-11.63-.69-22.43-6.31-32.6-9.34-16.92-27.54-24.24-45.94-18.49-3.43,1.07-6.31,3-5.23,7.1,1,3.77,3.93,4.92,7.83,4.11,7.52-1.57,15-3,22.38,1,11.13,6,19.09,20.79,17.73,33.39C135.84,399.37,135.43,401.82,135.1,404.16Z"/><path class="cls-4" d="M270.37,311.1c7.23-9.31,21.64-10,31.54-2,7.14,5.77,11.28,13.05,10.59,22.48-1.43,19.37-8.42,36.13-23.84,48.53-5.86,4.72-13,6.47-20.59,5.91s-10-4.52-6.84-11.18c2.64-5.54,4.72-11.34,7.41-16.85a30.69,30.69,0,0,1,5.4-7.76c3.19-3.32,2.83-6.35-1.83-9.13-4.1-2.44-7.87-5-8.12-10.44-.27-5.63,5.35-10.51,10.89-9.17,2.73.66,5.35,2.1,8.1,2.33a7.41,7.41,0,0,0,5.47-2.08c.6-.68-.5-3.83-1.69-5C282.5,312.58,277.06,310.73,270.37,311.1Z"/><path class="cls-4" d="M263.42,432c-3.34,0-5-.07-6.61,0-5.75.3-10-.64-12.87-7.06-2.2-5-7.18-8.77-10.67-12.8l19.48-18.84c12,3.58,21.24,11.19,25.25,24.36,1.84,6-.19,10.13-4.74,11.92-2.17-4.38-3.92-8.94-6.62-12.83-.94-1.36-4.24-1.09-6.46-1.56-.07,2.1-.54,4.28-.11,6.26C260.77,424.74,262.07,427.88,263.42,432Z"/><path class="cls-5" d="M239.44,271.71c3.91-1.08,6,.49,7.28,3.34,3.61,8.15,3.94,16.47-.06,24.47-4.57,9.17-20,9.08-26.4-.55-3-4.53-4.27-10.28-5.79-15.62-.59-2-.54-5.45.71-6.58a42.6,42.6,0,0,1,10.56-6.38c.61-.28,3.11,1.81,3.54,3.17.82,2.63.8,5.52,1.1,8.3s.25,5.77,4,5.6c3.51-.17,5.27-2.28,5.08-6C239.3,278.2,239.44,274.91,239.44,271.71Z"/><path class="cls-2" d="M154.51,186.11c16.37.3,27.73,8.89,32.28,24.74,1.32,4.57,0,8.17-3.69,9.55-4.58,1.72-6.88-1.08-8.37-4.74-2.81-6.89-6.72-12.49-14.38-14.67-9.44-2.7-18.17.85-22.6,9.63-1.34,2.64-2.05,5.61-3.39,8.25a18.66,18.66,0,0,1-4.19,6c-3.69,3.08-7.84,1.31-8.82-3.4-2.71-12.9,7.2-28.36,21.51-33.1C146.59,187.15,150.62,186.84,154.51,186.11Z"/><path class="cls-2" d="M280.84,179.07c17.82-.64,26.56,14.61,28.25,26.08.28,1.94-1.58,5.13-3.36,6.14-1.26.7-4.61-.77-6-2.24-2.12-2.21-3.37-5.26-5-8a15,15,0,0,0-14.53-7.8c-6.21.35-10.07,4.42-12.72,9.72-.81,1.63-1.4,3.37-2.19,5-1.59,3.32-3.94,5.45-7.9,4.19-3.69-1.18-4.32-4.14-4-7.55A27.59,27.59,0,0,1,280.84,179.07Z"/><path class="cls-2" d="M150.79,126.57c4.4,1.26,9,2,13.15,3.92,3.63,1.67,6.07,5.13,4.34,9.45-1.66,4.14-5.47,3.71-9,3-11.81-2.39-22.08.15-30.34,9.3-.34.37-.7.71-1.06,1.06-2.8,2.75-5.71,5.54-10,3.17-3-1.69-3.33-6.47-.79-11.33,5.09-9.75,13.65-14.65,24.05-16.76,3.08-.62,6.26-.78,9.39-1.15Z"/><path class="cls-2" d="M273.48,118.15a33.44,33.44,0,0,1,24.08,9.32c1.93,1.79,4.08,3.77,5,6.1s1.41,5.78.28,7.66c-1.87,3.12-5.22,1.62-8,.24-4.94-2.45-9.88-4.9-14.85-7.28-6.46-3.09-12.64-1.38-18.68,1.33-3.6,1.62-7.16,3.46-10.14-.85-2.23-3.22-1.21-7.58,2.31-11C258.71,118.46,265.29,118,273.48,118.15Z"/></g></g></svg>