<svg xmlns="http://www.w3.org/2000/svg" viewBox="0 0 456.6 444.42"><defs><style>.cls-1{fill:none;}.cls-2{fill:#801e34;}.cls-3{fill:#c4bdb8;opacity:0.23;}.cls-4{fill:#fcb223;}.cls-5{fill:#f06f22;}</style></defs><g id="Layer_2" data-name="Layer 2"><g id="Layer_1-2" data-name="Layer 1"><rect class="cls-1" width="456.6" height="444.42"/><path class="cls-2" d="M38.58,365.4c-4.91-14.53-2.13-27.9,7.2-39.59,4.6-5.75,10.71-10.3,16-15.25-4.26-3.51-9.5-6.52-12.92-10.94A107,107,0,0,1,37.2,279.77c-1.36-2.89-2.42-4.8-5.35-6.63-15.25-9.53-26.33-32.67-8.07-49,4.44-4,6.07-8.94,6.33-15,1-21.93,3.73-43.49,15.33-62.91,1-1.62.86-4.34.35-6.31-4.9-19.11-6-38.3-.71-57.43C48.58,70,58.55,61.78,69.29,62.86a66.34,66.34,0,0,1,19,5,142,142,0,0,1,38.61,24.06,173.51,173.51,0,0,1,69.79-12.3c13.09.35,26.08,1.52,38.66,5.69a7,7,0,0,0,5.51-1.16c14.8-11.31,30.71-20.65,48.2-27.08,15.12-5.55,26.59-1.89,33.13,10.74a57.92,57.92,0,0,1,5.44,15.7c3.46,18.38,1.37,36.63-2.18,54.81a12.75,12.75,0,0,0,.9,6.87c1.36,3.33,4.1,6.21,5,9.6,1.82,7.19,6.93,9.58,13.2,11.95,24.33,9.21,45.32,23.29,60.68,44.7,11.24,15.67,17.35,33.57,21.44,52.21,3.16,14.37,4.38,28.83,1.24,43.42a4.55,4.55,0,0,0,1.1,3.43c15.38,16.81,16.43,36.14,8.2,55.93-10.35,24.92-30.18,38.53-56.57,43-13.49,2.29-26.71.67-39.86-2.36-17.83-6.21-33.64-14.89-40.54-32.92-4.61-.27-8.48-.62-12.35-.63-1.07,0-2.2.94-3.2,1.61-6.94,4.71-13.37,10.49-20.87,14-15.62,7.29-32.49,10.73-49.5,13.36-16.45,2.54-33,3.19-49.38.54-14.33-2.31-28.36-6.21-34.75-21.57A116.31,116.31,0,0,1,73.7,387.3C59,385.05,45.89,379.74,38.58,365.4ZM399.3,356c-10,6.48-20,13-32.77,12.49-1,0-2,1.22-3.48,2.22,15.75,4.67,30.46-1.29,36.79-14.19l.6-.65ZM141.71,342.16c6.39-3.48,12.15-7.12,18.31-9.86,16.44-7.32,34.07-8,51.69-9a165.8,165.8,0,0,0,27.72-3.81c13.77-3.19,24.39-11.69,33.39-22.38,4.18-5,4.94-4.59,10.22-1.06a11.74,11.74,0,0,0,8.62,1.68,34.68,34.68,0,0,0,11.28-6c7.21-5.5,11.75-13.14,14.61-21.59a16.73,16.73,0,0,1,9.14-10.42,50.18,50.18,0,0,0,10.37-6.81c7.08-6,7.65-11.11,2.18-18.55-4.21-5.74-7.16-11.83-7.93-19-1-9.34-2.19-18.66-3.54-28a102.36,102.36,0,0,0-14.86-39.69,12.49,12.49,0,0,1-1.75-7.64c1.57-12.26,4.22-24.42,5.26-36.71.88-10.42-.95-20.73-6.49-30-3.44-5.77-5.34-7.22-11.6-5A140.25,140.25,0,0,0,277,78.2c-10.91,6.11-21.4,13-32.27,19.17a13.61,13.61,0,0,1-8.15,1.39c-9.6-1.45-19.05-4.17-28.68-5.05-27.16-2.47-53.79-.27-78.87,11.71-3.14,1.5-5.58,1-8.12-1.28a134.37,134.37,0,0,0-10.81-8.84C98.71,87.14,87,79.59,73.16,76.28c-7.75-1.86-13,.89-15.89,8.25A37,37,0,0,0,55,92.66a106.94,106.94,0,0,0,4.08,49.08c.65,2,.91,4.92-.08,6.52C47.6,166.79,43.11,187.1,42.87,208.59c-.1,9-2.65,16.61-9.38,23.23-8.87,8.72-7.27,21.94,3.48,28.33,6.33,3.77,9.82,8.4,12.1,15.29,5.74,17.3,18.26,26.41,36.43,28.08a8.76,8.76,0,0,1,5.91,3.67c4.38,7.29,10.8,11.68,18.6,14.21C122.69,325.51,134.8,330.37,141.71,342.16Zm33,49.38c1.94-6.88,3.23-12.87,5.4-18.52,1.15-3,4.32-5.22,7.77-3.5,3.67,1.84,2.44,5.26,1.39,8.33-1.13,3.28-2.39,6.54-3.19,9.9-.71,2.93.33,4.82,3.88,4.62,5.2-.3,10.56.31,15.61-.68,13.65-2.66,27.36-5.33,40.71-9.15,16.46-4.72,31.54-11.91,38.22-29.65.41-1.08,2.66-2.56,3.27-2.26a10.3,10.3,0,0,1,4.59,4c1,1.95.89,4.44,1.31,6.94a19.47,19.47,0,0,0,2.68,0,15.32,15.32,0,0,0,2.2-.69c1-13.93,7.39-24.19,19.41-30.75,2.47-1.34,3-2.89,3.06-5.49.3-18.88,6.88-35.05,21.54-47.33,10.11-8.48,21.87-13,35.23-12.89,3.7,0,6.65,1.41,6.94,5.57.28,3.93-2.06,6.11-5.68,7.07-.8.21-1.68.12-2.46.38-6.26,2-13,3.19-18.66,6.29-15.89,8.65-24.51,25.92-21.47,41.49,16.78,3,28.16,12.18,31.89,29.93,5.62-1.87,11.37-3.08,16.47-5.6,13.31-6.6,21.82-17.62,26.82-31.44,7.16-19.82,6-39.89.53-59.7-6.31-22.92-16.78-43.56-35.87-58.88a123.77,123.77,0,0,0-36.38-20.79c.94,7.39,2.39,14.35,2.56,21.34.25,10.86,2.92,20.6,9,29.73,7.56,11.33,6,22.67-4.12,31.78-4.15,3.74-9.22,6.46-13.71,9.86a14.23,14.23,0,0,0-4.38,4.87c-4.31,9.27-9.11,18.24-17.44,24.47s-17.06,11.73-28.38,8.5a5,5,0,0,0-3.73,1c-4.1,3-7.86,6.57-12.07,9.44-5.71,3.88-11.31,8.51-17.69,10.67a138.27,138.27,0,0,1-28.13,5.91c-9.51,1.12-19.21.55-28.8,1.17-12.73.81-24.91,3.87-35.84,10.79-7.69,4.87-13.5,11.3-15.82,20.34-2.08,8.13,2.7,15.68,9.41,16.39,2.23-6.56,4.14-13.05,6.69-19.28,1.11-2.7,3.59-5.45,7.08-3.95s2.6,5,1.84,7.87c-1.27,4.81-3,9.51-4.19,14.32-.93,3.63-.51,6.62,4.45,6.71A69.77,69.77,0,0,1,174.7,391.54Zm249.1-67.38c-2.37,4.37-4.38,8.66-6.92,12.6a20.16,20.16,0,0,0-3.76,11.64c-.34,25.92-32.35,44.46-55.42,32.6-3.39-1.74-4.83-4.1-4.19-8a88.77,88.77,0,0,0,1.15-12.81c.12-9.48-4.52-16.05-13.09-19.86a20.3,20.3,0,0,0-22.95,4.49c-11.93,12.13-11.2,28.95,5.43,40.38a72,72,0,0,0,53.85,12c23.61-3.92,41.29-15.68,49.17-39.42C431,346.09,430.92,334.8,423.8,324.16ZM91,375.12c8.5,1.33,25.73-1.14,31.61-4.11,11.42-5.77,13.72-19.24,3.93-27.32-5-4.1-11.32-6.77-17.41-9.21-8.08-3.23-15.89-6.59-22.41-12.62-2-1.88-2.38-6.55-6.84-5.11-3.07,1-6.08,2.2-9.06,3.45a38.29,38.29,0,0,0-3.39,2.06c-12.14,6.72-20,20.57-18.5,32.87.76,6,3.52,10.77,9.66,13.76a21.09,21.09,0,0,1,.35-2.53c1.62-5.64,2.86-11.44,5.16-16.79.68-1.6,4.31-1.95,6.6-2.88.59,2.17,1.92,4.44,1.63,6.49-.54,3.85-2.23,7.53-3.06,11.36-1.66,7.66.32,9.76,8.16,10,2.6.08,3.4,0,3.86-3a51,51,0,0,1,4.15-12.58c1.41-3.18,4.06-5.88,7.9-4.11s2.62,5.19,1.58,8.28C93.6,367,92.37,370.82,91,375.12Z"/><path class="cls-3" d="M38.58,365.4C45.89,379.74,59,385.05,73.7,387.3a116.31,116.31,0,0,0,56.49-5.83c6.39,15.36,20.42,19.26,34.75,21.57,16.38,2.65,32.93,2,49.38-.54,17-2.63,33.88-6.07,49.5-13.36,7.5-3.5,13.93-9.28,20.87-14,1-.67,2.13-1.61,3.2-1.61,3.87,0,7.74.36,12.35.63,6.9,18,22.71,26.71,40.54,32.92-5.52,1.41-11,3.5-16.56,4.12-18.08,2-36.2,4.13-54.36,5-25.2,1.25-50.45,2.13-75.67,1.84-21.68-.25-43.34-2.28-65-3.65a420.45,420.45,0,0,1-69.65-10.14C46,401.1,32.37,397.89,20.67,389.71c-8.18-5.72-8.22-13.18.08-18.69a67.54,67.54,0,0,1,11.8-6.3C34.2,364.06,36.55,365.12,38.58,365.4Z"/><path class="cls-2" d="M366.73,67c-6.58,0-12-.1-17.49,0-3.46.09-5.86-1.09-6.5-4.62s.68-6.32,3.92-7.8a13.49,13.49,0,0,1,5.29-1c8.32-.1,16.65.12,25-.12,4-.11,7.45,1.49,8.4,4.82a12.13,12.13,0,0,1-1.67,9.14c-4.88,6.9-10.54,13.23-15.9,19.79l-2.51,3.11c6.21,0,11.62-.09,17,0,5.07.1,7.53,2.38,7.48,6.6s-2.52,6.62-7.44,6.64c-9.82,0-19.66.31-29.45-.18-2.69-.14-6.33-2-7.56-4.25-1-1.86-.07-5.95,1.46-7.95C352.85,83.28,359.52,75.69,366.73,67Z"/><path class="cls-2" d="M381.39,130.78c-4.1-.43-7.31-1-10.53-1.07-3.69-.11-5.78-1.93-5.62-5.42.13-3.18,2.09-5.12,5.65-4.74,6.91.74,13.88,1.09,20.72,2.25,6.14,1,7.67,6.79,3.13,11.24-5.17,5.07-10.65,9.81-16.44,15.1,4.09.5,7.62,1.23,11.16,1.26,3.69,0,5.63,2.27,5,5.08-.44,2-3.48,5-5.25,4.89a188.64,188.64,0,0,1-24.16-2.63c-5.4-.94-6.65-5.76-2.65-9.47,5.48-5.07,11.3-9.78,17-14.64C379.83,132.24,380.25,131.83,381.39,130.78Z"/><path class="cls-4" d="M141.71,342.16c-6.91-11.79-19-16.65-31.7-20.76-7.8-2.53-14.22-6.92-18.6-14.21a8.76,8.76,0,0,0-5.91-3.67c-18.17-1.67-30.69-10.78-36.43-28.08-2.28-6.89-5.77-11.52-12.1-15.29-10.75-6.39-12.35-19.61-3.48-28.33,6.73-6.62,9.28-14.26,9.38-23.23.24-21.49,4.73-41.8,16.17-60.33,1-1.6.73-4.52.08-6.52A106.94,106.94,0,0,1,55,92.66a37,37,0,0,1,2.23-8.13c2.91-7.36,8.14-10.11,15.89-8.25,13.83,3.31,25.55,10.86,36.89,19a134.37,134.37,0,0,1,10.81,8.84c2.54,2.28,5,2.78,8.12,1.28,25.08-12,51.71-14.18,78.87-11.71,9.63.88,19.08,3.6,28.68,5.05a13.61,13.61,0,0,0,8.15-1.39C255.55,91.18,266,84.31,277,78.2a140.25,140.25,0,0,1,21.38-9.88c6.26-2.22,8.16-.77,11.6,5,5.54,9.29,7.37,19.6,6.49,30-1,12.29-3.69,24.45-5.26,36.71a12.49,12.49,0,0,0,1.75,7.64,102.36,102.36,0,0,1,14.86,39.69c1.35,9.29,2.55,18.61,3.54,28,.77,7.19,3.72,13.28,7.93,19,5.47,7.44,4.9,12.58-2.18,18.55a50.18,50.18,0,0,1-10.37,6.81,16.73,16.73,0,0,0-9.14,10.42c-2.86,8.45-7.4,16.09-14.61,21.59a34.68,34.68,0,0,1-11.28,6A11.74,11.74,0,0,1,283,296c-5.28-3.53-6-3.91-10.22,1.06-9,10.69-19.62,19.19-33.39,22.38a165.8,165.8,0,0,1-27.72,3.81c-17.62,1-35.25,1.7-51.69,9C153.86,335,148.1,338.68,141.71,342.16Zm13.1-58.55c12.66,10.1,28,12,40,4.79,6-3.62,11-8.46,10.91-16.08,0-2.13-2-5.52-3.73-6-2.34-.69-5.65.3-8,1.6-1.84,1-2.68,3.71-4.17,5.48-6.33,7.52-17.83,7.7-24,.44-3-3.5-2.39-5,1.33-7.68,4.55-3.25,9.25-6.63,12.8-10.87,5.31-6.35,4.11-15.13-2.36-18.64-12.17-6.6-25-8.6-38.29-3.25-12.36,5-11.28,14.71-6,22,3.62,5,8.55,9,13.21,13.75-2.39,7.82-13.12,10.41-19.27,3.72-2.11-2.3-3.49-5.26-5.47-7.7-2.22-2.73-5.62-4-8.4-2-2,1.49-4,4.76-4,7.2.08,5.9,3.42,10.88,8.16,14.09C131.7,294,140.82,293.64,154.81,283.61Zm40-70c.58,9.75,6.74,16.61,14.31,20.58,10.77,5.66,22.62,7.29,34.3.81,8.9-4.94,14.49-12.1,15.19-22.24.14-2.16-2.47-5.45-4.64-6.51-1.46-.71-4.82,1.11-6.55,2.66-2.42,2.18-3.92,5.35-6.16,7.78-6.79,7.35-16.22,8.71-24.15,2.69-3.48-2.65-5.9-6.95-8.18-10.87-2.07-3.58-4.51-6.13-8.64-4.63S194.75,209.25,194.85,213.62ZM76.92,211c-.56,14.68,13.59,27.06,29.62,26.09,14.39-.88,24.75-9.2,27.11-21.25,1-5.21-.93-9.48-5.1-10.42-4.73-1.07-7,1.68-8.75,5.72-4.39,10.32-17.27,12.93-24.7,4.9-2.61-2.82-4-6.75-6.38-9.82-1.48-1.89-4-4.53-5.7-4.26-2.15.35-4.08,3.11-5.69,5.15C76.65,208,77,209.69,76.92,211Z"/><path class="cls-4" d="M174.7,391.54a69.77,69.77,0,0,0-8-.94c-5-.09-5.38-3.08-4.45-6.71,1.23-4.81,2.92-9.51,4.19-14.32.76-2.86,1.75-6.33-1.84-7.87s-6,1.25-7.08,3.95c-2.55,6.23-4.46,12.72-6.69,19.28-6.71-.71-11.49-8.26-9.41-16.39,2.32-9,8.13-15.47,15.82-20.34,10.93-6.92,23.11-10,35.84-10.79,9.59-.62,19.29-.05,28.8-1.17A138.27,138.27,0,0,0,250,330.33c6.38-2.16,12-6.79,17.69-10.67,4.21-2.87,8-6.4,12.07-9.44a5,5,0,0,1,3.73-1c11.32,3.23,20.06-2.29,28.38-8.5s13.13-15.2,17.44-24.47a14.23,14.23,0,0,1,4.38-4.87c4.49-3.4,9.56-6.12,13.71-9.86,10.09-9.11,11.68-20.45,4.12-31.78-6.1-9.13-8.77-18.87-9-29.73-.17-7-1.62-14-2.56-21.34a123.77,123.77,0,0,1,36.38,20.79c19.09,15.32,29.56,36,35.87,58.88,5.45,19.81,6.63,39.88-.53,59.7-5,13.82-13.51,24.84-26.82,31.44-5.1,2.52-10.85,3.73-16.47,5.6-3.73-17.75-15.11-26.92-31.89-29.93-3-15.57,5.58-32.84,21.47-41.49,5.68-3.1,12.4-4.28,18.66-6.29.78-.26,1.66-.17,2.46-.38,3.62-1,6-3.14,5.68-7.07-.29-4.16-3.24-5.53-6.94-5.57-13.36-.15-25.12,4.41-35.23,12.89-14.66,12.28-21.24,28.45-21.54,47.33,0,2.6-.59,4.15-3.06,5.49-12,6.56-18.45,16.82-19.41,30.75a15.32,15.32,0,0,1-2.2.69,19.47,19.47,0,0,1-2.68,0c-.42-2.5-.32-5-1.31-6.94a10.3,10.3,0,0,0-4.59-4c-.61-.3-2.86,1.18-3.27,2.26-6.68,17.74-21.76,24.93-38.22,29.65-13.35,3.82-27.06,6.49-40.71,9.15-5.05,1-10.41.38-15.61.68-3.55.2-4.59-1.69-3.88-4.62.8-3.36,2.06-6.62,3.19-9.9,1.05-3.07,2.28-6.49-1.39-8.33-3.45-1.72-6.62.49-7.77,3.5C177.93,378.67,176.64,384.66,174.7,391.54Z"/><path class="cls-4" d="M423.8,324.16c7.12,10.64,7.15,21.93,3.27,33.62-7.88,23.74-25.56,35.5-49.17,39.42a72,72,0,0,1-53.85-12c-16.63-11.43-17.36-28.25-5.43-40.38a20.3,20.3,0,0,1,22.95-4.49c8.57,3.81,13.21,10.38,13.09,19.86A88.77,88.77,0,0,1,353.51,373c-.64,3.92.8,6.28,4.19,8,23.07,11.86,55.08-6.68,55.42-32.6a20.16,20.16,0,0,1,3.76-11.64C419.42,332.82,421.43,328.53,423.8,324.16Z"/><path class="cls-4" d="M91,375.12c1.4-4.3,2.63-8.16,3.92-12,1-3.09,2.19-6.54-1.58-8.28s-6.49.93-7.9,4.11a51,51,0,0,0-4.15,12.58c-.46,3-1.26,3.1-3.86,3-7.84-.24-9.82-2.34-8.16-10,.83-3.83,2.52-7.51,3.06-11.36.29-2.05-1-4.32-1.63-6.49-2.29.93-5.92,1.28-6.6,2.88-2.3,5.35-3.54,11.15-5.16,16.79a21.09,21.09,0,0,0-.35,2.53c-6.14-3-8.9-7.75-9.66-13.76-1.53-12.3,6.36-26.15,18.5-32.87a38.29,38.29,0,0,1,3.39-2.06c3-1.25,6-2.45,9.06-3.45,4.46-1.44,4.8,3.23,6.84,5.11,6.52,6,14.33,9.39,22.41,12.62,6.09,2.44,12.44,5.11,17.41,9.21,9.79,8.08,7.49,21.55-3.93,27.32C116.7,374,99.47,376.45,91,375.12Z"/><path class="cls-2" d="M154.81,283.61c-14,10-23.11,10.38-37.14.86-4.74-3.21-8.08-8.19-8.16-14.09,0-2.44,1.91-5.71,4-7.2,2.78-2,6.18-.77,8.4,2,2,2.44,3.36,5.4,5.47,7.7,6.15,6.69,16.88,4.1,19.27-3.72-4.66-4.76-9.59-8.77-13.21-13.75-5.32-7.3-6.4-17.05,6-22,13.33-5.35,26.12-3.35,38.29,3.25,6.47,3.51,7.67,12.29,2.36,18.64-3.55,4.24-8.25,7.62-12.8,10.87-3.72,2.66-4.3,4.18-1.33,7.68,6.15,7.26,17.65,7.08,24-.44,1.49-1.77,2.33-4.46,4.17-5.48,2.32-1.3,5.63-2.29,8-1.6,1.75.52,3.71,3.91,3.73,6,.06,7.62-4.88,12.46-10.91,16.08C182.8,295.61,167.47,293.71,154.81,283.61Z"/><path class="cls-2" d="M194.85,213.62c-.1-4.37,1.24-8.19,5.48-9.73s6.57,1.05,8.64,4.63c2.28,3.92,4.7,8.22,8.18,10.87,7.93,6,17.36,4.66,24.15-2.69,2.24-2.43,3.74-5.6,6.16-7.78,1.73-1.55,5.09-3.37,6.55-2.66,2.17,1.06,4.78,4.35,4.64,6.51-.7,10.14-6.29,17.3-15.19,22.24-11.68,6.48-23.53,4.85-34.3-.81C201.59,230.23,195.43,223.37,194.85,213.62Z"/><path class="cls-2" d="M76.92,211c.1-1.32-.27-3,.41-3.89,1.61-2,3.54-4.8,5.69-5.15,1.65-.27,4.22,2.37,5.7,4.26,2.39,3.07,3.77,7,6.38,9.82,7.43,8,20.31,5.42,24.7-4.9,1.72-4,4-6.79,8.75-5.72,4.17.94,6.13,5.21,5.1,10.42-2.36,12.05-12.72,20.37-27.11,21.25C90.51,238.07,76.36,225.69,76.92,211Z"/><path class="cls-2" d="M244.7,364.51c2.39,2.55,6.13,5.19,9.32,5.28,10.85.33,17,7.52,23.32,14.77,9.21,10.65,20.36,14.18,33.82,10.64a5.79,5.79,0,0,1,4.49.69c11,8.95,24,12.32,37.42,14.6,20.58,3.49,39.22-2.3,56.74-11.43-1-4.86-1.95-8.19-2.62-13.13-24.17,14.66-65.81,14.9-81.24-1.34l4.44-9.17A75.47,75.47,0,0,0,371,382.89c12.5-1.1,23.63-6.08,34.29-12.77-.29-2.06-.6-4.11-1-6.16-.22-1.24-.47-2.47-.73-3.71-.07-.31-.66-2.62-.61-2.53-.21-.63-.83-2.3-1.44-3.87-12.14,9.85-24.82,14.33-39.63,14.29a68.16,68.16,0,0,1-19.33-3.34c-6.22-1.9-11.5-4.59-14.54-12.25-5.86-14.75-19.68-19.76-33.69-23-15.25-3.5-29.82-1.7-43.34,7.2C241.06,343.33,237.49,356.83,244.7,364.51Zm9.22-9.64c2.9-2.9,4.47-4.86,6.4-6.33,12.46-9.53,41.31-7,52.12,4.57,6.48,6.9,6.37,19-.23,25.88-4.91,5.1-15,4.44-21.73-1.48-1.17-1-2.13-2.29-3.2-3.44-6.8-7.26-13.09-15.25-23.59-17.24C261.06,356.33,258.45,355.78,253.92,354.87Z"/><path class="cls-5" d="M253.92,354.87c4.53.91,7.14,1.46,9.77,2,10.5,2,16.79,10,23.59,17.24,1.07,1.15,2,2.41,3.2,3.44,6.7,5.92,16.82,6.58,21.73,1.48,6.6-6.86,6.71-19,.23-25.88-10.81-11.52-39.66-14.1-52.12-4.57C258.39,350,256.82,352,253.92,354.87Z"/><path class="cls-4" d="M330.39,375.42A75.47,75.47,0,0,0,371,382.89c12.5-1.1,25.3-5.56,34.47-14,.43,3.05.63,7.3,1,10.36q.39,3.18.82,6.35c-24.17,14.66-65.94,15.19-81.37-1.05Z"/></g></g></svg>