<svg xmlns="http://www.w3.org/2000/svg" viewBox="0 0 456.6 444.42"><defs><style>.cls-1{fill:#febe2a;}.cls-2{fill:#fbaf40;}.cls-3{fill:#fffefe;}.cls-4{fill:#8d183b;}.cls-5{fill:#02534e;}.cls-6{fill:#ea7624;}.cls-7{fill:#c4bdb8;opacity:0.23;}.cls-8{fill:#bdb8b1;}.cls-9{fill:#f58e24;}.cls-10{fill:#f39021;}.cls-11{fill:none;}</style></defs><g id="Layer_2" data-name="Layer 2"><g id="Layer_1-2" data-name="Layer 1"><path class="cls-1" d="M360.66,72.51a112.73,112.73,0,0,1-5.73,31.86,4.57,4.57,0,0,0,.26,3.62,179.55,179.55,0,0,1,16.08,52.13,126.4,126.4,0,0,1,1.46,25.32c-.38,8.71,3.28,15,10.43,19.62,1.11.72,2.21,1.46,3.25,2.27,3.69,2.87,4.71,6.55,3,10.92-2.06,5.28-6.14,8.86-10.39,12.28a28.67,28.67,0,0,1-3.58,2.5A4.48,4.48,0,0,0,373.2,237a66.55,66.55,0,0,1-2.74,15.59,21.57,21.57,0,0,1-5,8.7,9.87,9.87,0,0,1-12.15,2,43.31,43.31,0,0,1-4.89-3c-3.2-2.1-5.25-1.75-7.81,1.09a103.89,103.89,0,0,1-38.4,27.15,13.23,13.23,0,0,1-13.32-1.42,46.88,46.88,0,0,0-4.19-2.65c-2.52-1.33-4.3-1.11-6.16.74-9.63,9.53-21.38,15-34.47,17.7a90.28,90.28,0,0,1-40.35-.74c-11.44-2.84-21.69-8-30.29-16.2-3-2.87-5-3-8.46-.62a31.57,31.57,0,0,1-6.52,3.76,9.59,9.59,0,0,1-6.76.19,93.47,93.47,0,0,1-28.16-15.61,101.24,101.24,0,0,1-13-12.48c-2.39-2.7-4.5-2.95-7.47-.9-.93.64-1.85,1.28-2.76,1.94C93.58,267,87.08,264,83.58,258.13c-3.16-5.31-4-11.28-4.79-17.28-.94-7.57.63-5.49-5.45-10-4.61-3.39-8.78-7.28-11.16-12.67-1.82-4.13-.84-7.78,2.74-10.59,2.34-1.83,4.93-3.32,7.16-5.33a18.66,18.66,0,0,0,6.61-14.91A159.41,159.41,0,0,1,82,149.5c3.07-14.22,7.28-28,14-41a6.53,6.53,0,0,0,.32-5.31c-3.87-12.61-6.29-25.44-5.61-38.7.26-5.1.91-10.17,3.22-14.83,3.21-6.47,8-8.41,14.78-6.06a74.25,74.25,0,0,1,17,9,235.22,235.22,0,0,1,33.76,27.6,5,5,0,0,0,4.86,1.43c16.95-3.2,34.09-4.42,51.31-4.85,9.8-.25,19.59-.22,29.37.26a317.44,317.44,0,0,1,43.14,4.84A4.92,4.92,0,0,0,293,80.35c13-12.57,26.87-24.16,42.68-33.16A34.56,34.56,0,0,1,346.1,43a9.27,9.27,0,0,1,10.33,4.54c2.86,4.6,3.6,9.79,4,15C360.72,66,361.15,69.54,360.66,72.51ZM235.75,222.35a19,19,0,0,0,1.78-.81,53.39,53.39,0,0,0,12-10.54c2.31-2.57,4.22-5.52,4.43-9.11.31-5.37-2.86-9-6.86-11.79a33.19,33.19,0,0,0-40.33,1.53c-5.47,4.55-6.94,10.54-2.36,16.77a51.45,51.45,0,0,0,12.73,12.08c1.64,1.11,2.71,2.19,2.39,4.23a8.16,8.16,0,0,1-1.89,4.09c-3.61,4.16-8.27,4.95-13.37,4s-8.91-3.91-12-8.09c-2.61-3.53-6.76-4-9.8-1.65a7.58,7.58,0,0,0-1.21,10.5,33,33,0,0,0,5.09,5.54c11.57,10.26,28.33,11.73,40.3,1.07.91-.82,1.44-.73,2.29,0a26.73,26.73,0,0,0,10.27,5.85c11.55,3.46,21.66.49,30.59-7.2a20.62,20.62,0,0,0,5.43-6.52,7.56,7.56,0,0,0-2.95-10c-3.13-1.86-7-.89-9.48,2.34-.28.37-.53.76-.8,1.13a16.9,16.9,0,0,1-15.84,7.24C240.76,232.63,235.34,227.94,235.75,222.35ZM154,199.26a5,5,0,0,0,1.94-.33,35.79,35.79,0,0,1,17.66,0c2.63.7,5.07,1.9,7.62,2.82,2,1.74,4.12,3.28,5.7,5.36.62-.22.69-.72.92-1.11A50.59,50.59,0,0,0,195,182.11c.52-11-1.16-21.6-7.78-30.76C179,139.84,167.71,134.4,153.51,137c-11.39,2.08-19.46,9.24-24.37,19.45-7,14.57-6.95,29.65-1.56,44.75,1.68,4.7,4.68,8.62,8,12.42a42,42,0,0,1,4.05-5.05A40.09,40.09,0,0,1,154,199.26Zm150.59.79a4.33,4.33,0,0,0,.76.61,34,34,0,0,1,13.85,11.85c.58.87.91.58,1.46,0a32.57,32.57,0,0,0,6-10c3.64-9,4.27-18.38,3.55-27.89a47.06,47.06,0,0,0-7.07-22.27c-9.46-14.79-27.63-20.26-42.83-12.5-13.89,7.1-19.92,19.31-21.06,34.32a50.81,50.81,0,0,0,7.28,30.57c1.52,2.54,1.5,2.66,3.65.66s4.9-3.09,7.15-4.92a7.3,7.3,0,0,0,3.05-.72,35,35,0,0,1,17.9-1.32C300.46,198.84,302.42,199.89,304.61,200.05ZM166.77,108.64a67.58,67.58,0,0,0-17.16,2.07c-9.15,2.35-17.58,6.21-24.58,12.71a6.93,6.93,0,0,0-.65,10c2.49,2.83,6.31,3.11,9.62.53,11-8.6,23.46-11.07,37-8.52a11.09,11.09,0,0,0,4.14.09,7.71,7.71,0,0,0,6.42-5.75c.93-3.2-.12-5.88-2.48-8.06a10.64,10.64,0,0,0-5.7-2.59A40,40,0,0,0,166.77,108.64Zm118.66,1c-2.55.19-5.63,0-8.54,1.09s-5.1,3.2-5.52,6.62a7.58,7.58,0,0,0,3.12,7.46,9.71,9.71,0,0,0,7.75,1.58,49.21,49.21,0,0,1,25.21,1.78,43.59,43.59,0,0,1,12.14,7,6.67,6.67,0,0,0,9.46-.72,7.15,7.15,0,0,0-.38-9.59,19.1,19.1,0,0,0-2.49-2.26C314.28,113.49,300.6,110,285.43,109.59Z"/><path class="cls-1" d="M101.84,362.77c0-16.37,9.7-30.28,24.66-35.69.58-.21,1.25-.81,1.81-.31s0,1.12-.07,1.69c-3.1,17.88-3.23,35.66,1.92,53.24A66.61,66.61,0,0,0,137,397.28c.29.49.94,1,.65,1.56-.36.69-1.19.3-1.8.3-19-.26-29.8-12.36-33.2-28.35A35.21,35.21,0,0,1,101.84,362.77Z"/><path class="cls-2" d="M301.9,98.24c-10.9,8.24-25.67-1.22-36.59,2.62a16,16,0,0,1-10.63-.1,83,83,0,0,0-58.05.63,14.07,14.07,0,0,1-9.82.26c-11-4-25.86,6-37-2.15-41.21-30.09-51.06,16.91-50.77,51,.2,25,16.67,58.19,39.16,71.07a30.17,30.17,0,0,1,14.57,19.12c9.28,39,33.31,57.22,74.74,57,41.43-.43,65.16-19,73.79-58.19a30.16,30.16,0,0,1,14.26-19.36c22.27-13.25,38.18-46.67,38-71.71C353.22,114.3,342.6,67.47,301.9,98.24Z"/><path class="cls-3" d="M277.37,200.5c-2.25,1.83-5,2.92-7.15,4.92s-2.13,1.88-3.65-.66a50.81,50.81,0,0,1-7.28-30.57c1.14-15,7.17-27.22,21.06-34.32,15.2-7.76,33.37-2.29,42.83,12.5a47.06,47.06,0,0,1,7.07,22.27c.72,9.51.09,18.91-3.55,27.89a32.57,32.57,0,0,1-6,10c-.55.59-.88.88-1.46,0a34,34,0,0,0-13.85-11.85,4.33,4.33,0,0,1-.76-.61,32.27,32.27,0,0,0,7.71-15.86c1.67-9.76.51-19-5.69-27.12-5.73-7.48-16.17-9.44-23.63-4.69-1,.65-1.34,1.06-.26,2a10.57,10.57,0,0,1,2.38,3.15,12.06,12.06,0,0,1-1.69,14c-3.31,3.47-7.32,4-12.52,1.43-1.55-.76-1.32.28-1.37,1.09C268.86,183.8,271,192.79,277.37,200.5Z"/><path class="cls-3" d="M154,199.26a40.09,40.09,0,0,0-14.37,9.31,42,42,0,0,0-4.05,5.05c-3.34-3.8-6.34-7.72-8-12.42-5.39-15.1-5.46-30.18,1.56-44.75,4.91-10.21,13-17.37,24.37-19.45,14.2-2.6,25.44,2.84,33.75,14.35,6.62,9.16,8.3,19.76,7.78,30.76A50.59,50.59,0,0,1,187.86,206c-.23.39-.3.89-.92,1.11-1.58-2.08-3.73-3.62-5.7-5.36,8.34-8.89,10.77-19.51,8.77-31.23-1.28-7.49-4.64-14-11.39-18.05a17,17,0,0,0-18.25-.22c-1.17.68-1.19,1.14-.22,2.13a12.14,12.14,0,0,1,3.57,10.69c-1,7.39-8.1,11.46-14.49,8.37-2.16-1.05-2.18-1.05-2.33,1.43A35.73,35.73,0,0,0,154,199.26Z"/><path class="cls-4" d="M235.75,222.35c-.41,5.59,5,10.28,10.43,10.72A16.9,16.9,0,0,0,262,225.83c.27-.37.52-.76.8-1.13,2.44-3.23,6.35-4.2,9.48-2.34a7.56,7.56,0,0,1,2.95,10,20.62,20.62,0,0,1-5.43,6.52c-8.93,7.69-19,10.66-30.59,7.2A26.73,26.73,0,0,1,229,240.24c-.85-.77-1.38-.86-2.29,0-12,10.66-28.73,9.19-40.3-1.07a33,33,0,0,1-5.09-5.54,7.58,7.58,0,0,1,1.21-10.5c3-2.36,7.19-1.88,9.8,1.65,3.11,4.18,6.85,7.16,12,8.09s9.76.13,13.37-4a8.16,8.16,0,0,0,1.89-4.09c.1-.23.3-.49.27-.71-.22-1.84.7-2.16,2.32-2.1,3.1.12,6.2,0,9.3.06C232.89,222,234.37,221.67,235.75,222.35Z"/><path class="cls-5" d="M154,199.26a35.73,35.73,0,0,1-7.12-24.39c.15-2.48.17-2.48,2.33-1.43,6.39,3.09,13.45-1,14.49-8.37a12.14,12.14,0,0,0-3.57-10.69c-1-1-1-1.45.22-2.13a17,17,0,0,1,18.25.22c6.75,4.07,10.11,10.56,11.39,18.05,2,11.72-.43,22.34-8.77,31.23-2.55-.92-5-2.12-7.62-2.82a35.79,35.79,0,0,0-17.66,0A5,5,0,0,1,154,199.26Z"/><path class="cls-5" d="M277.37,200.5c-6.41-7.71-8.51-16.7-7.83-26.5,0-.81-.18-1.85,1.37-1.09,5.2,2.55,9.21,2,12.52-1.43a12.06,12.06,0,0,0,1.69-14,10.57,10.57,0,0,0-2.38-3.15c-1.08-.89-.77-1.3.26-2,7.46-4.75,17.9-2.79,23.63,4.69,6.2,8.1,7.36,17.36,5.69,27.12a32.27,32.27,0,0,1-7.71,15.86c-2.19-.16-4.15-1.21-6.29-1.59a35,35,0,0,0-17.9,1.32A7.3,7.3,0,0,1,277.37,200.5Z"/><path class="cls-4" d="M235.75,222.35c-1.38-.68-2.86-.36-4.29-.39-3.1-.05-6.2.06-9.3-.06-1.62-.06-2.54.26-2.32,2.1,0,.22-.17.48-.27.71.32-2-.75-3.12-2.39-4.23a51.45,51.45,0,0,1-12.73-12.08c-4.58-6.23-3.11-12.22,2.36-16.77a33.19,33.19,0,0,1,40.33-1.53c4,2.81,7.17,6.42,6.86,11.79-.21,3.59-2.12,6.54-4.43,9.11a53.39,53.39,0,0,1-12,10.54A19,19,0,0,1,235.75,222.35Z"/><path class="cls-4" d="M166.77,108.64a40,40,0,0,1,6.65.44,10.64,10.64,0,0,1,5.7,2.59c2.36,2.18,3.41,4.86,2.48,8.06a7.71,7.71,0,0,1-6.42,5.75,11.09,11.09,0,0,1-4.14-.09c-13.58-2.55-26-.08-37,8.52-3.31,2.58-7.13,2.3-9.62-.53a6.93,6.93,0,0,1,.65-10c7-6.5,15.43-10.36,24.58-12.71A67.58,67.58,0,0,1,166.77,108.64Z"/><path class="cls-4" d="M196.51,400.79a12.21,12.21,0,0,0-1.21-2.48,4,4,0,0,0-2.2-1.69,5.26,5.26,0,0,0-4.61.66,3.76,3.76,0,0,0-2.08,3.63,3.29,3.29,0,0,0,.65,1.58c3.33,4.74,3.85,10,.95,16-.88,1.8-.17,3.21,1.68,3.61a4.93,4.93,0,0,0,5.15-2.23,21.63,21.63,0,0,0,3.09-12A21.18,21.18,0,0,0,196.51,400.79Z"/><path class="cls-4" d="M181.85,399.41a12.48,12.48,0,0,0-1.2-2.49,4,4,0,0,0-2.2-1.68,5.22,5.22,0,0,0-4.61.65c-1.57,1-2.24,2.23-2.09,3.63a3.41,3.41,0,0,0,.66,1.58c3.33,4.74,3.85,10,.94,16-.87,1.8-.17,3.22,1.69,3.61a4.91,4.91,0,0,0,5.14-2.23,21.53,21.53,0,0,0,3.09-12A20.64,20.64,0,0,0,181.85,399.41Z"/><path class="cls-4" d="M285.43,109.59c15.17.37,28.85,3.9,40.75,12.94a19.1,19.1,0,0,1,2.49,2.26,7.15,7.15,0,0,1,.38,9.59,6.67,6.67,0,0,1-9.46.72,43.59,43.59,0,0,0-12.14-7,49.21,49.21,0,0,0-25.21-1.78,9.71,9.71,0,0,1-7.75-1.58,7.58,7.58,0,0,1-3.12-7.46c.42-3.42,2.46-5.47,5.52-6.62S282.88,109.78,285.43,109.59Z"/><path class="cls-6" d="M391.4,282.75c-6.89,1.53-11,6-13.4,12.46a16.36,16.36,0,0,1-5.48,7.87c-3.47,2.57-6.87,1.57-8.58-2.51a11.4,11.4,0,0,1,.48-9.74c7.86-16.11,26.67-9.45,27-8.05Z"/><path class="cls-1" d="M299.3,313.48l.63-.17c3.29-.8,5.06.54,7.11,3.42,9.06,12.71,28.35,13.67,38.76,2.36a39.81,39.81,0,0,0,6.7-10.18,20.45,20.45,0,0,1,7.11-8.8c.56,1.47,1,2.87,1.64,4.18a1.44,1.44,0,0,1-.46,1.84c-2.29,2.37-3.64,5.31-5.07,8.23-5.63,11.51-14.4,18.5-27.72,18.57-12.38.07-24.47-7.91-28.48-18.65C299.44,314.06,299.4,313.84,299.3,313.48Z"/><path class="cls-4" d="M398.55,282.74a10.83,10.83,0,0,0-4.4-4.76,23,23,0,0,0-10.71-3c-11.67-.71-23.46,5.77-25.51,18.63a3.63,3.63,0,0,1-1.84,2.5,22.82,22.82,0,0,0-7.8,9c-.84,1.74-1.73,3.46-2.72,5.11-4.21,7-10.07,11.33-18.6,11.42-4.68,0-10.38-2.39-14.06-6-.32,0-.63,0-1-.07a10.34,10.34,0,0,1-1.61-.36l-.6-.15a25.39,25.39,0,0,1-2.95-.84A92.26,92.26,0,0,0,300,324c1.42,1.84,2.79,3.72,4.27,5.51a37.62,37.62,0,0,0,23.25,9.28c1.92-.15,3.87-.19,5.77-.47,13.11-2,21.86-9.61,27.4-21.32a36,36,0,0,1,3.59-6.45c.54-.71,1-1.24,2.11-.91,4.75,1.48,8.44-.54,11.81-3.53,2.67-2.38,4.07-5.56,5.34-8.82,2-5.22,5.62-8.52,11.29-9.41C397.59,287.43,398.61,285.91,398.55,282.74ZM327.92,333a31.91,31.91,0,0,1-22-9c1.19-1.81,2.27-3.35,3.2-4.61,9.69,10.15,26.93,10.2,36.57-.27a39.38,39.38,0,0,0,6.7-10.18,20.49,20.49,0,0,1,7.11-8.79c.57,1.46,1,2.86,1.65,4.17a1.43,1.43,0,0,1-.47,1.84c-2.29,2.37-3.63,5.31-5.06,8.23C350,326,341.24,333,327.92,333Zm50-37.7a16.28,16.28,0,0,1-5.48,7.86c-3.47,2.57-6.87,1.58-8.59-2.5a11.77,11.77,0,0,1,.49-9.74c4.84-10.72,14.45-10.61,14.76-10.63a29.22,29.22,0,0,1,4.64.07,2.82,2.82,0,0,1,1.26,5.16A19.42,19.42,0,0,0,377.93,295.34Z"/><ellipse class="cls-7" cx="224.74" cy="411.3" rx="158.42" ry="29.66"/><path class="cls-4" d="M350.55,391.17c-2.08,2.11-3.76,4.56-5.94,6.6a42,42,0,0,1-27.92,11.68c-3.37.13-6.75,0-10.13,0a3.38,3.38,0,0,0-2.4.64c-11.24,9.15-24.28,13.17-38.62,13.33-14.06.16-26.92-3.59-38.25-12.08a1.75,1.75,0,0,0-2.55,0c-14.82,11.41-31.61,14.05-49.61,10.95a55.68,55.68,0,0,1-26.78-12.16,3.57,3.57,0,0,0-2.59-.66c-6.15,0-12.32.41-18.41-.77a42.72,42.72,0,0,1-26.83-17c-.27-.37-.07-1-.63-1.15-1.59-3.18-3.8-6.06-4.87-9.5a57,57,0,0,1-2.11-9.06c-.32-2.26-1.16-4.48-1.24-6.74a50.56,50.56,0,0,1,9.64-31.49,38.79,38.79,0,0,1,7.76-8.72c2.38-1.84,4.69-4,7.62-5,2.45-.86,4.54-2.47,7.13-3.08,1.89-.45,3.65-1.5,5.64-1.58s2.63-1.7,3.1-3.21c1.49-4.71,3.48-9.23,5.29-13.82.25-.63-.07-1.53.87-2.05.41-.23-.05-1-.79-1.36-5.15-2.83-10.25-5.74-15.16-9a93.83,93.83,0,0,1-16.31-13.49,1.89,1.89,0,0,0-2.73-.35,20.14,20.14,0,0,1-23.4-2.48c-5.56-5-8.26-11.4-10-18.51-.84-3.51-1.24-7.06-2-10.57-.28-1.33-1.68-2-2.68-2.74a40.08,40.08,0,0,1-11.66-13A27.13,27.13,0,0,1,51.16,216a16.88,16.88,0,0,1,1-8,22.14,22.14,0,0,1,3.47-5.65c1.65-2.24,4.2-3.39,6.28-5.1a45.65,45.65,0,0,0,5.17-4.63,5.59,5.59,0,0,0,1.32-3.75c0-.6,0-1.19,0-1.79a143.68,143.68,0,0,1,.66-19.69,126.48,126.48,0,0,1,2.26-17.68c1-4.44,2.16-8.85,3.28-13.24a108.28,108.28,0,0,1,5.17-15.82c1.89-4.46,3.46-9.07,5.82-13.3,1.35-2.42.43-4.79-.14-6.94-1.2-4.51-2.34-9.05-3.23-13.61-.45-2.29-.32-4.87-.72-7.19-.74-4.29-.28-8.54-.4-12.8A53.3,53.3,0,0,1,83,51.38c.65-2.43,1.09-5,2.33-7.09s2.42-4.32,4.54-6a31.13,31.13,0,0,1,6.29-4.21,4.46,4.46,0,0,1,2-.48c3.31,0,6.64.22,9.93,0,4.22-.35,7.5,1.89,11,3.47a51.42,51.42,0,0,1,6.36,3.64c3.26,2.07,6.39,4.36,9.64,6.44S141.25,52,144.62,54c2,1.21,3.67,3.08,5.53,4.59,3.74,3,7.58,6,11.07,9.28,1,1,2.47,1.5,3.4,2.66a1.22,1.22,0,0,0,1.3.28c3.58-.82,7.28-1.06,10.83-1.83s6.9-.9,10.35-1.34c5.33-.67,10.69-.67,16-1.15,14.05-1.27,28.09-.52,42.13-.37,3.92,0,8.09-.23,12,1a3.27,3.27,0,0,0,1,0,72.76,72.76,0,0,1,11,1.24,65.32,65.32,0,0,0,6.76.8,47.12,47.12,0,0,1,9.57,1.45,3.26,3.26,0,0,0,3.25-.71,120.92,120.92,0,0,1,10.58-8.69c2-1.35,3.5-3.31,5.49-4.6,2.3-1.5,4-3.69,6.6-4.91,1.25-.6,2.27-1.82,3.49-2.69,3.07-2.16,6.18-4.3,9.16-6.55,4.19-3.16,9.11-4.59,13.56-7,3.82-2.09,7.8-1.59,11.8-1.9,6.37-.48,10.59,2.72,14.19,7.4a30,30,0,0,1,5.45,12.66A42.82,42.82,0,0,1,370.07,64c-.05,1.24.68,2.29.54,3.45-.57,4.83-.28,9.71-.77,14.54a136.06,136.06,0,0,1-3.55,18.31c-.31,1.24-.56,2.49-.79,3.75-.44,2.53,1.27,4.44,2.09,6.56,1,2.44,1.89,4.91,3,7.29A88.42,88.42,0,0,1,375,130.1c1,3.44,1.67,7.05,2.78,10.46A106.42,106.42,0,0,1,380.57,152c.49,2.37.7,4.87,1.08,7.3,1.24,8.09.88,16.23,1.13,24.36a28.42,28.42,0,0,0,.61,6.16,10.6,10.6,0,0,0,4.88,6.07,33.66,33.66,0,0,1,9.18,8.31,18,18,0,0,1,2.87,7.28c.6,3.11-.14,5.91-.68,8.74a14.79,14.79,0,0,1-2,4.91,36,36,0,0,1-6.8,8.53c-2.24,2-4.36,4.09-6.75,5.9a3.85,3.85,0,0,0-1.35,2.91,69.43,69.43,0,0,1-2.14,11.37,35.37,35.37,0,0,1-5.11,10.94,26,26,0,0,1-10.14,8.48,16.21,16.21,0,0,1-9.06,1.41,23.3,23.3,0,0,1-8.73-2.62c-1.32-.74-2.3-1.14-3.15.79a5.54,5.54,0,0,1-2.85,2.57c-2,.89-3,3.11-4.92,4.12-3.55,1.88-6.26,4.87-9.56,7.12-3.76,2.55-8,4.31-11.56,7.07-.32.24-.89.12-1.31.28-.65.26-1.07.7-.68,1.47,2.53,5,3.72,10.56,6.06,15.66a6.76,6.76,0,0,1,.33,1.89c.3,2.08,1.84,2.42,3.39,2.78a41.56,41.56,0,0,1,16.31,7.56c2.7,2.09,5.44,4.1,7.43,6.86,1.83,2.54,3.68,5.06,5.31,7.77,2,3.33,3.2,7,4.71,10.45a16.29,16.29,0,0,1,1.06,4.73c.17,1.91.63,3.87.88,5.76.36,2.81,1.09,5.82-.46,8.61a1.38,1.38,0,0,0-.16.75c.29,4.06-1,7.89-2.13,11.64S353.07,386.82,351,390c-.2,0-.28.14-.2.34ZM360.66,72.51c.49-3,.06-6.48-.22-10-.41-5.21-1.15-10.4-4-15A9.27,9.27,0,0,0,346.1,43a34.56,34.56,0,0,0-10.46,4.19C319.83,56.19,306,67.78,293,80.35a4.92,4.92,0,0,1-4.78,1.49A317.44,317.44,0,0,0,245,77c-9.78-.48-19.57-.51-29.37-.26-17.22.43-34.36,1.65-51.31,4.85a5,5,0,0,1-4.86-1.43,235.22,235.22,0,0,0-33.76-27.6,74.25,74.25,0,0,0-17-9C102,41.24,97.18,43.18,94,49.65c-2.31,4.66-3,9.73-3.22,14.83-.68,13.26,1.74,26.09,5.61,38.7a6.53,6.53,0,0,1-.32,5.31c-6.74,13-11,26.79-14,41a159.41,159.41,0,0,0-3.33,37.87,18.66,18.66,0,0,1-6.61,14.91c-2.23,2-4.82,3.5-7.16,5.33-3.58,2.81-4.56,6.46-2.74,10.59,2.38,5.39,6.55,9.28,11.16,12.67,6.08,4.49,4.51,2.41,5.45,10,.75,6,1.63,12,4.79,17.28,3.5,5.89,10,8.82,16.68,4.06.91-.66,1.83-1.3,2.76-1.94,3-2.05,5.08-1.8,7.47.9a101.24,101.24,0,0,0,13,12.48,93.47,93.47,0,0,0,28.16,15.61,9.59,9.59,0,0,0,6.76-.19,31.57,31.57,0,0,0,6.52-3.76c3.44-2.36,5.47-2.25,8.46.62,8.6,8.23,18.85,13.36,30.29,16.2a90.28,90.28,0,0,0,40.35.74c13.09-2.69,24.84-8.17,34.47-17.7,1.86-1.85,3.64-2.07,6.16-.74a46.88,46.88,0,0,1,4.19,2.65,13.23,13.23,0,0,0,13.32,1.42,103.89,103.89,0,0,0,38.4-27.15c2.56-2.84,4.61-3.19,7.81-1.09a43.31,43.31,0,0,0,4.89,3,9.87,9.87,0,0,0,12.15-2,21.57,21.57,0,0,0,5-8.7A66.55,66.55,0,0,0,373.2,237a4.48,4.48,0,0,1,2.25-3.92,28.67,28.67,0,0,0,3.58-2.5c4.25-3.42,8.33-7,10.39-12.28,1.7-4.37.68-8.05-3-10.92-1-.81-2.14-1.55-3.25-2.27-7.15-4.59-10.81-10.91-10.43-19.62a126.4,126.4,0,0,0-1.46-25.32A179.55,179.55,0,0,0,355.19,108a4.57,4.57,0,0,1-.26-3.62A112.73,112.73,0,0,0,360.66,72.51ZM264.9,413.06c2.5-.05,5-.09,7.52-.32,20.5-1.9,36.63-17.07,41.25-38.09,3.12-14.23,2.83-28.52.69-42.82A93.41,93.41,0,0,0,305,301.66c-.79-1.51-1.5-2.71-3.6-1.72a7.94,7.94,0,0,1-3.33.28c-4.89,0-9.34-1.72-13.64-3.84a2.3,2.3,0,0,0-3,.33,78.31,78.31,0,0,1-26.64,14.6,96.41,96.41,0,0,1-46.09,3.05c-14.42-2.48-27.55-8-38.91-17.32-1.42-1.17-2.36-1.43-4.07-.49-4.63,2.56-9.56,4.44-15,3.45-1.87-.34-2.57.23-3.3,1.74a103.41,103.41,0,0,0-8.83,27.51c-2.63,15.06-3,30.15.25,45.16,2.75,12.71,9,23.31,20,30.58,13.08,8.61,27.45,9.74,42.35,6.6,8.42-1.77,15.55-6.18,21.9-11.92,2.16-1.95,3.57-2,5.55-.18C238.94,408.87,251,413.52,264.9,413.06ZM101.84,362.77a35.21,35.21,0,0,0,.83,8c3.4,16,14.18,28.09,33.2,28.35.61,0,1.44.39,1.8-.3.29-.54-.36-1.07-.65-1.56a66.61,66.61,0,0,1-6.86-15.58c-5.15-17.58-5-35.36-1.92-53.24.1-.57.54-1.28.07-1.69s-1.23.1-1.81.31C111.54,332.49,101.87,346.4,101.84,362.77Zm247.08,2.92c0-11-2.42-18.84-7.56-25.89a36.85,36.85,0,0,0-15.19-12.41c-.59-.26-1.27-.84-1.84-.48s0,1.2.05,1.81c.3,2.29.72,4.57,1,6.86a124.13,124.13,0,0,1-.06,32.05A80.18,80.18,0,0,1,314.78,398c-.43.72-1.09,1.53.51,1.43,5.19-.31,10.29-1.11,14.9-3.68C342.83,388.67,348.4,377.48,348.92,365.69Z"/><path class="cls-8" d="M350.78,390.38c-.08-.2,0-.3.2-.34Z"/><path class="cls-1" d="M264.9,413.06c-13.94.46-26-4.19-36.22-13.57-2-1.81-3.39-1.77-5.55.18-6.35,5.74-13.48,10.15-21.9,11.92-14.9,3.14-29.27,2-42.35-6.6-11.06-7.27-17.28-17.87-20-30.58-3.26-15-2.88-30.1-.25-45.16a103.41,103.41,0,0,1,8.83-27.51c.73-1.51,1.43-2.08,3.3-1.74,5.42,1,10.35-.89,15-3.45,1.71-.94,2.65-.68,4.07.49,11.36,9.34,24.49,14.84,38.91,17.32a96.41,96.41,0,0,0,46.09-3.05,78.31,78.31,0,0,0,26.64-14.6,2.3,2.3,0,0,1,3-.33c4.3,2.12,8.75,3.81,13.64,3.84a7.94,7.94,0,0,0,3.33-.28c2.1-1,2.81.21,3.6,1.72a93.41,93.41,0,0,1,9.41,30.17c2.14,14.3,2.43,28.59-.69,42.82-4.62,21-20.75,36.19-41.25,38.09C269.91,413,267.4,413,264.9,413.06Zm-38.85-25.71h.4c.05-.3.14-.61.16-.91a70.16,70.16,0,0,1,3-16c1.22-4.13,3.21-7.93,4.57-12,.78-2.3,0-3.36-2.48-3.38-3.74,0-7.47,0-11.21,0-2.21,0-2.76.67-2.62,2.9a5.34,5.34,0,0,0,.71,2,71.85,71.85,0,0,1,5.68,17.39C224.93,380.67,225.45,384,226.05,387.35Z"/><path class="cls-1" d="M348.92,365.69c-.52,11.79-6.09,23-18.73,30-4.61,2.57-9.71,3.37-14.9,3.68-1.6.1-.94-.71-.51-1.43a80.18,80.18,0,0,0,10.54-30.34,124.13,124.13,0,0,0,.06-32.05c-.28-2.29-.7-4.57-1-6.86-.08-.61-.76-1.36-.05-1.81s1.25.22,1.84.48a36.85,36.85,0,0,1,15.19,12.41C346.5,346.85,348.92,354.65,348.92,365.69Z"/><path class="cls-9" d="M226.05,387.35c-.6-3.33-1.12-6.68-1.8-10A71.85,71.85,0,0,0,218.57,360a5.34,5.34,0,0,1-.71-2c-.14-2.23.41-2.89,2.62-2.9,3.74,0,7.47,0,11.21,0,2.47,0,3.26,1.08,2.48,3.38-1.36,4.06-3.35,7.86-4.57,12a70.16,70.16,0,0,0-3,16c0,.3-.11.61-.16.91Z"/><path class="cls-10" d="M325.69,384.68c6-1.09,9.14-3.57,11.38-7.24a5.27,5.27,0,0,0,.58-3,1.9,1.9,0,0,0-1.37-1.77,2.25,2.25,0,0,0-2.63.78,8.27,8.27,0,0,1-5.18,2.72,8,8,0,0,1-4.68-.54,77.71,77.71,0,0,1-2.51,8.38A6.86,6.86,0,0,0,325.69,384.68Z"/><path class="cls-10" d="M333.83,345.27a4.9,4.9,0,0,0-3.77,2.13c-1.64,2.7-2.54,5.62-1.28,8.76a3.89,3.89,0,0,0,6.64,1c2.42-2.83,2.61-6.09,1.59-9.48A3.4,3.4,0,0,0,333.83,345.27Z"/><path class="cls-10" d="M338.43,363.3a3.33,3.33,0,0,0,2.54,2.93,3.75,3.75,0,0,0,4.25-1.67,6.61,6.61,0,0,0,.39-7,3.48,3.48,0,0,0-5.52-.45A7.08,7.08,0,0,0,338.43,363.3Z"/><path class="cls-10" d="M128.52,375a8.14,8.14,0,0,1-4.12.2,8.23,8.23,0,0,1-5.11-2.88,2.23,2.23,0,0,0-2.6-.85,1.9,1.9,0,0,0-1.42,1.73,5.31,5.31,0,0,0,.49,3c2.13,3.73,5.16,6.29,11.16,7.56a6.78,6.78,0,0,0,3.88-.28c-.22-.66-.43-1.33-.62-2Q129.24,378.28,128.52,375Z"/><path class="cls-10" d="M119.93,344.15a4.91,4.91,0,0,1,3.71,2.24c1.56,2.75,2.37,5.69,1,8.79A3.89,3.89,0,0,1,118,356c-2.34-2.9-2.44-6.16-1.31-9.52A3.4,3.4,0,0,1,119.93,344.15Z"/><path class="cls-10" d="M114.81,362a3.31,3.31,0,0,1-2.62,2.85,3.72,3.72,0,0,1-4.2-1.79,6.63,6.63,0,0,1-.19-7,3.48,3.48,0,0,1,5.53-.29A7.08,7.08,0,0,1,114.81,362Z"/><path class="cls-4" d="M254.66,400.59a12.11,12.11,0,0,1,1.3-2.43,4,4,0,0,1,2.26-1.6,5.25,5.25,0,0,1,4.58.82c1.53,1.07,2.15,2.32,1.94,3.71a3.27,3.27,0,0,1-.71,1.56c-3.51,4.6-4.24,9.87-1.56,16,.8,1.83,0,3.22-1.83,3.54a4.9,4.9,0,0,1-5-2.43A21.59,21.59,0,0,1,253,407.57,20.87,20.87,0,0,1,254.66,400.59Z"/><path class="cls-4" d="M269.36,399.77a12.36,12.36,0,0,1,1.29-2.44,4.07,4.07,0,0,1,2.27-1.6,5.29,5.29,0,0,1,4.58.83c1.52,1.07,2.15,2.32,1.94,3.71a3.37,3.37,0,0,1-.71,1.56c-3.52,4.6-4.24,9.87-1.56,16,.8,1.83,0,3.22-1.83,3.54a4.92,4.92,0,0,1-5.06-2.43,21.66,21.66,0,0,1-2.62-12.15A20.87,20.87,0,0,1,269.36,399.77Z"/><rect class="cls-11" width="456.6" height="444.42"/></g></g></svg>