<svg xmlns="http://www.w3.org/2000/svg" viewBox="0 0 674.42 971.36"><defs><style>.cls-1{fill:#c4bdb8;opacity:0.23;}.cls-2{fill:#8d183b;}.cls-3{fill:#f6b71e;}.cls-4{fill:#ea7624;}.cls-5{fill:#fff;}.cls-6{fill:#02534e;}.cls-7{fill:#febe2a;}.cls-8{fill:#f68e46;}.cls-9{fill:#fbaf40;}.cls-10{fill:#fefdf3;}</style></defs><g id="Layer_2" data-name="Layer 2"><g id="Layer_1-2" data-name="Layer 1"><ellipse class="cls-1" cx="327.16" cy="912.69" rx="291.28" ry="58.67"/><path class="cls-2" d="M185.65,380.4c0-7.2-.05-13.74,0-20.29.1-10.13,1.45-20.16,2.85-30.21,2.7-19.36,7-38.39,14-56.9a111,111,0,0,1,10.91-21.9,3.88,3.88,0,0,0,.39-3.93c-4.35-11.82-12-22-19.81-32.11-10.83-14.15-22.1-28-35.89-40.06a85.94,85.94,0,0,0-32.91-18.33c-10.2-3-20.22-1.61-29.48,2.68-22.3,10.32-36.42,26.33-40.15,48.72-1.48,8.9.75,17.78,3,26.5,1.81,7.08,3.79,14.12,5.66,21.18.38,1.45.86,2.63,2.84,2.89,15.07,2,24.9,10.43,32.57,21.25a60.44,60.44,0,0,1,11.14,29.84c1.84,19.38-2,37.5-13.3,54.11-11.54,17-28,28.78-49.82,34a25.06,25.06,0,0,1-11.21.59c-6.52-1.34-9.89-6.94-6.87-12.13a56.12,56.12,0,0,0,7.73-26.55c.35-10.06-3.46-19.21-10.13-27.32-6.07-7.38-12-14.8-14.85-23.76-3.39-10.62-3.19-21,2.4-31.06,1-1.75.43-3.14-.15-4.63A268.18,268.18,0,0,1,2.76,235.24q-11.43-49.62,24.47-88.76c14-15.23,30.33-27.85,51.11-35.16,26.07-9.16,51.67-6.56,76.67,3.5,20.18,8.12,36.67,20.71,52,34.65,3,2.73,6.16,5.3,9.49,8.15,1.27-5.73,2.55-11.46,3.8-17.21,4.41-20.11,10.8-39.75,17.82-59.24.74-2,.19-2.77-1.56-3.87-15.87-9.94-27.2-22.92-32.71-39.63a31.67,31.67,0,0,1-.91-18.4c3.27-12,12.42-17.22,26.12-18.8,12.9-1.48,25.39.86,38,2.35,14.65,1.73,29.27,3.65,43.88,5.62,18.22,2.47,36.63,3.83,54.69,7.2,10.24,1.91,16.27,9.44,16.89,18.84.95,14.27-3.3,27.66-7.83,41.06a339.55,339.55,0,0,0-12.53,46.63c-3.3,17.81-5.53,35.79-5.41,54,0,6.21,1.27,12.29,1.43,18.46.05,1.85,1,2.47,3.21,2.61,18.42,1.21,36.52,4.27,54.45,8.11,2.58.55,3.61.12,4.93-1.74Q450,162.37,479.4,121.28c12.55-17.44,26-34.35,42-49.43,12.44-11.7,20.22-12.89,35.94-4.75,31.23,16.17,62.12,32.87,91.85,51.19a147.47,147.47,0,0,1,15.2,10.25c10.38,8.34,12.18,18.59,7.74,29.74-5.48,13.77-17.4,22.25-31.76,28.31-10.51,4.43-21.74,5.48-33.13,4.62-4.79-.35-9.47-1.81-14.19-2.82-1.29-.28-2.28-.95-3.09.9-10.11,23-24.35,44.11-37.65,65.66C543.75,268.84,535,282.63,525,295.79c-2.7,3.58-3,6.89-2.6,10.89a130.61,130.61,0,0,1,.13,29.58c-.67,6-.79,12-1.73,18-2.29,14.61-5.91,28.94-12,42.71-2.33,5.22-4.66,10.43-7.05,15.63a9.22,9.22,0,0,0-.78,4.13c.22,16.69-2.77,33-7.28,49.17a3.74,3.74,0,0,0,.34,3.63c8.33,11.61,12.32,24.6,15,38,1.59,7.8,3.17,15.6,4.49,23.43,1.56,9.22,7.65,16.08,14.39,22.61a189.64,189.64,0,0,0,16.29,14.21c12.66,9.72,15.06,15.62,6.42,30.76-6.65,11.66-18,19.34-31,25.07-2.15,1-2.61,1.45-1.83,3.44,3.41,8.6,5.47,17.49,5.16,26.63-.3,8.4-1.42,16.77-5.65,24.49a9,9,0,0,0-.8,6.3c2.47,13.37,4.82,26.75,6.59,40.21,1.4,10.71,2.93,21.41,3.72,32.17.49,6.78,1.06,13.56,1.61,20.32.74,9,.73,18,1.41,26.94.91,12,.2,23.92-.13,35.88-.07,2.56-2.67,5.8.27,7.53,2.16,1.27,5.71.58,8.61,1,16.38,2.16,32,6,43.81,17.24,10.49,10,13.8,21.8,8.89,34.87-3.65,9.7-12.9,13.54-23.25,15.42-13.12,2.39-26.52,2.1-39.82,2.68-15.2.65-30.41,1.47-45.63.94-9.76-.34-19.58.06-29.24-2.11-23.18-5.19-33.08-15.78-33.86-36.83-.31-8.53.95-17,1.53-25.47A150.23,150.23,0,0,0,421,833c-1.06-13.27-2.45-26.51-3.25-39.79-.77-12.61-7.81-49.44-12.29-61.57-7.13,5.23-14.23,10.34-22.24,14.34A170.09,170.09,0,0,1,357.28,756c-5.24,1.61-9.92.64-13.67-3-1.61-1.57-2.51-1.74-4.6-.31a171.76,171.76,0,0,1-48.27,22.71,20.52,20.52,0,0,1-13.2-.59,198.67,198.67,0,0,1-28.13-13,135.65,135.65,0,0,1-24.29-16.26A2.83,2.83,0,0,0,220.4,747a5.72,5.72,0,0,0,0,1.31c-.18,24.89-1.37,49.78-.53,74.67.33,10,1.11,20,1.95,30,.14,1.72,1.39,1.69,2.64,2.1,7.41,2.42,14.83,4.8,21.15,9.25,11.74,8.27,15.28,25.49,7.27,36.72-5.58,7.82-14.37,10.43-24.18,11-9,.49-17.4-2.18-25.88-4.19-5-1.19-9.28-.92-13.87,1.56-12.34,6.66-25.95,9.3-40.35,9.26-15.59,0-31.16-.66-46.71-1.44-8.37-.42-16.79-1.5-24.57-4.77-13.39-5.62-16.88-15.73-15-26.72,2.77-16.57,15.39-26.2,31-33.52a65.54,65.54,0,0,1,15.17-5.44c3.48-.68,3.88-2.15,3.53-4.72-1.18-8.61-1.72-17.27-2.34-25.92-.85-11.86-1.46-23.72-1.32-35.6.08-7.32-.39-14.66.1-21.95,1-14.44,1.38-28.93,3.38-43.31.72-5.19,1.08-10.41,1.71-15.61a9.1,9.1,0,0,0-1.75-6.49c-5-7.16-7.28-15.06-8-23.71-4,1.77-7.82,3.61-11.77,5.17-9.07,3.61-15.67,1.41-18.93-6.88-7-17.89-6.46-35.49,3.94-52.38,1.15-1.87,1-2.46-1-3.58-10.71-6-20-13.24-26.19-23.29A32.54,32.54,0,0,1,45.1,574c-.56-6.76,4-11.16,9.75-14.71,8.83-5.45,16.33-12.14,23.44-19.26s9-16.42,11.57-25.29c3.9-13.4,7.32-26.93,14-39.55a71.59,71.59,0,0,1,7.56-12.2,8.19,8.19,0,0,0,1.89-7A223.12,223.12,0,0,1,110.65,408c.6-10.15,2.28-20.27,7.25-29.62,6.72-12.66,19.86-17.81,35-13.77a98.36,98.36,0,0,1,30.82,14.48C184.16,379.44,184.63,379.73,185.65,380.4Zm299.29,43.32c0-9.52-.4-17.37-3.2-24.91-2.26-6.1-8.05-8.7-15-7.24a79.15,79.15,0,0,0-18.33,6.59c-15.15,7.39-29.88,15.43-44.63,23.43-11.3,6.13-23,8.83-36.36,5.31-21.69-5.7-44.1-7.65-66.64-8.18-19.06-.44-37.92,1.53-56.68,4.31-10,1.48-19.2.42-28.11-4.39-11.81-6.37-22.31-14.21-33.09-21.77-9-6.29-17.9-12.62-28.48-16.68-13.24-5.08-19.74-2.66-23.89,9.59A95.69,95.69,0,0,0,125.9,428c.79,10.48,2.06,20.84,5.38,30.92.86,2.6.29,4.56-1.46,6.66a97.62,97.62,0,0,0-13.52,20.54c-5.22,11-7.83,22.65-10.93,34.18C103,529,101.29,537.9,95,545.28a135.16,135.16,0,0,1-26.8,24.63c-7.5,5.13-7.63,5.41-2.82,12.74A25.61,25.61,0,0,0,67,584.83c7.06,8.64,16.75,14.21,27.41,18.7,6.38,2.69,7.11,5.58,2.62,10.43-12,13-15.38,27.64-11.18,43.86.9,3.51.81,3.4,4.5,1.54,6.16-3.13,12-6.85,18.74-8.94,3.87-1.2,7.14.51,8.09,4a21.81,21.81,0,0,1,.71,4.52c.88,18.1,9.27,33.17,23.24,46,1.46,1.35,2.06,1.06,3.32-.18,3.12-3.08,6.44-6,9.72-8.94,4.78-4.3,10.5-3.58,13.32,1.9,8,15.44,21.14,26.31,37.68,34.12,9.55,4.52,9.09,4.22,13.47-3.36,2.26-3.9,7-4.68,10.85-2a20.66,20.66,0,0,1,3.38,3c12.85,14.2,29.57,23.68,47.94,31.18a12.09,12.09,0,0,0,8.82.33,148.2,148.2,0,0,0,35.81-17.79,35.89,35.89,0,0,0,9.89-9.59,12.37,12.37,0,0,1,4.73-4c6.61-3.31,13.06-.2,13.56,6.53.08,1,.49,1.94.47,2.9-.05,2.71,1.38,2.48,3.62,1.83,18.6-5.5,33.47-15.67,46-28.79,3.82-4,7.39-8.07,9-13.31,1.05-3.33,4.58-4.58,8.28-3.37a10.67,10.67,0,0,1,6.33,5.16c1.78,3.34,3.85,6.57,5.66,9.9,1.09,2,2.09,2.39,4.2.8,16.43-12.45,28.72-27.07,31.92-46.69.6-3.7,3.43-5.16,7.47-3.92a73,73,0,0,1,8.4,3.27c5.48,2.44,10.88,5,16.31,7.52,1.17.54,2,1,2.56-.81,2-6.76,4-13.48,3.6-20.57a64.7,64.7,0,0,0-7.92-26.67c-2.34-4.42-1.67-6.12,3.34-8.21a99,99,0,0,0,14.26-6.74c9.3-5.74,17.43-12.38,21.48-22.18.76-1.84.46-2.91-1.32-4.14a134.41,134.41,0,0,1-24.51-21.62c-6.25-7-12.47-14.13-14.66-23.15-1.36-5.63-2.11-11.38-3.21-17.07-3.14-16.27-7.13-32.31-16.88-46.66a9.37,9.37,0,0,1-1.09-9.26C482,450.7,485.16,436.63,484.94,423.72Zm10-34.89a167.71,167.71,0,0,0,7.46-24.24c1.9-8,2.84-16.17,4-24.3a126.72,126.72,0,0,0,.22-33.58c-.65-5.29-.51-10.06,2.69-14.67,13.47-19.38,26-39.25,38.15-59.3,10.82-17.82,22.44-35.26,30.41-54.36,3.38-8.1,4.84-8.43,14-5.35,9.57,3.22,19.38,4.86,29.55,3.16,14.95-2.5,26.42-9.63,33.75-21.5,2.67-4.32,1.91-8.93-1.8-12.82-3.41-3.58-3.46-3.54-6.35.26-4.66,6.12-10.1,11.48-17.75,14.81-4.2,1.82-7.51,1.15-10.1-2.34s.63-4.94,3-6.48c6.13-4,10.77-9.18,15.11-14.64,1.08-1.37,1.09-2.12-.55-3.08-3.69-2.16-7.39-4.33-10.83-6.78-2.3-1.64-3.73-1.59-5.61.47-6.19,6.78-13.36,12.43-23,15.21-4,1.15-6.17.81-7.55-1.74-1.61-3-.76-5.23,2.65-7.14a55.66,55.66,0,0,0,15.68-12.71c1.79-2.12,1.66-3.31-1.06-4.77-18.79-10.06-37-21-56.26-30.35-12.67-6.19-11.27-6.89-21.36,3.6-20.38,21.17-37.71,44.34-54.13,68-14.21,20.52-28.13,41.19-43.55,61-5.11,6.56-7.68,7.36-16.1,5a231.32,231.32,0,0,0-42.43-7.49c-6.71-.56-13.46-.65-20.1-1.86-5.84-1.06-9.47-4-10.54-9.17a60.5,60.5,0,0,1-1.43-10.68c-.66-22.53.45-44.94,4.79-67.23,3.68-18.91,8.78-37.5,14.23-56,2.76-9.37,6-18.66,5.91-28.51-.08-6.83-1.06-7.71-8.71-8.63-13-1.55-26-3.29-38.95-4.89-9.82-1.21-19.67-2.33-29.51-3.48-1.93-.23-3-.31-2.72,2.25a77.2,77.2,0,0,0,4.13,18.87c.94,2.62.33,4.83-2.44,6.18a6.71,6.71,0,0,1-7.74-1.19,12,12,0,0,1-2.46-3.22,41.78,41.78,0,0,1-5.14-21.85c.07-2.29-.4-3.63-3.43-3.85-3.64-.28-7.24-1.08-10.86-1.62-5.14-.76-5.6-.46-6.18,4.11-.1.76-.08,1.53-.11,2.29-.32,6.31,1.39,12.32,3.38,18.29.91,2.71-.16,4.82-2.86,6.06s-5.51.8-7.18-1.49c-2.84-3.9-5.57-7.86-6.51-12.61a50.88,50.88,0,0,1-.68-14.24c.31-3.49-1.1-4.46-4.65-4a62.83,62.83,0,0,1-6.84.55c-2.93,0-4.92,1.19-6.1,3.49-1.39,2.73-2.19,5.7-1.44,8.61,4.56,17.71,14.14,31.94,34.46,38.55,4.88,1.58,6.22,4.16,4.24,8.35A238.53,238.53,0,0,0,247.55,102c-10.11,30.26-17.27,61-19.32,92.62-1,15.43-.64,30.79,2.53,46a21.68,21.68,0,0,1-2.8,16.32A126.44,126.44,0,0,0,218.45,277,285.16,285.16,0,0,0,202,349.9a221.79,221.79,0,0,0-.16,34.68c.31,5,1.2,9.35,6.56,12.14,2.08,1.09,3.71,2.85,5.64,4.2,9.2,6.49,19,9.94,31.29,7.53a250.87,250.87,0,0,1,40.85-4.17,343.43,343.43,0,0,1,89.45,9.41,12.89,12.89,0,0,0,7.49-.34c10.67-3.66,20.58-8.63,30.49-13.64,12.13-6.14,23.76-13.09,36.7-17.93a80.29,80.29,0,0,1,15.74-4.37C478.32,375.51,488.07,378.8,495,388.83Zm66.87,514c1.7-.26,3.14-.41,4.53-.72,9.52-2.12,14.1-9.31,10.81-17.57-2.72-6.83-8-11.78-15.26-15.23-11.32-5.39-23.58-6.77-36.12-7.12-10.62-.3-13.49-3-13-12.44,0-.11,0-.22,0-.33.58-6.52,1.25-13,1.7-19.57,1.12-16.35,0-32.67-1.19-49-.5-7.06-.72-14.16-1.91-21.2-.86-5.11-.7-10.35-1.26-15.5-1-9.3-2.33-18.56-3.76-27.81s-2.72-18.32-4.21-27.47c-.21-1.28-.92-2-2.41-2.49-3.86-1.36-7.61-3-11.36-4.59-5.72-2.46-5.69-2.48-8.15,2.84-.56,1.21-1.18,2.39-1.85,3.56-7.75,13.58-19.1,24.49-32.13,34.12a22.72,22.72,0,0,1-15.39,4.29,19.66,19.66,0,0,1-10.49-4.1A522.4,522.4,0,0,1,432,783.88c2.66,20.44,3.77,41,4.9,61.49.38,6.87-1,13.66-.82,20.51.12,3.81-.32,7.63-.4,11.45-.29,13.43,4.95,23.51,24.12,26.21,16.61,2.34,33.31.31,50,.62,2.33,0,2.92-1.14,2.91-2.92a19.85,19.85,0,0,0-6.07-14.68,28.46,28.46,0,0,1-3.24-3.55c-1.39-1.93-2-4.1-.51-6.17s3.88-2.54,6.48-2.3c4.41.41,7.27,3,9.83,5.81a26.06,26.06,0,0,1,6.77,20.51c-.21,2.38.67,3,3.24,2.8,5.38-.34,10.79-.61,16.18-.51,3.23.05,3.91-1.32,4-3.68.28-6.92-1.37-13.21-7.15-18.26-2.3-2-3.5-4.44-1.53-7s5.16-2.41,8-1.38c7.66,2.79,11.72,8.22,13.44,15.26C563.29,892.91,562.17,897.75,561.84,902.8ZM127.76,712.21c-1.33,9.61-2.12,18.91-2.71,28.23a544.7,544.7,0,0,0,.22,70.56c.62,9.46,2.16,18.86,2.38,28.36,0,1.9-.55,5.33,4.47,4.69,3-.37,4.55,2.23,4.95,4.81.67,4.3-2.34,7.27-8.4,8.08a105.82,105.82,0,0,0-32.09,9.94c-8.94,4.33-15.61,10.56-18.09,19.64-2,7.39,2.79,13.76,11,15,2.78.42,4.26,0,4.26-3,0-9.18,3.75-17.28,10.07-24.39,3.51-4,7.46-7.6,13.56-8.37,3.29-.41,5.42,1,6.15,3.84.62,2.43-1,4-2.63,5.43-7.39,6.76-12.33,14.58-13.7,24.06-.34,2.3-.11,3.59,3.08,3.94,5.61.61,11.25.67,16.86,1.07,2.18.16,3-.31,2.94-2.49-.1-6.88,1.52-13.43,6-19.22a35.39,35.39,0,0,1,18.75-12.55c4.31-1.24,7-.3,8.53,2.48s.55,5.35-2.84,7.62c-1.37.92-2.86,1.7-4.22,2.62-6.94,4.72-11.57,10.59-11.89,18.66-.08,2,.49,3.11,3,2.91,4.4-.35,8.83-.38,13.19-.89,8.65-1,16.45-4.12,23.8-8.18a23.77,23.77,0,0,1,17.59-2.6q6,1.46,12,3.07c4.94,1.35,9.89,2.5,15.14,2.13,6.49-.46,10.82-3.38,11.66-8.24A13.29,13.29,0,0,0,236.67,877c-3.08-3-7-4.74-11.13-6.17-4.45-1.53-8.9-3.07-13.3-4.71-3.39-1.27-5.68-3.56-5.83-6.9-.28-5.74-1-11.45-1.47-17.17-.62-7.67-.64-15.39-.78-23.09-.42-22.93.32-45.85.72-68.77,0-1.77,0-3.09-2.37-4.13-17.64-7.78-34-17-43.69-33.32-4.43,4.13-8.17,8.86-15.4,8.7S132.7,716,127.76,712.21ZM29,265.19c5.91-2.85,11.7-5.46,18.19-6.45,1.69-.26,1.41-1.05,1.11-2.13-1.55-5.59-2.88-11.24-4.56-16.8-4-13.11-6-26.47-2.64-39.77,5-19.88,17.35-35.88,35.64-48.08,10.58-7.06,22.46-11.48,35.94-11.79,16.43-.37,30.15,6,42.88,14.26,14.65,9.56,26.84,21.35,37.56,34.36l18.4,22.29A181,181,0,0,1,213.13,182a7.8,7.8,0,0,0-2.32-6.78,236.64,236.64,0,0,0-37.64-34c-16.91-12.25-36-19.85-57.92-21.42a71.35,71.35,0,0,0-33.53,5.75A116.21,116.21,0,0,0,27.46,172a72.41,72.41,0,0,0-11.08,31.23C14.25,224.79,22.17,244.84,29,265.19ZM49.62,381.61c.81.38,1.26-.12,1.77-.33,21.13-9.06,34-24.17,39.91-44,5-16.78,4.34-33.25-5.82-48.67-7.27-11-17.71-17-32.54-15.31-7.7.88-14.88,3-19.81,8.79-7.38,8.69-8,19.2-1.36,28.4,3.95,5.5,8.68,10.56,12.54,16.12,9,12.91,13.58,26.75,9.5,42C52.63,373,51,377.29,49.62,381.61Z"/><path class="cls-3" d="M484.94,423.72c.22,12.91-2.92,27-7.89,40.74a9.37,9.37,0,0,0,1.09,9.26c9.75,14.35,13.74,30.39,16.88,46.66,1.1,5.69,1.85,11.44,3.21,17.07,2.19,9,8.41,16.13,14.66,23.15a134.41,134.41,0,0,0,24.51,21.62c1.78,1.23,2.08,2.3,1.32,4.14-4.05,9.8-12.18,16.44-21.48,22.18A99,99,0,0,1,503,615.28c-5,2.09-5.68,3.79-3.34,8.21a64.7,64.7,0,0,1,7.92,26.67c.42,7.09-1.6,13.81-3.6,20.57-.54,1.8-1.39,1.35-2.56.81C496,669,490.57,666.46,485.09,664a73,73,0,0,0-8.4-3.27c-4-1.24-6.87.22-7.47,3.92-3.2,19.62-15.49,34.24-31.92,46.69-2.11,1.59-3.11,1.2-4.2-.8-1.81-3.33-3.88-6.56-5.66-9.9a10.67,10.67,0,0,0-6.33-5.16c-3.7-1.21-7.23,0-8.28,3.37-1.65,5.24-5.22,9.31-9,13.31-12.57,13.12-27.44,23.29-46,28.79-2.24.65-3.67.88-3.62-1.83,0-1-.39-1.92-.47-2.9-.5-6.73-7-9.84-13.56-6.53a12.37,12.37,0,0,0-4.73,4,35.89,35.89,0,0,1-9.89,9.59,148.2,148.2,0,0,1-35.81,17.79,12.09,12.09,0,0,1-8.82-.33c-18.37-7.5-35.09-17-47.94-31.18a20.66,20.66,0,0,0-3.38-3c-3.87-2.72-8.59-1.94-10.85,2-4.38,7.58-3.92,7.88-13.47,3.36-16.54-7.81-29.72-18.68-37.68-34.12-2.82-5.48-8.54-6.2-13.32-1.9-3.28,3-6.6,5.86-9.72,8.94-1.26,1.24-1.86,1.53-3.32.18-14-12.88-22.36-27.95-23.24-46a21.81,21.81,0,0,0-.71-4.52c-1-3.52-4.22-5.23-8.09-4-6.76,2.09-12.58,5.81-18.74,8.94-3.69,1.86-3.6,2-4.5-1.54-4.2-16.22-.84-30.89,11.18-43.86,4.49-4.85,3.76-7.74-2.62-10.43C83.79,599,74.1,593.47,67,584.83a25.61,25.61,0,0,1-1.62-2.18c-4.81-7.33-4.68-7.61,2.82-12.74A135.16,135.16,0,0,0,95,545.28c6.25-7.38,8-16.28,10.33-24.94,3.1-11.53,5.71-23.18,10.93-34.18a97.62,97.62,0,0,1,13.52-20.54c1.75-2.1,2.32-4.06,1.46-6.66-3.32-10.08-4.59-20.44-5.38-30.92a95.69,95.69,0,0,1,4.65-38.26c4.15-12.25,10.65-14.67,23.89-9.59,10.58,4.06,19.52,10.39,28.48,16.68,10.78,7.56,21.28,15.4,33.09,21.77,8.91,4.81,18.12,5.87,28.11,4.39,18.76-2.78,37.62-4.75,56.68-4.31,22.54.53,44.95,2.48,66.64,8.18,13.38,3.52,25.06.82,36.36-5.31,14.75-8,29.48-16,44.63-23.43a79.15,79.15,0,0,1,18.33-6.59c6.93-1.46,12.72,1.14,15,7.24C484.54,406.35,485,414.2,484.94,423.72ZM231,589.78c.82.72,1.54.37,2.26-.14A40.36,40.36,0,0,0,241,583.1a45,45,0,0,0,2.67-55.74c-14.88-21-48-26.45-69.61-11.18-15.92,11.26-23,26.27-21.32,44.26.76,8.13,2.83,16.06,8.34,23,1.42,1.78,2.27,1.66,4,.55a41,41,0,0,1,18.35-6.9c.84,0,1.7.15,2.54.11,13.18-.64,25.24,2.6,36.6,8.29C225.35,586.89,228.19,588.35,231,589.78Zm136.89,2.05c17.08-6.84,34.43-9.43,52.39-2.7,1.09.69,2.2,1.35,3.27,2.07,3.73,2.49,3.75,2.51,6.64-1q15-18.27,9.56-40.4c-4.17-16.84-14.17-29.73-33-35.38-18.38-5.52-35.59-2.71-50.13,9.14-23.89,19.48-24.36,53.77-2.27,72.34,3.65,3.06,3.53,3.07,7.15.26C363.53,594.6,365.78,593.27,367.92,591.83ZM322,665.73c15.66-.08,27.79-4,39.74-13.06,7.27-5.54,13.21-12,15.83-20.45,2-6.32-2.39-11.63-9-11.12-3.51.27-5.71,2.24-7.46,4.75-2.39,3.42-4.34,7.06-7.29,10.19C338,652.91,314,652,299.27,644.22c-3.61-1.91-6.09-4.15-5.28-8.34a14,14,0,0,0-.4-5.21c-.35-1.76.25-2.76,2-3.72,4.57-2.53,9.07-5.19,13.46-8,5.72-3.62,11.09-7.62,15.09-12.83,6.76-8.82,4.49-21.14-5.25-25.85-19.51-9.45-39.68-10.1-60.11-2.34a14.28,14.28,0,0,0-8.92,9A19.36,19.36,0,0,0,251,602.33c4.69,9.4,11.89,17,21.17,23,3.23,2.11,5.11,9.25,2.59,11.81-6,6.13-13,11-22.92,10.73-12.05-.29-21.1-5.52-28.56-13.54-3.32-3.57-5-8-8-11.72a8.93,8.93,0,0,0-8.61-3.37,7.69,7.69,0,0,0-6.74,5.36,10.09,10.09,0,0,0,.27,6.46c4.08,11.78,12.74,20.24,24.5,26.28,17,8.71,39.71,9.85,56-2.87,1.7-1.33,2.44-.49,3.62.29A64.11,64.11,0,0,0,322,665.73ZM378.2,467.89c-1.35,0-2.71-.1-4.05,0-7.11.62-14.24,1.14-19.14,6.8-3.51,4.08-3.4,8.32.56,12.09,4.37,4.14,9.9,4.53,15.66,3.53,10.42-1.81,20.64-2.33,30.46,2.27,7.21,3.37,14,7.16,19.54,12.6,3.28,3.22,7.47,4.72,12.29,3.08s6.66-5.11,7.22-9.45-1.48-7.62-4.8-10.48C419.86,474.47,399.9,469.23,378.2,467.89Zm-162.58-4.08c-17.65-.13-32.69,2.43-46.47,9.33-6.93,3.47-10.71,8.88-10,16.22a9.79,9.79,0,0,0,6.6,8.44c3.92,1.58,7.08-.1,10-2.37a80.74,80.74,0,0,1,12.3-8.29c7.66-4,15.71-5.29,24.34-2.82,2.91.83,5.87,1.54,8.84,2.17,7.51,1.58,14.52,1.15,19.53-4.89s2.37-12.69-5.5-15.15A60.18,60.18,0,0,0,215.62,463.81Z"/><path class="cls-3" d="M495,388.83c-6.9-10-16.65-13.32-28.88-11.42a80.29,80.29,0,0,0-15.74,4.37c-12.94,4.84-24.57,11.79-36.7,17.93-9.91,5-19.82,10-30.49,13.64a12.89,12.89,0,0,1-7.49.34,343.43,343.43,0,0,0-89.45-9.41,250.87,250.87,0,0,0-40.85,4.17c-12.25,2.41-22.09-1-31.29-7.53-1.93-1.35-3.56-3.11-5.64-4.2-5.36-2.79-6.25-7.11-6.56-12.14A221.79,221.79,0,0,1,202,349.9,285.16,285.16,0,0,1,218.45,277,126.44,126.44,0,0,1,228,256.92a21.68,21.68,0,0,0,2.8-16.32c-3.17-15.18-3.53-30.54-2.53-46,2.05-31.61,9.21-62.36,19.32-92.62a238.53,238.53,0,0,1,10.26-26.2c2-4.19.64-6.77-4.24-8.35-20.32-6.61-29.9-20.84-34.46-38.55-.75-2.91,0-5.88,1.44-8.61,1.18-2.3,3.17-3.46,6.1-3.49a62.83,62.83,0,0,0,6.84-.55c3.55-.43,5,.54,4.65,4a50.88,50.88,0,0,0,.68,14.24c.94,4.75,3.67,8.71,6.51,12.61,1.67,2.29,4.46,2.74,7.18,1.49s3.77-3.35,2.86-6.06c-2-6-3.7-12-3.38-18.29,0-.76,0-1.53.11-2.29.58-4.57,1-4.87,6.18-4.11,3.62.54,7.22,1.34,10.86,1.62,3,.22,3.5,1.56,3.43,3.85a41.78,41.78,0,0,0,5.14,21.85,12,12,0,0,0,2.46,3.22,6.71,6.71,0,0,0,7.74,1.19c2.77-1.35,3.38-3.56,2.44-6.18a77.2,77.2,0,0,1-4.13-18.87c-.25-2.56.79-2.48,2.72-2.25,9.84,1.15,19.69,2.27,29.51,3.48,13,1.6,25.95,3.34,38.95,4.89,7.65.92,8.63,1.8,8.71,8.63.12,9.85-3.15,19.14-5.91,28.51-5.45,18.53-10.55,37.12-14.23,56-4.34,22.29-5.45,44.7-4.79,67.23a60.5,60.5,0,0,0,1.43,10.68c1.07,5.16,4.7,8.11,10.54,9.17,6.64,1.21,13.39,1.3,20.1,1.86a231.32,231.32,0,0,1,42.43,7.49c8.42,2.33,11,1.53,16.1-5,15.42-19.83,29.34-40.5,43.55-61,16.42-23.7,33.75-46.87,54.13-68,10.09-10.49,8.69-9.79,21.36-3.6,19.24,9.39,37.47,20.29,56.26,30.35,2.72,1.46,2.85,2.65,1.06,4.77a55.66,55.66,0,0,1-15.68,12.71c-3.41,1.91-4.26,4.18-2.65,7.14,1.38,2.55,3.6,2.89,7.55,1.74,9.6-2.78,16.77-8.43,23-15.21,1.88-2.06,3.31-2.11,5.61-.47,3.44,2.45,7.14,4.62,10.83,6.78,1.64,1,1.63,1.71.55,3.08-4.34,5.46-9,10.63-15.11,14.64-2.37,1.54-5.63,2.94-3,6.48s5.9,4.16,10.1,2.34c7.65-3.33,13.09-8.69,17.75-14.81,2.89-3.8,2.94-3.84,6.35-.26,3.71,3.89,4.47,8.5,1.8,12.82-7.33,11.87-18.8,19-33.75,21.5-10.17,1.7-20,.06-29.55-3.16-9.15-3.08-10.61-2.75-14,5.35-8,19.1-19.59,36.54-30.41,54.36-12.16,20-24.68,39.92-38.15,59.3-3.2,4.61-3.34,9.38-2.69,14.67a126.72,126.72,0,0,1-.22,33.58c-1.17,8.13-2.11,16.28-4,24.3A167.71,167.71,0,0,1,495,388.83Z"/><path class="cls-3" d="M561.84,902.8c.33-5,1.45-9.89.26-14.75-1.72-7-5.78-12.47-13.44-15.26-2.81-1-6-1.25-8,1.38s-.77,5,1.53,7c5.78,5,7.43,11.34,7.15,18.26-.1,2.36-.78,3.73-4,3.68-5.39-.1-10.8.17-16.18.51-2.57.16-3.45-.42-3.24-2.8a26.06,26.06,0,0,0-6.77-20.51c-2.56-2.83-5.42-5.4-9.83-5.81-2.6-.24-5,.25-6.48,2.3s-.88,4.24.51,6.17a28.46,28.46,0,0,0,3.24,3.55,19.85,19.85,0,0,1,6.07,14.68c0,1.78-.58,3-2.91,2.92-16.66-.31-33.36,1.72-50-.62-19.17-2.7-24.41-12.78-24.12-26.21.08-3.82.52-7.64.4-11.45-.21-6.85,1.2-13.64.82-20.51-1.13-20.53-2.24-41-4.9-61.49a522.4,522.4,0,0,0-11.6-61.37,19.66,19.66,0,0,0,10.49,4.1,22.72,22.72,0,0,0,15.39-4.29c13-9.63,24.38-20.54,32.13-34.12.67-1.17,1.29-2.35,1.85-3.56,2.46-5.32,2.43-5.3,8.15-2.84,3.75,1.6,7.5,3.23,11.36,4.59,1.49.53,2.2,1.21,2.41,2.49,1.49,9.15,2.81,18.32,4.21,27.47s2.75,18.51,3.76,27.81c.56,5.15.4,10.39,1.26,15.5,1.19,7,1.41,14.14,1.91,21.2,1.18,16.29,2.31,32.61,1.19,49-.45,6.53-1.12,13-1.7,19.57,0,.11,0,.22,0,.33-.49,9.41,2.38,12.14,13,12.44,12.54.35,24.8,1.73,36.12,7.12,7.24,3.45,12.54,8.4,15.26,15.23,3.29,8.26-1.29,15.45-10.81,17.57C565,902.39,563.54,902.54,561.84,902.8Z"/><path class="cls-3" d="M127.76,712.21c4.94,3.8,8.44,9,15.66,9.19s11-4.57,15.4-8.7c9.72,16.31,26.05,25.54,43.69,33.32,2.35,1,2.4,2.36,2.37,4.13-.4,22.92-1.14,45.84-.72,68.77.14,7.7.16,15.42.78,23.09.47,5.72,1.19,11.43,1.47,17.17.15,3.34,2.44,5.63,5.83,6.9,4.4,1.64,8.85,3.18,13.3,4.71,4.15,1.43,8.05,3.21,11.13,6.17a13.29,13.29,0,0,1,4.12,12.41c-.84,4.86-5.17,7.78-11.66,8.24-5.25.37-10.2-.78-15.14-2.13q-6-1.62-12-3.07a23.77,23.77,0,0,0-17.59,2.6c-7.35,4.06-15.15,7.17-23.8,8.18-4.36.51-8.79.54-13.19.89-2.56.2-3.13-.92-3-2.91.32-8.07,4.95-13.94,11.89-18.66,1.36-.92,2.85-1.7,4.22-2.62,3.39-2.27,4.36-4.95,2.84-7.62s-4.22-3.72-8.53-2.48A35.39,35.39,0,0,0,136,882.34c-4.46,5.79-6.08,12.34-6,19.22,0,2.18-.76,2.65-2.94,2.49-5.61-.4-11.25-.46-16.86-1.07-3.19-.35-3.42-1.64-3.08-3.94,1.37-9.48,6.31-17.3,13.7-24.06,1.61-1.48,3.25-3,2.63-5.43-.73-2.88-2.86-4.25-6.15-3.84-6.1.77-10,4.42-13.56,8.37-6.32,7.11-10.09,15.21-10.07,24.39,0,3-1.48,3.45-4.26,3-8.19-1.22-13-7.59-11-15,2.48-9.08,9.15-15.31,18.09-19.64a105.82,105.82,0,0,1,32.09-9.94c6.06-.81,9.07-3.78,8.4-8.08-.4-2.58-2-5.18-4.95-4.81-5,.64-4.43-2.79-4.47-4.69-.22-9.5-1.76-18.9-2.38-28.36a544.7,544.7,0,0,1-.22-70.56C125.64,731.12,126.43,721.82,127.76,712.21Z"/><path class="cls-3" d="M29,265.19c-6.87-20.35-14.79-40.4-12.66-62A72.41,72.41,0,0,1,27.46,172,116.21,116.21,0,0,1,81.72,125.6a71.35,71.35,0,0,1,33.53-5.75c21.89,1.57,41,9.17,57.92,21.42a236.64,236.64,0,0,1,37.64,34,7.8,7.8,0,0,1,2.32,6.78,181,181,0,0,0-1.57,29.05l-18.4-22.29c-10.72-13-22.91-24.8-37.56-34.36-12.73-8.3-26.45-14.63-42.88-14.26-13.48.31-25.36,4.73-35.94,11.79-18.29,12.2-30.64,28.2-35.64,48.08-3.35,13.3-1.34,26.66,2.64,39.77,1.68,5.56,3,11.21,4.56,16.8.3,1.08.58,1.87-1.11,2.13C40.74,259.73,35,262.34,29,265.19Z"/><path class="cls-4" d="M49.62,381.61c1.4-4.32,3-8.62,4.19-13,4.08-15.28-.52-29.12-9.5-42C40.45,321,35.72,316,31.77,310.45c-6.61-9.2-6-19.71,1.36-28.4,4.93-5.81,12.11-7.91,19.81-8.79,14.83-1.7,25.27,4.29,32.54,15.31,10.16,15.42,10.8,31.89,5.82,48.67-5.9,19.87-18.78,35-39.91,44C50.88,381.49,50.43,382,49.62,381.61Z"/><path class="cls-2" d="M322,665.73a64.11,64.11,0,0,1-37.69-11c-1.18-.78-1.92-1.62-3.62-.29-16.28,12.72-39,11.58-56,2.87-11.76-6-20.42-14.5-24.5-26.28a10.09,10.09,0,0,1-.27-6.46,7.69,7.69,0,0,1,6.74-5.36,8.93,8.93,0,0,1,8.61,3.37c3,3.73,4.64,8.15,8,11.72,7.46,8,16.51,13.25,28.56,13.54,9.89.24,16.88-4.6,22.92-10.73,2.52-2.56.64-9.7-2.59-11.81-9.28-6.06-16.48-13.62-21.17-23A19.36,19.36,0,0,1,249.85,587a14.28,14.28,0,0,1,8.92-9c20.43-7.76,40.6-7.11,60.11,2.34,9.74,4.71,12,17,5.25,25.85-4,5.21-9.37,9.21-15.09,12.83-4.39,2.78-8.89,5.44-13.46,8-1.74,1-2.34,2-2,3.72a14,14,0,0,1,.4,5.21c-.81,4.19,1.67,6.43,5.28,8.34C314,652,338,652.91,353.85,636c2.95-3.13,4.9-6.77,7.29-10.19,1.75-2.51,3.95-4.48,7.46-4.75,6.61-.51,11,4.8,9,11.12-2.62,8.41-8.56,14.91-15.83,20.45C349.82,661.77,337.69,665.65,322,665.73Zm-32.86-79.8c-7.48.68-15.22,1.5-22.51,4.32-1.56.6-2.07,1.06-1.37,2.57,3.92,8.45,9.59,15.6,18.36,20.65a3.49,3.49,0,0,0,3.89,0,81.39,81.39,0,0,0,21.85-16.24c2.94-3,2.44-5.54-1.51-7.27A52.13,52.13,0,0,0,289.17,585.93Z"/><path class="cls-5" d="M367.92,591.83c-2.14,1.44-4.39,2.77-6.41,4.34-3.62,2.81-3.5,2.8-7.15-.26-22.09-18.57-21.62-52.86,2.27-72.34,14.54-11.85,31.75-14.66,50.13-9.14,18.85,5.65,28.85,18.54,33,35.38q5.48,22.11-9.56,40.4c-2.89,3.5-2.91,3.48-6.64,1-1.07-.72-2.18-1.38-3.27-2.07,8.18-10.68,11.68-22.14,7-34.81-5.08-13.65-13.52-24.33-31.22-26a29.91,29.91,0,0,0-18.4,4.25c10.76,6.17,13.12,13.85,7.12,21.93-1.55,2.08-3.43,3.83-6.22,4.23-5.55.8-10.56-.27-14.26-4.53-3.63,7.5-4.07,15-3.17,22.51C361.77,582.17,363.25,587.67,367.92,591.83Z"/><path class="cls-5" d="M183.36,577.06A41.11,41.11,0,0,0,165,584c-1.69,1.11-2.54,1.23-4-.55-5.51-6.92-7.58-14.85-8.34-23-1.66-18,5.4-33,21.32-44.26,21.61-15.27,54.73-9.81,69.61,11.18A45,45,0,0,1,241,583.1a40.36,40.36,0,0,1-7.68,6.54c-.72.51-1.44.86-2.26.14,3.71-3.32,7.54-6.59,9.74-10.94,4.69-9.31,6.6-19,4.65-29.15-2.06-10.8-8-19.19-18.94-24.54-8.2-4-20.62-3.21-25.89,1.84,6.46,2.37,9.63,6.3,9.45,11.74-.17,4.94-4.66,9.78-10.79,11.54a17.29,17.29,0,0,1-8.64.26c-4.3-.95-6.71-3.69-9-6.92C175.18,555.23,175.32,566.31,183.36,577.06Z"/><path class="cls-6" d="M367.92,591.83c-4.67-4.16-6.15-9.66-6.8-15.08-.9-7.46-.46-15,3.17-22.51,3.7,4.26,8.71,5.33,14.26,4.53,2.79-.4,4.67-2.15,6.22-4.23,6-8.08,3.64-15.76-7.12-21.93a29.91,29.91,0,0,1,18.4-4.25c17.7,1.63,26.14,12.31,31.22,26,4.72,12.67,1.22,24.13-7,34.81C402.35,582.4,385,585,367.92,591.83Z"/><path class="cls-6" d="M183.36,577.07c-8-10.76-8.18-21.84-1.72-33.46,2.26,3.23,4.67,6,9,6.92a17.29,17.29,0,0,0,8.64-.26c6.13-1.76,10.62-6.6,10.79-11.54.18-5.44-3-9.37-9.45-11.74,5.27-5,17.69-5.84,25.89-1.84,11,5.35,16.88,13.74,18.94,24.54,2,10.17,0,19.84-4.65,29.15-2.2,4.35-6,7.62-9.74,10.94-2.84-1.43-5.68-2.89-8.53-4.31-11.36-5.69-23.42-8.93-36.6-8.29C185.06,577.22,184.2,577.11,183.36,577.07Z"/><path class="cls-2" d="M378.2,467.89c21.7,1.34,41.66,6.58,57.74,20.46,3.32,2.86,5.36,6.15,4.8,10.48s-2.47,7.84-7.22,9.45-9,.14-12.29-3.08c-5.54-5.44-12.33-9.23-19.54-12.6-9.82-4.6-20-4.08-30.46-2.27-5.76,1-11.29.61-15.66-3.53-4-3.77-4.07-8-.56-12.09,4.9-5.66,12-6.18,19.14-6.8C375.49,467.79,376.85,467.89,378.2,467.89Z"/><path class="cls-2" d="M215.62,463.81a60.18,60.18,0,0,1,19.63,2.64c7.87,2.46,10.46,9.18,5.5,15.15s-12,6.47-19.53,4.89c-3-.63-5.93-1.34-8.84-2.17-8.63-2.47-16.68-1.18-24.34,2.82a80.74,80.74,0,0,0-12.3,8.29c-2.91,2.27-6.07,3.95-10,2.37a9.79,9.79,0,0,1-6.6-8.44c-.71-7.34,3.07-12.75,10-16.22C182.93,466.24,198,463.68,215.62,463.81Z"/><path class="cls-3" d="M289.17,585.93a52.13,52.13,0,0,1,18.71,4c3.95,1.73,4.45,4.25,1.51,7.27a81.39,81.39,0,0,1-21.85,16.24,3.49,3.49,0,0,1-3.89,0c-8.77-5.05-14.44-12.2-18.36-20.65-.7-1.51-.19-2,1.37-2.57C274,587.43,281.69,586.61,289.17,585.93Z"/><path class="cls-7" d="M552.83,595.19l-28.19-55.14c0-.43-.07-.86-.1-1.28-.06-.85-.13-1.7-.19-2.54-.09-1.15-.17-2.3-.25-3.46-.06-.8-.12-1.6-.17-2.41l-.36-5.16c-.07-1-.14-1.93-.2-2.9s-.15-2.13-.23-3.2l-.21-2.83c-.07-1-.15-2-.22-3s-.16-1.88-.23-2.82l-.24-2.94-.27-2.93c-.09-.95-.17-1.89-.26-2.83s-.21-2-.31-2.94l-.3-2.82c-.12-1-.24-2-.37-3s-.22-1.84-.34-2.76-.28-2-.43-3-.25-1.79-.39-2.69-.34-2-.51-3.08c-.15-.88-.28-1.75-.44-2.63-.19-1.05-.4-2.09-.6-3.14-.17-.85-.32-1.71-.5-2.56-.22-1.05-.47-2.1-.71-3.15-.19-.85-.36-1.69-.57-2.54-.26-1.09-.56-2.19-.84-3.28-.21-.79-.4-1.59-.61-2.37-.35-1.24-.73-2.48-1.1-3.72-.19-.64-.37-1.28-.57-1.93-.59-1.87-1.22-3.75-1.89-5.62a6,6,0,0,1-.35-2.14.48.48,0,0,1,0-.12,10,10,0,0,1,1.35-4.27l.57-1,.6-1a110.2,110.2,0,0,0,10.26-23.61A98.1,98.1,0,0,0,526.47,406c.33-2.1.59-4.2.79-6.33s.31-4.26.36-6.42c.13-1.81.3-3.62.44-5.44s.26-3.63.27-5.45c0-1.63,0-3.2-.09-4.68a44.63,44.63,0,0,0-1.43-9.68,24.52,24.52,0,0,0-1.06-3.07,18.57,18.57,0,0,0-1.37-2.63,13.52,13.52,0,0,0-10-6.37,25.57,25.57,0,0,0-6.57-.05c-.61.07-1.23.15-1.86.25-1.27.2-2.6.47-4,.8a88.72,88.72,0,0,0-11.57,3.79q-6.71,2.65-13,5.78c-5.63,2.77-11.05,5.79-16.33,9s-10.39,6.6-15.41,10.11c-6.27,4.4-12.39,9-18.46,13.64a30.11,30.11,0,0,1-7.72,4.46,21.24,21.24,0,0,1-6.39,1.39c-.22,0-.44,0-.66,0a25.84,25.84,0,0,1-5.85-.51c-2.32-.46-4.65-.89-7-1.33a279,279,0,0,0-172.09-12.67c-2.38.09-4.76.16-7.14.27a57.11,57.11,0,0,1-11-.45,36.34,36.34,0,0,1-17-7,54.91,54.91,0,0,1-7.24-6.6q-6.27-6.71-13-12.95a211.77,211.77,0,0,0-21.61-17.45q-7.65-5.37-15.94-10.08-4.14-2.34-8.47-4.51a36.69,36.69,0,0,0-8.15-3,24.6,24.6,0,0,0-4.85-.64h0a20.74,20.74,0,0,0-2.25.09,15.26,15.26,0,0,0-4.11,1c-5.13,2-8.75,6.88-10.44,14.34a134.8,134.8,0,0,0-2.77,17.17c-.13,1.43-.24,2.85-.33,4.28-.17,2.86-.23,5.71-.2,8.56a111.72,111.72,0,0,0,7.25,38.29c1.16,3.07,2.23,6,1.75,9.08a10.41,10.41,0,0,1-1,3.17c-12.41,24.37-19.57,50.06-24.25,76.48a187.9,187.9,0,0,1-4.43,20.17A77.75,77.75,0,0,1,64.88,538L49,560.82a7.46,7.46,0,0,0-1.38,4.25,6.86,6.86,0,0,0,0,1.36C49.29,585,59.55,601.8,75.06,613.51a60.22,60.22,0,0,0-2.33,48.56c1.86,4.87,8.19,7.26,13.41,5.06l25.12-10.59c-4.17,21.9,4.12,45,23.31,61.19,4.24,3.58,11.05,3.09,14.43-1l13.93-16.94c4.73,24.23,24.18,45.21,51.45,53.85,5.52,1.75,11.44-1.16,12.55-6.15l1.61-7.22c11,18.66,31.45,32.57,55.9,36.63a10.9,10.9,0,0,0,2.9.08,10.92,10.92,0,0,0,2.88.31c24.78-.7,46.9-11.71,60.36-28.69l.61,7.36c.42,5.1,5.9,8.79,11.6,7.8,28.2-4.85,50.32-23,58.29-46.36l11.5,18.67c2.79,4.53,9.47,5.93,14.16,3,21.2-13.41,32.56-35.2,31.4-57.46l23.45,13.9c4.88,2.89,11.47,1.39,14-3.19a60.16,60.16,0,0,0,4.29-48.42c17-9.51,29.4-24.74,33.61-42.92a7.8,7.8,0,0,0,.17-1.34A7.56,7.56,0,0,0,552.83,595.19Z"/><path class="cls-2" d="M561.47,590.15l-24.7-48.31-3.5-6.84,1.37,5c-1.3-17.06-2.15-34.16-4.43-51.12-1.05-7.83-2.36-15.6-4.13-23.31-.88-3.87-2-7.7-3.12-11.5-.63-2.09-1.27-4.24-2.09-6.26-.58-1.45,0,.28,0,.39,0,.41-.24.9-.25,1.26,0,1,.3-.6.52-1a153.93,153.93,0,0,0,10.91-23.65,107.46,107.46,0,0,0,5.37-27.51c.61-9,1.32-17.78.07-26.75-1.23-8.76-5.33-17.94-13.67-22-8.55-4.21-18.28-3.15-27.18-.6a150,150,0,0,0-25.15,10.28c-15.8,7.87-30.35,17.95-44.41,28.57a112.32,112.32,0,0,1-10.67,7.36c-1,.57.21-.08.39-.14-.5.17-1,.37-1.52.52s-1.94.77-2.37.57c.74.34,1.43-.11.16-.06l-1.05.05c-.4,0-.8,0-1.2,0,0,0-2.55-.24-1.19-.06s-.25-.06-.42-.1l-1.74-.34-2.61-.49a31.77,31.77,0,0,1-6.23-2q-5.5-2.19-11.09-4.13a272.61,272.61,0,0,0-48.85-12,291.83,291.83,0,0,0-107.3,3.35c-1.9.42-3.78.91-5.68,1.34.42-.1,2-.11,0-.08l-1.34.05-3.57.14c-1.93.08-3.86.13-5.8.07-1,0-1.94-.09-2.9-.18a4.23,4.23,0,0,1-1.2-.11c.29.3,1.84.31.24,0a43.68,43.68,0,0,1-5.66-1.39c-.77-.25-1.51-.53-2.26-.83,2.18.86-.64-.38-1.18-.68a51.06,51.06,0,0,1-4.37-2.77c-1.18-.8,1.12,1,0,0-.32-.29-.67-.56-1-.84-.9-.78-1.77-1.6-2.62-2.44-6.23-6.15-12.14-12.54-18.74-18.34a230.37,230.37,0,0,0-21.79-17,183,183,0,0,0-22.48-13.25c-8.2-4-18.12-7-27.1-3.61-8.49,3.18-13.93,10.06-16.67,18.55s-3.68,18-4.21,26.88A127,127,0,0,0,84.74,393a110.14,110.14,0,0,0,3,13.06c1.22,4.19,3.09,8.23,4.17,12.45.09.33.22,2.14.22.93s-.21.42-.1.49c-.08,0,.3-1.73,0-.56-.37,1.37.8-1.34,0,0-1.09,1.88-2,3.94-2.88,5.91-2.08,4.44-4,9-5.85,13.49a253.65,253.65,0,0,0-8.28,24c-2.4,8.26-4.42,16.63-6.13,25.06-1.76,8.62-3,17.34-5.17,25.88A122.39,122.39,0,0,1,59.78,526c-.4,1.07.07-.17.14-.33-.24.55-.48,1.1-.74,1.64-.38.82-.77,1.63-1.19,2.44-.57,1.12-1.15,2.25-1.83,3.31-1.54,2.41-3.27,4.71-4.91,7l-7.68,11c-2,2.83-4,5.41-5.12,8.73-1.57,4.57-.64,9.57.17,14.19a62.06,62.06,0,0,0,2.66,10,75.47,75.47,0,0,0,11,20.57A92.55,92.55,0,0,0,70,622.15l-3.59-13.68a73.1,73.1,0,0,0-7.72,31.43,72.09,72.09,0,0,0,1.94,16.88c1.23,5.27,2.84,11.09,6.71,15.07A20.67,20.67,0,0,0,90,676.28l12.79-5.39,11.17-4.7-12.3-12.3a73.07,73.07,0,0,0,13.63,57.8c7,9.15,16.1,19.88,28.85,18.17a19.13,19.13,0,0,0,12.2-6.36c1.28-1.51,2.51-3,3.77-4.57L170,706.85l-16.72-4.41c3.15,15.67,11.92,30.19,23.67,40.93a88.71,88.71,0,0,0,20.9,14.32c9.22,4.48,19.92,9.29,29.81,3.87a18.57,18.57,0,0,0,9-11.92c.52-2.23,1-4.48,1.49-6.72l-18.28,2.39c10.74,17.94,28,30.83,47.66,37.62a80.92,80.92,0,0,0,15.55,3.78,18.42,18.42,0,0,1,3.28.32c-1-.88-1.33-.1-.3-.17,1.82-.12,3.88.45,5.78.36,3.34-.16,6.65-.55,10-1a93,93,0,0,0,29.89-9.55,81.16,81.16,0,0,0,25.92-21l-17.07-7.07.5,6c.4,4.82,1.55,8.81,4.69,12.58,3.58,4.3,9.32,6.54,14.81,6.72,4.65.15,9.87-1.4,14.32-2.7,15.88-4.64,31-13.63,41.68-26.39a77.91,77.91,0,0,0,14.15-24.77l-18.28,2.39,7.06,11.47c3.22,5.23,6,10.93,11.6,14.07a21.09,21.09,0,0,0,19.47.34C455.46,746,460,742,464,738.38a73.49,73.49,0,0,0,17.44-23.65,72.1,72.1,0,0,0,6.73-33.16l-15,8.64L494.69,703c6.79,4,14.34,5.29,21.68,1.7,5-2.45,7.86-7,10.06-11.87a69.76,69.76,0,0,0,3.06-51.63l-4.6,11.29A84.25,84.25,0,0,0,552.1,628a74.05,74.05,0,0,0,8.32-15.8,57.42,57.42,0,0,0,2.5-7.86,21,21,0,0,0-1.45-14.19c-2.11-4.81-9.5-6.28-13.68-3.59-5,3.21-5.85,8.54-3.59,13.68-.14-.31-.69-2.29-.54-1.08s.59-2.27,0-.14c-.31,1.09-.57,2.18-.9,3.27s-.69,2.14-1.07,3.19c-.22.59-.46,1.16-.68,1.75-.49,1.32.75-1.6.14-.33a84.17,84.17,0,0,1-7.19,12.22c-.81,1.14,1.1-1.32.19-.25-.41.48-.79,1-1.2,1.46-.73.86-1.48,1.71-2.26,2.53a70.52,70.52,0,0,1-5.21,5c-.86.76-1.76,1.48-2.66,2.2s1.42-1-.12.08c-.42.3-.84.61-1.26.9-2.14,1.5-4.35,2.88-6.62,4.16-3.69,2.09-5.95,7.16-4.6,11.3.64,1.93,1.2,3.89,1.66,5.88.26,1.13.46,2.26.68,3.4,0,.17.28,1.6.08.38-.23-1.38.11,1,.14,1.25a65.27,65.27,0,0,1-.14,13c.2-2-.11.51-.24,1.21-.19,1-.4,2-.64,3a59.49,59.49,0,0,1-2.06,6.78c-.15.42-.33.83-.48,1.25-.51,1.47.64-1.3,0,.11-.47,1-.89,1.92-1.37,2.87-.21.41-.42.82-.65,1.22l-.21.41c-.47.72-.45.74.05,0,.08,0,.81-.77-.05,0,2-1.65.81-.49.21-.25-1.22.5,1.9-.63.61-.23l-.94.27c0-.51,2.29,0,.69-.09a9.46,9.46,0,0,1-1.35,0c0-.2,2.07.52,1,.08-.34-.13-1.75-.64-.44,0s.14,0-.13-.15c-.89-.56-1.83-1.08-2.74-1.62l-11.71-6.94-8.93-5.29c-6.31-3.74-15.4,1-15.05,8.63.09,1.93.11,3.86,0,5.79,0,1-.11,1.92-.2,2.88a5.9,5.9,0,0,1-.15,1.43q.29-2,.12-.87c-.05.35-.11.71-.17,1.07a60.77,60.77,0,0,1-3.1,11.47c-.17.45-.35.9-.53,1.35-.49,1.31.77-1.65.16-.38-.42.87-.81,1.76-1.25,2.64-.94,1.86-2,3.68-3.08,5.44-.53.84-1.08,1.66-1.65,2.47-.28.41-.58.81-.86,1.22-1.09,1.54.11,0,.2-.23-.78,1.83-3.13,3.73-4.49,5.16s-2.94,2.91-4.5,4.27c-.8.69-1.62,1.35-2.43,2,.27-.22,1.63-1.2.13-.11l-1.63,1.18c-.77.54-1.55,1.07-2.35,1.58a8.52,8.52,0,0,1-1.28.79l1.14-.44-.64.21c-1.92-.26.7.52.68,0a10.64,10.64,0,0,1-1.34.05c-2,.13.7-.12.67.12a7.51,7.51,0,0,1-1-.25c-.72-.23-.44-.1.85.41-.08.1-1.1-.74-1.14-.65s2.08,1.3.51.32c-1.06-.66.24-.36.32.42,0-.35-.6-1-.78-1.25l-3.5-5.68-7.19-11.69c-4.7-7.62-15.48-5.66-18.28,2.39-.26.75-.53,1.5-.81,2.24-.85,2.19.57-1.18-.16.43-.66,1.45-1.34,2.87-2.1,4.27a69.15,69.15,0,0,1-5.14,8.06c-1.1,1.52,1.08-1.29-.13.15-.51.62-1,1.24-1.56,1.85q-1.71,2-3.57,3.8-1.62,1.61-3.35,3.1c-.62.54-1.26,1.06-1.9,1.59-.18.16-1.12.95-.1.1s-.18.13-.4.3a77.14,77.14,0,0,1-8.5,5.45c-1.5.83-3,1.62-4.58,2.35l-2,.92c-1.28.59,1.66-.65.33-.14-.47.17-.93.37-1.4.55a83.89,83.89,0,0,1-10.18,3.17c-1.64.4-3.29.74-4.95,1.05s.35-.19.4-.06c0,0-1,0-1.09,0-1.21,0,.95,0,.9.1l-.68-.18q-1.28-.45-.09,0c.54.64.5.25,0-.12l.94.78-.49-.44-.46-.47.77,1c-.71-1.09,0,.15.15.66-.51-1.7,0,1.4-.07.57,0-.39-.07-.78-.1-1.17l-.5-6c-.34-4.07-2.24-7.49-6.15-9.14-3.36-1.42-8.45-1-10.92,2.07a72.9,72.9,0,0,1-9.07,9.44,15.11,15.11,0,0,1-2.27,1.88c2.18-1.21-.66.48-1.23.88-1.83,1.31-3.72,2.52-5.66,3.66s-3.75,2.1-5.68,3l-1.39.65c-.07,0-2.37,1.06-.91.42,1.26-.55-.27.1-.58.23-.6.23-1.2.47-1.81.69a84.69,84.69,0,0,1-13.63,3.77c-1,.2-2.11.36-3.16.53-2.59.43,1.49-.12-.15,0l-1.61.17c-1.22.12-2.44.22-3.67.29-.55,0-1.09.06-1.64.07s-3.06-.17-.36.23a29.1,29.1,0,0,0-5.27-.48c1.65-.06.67.09.09,0l-1.58-.31q-3.69-.75-7.32-1.82-3.18-.95-6.29-2.13l-1.44-.56c-1.81-.72,0,.09.26.11-1.07-.08-2.53-1.14-3.48-1.6a82.07,82.07,0,0,1-11.61-6.94c-.4-.28-.79-.58-1.19-.87-2-1.49,1.62,1.36-.31-.24-.94-.79-1.88-1.56-2.8-2.37q-2.72-2.41-5.18-5.08c-.74-.79-1.45-1.6-2.15-2.42-.39-.45-.76-.92-1.14-1.38-1.2-1.43.74,1,0,0-1.45-2-2.86-4-4.14-6.19-4.23-7.07-16.36-6.23-18.27,2.39l-1.13,5c-.15.7-.35,1.41-.47,2.12-.21,1.28,0,.1.33-.5-.72,1.38.3-.63.47-.43a7.92,7.92,0,0,1-.92.91c-.19-.11,2.19-1.32.38-.46.05,0,1.89-.57.84-.34a4.6,4.6,0,0,0-1,.28c-.22.43,2.62-1,.58-.09,0,0-1.71.5-.11.09.86-.21.57.16-.12,0-1-.3-2-.61-2.95-1s-1.71-.61-2.56-.93c-.67-.26-3-.75-.83-.3-1.62-.33-3.36-1.52-4.83-2.26a79.47,79.47,0,0,1-9-5.33c-.71-.48-1.41-1-2.1-1.48-1.89-1.39.77.67-.58-.43s-2.6-2.14-3.84-3.28a72.79,72.79,0,0,1-6.87-7.18c-.3-.36-1.78-2.27-1-1.17s-.7-1-.88-1.23q-1.4-2-2.66-4c-1-1.57-1.84-3.18-2.65-4.82-.41-.81-.79-1.64-1.18-2.47-.11-.24-.6-1.34,0-.06.65,1.5-.21-.56-.27-.7a63.8,63.8,0,0,1-3-10.43c-1.41-7-12-10.09-16.71-4.41s-9.68,11.55-14.37,17.43c-1,1.26.33-.77.51-.31.05.12-1.18.57-1.13.65s2.17-1.27.54-.34c-1.45.83.5-1.26.7,0,0-.11-1.36.21-1.34,0s2.56.7.67.07c-.2-.06-1.25-.26-1.28-.39l1.15.45c-.73-.47-.78-.46-.13,0,1.2.4,0,0-.49-.43l-.93-.83q-1.23-1.1-2.4-2.25-2.58-2.55-4.91-5.35c-.34-.4-.67-.82-1-1.23.22.27,1.19,1.63.12.15-.61-.85-1.22-1.7-1.8-2.56q-1.72-2.56-3.2-5.28a46.77,46.77,0,0,1-2.66-5.47c.9,2.34-.15-.49-.37-1.11q-.63-1.75-1.17-3.54a63.69,63.69,0,0,1-1.54-6.49c-.09-.49-.17-1-.25-1.46-.32-1.92.12,1.39,0,.1-.09-1.1-.22-2.19-.28-3.3a58.47,58.47,0,0,1,0-6.62c.06-1.23.18-2.45.3-3.67.09-.84-.27-1.32-.06.46a8.74,8.74,0,0,1,.37-2.2c.67-3.59.12-7-2.57-9.73-2.27-2.27-6.56-3.9-9.73-2.57L88,655.57c-1.34.56-2.67,1.14-4,1.69l-.53.22c-.36.14-2.92.79-1.35.53s0-.12-.36-.07c-1,.13,2.15.68.33.06a4.92,4.92,0,0,0-.95-.29c-1.29-.07,1.79.67.6.21a7.52,7.52,0,0,1-.83-.52c.17-.34,1.6,1.49.58.3,0,0,1.33,1.55.59.76-.23-.25-.71-1.53-.25-.38s0-.25-.1-.42c-.24-.74-.5-1.47-.72-2.21a60,60,0,0,1-1.56-6.21c-.12-.62-.54-3.28-.29-1.34-.17-1.33-.29-2.67-.36-4a57.67,57.67,0,0,1,0-7.08c0-.58.08-1.17.13-1.76,0-.43.3-2.51,0-.4.16-1.16.37-2.32.6-3.47a61.31,61.31,0,0,1,1.8-6.8c.42-1.27.9-2.5,1.37-3.74.39-1.08-.08.19-.15.34.37-.81.74-1.62,1.13-2.42,2.59-5.33,1-10.18-3.59-13.68,1.85,1.41-.78-.66-1.13-1-.72-.6-1.42-1.22-2.11-1.84-1.67-1.51-3.27-3.1-4.8-4.75-.62-.68-1.23-1.37-1.83-2.06-.34-.4-.68-.8-1-1.21-.2-.24-1.24-1.57-.43-.52s0-.07-.16-.23c-.31-.42-.61-.84-.91-1.27-.67-.95-1.32-1.92-1.94-2.9-1-1.64-2-3.31-2.87-5-.47-.91-.9-1.84-1.34-2.76-.21-.43-.85-1.73.09.27-.27-.57-.48-1.19-.71-1.78a61.59,61.59,0,0,1-3.12-11.47,15.24,15.24,0,0,1-.24-1.53c0,.32.19,2.24.07.36,0-.5,0-3-.16-1.53-.18,1.8.61-1.08-.11.37-.63,1.27.2-.15.23-.19a1.88,1.88,0,0,0,.16-.23c.74-1.09,1.51-2.16,2.27-3.25l8.46-12.14c1.75-2.5,3.64-5,5.22-7.56,5.3-8.69,8.34-19,10.47-28.86,2.1-9.7,3.57-19.51,5.8-29.18a284.24,284.24,0,0,1,7.88-27.92c1.59-4.67,3.34-9.29,5.2-13.86,0-.08.62-1.5.21-.52s.31-.72.41-.95l1.32-3q1.64-3.63,3.41-7.2c1.22-2.46,2.61-4.93,3.1-7.66a23.78,23.78,0,0,0-.49-10.77c-1.39-5-3.5-9.76-4.83-14.79-.61-2.31-1.15-4.65-1.61-7-.21-1.08-.41-2.17-.59-3.27-.1-.62-.19-1.24-.29-1.87.32,1.9,0-.23-.07-.61a112.83,112.83,0,0,1-.75-15c0-2.32.14-4.64.31-6.95.08-1.18.19-2.35.31-3.53,0-.47.1-.95.15-1.42.08-.7.27-2.15.06-.68a80.46,80.46,0,0,1,3-14.6,7.84,7.84,0,0,1,.53-1.44c.11,0-.88,1.73-.26.72.48-.77,1-1.61,1.39-2.4.63-1.12-1.35,1.21-.37.46a7.07,7.07,0,0,0,.64-.71c-.06.07.91-.86.91-.87.15.38-1.87,1.18-.31.28a7.83,7.83,0,0,0,1-.62c1-.77-2.08.62-.62.23.72-.19,3-.69,1.07-.49a19.32,19.32,0,0,1,2.28-.09,6.77,6.77,0,0,1,1.56.1l-1-.15c.42.07.84.15,1.25.24.93.2,1.86.45,2.77.74.54.17,1.07.38,1.61.56.35.11,1.68.76.1,0,2.31,1.09,4.58,2.26,6.83,3.47q6.67,3.6,13.06,7.73,6.09,3.93,11.87,8.31l.83.63c-.89-.69.63.49.82.65.85.67,1.69,1.34,2.53,2q2.86,2.34,5.64,4.77,5.73,5,11.1,10.39c3.55,3.54,6.82,7.4,10.61,10.69a50.19,50.19,0,0,0,27.57,12.25,85.92,85.92,0,0,0,13.8.19c5.47-.2,10.54-1.59,15.86-2.71q6.91-1.47,13.89-2.56l3.19-.48,1.82-.25c-1.87.26-.27,0,.1,0,2.46-.3,4.92-.59,7.39-.83a279.33,279.33,0,0,1,30.33-1.34,284.7,284.7,0,0,1,29.76,1.86c1.25.14,2.49.3,3.74.45.35.05,2,.28.13,0l1.85.26c2.45.36,4.9.74,7.35,1.17q7,1.2,14,2.77a270.24,270.24,0,0,1,27.23,7.66q6.65,2.27,13.17,4.87a57.28,57.28,0,0,0,15,3.34,31,31,0,0,0,15.38-2.44c4.75-2,8.59-5,12.67-8.12,8.06-6.09,16.25-12,24.77-17.45a209.34,209.34,0,0,1,26-14.25c1.16-.52,2.32-1,3.48-1.53-1.6.68,1.16-.47,1.6-.64,2.41-1,4.85-1.87,7.33-2.65,1.95-.62,3.92-1.16,5.91-1.6.91-.2,1.83-.37,2.75-.52-1.79.29-.27,0,.1,0,.72,0,1.43-.09,2.15-.1.29,0,2.55-.18,2.78.13-.06-.09-1.88-.43-.35.05a6.44,6.44,0,0,1,1.46.43c-.45-.58-1.4-.81-.39-.11.15.09,1.24.74,1.22.75s-1.89-1.67-.32-.14c.73.72.48.55,0-.16.42.62,1.48,1.86,1.52,2.63,0-.18-.73-2.19-.13-.21.16.53.35,1.05.5,1.59.24.83.43,1.68.6,2.53.1.51.17,1,.27,1.55.22,1.15-.11-1.73,0,.25a105,105,0,0,1-.14,14.63c-.18,2.14-.28,4.26-.39,6.4-.07,1.22-.15,2.44-.26,3.65-.06.61-.14,1.21-.19,1.82-.17,1.94.14-.68,0,.5a105.1,105.1,0,0,1-3.28,14.57c-.71,2.32-1.51,4.62-2.38,6.88-.16.43-.33.85-.5,1.28-.1.24-.85,2-.38.92s-.31.67-.41.91c-.32.7-.64,1.4-1,2.1-1.94,4.07-4.49,7.87-6.29,12a19.49,19.49,0,0,0-1.91,8.46c.09,3.24,1.46,6.22,2.42,9.25a190.19,190.19,0,0,1,6.09,25.79q.51,3.08.95,6.15c.12.8.35,2.84.14.92.16,1.44.36,2.88.53,4.32.6,5.13,1.06,10.27,1.48,15.42.75,9.27,1.31,18.57,2,27.85a18.31,18.31,0,0,0,1.78,7c.45.9.92,1.8,1.39,2.7l24.36,47.65,2.13,4.17c2.39,4.67,9.32,6.4,13.68,3.59A10.24,10.24,0,0,0,561.47,590.15Z"/><path class="cls-4" d="M259.51,556c4.3,18,18.19,27.43,32.85,36,1.87,1.09,4.58,1.19,6.85,1,13-.82,35.84-19.08,40-31.79-3.5-6.89-9.81-12.38-17.49-16.13A58.12,58.12,0,0,0,299,539.45h-.6a59.05,59.05,0,0,0-6.91.17C279,540.67,267.08,545.81,259.51,556Z"/><path class="cls-8" d="M280.9,549.43c2.05,8.61,8.68,13.08,15.67,17.16a6,6,0,0,0,3.26.5c6.2-.39,17.09-9.1,19.08-15.16a18,18,0,0,0-8.34-7.69,27.81,27.81,0,0,0-10.85-2.69h-.29a25.78,25.78,0,0,0-3.29.09C290.2,542.13,284.51,544.58,280.9,549.43Z"/><path class="cls-9" d="M418.93,435.7c-17.36,11.16-38.51-4.79-55.39-.28a24.1,24.1,0,0,1-16-1.37,125.18,125.18,0,0,0-87.5-5.74,21.32,21.32,0,0,1-14.81-.74c-16.13-7.35-39.64,6.07-55.52-7.5C131.13,370,110.88,439.64,107.37,491c-2.57,37.73,18.41,89.56,50.79,111.55A45.53,45.53,0,0,1,177.9,633c9.48,59.82,43.57,90,106,94.39,62.44,4.14,100.32-21.14,117.83-79.12a45.53,45.53,0,0,1,23.69-27.51c35.07-17.39,62.89-65.88,65.47-103.62C494.38,465.81,483.77,394.05,418.93,435.7Z"/><path class="cls-2" d="M178.28,476.15c11.35-10.13,27.32-12.66,41.87-8.23,10.9,3.31,20.42.47,21.66-10.31.83-7.21-5.19-14.47-13.2-15A132.07,132.07,0,0,0,166,453.7c-14.14,8.41-17,13.95-13,21.31C158.34,484.86,168.31,485,178.28,476.15Z"/><path class="cls-2" d="M431.29,493.54c-9.52-11.86-24.85-17-39.93-15.05-11.3,1.46-20.22-2.92-19.66-13.75.38-7.25,7.53-13.41,15.5-12.62a132.16,132.16,0,0,1,59.92,21.32c12.56,10.64,14.44,16.58,9.29,23.17C449.51,505.44,439.64,504,431.29,493.54Z"/><path class="cls-2" d="M378.93,616.36c-5.19-3.46-9.59-.89-13.47,3-4,4-7.82,8.45-12.26,12-11.71,9.4-28.12,10.63-39.81,3.49-5.34-3.26-8-7.81-7.87-14.23.16-6.75,5.43-6.58,9.77-8,9.25-3.06,16.31-9.48,23-16.11,10.44-10.32,10.55-23.22.92-35.25-4.17,12.71-27,31-40,31.79-2.27.14-5,0-6.85-1-14.66-8.55-28.55-17.93-32.85-36-6.38,5.92-9.84,12.86-9.11,20.44a23.35,23.35,0,0,0,.73,3.84,26.2,26.2,0,0,0,1.46,3.93,56,56,0,0,0,25.47,26.51c3.34,1.74,8.34,1.72,8,7.51s-2.69,10.53-8.08,13A34.77,34.77,0,0,1,256.34,634c-13.7-2.64-22.23-11.79-29.45-22.86-3.2-4.91-7.34-9.92-14-5.66-6.15,3.93-5.94,9.84-2.51,15.64,9.68,16.4,23.42,27.5,42.15,32.12,12,3,23.76,2.42,33.9-4.89,5.64-4.07,8.52-4.18,14,.66,22,19.28,69.09,8.38,80.85-18.18C383.61,625.6,384.57,620.13,378.93,616.36Z"/><path class="cls-2" d="M250.5,658.73a27.45,27.45,0,0,0,1.46,3.94c5.33,11.51,7.71,13.2,17.65,21.65,2.17,1.83,13.73,8,19,9.26,2.61.61,13.84,4.17,26-2.52,8.54-4.7,16.31-9.49,23-16.11,10.44-10.32,10.55-23.22.92-35.26-4.17,12.72-8.29,32.36-33.33,39-5.05,1.34-19.18-1.13-21-2.21-14.66-8.56-27.55-24.15-25.34-42-6.38,5.92-9.84,12.86-9.1,20.44A22.13,22.13,0,0,0,250.5,658.73Z"/><path class="cls-10" d="M201.06,479.84c-28.05-1.71-51.83,20-53.8,49.12-2,30.28,19.38,55.34,48.94,57.23,27.63,1.77,50.13-19.33,52.32-49.08C250.75,506.88,229.81,481.61,201.06,479.84Z"/><path class="cls-10" d="M410.5,494c-29.39-2.33-54.06,19.74-56,50.08-1.93,30,17.8,54,46,56,28.82,2,53.71-20.57,55.86-50.65C458.38,521,437.9,496.2,410.5,494Z"/><path class="cls-6" d="M238.22,525.47c-2.51-16.39-11.87-27.45-24-27.78-12-.32-23.75,11.54-26.86,27.11-.52,2.62-.76,5.31-1.18,8.36.06,3-.12,6.38.24,9.68,1.62,14.7,11.18,26.8,22,28.13,11.4,1.4,22.53-7.34,27.45-21.78A49.18,49.18,0,0,0,238.22,525.47Z"/><path class="cls-6" d="M398,508.82c-10.91-1.09-21.23,6.72-26.37,20.24a46.18,46.18,0,0,0-3.29,14.62,48.13,48.13,0,0,0,4.45,23.2c9.27,19,32.86,18.34,42.91-.66A47.76,47.76,0,0,0,420,533.1C417.14,519.55,408.28,509.86,398,508.82Z"/><circle class="cls-5" cx="198.63" cy="511.23" r="15.63"/><circle class="cls-5" cx="383.46" cy="522.04" r="15.63"/><path class="cls-9" d="M230.08,593.47h-76a47.07,47.07,0,0,1,91-16.25C238.56,580.73,233.84,587.22,230.08,593.47Z"/><path class="cls-9" d="M415.5,602.3c3.72-3.54,9.24-5.86,13.5-8.88,3.76-2.67,9.05-5.16,11-9.59a7.28,7.28,0,0,1,.95-1.59,47.07,47.07,0,0,0-88.55,17.27l61.51,5.12A7.27,7.27,0,0,1,415.5,602.3Z"/><path class="cls-4" d="M259.32,555.16c3.61,18.69,17.31,28.85,31.83,38.21,1.85,1.19,4.59,1.4,6.9,1.34,13.24-.32,37.16-18.14,41.92-31-3.27-7.2-9.44-13.08-17.08-17.23a58.58,58.58,0,0,0-22.85-6.7l-.6,0a56.87,56.87,0,0,0-7-.09C279.73,540.23,267.43,545,259.32,555.16Z"/><path class="cls-8" d="M280.44,550.23c1.72,8.91,8.26,13.76,15.18,18.22a6.05,6.05,0,0,0,3.29.64c6.31-.16,17.72-8.65,20-14.79a18.29,18.29,0,0,0-8.14-8.21,28,28,0,0,0-10.9-3.2h-.29a26.73,26.73,0,0,0-3.35,0C290.18,543.11,284.31,545.4,280.44,550.23Z"/></g></g></svg>