<svg xmlns="http://www.w3.org/2000/svg" viewBox="0 0 683.09 743.15"><defs><style>.cls-1{fill:#c4bdb8;opacity:0.23;}.cls-2{fill:#8d183b;}.cls-3{fill:#febe2a;}.cls-4{fill:#ea7624;}.cls-5{fill:#f9b321;}.cls-6{fill:#fbaf40;}.cls-7{fill:#f68e46;}.cls-8{fill:#fff;}.cls-9{fill:#02534e;}</style></defs><g id="Layer_2" data-name="Layer 2"><g id="Layer_1-2" data-name="Layer 1"><ellipse class="cls-1" cx="366.94" cy="699.44" rx="233.45" ry="43.71"/><path class="cls-2" d="M116,294.92c6.77,5.45,11.37,12.07,13,20.56a20.8,20.8,0,0,1,.33,6.56c-.47,3.71,1.45,4.36,4.47,4.35,7.44,0,13.84-2.94,19.49-7.43,4-3.14,7.41-6.88,11.21-10.21,1.75-1.54,1.36-2.41-.14-3.93-12.24-12.39-17-27.31-14.92-44.54a53.21,53.21,0,0,1,.79-6.49c.67-2.65-.06-4.56-2.86-6.26-11.33-6.9-17.58-17.5-20.23-30.25-1.08-5.2,1.54-9.63,4.59-13.54,3.43-4.39,7.2-8.5,10.88-12.69,8-9.15,10.87-20.33,12.31-32,2.4-19.52,6.55-38.59,14.13-56.78,2.81-6.76,1.43-13.38.34-20.13-2.6-16-4.47-32-1.15-48.19a39.94,39.94,0,0,1,2.84-8.77c5.19-11.15,13.7-15.07,25.69-12.11,10.21,2.52,19,7.74,27.46,13.7C232.92,32.92,241.6,39,250,45.51c6.35,4.92,13,6.08,20.71,4.31a265.11,265.11,0,0,1,49.74-7.06c25.15-.94,50.12.56,74.63,6.86,3.73,1,7.54,1.65,11.32,2.38,3.33.64,6-1,8.68-2.65,11-6.66,20.77-14.93,31.22-22.32s20.84-14.3,33.17-17.93c12.61-3.72,21.28,1.59,26,12.85,3.82,9.09,4.29,18.75,3.65,28.56-.84,12.83-4,25.2-6.95,37.6-1,4.12.39,7.7,1.35,11.35a209.53,209.53,0,0,1,6.8,48.56c.39,17.64,5.65,33.5,18,46.66a63.05,63.05,0,0,1,10,14.64c2.65,5.15,3.06,10.28.59,15.59-5.23,11.27-13.49,19.79-24.06,26.09-1.83,1.09-2.47,2.06-2.36,4.18.56,9.88-.06,19.65-3.85,28.95-.86,2.12.32,2.55,1.75,3.32,14.37,7.7,28.22,16.2,40.68,26.8,12.81,10.9,23.93,23.23,32.58,37.77,14,23.61,13.65,47,0,70.63-9.55,16.52-22.65,29.86-37.1,42-1.59,1.35-2.33,2.15-1.3,4.37a24.73,24.73,0,0,1,2.29,12.06c-.26,3.78,1,4.93,4.7,4.78,18.63-.76,35.45-6.47,49.93-18.3,17.2-14,26.42-32.41,29.57-54.29,4-27.59-1.9-53.3-13.82-77.94-6.33-13.09-12.62-26.17-17.39-39.92a5.11,5.11,0,0,0-2.48-3.21c-17.48-9.3-26.78-24.72-30.92-43.32-5.89-26.43,1.55-49.81,18.27-70.5a81.58,81.58,0,0,1,41.24-27.52,36.28,36.28,0,0,1,11.12-1.34c7,.14,11.18,5.55,9.09,12.32a144,144,0,0,1-5.15,13.7c-6.18,14.47-4.61,28.1,3.79,41.25,5,7.8,10.19,15.52,13,24.47,5.71,17.85,2.21,33.61-11,47-1.64,1.67-1.4,2.78-.61,4.59,5.6,12.74,12.87,24.63,18.64,37.28,7.94,17.39,14.43,35.3,16.49,54.36a143.11,143.11,0,0,1-.22,35.69c-1.71,12-4,23.79-8.7,34.94-18.35,43.22-51.26,69-96.38,80-18,4.38-36.26,4.38-54.37,1.42-18.45-3-36.28-8.38-52.72-18.38,2.49,7.41,5.07,14.63,7.33,21.94,4.46,14.38,7.56,29,6.64,44.18-.3,4.95-.07,10-1.26,14.86-.64,2.61.14,4.63,2,6.61,9.4,9.84,18.55,19.88,25.3,31.85C516.67,650,520.47,663,516.87,677c-4.78,18.6-17.71,28.31-36.12,31.78-20.59,3.89-37.81-4-53.45-16.33S399,665.51,387,649.93c-4.41-5.74-5-12.51-6.1-19.26a363.93,363.93,0,0,0-25.41-88c-3.08-7.12-3.11-7.19-10.81-6.57a144.33,144.33,0,0,1-34.05-1.69c-3.41-.54-5.17.21-6.12,4A292.62,292.62,0,0,0,297,577.9c-1.15,10.59,2.88,19.15,10.36,26.42,2.76,2.68,5.83,5.16,7.37,8.9a22.06,22.06,0,0,1,.83,15.1c-5.23,17.63-10.85,35.12-20.15,51.15-11.63,20-29.41,30.19-52.12,32.65a94.74,94.74,0,0,1-37.82-4c-21.08-6.36-29.55-23.29-22.73-44.22,3.58-11,10-20,18.14-28,3.73-3.69,3.55-3.68-.37-6.9-11.9-9.8-18.9-22.28-20.64-37.71-2.3-20.41.54-40.42,4.38-60.38,3.73-19.45,9-38.52,13.87-57.7a6.8,6.8,0,0,0-.62-5.53c-8.75-14.93-16-30.53-20.68-47.23-.67-2.41-1.79-1.06-2.84-.62a126.43,126.43,0,0,1-26.48,8,89,89,0,0,1-57.1-8.26c-2-1-2.94-.78-4.55.53-15.57,12.66-39.32,9.19-48.8-7.05-2.24-3.84-4-8-3.51-12.46.37-3.83-1.37-6.22-4.26-7.82-8.49-4.72-10-12.55-9.45-21.11.26-4.3-.36-15-1.88-19.07-2.79-7.38-1.81-14.74.25-22.05a4.27,4.27,0,0,0-.08-3.63c-5.52-10.39-3.14-19.88,3.54-28.8.77-1,1.58-2,2.58-3.28-4-.93-7.87.12-11.63-.92-8-2.2-12.56-7.7-12.6-15.89q0-9.35,0-18.69c.08-9.76,6.63-16.31,16.27-16.33,3.12,0,6.24-.13,9.34,0,2.12.12,2.62-.6,2.48-2.63-.71-10.21-1.25-20.44-1.91-30.66-.91-14.09-1.88-28.19-2.81-42.29Q22,145.81,20.58,124.12c-.63-9.68-1.19-19.36-1.85-29C18.05,85,17.36,74.92,16.55,64.85a20.53,20.53,0,0,1,4.74-15.5C33,35.47,43.89,21,55,6.67c2.7-3.5,5.72-7,10.29-6.65,3.26.25,6.88,1.4,9.2,4.47,9.76,12.89,19.48,25.81,29.35,38.62,4.32,5.61,9.56,10.69,9.19,18.58-.26,5.7-.54,11.4-.87,17.1-.44,7.63-1,15.26-1.39,22.9q-1.5,26.79-2.94,53.59-.49,9.12-1,18.25c-.53,10.42-1,20.84-1.58,31.26q-1,18.15-2.11,36.3c-.11,1.74.69,2,2,1.95a76.72,76.72,0,0,0,8.17,0c8.37-1,16.29,5,17.36,14.59a94.78,94.78,0,0,1-.08,22.14c-.93,7.45-5.19,12.46-12.76,14.26A10.88,10.88,0,0,0,116,294.92Zm89,397.94c-.18-1.07-.3-1.69-.39-2.31a38.8,38.8,0,0,1,5.53-26.06c1.53-2.56,3.65-4.12,6.8-2.85,2.91,1.17,3.71,4,2,7.55a35.19,35.19,0,0,0-3.79,17.52c.3,6.11,2.42,9.87,6.18,10.25,4.25.44,8.53.51,12.8.8,2.34.16,3.58-.38,2.4-3a17.5,17.5,0,0,1-1.07-6.36,41.47,41.47,0,0,1,4.91-22.48c1.31-2.4,3.32-3.76,6.11-2.7s3.7,3.44,3,6.33c-.34,1.37-.91,2.69-1.3,4.06-1.91,6.72-2.83,13.43.25,20.12.87,1.88,1.8,2.59,4.15,2,11.56-2.67,20.52-9.2,27.48-18.48,11.43-15.23,16.9-33,21.56-51.17,1.09-4.25.1-7.48-3-10.53-11.63-11.58-17.67-25-15.1-42,2-13.44,3.49-26.95,7.73-39.94.76-2.35.23-3.08-2-3.76a68.13,68.13,0,0,1-20.83-10.21c-3.55-2.65-4.48-5.73-2.8-8.68,1.79-3.11,4.93-3.75,9.13-1.68A133.3,133.3,0,0,0,287.05,515c17.6,6.59,35.93,7.43,54.41,6.91,4.09-.12,8.18.09,12.31-.68,6-1.12,9.22,1.22,11.2,6.86,1.24,3.54,2.51,7.07,3.92,10.55,11.76,29,21.79,58.41,26.27,89.48.85,5.85,2.23,11.24,5.9,16.15a206.73,206.73,0,0,0,27.1,29.45c8.78,8,18.11,15.11,29.71,18.66,2,.62,2.86.44,3.48-1.82a24.41,24.41,0,0,0,.23-13.76,64.22,64.22,0,0,0-4.7-10.63c-2.05-4.12.34-8.11,4.57-8,2.56.08,3.89,1.92,5.09,3.76,6.68,10.21,9.62,21.13,5.84,33.22,13.6.55,17.8-4.24,17.78-15.24a33,33,0,0,0-4.58-16.65c-.81-1.43-2-2.83-1.55-4.67.49-2.15,1.6-3.81,3.89-4.4,2.63-.67,4.52.41,6,2.49,4.11,5.72,6.49,12.17,8.16,19a35.11,35.11,0,0,0,1.17-7c.57-12.49-5-22.82-11.8-32.63-5.76-8.34-12.6-15.81-19.63-23.11-3.46-3.59-4.92-7.54-3.85-12.71,2.61-12.59,2.85-25.37-.4-37.81-6.88-26.27-14.9-52.15-27.82-76.27-10.93-20.4-8.69-40,6.17-57.73a16.77,16.77,0,0,0,2.71-5.09c4.26-11.28,7.13-23,10.7-34.46,1.63-5.23,2-9.33-3.36-12.38a6.27,6.27,0,0,1-2.17-2.68c-1.56-3.13-2.56-6.5,0-9.45,2.73-3.12,6.21-2.3,9.23-.45,9.5,5.8,19.32,11.12,28.29,17.77,5.82,4.33,6.87,8.7,3.45,15.19-5.27,10-12.54,18.37-20.94,25.86-5.8,5.18-12.54,9.24-17.85,15-6.85,7.44-10,16.12-9,26.29,1,10,5.65,18.25,12.36,25.38,8.64,9.17,19,15.26,31.67,17.47,10.94,1.91,21.45,1.52,31.17-4.3,6.64-4,10.64-9.87,11.5-18.58-5.2,4.51-10.34,7.66-16.27,9.35-5.34,1.53-10.68,2.18-15.93-.27-2.15-1-3.61-2.66-3.55-5.12a5.32,5.32,0,0,1,3-4.67c1.42-.77,3-.55,4.57-.6,7.29-.19,14.09-1.82,19.86-6.63,2.63-2.19,3.35-4.54,1.93-7.86-2.38-5.54-1.41-8,3.62-10.9A104.71,104.71,0,0,0,574,411c4.52-9.31,7.3-19.07,5.81-29.67C578,369,572.3,358.54,565,348.82c-15-20-34.82-34.25-56.7-45.84-2.17-1.15-4.35-3.21-6.52-3.21-2.51,0-3.51,3.32-5.25,5.11-11,11.32-17.06,11.34-27.09,4.48-2.2-1.5-3-.39-4.19,1.28-11.76,16.56-27,28.43-46.49,34.72-7.84,2.54-14.61,1.63-19.46-5.94-8.74,9-19.15,14.83-30.81,18.55-4.18,1.33-8.41,1.86-12.54,0a3.69,3.69,0,0,0-4.24.68c-10,7.77-21.41,13.06-33.06,17.86a18,18,0,0,1-15.75-.47c-21.08-10.73-41.76-22-57.66-40.2-7,8.49-13.33,10.32-23.11,5.95-14.76-6.59-26.59-16.57-33.59-31.48-1.24-2.63-1.91-2.59-3.82-.7-6.44,6.4-12.72,13-19.58,18.94-10.88,9.5-23,14.42-37.55,10.62-.89-.23-1.91-.65-2.39.45-1.1,2.54-3.25,4.59-2.89,7.83a44.49,44.49,0,0,1,0,9.72c-1.91,17-8.81,31.38-23.56,40.87-3,2-2.89,4.32-3.11,6.79s2.53,2.5,4.09,3.21c24.06,10.89,47.7,7.63,71.15-2.2,1.63-.69,1.94-1.47,1.65-3.23A104.67,104.67,0,0,1,171.29,391,137.59,137.59,0,0,1,177.64,342c1.12-3.58,2.75-6.71,6.38-8.35,2.35-1.06,4.72-1.68,6.89.29s2.12,4.45,1.23,6.84a111.07,111.07,0,0,0-5.88,57.29C190,421.2,197.44,443,211.17,462.27a12.26,12.26,0,0,1,1.76,11.39c-4.33,14.35-8.33,28.78-11.61,43.4-4.55,20.25-8.35,40.6-8.42,61.47-.07,19.35,5.79,35.36,24.09,44.92,4.81,2.52,5.47,6.48,2.68,11.2s-6.87,8.09-10.48,12c-7.09,7.64-12.41,16.21-14.13,26.72C193.65,681.94,197.4,689.77,205,692.86ZM164.13,265.57c-.38,10.57,2.22,19.67,8.89,27.48,1.72,2,3,2.86,5.21.56a87.71,87.71,0,0,1,7.34-6.37c6.22-5.16,10.53-3.65,12.39,4.29.21.88.45,1.76.67,2.64a46.25,46.25,0,0,0,22.64,30.21c9.38,5.42,12,4.59,16.89-5.07,3.93-7.67,9-7.9,13.72-.54A68.57,68.57,0,0,0,259.65,329c13.4,14,30,23.32,47.24,31.55a10.92,10.92,0,0,0,8.74.64c13.17-5.27,25.92-11.31,35.59-22.19,4.15-4.67,7.06-4.46,10,1.06,1.25,2.32,3,3.27,5.42,2.34,11.51-4.48,22.36-9.86,28.09-21.81,1.26-2.63,3-4.46,6.25-4.37s4.6,2.31,5.71,5c4.35,10.42,7,11.4,17.36,6.6.11-.05.22-.13.34-.19,15-8,27.6-18.22,33.17-35.26,2.48-7.57,7.31-8.29,13-2.57,2.38,2.39,4.85,4.69,7.3,7s4.52,2,6.75-.26a46.3,46.3,0,0,0,5.31-6.69c6.11-9.24,7.66-19.63,7.75-30.41,0-4.15.15-8.3.38-12.44.17-3,1.92-5,4.79-5.91,6.06-2,11-5.7,15.42-10.18,9.19-9.27,9.54-13.9,1.77-24.13-.15-.2-.33-.4-.49-.6-5.69-7.55-11.59-15-16.14-23.31-6.12-11.22-6.17-23.69-7.15-35.89-1.36-17.08-3.24-34-8.48-50.44a17.62,17.62,0,0,1-.35-10.2,223.61,223.61,0,0,0,5.66-24.83c1.58-10.2,2.05-20.38-.15-30.53-1.62-7.46-5.62-9.64-12.82-7.08-5.78,2.05-10.89,5.38-16.08,8.57-13.39,8.25-25.4,18.39-38.05,27.66-9,6.63-18.39,8.47-29.26,5.38-17.14-4.87-34.8-6.83-52.56-7.6-23.82-1-47.33,1.64-70.59,6.68-7.12,1.54-14.24,2.68-21.25-.62-9.12-4.29-16.79-10.73-24.79-16.66-9.59-7.1-19.08-14.36-30.47-18.45-9.06-3.25-12.27-1.48-14.64,7.77-.06.25-.08.51-.13.76-3,13.51-1.36,26.91,1.31,40.18,1.91,9.46,3.75,18.48-.63,28-7.79,16.94-11.4,35.15-13.93,53.53-2,14.54-5.17,28.56-15,40.12-2.87,3.35-5.47,6.94-8.44,10.18-3.94,4.28-4.34,8.69-1.82,13.86,3.57,7.32,9.18,12.35,16.23,16.15,6.07,3.27,6.79,5.29,5.6,12A83.39,83.39,0,0,0,164.13,265.57ZM65.49,243v.13c6.49,0,13-.07,19.46,0,2.16,0,3.17-.29,3.3-2.87,1.15-22.34,2.53-44.68,3.73-67,.87-16.22,1.14-32.49,2.49-48.68,1.11-13.39,1.06-26.83,2.23-40.21.55-6.33.6-12.7,1.17-19a11.25,11.25,0,0,0-2.43-8.68C85.81,44.94,77,32.57,68,20.4c-1.91-2.57-3-2.7-5,0C53.44,33,44.11,45.74,33.55,57.54a9.27,9.27,0,0,0-2.26,7.19c.86,12.4,1.5,24.82,2.51,37.2,1.67,20.36,2.59,40.77,4.27,61.14,1.19,14.52,1.56,29.13,2.53,43.69.75,11.24,1.59,22.46,2.24,33.7.12,2.12.87,2.58,2.8,2.55C52.26,242.92,58.87,243,65.49,243ZM514.73,520a28.39,28.39,0,0,0,2.87.92c20.51,3.84,41,4,61.28-1.19,52.84-13.48,88.17-57.95,90-113.06.83-24.78-5.63-47.92-15.8-70.2-6.12-13.41-13.91-26-19.61-39.62-.8-1.91-2-1.76-3.35-1.53a45.54,45.54,0,0,1-10.85.78c-3.42-.23-3.13,1.22-2.08,3.47,3.89,8.33,7.59,16.75,11.63,25,14.12,28.81,22.8,58.64,17.62,91.14-4,25.45-15.29,46.92-35.6,63.13-18.77,15-40.48,21.47-64.35,21.19-1.63,0-3.15-.4-4.32,1.57C536.13,511.87,526.39,516.89,514.73,520ZM630.15,165.62c-40.22,11-59.25,56.87-46,89.59,6.34,15.64,17.91,29.14,40.58,26.85,10.38-1.05,17.55-6.37,20-16.5a36.61,36.61,0,0,0-1.23-21.78c-2.09-5.67-5.38-10.62-8.68-15.58C621.7,208.43,618.77,187.83,630.15,165.62Zm-564.6,92.2v0c-15.7,0-31.4.1-47.1-.07-3.54,0-5,1-4.79,4.61.21,4.66.2,9.35,0,14-.12,3.47,1.6,4.66,4.71,4.65,4.67,0,9.35,0,14,0l79.41.12c4.54,0,5.13-.61,5.13-5.19,0-4.28,0-8.57,0-12.85,0-5.28,0-5.29-5.08-5.29ZM89.12,296c-13.3,0-25.85,0-38.39,0a12.29,12.29,0,0,0-4.18.83c-7.29,2.68-14.29,5.86-17.17,13.91-2.15,6,1.19,10.84,7.51,10.89,11.42.09,22.84,0,34.25.13,2.44,0,3-1,3.45-3C76.44,309.71,81.32,302.43,89.12,296Zm-33.48,58.3v0c5,0,10.1-.06,15.14,0,2.63,0,4.94-.63,6.54-2.73,3-4,3.85-8.39,1.62-13.08-2-4.24-5.52-5.86-10.08-5.77-10,.19-20.11,0-30.17.56-4.2.22-6.56,2.08-8,5.51-3.25,7.82,2.06,15.52,10.57,15.51Zm1.29,10.91V365c-4.92,0-9.83.05-14.75,0a9,9,0,0,0-8.66,7.23c-1.18,7,3.08,12.35,10.22,12.49,8.41.17,16.82.07,25.23.08,8.08,0,12.44-6.09,9.88-13.81-1.48-4.45-3.23-5.73-7.94-5.75Zm30.24-41.39a36.23,36.23,0,0,0,.23,4.07c1,5.76,3.38,10.77,9.29,12.81,4.61,1.59,9,.32,12.62-2.87,7.55-6.61,8.91-19.94,2.94-28-3.87-5.2-10.24-6.55-15.8-3.16C90,310.67,87.49,316.79,87.17,323.86Zm-6.48,72.31c-4.37,1.57-8.91,1.23-13.42,1.25s-9,0-13.57,0c-6.48,0-7.58,2-4.24,7.8a13.53,13.53,0,0,0,1.87,2.46c5,5.4,12.7,6.8,20.38,3.76C78.7,408.69,81.55,403.88,80.69,396.17ZM95.77,383c7.77-7.75,11.85-16.16,11.09-26.54-.09-1.18.35-2.88-1.89-2.41-3.46.72-7,.37-10.43.39-.85,0-2.12-.43-2.33.71-.64,3.45-2.63,6.79-.95,10.49A50.62,50.62,0,0,1,95.77,383ZM468.09,409a50.6,50.6,0,0,0,9.56-10.5c3.36-5.18,3.15-6.08-2.4-8.52-.81-.35-1.35-.67-1.69.48Q470.85,399.7,468.09,409Z"/><path class="cls-3" d="M205,692.86c-7.55-3.09-11.3-10.92-9.89-19.5,1.72-10.51,7-19.08,14.13-26.72,3.61-3.9,7.74-7.35,10.48-12s2.13-8.68-2.68-11.2c-18.3-9.56-24.16-25.57-24.09-44.92.07-20.87,3.87-41.22,8.42-61.47,3.28-14.62,7.28-29,11.61-43.4a12.26,12.26,0,0,0-1.76-11.39C197.44,443,190,421.2,186.26,398.05a111.07,111.07,0,0,1,5.88-57.29c.89-2.39.9-4.92-1.23-6.84s-4.54-1.35-6.89-.29c-3.63,1.64-5.26,4.77-6.38,8.35A137.59,137.59,0,0,0,171.29,391a104.67,104.67,0,0,0,1.22,11.59c.29,1.76,0,2.54-1.65,3.23-23.45,9.83-47.09,13.09-71.15,2.2-1.56-.71-4.33-.62-4.09-3.21s.06-4.83,3.11-6.79c14.75-9.49,21.65-23.85,23.56-40.87a44.49,44.49,0,0,0,0-9.72c-.36-3.24,1.79-5.29,2.89-7.83.48-1.1,1.5-.68,2.39-.45,14.59,3.8,26.67-1.12,37.55-10.62,6.86-6,13.14-12.54,19.58-18.94,1.91-1.89,2.58-1.93,3.82.7,7,14.91,18.83,24.89,33.59,31.48,9.78,4.37,16.08,2.54,23.11-5.95,15.9,18.17,36.58,29.47,57.66,40.2a18,18,0,0,0,15.75.47c11.65-4.8,23-10.09,33.06-17.86a3.69,3.69,0,0,1,4.24-.68c4.13,1.84,8.36,1.31,12.54,0,11.66-3.72,22.07-9.55,30.81-18.55,4.85,7.57,11.62,8.48,19.46,5.94,19.45-6.29,34.73-18.16,46.49-34.72,1.19-1.67,2-2.78,4.19-1.28,10,6.86,16.13,6.84,27.09-4.48,1.74-1.79,2.74-5.12,5.25-5.11,2.17,0,4.35,2.06,6.52,3.21,21.88,11.59,41.65,25.84,56.7,45.84,7.31,9.72,13,20.21,14.77,32.53,1.49,10.6-1.29,20.36-5.81,29.67a104.71,104.71,0,0,1-43,46.3c-5,2.87-6,5.36-3.62,10.9,1.42,3.32.7,5.67-1.93,7.86-5.77,4.81-12.57,6.44-19.86,6.63-1.55.05-3.15-.17-4.57.6a5.32,5.32,0,0,0-3,4.67c-.06,2.46,1.4,4.12,3.55,5.12,5.25,2.45,10.59,1.8,15.93.27,5.93-1.69,11.07-4.84,16.27-9.35-.86,8.71-4.86,14.6-11.5,18.58-9.72,5.82-20.23,6.21-31.17,4.3-12.64-2.21-23-8.3-31.67-17.47C452.63,482.3,448,474.05,447,464.05c-1-10.17,2.19-18.85,9-26.29,5.31-5.76,12.05-9.82,17.85-15,8.4-7.49,15.67-15.89,20.94-25.86,3.42-6.49,2.37-10.86-3.45-15.19-9-6.65-18.79-12-28.29-17.77-3-1.85-6.5-2.67-9.23.45-2.59,2.95-1.59,6.32,0,9.45a6.27,6.27,0,0,0,2.17,2.68c5.4,3.05,5,7.15,3.36,12.38-3.57,11.48-6.44,23.18-10.7,34.46a16.77,16.77,0,0,1-2.71,5.09c-14.86,17.72-17.1,37.33-6.17,57.73,12.92,24.12,20.94,50,27.82,76.27,3.25,12.44,3,25.22.4,37.81-1.07,5.17.39,9.12,3.85,12.71,7,7.3,13.87,14.77,19.63,23.11,6.78,9.81,12.37,20.14,11.8,32.63a35.11,35.11,0,0,1-1.17,7c-1.67-6.87-4-13.32-8.16-19-1.49-2.08-3.38-3.16-6-2.49-2.29.59-3.4,2.25-3.89,4.4-.42,1.84.74,3.24,1.55,4.67a33,33,0,0,1,4.58,16.65c0,11-4.18,15.79-17.78,15.24,3.78-12.09.84-23-5.84-33.22-1.2-1.84-2.53-3.68-5.09-3.76-4.23-.13-6.62,3.86-4.57,8a64.22,64.22,0,0,1,4.7,10.63,24.41,24.41,0,0,1-.23,13.76c-.62,2.26-1.47,2.44-3.48,1.82-11.6-3.55-20.93-10.7-29.71-18.66a206.73,206.73,0,0,1-27.1-29.45c-3.67-4.91-5.05-10.3-5.9-16.15-4.48-31.07-14.51-60.53-26.27-89.48-1.41-3.48-2.68-7-3.92-10.55-2-5.64-5.24-8-11.2-6.86-4.13.77-8.22.56-12.31.68-18.48.52-36.81-.32-54.41-6.91a133.3,133.3,0,0,1-12.35-5.63c-4.2-2.07-7.34-1.43-9.13,1.68-1.68,2.95-.75,6,2.8,8.68a68.13,68.13,0,0,0,20.83,10.21c2.19.68,2.72,1.41,2,3.76-4.24,13-5.7,26.5-7.73,39.94-2.57,17,3.47,30.38,15.1,42,3.06,3,4.05,6.28,3,10.53-4.66,18.14-10.13,35.94-21.56,51.17-7,9.28-15.92,15.81-27.48,18.48-2.35.54-3.28-.17-4.15-2-3.08-6.69-2.16-13.4-.25-20.12.39-1.37,1-2.69,1.3-4.06.73-2.89,0-5.23-3-6.33s-4.8.3-6.11,2.7a41.47,41.47,0,0,0-4.91,22.48,17.5,17.5,0,0,0,1.07,6.36c1.18,2.62-.06,3.16-2.4,3-4.27-.29-8.55-.36-12.8-.8-3.76-.38-5.88-4.14-6.18-10.25a35.19,35.19,0,0,1,3.79-17.52c1.76-3.56,1-6.38-2-7.55-3.15-1.27-5.27.29-6.8,2.85a38.8,38.8,0,0,0-5.53,26.06C204.65,691.17,204.77,691.79,205,692.86Z"/><path class="cls-3" d="M164.13,265.57a83.39,83.39,0,0,1,1.46-14.21c1.19-6.73.47-8.75-5.6-12-7.05-3.8-12.66-8.83-16.23-16.15-2.52-5.17-2.12-9.58,1.82-13.86,3-3.24,5.57-6.83,8.44-10.18,9.88-11.56,13-25.58,15-40.12,2.53-18.38,6.14-36.59,13.93-53.53,4.38-9.53,2.54-18.55.63-28-2.67-13.27-4.35-26.67-1.31-40.18.05-.25.07-.51.13-.76,2.37-9.25,5.58-11,14.64-7.77,11.39,4.09,20.88,11.35,30.47,18.45,8,5.93,15.67,12.37,24.79,16.66,7,3.3,14.13,2.16,21.25.62,23.26-5,46.77-7.72,70.59-6.68,17.76.77,35.42,2.73,52.56,7.6C407.62,68.52,417,66.68,426,60.05c12.65-9.27,24.66-19.41,38.05-27.66,5.19-3.19,10.3-6.52,16.08-8.57,7.2-2.56,11.2-.38,12.82,7.08,2.2,10.15,1.73,20.33.15,30.53a223.61,223.61,0,0,1-5.66,24.83,17.62,17.62,0,0,0,.35,10.2c5.24,16.42,7.12,33.36,8.48,50.44,1,12.2,1,24.67,7.15,35.89,4.55,8.35,10.45,15.76,16.14,23.31.16.2.34.4.49.6,7.77,10.23,7.42,14.86-1.77,24.13-4.43,4.48-9.36,8.18-15.42,10.18-2.87.94-4.62,2.87-4.79,5.91-.23,4.14-.34,8.29-.38,12.44-.09,10.78-1.64,21.17-7.75,30.41a46.3,46.3,0,0,1-5.31,6.69c-2.23,2.31-4.43,2.44-6.75.26s-4.92-4.61-7.3-7c-5.69-5.72-10.52-5-13,2.57-5.57,17-18.13,27.26-33.17,35.26-.12.06-.23.14-.34.19-10.35,4.8-13,3.82-17.36-6.6-1.11-2.65-2.38-4.87-5.71-5s-5,1.74-6.25,4.37c-5.73,11.95-16.58,17.33-28.09,21.81-2.4.93-4.17,0-5.42-2.34-3-5.52-5.88-5.73-10-1.06-9.67,10.88-22.42,16.92-35.59,22.19a10.92,10.92,0,0,1-8.74-.64C289.63,352.28,273.05,343,259.65,329a68.57,68.57,0,0,1-7.77-10.19c-4.77-7.36-9.79-7.13-13.72.54-4.93,9.66-7.51,10.49-16.89,5.07a46.25,46.25,0,0,1-22.64-30.21c-.22-.88-.46-1.76-.67-2.64-1.86-7.94-6.17-9.45-12.39-4.29a87.71,87.71,0,0,0-7.34,6.37c-2.21,2.3-3.49,1.45-5.21-.56C166.35,285.24,163.75,276.14,164.13,265.57Zm90.64-55.06c5.64,3.41,5.64,3.41,10.62-1.07a34,34,0,0,0,8-10.92,58.25,58.25,0,0,0,4-38.59c-3.06-13.61-10.77-23.54-24.15-28-13.6-4.49-25.8-.88-36.26,8.55-8.69,7.83-12.84,18-14,29.43-1.36,13.22,1.64,25.42,9.91,36.05.67.87,1.2,2.29,3.07,1.48,6.71-2.9,13.85-2.83,21-2.66A90.59,90.59,0,0,1,254.77,210.51Zm176.88-5.73a11.57,11.57,0,0,1,1.77.74c3.37,2.21,5.27,1,7.14-2.3,7.55-13.21,9.4-27.4,6.36-42-3.42-16.4-13.44-27.81-30-31.62-16.86-3.87-30.58,2.55-40.61,16.31-9.14,12.53-10.94,26.78-8.21,41.77A45.43,45.43,0,0,0,379,210.06c1.13,1.27,2,2.35,4.2,1.25,4.59-2.33,9.39-4.23,14.11-6.31A69.4,69.4,0,0,1,431.65,204.78ZM315.81,189.37c-11.16-.05-20.17,1.95-28.29,7.08-7.87,5-9.91,12-6,20.44a30.8,30.8,0,0,0,3,5c4.39,6.09,10.14,10.7,16.39,14.73,4,2.6,4.8,5.12,3,9.55-2.41,5.9-9.5,10.13-16.54,9.15-11.52-1.61-20.61-6.62-24.15-18.75a8.59,8.59,0,0,0-9.41-5.88c-3.78.67-5.67,3.66-5.45,8.56a19.42,19.42,0,0,0,1.52,6.77c3.05,7.22,8.43,12.33,14.74,16.63,15.23,10.37,31.94,10.33,46.67-.39,2.1-1.53,3.12-.66,4.63.35a49.29,49.29,0,0,0,70.35-16.78c1.64-2.93,3.23-5.94,3.35-9.43.13-3.87-2.19-6.35-6-6.61-5.64-.37-8.3,3.32-10.59,7.63-4.93,9.31-12.2,15.8-22.79,17.69-8.32,1.48-16.55,1.22-23.78-4.06-6.65-4.86-6.44-10.81.44-15.13.33-.21.66-.41,1-.63,6.67-4.39,12.71-9.48,16.88-16.4,6.41-10.63,3.71-19.44-7.48-24.9C329.94,190.43,322.12,189.59,315.81,189.37ZM401.7,92.05c-2.42.23-5.41.35-8.34.83-5.48.9-11,1.71-15.85,4.8a11.1,11.1,0,0,0-4.91,11.79,9,9,0,0,0,7.72,7.21c2.8.43,5.39-.67,7.94-1.51,16.51-5.47,31.87-4,45.76,7.18a18.08,18.08,0,0,0,4,2.38c3.35,1.5,6.71,1.51,9.25-1.42s3.06-6.34.82-9.69a45,45,0,0,0-5.31-6.66C431.6,95.71,417.34,92.78,401.7,92.05ZM269.89,117.77c5.75.11,10.25-5.77,8.72-12.21-1.29-5.48-5.47-8-10.25-9.66-15.64-5.5-30.58-3.47-44.81,4.62a39,39,0,0,0-13.31,12.29c-2.27,3.43-2.17,7.72,0,10.11,2.42,2.64,5.76,2.77,9.89.35,1.23-.72,2.44-1.48,3.59-2.31,10.85-7.81,22.63-9.51,35.4-5.77C262.47,116.17,265.66,117.78,269.89,117.77Z"/><path class="cls-3" d="M65.49,243c-6.62,0-13.23-.06-19.85,0-1.93,0-2.68-.43-2.8-2.55-.65-11.24-1.49-22.46-2.24-33.7-1-14.56-1.34-29.17-2.53-43.69-1.68-20.37-2.6-40.78-4.27-61.14-1-12.38-1.65-24.8-2.51-37.2a9.27,9.27,0,0,1,2.26-7.19C44.11,45.74,53.44,33,63,20.36c2-2.66,3.08-2.53,5,0,9,12.17,17.82,24.54,27.45,36.27a11.25,11.25,0,0,1,2.43,8.68c-.57,6.32-.62,12.69-1.17,19-1.17,13.38-1.12,26.82-2.23,40.21C93.12,140.77,92.85,157,92,173.26c-1.2,22.34-2.58,44.68-3.73,67-.13,2.58-1.14,2.91-3.3,2.87-6.48-.11-13,0-19.46,0Z"/><path class="cls-3" d="M514.73,520c11.66-3.12,21.4-8.14,27.47-18.41,1.17-2,2.69-1.59,4.32-1.57,23.87.28,45.58-6.21,64.35-21.19,20.31-16.21,31.56-37.68,35.6-63.13,5.18-32.5-3.5-62.33-17.62-91.14-4-8.24-7.74-16.66-11.63-25-1.05-2.25-1.34-3.7,2.08-3.47a45.54,45.54,0,0,0,10.85-.78c1.39-.23,2.55-.38,3.35,1.53,5.7,13.62,13.49,26.21,19.61,39.62,10.17,22.28,16.63,45.42,15.8,70.2-1.86,55.11-37.19,99.58-90,113.06-20.3,5.17-40.77,5-61.28,1.19A28.39,28.39,0,0,1,514.73,520Z"/><path class="cls-4" d="M630.15,165.62c-11.38,22.21-8.45,42.81,4.69,62.58,3.3,5,6.59,9.91,8.68,15.58a36.61,36.61,0,0,1,1.23,21.78c-2.46,10.13-9.63,15.45-20,16.5-22.67,2.29-34.24-11.21-40.58-26.85C570.9,222.49,589.93,176.6,630.15,165.62Z"/><path class="cls-3" d="M65.55,257.82h46.33c5.1,0,5.09,0,5.08,5.29,0,4.28,0,8.57,0,12.85,0,4.58-.59,5.2-5.13,5.19L32.42,281c-4.67,0-9.35,0-14,0-3.11,0-4.83-1.18-4.71-4.65.17-4.66.18-9.35,0-14-.17-3.61,1.25-4.65,4.79-4.61,15.7.17,31.4.07,47.1.07Z"/><path class="cls-3" d="M89.12,296c-7.8,6.39-12.68,13.67-14.53,22.81-.41,2-1,3-3.45,3-11.41-.18-22.83,0-34.25-.13-6.32,0-9.66-4.85-7.51-10.89,2.88-8.05,9.88-11.23,17.17-13.91a12.29,12.29,0,0,1,4.18-.83C63.27,296,75.82,296,89.12,296Z"/><path class="cls-3" d="M55.64,354.34H41.28c-8.51,0-13.82-7.69-10.57-15.51,1.42-3.43,3.78-5.29,8-5.51,10.06-.53,20.12-.37,30.17-.56,4.56-.09,8.07,1.53,10.08,5.77,2.23,4.69,1.42,9.07-1.62,13.08-1.6,2.1-3.91,2.77-6.54,2.73-5-.08-10.09,0-15.14,0Z"/><path class="cls-3" d="M56.93,365.25h14c4.71,0,6.46,1.3,7.94,5.75,2.56,7.72-1.8,13.82-9.88,13.81-8.41,0-16.82.09-25.23-.08-7.14-.14-11.4-5.49-10.22-12.49A9,9,0,0,1,42.18,365c4.92.06,9.83,0,14.75,0Z"/><path class="cls-3" d="M87.17,323.86c.32-7.07,2.85-13.19,9.28-17.11,5.56-3.39,11.93-2,15.8,3.16,6,8,4.61,21.35-2.94,28-3.65,3.19-8,4.46-12.62,2.87-5.91-2-8.27-7.05-9.29-12.81A36.23,36.23,0,0,1,87.17,323.86Z"/><path class="cls-3" d="M80.69,396.17c.86,7.71-2,12.52-9,15.29-7.68,3-15.37,1.64-20.38-3.76a13.53,13.53,0,0,1-1.87-2.46c-3.34-5.81-2.24-7.81,4.24-7.8,4.52,0,9,0,13.57,0S76.32,397.74,80.69,396.17Z"/><path class="cls-3" d="M95.77,383a50.62,50.62,0,0,0-4.51-17.36c-1.68-3.7.31-7,.95-10.49.21-1.14,1.48-.71,2.33-.71,3.48,0,7,.33,10.43-.39,2.24-.47,1.8,1.23,1.89,2.41C107.62,366.84,103.54,375.25,95.77,383Z"/><path class="cls-5" d="M313.65,199c5.81.24,11.66.4,17,3.31,4.78,2.63,5.65,5.65,2.71,10.17-4.59,7.08-11.58,11.31-18.73,15.32-1.3.73-2.28-.05-3.25-.53a45.47,45.47,0,0,1-15.89-12.82c-5-6.43-3.39-11.16,4.4-13.72a15.65,15.65,0,0,1,3.75-1C306.94,199.51,310.25,198.65,313.65,199Z"/><path class="cls-6" d="M65.31,18.43c-1.47-.17-2.81,1-4.5,3.1-8.6,10.6-17.36,21.1-26.38,31.39a19.7,19.7,0,0,0-5.07,15.15c1.35,21.92,2.44,43.85,3.73,65.78,1.78,30.28,3.33,60.59,5.6,90.84.57,7.6,1.31,16,5.78,17.92,4.74,2,19.38.36,19.68.36Z"/><path class="cls-7" d="M299,192.65c2,7.53,7.16,11.09,12.6,14.29a3.84,3.84,0,0,0,2.47.25c4.62-.72,12.33-9.12,13.51-14.62a14.18,14.18,0,0,0-6.64-6.32,17.92,17.92,0,0,0-8.26-1.74h-.21a18.67,18.67,0,0,0-2.47.28A15.36,15.36,0,0,0,299,192.65Z"/><path class="cls-6" d="M419.58,81c-12.93,10.17-29.77-2.37-42.56,2.17a17,17,0,0,1-12.34-.46,88.17,88.17,0,0,0-67.42-1,15,15,0,0,1-11.41,0c-12.66-5.5-30.22,6.85-42.92-3.91-46.85-39.7-59.83,20-60.62,63.4-.58,32,17.45,74.77,43.14,91.91A38.35,38.35,0,0,1,241.74,258c9.49,50.06,36.79,74,84.9,75,48.11.77,76.27-22.2,87.58-71.89a38.37,38.37,0,0,1,17.18-24.25c26.29-16.19,45.87-58.32,46.45-90.27C478.64,103.12,467.84,43,419.58,81Z"/><path class="cls-2" d="M315.81,189.37c6.31.22,14.13,1.06,21.41,4.61,11.19,5.46,13.89,14.27,7.48,24.9-4.17,6.92-10.21,12-16.88,16.4-.32.22-.65.42-1,.63-6.88,4.32-7.09,10.27-.44,15.13,7.23,5.28,15.46,5.54,23.78,4.06,10.59-1.89,17.86-8.38,22.79-17.69,2.29-4.31,4.95-8,10.59-7.63,3.84.26,6.16,2.74,6,6.61-.12,3.49-1.71,6.5-3.35,9.43a49.29,49.29,0,0,1-70.35,16.78c-1.51-1-2.53-1.88-4.63-.35-14.73,10.72-31.44,10.76-46.67.39-6.31-4.3-11.69-9.41-14.74-16.63a19.42,19.42,0,0,1-1.52-6.77c-.22-4.9,1.67-7.89,5.45-8.56a8.59,8.59,0,0,1,9.41,5.88c3.54,12.13,12.63,17.14,24.15,18.75,7,1,14.13-3.25,16.54-9.15,1.81-4.43,1-6.95-3-9.55-6.25-4-12-8.64-16.39-14.73a30.8,30.8,0,0,1-3-5c-3.9-8.41-1.86-15.46,6-20.44C295.64,191.32,304.65,189.32,315.81,189.37ZM313.65,199c-3.4-.3-6.71.56-10.06.78a15.65,15.65,0,0,0-3.75,1c-7.79,2.56-9.42,7.29-4.4,13.72a45.47,45.47,0,0,0,15.89,12.82c1,.48,1.95,1.26,3.25.53,7.15-4,14.14-8.24,18.73-15.32,2.94-4.52,2.07-7.54-2.71-10.17C325.31,199.35,319.46,199.19,313.65,199Z"/><path class="cls-8" d="M397.29,205c-4.72,2.08-9.52,4-14.11,6.31-2.16,1.1-3.07,0-4.2-1.25a45.43,45.43,0,0,1-10.87-22.35c-2.73-15-.93-29.24,8.21-41.77,10-13.76,23.75-20.18,40.61-16.31,16.55,3.81,26.57,15.22,30,31.62,3,14.57,1.19,28.76-6.36,42-1.87,3.28-3.77,4.51-7.14,2.3a11.57,11.57,0,0,0-1.77-.74c11-13.54,9.79-38.41.87-51-7.25-10.24-23.89-12.15-32.08-3.52,6.11.23,10.33,4,10.81,9.76.59,7.14-3.2,12.63-9.78,14.22-3.05.73-5.57-.36-7.89-2.16s-3.14-4.29-3.74-7.38C384.9,174.94,386,192.39,397.29,205Z"/><path class="cls-8" d="M236.86,204.82c-7.14-.17-14.28-.24-21,2.66-1.87.81-2.4-.61-3.07-1.48-8.27-10.63-11.27-22.83-9.91-36.05,1.18-11.38,5.33-21.6,14-29.43,10.46-9.43,22.66-13,36.26-8.55,13.38,4.42,21.09,14.35,24.15,28a58.25,58.25,0,0,1-4,38.59,34,34,0,0,1-8,10.92c-5,4.48-5,4.48-10.62,1.07,9.17-3.41,15.36-9.74,18.33-19.06a44.41,44.41,0,0,0,1.69-7.83c1.4-10.75.52-21.17-5.68-30.47a20,20,0,0,0-30-3.7c6.6.36,10.33,4.22,10.41,10.88.07,5.65-2.41,9.67-7.31,12.7-2.94,1.81-5,1.7-7.74-.13-3-2-4.59-4.75-5.82-8.43C223.52,179.89,227,193,236.86,204.82Z"/><path class="cls-9" d="M397.29,205c-11.34-12.61-12.39-30.06-7.45-40.32.6,3.09,1.51,5.64,3.74,7.38s4.84,2.89,7.89,2.16c6.58-1.59,10.37-7.08,9.78-14.22-.48-5.71-4.7-9.53-10.81-9.76,8.19-8.63,24.83-6.72,32.08,3.52,8.92,12.61,10.1,37.48-.87,51A69.4,69.4,0,0,0,397.29,205Z"/><path class="cls-9" d="M236.86,204.82c-9.84-11.81-13.34-24.93-8.23-40.35,1.23,3.68,2.85,6.43,5.82,8.43,2.73,1.83,4.8,1.94,7.74.13,4.9-3,7.38-7.05,7.31-12.7-.08-6.66-3.81-10.52-10.41-10.88a20,20,0,0,1,30,3.7c6.2,9.3,7.08,19.72,5.68,30.47a44.41,44.41,0,0,1-1.69,7.83c-3,9.32-9.16,15.65-18.33,19.06A90.59,90.59,0,0,0,236.86,204.82Z"/><path class="cls-2" d="M401.7,92.05c15.64.73,29.9,3.66,41.07,14.91a45,45,0,0,1,5.31,6.66c2.24,3.35,1.67,6.8-.82,9.69s-5.9,2.92-9.25,1.42a18.08,18.08,0,0,1-4-2.38c-13.89-11.18-29.25-12.65-45.76-7.18-2.55.84-5.14,1.94-7.94,1.51a9,9,0,0,1-7.72-7.21,11.1,11.1,0,0,1,4.91-11.79c4.82-3.09,10.37-3.9,15.85-4.8C396.29,92.4,399.28,92.28,401.7,92.05Z"/><path class="cls-2" d="M269.89,117.77c-4.23,0-7.42-1.6-10.74-2.58-12.77-3.74-24.55-2-35.4,5.77-1.15.83-2.36,1.59-3.59,2.31-4.13,2.42-7.47,2.29-9.89-.35-2.2-2.39-2.3-6.68,0-10.11a39,39,0,0,1,13.31-12.29c14.23-8.09,29.17-10.12,44.81-4.62,4.78,1.68,9,4.18,10.25,9.66C280.14,112,275.64,117.88,269.89,117.77Z"/><path class="cls-4" d="M283.82,198.88c4.14,15.78,15,23.26,26.43,30a8.15,8.15,0,0,0,5.18.51c9.7-1.51,25.86-19.11,28.32-30.65a29.79,29.79,0,0,0-13.91-13.27,37.67,37.67,0,0,0-17.33-3.64l-.44,0a37.5,37.5,0,0,0-5.17.57A32.31,32.31,0,0,0,283.82,198.88Z"/></g></g></svg>