<svg xmlns="http://www.w3.org/2000/svg" viewBox="0 0 691.53 673.08"><defs><style>.cls-1{fill:#c4bdb8;opacity:0.23;}.cls-2{fill:#8d183b;}.cls-3{fill:#febe2a;}.cls-4{fill:#ea7624;}.cls-5{fill:#f39021;}.cls-6{fill:#fbaf40;}.cls-7{fill:#fff;}.cls-8{fill:#02534e;}</style></defs><g id="Layer_2" data-name="Layer 2"><g id="Layer_1-2" data-name="Layer 1"><ellipse class="cls-1" cx="353.76" cy="624.83" rx="257.77" ry="48.26"/><path class="cls-2" d="M119.7,585.88c-4.36-9.2-8.43-18.49-10-28.67-1.81-11.54-2.67-23.11,0-34.6a73.36,73.36,0,0,1,23.83-39.82c9.68-8.4,21.09-13,33.32-15.94,2.2-.52,4.64-.07,7-.67a53.85,53.85,0,0,0-11.07-1.35,141.51,141.51,0,0,1-48-11.91A169.72,169.72,0,0,1,77,430.78c-12.1-9.5-22.91-20.21-31.69-32.88-2-2.92-5.11-4.55-7.77-6.55-7.21-5.43-13-12.08-18.29-19.24C11.46,361.56,5.17,350.2,1.61,337.52c-3.37-12-2.08-28.7,10-37.23,2.27-1.6,2.74-3.55,2.77-6.17.13-12.58,4.83-23,15.19-30.51A32.67,32.67,0,0,1,52,257.47c3.1.27,5.08-.48,6.82-3.45,4.35-7.43,11.66-10.72,19.69-12.65.67-.16,1.53-.61,1.93-.5,7.68,2,9.92-4.27,13.46-8.65,2.54-3.15,5.27-6.14,7.88-9.22a14.7,14.7,0,0,0,3.57-9.09,284.68,284.68,0,0,1,3.74-35.63c1.22-7.09,2.56-14.12,4.3-21.07,2.42-9.71,4.47-19.62,9.19-28.54,3.66-6.91,2.41-13.52.24-20.31-2-6.23-2.48-12.73-3.55-19.13a110.7,110.7,0,0,1-1.17-26.62c1.17-15.24,2.93-30.52,11.77-43.76,4.83-7.24,11.06-12.84,19.73-15A35.33,35.33,0,0,1,165.76,4c10.17,2.28,19.37,6.89,28,12.52a268.15,268.15,0,0,1,35.33,27.59c3.4,3.11,7,6,10.47,9,4.21,3.56,9,4.19,14.25,2.9a299.53,299.53,0,0,1,33.41-5.81c9.7-1.25,19.41-2.13,29.17-2.83,16.51-1.19,33-.71,49.52-.37a233.6,233.6,0,0,1,30.41,3.13c9.68,1.49,19.29,3.33,28.95,4.89,4.3.69,8.35.5,12-3.34A275.19,275.19,0,0,1,458,32c12.16-10.47,24.51-20.82,39.28-27.48,5.9-2.67,11.92-4.65,19-4.55a34.91,34.91,0,0,1,21.18,7c5.15,3.81,8,9.4,10.63,15,5,10.69,6.69,22.16,8.19,33.73a87.46,87.46,0,0,1,.43,19.11c-1.18,13-2.15,26.19-6.64,38.61-1.58,4.38.64,7.62,1.83,11,4.4,12.58,7.2,25.55,10.31,38.46,2.8,11.66,4.19,23.55,5.79,35.4.81,6,1.09,12.17,1.36,18.27.29,6.33,3.06,11.7,6.1,17,3.66,6.37,7.42,12.71,9.86,19.65,4.63,13.17,2.5,25.38-5.88,36.55-5.35,7.13-12.35,12.2-20,16.43-1.68.93-3.14,1.75-3.32,4a96.53,96.53,0,0,1-7,28.94C545.59,348,541,356,533.43,361.75c-12,9.17-23.39,10-35.29.49-1.89-1.52-2.59-.87-4,.31-1.87,1.59-.38,2.43.58,3.24a139.89,139.89,0,0,1,20.07,21.49c11.71,15,20,31.63,23.2,50.59,1.09,6.45,2.14,12.92,2,19.48a87.07,87.07,0,0,1-1.11,10.92c-.23,1.46,0,2.06,1.42,2.54,11.19,3.88,20.27,10.83,28,19.67,1.06,1.21,1.79,1.32,3.12.76,10.41-4.39,20.3-9.51,29.22-16.7,12.92-10.38,21.5-23.68,27.21-38.81,4.47-11.85,7.45-24.22,6.83-37.15-.4-8.35.47-16.72-.81-25.07A244.17,244.17,0,0,0,627,342.2c-4.65-16.11-8.46-32.44-12-48.83-.46-2.14-1.7-3.26-3.28-4.57-7.14-5.94-12.28-13.41-16.21-21.79a82.79,82.79,0,0,1-8.08-34.8,87.62,87.62,0,0,1,4.14-27.12c7.55-23.9,22.35-42.07,43.37-55.29,6.17-3.88,12.69-7.49,20-8.64,4.13-.65,8.79-1.06,12.63.18,8.1,2.63,10,8.5,7.9,17-1.8,7.19-4.56,14.14-5.89,21.48a43.68,43.68,0,0,0,2.42,23.9c2.3,6.06,5.56,11.53,8.55,17.18,5.74,10.86,9.45,22.22,8.6,34.65-.78,11.44-3.8,22.09-12.12,30.61-1.28,1.31-2.29,2.89-3.61,4.15s-.89,2.33-.5,3.73c3.34,12.06,6.8,24.08,9.8,36.21,2.87,11.57,5.64,23.17,7.25,35,1.83,13.4,1.69,26.84,1.41,40.26-.3,14.18-3.53,27.86-7.46,41.48A155.85,155.85,0,0,1,668,482.81a131.44,131.44,0,0,1-26,31.62,149.61,149.61,0,0,1-39.42,25.73c-5.6,2.45-11.43,4.4-17.21,6.43-1.11.39-1.85.63-1.94,1.94-.89,13.32-5.79,25.41-11.56,37.22-.52.76-1.09,1.49-1.55,2.28a107.22,107.22,0,0,1-28,32.25c-17.56,13.35-37.06,21.4-59.56,20.06-19.35-1.15-36.29-8.64-51.36-20.54a5.19,5.19,0,0,0-5.57-.91c-18.1,6-36.95,8.15-55.78,10.15-6.33.67-12.8.12-19.2.2-28.6.4-56.71-2.7-83.93-11.91-1.69-.57-2.45,0-3.58,1-26.48,22-56,28.52-88.64,16.31C150.3,625.47,132.43,608.47,119.7,585.88Zm555.51-201A184.28,184.28,0,0,0,670.55,349c-3.7-16.81-9.68-33-12.78-50-.39-2.17-1.57-1.54-2.76-1.3a63.24,63.24,0,0,1-15.65,1.16c-2.24-.11-4.47-.35-6.8-.54,2.17,12.63,5.78,24.53,9.41,36.43,8.34,27.38,12.24,55.13,7.3,83.68-4,23.2-13.73,43.62-29.82,60.84a105.3,105.3,0,0,1-38.86,26c-2.47,1-2.68,1.84-1.7,4.18a69.86,69.86,0,0,1,4.66,18.18c.26,2,.77,2.69,3,1.87a128.43,128.43,0,0,0,49.39-32c25.35-26.07,37.38-57.86,39.21-93.83A75.26,75.26,0,0,0,675.21,384.9ZM122.14,302.35a9.54,9.54,0,0,1-5.47-.86,9.72,9.72,0,0,1-3-6.13,76.07,76.07,0,0,0-1.38-7.91c-2.17-9.4-5.29-18.36-12.48-25.3-10.75-10.38-27.35-5.93-31.18,8.37-.15.56-.27,1.14-.46,1.69-1.47,4.28-5.22,5.7-9.19,3.5A18.91,18.91,0,0,0,31.11,288c-1.15,4.7-.46,9.24.82,13.76,1,3.71-.05,6-3.61,7.42A22.8,22.8,0,0,1,26,310c-7.22,2-9.71,7.4-10.15,14.21a29.74,29.74,0,0,0,1.83,11.66c5.6,16.25,15.2,29.75,28,41.13,3.9,3.47,8.72,5.85,11.81,10.3a134,134,0,0,0,26.24,28c27.07,21.81,58,33.46,92.73,34.68,5.84.21,5.77,0,8-5.5s4.59-10.74,8.31-15.29a7.49,7.49,0,0,1,10-1.84c3.29,2,4.48,5.86,2.89,9.79a40.77,40.77,0,0,1-1.91,3.72c-3.88,7.31-7.43,14.75-9.36,22.87-.51,2.13-.26,3,2.18,3.41a69.37,69.37,0,0,1,28.92,12.47c14,10.19,24.14,23.5,31.71,38.91a122.75,122.75,0,0,1,11.58,40.06c.58,5-2.19,9.08-6.45,9.7-4.79.7-7.91-2-8.84-7.59-.11-.69-.25-1.38-.35-2.07-2.78-19.2-9.9-36.66-21.92-51.84-16.62-21-38.26-29.88-64.64-23.37-29.71,7.34-47.6,34.5-42.07,67.07,5.32,31.29,23.1,54.25,52.07,67.86,28.56,13.41,62.61,5.17,80.34-17.12,3.25-4.08,5.71-4.41,10.37-1.93a67,67,0,0,0,13.24,5.38c19.62,5.61,39.72,7.84,60.06,8,30.25.18,60.38-.74,89-12.21,2.78-1.12,5-.33,6.87,1.8a57.39,57.39,0,0,0,8.2,7.61c17.54,13.2,37,18.39,58.5,12.85,35.75-9.2,67.94-48.49,64.68-90.41-1.32-16.86-8.28-31-22.5-40.8-16.8-11.57-38.87-11.33-56.63.23-11.18,7.28-19.52,17.21-26.47,28.42-7.61,12.27-12.82,25.54-16.6,39.44-1.48,5.43-5.41,7.8-10.15,6.55-4.11-1.09-6.13-5.29-4.82-10.47a204,204,0,0,1,7.79-23.87c.34-.88,1.47-2.09.16-2.76-2.11-1.08-3.9-2.7-6.91-.78-15.42,9.86-38,7-49-7.47a6.78,6.78,0,0,0-4.38-2.45C364.18,515,355,506.14,351,492c-3.62-12.78-.75-24.73,6.57-35.25,19.05-27.32,46.58-38.47,78.89-39.69,4.14-.16,7.13,3.56,7.09,7.93a7.27,7.27,0,0,1-7.19,7.45,96.24,96.24,0,0,0-45,13.48c-10.42,6.24-19.08,14.21-23.72,25.76-4.18,10.42-1.66,21.27,6.13,27.3,3.94,3,4.39,2.86,5.34-2,.89-4.58,1.91-9.16,4.7-13a8.41,8.41,0,0,1,10.51-3c3.42,1.71,4.57,5.46,3.05,10a77.1,77.1,0,0,0-3.05,11.09c-.9,5.12,1,9.95,5.53,12.58A23,23,0,0,0,421.44,516c1.65-.7,1.74-1.44,1.09-2.89-1.86-4.18-1.9-8.61-1.52-13.06.44-5.07,4.14-8.81,8.4-8.58,4.48.25,7,3.5,7.07,9.11a26.48,26.48,0,0,0,.69,6.58c1,3.71,3.7,5.63,7.18,6.35,3.18.65,4.73-1.67,6.23-4.05a109.87,109.87,0,0,1,10.18-13.76c16-18.3,35.48-29.17,60.4-28.45,1.74.05,2.1-.51,2.28-2.08,1-8.79.13-17.46-1.51-26.08C517,413,502,393.31,482.28,376.63c-1.33-1.13-2.1-.68-3.25.22a109.94,109.94,0,0,1-48.61,21.75c-5.14.92-10.45,2.14-15.5.2a5,5,0,0,0-5.22.5c-28.55,17.88-59.5,23-92.38,16.72A133,133,0,0,1,273,398.88c-.93-.57-1.81-2-3.31-.85-3.1,2.42-6.69,1.86-10.08,1.23A110.3,110.3,0,0,1,216.49,381c-1.2-.84-2.29-1.84-4-1.91a57.1,57.1,0,0,1-11.67-2c-18.7-4.77-34.73-13.78-46.79-29.24-4.8-6.14-6.2-12.53-2.83-19.83a76.88,76.88,0,0,0,3.64-10.17c1.73-5.73,2.72-11.53,1.73-17.58-1.46-8.92-8.37-14.3-16.87-12.63-5.17,1-8.81,4.49-12.1,8.4C125.82,298.19,124.71,300.91,122.14,302.35ZM540.82,68A95,95,0,0,0,540,52.61c-1.47-10-3.44-20-9.07-28.7-4.06-6.29-9.6-9.62-17.46-8.07a44.63,44.63,0,0,0-11.17,3.85c-8.4,4.17-15.9,9.68-23.17,15.54A365.42,365.42,0,0,0,449.55,62c-8.37,8.41-18.32,10.55-29.54,8.3C408.48,68,397,65.5,385.25,64.48a517.85,517.85,0,0,0-78-.67c-14.66.92-29.29,2.83-43.43,6.75-15,4.16-27.63,1.35-39-9.17-8-7.43-16.46-14.49-25-21.33-10.68-8.54-21.93-16.21-35.3-20.08-9.69-2.8-15.41-.75-21,7.6A39.88,39.88,0,0,0,138.29,39c-6.46,23.21-5.07,46.35,1.17,69.29,3.92,14.4,4.22,11-1.05,23.85-10.2,24.88-15.23,51-16.87,77.79-.62,10.09-3,19.26-10.51,26.56-2.25,2.18-4.07,4.79-6.12,7.18-.91,1.05-1.15,1.73.32,2.68,10,6.49,16.15,15.94,20,27,.75,2.17,1.33,2.17,3.25,1.19a30.16,30.16,0,0,1,43.46,21.76,49.06,49.06,0,0,1-4,30.67c-3.74,7.57-.85,11.94,3.77,16.75,1,1.09,2.13,2.15,3.27,3.15,5.71,5,5.72,5,11-.28,7.81-7.73,9.66-7.55,16.9.76,14,16,30.52,28.32,51.2,34.44,1.82.54,2.68.71,3.32-1.72,1.42-5.5,7.3-7.37,11.92-4.06,1.79,1.29,3.33,2.93,5.1,4.26,25.61,19.3,54.63,25.26,85.89,21a99.54,99.54,0,0,0,53.43-24.69c4.4-3.9,10.35-2.44,12,3.16,1,3.49,2.51,3.38,5.32,2.71,24.37-5.76,43.82-18.85,58.61-39,3.09-4.2,6.8-4.45,10.62-.79,2.19,2.09,4.29,4.29,6.62,6.22,6.29,5.23,11.69,5,17.66-.62,6.58-6.19,10-14.17,12.69-22.57s3.65-16.81,4.74-25.35c.42-3.27,2.26-5.14,5.33-6.18,8.33-2.84,14.83-8.18,20-15.15a21.12,21.12,0,0,0,4.33-14.4c-.41-6.46-3.86-11.65-6.92-17-6.4-11.1-11.58-22.4-12.13-35.66C551.4,182.07,544.82,153.18,535,125a22.27,22.27,0,0,1-.42-14.35A148,148,0,0,0,540.82,68Zm117.29,89.89c-.64-.49-1-.14-1.44,0a78.52,78.52,0,0,0-37.25,27.81c-15.53,21.18-20.41,44.5-11.37,69.58,5.26,14.58,15,25.6,31.31,27.57,15.73,1.89,29-4.29,32.34-21.38a45.13,45.13,0,0,0-2.85-26.34c-2.89-7-7.12-13.33-10.28-20.21-4.47-9.78-7-19.86-6.15-30.77A107.66,107.66,0,0,1,658.11,157.86Z"/><path class="cls-3" d="M540.82,68a148,148,0,0,1-6.22,42.69A22.27,22.27,0,0,0,535,125c9.8,28.17,16.38,57.06,17.61,86.92.55,13.26,5.73,24.56,12.13,35.66,3.06,5.31,6.51,10.5,6.92,17a21.12,21.12,0,0,1-4.33,14.4c-5.2,7-11.7,12.31-20,15.15-3.07,1-4.91,2.91-5.33,6.18-1.09,8.54-2.09,17.09-4.74,25.35S531.14,342,524.56,348.2c-6,5.62-11.37,5.85-17.66.62-2.33-1.93-4.43-4.13-6.62-6.22-3.82-3.66-7.53-3.41-10.62.79-14.79,20.15-34.24,33.24-58.61,39-2.81.67-4.29.78-5.32-2.71-1.63-5.6-7.58-7.06-12-3.16a99.54,99.54,0,0,1-53.43,24.69c-31.26,4.27-60.28-1.69-85.89-21-1.77-1.33-3.31-3-5.1-4.26-4.62-3.31-10.5-1.44-11.92,4.06-.64,2.43-1.5,2.26-3.32,1.72-20.68-6.12-37.22-18.4-51.2-34.44-7.24-8.31-9.09-8.49-16.9-.76-5.31,5.26-5.32,5.27-11,.28-1.14-1-2.23-2.06-3.27-3.15-4.62-4.81-7.51-9.18-3.77-16.75a49.06,49.06,0,0,0,4-30.67,30.16,30.16,0,0,0-43.46-21.76c-1.92,1-2.5,1-3.25-1.19-3.84-11.05-10-20.5-20-27-1.47-.95-1.23-1.63-.32-2.68,2-2.39,3.87-5,6.12-7.18,7.55-7.3,9.89-16.47,10.51-26.56,1.64-26.78,6.67-52.91,16.87-77.79,5.27-12.86,5-9.45,1.05-23.85-6.24-22.94-7.63-46.08-1.17-69.29a39.88,39.88,0,0,1,5.24-11.38c5.57-8.35,11.29-10.4,21-7.6,13.37,3.87,24.62,11.54,35.3,20.08,8.55,6.84,17,13.9,25,21.33,11.39,10.52,24,13.33,39,9.17,14.14-3.92,28.77-5.83,43.43-6.75a517.85,517.85,0,0,1,78,.67C397,65.5,408.48,68,420,70.27c11.22,2.25,21.17.11,29.54-8.3a365.42,365.42,0,0,1,29.57-26.74c7.27-5.86,14.77-11.37,23.17-15.54a44.63,44.63,0,0,1,11.17-3.85c7.86-1.55,13.4,1.78,17.46,8.07,5.63,8.71,7.6,18.65,9.07,28.7A95,95,0,0,1,540.82,68ZM350.54,284.78a125.61,125.61,0,0,0,21.18-18.09c6.29-6.7,7.34-15.28,2.5-23.09a32.16,32.16,0,0,0-16.42-13.47c-9.38-3.53-19.08-4-28.82-2.61-11.11,1.59-20.58,6.33-26.86,16.17a19.26,19.26,0,0,0,.76,21.34c3.48,4.76,7.94,8.47,12.5,12.08,3.72,2.95,7.31,6.13,11.9,7.74.06.7.07,1.4.17,2.09,1.42,9.08-3.53,16.2-12.47,17.92-10,1.92-20.52-3.35-25.42-12.7-2.27-4.33-5.33-6-9.89-5.47s-7.29,3-8.54,7.51a13.44,13.44,0,0,0,1.52,10.73c4.55,7.93,11.63,13.06,19.65,16.72,13.2,6,26.49,6.65,39.46-1,2.73-1.61,4.93-5.46,7.29-5.49,2.58,0,5,3.63,7.83,5.2,15.72,8.87,31.06,6.81,45.92-2.2,5.94-3.61,11.05-8.2,14-14.76a13.56,13.56,0,0,0,.6-9.89,9.6,9.6,0,0,0-8.72-7c-4.24-.38-7.77,1-10,4.92-3.52,6-8.18,10.64-15.19,12.55-9.65,2.64-18.4-.74-21.52-8.58A20.71,20.71,0,0,1,350.54,284.78ZM224.27,258c10.85,1,21.27,3.48,30.91,8.73,2.3,1.95,4.75,3.76,6.85,5.91,1.41,1.44,2.34,1.28,3.73.17A53.22,53.22,0,0,0,280.57,255c7.8-15.63,8.82-32.09,5.88-48.94-2.35-13.48-8.17-25.26-19.13-33.83-11.81-9.24-25.37-11.88-40.12-10-20.75,2.67-36.37,15.87-42.06,36-3.72,13.15-3.53,26.41-1,39.7a57.2,57.2,0,0,0,11.46,25.47c1.07,1.34,1.76,2,3.63,1A47.87,47.87,0,0,1,224.27,258Zm196.44,6.48c11.18-6.45,23.39-8.14,36-7.84a47.26,47.26,0,0,1,22,8.06c1.8,1.26,2.63,1,4-.5a41,41,0,0,0,5.39-7.7c8.32-15.6,9.85-32.11,7.22-49.41-4.49-29.46-27.31-48-56.13-45.49-21.59,1.86-37,12.79-44.79,33.37-4.27,11.3-4.71,23.1-3.52,35.08,1.55,15.74,7.58,29.09,19.61,39.59,1.54,1.35,2.64,1.46,4.13.06C416.58,267.89,418.68,266.22,420.71,264.49Zm10.21-150.77c-2.33.14-4.9.16-7.43.48a18.89,18.89,0,0,0-4.69,1.34,13.28,13.28,0,0,0-8.14,15c1.22,5.75,6.75,9.78,13.31,9.58a45.09,45.09,0,0,0,5.9-.64,59.19,59.19,0,0,1,20.48.1,65,65,0,0,1,30.27,14.22c3.82,3.19,8.35,3,11.76-.09,3.11-2.79,3.45-6.79.9-11.09a33.48,33.48,0,0,0-7.73-8.95C469.71,120.77,451.37,114.72,430.92,113.72ZM250.19,114a89.69,89.69,0,0,0-49.14,15.63c-5,3.39-9.81,7.13-13.28,12.23-1.58,2.34-2.9,4.83-2.26,7.81,1.3,6.08,8.67,8.84,14.61,3.6,10.78-9.5,23.68-13.82,37.89-14.9,6.29-.48,12.32,1.17,18.5,1.47,7.14.35,12.68-3.73,13.91-10.11,1.13-5.81-2.9-12-9.21-14.31A28.8,28.8,0,0,0,250.19,114Z"/><path class="cls-3" d="M122.14,302.35c2.57-1.44,3.68-4.16,5.46-6.28,3.29-3.91,6.93-7.38,12.1-8.4,8.5-1.67,15.41,3.71,16.87,12.63,1,6.05,0,11.85-1.73,17.58a76.88,76.88,0,0,1-3.64,10.17c-3.37,7.3-2,13.69,2.83,19.83,12.06,15.46,28.09,24.47,46.79,29.24a57.1,57.1,0,0,0,11.67,2c1.71.07,2.8,1.07,4,1.91a110.3,110.3,0,0,0,43.07,18.24c3.39.63,7,1.19,10.08-1.23,1.5-1.18,2.38.28,3.31.85A133,133,0,0,0,317.32,416c32.88,6.27,63.83,1.16,92.38-16.72a5,5,0,0,1,5.22-.5c5.05,1.94,10.36.72,15.5-.2A109.94,109.94,0,0,0,479,376.85c1.15-.9,1.92-1.35,3.25-.22C502,393.31,517,413,521.93,439c1.64,8.62,2.49,17.29,1.51,26.08-.18,1.57-.54,2.13-2.28,2.08-24.92-.72-44.41,10.15-60.4,28.45a109.87,109.87,0,0,0-10.18,13.76c-1.5,2.38-3.05,4.7-6.23,4.05-3.48-.72-6.21-2.64-7.18-6.35a26.48,26.48,0,0,1-.69-6.58c0-5.61-2.59-8.86-7.07-9.11-4.26-.23-8,3.51-8.4,8.58-.38,4.45-.34,8.88,1.52,13.06.65,1.45.56,2.19-1.09,2.89a23,23,0,0,1-21.66-1.28c-4.51-2.63-6.43-7.46-5.53-12.58A77.1,77.1,0,0,1,397.3,491c1.52-4.54.37-8.29-3.05-10a8.41,8.41,0,0,0-10.51,3c-2.79,3.87-3.81,8.45-4.7,13-1,4.86-1.4,5-5.34,2-7.79-6-10.31-16.88-6.13-27.3,4.64-11.55,13.3-19.52,23.72-25.76a96.24,96.24,0,0,1,45-13.48,7.27,7.27,0,0,0,7.19-7.45c0-4.37-2.95-8.09-7.09-7.93-32.31,1.22-59.84,12.37-78.89,39.69-7.32,10.52-10.19,22.47-6.57,35.25,4,14.12,13.22,23,27.56,26.24a6.78,6.78,0,0,1,4.38,2.45c11,14.48,33.54,17.33,49,7.47,3-1.92,4.8-.3,6.91.78,1.31.67.18,1.88-.16,2.76a204,204,0,0,0-7.79,23.87c-1.31,5.18.71,9.38,4.82,10.47,4.74,1.25,8.67-1.12,10.15-6.55,3.78-13.9,9-27.17,16.6-39.44,6.95-11.21,15.29-21.14,26.47-28.42,17.76-11.56,39.83-11.8,56.63-.23,14.22,9.79,21.18,23.94,22.5,40.8,3.26,41.92-28.93,81.21-64.68,90.41-21.52,5.54-41,.35-58.5-12.85a57.39,57.39,0,0,1-8.2-7.61c-1.91-2.13-4.09-2.92-6.87-1.8-28.66,11.47-58.79,12.39-89,12.21-20.34-.12-40.44-2.35-60.06-8a67,67,0,0,1-13.24-5.38c-4.66-2.48-7.12-2.15-10.37,1.93-17.73,22.29-51.78,30.53-80.34,17.12-29-13.61-46.75-36.57-52.07-67.86-5.53-32.57,12.36-59.73,42.07-67.07,26.38-6.51,48,2.38,64.64,23.37,12,15.18,19.14,32.64,21.92,51.84.1.69.24,1.38.35,2.07.93,5.6,4,8.29,8.84,7.59,4.26-.62,7-4.75,6.45-9.7a122.75,122.75,0,0,0-11.58-40.06c-7.57-15.41-17.73-28.72-31.71-38.91a69.37,69.37,0,0,0-28.92-12.47c-2.44-.44-2.69-1.28-2.18-3.41,1.93-8.12,5.48-15.56,9.36-22.87a40.77,40.77,0,0,0,1.91-3.72c1.59-3.93.4-7.83-2.89-9.79a7.49,7.49,0,0,0-10,1.84c-3.72,4.55-6.11,9.89-8.31,15.29s-2.2,5.71-8,5.5c-34.76-1.22-65.66-12.87-92.73-34.68a134,134,0,0,1-26.24-28c-3.09-4.45-7.91-6.83-11.81-10.3-12.79-11.38-22.39-24.88-28-41.13a29.74,29.74,0,0,1-1.83-11.66C16.33,317.38,18.82,312,26,310a22.8,22.8,0,0,0,2.28-.8c3.56-1.4,4.66-3.71,3.61-7.42-1.28-4.52-2-9.06-.82-13.76A18.91,18.91,0,0,1,59,275.71c4,2.2,7.72.78,9.19-3.5.19-.55.31-1.13.46-1.69,3.83-14.3,20.43-18.75,31.18-8.37,7.19,6.94,10.31,15.9,12.48,25.3a76.07,76.07,0,0,1,1.38,7.91,9.72,9.72,0,0,0,3,6.13c-8.56,4.52-14.11,11.79-18.52,20.13-3.42,6.46-5.85,13.17-5.36,20.63.31,4.74,2.78,7.78,7,8.7,3.5.75,7.46-1.4,9.24-5.3a19,19,0,0,0,1.21-5c1.14-7.8,1.88-15.69,6.16-22.64a86.72,86.72,0,0,0,5.12-9.1c.87-1.91,2-4.44-1.81-5.58C120.73,302.93,121.7,303.13,122.14,302.35Zm417.38,250c-.21-3.54,0-7-.85-10.47-2.52-10.72-8.27-18.74-19-22.2-9.85-3.16-18.64.21-25.89,6.54-15.54,13.55-22.11,31.28-21.48,51.64a26.42,26.42,0,0,0,6.24,16c11.1,13.46,31.8,11.59,43.11,1C533.92,583.24,538.71,568.63,539.52,552.32Zm-340.3,53.23c10.94.49,20.56-10.78,22.89-23.53a18.59,18.59,0,0,0-1.85-12.89c-1.37-2.39-3.31-3.93-6.22-3.67s-4.34,2-5.07,4.58c-.22.78-.48,1.55-.76,2.32A19.58,19.58,0,0,1,189,585.74c-5.1,0-9.83-1.21-13.87-4.68-1.92-1.64-4.33-2.3-6.8-.88a4.79,4.79,0,0,0-2.68,4.91c.33,2.53.89,5.11,2.61,7.11C175.25,600.36,183.89,605.24,199.22,605.55Zm-35.67-94c-2.4,0-6.35,3-6.9,7.11-1.19,8.77.57,16.73,7.65,22.77,5.75,4.9,14.38,2.23,16-5,1.86-8.25-1.5-15.08-6.61-21.09C171.61,512.86,168.44,511.51,163.55,511.54Zm49.63,25.33c0-4.57-2.43-10.24-5.62-13.07-5.48-4.87-12.8-3.46-14.93,3.13a16.4,16.4,0,0,0,2.27,14.88c2.61,3.75,8.39,6.28,11.78,4.8A10.21,10.21,0,0,0,213.18,536.87Zm-53.84,21c0-6.53-2.33-11-6.55-14.6a8.71,8.71,0,0,0-13.45,3.3c-2.23,5.36-.61,12.75,3.75,17.07,3.36,3.33,7.31,4.34,11.13,2.45S159.63,561.11,159.34,557.85Z"/><path class="cls-3" d="M675.19,403.69c-1.83,36-13.86,67.76-39.21,93.83a128.43,128.43,0,0,1-49.39,32c-2.27.82-2.78.11-3-1.87a69.86,69.86,0,0,0-4.66-18.18c-1-2.34-.77-3.2,1.7-4.18a105.3,105.3,0,0,0,38.86-26c16.09-17.22,25.81-37.64,29.82-60.84,4.94-28.55,1-56.3-7.3-83.68-3.63-11.9-7.24-23.8-9.41-36.43,2.33.19,4.56.43,6.8.54A63.24,63.24,0,0,0,655,297.65c1.19-.24,2.37-.87,2.76,1.3,3.1,17,9.08,33.19,12.78,50a184.28,184.28,0,0,1,4.66,35.95Q675.2,394.29,675.19,403.69Z"/><path class="cls-4" d="M658.11,157.86a107.66,107.66,0,0,0-5.69,26.27c-.8,10.91,1.68,21,6.15,30.77,3.16,6.88,7.39,13.19,10.28,20.21a45.13,45.13,0,0,1,2.85,26.34c-3.33,17.09-16.61,23.27-32.34,21.38-16.35-2-26.05-13-31.31-27.57-9-25.08-4.16-48.4,11.37-69.58a78.52,78.52,0,0,1,37.25-27.81C657.09,157.72,657.47,157.37,658.11,157.86Z"/><path class="cls-5" d="M122.14,302.35c-.44.78-1.41.58-2.38.95,3.78,1.14,2.68,3.67,1.81,5.58a86.72,86.72,0,0,1-5.12,9.1c-4.28,6.95-5,14.84-6.16,22.64a19,19,0,0,1-1.21,5c-1.78,3.9-5.74,6.05-9.24,5.3-4.27-.92-6.74-4-7-8.7-.49-7.46,1.94-14.17,5.36-20.63,4.41-8.34,10-15.61,18.52-20.13A9.54,9.54,0,0,0,122.14,302.35Z"/><path class="cls-5" d="M539.52,552.32c-.81,16.31-5.6,30.92-17.9,42.47-11.31,10.63-32,12.5-43.11-1a26.42,26.42,0,0,1-6.24-16c-.63-20.36,5.94-38.09,21.48-51.64,7.25-6.33,16-9.7,25.89-6.54,10.76,3.46,16.51,11.48,19,22.2C539.49,545.31,539.31,548.78,539.52,552.32Z"/><path class="cls-5" d="M199.22,605.55c-15.33-.31-24-5.19-30.94-13.35-1.72-2-2.28-4.58-2.61-7.11a4.79,4.79,0,0,1,2.68-4.91c2.47-1.42,4.88-.76,6.8.88,4,3.47,8.77,4.63,13.87,4.68a19.58,19.58,0,0,0,19.19-13.38c.28-.77.54-1.54.76-2.32.73-2.6,2.27-4.33,5.07-4.58s4.85,1.28,6.22,3.67A18.59,18.59,0,0,1,222.11,582C219.78,594.77,210.16,606,199.22,605.55Z"/><path class="cls-5" d="M163.55,511.54c4.89,0,8.06,1.32,10.15,3.78,5.11,6,8.47,12.84,6.61,21.09-1.63,7.24-10.26,9.91-16,5-7.08-6-8.84-14-7.65-22.77C157.2,514.56,161.15,511.53,163.55,511.54Z"/><path class="cls-5" d="M213.18,536.87a10.21,10.21,0,0,1-6.5,9.74c-3.39,1.48-9.17-1.05-11.78-4.8a16.4,16.4,0,0,1-2.27-14.88c2.13-6.59,9.45-8,14.93-3.13C210.75,526.63,213.18,532.3,213.18,536.87Z"/><path class="cls-5" d="M159.34,557.85c.29,3.26-1.42,6.4-5.12,8.22s-7.77.88-11.13-2.45c-4.36-4.32-6-11.71-3.75-17.07a8.71,8.71,0,0,1,13.45-3.3C157,546.81,159.35,551.32,159.34,557.85Z"/><path class="cls-6" d="M455.75,97c-16.74,12.13-39.43-1.78-56.2,3.86a25.4,25.4,0,0,1-16.32-.14,132.66,132.66,0,0,0-89.17,1,22.51,22.51,0,0,1-15.08.39c-16.93-5.93-39.73,8.86-56.88-3.14-63.27-44.24-78.43,24.9-78,75,.3,36.83,25.58,85.59,60.11,104.52,11.31,6.2,19.43,16.25,22.37,28.12,14.23,57.38,51.14,84.15,114.78,83.74,63.63-.65,100.09-28,113.37-85.63,2.74-11.91,10.7-22.1,21.9-28.49,34.21-19.49,58.68-68.67,58.38-105.5C534.58,120.58,518.28,51.69,455.75,97Z"/><path class="cls-7" d="M420.71,264.49c-2,1.73-4.13,3.4-6.08,5.22-1.49,1.4-2.59,1.29-4.13-.06-12-10.5-18.06-23.85-19.61-39.59-1.19-12-.75-23.78,3.52-35.08,7.76-20.58,23.2-31.51,44.79-33.37,28.82-2.49,51.64,16,56.13,45.49,2.63,17.3,1.1,33.81-7.22,49.41a41,41,0,0,1-5.39,7.7c-1.32,1.5-2.15,1.76-4,.5a47.26,47.26,0,0,0-22-8.06c1.83-2.81,4.09-5.34,5.48-8.43,7-15.55,7.69-31.36,1.48-47.26-3.2-8.2-8.78-14.5-17-18-9.69-4.11-19-3.4-28,2.67a18.75,18.75,0,0,1,10,20.7c-1.53,6.89-6.9,11.14-13.93,11.27-6.8.13-10.9-3.56-13.67-9.62a50.22,50.22,0,0,0-2,26.39C401.45,247.81,408.68,257.9,420.71,264.49Z"/><path class="cls-7" d="M224.27,258a47.87,47.87,0,0,0-25,6.37c-1.87,1-2.56.37-3.63-1a57.2,57.2,0,0,1-11.46-25.47c-2.57-13.29-2.76-26.55,1-39.7,5.69-20.14,21.31-33.34,42.06-36,14.75-1.9,28.31.74,40.12,10,11,8.57,16.78,20.35,19.13,33.83,2.94,16.85,1.92,33.31-5.88,48.94a53.22,53.22,0,0,1-14.81,17.84c-1.39,1.11-2.32,1.27-3.73-.17-2.1-2.15-4.55-4-6.85-5.91A34.57,34.57,0,0,0,274.49,251c5.4-9,7.4-19,7-29.36-.36-9.38-2.26-18.4-7.44-26.45-9.23-14.37-28.82-19.42-42.92-9.25a17,17,0,0,1,9.57,10.53c3.32,9.64-.84,19-9.61,21.35-7.15,1.92-12.78-1.07-17.2-9.12C209.16,222.11,211.2,243.94,224.27,258Z"/><path class="cls-8" d="M224.27,258c-13.07-14.07-15.11-35.9-10.38-49.27,4.42,8,10.05,11,17.2,9.12,8.77-2.35,12.93-11.71,9.61-21.35A17,17,0,0,0,231.13,186c14.1-10.17,33.69-5.12,42.92,9.25,5.18,8.05,7.08,17.07,7.44,26.45.4,10.4-1.6,20.34-7,29.36a34.57,34.57,0,0,1-19.31,15.7C245.54,261.49,235.12,259,224.27,258Z"/><path class="cls-8" d="M420.71,264.49c-12-6.59-19.26-16.68-21.73-30.12A50.22,50.22,0,0,1,401,208c2.77,6.06,6.87,9.75,13.67,9.62,7-.13,12.4-4.38,13.93-11.27a18.75,18.75,0,0,0-10-20.7c9.05-6.07,18.34-6.78,28-2.67,8.25,3.5,13.83,9.8,17,18,6.21,15.9,5.51,31.71-1.48,47.26-1.39,3.09-3.65,5.62-5.48,8.43C444.1,256.35,431.89,258,420.71,264.49Z"/><path class="cls-2" d="M350.54,284.78a20.71,20.71,0,0,0,1.36,10.62c3.12,7.84,11.87,11.22,21.52,8.58,7-1.91,11.67-6.51,15.19-12.55,2.27-3.88,5.8-5.3,10-4.92a9.6,9.6,0,0,1,8.72,7,13.56,13.56,0,0,1-.6,9.89c-2.92,6.56-8,11.15-14,14.76-14.86,9-30.2,11.07-45.92,2.2-2.79-1.57-5.25-5.23-7.83-5.2-2.36,0-4.56,3.88-7.29,5.49-13,7.64-26.26,7-39.46,1-8-3.66-15.1-8.79-19.65-16.72a13.44,13.44,0,0,1-1.52-10.73c1.25-4.48,4-7,8.54-7.51s7.62,1.14,9.89,5.47c4.9,9.35,15.45,14.62,25.42,12.7,8.94-1.72,13.89-8.84,12.47-17.92-.1-.69-.11-1.39-.17-2.09A52.92,52.92,0,0,1,350.54,284.78Z"/><path class="cls-2" d="M350.54,284.78a52.92,52.92,0,0,0-23.26.07c-4.59-1.61-8.18-4.79-11.9-7.74-4.56-3.61-9-7.32-12.5-12.08a19.26,19.26,0,0,1-.76-21.34c6.28-9.84,15.75-14.58,26.86-16.17,9.74-1.39,19.44-.92,28.82,2.61a32.16,32.16,0,0,1,16.42,13.47c4.84,7.81,3.79,16.39-2.5,23.09A125.61,125.61,0,0,1,350.54,284.78Z"/><path class="cls-2" d="M430.92,113.72c20.45,1,38.79,7,54.63,19.93a33.48,33.48,0,0,1,7.73,8.95c2.55,4.3,2.21,8.3-.9,11.09-3.41,3.06-7.94,3.28-11.76.09a65,65,0,0,0-30.27-14.22,59.19,59.19,0,0,0-20.48-.1,45.09,45.09,0,0,1-5.9.64c-6.56.2-12.09-3.83-13.31-9.58a13.28,13.28,0,0,1,8.14-15,18.89,18.89,0,0,1,4.69-1.34C426,113.88,428.59,113.86,430.92,113.72Z"/><path class="cls-2" d="M250.19,114a28.8,28.8,0,0,1,11,1.42c6.31,2.28,10.34,8.5,9.21,14.31-1.23,6.38-6.77,10.46-13.91,10.11-6.18-.3-12.21-1.95-18.5-1.47-14.21,1.08-27.11,5.4-37.89,14.9-5.94,5.24-13.31,2.48-14.61-3.6-.64-3,.68-5.47,2.26-7.81,3.47-5.1,8.27-8.84,13.28-12.23A89.69,89.69,0,0,1,250.19,114Z"/></g></g></svg>