<svg xmlns="http://www.w3.org/2000/svg" viewBox="0 0 735.87 754.1"><defs><style>.cls-1{fill:#c4bdb8;opacity:0.23;}.cls-2{fill:#fcb625;}.cls-3{fill:#febe2a;}.cls-4{fill:#fbaf40;}.cls-5{fill:#fcba19;}.cls-6{fill:#8d183b;}.cls-7{fill:#ee9a2c;}.cls-8{fill:#ea7624;}.cls-9{fill:#fff;}.cls-10{fill:#302f2f;}.cls-11{fill:#f68e46;}.cls-12{fill:#444545;}.cls-13{fill:#565656;}</style></defs><g id="Layer_2" data-name="Layer 2"><g id="Layer_1-2" data-name="Layer 1"><ellipse class="cls-1" cx="272.35" cy="703.11" rx="272.35" ry="50.99"/><path class="cls-2" d="M401.78,603.63c-.13-1.51-.21-3-.21-4.57a52.79,52.79,0,0,1,29.09-47.17,27.5,27.5,0,0,1,27.42-27.24H493.7A52.8,52.8,0,0,1,597,540.12a53.46,53.46,0,0,1-1,10h17.74a27.5,27.5,0,0,1,27.42,27.42V584a52.8,52.8,0,0,1-19.85,101.72v0H426.12a27.5,27.5,0,0,1-27.42-27.42V616.2A27.2,27.2,0,0,1,401.78,603.63Z"/><path class="cls-3" d="M656.45,491.43c-7.44-8.17-7.6-8.36-15.83-1.28-12.5,10.75-24.77,21.77-37.11,32.7-8.93,7.92-17.8,15.9-26.75,23.79a11.24,11.24,0,0,0-4,7.62c-.78,7.18-1.73,14.35-2.77,21.5-.35,2.43,0,3.47,2.78,3,7.61-1.15,15.25-2.09,22.88-3.09,2.35-.31,4-1.7,5.48-3.38Q624.54,545.64,648,519c4.46-5.07,8.76-10.3,13.47-15.11,2.75-2.81,3.53-4.83,0-7.46A48.91,48.91,0,0,1,656.45,491.43Z"/><path class="cls-4" d="M570.35,578.56c-.59-.47-.61-1.4-.41-2.8,1-7.15,2-14.32,2.77-21.5a11.24,11.24,0,0,1,4-7.62c9-7.89,17.82-15.88,26.75-23.79,12.34-10.93,24.61-22,37.11-32.7,8.23-7.08,8.39-6.89,15.83,1.28l.5.52Z"/><path class="cls-5" d="M674.08,472.91c-4.66-4.67-9.42-9.24-14-14-2.57-2.72-4.61-3-7.46-.27-7.95,7.69-8,7.6-.14,15.51s15.85,15.68,23.58,23.7c3,3.14,5.28,3.57,8.52.2,7.5-7.83,7.88-6.79.1-14.46-3.58-3.52-7.11-7.1-10.66-10.65Z"/><path class="cls-6" d="M700.61,491v0a8,8,0,0,0-2.17-7.22l-9-9a2.07,2.07,0,0,0,1.41-.6L694,471a2.09,2.09,0,0,1,3-2.95l3.19-3.19a2.09,2.09,0,0,1,3-2.95l3.19-3.19a2.09,2.09,0,0,1,3-2.95l3.18-3.18a2.09,2.09,0,0,1,3-3l3.19-3.18a2.09,2.09,0,0,1,2.95-2.95l3.19-3.19a2.09,2.09,0,0,0,0-2.95l-.38-.39,3.68-3.68a10.52,10.52,0,1,0-12.83-12.84l-3.69,3.69-.38-.39a2.09,2.09,0,0,0-3,0L705,426.89a2.09,2.09,0,1,1-3,2.95L698.83,433a2.09,2.09,0,0,1-3,3l-3.19,3.19a2.09,2.09,0,0,1-3,2.95l-3.19,3.19a2.09,2.09,0,1,1-2.95,2.95l-3.19,3.18a2.11,2.11,0,0,0,0,3,2.08,2.08,0,0,0-2.95,0l-3.18,3.18a2.1,2.1,0,0,0-.61,1.41l-12-12c-.23-.1-.47-.22-.73-.36-4.24-2.33-8.59-1.64-12.19,1.7q-4.92,4.56-9.52,9.46a11.87,11.87,0,0,0-.19,16.08c2,2.14,1.23,3.24-.54,4.79q-19.54,17-39,34.12c-10.15,8.92-20.24,17.91-30.38,26.86a20.48,20.48,0,0,0-6.73,13.62c-1,8.75-2.09,17.49-2.94,26.25-.91,9.23,3.63,12,14.27,9.38a74.45,74.45,0,0,1,16.68-2.2c9.88-.14,16.89-4.07,22.75-11.34,8.57-10.64,17.79-20.75,26.76-31.06,9.69-11.15,19.43-22.25,29.09-33.42,1.89-2.19,3.26-3.41,6.4-1.26,4.2,2.87,8.85,1.21,12.19-1.82C692.84,503,699.17,498.83,700.61,491ZM576.76,546.64c9-7.89,17.82-15.87,26.75-23.79,12.34-10.93,24.61-22,37.11-32.7,8.23-7.07,8.39-6.89,15.83,1.28a48.91,48.91,0,0,0,5,4.95c3.54,2.63,2.76,4.65,0,7.46-4.71,4.81-9,10-13.47,15.11l-46.95,53.39a8.8,8.8,0,0,1-5.47,3.38c-7.63,1-15.27,1.94-22.88,3.09-2.83.42-3.13-.62-2.78-3,1-7.15,2-14.32,2.77-21.5A11.24,11.24,0,0,1,576.76,546.64ZM684.63,498c-3.24,3.37-5.49,2.94-8.52-.2-7.73-8-15.7-15.82-23.58-23.7s-7.81-7.82.14-15.51c2.85-2.76,4.89-2.45,7.46.27,4.53,4.78,9.29,9.35,14,14h0c3.55,3.55,7.08,7.13,10.66,10.65C692.51,491.24,692.13,490.2,684.63,498Z"/><path class="cls-7" d="M418.92,619.74c-.1-1.24-.17-2.48-.17-3.74a43.14,43.14,0,0,1,23.78-38.56A22.48,22.48,0,0,1,465,555.17h29.12a43.17,43.17,0,0,1,84.44,12.64,42.54,42.54,0,0,1-.79,8.2h14.51a22.49,22.49,0,0,1,22.42,22.42v5.26a43.16,43.16,0,0,1-16.23,83.16v0H438.82a22.49,22.49,0,0,1-22.42-22.42V630A22.26,22.26,0,0,1,418.92,619.74Z"/><path class="cls-6" d="M59.88,339.51c-9.75-8.11-15-18.33-17.24-30.24a62.56,62.56,0,0,1,.85-27.63c.39-1.51.85-2.79-1-4-9.25-6.13-16-14.58-21.72-23.93-2.29-3.73-4.86-7.23-5.48-11.78a17.29,17.29,0,0,1,3.77-13.71c8.21-10.44,16.8-20.64,24.28-31.59,4.78-7,8-14.93,6.25-24.18-1-5.4-.41-11.13-.25-16.71.08-2.86-.89-4.65-3.54-5.68-3.86-1.49-5.55-4.33-5.24-8.49a75.64,75.64,0,0,1,.65-8.46c1.55-8.28,4.71-9.47,12.59-10.28,5-.51,10.09-.72,15.14-.74,2,0,2.52-1,2.76-2.41a116.21,116.21,0,0,1,6.49-22.17c.36-.94.89-1.75.33-2.92-4.66-9.74-5.1-20.43-6.5-30.86-1.61-12.07-2.29-24.21-.19-36.34a50.71,50.71,0,0,1,8.37-21c3.62-5.09,9.54-7,15.84-6.28,13.45,1.58,24.73,8.29,35.75,15.53,13.06,8.58,25.05,18.71,38.73,26.38,4.8,2.69,9.33,6,15.41,5,11.91-1.88,23.85-3.57,35.79-5.31A269.15,269.15,0,0,1,264,39.48,358.05,358.05,0,0,1,329.88,46c8,1.6,16.08,3.32,24.22,4.48,5.85.84,10.32-1.19,14.64-4.46,17.41-13.19,35.31-25.66,54.95-35.34,9.33-4.6,18.84-9.18,29.72-8.62a18.87,18.87,0,0,1,15.12,8.13c6.28,8.8,8,18.85,7.91,29.37-.1,16.71-4.25,32.65-9.14,48.45a71.21,71.21,0,0,1-2.47,7.7c-1.36,3.08-1.06,5.82.13,8.88,3.89,10.05,8.49,19.84,10.73,30.49,1.82,8.62,2.52,17.37,3.53,26.08,1.94,16.91,5.72,33,17.27,46.36,5.61,6.5,10,14,15.75,20.48,4.29,4.79,3.38,10.93,1.71,16.63-4.29,14.63-13.8,25.45-25.68,34.47a2.36,2.36,0,0,1-1,.52c-6.28.95-6.24,4.92-5.74,10.14A61.93,61.93,0,0,1,470.65,332a196.58,196.58,0,0,1,46.67,38.88c12.08,13.64,22.29,28.36,25.33,46.92A46.19,46.19,0,0,1,537.78,447c-10.45,20.35-26.88,35.22-44.87,48.59-1.77,1.31-1.87,2.08-1.24,3.94a37,37,0,0,1,1,19.61,89.29,89.29,0,0,0,34.75-6.6c12.28-5.06,23.39-11.84,32.67-21.53,11.63-12.13,18.76-26.54,23-42.67,4.91-18.6,4.2-37.08.92-55.85-4.39-25.15-14.88-48.22-23.25-72A34.44,34.44,0,0,0,551.32,306c-11.29-10.51-18.61-23.73-20.7-39.28-5-37.53,9.39-67,37.76-90.76a75.13,75.13,0,0,1,33-16.16,31.88,31.88,0,0,1,10.44-.34c4.37.51,7.7,5.77,6.49,10.25a69.91,69.91,0,0,1-3.75,10.51c-3.92,8.65-5.66,18-6.37,27.17-.45,5.82,1.21,12.09,3.41,17.92,2.46,6.51,5.82,12.53,9.09,18.62,4.58,8.52,8.21,17.4,9.47,27.09a29.27,29.27,0,0,1-1.29,11.87c-3,10.6-8.49,19.78-17,26.67-3.72,3-3.61,5.28-1.85,9,4.07,8.58,7.69,17.37,11.26,26.17,7.46,18.39,13.46,37.22,16.65,56.82,5.32,32.72,2,64.5-13.4,94.16q-27.51,52.9-84.48,72a160,160,0,0,1-60.57,8.28,176.08,176.08,0,0,1-63.66-15.93c-1.5-.69-3-1.33-5-2.17,1.89,7,3.67,13.89,5.56,20.7,4.83,17.46,9.82,34.87,14.47,52.37a6.63,6.63,0,0,0,4.5,5.05c20.77,8.39,34.78,23,41.05,44.73a46.31,46.31,0,0,1,1.44,21.81c-1,5.1-3.77,8.34-8.66,9.93-5.67,1.84-11.54,1.57-17.36,1.56-24,0-48,0-72-.34-15-.2-30.06-.92-45.09-1.41-4.32-.14-9.48-4.44-11.06-9.37-6.06-18.86-12.16-37.72-18.08-56.63-6.83-21.8-14.36-43.36-21.63-65-1-2.85-2.63-3.51-5.14-3.57-9.07-.21-18.15,0-27.21-.78a92.19,92.19,0,0,1-11.14-1.43c-1.91-.42-2.45.11-2.57,2-1.19,18.59-3.51,37.06-6.14,55.49-2,14.21-3.57,28.48-5.59,42.68-1,7.28-2.4,14.54-4,21.71-2.22,9.76-7.54,14.24-17.64,14.4-19.57.33-39.16.69-58.7,1.51-20.86.88-41.7.53-62.55.61a36.8,36.8,0,0,1-8.08-1c-5.87-1.31-9.68-4.57-11.3-10.79-2.52-9.67-.29-18.71,3-27.52,7-18.88,19.72-32.17,39.43-37.84,3.33-1,3.92-2.48,3.87-5.55-.18-11.29.37-22.6-.2-33.87-1-20.22-.22-40.43-.53-60.64,0-.62-.08-1.23-.16-2.45-4.15,2.49-7.33,5.6-11.46,7.39-17.69,7.66-44.7,2-56.71-12.54C30.14,516,30.2,500.87,42.13,487.7c-11.84-11.1-22.75-22.93-31.46-36.76C-.42,433.32-1,415.45,7.89,396.87c7.5-15.69,18.38-28.71,31.06-40.37C45.43,350.54,52,344.64,59.88,339.51Zm26.89-2.86c-1.58,2.45-3.85,3-5.55,4.35C67.57,351.93,54.13,363.08,42,375.78c-7.82,8.21-14.77,17-19.79,27.24-3.46,7-6.57,14.39-5,22.38,3.45,17.91,15,30.93,27.44,43.16,5.15,5.06,11.27,9.12,16.64,14,7.17,6.47,6.3,10.64-2.59,14.34a21.7,21.7,0,0,1-2.5,1.05c-2.61.71-4.11,2.51-5.26,4.82-3.21,6.4-1.83,13.2,3.78,18.32,13.36,12.17,34.87,11.52,47.58-1.44,5.12-5.22,5.14-6,1.79-12.47-9.9-19.07-18-38.73-19-60.59-.09-1.94-1.25-2.9-2.57-4-3.7-3.21-8-5.88-10.42-10.35s.16-8.89,5.15-9.1c2.09-.1,5,1.58,6-.06s.27-4.51.29-6.85a24.65,24.65,0,0,1,0-2.72c1-8.34,1.37-16.82,5.85-24.32,1.7-2.84,4-4.69,7.36-3.37s3.41,4.19,2.93,7.22c-2.72,17.48-3.24,35-.51,52.51,3.11,19.94,8.8,39,19.61,56.31,3.4,5.43,5.81,10.91,5.72,17.95-.26,21.78.65,43.57.88,65.37.21,19.33.13,38.67.18,58,0,5.09-1.65,7.17-6.74,7.53-12.59.91-22.44,6.77-30.07,16.5A48.9,48.9,0,0,0,78.55,692.8c-.17,1.66-.92,4.29,1.45,4.57,3.63.44,7.42,1.08,11-.32.3-.11.3-1.19.31-1.83.14-8.6,3.8-15.93,8.28-23,1.39-2.19,3-4.25,5.58-5.24a6.06,6.06,0,0,1,6.87,1.15c1.89,1.83,1,3.68,0,5.65a88.2,88.2,0,0,0-7.76,21.49c-.49,2.33.16,2.31,1.88,2.29,5.84-.06,11.68-.16,17.52,0,2.36.06,2.63-.9,2.78-2.92.69-9.45,5.06-17.31,11.25-24.19C140.9,667,145,666,147.39,668c3.41,2.84,1.61,6.15.17,9.17-2.72,5.73-5.75,11.29-7.83,17.34-1,2.87-.46,3.18,2.2,3.13,19.59-.37,39.18-.75,58.77-.87,4,0,5.77-1.46,6.64-5.2a402.45,402.45,0,0,0,7-42.35c1.75-14.46,3.5-28.93,5.08-43.4,1.12-10.26,2-20.57,3.34-30.81.3-2.34-1-2.9-2.7-3.33-5.65-1.38-11.37-2.54-16.92-4.21-5.36-1.62-11.4-2.13-15.07-7.21-1.86-2.57-3.28-5.54-1.4-8.66s5.22-3.11,8.35-2.43c4.51,1,9,2.27,13.45,3.36,20.31,5,40.68,9.37,61.82,8,4.9-.32,9.8-.62,14.71-.72s8.19,2.31,10,7.08c9.48,25.59,17.66,51.62,26.15,77.55,5.28,16.1,10.41,32.25,15.51,48.41.72,2.29,1.68,3.24,4.26,3.3,8.81.21,17.61,1,26.43,1.14,11.13.21,22.27,0,33.43,0a15.33,15.33,0,0,0-.76-4.17,69.65,69.65,0,0,0-6.33-13.72,21.45,21.45,0,0,1-3.07-7.1c-.69-4,2.28-6.64,6.12-5.49a10,10,0,0,1,3.71,2c8,7.2,13.32,15.85,14,26.81.11,1.92.76,2.07,2.18,2.11,5.71.16,11.41.29,17.11.57,2.58.13,3.11-.78,2.49-3.18-1.84-7.18-4.05-14.19-8-20.55-1.37-2.21-2.08-4.7.21-6.73s5-2,7.54-.34a13.73,13.73,0,0,1,4.31,4.44c3.67,6,6.93,12.15,8.47,19.07s1.55,7,8.52,6.72c6-.27,6.3-.63,5.55-6.66a16,16,0,0,0-.42-1.89c-4.87-19.5-16.87-32.66-35.69-39.41-5.36-1.92-8.2-5.32-9.65-10.6-6.78-24.7-13.77-49.34-20.53-74-3.52-12.88-7.6-25.16-16-36.15-7.51-9.77-11.73-21.51-9.53-34.55,1.55-9.2,4-17.93,10.35-25.14s14-13.27,14.92-23.79c.22-2.41,1.32-4.73,1.83-7.14,1.32-6.19,3.16-12.37,2.88-18.73-.34-7.55,4.31-11.36,11.51-8.81a66.4,66.4,0,0,1,21.92,13c5.75,5.08,5.69,12.27.22,17.75-4.87,4.88-10.39,8.92-15.92,13-6.66,4.92-13.82,9.18-19.64,15.23-17.83,18.51-16.9,44.46,2.42,61.17a56,56,0,0,0,31.71,13.47c6.6.65,12.51-1.74,17.87-6.1-5.59-2.41-10-5.42-11.65-11.18-1-3.49.67-6.23,4.19-7a9.36,9.36,0,0,1,6.69,1.15c5.14,2.75,10.41,4.7,16.59,3.51,7.3-1.42,11.14-5.84,10.84-13.34a2.9,2.9,0,0,0-2.57-3.19c-3-.75-6-1.41-8.77-3-4.1-2.46-4.92-7.11-1.58-10.39a18.48,18.48,0,0,1,4.49-3,116.17,116.17,0,0,0,17-10.51c13.16-10.07,25.39-20.93,34.42-35,7.22-11.27,9.66-22.83,4.47-35.75-4.15-10.31-11-18.73-17.84-27.08-13.91-16.91-31.27-29.78-49.88-41.07a3.35,3.35,0,0,0-2.16-.7c-8.12.8-15.29-2-22.13-5.95-1.53-.88-2.4-1.3-3.54.77A99.21,99.21,0,0,1,422.25,348c-12.2,16.48-27.48,29.23-46.77,36.48-8.75,3.29-18.24,7-25.25-3.76-1.72,1.63-3.21,3.07-4.74,4.46-10.07,9.18-21.25,16.61-34.43,20.49-7,2.05-14.1,3-19.91-3.15-1.06-1.12-1.51-.09-2.12.42-12.18,10.19-26.22,17-40.86,22.82-9,3.59-17.68,4.15-26.6-.06-25.23-11.92-49-26-68.59-46.24-1.8-1.85-2.57-2.46-4.24.27-3.17,5.16-8,6.34-13.47,3.68-3.14-1.53-6.12-3.39-9.18-5.09-15.5-8.6-28.43-19.78-36.37-36C88.88,340.6,88,338.91,86.77,336.65Zm-30.83-133C51.73,215.53,42.8,223.47,36,232.88c-4.93,6.83-5.05,6.67-.53,13.47,6.09,9.16,12.47,17.85,23.4,21.92,3.15,1.17,3.86,4.26,2.34,7.2-3.81,7.35-4.95,15.29-5.16,23.34-.25,10.11,2.15,19.27,10.73,25.86,2,1.51,3.47,1.8,5.5.3,4.06-3,8.22-5.89,12.37-8.77,5.08-3.52,10.51-1.77,12.24,4.14C102.64,340,114.3,354.8,132,365c6.78,3.89,6.68,4.06,9.76-3.24.25-.59.51-1.18.81-1.75,3.14-5.87,8.54-6.57,12.85-1.59,2.54,2.94,4.69,6.24,7.38,9,18.19,18.83,40,32.35,63.63,43.21a18,18,0,0,0,15.53.3c16.32-6.86,32.17-14.37,44.94-27.12,4.16-4.15,8.2-3.44,12.05,1.7,4.71,6.29,4.71,6.3,12.16,3.35,1.2-.47,2.39-1,3.56-1.54a84.74,84.74,0,0,0,31.76-26.25c4.16-5.53,9.19-5.55,13.58-.28a17.25,17.25,0,0,1,4,8.73c.29,2,1.07,2.44,3.06,1.72a84.77,84.77,0,0,0,18.08-8.94c15.9-10.43,28.29-23.81,34.64-42.13,1.95-5.64,6.14-7.26,11.3-4.18,3.55,2.12,6.73,4.87,10.31,6.93,11,6.3,18.42,3.49,22.95-8.46a8.49,8.49,0,0,0,.33-1.12c2.51-11.43,2.62-22.62-3.3-33.19-2.82-5-1.61-7.85,4-9.48,5.33-1.55,11.19-2.28,15.68-5.45a51,51,0,0,0,16.39-18.39c2.26-4.42,2.16-7.82-.49-11.79-3.93-5.91-8-11.7-12.42-17.27-12.35-15.68-18.24-33.73-20.14-53.38s-6.17-38.86-14.72-56.83c-2.12-4.47-1.88-8.43-.37-13,5.49-16.62,9.85-33.53,11.76-51a37.93,37.93,0,0,0-4.49-23.27c-.8-1.42-1.58-3.18-3.8-2.59-4.47,1.18-9.13,1.91-13.36,3.68a222.83,222.83,0,0,0-47.25,27.45C386,53.51,379.66,58.06,373,62.17c-5.56,3.44-11.46,5.42-18,4.51C349.9,66,344.79,65.07,339.74,64c-23.39-5.18-47-8.52-71-8.9-25-.39-49.71,1.48-74.15,6.88-10.35,2.29-20,1.21-29.41-4.52-12.11-7.34-23.52-15.64-35.06-23.76-9.46-6.66-18.94-13.16-30.39-16-7.41-1.87-8.52-1.38-11.21,5.88a18.16,18.16,0,0,0-.8,2.6c-2.47,12.34-1.93,24.82-.65,37.17,1,9.82,3.66,19.45,6.47,29a14.13,14.13,0,0,1-.36,9.66c-2.53,6.45-4.39,13.17-6.58,19.94,30.13.46,59.82,1.15,89.5,2.44a120.05,120.05,0,0,1,28.59,4.83c3.12.91,6.23,2.31,8,5.12,1.62,2.53,3.88,3.25,6.46,3.34,10.37.34,20.75.53,31.13.83a4.82,4.82,0,0,0,4.19-1.51c7.34-8.5,17.61-9.73,27.77-10.93,11.6-1.38,23.28-1.49,35-1.82,33.59-1,67.18-.89,100.74,1.09,7,.41,9.19,2.44,11,9.26.94,3.59.48,7.22.44,10.83,0,2.91-1,5.19-4.38,5.92-4.34.94-5.78,3.65-5.86,8.29-.27,16.87-2.2,33.48-9.24,49.18-6.37,14.22-14.71,25.92-30.33,31.59a112.12,112.12,0,0,1-59.15,5.36c-10.72-1.92-21.07-5-30.34-11.08-22.73-15-37.46-35.3-42.29-62.39-.57-3.18-2.23-5.53-5.86-5.69-5.19-.23-10.37-.57-15.55-.63-5.49-.06-7.22,1.46-8,6.77A64.52,64.52,0,0,1,211.49,193c-2.87,5.47-6.45,10.45-10.2,16.46,1.83-1.19,2.81-1.94,3.9-2.5a31.63,31.63,0,0,1,3.87-1.68c15.66-5.7,30.82-3.38,45.4,3.48,11.94,5.62,14.5,15.53,7.15,26.53-6.64,10-14.19,19.19-23.72,26.61-1,.78-2.21,1.49-2.54,2.83-1.35,5.47,1.93,13.9,6.77,16.93,10.55,6.61,21.74,5.61,33,2.39,11.09-3.17,19-10.79,26.3-19.23,2.14-2.48,4.35-4.79,7.56-5.91a6.78,6.78,0,0,1,9.17,5.59,10.11,10.11,0,0,1-2.23,8c-11.61,14.86-26,25.08-45.12,27.8-15.82,2.24-30.56.8-42.64-11.08-1.09-1.08-1.68-1.37-3.07-.17-7.57,6.57-16.66,9.42-26.5,9.59-14.41.26-25.38-7.1-35-16.85-3.55-3.6-6.59-7.66-7.72-12.82-.81-3.69.44-6.43,3.68-8.13s6.31-1.31,8.75,1.59a49.47,49.47,0,0,1,3.95,5.29c3.75,5.9,9.23,9.61,15.29,12.82,8.12,4.31,15.86,2.86,23.37-1.17,7.72-4.15,8.6-13,2.18-18.76-7.57-6.73-15-13.59-21.35-21.53-3.57-4.46-5.54-9.48-4-15.36-2.9,2-5.65,4.2-8.67,5.91-31.07,17.58-63.17,19.11-96.15,5.9a40.2,40.2,0,0,1-17.32-13.35C61.49,216.76,58.87,210.59,55.94,203.68Zm520.9,114.68a4.05,4.05,0,0,0-.08.89C587,345.47,597,371.67,600.46,400c1.65,13.67,2.72,27.18.24,40.72-5,27.43-17.45,51-38.91,69S515,534.52,487.45,534.86a6.88,6.88,0,0,0-5.68,2.41c-4.24,4.72-9,8.58-16,8.36a3.53,3.53,0,0,0-2.33,1.19c-3.3,3.76-6.63,7.45-12,10,7.41,1.46,13.75,2.41,20.14,3.23,15.21,2,30.34,1.81,45.25-1.54,30.27-6.79,56.26-21,76.71-44.91,17.09-20,26.78-43,30.4-68.82,2.25-16,.21-31.84-2.63-47.61-4.86-27-16.23-51.73-26.81-76.74-.73-1.72-1.73-2.21-3.54-2.17C586.33,318.39,581.72,319.59,576.84,318.36ZM600,176.88a42.92,42.92,0,0,0-12.52,4.52c-9.43,5.19-17.17,12.5-23.71,21-11.92,15.48-20,32.34-19,52.58.81,16.8,6.43,31.16,20.07,41.61,10.33,7.91,21.72,9,33.29,3.32,11.78-5.76,17-15.85,16.51-28.82-.28-7-3.48-13.23-6.94-19.19-8.65-14.91-15.07-30.44-14-48.17A78.58,78.58,0,0,1,600,176.88ZM249.13,225c0-1-.4-1.55-3-2.76-14.31-6.68-28.11-5.6-41.51,2.64-2.76,1.7-2.8,3-.65,5.36,6.44,7,13.87,12.9,20.57,19.6,1.29,1.29,2.21.7,3.38,0,9.31-5.86,15.28-14.62,20.73-23.82C248.86,225.69,249,225.33,249.13,225ZM413,442.19c1.75-1.49,3-2.53,4.27-3.65,5.14-4.7,5.12-4.88-1-8.33-.17-.1-.45,0-.53,0C414.84,434,414,437.77,413,442.19Z"/><path class="cls-3" d="M86.77,336.65c1.18,2.26,2.11,4,3,5.67,7.94,16.24,20.87,27.42,36.37,36,3.06,1.7,6,3.56,9.18,5.09,5.48,2.66,10.3,1.48,13.47-3.68,1.67-2.73,2.44-2.12,4.24-.27,19.62,20.22,43.36,34.32,68.59,46.24,8.92,4.21,17.6,3.65,26.6.06,14.64-5.84,28.68-12.63,40.86-22.82.61-.51,1.06-1.54,2.12-.42,5.81,6.16,12.93,5.2,19.91,3.15,13.18-3.88,24.36-11.31,34.43-20.49,1.53-1.39,3-2.83,4.74-4.46,7,10.77,16.5,7.05,25.25,3.76,19.29-7.25,34.57-20,46.77-36.48a99.21,99.21,0,0,0,7.32-11.45c1.14-2.07,2-1.65,3.54-.77,6.84,3.94,14,6.75,22.13,5.95a3.35,3.35,0,0,1,2.16.7c18.61,11.29,36,24.16,49.88,41.07,6.87,8.35,13.69,16.77,17.84,27.08,5.19,12.92,2.75,24.48-4.47,35.75-9,14.12-21.26,25-34.42,35a116.17,116.17,0,0,1-17,10.51,18.48,18.48,0,0,0-4.49,3c-3.34,3.28-2.52,7.93,1.58,10.39,2.72,1.63,5.77,2.29,8.77,3a2.9,2.9,0,0,1,2.57,3.19c.3,7.5-3.54,11.92-10.84,13.34-6.18,1.19-11.45-.76-16.59-3.51a9.36,9.36,0,0,0-6.69-1.15c-3.52.77-5.18,3.51-4.19,7C441,533,445.41,536,451,538.4c-5.36,4.36-11.27,6.75-17.87,6.1A56,56,0,0,1,401.42,531c-19.32-16.71-20.25-42.66-2.42-61.17,5.82-6.05,13-10.31,19.64-15.23,5.53-4.07,11.05-8.11,15.92-13,5.47-5.48,5.53-12.67-.22-17.75a66.4,66.4,0,0,0-21.92-13c-7.2-2.55-11.85,1.26-11.51,8.81.28,6.36-1.56,12.54-2.88,18.73-.51,2.41-1.61,4.73-1.83,7.14-.94,10.52-8.66,16.69-14.92,23.79s-8.8,15.94-10.35,25.14c-2.2,13,2,24.78,9.53,34.55,8.44,11,12.52,23.27,16,36.15,6.76,24.7,13.75,49.34,20.53,74,1.45,5.28,4.29,8.68,9.65,10.6,18.82,6.75,30.82,19.91,35.69,39.41a16,16,0,0,1,.42,1.89c.75,6,.45,6.39-5.55,6.66-7,.32-7,.32-8.52-6.72s-4.8-13.1-8.47-19.07a13.73,13.73,0,0,0-4.31-4.44c-2.58-1.63-5.24-1.71-7.54.34s-1.58,4.52-.21,6.73c3.95,6.36,6.16,13.37,8,20.55.62,2.4.09,3.31-2.49,3.18-5.7-.28-11.4-.41-17.11-.57-1.42,0-2.07-.19-2.18-2.11-.67-11-6-19.61-14-26.81a10,10,0,0,0-3.71-2c-3.84-1.15-6.81,1.53-6.12,5.49a21.45,21.45,0,0,0,3.07,7.1A69.65,69.65,0,0,1,400,693.12a15.33,15.33,0,0,1,.76,4.17c-11.16,0-22.3.16-33.43,0-8.82-.17-17.62-.93-26.43-1.14-2.58-.06-3.54-1-4.26-3.3-5.1-16.16-10.23-32.31-15.51-48.41-8.49-25.93-16.67-52-26.15-77.55-1.77-4.77-5-7.18-10-7.08s-9.81.4-14.71.72c-21.14,1.38-41.51-3-61.82-8-4.49-1.09-8.94-2.38-13.45-3.36-3.13-.68-6.41-.78-8.35,2.43s-.46,6.09,1.4,8.66c3.67,5.08,9.71,5.59,15.07,7.21,5.55,1.67,11.27,2.83,16.92,4.21,1.74.43,3,1,2.7,3.33-1.31,10.24-2.22,20.55-3.34,30.81-1.58,14.47-3.33,28.94-5.08,43.4a402.45,402.45,0,0,1-7,42.35c-.87,3.74-2.67,5.18-6.64,5.2-19.59.12-39.18.5-58.77.87-2.66,0-3.19-.26-2.2-3.13,2.08-6.05,5.11-11.61,7.83-17.34,1.44-3,3.24-6.33-.17-9.17-2.37-2-6.49-1-9.65,2.54-6.19,6.88-10.56,14.74-11.25,24.19-.15,2-.42,3-2.78,2.92-5.84-.16-11.68-.06-17.52,0-1.72,0-2.37,0-1.88-2.29a88.2,88.2,0,0,1,7.76-21.49c1-2,1.89-3.82,0-5.65A6.06,6.06,0,0,0,105.2,667c-2.55,1-4.19,3.05-5.58,5.24-4.48,7-8.14,14.35-8.28,23,0,.64,0,1.72-.31,1.83-3.61,1.4-7.4.76-11,.32-2.37-.28-1.62-2.91-1.45-4.57a48.9,48.9,0,0,1,10.29-25.65c7.63-9.73,17.48-15.59,30.07-16.5,5.09-.36,6.75-2.44,6.74-7.53-.05-19.34,0-38.68-.18-58-.23-21.8-1.14-43.59-.88-65.37.09-7-2.32-12.52-5.72-17.95-10.81-17.3-16.5-36.37-19.61-56.31-2.73-17.5-2.21-35,.51-52.51.48-3,.35-5.94-2.93-7.22s-5.66.53-7.36,3.37c-4.48,7.5-4.88,16-5.85,24.32a24.65,24.65,0,0,0,0,2.72c0,2.34.78,5.19-.29,6.85s-4,0-6,.06c-5,.21-7.55,4.63-5.15,9.1s6.72,7.14,10.42,10.35c1.32,1.14,2.48,2.1,2.57,4,1,21.86,9.1,41.52,19,60.59,3.35,6.44,3.33,7.25-1.79,12.47-12.71,13-34.22,13.61-47.58,1.44-5.61-5.12-7-11.92-3.78-18.32,1.15-2.31,2.65-4.11,5.26-4.82a21.7,21.7,0,0,0,2.5-1.05c8.89-3.7,9.76-7.87,2.59-14.34-5.37-4.85-11.49-8.91-16.64-14-12.44-12.23-24-25.25-27.44-43.16-1.53-8,1.58-15.34,5-22.38,5-10.21,12-19,19.79-27.24,12.09-12.7,25.53-23.85,39.18-34.78C82.92,339.65,85.19,339.1,86.77,336.65Z"/><path class="cls-3" d="M55.94,203.68c2.93,6.91,5.55,13.08,9.67,18.5a40.2,40.2,0,0,0,17.32,13.35c33,13.21,65.08,11.68,96.15-5.9,3-1.71,5.77-3.91,8.67-5.91-1.57,5.88.4,10.9,4,15.36,6.33,7.94,13.78,14.8,21.35,21.53,6.42,5.73,5.54,14.61-2.18,18.76-7.51,4-15.25,5.48-23.37,1.17-6.06-3.21-11.54-6.92-15.29-12.82a49.47,49.47,0,0,0-3.95-5.29c-2.44-2.9-5.52-3.29-8.75-1.59s-4.49,4.44-3.68,8.13c1.13,5.16,4.17,9.22,7.72,12.82,9.64,9.75,20.61,17.11,35,16.85,9.84-.17,18.93-3,26.5-9.59,1.39-1.2,2-.91,3.07.17C240.24,301.1,255,302.54,270.8,300.3c19.13-2.72,33.51-12.94,45.12-27.8a10.11,10.11,0,0,0,2.23-8,6.78,6.78,0,0,0-9.17-5.59c-3.21,1.12-5.42,3.43-7.56,5.91-7.28,8.44-15.21,16.06-26.3,19.23-11.26,3.22-22.45,4.22-33-2.39-4.84-3-8.12-11.46-6.77-16.93.33-1.34,1.53-2.05,2.54-2.83,9.53-7.42,17.08-16.66,23.72-26.61,7.35-11,4.79-20.91-7.15-26.53-14.58-6.86-29.74-9.18-45.4-3.48a31.63,31.63,0,0,0-3.87,1.68c-1.09.56-2.07,1.31-3.9,2.5,3.75-6,7.33-11,10.2-16.46a64.52,64.52,0,0,0,6.87-20.41c.81-5.31,2.54-6.83,8-6.77,5.18.06,10.36.4,15.55.63,3.63.16,5.29,2.51,5.86,5.69,4.83,27.09,19.56,47.41,42.29,62.39,9.27,6.12,19.62,9.16,30.34,11.08a112.12,112.12,0,0,0,59.15-5.36c15.62-5.67,24-17.37,30.33-31.59,7-15.7,9-32.31,9.24-49.18.08-4.64,1.52-7.35,5.86-8.29,3.36-.73,4.35-3,4.38-5.92,0-3.61.5-7.24-.44-10.83-1.79-6.82-4-8.85-11-9.26-33.56-2-67.15-2-100.74-1.09-11.67.33-23.35.44-35,1.82-10.16,1.2-20.43,2.43-27.77,10.93a4.82,4.82,0,0,1-4.19,1.51c-10.38-.3-20.76-.49-31.13-.83-2.58-.09-4.84-.81-6.46-3.34-1.79-2.81-4.9-4.21-8-5.12a120.05,120.05,0,0,0-28.59-4.83c-29.68-1.29-59.37-2-89.5-2.44,2.19-6.77,4-13.49,6.58-19.94a14.13,14.13,0,0,0,.36-9.66c-2.81-9.51-5.46-19.14-6.47-29-1.28-12.35-1.82-24.83.65-37.17a18.16,18.16,0,0,1,.8-2.6c2.69-7.26,3.8-7.75,11.21-5.88,11.45,2.89,20.93,9.39,30.39,16,11.54,8.12,23,16.42,35.06,23.76,9.46,5.73,19.06,6.81,29.41,4.52,24.44-5.4,49.19-7.27,74.15-6.88,24,.38,47.59,3.72,71,8.9,5.05,1.11,10.16,2,15.28,2.72,6.56.91,12.46-1.07,18-4.51,6.62-4.11,12.91-8.66,19.15-13.31a222.83,222.83,0,0,1,47.25-27.45c4.23-1.77,8.89-2.5,13.36-3.68,2.22-.59,3,1.17,3.8,2.59a37.93,37.93,0,0,1,4.49,23.27c-1.91,17.45-6.27,34.36-11.76,51-1.51,4.56-1.75,8.52.37,13,8.55,18,12.82,37.13,14.72,56.83s7.79,37.7,20.14,53.38c4.38,5.57,8.49,11.36,12.42,17.27,2.65,4,2.75,7.37.49,11.79a51,51,0,0,1-16.39,18.39c-4.49,3.17-10.35,3.9-15.68,5.45-5.6,1.63-6.81,4.44-4,9.48,5.92,10.57,5.81,21.76,3.3,33.19a8.49,8.49,0,0,1-.33,1.12c-4.53,12-12,14.76-22.95,8.46-3.58-2.06-6.76-4.81-10.31-6.93-5.16-3.08-9.35-1.46-11.3,4.18-6.35,18.32-18.74,31.7-34.64,42.13a84.77,84.77,0,0,1-18.08,8.94c-2,.72-2.77.31-3.06-1.72a17.25,17.25,0,0,0-4-8.73c-4.39-5.27-9.42-5.25-13.58.28a84.74,84.74,0,0,1-31.76,26.25c-1.17.55-2.36,1.07-3.56,1.54-7.45,2.95-7.45,2.94-12.16-3.35-3.85-5.14-7.89-5.85-12.05-1.7-12.77,12.75-28.62,20.26-44.94,27.12a18,18,0,0,1-15.53-.3c-23.64-10.86-45.44-24.38-63.63-43.21-2.69-2.79-4.84-6.09-7.38-9-4.31-5-9.71-4.28-12.85,1.59-.3.57-.56,1.16-.81,1.75-3.08,7.3-3,7.13-9.76,3.24-17.74-10.17-29.4-25-35.13-44.63-1.73-5.91-7.16-7.66-12.24-4.14C80.52,319.08,76.36,322,72.3,325c-2,1.5-3.53,1.21-5.5-.3-8.58-6.59-11-15.75-10.73-25.86.21-8.05,1.35-16,5.16-23.34,1.52-2.94.81-6-2.34-7.2C48,264.2,41.58,255.51,35.49,246.35c-4.52-6.8-4.4-6.64.53-13.47C42.8,223.47,51.73,215.53,55.94,203.68Z"/><path class="cls-3" d="M576.84,318.36c4.88,1.23,9.49,0,14.13-.06,1.81,0,2.81.45,3.54,2.17,10.58,25,22,49.74,26.81,76.74,2.84,15.77,4.88,31.59,2.63,47.61-3.62,25.79-13.31,48.82-30.4,68.82-20.45,24-46.44,38.12-76.71,44.91-14.91,3.35-30,3.51-45.25,1.54-6.39-.82-12.73-1.77-20.14-3.23,5.39-2.59,8.72-6.28,12-10a3.53,3.53,0,0,1,2.33-1.19c6.93.22,11.73-3.64,16-8.36a6.88,6.88,0,0,1,5.68-2.41c27.5-.34,53-7.29,74.34-25.17s33.89-41.55,38.91-69c2.48-13.54,1.41-27-.24-40.72-3.42-28.32-13.47-54.52-23.7-80.74A4.05,4.05,0,0,1,576.84,318.36Z"/><path class="cls-8" d="M600,176.88a78.58,78.58,0,0,0-6.32,26.85c-1.06,17.73,5.36,33.26,14,48.17,3.46,6,6.66,12.14,6.94,19.19.52,13-4.73,23.06-16.51,28.82-11.57,5.65-23,4.59-33.29-3.32-13.64-10.45-19.26-24.81-20.07-41.61-1-20.24,7.09-37.1,19-52.58,6.54-8.5,14.28-15.81,23.71-21A42.92,42.92,0,0,1,600,176.88Z"/><path class="cls-3" d="M249.13,225c-.14.29-.27.65-.47,1-5.45,9.2-11.42,18-20.73,23.82-1.17.73-2.09,1.32-3.38,0-6.7-6.7-14.13-12.62-20.57-19.6-2.15-2.34-2.11-3.66.65-5.36,13.4-8.24,27.2-9.32,41.51-2.64C248.73,223.49,249.15,224,249.13,225Z"/><path class="cls-9" d="M413,442.19c1-4.42,1.88-8.16,2.76-12,.08,0,.36-.12.53,0,6.1,3.45,6.12,3.63,1,8.33C416,439.66,414.71,440.7,413,442.19Z"/><path class="cls-10" d="M50.22,180.76A236.3,236.3,0,0,1,49.5,154a4.23,4.23,0,0,0-3.06-4.41c-4.49-1.64-6.1-4.79-5.71-9.32.22-2.55.16-5.09.64-7.67,1.51-8.12,4.29-9.66,12.82-10.39,5.74-.5,11.55-.23,17.25-1.35,3.52,1.22,7.13.31,10.7.49l4.73-.06c26.08,0,52.14,1,78.19,1.81,11.48.35,23,.65,34.26,3.76,5,1.38,10.31,2.31,13.52,6.79a7.37,7.37,0,0,0,6.09,3.24c10.63.42,21.27.57,31.9.87a4.43,4.43,0,0,0,3.8-1.5c7.34-8.48,17.59-9.73,27.75-10.93,11.6-1.38,23.28-1.48,34.94-1.82,33.59-1,67.16-.87,100.71,1.07,7,.4,9.24,2.42,11,9.22,1,4.1.69,8.26.3,12.37-.19,2-1.4,3.46-3.83,4.25-6,2-5.86,2.19-6.11,8.76C418.72,175.91,417,192.38,410,208c-6.36,14.2-14.65,25.9-30.24,31.6A111.88,111.88,0,0,1,320.74,245c-10.83-1.92-21.3-5-30.66-11.2-22.66-15-37.37-35.31-42.13-62.4-.53-3-2.12-5.37-5.56-5.55-5.44-.29-10.88-.67-16.32-.66-5.28,0-6.67,1.55-7.66,6.74a79.59,79.59,0,0,1-1.93,9.07c-3.2,10.15-8.95,18.85-15,27.41l-13.42,14.24a97.58,97.58,0,0,1-8.48,6.1c-30.5,17.41-62.14,19.26-94.83,6.84-11.38-4.33-19.17-12.29-24.49-23-1.53-3.1-2.32-6.54-4.46-9.34q-1.58-5.49-3.14-11C51.68,188.44,51.64,184.45,50.22,180.76Z"/><path class="cls-4" d="M362.62,96.91c-15.23,10.91-32.92-5.09-47.54-.76a18,18,0,0,1-13.69-1.49,93.7,93.7,0,0,0-74.92-6.44,16,16,0,0,1-12.7-.86c-13.63-7.42-34.2,5.69-47.42-7.91-48.8-50.17-68.25,18.76-72.77,69.64-3.33,37.41,13.14,89,40.28,111.09a45.17,45.17,0,0,1,16,30.4c6.36,59.43,34.73,89.66,88.18,94.54,53.46,4.63,86.72-20.12,103.47-77.5a45.2,45.2,0,0,1,21.15-27.09c30.61-16.95,55.93-64.83,59.26-102.24C426.48,127.41,419.5,56.13,362.62,96.91Z"/><path class="cls-11" d="M208.21,206.92c2.33,8.91,8.48,13.14,14.93,16.94a4.63,4.63,0,0,0,2.93.29c5.48-.86,14.61-10.81,16-17.33a16.82,16.82,0,0,0-7.86-7.5,21.23,21.23,0,0,0-9.79-2h-.25a20.39,20.39,0,0,0-2.92.33A18.2,18.2,0,0,0,208.21,206.92Z"/><path class="cls-6" d="M164.22,282c9.64,9.75,20.61,17.11,35,16.85,9.84-.17,18.93-3,26.51-9.6,1.38-1.2,2-.9,3.07.18,12.07,11.88,26.82,13.32,42.63,11.08,19.13-2.72,33.52-12.94,45.12-27.8a10.06,10.06,0,0,0,2.23-8,6.77,6.77,0,0,0-9.17-5.58c-3.2,1.12-5.42,3.43-7.55,5.91-7.28,8.44-15.22,16.06-26.31,19.23-11.25,3.22-22.45,4.21-33-2.39-4.84-3-8.12-11.46-6.76-16.93.33-1.34,1.53-2.05,2.53-2.83,9.54-7.42,17.08-16.66,23.73-26.61,7.35-11,4.79-20.91-7.16-26.53-14.58-6.86-29.74-9.18-45.39-3.48a32.45,32.45,0,0,0-3.88,1.68c-1.07.55-2.05,1.3-3.86,2.47-.05,0-.08.08-.14.11a33.2,33.2,0,0,0-13.67,13.29c-1.58,5.88.64,11.76,4.2,16.22,6.34,7.93,13.79,14.8,21.35,21.53,6.43,5.72,5.54,14.61-2.17,18.76-7.51,4-15.25,5.48-23.38,1.17-6.06-3.21-11.53-6.92-15.29-12.82a50.76,50.76,0,0,0-3.94-5.29c-2.44-2.9-5.52-3.29-8.76-1.59s-4.49,4.43-3.68,8.12C157.63,274.34,160.66,278.4,164.22,282Zm40.41-51.52c-2.16-2.33-2.12-3.65.65-5.35,13.4-8.25,27.2-9.32,41.5-2.64,2.6,1.21,3,1.73,3,2.75a9.86,9.86,0,0,1-.48,1c-5.45,9.21-11.41,18-20.73,23.82-1.17.74-2.09,1.33-3.38,0C218.49,243.39,211.07,237.47,204.63,230.48Z"/><path class="cls-8" d="M190.28,214.3c4.9,18.7,17.8,27.57,31.32,35.52,1.72,1,4.13.92,6.14.61,11.49-1.8,30.64-22.66,33.57-36.34a35.36,35.36,0,0,0-16.49-15.72,44.59,44.59,0,0,0-20.54-4.31l-.52,0a43.55,43.55,0,0,0-6.13.68A38.27,38.27,0,0,0,190.28,214.3Z"/><path class="cls-10" d="M50.22,180.76A236.3,236.3,0,0,1,49.5,154a4.23,4.23,0,0,0-3.06-4.41c-4.49-1.64-6.1-4.79-5.71-9.32.22-2.55.16-5.09.64-7.67,1.51-8.12,4.29-9.66,12.82-10.39,5.74-.5,11.55-.23,17.25-1.35,3.52,1.22,7.13.31,10.7.49l4.73-.06c26.08,0,52.14,1,78.19,1.81,11.48.35,23,.65,34.26,3.76,5,1.38,10.31,2.31,13.52,6.79a7.37,7.37,0,0,0,6.09,3.24c10.63.42,21.27.57,31.9.87a4.43,4.43,0,0,0,3.8-1.5c7.34-8.48,17.59-9.73,27.75-10.93,11.6-1.38,23.28-1.48,34.94-1.82,33.59-1,67.16-.87,100.71,1.07,7,.4,9.24,2.42,11,9.22,1,4.1.69,8.26.3,12.37-.19,2-1.4,3.46-3.83,4.25-6,2-5.86,2.19-6.11,8.76C418.72,175.91,417,192.38,410,208c-6.36,14.2-14.65,25.9-30.24,31.6A111.88,111.88,0,0,1,320.74,245c-10.83-1.92-21.3-5-30.66-11.2-22.66-15-37.37-35.31-42.13-62.4-.53-3-2.12-5.37-5.56-5.55-5.44-.29-10.88-.67-16.32-.66-5.28,0-6.67,1.55-7.66,6.74a79.59,79.59,0,0,1-1.93,9.07c-3.2,10.15-8.95,18.85-15,27.41l-13.42,14.24a97.58,97.58,0,0,1-8.48,6.1c-30.5,17.41-62.14,19.26-94.83,6.84-11.38-4.33-19.17-12.29-24.49-23-1.53-3.1-2.32-6.54-4.46-9.34q-1.58-5.49-3.14-11C51.68,188.44,51.64,184.45,50.22,180.76Z"/><path class="cls-12" d="M191.26,155.54a12.49,12.49,0,0,0-2.5-7.3l0,0c-2.28-3.17-6.06-3.83-9.58-4.81-8-2.21-16.15-2.42-24.29-2.67-18.47-.57-37-1.27-55.43-1.28l-3.36,0c-2.3-.11-4.63.41-6.91-.15a4.09,4.09,0,0,0-1.56,0c-3.76.62-5.92.1-9,2.23-6,4.12-5.56,19.41-5.62,21.11a166.73,166.73,0,0,0,.47,18.43,4.42,4.42,0,0,0,.22,1c.83,2.48.9,5.12,1.55,7.64l2.07,7.2a3.85,3.85,0,0,0,.53,1.1c1.25,1.88,1.8,4.1,2.8,6.11,3.76,7.61,9.29,13.25,17.36,16.32,23.17,8.81,45.61,7.49,67.23-4.85a45.72,45.72,0,0,0,4.94-3.52L180.83,201l.18-.25a56.47,56.47,0,0,0,10.25-32.46Z"/><path class="cls-12" d="M392.46,141.87c-23.81-.88-42.67-1.56-66.48-.85-8.27.25-16.55.31-24.77,1.29-7.2.86-14.47,1.74-19.67,7.75v0a4.21,4.21,0,0,0-1.13,2.78V170a58.87,58.87,0,0,0,25.91,49l.36.24c6.64,4.4,14.06,6.58,21.74,7.94a79.33,79.33,0,0,0,41.86-3.85c11.06-4.05,16.93-12.34,21.44-22.41,5-11,6.16-22.71,6.62-34.56C398.5,161.73,400.61,142.17,392.46,141.87Z"/><path class="cls-13" d="M179.16,143.39c-7.95-2.2-16.15-2.41-24.29-2.67-18.14-.56-36.28-1.24-54.44-1.27L74.66,187.07c.15.89.3,1.78.53,2.65l2.06,7.2a3.85,3.85,0,0,0,.53,1.1c1.25,1.88,1.8,4.1,2.8,6.11,3.77,7.61,9.29,13.26,17.36,16.32,15.82,6,31.29,7.31,46.39,3.6l42.19-78C184.37,144.64,181.7,144.1,179.16,143.39Z"/><path class="cls-13" d="M326,141c-7.68.23-15.38.32-23,1.11l-21.39,39.52a58.61,58.61,0,0,0,24.75,37.3l.37.25A47.8,47.8,0,0,0,319.48,225L365,141C352.35,140.66,340,140.6,326,141Z"/><path class="cls-13" d="M371.68,141.16l-46.22,85.41c1,.2,2,.39,3,.57a81.8,81.8,0,0,0,10.69,1.17L386,141.64C381.08,141.46,376.33,141.3,371.68,141.16Z"/></g></g></svg>